<svg width="109" height="70" viewBox="0 0 109 70" fill="none" xmlns="http://www.w3.org/2000/svg">
<path d="M36.799 30.3615C38.2701 29.805 39.8505 29.5428 41.4225 29.5586C42.2442 29.552 43.0826 29.7009 43.8066 30.1043C43.8676 30.1264 43.9323 30.199 44.0013 30.1584C44.9176 29.796 45.8966 29.6031 46.8787 29.552C47.7458 29.5085 48.639 29.5959 49.4371 29.9569C50.0771 30.2413 50.6353 30.7356 50.9302 31.3779C51.2264 32.0133 51.275 32.7294 51.2762 33.421C51.2813 35.6728 51.2886 37.9245 51.2918 40.1758C50.3951 40.1785 49.4989 40.1766 48.6022 40.1847C48.5883 38.0243 48.5898 35.8635 48.5827 33.7031C48.5916 33.2511 48.519 32.7647 48.2253 32.4044C47.9548 32.0749 47.5252 31.9296 47.1132 31.8915C46.5032 31.8238 45.8919 31.949 45.3163 32.146C45.4141 32.5691 45.4361 33.0055 45.4331 33.4389C45.4386 35.6893 45.4441 37.9393 45.4496 40.1897C44.5429 40.1891 43.6362 40.1995 42.7295 40.1922C42.7315 38.246 42.7209 36.2998 42.7184 34.3536C42.7137 33.9153 42.7321 33.4746 42.6715 33.0396C42.6281 32.7591 42.5419 32.4697 42.3417 32.2596C42.1156 32.0315 41.7899 31.9445 41.4797 31.9116C40.8133 31.8459 40.1319 31.9113 39.4976 32.1315C39.4992 34.8226 39.5117 37.5136 39.5146 40.2046C38.6193 40.2086 37.7235 40.2031 36.8277 40.2153C36.8056 36.9313 36.8071 33.646 36.799 30.3615Z" fill="white"/>
<path d="M54.5897 30.5719C55.729 29.7225 57.2156 29.4155 58.6125 29.5904C59.5517 29.6799 60.501 29.9705 61.2378 30.5789C60.8592 31.2319 60.4766 31.8831 60.1035 32.5392C59.6466 32.2025 59.1126 31.9542 58.5436 31.8964C57.8322 31.8191 57.073 31.9037 56.4565 32.2899C55.9461 32.6081 55.5905 33.1337 55.4181 33.7039C55.2165 34.3723 55.1955 35.0886 55.3059 35.7759C55.4203 36.4663 55.7576 37.1526 56.3493 37.5535C56.9952 38.0021 57.823 38.0847 58.5853 37.9896C59.1053 37.9233 59.5754 37.6739 60.0153 37.4027C60.4542 37.9828 60.9098 38.5496 61.3564 39.1233C60.5919 39.8359 59.5643 40.2017 58.541 40.3274C57.4309 40.4461 56.2719 40.3243 55.2535 39.8462C54.3399 39.421 53.5773 38.683 53.1268 37.781C52.5442 36.6247 52.4358 35.2795 52.6174 34.0117C52.8146 32.6753 53.489 31.3809 54.5897 30.5719Z" fill="white"/>
<path d="M7.21708 31.1066C8.12215 30.2468 9.35928 29.8054 10.5904 29.7151C11.4547 29.6502 12.3411 29.7013 13.1694 29.973C13.9393 30.2189 14.6408 30.6974 15.1108 31.3601C15.7445 32.2421 15.9719 33.3484 16.0031 34.4169C16.0056 36.3658 16.0172 38.3152 16.0142 40.2646C14.595 40.2617 13.1754 40.2711 11.7562 40.2723C10.8799 40.2517 9.99363 40.2275 9.13869 40.0149C8.4885 39.8551 7.87482 39.5624 7.32504 39.1822C6.9679 38.9225 6.65971 38.595 6.41916 38.2245C5.84816 37.3451 5.64094 36.2838 5.6034 35.2499L5.60247 34.8679C5.64316 33.4732 6.17902 32.0627 7.21708 31.1066ZM8.92668 32.8999C8.39583 33.5706 8.24796 34.4654 8.30912 35.2997C8.34951 36.0135 8.55053 36.7715 9.09605 37.269C9.68488 37.8132 10.5178 37.9644 11.2923 37.9984C11.9417 37.9982 12.591 37.9993 13.2403 37.9918C13.2329 37.0151 13.2342 36.0388 13.2314 35.0621C13.2206 34.5592 13.1961 34.0513 13.059 33.5646C12.9342 33.1016 12.6898 32.6525 12.293 32.3692C11.8444 32.0493 11.2703 31.9702 10.732 31.9979C10.0409 32.0292 9.35276 32.346 8.92668 32.8999Z" fill="white"/>
<path d="M27.0547 30.5675C28.0407 29.908 29.2437 29.6427 30.4178 29.6426C31.3882 29.6406 32.3881 29.8046 33.2346 30.3032C33.9027 30.6913 34.4316 31.3002 34.7494 32.0024C35.153 32.8691 35.26 33.8383 35.2623 34.7845C35.2672 36.5934 35.2684 38.4023 35.2769 40.2112C33.8782 40.2232 32.479 40.2189 31.0799 40.2255C29.8348 40.2035 28.5369 40.1717 27.3915 39.6243C26.8716 39.3718 26.3597 39.0693 25.9794 38.626C25.3903 37.9613 25.0644 37.1022 24.9223 36.2345C24.7555 35.1817 24.7824 34.0794 25.1419 33.0677C25.4882 32.0574 26.1603 31.1563 27.0547 30.5675ZM28.0717 33.0846C27.5961 33.8479 27.5416 34.792 27.661 35.6621C27.7476 36.2953 28.0156 36.9367 28.535 37.3342C29.1245 37.793 29.8929 37.9212 30.6205 37.9517C31.2721 37.9519 31.9237 37.9489 32.5753 37.9473C32.573 37.0152 32.5708 36.083 32.5685 35.1513C32.5712 34.5892 32.5384 34.0191 32.3721 33.4793C32.2277 33.004 31.9505 32.549 31.5233 32.28C30.9969 31.9475 30.3388 31.8936 29.7351 31.9851C29.0546 32.0859 28.4281 32.4954 28.0717 33.0846Z" fill="white"/>
<path d="M20.759 29.9685C21.9955 29.638 23.2956 29.6458 24.56 29.7814C24.7092 29.8019 24.8616 29.8057 25.0081 29.8439C25.0119 29.9249 24.9753 30.0014 24.9591 30.0796C24.769 30.7967 24.5811 31.5147 24.3919 32.2323C23.6343 32.0472 22.8255 31.9237 22.0593 32.1289C21.3809 32.3083 20.8078 32.8149 20.5311 33.4572C20.3407 33.8842 20.2532 34.3528 20.2448 34.8189C20.2514 36.6287 20.2513 38.4389 20.2603 40.2491C19.3427 40.2568 18.4251 40.2545 17.5074 40.2581C17.5024 38.3861 17.4983 36.5135 17.4937 34.6414C17.5287 33.5314 17.7496 32.3722 18.4286 31.4647C18.9892 30.6999 19.8543 30.2099 20.759 29.9685Z" fill="white"/>
<path d="M66.3238 29.6482C67.3439 29.5307 68.3988 29.7109 69.3158 30.1748C70.7349 30.8761 71.8 32.2413 72.1416 33.7865C72.4041 34.9504 72.2748 36.2017 71.7614 37.2811C71.1489 38.5949 69.9792 39.6368 68.5993 40.0849C67.5125 40.4441 66.3102 40.4384 65.2266 40.0704C63.7903 39.5942 62.5853 38.4763 61.9962 37.0831C61.5691 36.0892 61.459 34.9636 61.6765 33.904C61.9977 32.2844 63.1214 30.8561 64.6089 30.1449C65.1471 29.8844 65.7296 29.7156 66.3238 29.6482ZM66.5781 32.1172C65.5935 32.2278 64.6911 32.8785 64.2827 33.7821C63.9117 34.576 63.9368 35.5405 64.3461 36.3148C64.7414 37.0932 65.5054 37.6734 66.3629 37.8409C67.2205 38.0229 68.1521 37.7719 68.8082 37.1919C69.4466 36.6429 69.8284 35.8103 69.8227 34.9677C69.8202 34.1387 69.4394 33.3202 68.8052 32.7861C68.1986 32.2651 67.3718 32.0166 66.5781 32.1172Z" fill="white"/>
<path d="M91.435 42.5L88.5189 38.1156L85.9495 42.5H81.9934L86.5816 35.2199L81.8914 28.1846H85.9495L88.8248 32.5077L91.3535 28.1846H95.3096L90.7621 35.4035L95.4931 42.5H91.435ZM96.7746 39.7062C97.2369 39.3392 97.4476 39.1692 97.4068 39.1964C98.7391 38.0952 99.7859 37.1912 100.547 36.4843C101.322 35.7773 101.975 35.0364 102.505 34.2615C103.035 33.4866 103.3 32.7321 103.3 31.9979C103.3 31.4405 103.171 31.0055 102.913 30.6928C102.654 30.3801 102.267 30.2238 101.75 30.2238C101.234 30.2238 100.826 30.4209 100.527 30.8152C100.241 31.1958 100.099 31.7396 100.099 32.4466H96.7339C96.761 31.291 97.0058 30.3258 97.468 29.5508C97.9438 28.7759 98.5624 28.2049 99.3237 27.8379C100.099 27.4708 100.955 27.2873 101.893 27.2873C103.511 27.2873 104.728 27.7019 105.543 28.5312C106.373 29.3605 106.787 30.4413 106.787 31.7736C106.787 33.2283 106.291 34.581 105.299 35.8317C104.306 37.0688 103.042 38.2788 101.506 39.4615H107.012V42.2961H96.7746V39.7062Z" fill="white"/>
</svg>
