<svg width="188" height="98" viewBox="0 0 188 98" fill="none" xmlns="http://www.w3.org/2000/svg">
<path d="M116.202 0.509045C116.512 0.297633 116.82 -0.0158747 117.223 0.000625688C117.589 0.11716 117.794 0.469855 118.027 0.749331C118.223 1.02159 118.504 1.36294 118.336 1.71461C118.09 2.11887 117.667 2.36225 117.308 2.65203C115.37 4.11335 113.433 5.57776 111.495 7.03908C111.291 7.19893 111.003 7.33196 111.004 7.63413C111.389 7.73519 111.788 7.69188 112.181 7.69807C115.1 7.70116 118.018 7.69394 120.937 7.70116C121.576 7.73107 122.326 7.7486 122.785 8.2663C123.199 8.81391 123.192 9.54611 123.205 10.203C123.21 11.2044 123.189 12.2068 123.216 13.2082C123.218 13.63 123.627 13.9115 124.023 13.8929C125.918 13.9053 127.813 13.8919 129.708 13.8991C129.979 13.894 130.286 13.8795 130.495 13.6815C130.706 13.4773 130.709 13.1597 130.719 12.8874C130.72 11.5138 130.718 10.1391 130.718 8.76543C130.722 8.45605 130.75 8.09717 131.004 7.88266C131.314 7.66713 131.715 7.70735 132.074 7.69497C132.41 7.70838 132.783 7.68363 133.071 7.88679C133.331 8.13533 133.337 8.52515 133.344 8.86134C133.338 10.4093 133.351 11.9562 133.338 13.5041C133.3 14.1899 133.224 14.9644 132.699 15.4667C132.114 15.9916 131.277 16.0019 130.536 16.0411C119.691 16.0431 108.846 16.0411 98 16.0421C98.067 15.5224 98.2774 15.0026 98.6858 14.6592C99.3541 14.0755 100.28 13.9259 101.137 13.8971C107.19 13.8981 113.241 13.896 119.293 13.8991C119.629 13.8888 119.985 13.9373 120.302 13.8012C120.598 13.6475 120.56 13.269 120.567 12.9885C120.551 12.0944 120.589 11.2003 120.549 10.3072C120.535 9.92768 120.104 9.8359 119.798 9.84415C116.363 9.84002 112.928 9.84415 109.494 9.84209C108.932 9.82559 108.325 9.72246 107.898 9.32645C107.376 8.87166 107.246 8.05901 107.553 7.4485C107.776 6.97824 108.163 6.61213 108.575 6.30481C111.116 4.37117 113.662 2.44372 116.202 0.509045Z" fill="white"/>
<path d="M136.436 0.336758C136.988 0.214036 137.58 0.205786 138.13 0.349134C138.565 0.511044 138.569 1.04937 138.588 1.43713C138.591 5.18582 138.591 8.93553 138.588 12.6842C138.595 12.9792 138.546 13.302 138.712 13.5649C138.863 13.8403 139.217 13.8877 139.501 13.897C142.217 13.9001 144.933 13.8929 147.648 13.9001C147.967 13.8991 148.318 13.9114 148.588 13.7103C148.791 13.5319 148.805 13.238 148.812 12.9864C148.815 11.588 148.803 10.1896 148.816 8.79115C148.832 8.40752 148.885 7.87951 149.334 7.76813C149.862 7.66397 150.42 7.66191 150.948 7.77122C151.373 7.88363 151.441 8.38586 151.457 8.75815C151.485 10.238 151.453 11.72 151.472 13.1999C151.454 13.6361 151.887 13.9114 152.287 13.8929C154.179 13.9042 156.072 13.8929 157.965 13.8991C158.239 13.8939 158.549 13.8784 158.759 13.6794C158.959 13.4711 158.96 13.1607 158.972 12.8915C158.973 11.5158 158.971 10.1411 158.972 8.7664C158.977 8.46115 158.993 8.10948 159.241 7.89291C159.521 7.68047 159.898 7.71038 160.232 7.69491C160.596 7.71038 161.007 7.665 161.322 7.88879C161.564 8.10536 161.579 8.46012 161.59 8.76331C161.589 10.137 161.589 11.5117 161.588 12.8853C161.589 13.1627 161.622 13.4639 161.808 13.6856C162.028 13.8702 162.33 13.9001 162.607 13.8991C163.946 13.897 165.284 13.896 166.622 13.8991C166.907 13.897 167.223 13.8939 167.458 13.7072C167.634 13.5515 167.679 13.3061 167.68 13.0833C167.689 11.6499 167.668 10.2164 167.689 8.78291C167.696 8.39824 167.764 7.87848 168.209 7.76813C168.729 7.66191 169.276 7.6681 169.797 7.764C170.197 7.84548 170.301 8.30439 170.318 8.65296C170.336 9.7884 170.32 10.9249 170.325 12.0613C170.316 12.9286 170.382 13.8145 170.147 14.6612C170.025 15.0881 169.757 15.4903 169.354 15.6976C168.773 16.0008 168.099 16.0132 167.459 16.041C158.28 16.0421 149.099 16.0421 139.92 16.0421C139.091 16.0379 138.25 16.0812 137.437 15.8946C136.963 15.7832 136.511 15.5027 136.287 15.0592C135.95 14.391 135.96 13.6217 135.943 12.8915C135.943 9.27998 135.944 5.66845 135.943 2.05693C135.945 1.64339 135.924 1.22469 136.01 0.817333C136.067 0.60489 136.213 0.393478 136.436 0.336758Z" fill="white"/>
<path d="M126.952 18.2774C127.625 17.9979 128.361 18.5414 128.557 19.1808C128.703 19.7438 128.35 20.2605 127.97 20.6369C127.516 21.0783 127.114 21.6352 126.487 21.8384C125.634 22.1003 124.709 21.167 124.965 20.3172C125.1 19.8532 125.473 19.5211 125.801 19.189C126.15 18.8477 126.484 18.4558 126.952 18.2774Z" fill="white"/>
<path d="M143.959 21.4773C144.324 21.4536 144.708 21.4288 145.057 21.5619C145.41 21.7661 145.359 22.2301 145.384 22.5777C145.392 26.5697 145.383 30.5608 145.389 34.5518C145.357 34.7725 145.56 34.9757 145.78 34.9561C147.643 34.9612 149.508 34.9602 151.371 34.9561C151.549 34.9777 151.773 34.8653 151.721 34.6529C151.676 33.9733 151.305 33.3669 150.907 32.8337C149.863 31.492 148.316 30.6247 146.707 30.139C146.449 30.0585 146.162 29.8987 146.14 29.5955C146.128 29.1985 146.257 28.7591 146.564 28.4889C146.85 28.2693 147.229 28.3817 147.542 28.4735C149.235 28.9809 150.874 29.8275 152.068 31.1558C153.199 32.3985 153.86 34.097 153.724 35.7862C153.694 36.1121 153.505 36.438 153.197 36.571C152.855 36.7515 152.458 36.7092 152.087 36.7134C149.817 36.7113 147.547 36.7113 145.279 36.7134C144.839 36.7092 144.385 36.6536 143.995 36.4411C143.656 36.2544 143.454 35.8914 143.378 35.5233C143.263 34.9623 143.288 34.3868 143.286 33.8186C143.29 29.9709 143.278 26.1232 143.292 22.2765C143.251 21.8682 143.515 21.4546 143.959 21.4773Z" fill="white"/>
<path d="M155.637 24.2831C156.194 24.0366 156.804 24.5079 156.947 25.0431C157.037 25.5 156.729 25.896 156.431 26.2043C156.119 26.5106 155.824 26.8685 155.407 27.0314C154.71 27.3161 153.882 26.4807 154.161 25.7867C154.278 25.4567 154.543 25.2153 154.776 24.9647C155.027 24.6987 155.288 24.4202 155.637 24.2831Z" fill="white"/>
<path d="M140.127 26.1782C140.54 26.0493 140.994 26.0606 141.414 26.1493C141.79 26.2421 141.869 26.6794 141.869 27.0094C141.869 29.5556 141.87 32.1018 141.868 34.6481C141.848 35.1998 141.804 35.8144 141.411 36.2414C141.015 36.6209 140.436 36.7024 139.911 36.7127C137.472 36.7127 135.034 36.7106 132.596 36.7137C132.235 36.724 131.844 36.6343 131.592 36.361C131.31 36.0351 131.31 35.5793 131.33 35.174C131.404 33.5869 132.161 32.0946 133.228 30.9406C134.226 29.8681 135.46 28.9843 136.851 28.5017C137.296 28.3593 137.785 28.2315 138.246 28.3728C138.589 28.5274 138.711 28.9327 138.695 29.2823C138.689 30.3157 138.708 31.349 138.686 32.3824C138.715 32.732 138.404 33.0032 138.067 32.9877C137.664 32.9867 137.065 33.1073 136.854 32.6587C136.689 31.9533 136.858 31.218 136.737 30.5085C135.925 30.787 135.27 31.3789 134.689 31.9915C134.008 32.7557 133.356 33.6756 133.347 34.7409C133.386 34.974 133.65 34.9564 133.832 34.9605C135.619 34.9585 137.405 34.9575 139.192 34.9605C139.366 34.9595 139.563 34.9636 139.692 34.8224C139.76 34.6687 139.756 34.4965 139.761 34.3325C139.757 31.9327 139.757 29.5329 139.76 27.1332C139.774 26.7949 139.765 26.3411 140.127 26.1782Z" fill="white"/>
<path d="M122.753 29.8524C124.762 28.7221 127.102 28.2931 129.389 28.3137C129.696 28.3137 130.046 28.4086 130.189 28.7107C130.3 29.0294 130.331 29.3914 130.237 29.7183C130.142 30.0205 129.784 30.1061 129.503 30.1081C127.643 30.1535 125.76 30.4257 124.036 31.1538C123.651 31.3333 123.225 31.4972 122.97 31.8561C124.77 31.885 126.572 31.8633 128.372 31.8675C128.893 31.8726 129.47 31.8716 129.916 32.182C130.407 32.6141 130.354 33.3309 130.366 33.9249C130.334 34.6282 130.462 35.3738 130.182 36.0421C129.948 36.5814 129.295 36.7021 128.769 36.7114C125.108 36.7134 121.447 36.7114 117.786 36.7124C117.853 36.3081 117.977 35.8894 118.287 35.6028C118.821 35.0861 119.603 34.983 120.314 34.9592C122.828 34.9582 125.342 34.9572 127.857 34.9603C127.997 34.9541 128.164 34.9665 128.259 34.8386C128.321 34.4663 128.281 34.0878 128.274 33.7124C128.138 33.664 128 33.6114 127.854 33.6175C125.927 33.6196 124.001 33.6186 122.074 33.6196C121.593 33.6093 121.066 33.565 120.677 33.2514C120.286 32.8874 120.372 32.2583 120.611 31.8324C121.085 30.96 121.914 30.3484 122.753 29.8524Z" fill="white"/>
<path d="M154.152 28.4263C154.733 28.3644 155.321 28.417 155.905 28.3974C156.234 28.4036 156.621 28.3623 156.878 28.614C157.07 28.7769 157.102 29.043 157.1 29.2791C157.097 31.4799 157.098 33.6806 157.099 35.8803C157.098 36.1887 157.053 36.5878 156.724 36.7167C156.325 36.8229 155.881 36.8363 155.488 36.7023C155.173 36.5682 155.162 36.1742 155.155 35.8834C155.156 34.3025 155.156 32.7226 155.156 31.1416C155.153 30.8302 155.186 30.5136 155.109 30.2093C154.666 30.1928 154.17 30.3114 153.775 30.0619C153.474 29.7979 153.496 29.34 153.547 28.978C153.577 28.6707 153.85 28.4397 154.152 28.4263Z" fill="white"/>
<path d="M160.065 31.0768C161.693 29.1782 164.249 28.2315 166.718 28.3202C167.162 28.3202 167.431 28.7708 167.417 29.1751C167.426 30.1765 167.42 31.1778 167.42 32.1792C167.416 32.4618 167.376 32.8392 167.053 32.932C166.678 33.0362 166.264 33.0259 165.886 32.9392C165.595 32.8629 165.508 32.5463 165.505 32.2823C165.48 31.6213 165.509 30.9592 165.491 30.2981C163.952 30.2373 162.516 31.0974 161.525 32.2225C160.94 32.9145 160.396 33.724 160.311 34.6491C160.264 34.8471 160.461 34.9698 160.636 34.9554C163.08 34.9657 165.525 34.9533 167.97 34.9616C168.629 34.9925 169.345 35.0884 169.864 35.5381C170.214 35.8289 170.388 36.2723 170.46 36.7127C166.808 36.7127 163.157 36.7116 159.507 36.7127C159.132 36.7158 158.715 36.593 158.502 36.262C158.29 35.9433 158.309 35.5401 158.321 35.175C158.406 33.6601 159.079 32.2153 160.065 31.0768Z" fill="white"/>
<path d="M42.7859 50.427C44.553 49.8091 46.4414 49.5448 48.3114 49.6109C49.2893 49.6278 50.2824 49.8303 51.1317 50.332C51.2036 50.3602 51.2785 50.4486 51.3618 50.4023C52.463 49.9987 53.6337 49.7986 54.8038 49.7675C55.8368 49.7418 56.8971 49.8727 57.8358 50.3262C58.5888 50.684 59.2381 51.2889 59.5696 52.062C59.9029 52.827 59.9392 53.6805 59.9198 54.5035C59.858 57.183 59.7989 59.8625 59.7349 62.5414C58.6678 62.5176 57.6015 62.4883 56.5343 62.4709C56.5828 59.9 56.6497 57.3289 56.7063 54.7581C56.7305 54.2205 56.6588 53.6396 56.3202 53.202C56.0083 52.8018 55.5015 52.6159 55.0123 52.5582C54.2886 52.4593 53.5575 52.5898 52.8666 52.8068C52.9703 53.3132 52.9833 53.8333 52.9666 54.3488C52.9054 57.0267 52.8442 59.704 52.7829 62.3819C51.7041 62.354 50.6249 62.339 49.5462 62.303C49.6073 59.9873 49.6532 57.6713 49.7089 55.3554C49.7165 54.8337 49.7517 54.3099 49.6927 53.7905C49.6495 53.4555 49.5556 53.1085 49.3238 52.8525C49.0617 52.5742 48.6766 52.4609 48.3085 52.4124C47.5177 52.3142 46.7048 52.3714 45.9435 52.6144C45.8643 55.8165 45.7981 59.0188 45.7205 62.2209C44.6551 62.1987 43.5893 62.1651 42.5231 62.1527C42.5957 58.2445 42.6965 54.3354 42.7859 50.427Z" fill="white"/>
<path d="M63.9476 51.2133C65.3287 50.2368 67.1069 49.9164 68.7638 50.1665C69.8786 50.3014 70.9994 50.6757 71.8577 51.4218C71.3876 52.1874 70.9127 52.9507 70.449 53.7202C69.9155 53.3058 69.2876 52.9942 68.6123 52.9084C67.7682 52.7949 66.8623 52.8727 66.117 53.3136C65.5002 53.6769 65.0611 54.2916 64.8389 54.9649C64.5789 55.7542 64.5324 56.6058 64.643 57.4269C64.7584 58.2519 65.139 59.0786 65.8309 59.5736C66.5859 60.1268 67.5684 60.2499 68.4784 60.1598C69.0992 60.0966 69.666 59.8139 70.1976 59.5045C70.7023 60.2079 71.2274 60.8961 71.7415 61.5922C70.8104 62.4171 69.5766 62.8214 68.3552 62.9402C67.0307 63.0479 65.6554 62.8682 64.4581 62.2685C63.3837 61.7351 62.4986 60.834 61.9897 59.7472C61.3313 58.3538 61.2429 56.7498 61.4971 55.2468C61.772 53.6625 62.6135 52.1426 63.9476 51.2133Z" fill="white"/>
<path d="M7.56486 50.422C8.66768 49.4262 10.153 48.9383 11.6207 48.8679C12.651 48.8168 13.7041 48.9042 14.6815 49.2524C15.5903 49.5683 16.4105 50.1587 16.9498 50.9615C17.6773 52.03 17.9145 53.3532 17.9195 54.6255C17.8637 56.9446 17.8188 59.2644 17.7566 61.5839C16.068 61.5377 14.3785 61.5061 12.6898 61.4648C11.6477 61.4139 10.5939 61.3584 9.58299 61.0797C8.81416 60.8699 8.09277 60.5032 7.45005 60.0343C7.03293 59.7145 6.67608 59.3155 6.40102 58.8674C5.74808 57.8038 5.53348 56.5348 5.51996 55.3034L5.53036 54.8489C5.6208 53.1906 6.30088 51.5284 7.56486 50.422ZM9.54505 52.6074C8.89321 53.3894 8.69031 54.4496 8.73794 55.4441C8.7645 56.2947 8.98086 57.2027 9.61498 57.8111C10.2992 58.4764 11.2858 58.6814 12.2063 58.7452C12.9789 58.7645 13.7516 58.7854 14.5244 58.7961C14.545 57.6336 14.5759 56.472 14.602 55.3097C14.6043 54.711 14.5905 54.106 14.442 53.5228C14.3074 52.968 14.0302 52.4263 13.5666 52.0773C13.0424 51.6831 12.3617 51.5717 11.7203 51.5884C10.8971 51.6048 10.0687 51.961 9.54505 52.6074Z" fill="white"/>
<path d="M31.1848 50.3784C32.378 49.6234 33.8174 49.344 35.2144 49.3792C36.3691 49.4061 37.5539 49.6314 38.5462 50.2501C39.3293 50.732 39.9404 51.4725 40.2973 52.3176C40.7515 53.361 40.8496 54.5174 40.8238 55.6434C40.7751 57.7959 40.7221 59.9483 40.6778 62.1009C39.0131 62.0731 37.3484 62.0259 35.6833 61.9916C34.2025 61.9279 32.6592 61.8509 31.3128 61.1651C30.7017 60.849 30.1018 60.4737 29.6626 59.9347C28.9817 59.126 28.6198 58.094 28.4768 57.0572C28.3101 55.7996 28.3753 54.4888 28.8335 53.2958C29.276 52.104 30.1029 51.0521 31.1848 50.3784ZM32.3191 53.4042C31.7302 54.298 31.6369 55.4198 31.7528 56.4587C31.8367 57.2147 32.1364 57.986 32.7424 58.4746C33.43 59.0382 34.3404 59.2139 35.2052 59.2721C35.9806 59.292 36.756 59.3081 37.5314 59.3259C37.5568 58.2166 37.5821 57.1074 37.6075 55.9987C37.6277 55.33 37.6058 54.6506 37.4241 54.0033C37.2666 53.4334 36.9506 52.8837 36.4504 52.5507C35.834 52.1392 35.0525 52.0553 34.3315 52.146C33.5188 52.2454 32.761 52.7137 32.3191 53.4042Z" fill="white"/>
<path d="M23.7123 49.4757C25.1936 49.1198 26.7403 49.1682 28.2407 49.3676C28.4176 49.3966 28.5988 49.4056 28.772 49.4555C28.7741 49.552 28.7282 49.6419 28.7066 49.7345C28.4588 50.582 28.2136 51.4307 27.9668 52.2788C27.071 52.0358 26.1123 51.8645 25.1945 52.0855C24.3818 52.2786 23.6847 52.8641 23.3361 53.62C23.0966 54.1224 22.9784 54.6773 22.9543 55.2316C22.9078 57.3853 22.8531 59.5392 22.8093 61.6935C21.7172 61.675 20.6254 61.6446 19.5334 61.6212C19.5838 59.3935 19.6353 57.1653 19.6863 54.9376C19.7614 53.6179 20.0591 52.2452 20.8943 51.1859C21.5845 50.2927 22.6285 49.7357 23.7123 49.4757Z" fill="white"/>
<path d="M77.9377 50.4674C79.155 50.3583 80.4049 50.6045 81.4819 51.1841C83.1493 52.0613 84.3756 53.7178 84.7355 55.5667C85.0128 56.9596 84.8213 58.4445 84.1778 59.7134C83.4095 61.2582 81.9862 62.4627 80.3308 62.9544C79.0268 63.349 77.5964 63.306 76.3182 62.8355C74.6235 62.2256 73.2234 60.8591 72.5644 59.1836C72.0861 57.9881 71.989 56.6455 72.2797 55.3912C72.7107 53.4738 74.0908 51.8081 75.8822 51.0067C76.5304 50.713 77.2287 50.5297 77.9377 50.4674ZM78.1659 53.4129C76.991 53.5148 75.8976 54.2618 75.3844 55.3247C74.9192 56.2583 74.92 57.4065 75.3837 58.3402C75.8305 59.2783 76.7221 59.9917 77.7375 60.2168C78.7524 60.4593 79.8684 60.1887 80.6666 59.5183C81.4428 58.8843 81.9221 57.905 81.9407 56.9023C81.9627 55.9159 81.5343 54.9305 80.7957 54.2759C80.0897 53.6377 79.1133 53.3171 78.1659 53.4129Z" fill="white"/>
<path d="M159.876 97.3834C159.884 95.3786 159.858 93.3753 159.888 91.3721C160.731 91.3919 161.573 91.3721 162.416 91.3797C162.445 93.3814 162.435 95.3893 162.409 97.391C161.565 97.3788 160.72 97.3925 159.876 97.3834Z" fill="white"/>
<path d="M86.0143 91.5039C86.8855 91.5222 87.7551 91.507 88.6263 91.5146C88.6233 92.549 88.6248 93.585 88.6263 94.6209C88.6233 95.0512 88.7469 95.5089 89.0566 95.8202C89.47 96.1787 90.0483 96.1924 90.5686 96.2016C95.3303 96.2001 100.092 96.2016 104.855 96.2001C104.857 96.5464 104.857 96.8927 104.854 97.2406C99.5306 97.2345 94.2059 97.2482 88.8826 97.233C87.5583 97.2116 86.1638 96.2885 86.0204 94.8956C85.9884 93.7665 85.9975 92.6345 86.0143 91.5039Z" fill="white"/>
<path d="M109.67 91.5223C110.546 91.5299 111.423 91.5116 112.299 91.533C112.274 92.5125 112.294 93.4935 112.286 94.473C112.273 94.9506 112.354 95.4708 112.701 95.8263C113.075 96.1437 113.588 96.22 114.064 96.2139C118.162 96.2108 122.26 96.2154 126.358 96.2108C126.358 94.6469 126.357 93.0831 126.357 91.5192C127.228 91.5223 128.101 91.5314 128.972 91.5146C128.99 93.4325 128.976 95.3518 128.979 97.2697C123.502 97.2391 118.023 97.2742 112.546 97.2513C111.215 97.2224 109.819 96.2962 109.679 94.8956C109.648 93.7712 109.668 92.6452 109.67 91.5223Z" fill="white"/>
<path d="M134.736 92.8708C135.364 91.9675 136.488 91.5068 137.568 91.5266C142.971 91.5251 148.375 91.5098 153.777 91.5342C153.767 91.8745 153.764 92.2147 153.767 92.5565C148.978 92.5641 144.187 92.5595 139.398 92.558C138.842 92.5687 138.24 92.5244 137.747 92.825C137.271 93.0828 137.092 93.655 137.074 94.1631C137.043 94.7398 137.115 95.3989 137.577 95.8017C137.988 96.1617 138.557 96.2136 139.08 96.2136C143.975 96.2106 148.871 96.2121 153.765 96.2121C153.764 96.5584 153.765 96.9048 153.768 97.2511C148.317 97.245 142.864 97.2511 137.411 97.2496C136.567 97.2328 135.71 96.9139 135.107 96.3143C134.177 95.4599 134.029 93.9067 134.736 92.8708Z" fill="white"/>
<path d="M168.519 91.5232C173.916 91.5247 179.312 91.5186 184.709 91.5247C185.739 91.5095 186.837 91.897 187.466 92.7468C188.189 93.6714 188.166 95.0751 187.469 96.0058C186.843 96.7915 185.85 97.2431 184.851 97.2462C179.407 97.2523 173.963 97.2462 168.519 97.2492C168.516 95.339 168.515 93.4319 168.519 91.5232ZM171.151 92.5531C171.15 93.7706 171.15 94.9866 171.151 96.2041C175.208 96.2209 179.265 96.2056 183.324 96.2117C183.99 96.227 184.808 96.0134 185.061 95.3177C185.29 94.6723 185.305 93.9049 184.999 93.2824C184.675 92.6919 183.951 92.5638 183.337 92.5607C179.276 92.5516 175.213 92.5683 171.151 92.5531Z" fill="white"/>
</svg>
