<svg width="139" height="31" viewBox="0 0 139 31" fill="none" xmlns="http://www.w3.org/2000/svg">
<path d="M73.8771 18.502C73.8847 16.4973 73.8588 14.494 73.8893 12.4907C74.7315 12.5106 75.5737 12.4907 76.4174 12.4984C76.4464 14.5001 76.4357 16.5079 76.4098 18.5097C75.5661 18.4975 74.7208 18.5112 73.8771 18.502Z" fill="white"/>
<path d="M0.0152748 12.6226C0.886459 12.6409 1.75612 12.6256 2.6273 12.6332C2.62425 13.6677 2.62577 14.7036 2.6273 15.7396C2.62425 16.1698 2.74783 16.6276 3.05755 16.9388C3.47102 17.2974 4.04927 17.3111 4.56954 17.3202C9.3313 17.3187 14.0931 17.3202 18.8563 17.3187C18.8579 17.6651 18.8579 18.0114 18.8548 18.3593C13.5316 18.3532 8.20685 18.3669 2.88362 18.3516C1.5593 18.3303 0.164795 17.4072 0.0213778 16.0142C-0.0106622 14.8852 -0.00150804 13.7531 0.0152748 12.6226Z" fill="white"/>
<path d="M23.6708 12.6409C24.5466 12.6486 25.4239 12.6303 26.2996 12.6516C26.2752 13.6311 26.2951 14.6122 26.2874 15.5917C26.2737 16.0692 26.3546 16.5895 26.7024 16.945C27.0762 17.2623 27.5889 17.3386 28.0649 17.3325C32.163 17.3295 36.261 17.334 40.3591 17.3295C40.3591 15.7656 40.3576 14.2017 40.3576 12.6379C41.2288 12.6409 42.1015 12.6501 42.9727 12.6333C42.991 14.5511 42.9772 16.4705 42.9803 18.3883C37.503 18.3578 32.0241 18.3929 26.5468 18.37C25.2164 18.341 23.8203 17.4149 23.68 16.0143C23.6495 14.8898 23.6693 13.7639 23.6708 12.6409Z" fill="white"/>
<path d="M48.7374 13.9894C49.3645 13.0862 50.489 12.6254 51.5692 12.6453C56.9717 12.6437 62.3758 12.6285 67.7784 12.6529C67.7677 12.9931 67.7646 13.3334 67.7677 13.6751C62.9785 13.6828 58.1877 13.6782 53.3985 13.6767C52.8431 13.6873 52.2405 13.6431 51.7477 13.9437C51.2716 14.2015 51.0931 14.7736 51.0748 15.2817C51.0443 15.8584 51.116 16.5175 51.5783 16.9203C51.9887 17.2804 52.5578 17.3323 53.0812 17.3323C57.9757 17.3292 62.8717 17.3307 67.7662 17.3307C67.7646 17.6771 67.7662 18.0234 67.7692 18.3698C62.3178 18.3636 56.8649 18.3698 51.412 18.3682C50.5683 18.3514 49.7108 18.0326 49.1082 17.433C48.1775 16.5786 48.0295 15.0254 48.7374 13.9894Z" fill="white"/>
<path d="M82.5205 12.6419C87.9169 12.6434 93.3134 12.6373 98.7099 12.6434C99.7397 12.6281 100.838 13.0157 101.467 13.8655C102.19 14.7901 102.167 16.1937 101.47 17.1244C100.844 17.9102 99.8511 18.3618 98.8517 18.3648C93.408 18.3709 87.9642 18.3648 82.5205 18.3679C82.5174 16.4577 82.5159 14.5505 82.5205 12.6419ZM85.1523 13.6717C85.1508 14.8893 85.1508 16.1052 85.1523 17.3228C89.2092 17.3396 93.2661 17.3243 97.3245 17.3304C97.9912 17.3457 98.809 17.1321 99.0623 16.4363C99.2911 15.791 99.3064 15.0235 98.9997 14.401C98.6763 13.8106 97.9516 13.6824 97.3382 13.6794C93.2768 13.6702 89.2138 13.687 85.1523 13.6717Z" fill="white"/>
<path d="M122.42 23L119.504 18.6156L116.935 23H112.979L117.567 15.7199L112.877 8.68456H116.935L119.81 13.0077L122.339 8.68456H126.295L121.747 15.9035L126.478 23H122.42ZM127.76 20.2062C128.222 19.8392 128.433 19.6692 128.392 19.6964C129.724 18.5952 130.771 17.6912 131.533 16.9843C132.307 16.2773 132.96 15.5364 133.49 14.7615C134.02 13.9866 134.286 13.2321 134.286 12.4979C134.286 11.9405 134.156 11.5055 133.898 11.1928C133.64 10.8801 133.252 10.7238 132.736 10.7238C132.219 10.7238 131.811 10.9209 131.512 11.3152C131.227 11.6958 131.084 12.2396 131.084 12.9466H127.719C127.746 11.791 127.991 10.8258 128.453 10.0508C128.929 9.27593 129.548 8.70495 130.309 8.33788C131.084 7.97082 131.94 7.78729 132.878 7.78729C134.496 7.78729 135.713 8.20194 136.529 9.03123C137.358 9.86052 137.773 10.9413 137.773 12.2736C137.773 13.7283 137.276 15.081 136.284 16.3317C135.292 17.5688 134.027 18.7788 132.491 19.9615H137.997V22.7961H127.76V20.2062Z" fill="white"/>
</svg>
