<svg width="183" height="12" viewBox="0 0 183 12" fill="none" xmlns="http://www.w3.org/2000/svg">
<path d="M132.124 11.0995C132.137 7.52197 132.091 3.94711 132.145 0.372253C133.648 0.407648 135.151 0.372258 136.657 0.385872C136.709 3.95801 136.69 7.54103 136.643 11.1132C135.138 11.0914 133.629 11.1159 132.124 11.0995Z" fill="white"/>
<path d="M0.316321 0.606384C1.87096 0.639056 3.42288 0.611823 4.97752 0.625437C4.97208 2.4714 4.9748 4.3201 4.97752 6.16879C4.97208 6.93658 5.19261 7.75337 5.74531 8.3088C6.48315 8.94862 7.51504 8.97313 8.44347 8.98946C16.9409 8.98674 25.4383 8.98947 33.9385 8.98674C33.9412 9.60479 33.9412 10.2228 33.9358 10.8436C24.4364 10.8327 14.9343 10.8572 5.43493 10.83C3.07166 10.7919 0.583142 9.14465 0.327212 6.65886C0.270036 4.64409 0.286371 2.62388 0.316321 0.606384Z" fill="white"/>
<path d="M42.5285 0.639046C44.0913 0.652659 45.6568 0.619989 47.2196 0.658106C47.1761 2.40606 47.2114 4.15673 47.1978 5.90468C47.1733 6.75687 47.3176 7.6853 47.9384 8.31968C48.6054 8.88599 49.5203 9.02213 50.3697 9.01124C57.6828 9.00579 64.9959 9.01396 72.309 9.00579C72.309 6.21506 72.3062 3.42433 72.3062 0.633603C73.8609 0.639049 75.4182 0.655377 76.9729 0.625427C77.0056 4.04782 76.9811 7.47293 76.9865 10.8953C67.2121 10.8409 57.435 10.9035 47.6607 10.8626C45.2865 10.8109 42.7953 9.15826 42.5448 6.65885C42.4903 4.65225 42.5257 2.64293 42.5285 0.639046Z" fill="white"/>
<path d="M87.259 3.04592C88.378 1.4341 90.3846 0.611854 92.3122 0.647249C101.953 0.644526 111.597 0.617296 121.238 0.660859C121.219 1.26801 121.213 1.87517 121.219 2.48505C112.672 2.49866 104.123 2.4905 95.5767 2.48777C94.5857 2.50683 93.5102 2.42787 92.6308 2.96424C91.7813 3.42437 91.4628 4.44537 91.4301 5.35201C91.3756 6.38118 91.5036 7.55737 92.3286 8.27615C93.061 8.9187 94.0765 9.01127 95.0104 9.01127C103.745 9.00583 112.482 9.00855 121.216 9.00855C121.213 9.62659 121.216 10.2446 121.221 10.8627C111.493 10.8518 101.763 10.8627 92.0318 10.86C90.5262 10.83 88.996 10.261 87.9206 9.19097C86.2598 7.66628 85.9957 4.8946 87.259 3.04592Z" fill="white"/>
<path d="M147.547 0.641817C157.177 0.64454 166.807 0.633643 176.437 0.644534C178.275 0.617307 180.235 1.30887 181.357 2.82539C182.648 4.47532 182.607 6.98017 181.363 8.641C180.246 10.0432 178.474 10.8491 176.691 10.8545C166.976 10.8654 157.262 10.8545 147.547 10.86C147.542 7.4512 147.539 4.04787 147.547 0.641817ZM152.244 2.47962C152.241 4.6523 152.241 6.82226 152.244 8.99495C159.483 9.0249 166.723 8.99767 173.965 9.00856C175.155 9.03578 176.614 8.65462 177.066 7.41308C177.475 6.26139 177.502 4.8919 176.955 3.78105C176.377 2.72738 175.084 2.49867 173.99 2.49323C166.742 2.47689 159.491 2.50684 152.244 2.47962Z" fill="white"/>
</svg>
