<svg width="152" height="32" viewBox="0 0 152 32" fill="none" xmlns="http://www.w3.org/2000/svg">
<path d="M15.2935 25.992C15.2332 25.992 15.1756 25.9898 15.1319 25.9877C15.0971 25.9907 15.0613 25.992 15.0253 25.992C13.7582 25.992 12.9109 25.393 12.1632 24.864C11.6273 24.4854 11.1219 24.1281 10.5298 24.0296C10.239 23.9813 9.94974 23.9569 9.67024 23.9569C9.16664 23.9569 8.76865 24.035 8.47807 24.0918C8.29927 24.1266 8.14509 24.1566 8.02592 24.1566C7.90111 24.1566 7.74947 24.129 7.68627 23.9132C7.63618 23.7429 7.60026 23.578 7.56558 23.4192C7.47883 23.0224 7.41592 22.7801 7.26733 22.7571C5.67803 22.5119 4.73899 22.1507 4.55194 21.7132C4.53234 21.6673 4.52139 21.621 4.51896 21.5753C4.51167 21.4449 4.60373 21.3305 4.73227 21.3092C5.99441 21.1014 7.11665 20.4343 8.068 19.3258C8.80496 18.4676 9.16686 17.6477 9.20572 17.5572C9.20741 17.5531 9.20939 17.5488 9.21142 17.5449C9.3948 17.1729 9.43128 16.8513 9.32019 16.5896C9.11541 16.1066 8.43718 15.8915 7.98848 15.7491C7.87688 15.7138 7.77133 15.6804 7.68723 15.647C7.28947 15.4899 6.6353 15.1579 6.72245 14.6997C6.78593 14.3656 7.22785 14.1329 7.58501 14.1329C7.68418 14.1329 7.77206 14.1503 7.84605 14.185C8.24963 14.3741 8.61271 14.47 8.92497 14.47C9.3133 14.47 9.50086 14.3221 9.54621 14.2801C9.53503 14.0729 9.52136 13.8539 9.50815 13.6468C9.50815 13.6465 9.50787 13.644 9.50787 13.644C9.41671 12.194 9.30303 10.3895 9.76461 9.35466C11.1461 6.25709 14.076 6.01622 14.9407 6.01622C14.9638 6.01622 15.3177 6.01272 15.3177 6.01272C15.3336 6.01243 15.351 6.01221 15.3689 6.01221C16.2361 6.01221 19.172 6.25336 20.5544 9.35279C21.016 10.3883 20.9022 12.1944 20.8107 13.6459L20.8064 13.7154C20.7939 13.9125 20.7823 14.099 20.7726 14.2799C20.8153 14.3192 20.9869 14.4547 21.3361 14.4684C21.6338 14.457 21.9758 14.3616 22.3525 14.1853C22.469 14.1306 22.5979 14.1192 22.6855 14.1192C22.8178 14.1192 22.9524 14.145 23.0647 14.1918L23.0706 14.1941C23.3903 14.3076 23.5997 14.5343 23.6042 14.7726C23.6082 14.9946 23.4432 15.3265 22.6315 15.6471C22.5483 15.68 22.4423 15.7137 22.3302 15.7492C21.8811 15.8918 21.2035 16.1068 20.9987 16.5895C20.8874 16.8512 20.924 17.1726 21.1075 17.5446C21.1095 17.5487 21.1112 17.5528 21.1132 17.5571C21.1697 17.6895 22.5367 20.8064 25.5867 21.3089C25.7152 21.3303 25.8074 21.4448 25.8 21.575C25.7973 21.6217 25.786 21.6685 25.7663 21.7142C25.5805 22.1492 24.6415 22.51 23.0518 22.7555C22.9026 22.7786 22.8397 23.0197 22.7538 23.4145C22.7182 23.5775 22.682 23.7374 22.6326 23.9053C22.5863 24.0633 22.4834 24.1405 22.3181 24.1405H22.2932C22.1857 24.1405 22.0332 24.1209 21.841 24.0833C21.5049 24.0179 21.1281 23.957 20.6488 23.957C20.3694 23.957 20.0802 23.9816 19.789 24.0297C19.1975 24.1282 18.6922 24.485 18.1572 24.8632C17.4081 25.3929 16.5605 25.992 15.2935 25.992Z" fill="white"/>
<path d="M15.3685 6.26825C16.1849 6.26825 18.996 6.48755 20.3208 9.45759C20.757 10.4356 20.6452 12.2072 20.5555 13.6304C20.5415 13.8562 20.5276 14.0751 20.5163 14.2841L20.5116 14.374L20.5716 14.4409C20.5958 14.4678 20.8226 14.7048 21.3269 14.7242L21.335 14.7247L21.3435 14.7245C21.6769 14.7118 22.0525 14.6082 22.4604 14.4172C22.5205 14.3891 22.6004 14.3753 22.685 14.3753C22.7814 14.3753 22.8839 14.3935 22.9684 14.429L22.9811 14.4341C23.195 14.5091 23.3462 14.6504 23.3485 14.7782C23.3498 14.8505 23.2957 15.1109 22.5376 15.4104C22.4635 15.4397 22.3659 15.4708 22.2529 15.5064C21.7595 15.6631 21.0141 15.8995 20.7633 16.4907C20.622 16.8236 20.6607 17.2166 20.8781 17.6585C20.9676 17.8673 22.3759 21.0394 25.5448 21.5616C25.5442 21.5767 25.5404 21.5931 25.5319 21.6125C25.4782 21.739 25.1368 22.176 23.0124 22.5038C22.68 22.5548 22.5985 22.9274 22.5041 23.3606C22.47 23.5157 22.4353 23.6722 22.3876 23.8339C22.3731 23.8828 22.3704 23.8855 22.318 23.8855C22.3108 23.8855 22.3023 23.8855 22.293 23.8855C22.1988 23.8855 22.0558 23.866 21.8901 23.8335C21.5882 23.7747 21.1758 23.7025 20.6486 23.7025C20.3544 23.7025 20.0513 23.7281 19.7471 23.7789C19.097 23.887 18.5684 24.2609 18.0084 24.6567C17.2565 25.188 16.4793 25.7378 15.2936 25.7378C15.2418 25.7378 15.1912 25.7361 15.1406 25.7335L15.1272 25.733L15.1139 25.734C15.0848 25.7365 15.0555 25.7378 15.0255 25.7378C13.8399 25.7378 13.0624 25.1882 12.3108 24.6567C11.7508 24.2609 11.2218 23.887 10.5718 23.7789C10.268 23.7283 9.96461 23.7025 9.67054 23.7025C9.14344 23.7025 8.73054 23.7832 8.4293 23.8421C8.26354 23.8745 8.12003 23.9023 8.02611 23.9023C7.94919 23.9023 7.94772 23.8978 7.93146 23.8422C7.88379 23.6804 7.84895 23.5201 7.815 23.3653C7.72035 22.9316 7.63885 22.557 7.3066 22.506C5.18235 22.1779 4.8409 21.7401 4.78702 21.6139C4.7786 21.594 4.77482 21.5771 4.77397 21.5621C7.94287 21.0404 9.35088 17.8681 9.44062 17.6585C9.65845 17.2169 9.69708 16.824 9.55538 16.4907C9.30451 15.8999 8.55925 15.6631 8.06621 15.5067C7.95286 15.4709 7.85527 15.4397 7.78112 15.4104C7.1409 15.1575 6.94397 14.9027 6.97322 14.7482C7.00716 14.5702 7.31587 14.3891 7.58526 14.3891C7.6458 14.3891 7.69889 14.3989 7.73814 14.4172C8.17566 14.6223 8.57506 14.7263 8.92539 14.7263C9.47609 14.7263 9.7212 14.47 9.74752 14.4408L9.80721 14.374L9.80241 14.2846C9.79129 14.0757 9.77756 13.8569 9.7631 13.6315C9.6737 12.208 9.56188 10.4376 9.99793 9.45951C11.3178 6.50037 14.1152 6.27226 14.941 6.27226C14.9614 6.27226 15.3204 6.26859 15.3204 6.26859C15.3351 6.26847 15.3514 6.26825 15.3685 6.26825ZM15.3685 5.75781H15.3675C15.3487 5.75781 15.3311 5.75781 15.3142 5.75804C15.18 5.75939 14.9594 5.76154 14.9396 5.76177C14.4558 5.76177 13.4879 5.8301 12.4482 6.28903C11.8537 6.55125 11.319 6.90581 10.8589 7.34288C10.3104 7.86365 9.86358 8.50573 9.53104 9.25156C9.04405 10.3436 9.15965 12.183 9.2525 13.6611L9.25284 13.6634C9.26278 13.8218 9.27323 13.9871 9.28277 14.1481C9.21133 14.1809 9.09549 14.2156 8.92477 14.2156C8.65006 14.2156 8.32341 14.1277 7.95411 13.9547C7.84545 13.9041 7.72142 13.8785 7.58458 13.8785C7.36472 13.8785 7.13294 13.9432 6.93188 14.0614C6.67892 14.21 6.51548 14.4199 6.47109 14.6526C6.44184 14.8066 6.44325 15.1109 6.78126 15.4195C6.96718 15.5894 7.2403 15.746 7.59283 15.8853C7.68533 15.9218 7.79512 15.9566 7.91141 15.9934C8.31493 16.1217 8.92567 16.3155 9.08493 16.6903C9.16564 16.8804 9.13091 17.1304 8.98198 17.4327C8.97808 17.4409 8.97418 17.449 8.97063 17.4575C8.93341 17.5444 8.58619 18.3309 7.87397 19.1604C7.46926 19.6321 7.02349 20.0263 6.54976 20.3324C5.97155 20.7061 5.34591 20.9504 4.69039 21.0584C4.43297 21.1006 4.24914 21.33 4.26348 21.5906C4.26789 21.6657 4.28551 21.7406 4.31606 21.8131C4.31629 21.8135 4.31657 21.814 4.31679 21.8144C4.42088 22.0578 4.6622 22.2647 5.05455 22.4471C5.53398 22.6698 6.251 22.8571 7.18552 23.0036C7.23273 23.0934 7.28175 23.3191 7.3157 23.4736C7.35122 23.6379 7.38827 23.8067 7.44107 23.9861C7.49806 24.1804 7.64586 24.4127 8.02555 24.4127C8.16945 24.4127 8.33493 24.3803 8.52655 24.3431C8.80718 24.288 9.19094 24.2129 9.66992 24.2129C9.93547 24.2129 10.2107 24.2363 10.4877 24.2823C11.0217 24.3712 11.482 24.6964 12.0147 25.073C12.7943 25.6241 13.6767 26.2479 15.025 26.2479C15.0617 26.2479 15.0986 26.2467 15.135 26.2442C15.1796 26.2462 15.2348 26.2479 15.2931 26.2479C16.6418 26.2479 17.524 25.6239 18.3027 25.0732L18.304 25.0721C18.8367 24.696 19.2966 24.3712 19.8304 24.2823C20.1073 24.2364 20.3824 24.2129 20.6481 24.2129C21.1057 24.2129 21.468 24.2713 21.7915 24.3343C22.0026 24.3759 22.1666 24.3959 22.2925 24.3959L22.3048 24.3961H22.3176C22.5953 24.3961 22.7993 24.2437 22.8772 23.977C22.929 23.8014 22.9659 23.6365 23.0023 23.4695C23.0341 23.3247 23.0848 23.0925 23.132 23.0018C24.0671 22.8549 24.7839 22.668 25.2634 22.4454C25.6548 22.2638 25.8958 22.0572 26.0005 21.8148C26.0319 21.7421 26.0503 21.6667 26.0544 21.59C26.0692 21.3299 25.8851 21.1 25.6275 21.0578C22.7141 20.5776 21.4017 17.5842 21.3474 17.457C21.3439 17.4486 21.3399 17.4403 21.3358 17.4322C21.1869 17.1299 21.1525 16.8801 21.2333 16.6897C21.3922 16.3152 22.0025 16.1214 22.4063 15.9932C22.5232 15.9564 22.6334 15.9214 22.7252 15.8851C23.1227 15.7281 23.4069 15.5578 23.5943 15.3644C23.8182 15.1338 23.8618 14.9128 23.8591 14.7682C23.8522 14.4184 23.5848 14.1076 23.1594 13.9554C23.0158 13.896 22.8519 13.8646 22.6851 13.8646C22.5715 13.8646 22.4033 13.8802 22.2441 13.9545C21.9033 14.114 21.598 14.2012 21.3359 14.2136C21.1965 14.2066 21.0987 14.1764 21.0354 14.1475C21.0434 14.0111 21.0522 13.8709 21.0613 13.7247L21.0651 13.6622C21.1584 12.183 21.2744 10.3422 20.7872 9.24942C20.4533 8.50093 20.0048 7.85721 19.4541 7.33531C18.9923 6.89796 18.4557 6.54346 17.8591 6.28141C16.8209 5.82587 15.853 5.75781 15.3685 5.75781Z" fill="white"/>
<path d="M87.7854 7.31237C88.7171 7.31237 89.6496 7.29459 90.5813 7.32167C90.6118 7.55946 90.6405 7.79725 90.6439 8.03757C90.6473 9.55991 90.627 11.0831 90.6524 12.6054C90.9782 12.3177 91.2896 11.9979 91.6898 11.8108C92.5344 11.392 93.5557 11.4444 94.413 11.8007C94.9672 12.0867 95.4352 12.5513 95.706 13.1157C96.025 13.769 96.1714 14.5001 96.1705 15.2253C96.1705 16.9601 96.1646 18.6948 96.1748 20.4287L96.0859 20.4262C96.0436 20.4245 95.9573 20.4202 95.9141 20.4177C95.9548 18.5205 95.9277 16.6216 95.9277 14.7235C95.9615 13.7622 95.552 12.7747 94.7734 12.1925C94.2268 11.7618 93.5007 11.6966 92.8314 11.7161C92.1189 11.7144 91.3869 12.0046 90.9367 12.5682C90.8182 12.7231 90.6591 12.8314 90.4713 12.8805C90.3909 12.2847 90.4425 11.6822 90.4298 11.0831C90.4188 9.9094 90.4518 8.7357 90.4137 7.56284C90.1227 7.50192 89.8256 7.48838 89.5303 7.49769C88.9828 7.51461 88.4285 7.45284 87.8878 7.57131C87.8472 7.55861 87.7651 7.53323 87.7236 7.52138C87.7389 7.46891 87.7702 7.36483 87.7854 7.31237Z" fill="white"/>
<path d="M87.7227 7.52148C87.7641 7.53333 87.8462 7.55872 87.8868 7.57141C87.9046 11.0832 87.8902 14.595 87.8944 18.1068C87.9021 18.8464 87.8589 19.5885 87.9384 20.3256L87.9088 20.395L87.8284 20.4043L87.7726 20.4102C87.7878 16.455 87.7726 12.4998 87.7802 8.54456C87.7904 8.20184 87.7311 7.86251 87.7227 7.52148Z" fill="white"/>
<path d="M75.7372 12.8931L75.7532 12.9684C75.7778 13.0919 75.8066 13.2146 75.8345 13.3382C75.8082 13.5573 75.7702 13.7757 75.7439 13.9948C75.6796 14.4476 75.7922 14.8986 75.8015 15.3513C75.8184 16.3092 76.2229 17.2079 76.7365 18C76.7865 18.0685 76.8381 18.1371 76.8914 18.2039C77.3687 18.8039 77.8976 19.3954 78.5991 19.7364C78.6219 19.7821 78.6676 19.8718 78.6905 19.9166C78.093 19.6839 77.631 19.2194 77.1833 18.7768C76.5918 18.1997 76.2034 17.4474 75.9293 16.6782C75.7812 16.0621 75.6602 15.4393 75.5823 14.8106C75.496 14.1683 75.6068 13.5218 75.7372 12.8931Z" fill="white"/>
<path d="M87.8887 7.57091C88.4294 7.45244 88.9837 7.51422 89.5312 7.49729C89.8265 7.48799 90.1235 7.50153 90.4146 7.56245C90.2809 8.50429 90.3757 9.45797 90.3486 10.4057C90.319 11.2452 90.4197 12.0931 90.2809 12.9266C90.1895 12.9528 90.099 12.9791 90.0093 13.007C89.912 12.8039 89.8519 12.583 89.8637 12.3554C89.8824 10.9177 89.8646 9.47913 89.8764 8.04141C89.9721 8.08203 90.0651 8.12688 90.1608 8.17088C90.1531 8.01602 90.198 7.73339 89.9602 7.75624C89.3357 7.76893 88.7095 7.80447 88.0858 7.73254C88.0368 8.0558 88.0173 8.38328 88.0215 8.71077C88.0266 11.956 88.0139 15.2012 88.0283 18.4465C88.0046 19.0701 88.2432 19.7378 87.9403 20.3251C87.8607 19.588 87.9039 18.8459 87.8963 18.1063C87.8921 14.5945 87.9064 11.0827 87.8887 7.57091Z" fill="white"/>
<path d="M90.414 7.56299C90.4521 8.73584 90.4191 9.90954 90.4301 11.0832C90.4427 11.6824 90.3911 12.2849 90.4715 12.8806C90.6594 12.8315 90.8185 12.7232 90.9369 12.5684C91.3871 12.0048 92.1191 11.7145 92.8316 11.7162C93.501 11.6967 94.227 11.7619 94.7737 12.1926C95.5522 12.7748 95.9618 13.7624 95.9279 14.7237C95.9279 16.6217 95.955 18.5206 95.9144 20.4178C95.0758 20.3857 94.2355 20.417 93.396 20.4001C93.3495 18.6755 93.3952 16.9492 93.374 15.2238C93.3698 14.898 93.2116 14.5993 93.0347 14.3352C92.6852 13.8834 91.9989 13.7133 91.4878 13.979C91.2348 14.1085 91.0156 14.2921 90.7973 14.4706C90.8506 14.2549 90.7999 13.9731 91.0029 13.8258C91.206 13.6566 91.4269 13.5017 91.674 13.4036C91.9651 13.2944 92.2765 13.3909 92.5676 13.4535C92.5684 13.5153 92.571 13.6397 92.5727 13.7014C92.2139 13.72 91.8551 13.726 91.4963 13.7175L91.4937 13.7877C91.9067 13.8064 92.3171 13.7607 92.7275 13.7167C92.978 13.682 93.1659 13.8952 93.3165 14.0653C93.6059 14.4495 93.8708 14.8971 93.8615 15.3939C93.8521 16.9746 93.8403 18.5553 93.8615 20.1352C94.3726 20.2698 94.904 20.2444 95.4244 20.1911C95.5175 18.5993 95.405 17.0017 95.4803 15.4082C95.4955 15.0342 95.4354 14.6627 95.4109 14.2904C95.388 13.5034 94.8862 12.7951 94.2516 12.3627C94.0146 12.1791 93.6998 12.2553 93.4248 12.251C93.0102 12.2764 92.5896 12.2172 92.1792 12.2993C91.7798 12.4042 91.465 12.6885 91.1307 12.9161C91.0656 12.8975 91.0021 12.8798 90.9386 12.862C90.8498 12.9686 90.7931 13.148 90.6264 13.137C90.4698 13.1632 90.3827 13.0135 90.2803 12.9271C90.4191 12.0936 90.3184 11.2457 90.348 10.4063C90.375 9.45851 90.2803 8.50483 90.414 7.56299Z" fill="white"/>
<path d="M88.0853 7.73242C88.709 7.80435 89.3352 7.76881 89.9597 7.75612C90.1975 7.73327 90.1526 8.0159 90.1602 8.17076C90.0646 8.12676 89.9715 8.08191 89.8759 8.04129C89.3648 7.87289 88.8207 7.96259 88.2952 7.98629C88.252 11.6123 88.3003 15.2409 88.2715 18.8678C88.2596 19.3357 88.2588 19.8045 88.296 20.2716C88.6794 20.3055 89.0652 20.3478 89.4503 20.3029C89.7414 20.2759 90.0502 20.1752 90.3261 20.3258C89.529 20.4586 88.7132 20.3233 87.9102 20.3943L87.9398 20.3249C88.2427 19.7377 88.0041 19.07 88.0278 18.4464C88.0134 15.2011 88.0261 11.9559 88.021 8.71065C88.0168 8.38316 88.0362 8.05568 88.0853 7.73242Z" fill="white"/>
<path d="M80.6396 7.96402C81.5188 7.81255 82.42 7.82778 83.3034 7.93948C84.478 8.18488 85.6695 8.64268 86.4861 9.55829C86.5461 9.6226 86.5563 9.75207 86.4861 9.81384C86.2119 10.1024 85.8954 10.3503 85.6441 10.6618C85.3191 11.0629 84.9773 11.4589 84.5406 11.7424C84.2622 11.4589 83.9728 11.1813 83.6343 10.9706C82.7424 10.4113 81.5222 10.4578 80.6235 10.9765C80.3662 11.1331 80.1479 11.3472 79.8805 11.4843C79.7925 11.5215 79.7053 11.5596 79.619 11.5968C79.6529 11.5554 79.7197 11.4733 79.7527 11.4318C79.7917 11.3827 79.8314 11.3353 79.8729 11.288C80.3273 10.9004 80.8977 10.71 81.4418 10.4883C81.8953 10.435 82.3565 10.429 82.8118 10.479C83.4744 10.6973 84.0997 11.0214 84.6049 11.5088C85.089 11.0273 85.5594 10.5331 86.0536 10.0626C86.1983 9.90608 86.4547 9.70299 86.2627 9.48128C85.9859 9.28496 85.716 9.07764 85.4266 8.90078C85.2049 8.75608 84.9417 8.89401 84.7141 8.94732C84.8351 8.88978 84.9553 8.83139 85.0763 8.77046C84.786 8.53098 84.4213 8.4379 84.071 8.32874C83.8188 8.19419 83.5353 8.1688 83.2561 8.15526C82.4098 7.89971 81.5103 7.96063 80.6616 8.16626C80.2461 8.18488 79.8483 8.30843 79.4709 8.47598C79.3931 8.5056 79.3161 8.53691 79.2408 8.56822C78.1271 9.02348 77.1929 9.87393 76.5557 10.886C76.1605 11.524 75.9549 12.2518 75.7544 12.9685L75.7383 12.8932C75.7645 12.5894 75.8297 12.2907 75.894 11.9937C75.9998 11.4699 76.3256 11.0332 76.5887 10.5805C77.4612 9.1521 79.0427 8.31435 80.6396 7.96402Z" fill="white"/>
<path d="M88.2956 7.98699C88.8211 7.96329 89.3652 7.87359 89.8763 8.04199C89.8645 9.47971 89.8823 10.9183 89.8636 12.356C89.8518 12.5836 89.9119 12.8045 90.0092 13.0076C90.0989 12.9797 90.1894 12.9534 90.2808 12.9272C90.3832 13.0135 90.4704 13.1633 90.6269 13.1371C90.7936 13.1481 90.8503 12.9687 90.9392 12.862C91.0026 12.8798 91.0661 12.8976 91.1313 12.9162C91.4655 12.6886 91.7803 12.4042 92.1797 12.2993C92.5901 12.2172 93.0107 12.2765 93.4254 12.2511C93.7004 12.2553 94.0152 12.1791 94.2521 12.3628C94.8868 12.7952 95.3886 13.5035 95.4114 14.2904C95.436 14.6628 95.496 15.0343 95.4808 15.4083C95.4055 17.0017 95.5181 18.5994 95.425 20.1911C94.9045 20.2444 94.3731 20.2698 93.862 20.1352C93.8409 18.5554 93.8527 16.9746 93.862 15.3939C93.8713 14.8972 93.6064 14.4495 93.317 14.0653C93.1664 13.8953 92.9786 13.682 92.7281 13.7167C92.3177 13.7607 91.9073 13.8064 91.4943 13.7878L91.4968 13.7176C91.8556 13.726 92.2144 13.7201 92.5732 13.7015C92.5715 13.6397 92.569 13.5153 92.5681 13.4535C92.277 13.3909 91.9656 13.2944 91.6745 13.4036C91.4274 13.5018 91.2066 13.6566 91.0035 13.8259C90.8004 13.9731 90.8512 14.2549 90.7979 14.4707C90.654 14.7618 90.5567 15.0715 90.4551 15.3787C90.3595 15.5369 90.2935 15.7121 90.313 15.8999C90.335 17.3749 90.3113 18.8507 90.3265 20.3265C90.0507 20.1759 89.7418 20.2766 89.4507 20.3036C89.0657 20.3485 88.6798 20.3062 88.2964 20.2723C88.2592 19.8052 88.2601 19.3364 88.2719 18.8685C88.3007 15.2416 88.2524 11.613 88.2956 7.98699Z" fill="white"/>
<path d="M36.1634 8.8273C37.717 7.81438 39.7733 7.72553 41.481 8.38642C41.3448 8.50743 41.2085 8.62929 41.0731 8.75114C41.2542 8.75876 41.4353 8.76638 41.6164 8.77738C41.795 9.09894 42.1758 9.19202 42.4262 9.43742C42.4787 9.57366 42.3543 9.68198 42.2832 9.78183C41.9676 10.133 41.6418 10.4833 41.2491 10.7507C41.1019 10.6044 40.9538 10.4597 40.8049 10.3158C40.716 10.4089 40.6272 10.502 40.5392 10.5959C40.3048 10.4732 40.0619 10.3683 39.814 10.2752C39.852 10.1609 39.8901 10.0475 39.9282 9.93331C39.4196 9.75475 38.823 9.70567 38.3407 9.98239C38.0395 10.1567 37.7365 10.3403 37.4894 10.5874C37.3168 10.7448 37.4141 10.9945 37.4133 11.195C37.4598 11.5183 37.3786 11.8889 37.5884 12.1682C37.7484 12.4043 37.9895 12.5676 38.2417 12.692C38.1808 12.7834 38.1207 12.8747 38.0598 12.9661C38.2095 13.0457 38.3542 13.1405 38.5193 13.1836C38.7528 13.1955 38.9779 13.1142 39.2055 13.0753L39.2741 13.0973C39.1844 13.1752 39.0955 13.2522 39.0067 13.33C39.1108 13.4087 39.2148 13.4866 39.3198 13.5644C39.4323 13.4527 39.5457 13.3393 39.6625 13.231L39.7302 13.2496C39.6946 13.3588 39.6591 13.4679 39.6244 13.5771C40.3479 13.9147 41.1434 14.1508 41.7543 14.6865C42.0784 14.959 42.2104 15.4219 42.6217 15.5936C42.4931 16.2427 42.5439 16.907 42.5032 17.5628C42.6276 17.6652 42.7529 17.7676 42.8781 17.8691C42.7842 18.1357 42.6767 18.3971 42.5422 18.6451C42.455 18.5723 42.3678 18.4995 42.2807 18.4268C41.9955 18.783 41.7501 19.185 41.36 19.4397C41.1044 19.5878 41.0308 19.8831 40.9479 20.1437C40.8895 20.1666 40.7736 20.2131 40.7152 20.2368C40.7668 20.0921 40.8201 19.9483 40.8734 19.8053C40.5316 19.8713 40.1965 19.9652 39.8673 20.0777C39.1742 20.3231 38.4338 20.1463 37.7187 20.17C37.4835 20.1776 37.3016 20.3502 37.1061 20.4602C37.0705 20.456 37.0003 20.4467 36.9648 20.4416C37.0511 20.3054 37.1374 20.1683 37.2229 20.0312C36.8404 19.9246 36.4562 20.0337 36.1084 20.197C35.8833 20.1023 35.6565 20.0134 35.4348 19.9144C35.5423 19.8315 35.6489 19.7477 35.7564 19.6648C35.5863 19.6749 35.417 19.6851 35.2478 19.6952C35.2833 19.6445 35.3197 19.5929 35.3561 19.5421C35.3392 19.5116 35.3062 19.4515 35.2893 19.4219C35.1716 19.449 35.0549 19.4761 34.9372 19.5023C34.8924 19.2561 34.7384 18.9717 34.9042 18.7407C35.2021 18.3159 35.6354 18.0164 36.0068 17.6618C36.0043 17.5569 36.0018 17.4528 35.9992 17.3487C36.1219 17.4155 36.2455 17.4807 36.3656 17.5518C36.5442 17.7185 36.7363 17.8733 36.9563 17.9817C36.9114 18.1839 36.9681 18.4098 37.1772 18.4945C37.3752 18.5021 37.569 18.4522 37.7619 18.4158C37.7424 18.5232 37.723 18.6315 37.7035 18.7399C37.8084 18.7424 37.9142 18.7492 38.0191 18.7382C38.0835 18.6629 38.1325 18.5782 38.1842 18.4953C38.5886 18.5427 39.0253 18.5562 39.3748 18.3125C39.6566 18.1551 39.8969 17.936 40.1127 17.6982C40.1787 17.7777 40.2447 17.8564 40.3107 17.9351C40.4681 17.7913 40.678 17.6576 40.6966 17.424C40.7389 17.083 40.766 16.7157 40.6365 16.3908C40.496 16.2114 40.2768 16.3078 40.1051 16.3705C39.9511 16.2105 39.786 16.0599 39.6092 15.9254C39.6997 15.8331 39.7903 15.7417 39.8808 15.6495C39.6244 15.4692 39.3782 15.2526 39.0718 15.1655C38.7579 15.1578 38.4583 15.2814 38.1503 15.3237C37.3151 15.1028 36.4621 14.8058 35.7894 14.2482C35.9078 14.1703 36.0263 14.0933 36.1448 14.0171C35.9882 13.8081 35.7767 13.6499 35.5127 13.6152C35.4957 13.308 35.4179 13.0085 35.2943 12.7267C35.2097 12.8519 35.1259 12.9771 35.0413 13.1024C35.0075 12.802 34.9982 12.4923 35.1259 12.2113C35.2647 11.8991 35.2182 11.5555 35.1716 11.2289C35.0743 11.2128 34.9778 11.1967 34.8805 11.1806C34.9457 10.9344 35.0032 10.6856 35.0557 10.436C35.1327 10.5519 35.2097 10.6678 35.2876 10.7829C35.4636 10.4207 35.6074 10.0323 35.8799 9.72768C36.0644 9.51274 36.2895 9.32488 36.4147 9.06509C36.3352 8.98047 36.2489 8.90431 36.1634 8.8273Z" fill="white"/>
<path d="M44.9658 12.0247C45.7782 11.9494 46.5965 11.9917 47.4105 12.0027C47.4224 12.3412 47.4182 12.6797 47.4283 13.0182L47.4334 13.0961C47.6627 13.1307 47.914 13.1976 48.1366 13.0961C48.5199 12.9048 48.7619 12.5054 49.1673 12.3488C49.8104 12.1043 50.5407 12.4394 51.1601 12.1077C51.3412 12.4402 51.6848 12.6171 51.9496 12.8701C52.239 13.1528 52.2162 13.5953 52.4083 13.9313C52.5081 14.0836 52.6478 14.2029 52.7764 14.329C52.608 14.9831 52.6418 15.6609 52.6503 16.3294C52.6317 17.6225 52.6825 18.918 52.6258 20.2102C52.1214 20.2525 51.6154 20.2483 51.1119 20.2144C51.0569 19.9673 51.0129 19.7168 51.0154 19.463C51.0315 18.2766 51.0188 17.091 51.0273 15.9046C51.0323 15.259 50.9232 14.571 50.5085 14.0531C50.1201 13.6012 49.5244 13.2645 48.9117 13.3745C48.5318 13.4151 48.2288 13.6681 47.9758 13.9338C48.0359 14.0345 48.0968 14.1344 48.1577 14.2351C47.909 14.5202 47.6475 14.841 47.6026 15.2294C47.5586 16.9413 47.6365 18.6565 47.5662 20.3676C46.7031 20.3608 45.84 20.376 44.976 20.36C44.9734 17.5818 44.9937 14.8029 44.9658 12.0247Z" fill="white"/>
<path d="M80.6618 8.1663C81.5106 7.96067 82.4101 7.89975 83.2563 8.1553C83.2428 8.30847 83.2309 8.46163 83.2199 8.6148C83.5398 8.66134 83.8453 8.55979 84.0712 8.32878C84.4216 8.43794 84.7863 8.53102 85.0765 8.7705C84.9555 8.83143 84.8354 8.88982 84.7144 8.94736C84.942 8.89405 85.2052 8.75612 85.4269 8.90082C85.7163 9.07768 85.9862 9.285 86.2629 9.48132C86.2528 9.53294 86.2316 9.63533 86.2215 9.68695C86.0996 9.62687 85.9786 9.56679 85.8576 9.50671C85.8178 9.69965 85.7789 9.90781 85.6215 10.0441C85.2746 10.3893 84.9344 10.7422 84.5604 11.0587C84.3166 10.8649 84.0222 10.7583 83.7108 10.7583C83.7776 10.6982 83.8453 10.6373 83.913 10.5772C83.5796 10.3698 83.2487 10.1185 82.8468 10.0711C82.3238 10.0161 81.778 9.98736 81.2737 10.1642C81.3947 10.2294 81.514 10.3182 81.6578 10.3225C82.1427 10.3538 82.6284 10.3064 83.1142 10.3182C83.0135 10.3724 82.9119 10.4257 82.8121 10.479C82.3568 10.4291 81.8956 10.435 81.442 10.4883C81.2652 10.4384 81.0985 10.3614 80.9377 10.2768C80.5772 10.4316 80.1812 10.5602 79.9019 10.8471C79.7784 10.9664 79.8639 11.1441 79.8732 11.288C79.8317 11.3354 79.7919 11.3828 79.753 11.4318C79.6599 11.409 79.5677 11.3862 79.4754 11.3641C79.1158 11.6536 78.7714 11.9887 78.5861 12.4194C78.5006 12.6055 78.5852 12.8069 78.6199 12.9948C78.5108 13.0473 78.4008 13.098 78.2992 13.164C78.2916 13.4865 78.427 13.7962 78.4278 14.1203C78.4329 14.4579 78.5116 14.8243 78.3441 15.1374C78.295 15.2601 78.2104 15.3997 78.2958 15.5284C78.4371 15.69 78.6436 15.7704 78.8272 15.8745C78.8239 16.2206 78.8095 16.5878 79.0193 16.8849C79.1175 16.818 79.2157 16.7512 79.3138 16.6843C79.731 17.231 80.2743 17.7988 80.9876 17.8986C81.1163 17.9079 81.2229 17.9841 81.3329 18.0459C81.2533 18.045 81.0951 18.0425 81.0156 18.0408C81.1636 18.1203 81.3143 18.2143 81.4877 18.2168C82.0412 18.2574 82.6039 18.1483 83.1497 18.2836C82.4719 18.3251 81.7374 18.1026 81.1053 18.4317C81.4979 18.5857 81.9244 18.5781 82.339 18.5646C82.9212 18.5578 83.4967 18.3733 83.9917 18.0712C84.2439 17.9215 84.375 17.5551 84.6907 17.5356C85.0579 17.7421 85.3245 18.0839 85.624 18.3742C85.7493 18.5231 86.0015 18.7491 85.8001 18.9395C85.3693 19.3592 84.8388 19.6799 84.2735 19.8821C84.3175 19.9778 84.3632 20.0734 84.4097 20.1699C84.1127 20.0709 83.7937 19.9295 83.4874 20.0802C83.5601 20.2054 83.6337 20.3306 83.7082 20.455L83.6337 20.4703C82.9153 20.0971 82.0936 20.2003 81.3151 20.2054C81.1399 20.1978 80.9902 20.29 80.8497 20.3814C81.6223 20.6234 82.4431 20.3349 83.2166 20.5727C82.8138 20.637 82.405 20.6133 81.9997 20.6184C81.5859 20.6141 81.1679 20.6395 80.7592 20.5684C80.5485 20.3171 80.336 20.0395 80.0213 19.916C79.731 19.806 79.4365 19.7078 79.1387 19.6249C78.9508 19.564 78.7722 19.6799 78.6005 19.7366C78.6428 19.6393 78.6851 19.542 78.7274 19.4447C78.5353 19.2619 78.3314 19.0926 78.1173 18.9369C77.7644 18.6848 77.4767 18.3573 77.1695 18.0535C77.0764 18.1034 76.9842 18.1542 76.8928 18.2041C76.8395 18.1373 76.7879 18.0687 76.7379 18.0002C76.8268 17.9511 76.9165 17.902 77.007 17.8538C76.8987 17.5737 76.8116 17.2809 76.6525 17.0253C76.4959 16.8392 76.127 16.8586 76.105 16.5616C76.0339 16.0826 76.3724 15.6071 76.1464 15.1391C76.0314 15.2102 75.918 15.2821 75.8029 15.3515C75.7936 14.8988 75.681 14.4478 75.7453 13.995C75.7716 13.7759 75.8096 13.5575 75.8359 13.3384C75.9205 13.4788 76.0144 13.6134 76.1101 13.7479C76.336 13.2165 76.182 12.6504 76.0483 12.1181C76.1549 12.2451 76.2632 12.3703 76.3741 12.4938C76.4468 12.2281 76.3834 11.9607 76.2878 11.7111C76.3715 11.7576 76.4562 11.8042 76.5416 11.8507C76.7295 11.2829 77.0477 10.7794 77.4445 10.3352C77.9294 9.63364 78.7249 9.27231 79.4704 8.91859C79.3934 8.80181 79.3164 8.68503 79.241 8.56826C79.3164 8.53695 79.3934 8.50564 79.4712 8.47602C79.6015 8.46248 79.7327 8.45317 79.8639 8.44302C79.7412 8.54456 79.6185 8.64695 79.4983 8.75104C79.918 8.89405 80.3234 8.66472 80.7126 8.53187C80.6948 8.41001 80.6779 8.28816 80.6618 8.1663Z" fill="white"/>
<path d="M65.0303 12.0063C65.0692 12.0368 65.1487 12.0969 65.1877 12.1274C65.1394 12.9346 65.1623 13.7436 65.1564 14.5526C65.1564 17.1479 65.1564 19.7424 65.1564 22.3378C65.164 22.9784 65.1344 23.6206 65.1851 24.2612C65.9002 24.312 66.6195 24.3078 67.3354 24.2604C67.4158 23.3109 67.354 22.3581 67.3718 21.4069C67.3489 20.7689 67.4564 20.1139 67.2651 19.4937C67.1517 19.6561 67.0722 19.8423 67.0815 20.0454C67.0578 21.3596 67.1052 22.6754 67.0654 23.9896C66.5281 24.0328 65.9882 24.0361 65.4508 23.9879C65.4068 23.382 65.4449 22.7753 65.4381 22.1685C65.4356 19.376 65.439 16.5827 65.4356 13.7902C65.4331 13.3408 65.4627 12.8932 65.5143 12.4472C66.0237 12.4345 66.5348 12.4582 67.0426 12.4049C67.0612 12.3008 67.0807 12.1976 67.1001 12.0935C67.1306 12.1028 67.1924 12.1206 67.2228 12.129C67.2634 12.3186 67.3083 12.5065 67.3514 12.696C67.3675 12.7789 67.3844 12.8627 67.4014 12.9473C67.8304 12.8365 68.0453 12.3965 68.4321 12.2052C68.5852 12.2687 68.735 12.3499 68.9009 12.3778C69.1742 12.3127 69.434 12.1722 69.7242 12.201C70.3733 12.245 71.0731 12.0817 71.6671 12.4252C71.7501 12.3101 71.8338 12.1951 71.9176 12.08C72.8214 12.6004 73.544 13.4424 73.8495 14.4468C73.4983 15.2567 73.6219 16.1486 73.6439 17.0024C73.6617 17.318 73.5 17.5981 73.3892 17.8816C73.2487 18.2108 73.1539 18.5687 72.928 18.8539C72.5912 19.2669 72.1952 19.6384 71.7289 19.9024C71.7484 19.9794 71.7695 20.0564 71.7907 20.1342C71.5377 20.0276 71.2669 19.9464 70.9919 20.0192C71.0282 20.1317 71.0646 20.2443 71.1019 20.3576C71.2356 20.3729 71.3701 20.389 71.5055 20.4059L71.492 20.4143C71.4361 20.4236 71.3227 20.4431 71.266 20.4524C71.1433 20.416 71.0562 20.455 71.0046 20.57L70.9335 20.581C70.4697 20.5836 70.0052 20.5802 69.5414 20.5844C69.4941 20.471 69.4103 20.4245 69.2901 20.4448C69.225 20.4406 69.0963 20.433 69.0312 20.4296C69.0227 20.427 69.0049 20.4228 68.9965 20.4203C68.9474 20.4008 68.8484 20.3602 68.7993 20.3399C68.7545 20.3119 68.6648 20.2544 68.6199 20.2256C68.4837 20.1427 68.3517 20.0547 68.2239 19.9599C68.0453 19.7094 67.8253 19.4894 67.541 19.3616C67.4293 19.8956 67.4775 20.4431 67.4741 20.9838C67.464 22.1178 67.4928 23.2525 67.4606 24.3865C66.6601 24.411 65.8579 24.411 65.0574 24.3856C65.0159 20.2595 65.0709 16.1316 65.0303 12.0063ZM68.1773 13.9306C67.7635 14.3461 67.3201 14.7726 67.1162 15.337C67.04 15.4944 67.1272 15.6561 67.1856 15.8025C67.332 15.6518 67.3684 15.4462 67.3853 15.2457C67.4174 15.2888 67.4809 15.3751 67.5131 15.4183C67.4657 15.9133 67.4606 16.4185 67.5198 16.9127C67.4843 16.9161 67.4124 16.9237 67.3768 16.9279C67.3675 16.7485 67.3574 16.57 67.3464 16.3923C67.1763 16.4101 66.9893 16.46 67.0113 16.6732C67.0933 17.0024 67.2711 17.3079 67.4615 17.588C67.596 17.7826 67.8507 17.7437 68.0555 17.742C68.1342 17.8368 68.2247 17.9222 68.3229 17.9984C68.2476 18.0627 68.1723 18.1279 68.0978 18.193C68.278 18.4452 68.4761 18.7405 68.8044 18.8023C69.0676 18.7921 69.2969 18.6229 69.5601 18.6001C69.797 18.617 70.0035 18.7549 70.2345 18.804C70.4757 18.7354 70.6559 18.5484 70.8345 18.3826C70.7431 18.3174 70.6525 18.2531 70.5637 18.1888C70.8962 17.9772 71.2043 17.6946 71.382 17.3375C71.4911 17.417 71.5901 17.5905 71.7441 17.4907C71.7975 17.3426 71.6934 17.2148 71.6367 17.087C71.7382 17.065 71.8457 17.0549 71.9396 17.0058C72.0556 16.8416 72.0175 16.6343 72.0073 16.4481C71.9092 16.4202 71.8118 16.3923 71.7154 16.3644C71.7103 16.1748 71.7035 15.9852 71.6951 15.7965C71.7712 15.794 71.8474 15.7923 71.9235 15.7906C71.987 15.6036 72.0928 15.3844 71.9591 15.2017C71.7924 15.1263 71.613 15.0883 71.437 15.0443C71.1755 14.5052 70.6838 14.0669 70.1245 13.8562C69.7445 13.8189 69.357 13.8147 68.9796 13.8646C68.9736 13.8274 68.9635 13.7521 68.9584 13.7149C69.4196 13.7216 69.8808 13.736 70.3403 13.6988C70.3301 13.6412 70.309 13.5253 70.298 13.4678C69.918 13.4018 69.5279 13.4085 69.1437 13.4051C68.7748 13.4593 68.4464 13.6819 68.1773 13.9306Z" fill="white"/>
<path d="M79.4717 8.47573C79.8491 8.30818 80.2468 8.18463 80.6623 8.16602C80.6784 8.28787 80.6953 8.40973 80.7131 8.53158C80.3238 8.66444 79.9185 8.89376 79.4988 8.75075C79.6189 8.64667 79.7416 8.54427 79.8643 8.44273C79.7332 8.45288 79.602 8.46219 79.4717 8.47573Z" fill="white"/>
<path d="M83.2561 8.15479C83.5354 8.16832 83.8188 8.19371 84.071 8.32826C83.8451 8.55928 83.5396 8.66082 83.2197 8.61428C83.2307 8.46111 83.2426 8.30795 83.2561 8.15479Z" fill="white"/>
<path d="M85.8574 9.50634C85.9784 9.56642 86.0994 9.62651 86.2213 9.68659C86.2314 9.63497 86.2526 9.53258 86.2627 9.48096C86.4548 9.70267 86.1984 9.90576 86.0537 10.0623C85.5595 10.5328 85.089 11.027 84.605 11.5085C84.0998 11.0211 83.4744 10.697 82.8119 10.4786C82.9117 10.4253 83.0133 10.372 83.114 10.3179C82.6282 10.306 82.1425 10.3534 81.6576 10.3221C81.5138 10.3179 81.3944 10.229 81.2734 10.1639C81.7778 9.98699 82.3236 10.0158 82.8466 10.0708C83.2485 10.1182 83.5794 10.3695 83.9128 10.5768C83.8451 10.6369 83.7774 10.6978 83.7105 10.7579C84.0219 10.7579 84.3164 10.8645 84.5601 11.0583C84.9342 10.7418 85.2743 10.3889 85.6213 10.0437C85.7787 9.90745 85.8176 9.69928 85.8574 9.50634Z" fill="white"/>
<path d="M98.0693 16.7526C98.346 16.3202 98.7624 15.9918 99.2329 15.793C99.2583 15.9072 99.2845 16.0223 99.3107 16.1365C98.9164 16.3447 98.5441 16.6053 98.291 16.9794C98.2166 16.9032 98.1421 16.8279 98.0693 16.7526Z" fill="white"/>
<path d="M41.073 8.75144C41.2084 8.62958 41.3447 8.50773 41.4809 8.38672C42.0521 8.58643 42.5894 8.88683 43.0422 9.29132C43.043 9.36325 43.0464 9.50626 43.0472 9.57819C42.4955 10.1426 41.9556 10.7223 41.4657 11.3417C41.2406 11.2884 41.1018 11.0938 40.952 10.9355C40.8327 10.8018 40.6948 10.685 40.5391 10.5962C40.6271 10.5023 40.7159 10.4092 40.8048 10.3161C40.9537 10.4599 41.1018 10.6046 41.249 10.751C41.6417 10.4836 41.9675 10.1333 42.2831 9.78213C42.3542 9.68227 42.4786 9.57396 42.4261 9.43772C42.1756 9.19232 41.7948 9.09923 41.6163 8.77767C41.4352 8.76667 41.2541 8.75905 41.073 8.75144Z" fill="white"/>
<path d="M76.5553 10.8857C77.1925 9.87358 78.1267 9.02313 79.2403 8.56787C79.3156 8.68465 79.3926 8.80143 79.4696 8.9182C78.7241 9.27192 77.9287 9.63326 77.4438 10.3348C77.0469 10.779 76.7287 11.2825 76.5409 11.8503C76.4554 11.8038 76.3708 11.7573 76.287 11.7107C76.3826 11.9603 76.4461 12.2278 76.3733 12.4935C76.2625 12.3699 76.1542 12.2447 76.0475 12.1177C76.1812 12.65 76.3353 13.2161 76.1093 13.7476C76.0137 13.613 75.9198 13.4785 75.8351 13.338C75.8072 13.2144 75.7784 13.0917 75.7539 12.9682C75.9545 12.2514 76.1601 11.5237 76.5553 10.8857Z" fill="white"/>
<path d="M107.935 9.72258C108.771 9.64896 109.613 9.68704 110.45 9.70143C110.485 10.4106 110.423 11.1222 110.481 11.8305C110.329 11.7975 110.177 11.7637 110.027 11.7307C109.989 11.206 110.003 10.6797 109.996 10.1533C109.481 10.0467 108.946 10.0416 108.436 10.1778C108.405 10.716 108.447 11.2568 108.389 11.7941C108.105 11.905 107.912 12.1428 107.767 12.4017C107.563 12.4339 107.36 12.4635 107.157 12.4914C107.127 12.7706 107.121 13.0524 107.137 13.3334C107.381 13.374 107.629 13.4062 107.864 13.4865C107.922 13.6448 107.726 13.7269 107.651 13.8377C107.318 13.8445 106.985 13.8386 106.654 13.8073C106.659 13.1938 106.655 12.5803 106.659 11.9667C107.073 11.9811 107.49 11.9794 107.904 11.9397C107.984 11.2035 107.935 10.4613 107.935 9.72258Z" fill="white"/>
<path d="M34.8424 10.6866C35.0514 9.94451 35.4838 9.22269 36.1633 8.82666C36.2488 8.90367 36.3351 8.97983 36.4146 9.06445C36.2894 9.32423 36.0643 9.51209 35.8798 9.72703C35.6073 10.0317 35.4635 10.4201 35.2875 10.7823C35.2096 10.6672 35.1326 10.5512 35.0556 10.4353C35.0031 10.6849 34.9456 10.9337 34.8804 11.18C34.9778 11.1961 35.0742 11.2121 35.1715 11.2282C35.2181 11.5549 35.2646 11.8984 35.1258 12.2107C34.9981 12.4916 35.0074 12.8013 35.0412 13.1017C35.1258 12.9765 35.2096 12.8513 35.2942 12.726C35.4178 13.0078 35.4956 13.3074 35.5126 13.6145C35.7766 13.6492 35.9881 13.8075 36.1447 14.0165C36.0262 14.0927 35.9077 14.1697 35.7893 14.2475C35.0835 13.7093 34.6672 12.814 34.7239 11.928C34.7417 11.5134 34.6604 11.0759 34.8424 10.6866Z" fill="white"/>
<path d="M73.8489 14.4463C73.9597 14.7526 74.0799 15.064 74.0824 15.3949C74.0926 15.9602 74.1121 16.528 74.0604 17.0916C73.9648 17.689 73.6889 18.2356 73.4715 18.7941C73.0357 19.5346 72.3375 20.0948 71.5387 20.4011L71.5049 20.4053C71.3695 20.3884 71.2349 20.3723 71.1012 20.3571C71.064 20.2437 71.0276 20.1312 70.9912 20.0186C71.2662 19.9458 71.537 20.0271 71.79 20.1337C71.7689 20.0558 71.7477 19.9788 71.7283 19.9018C72.1945 19.6378 72.5906 19.2663 72.9273 18.8534C73.1533 18.5682 73.2481 18.2103 73.3885 17.8811C73.4994 17.5976 73.661 17.3175 73.6432 17.0019C73.6212 16.148 73.4977 15.2561 73.8489 14.4463Z" fill="white"/>
<path d="M75.8018 15.3511C75.9168 15.2817 76.0302 15.2098 76.1453 15.1387C76.3713 15.6066 76.0328 16.0822 76.1039 16.5612C76.1259 16.8582 76.4948 16.8387 76.6514 17.0249C76.8104 17.2804 76.8976 17.5732 77.0059 17.8533C76.9154 17.9016 76.8257 17.9506 76.7368 17.9997C76.2232 17.2077 75.8187 16.309 75.8018 15.3511Z" fill="white"/>
<path d="M107.851 9.59777C108.717 9.45815 109.602 9.5817 110.476 9.52246C110.699 10.2671 110.473 11.0524 110.628 11.8081C111.271 11.9071 111.926 11.7945 112.567 11.9164C112.585 12.5756 112.579 13.234 112.572 13.8932C111.996 14.0776 111.391 13.927 110.803 14.0032C110.583 14.0277 110.576 14.2917 110.568 14.461C110.555 15.0559 110.579 15.6508 110.569 16.2448C110.573 16.8177 110.507 17.4168 110.737 17.9592C110.812 18.1242 110.966 18.2309 111.112 18.3299C111.122 18.3349 111.143 18.3443 111.154 18.3493C111.556 18.4957 111.991 18.3316 112.393 18.3993C112.399 18.406 112.412 18.4187 112.418 18.4255C112.515 18.6133 112.491 18.8325 112.5 19.0381C112.488 19.5078 112.533 19.9808 112.457 20.4471L112.373 20.4589C112.079 20.4928 111.791 20.5596 111.506 20.6383C111.08 20.717 110.631 20.7238 110.206 20.6383C110.025 20.5918 109.845 20.5453 109.663 20.508C109.083 20.4344 108.615 20.0215 108.298 19.5552C108.204 19.4274 108.174 19.2717 108.153 19.1185C108.502 19.6601 108.937 20.2296 109.598 20.3853C110.12 20.4877 110.653 20.6333 111.19 20.5478C111.566 20.4911 111.939 20.42 112.319 20.3862C112.358 19.7727 112.352 19.1575 112.322 18.544C112.178 18.5583 112.035 18.5719 111.893 18.5846C111.627 18.5778 111.351 18.6023 111.093 18.5237C110.806 18.3789 110.656 18.076 110.471 17.8289C110.469 16.5029 110.428 15.1752 110.49 13.85C111.127 13.8221 111.765 13.8627 112.402 13.8195C112.425 13.2128 112.425 12.6044 112.399 11.9976C111.769 11.9672 111.138 11.9723 110.508 11.9926C110.501 11.9519 110.488 11.8707 110.483 11.8301C110.425 11.1218 110.487 10.4101 110.452 9.70101C109.614 9.68663 108.772 9.64855 107.936 9.72217C107.936 10.4609 107.985 11.203 107.906 11.9393C107.491 11.979 107.075 11.9807 106.66 11.9663C106.657 12.5798 106.661 13.1933 106.656 13.8068C106.987 13.8382 107.319 13.8441 107.653 13.8373C107.713 13.8365 107.835 13.8356 107.895 13.8348C108.014 14.5194 107.935 15.2158 107.956 15.9063C107.96 16.5562 107.951 17.2061 107.954 17.856C107.954 18.2859 108.093 18.6963 108.153 19.1185C107.892 18.786 107.861 18.3426 107.846 17.9364C107.839 16.7508 107.847 15.5653 107.845 14.3797C107.853 14.2316 107.795 14.0565 107.63 14.0302C107.287 13.9719 106.938 14.0421 106.595 13.9896C106.456 13.9194 106.491 13.751 106.478 13.6241C106.477 13.1705 106.482 12.7169 106.477 12.2634C106.486 12.1127 106.449 11.9164 106.601 11.8233C106.967 11.7531 107.346 11.8453 107.713 11.7734C107.807 11.6828 107.847 11.5525 107.842 11.4239C107.851 10.8155 107.826 10.2062 107.851 9.59777Z" fill="white"/>
<path d="M110.474 9.52246C110.568 9.6037 110.704 9.6714 110.694 9.81779C110.73 10.4347 110.685 11.055 110.704 11.6735C111.312 11.7429 111.926 11.6879 112.538 11.704C112.663 12.0763 112.637 12.4732 112.637 12.8608C112.631 13.2763 112.675 13.7036 112.541 14.1056C111.945 14.1301 111.35 14.1013 110.755 14.1267C110.71 15.4037 110.756 16.6823 110.735 17.9592C110.505 17.4168 110.571 16.8177 110.567 16.2448C110.577 15.6508 110.553 15.0559 110.566 14.461C110.573 14.2917 110.581 14.0277 110.801 14.0032C111.388 13.927 111.994 14.0776 112.57 13.8932C112.576 13.234 112.582 12.5756 112.565 11.9164C111.924 11.7945 111.269 11.9071 110.626 11.8081C110.471 11.0524 110.697 10.2671 110.474 9.52246Z" fill="white"/>
<path d="M38.3417 9.98188C38.8241 9.70517 39.4206 9.75425 39.9292 9.9328C39.8911 10.047 39.8531 10.1604 39.815 10.2747C39.2802 10.2383 38.7047 10.1875 38.2114 10.4422C37.8687 10.5979 37.6563 10.9212 37.4143 11.1945C37.4151 10.994 37.3178 10.7443 37.4904 10.5869C37.7375 10.3398 38.0405 10.1562 38.3417 9.98188Z" fill="white"/>
<path d="M79.476 11.3643C79.5682 11.3863 79.6604 11.4091 79.7535 11.432C79.7205 11.4734 79.6537 11.5555 79.6198 11.597C79.2297 12.0142 78.9471 12.5295 78.7855 13.0753C78.6179 13.8834 78.601 14.7254 78.7778 15.5327C78.9039 15.938 79.0935 16.3222 79.3143 16.6844C79.2162 16.7513 79.118 16.8181 79.0199 16.885C78.81 16.5879 78.8244 16.2207 78.8278 15.8746C78.6441 15.7705 78.4377 15.6901 78.2963 15.5285C78.2109 15.3999 78.2955 15.2602 78.3446 15.1375C78.5121 14.8244 78.4334 14.458 78.4283 14.1204C78.4275 13.7963 78.2921 13.4866 78.2997 13.1642C78.4013 13.0982 78.5113 13.0474 78.6204 12.9949C78.5857 12.8071 78.5011 12.6057 78.5866 12.4195C78.7719 11.9888 79.1163 11.6537 79.476 11.3643Z" fill="white"/>
<path d="M68.1778 13.9303C68.4469 13.6815 68.7753 13.4589 69.1442 13.4048C69.5284 13.4082 69.9185 13.4014 70.2985 13.4674C70.3095 13.5249 70.3306 13.6409 70.3408 13.6984C69.8813 13.7357 69.4201 13.7213 68.9589 13.7145C68.964 13.7517 68.9741 13.827 68.9801 13.8643C68.6627 14.0547 68.3132 14.2112 68.0661 14.4964C67.8292 14.768 67.6608 15.0921 67.5136 15.4179C67.4814 15.3748 67.4179 15.2885 67.3858 15.2453C67.3689 15.4459 67.3325 15.6515 67.1861 15.8021C67.1277 15.6557 67.0405 15.4941 67.1167 15.3367C67.3206 14.7723 67.764 14.3458 68.1778 13.9303Z" fill="white"/>
<path d="M40.1064 16.3703C40.2782 16.3077 40.4974 16.2112 40.6379 16.3906C40.7673 16.7156 40.7403 17.0828 40.6979 17.4239C40.6793 17.6574 40.4695 17.7911 40.3121 17.935C40.2461 17.8563 40.1801 17.7776 40.1141 17.698C40.2977 17.2817 40.3112 16.7807 40.1064 16.3703Z" fill="white"/>
<path d="M41.3613 19.4397C41.7514 19.185 41.9968 18.783 42.282 18.4268C42.3692 18.4995 42.4563 18.5723 42.5435 18.6451C42.2101 19.3136 41.6262 19.8382 40.9492 20.1437C41.0321 19.8831 41.1058 19.5878 41.3613 19.4397Z" fill="white"/>
<path d="M39.8686 20.0772C40.1978 19.9646 40.5329 19.8707 40.8748 19.8047C40.8215 19.9477 40.7681 20.0916 40.7165 20.2363C40.1445 20.4512 39.5454 20.6399 38.9268 20.6162C38.3192 20.5925 37.6845 20.7008 37.1074 20.4597C37.3029 20.3496 37.4848 20.177 37.7201 20.1694C38.4351 20.1457 39.1756 20.3226 39.8686 20.0772Z" fill="white"/>
<path d="M108.438 10.1777C108.947 10.0415 109.482 10.0465 109.998 10.1532C110.004 10.6795 109.991 11.2059 110.029 11.7305C110.179 11.7635 110.33 11.7974 110.482 11.8304C110.488 11.871 110.501 11.9522 110.508 11.9928C110.528 12.113 110.548 12.2332 110.569 12.3533C111.012 12.4752 111.475 12.4566 111.93 12.471C111.952 12.7697 111.959 13.0701 111.952 13.3696C111.549 13.45 111.138 13.3891 110.734 13.4323C110.494 13.5313 110.324 13.7462 110.155 13.9332C109.97 14.1185 109.997 14.3961 109.992 14.6356C110.009 15.5122 109.998 16.3881 109.993 17.2648C109.982 17.4958 110.049 17.7183 110.151 17.9231C110.256 17.8918 110.363 17.8605 110.471 17.8292C110.656 18.0763 110.806 18.3792 111.093 18.5239C111.351 18.6026 111.626 18.5781 111.893 18.5849C111.597 18.6331 111.31 18.7253 111.045 18.8658C111.329 18.9673 111.624 19.035 111.922 19.0858C111.93 19.3524 111.972 19.6308 111.879 19.888C111.701 19.9828 111.503 20.0268 111.311 20.081C111.385 20.1647 111.46 20.2494 111.536 20.334C111.091 20.4389 110.627 20.4753 110.184 20.3467C110.259 20.2434 110.335 20.141 110.413 20.0387C110.116 20.0073 109.816 20.015 109.524 19.9642C109.321 19.9016 109.161 19.7509 109.004 19.6155C108.701 19.3558 108.631 18.9428 108.497 18.5874C108.41 18.7355 108.323 18.8836 108.235 19.03C108.085 18.5299 108.443 18.0932 108.416 17.6007C108.41 16.6411 108.404 15.6815 108.419 14.7219C108.414 14.5129 108.425 14.2979 108.361 14.0974C108.239 13.9611 108.063 13.8926 107.895 13.8351C107.835 13.8359 107.713 13.8367 107.653 13.8376C107.728 13.7267 107.923 13.6447 107.866 13.4864C107.631 13.406 107.383 13.3739 107.139 13.3332C107.122 13.0523 107.129 12.7705 107.158 12.4913C107.362 12.4633 107.565 12.4337 107.769 12.4016C107.913 12.1426 108.106 11.9048 108.391 11.794C108.448 11.2566 108.407 10.7159 108.438 10.1777Z" fill="white"/>
<path d="M38.2112 10.4428C38.7045 10.1881 39.28 10.2389 39.8148 10.2753C40.0627 10.3684 40.3056 10.4733 40.54 10.596C40.6957 10.6849 40.8336 10.8016 40.9529 10.9353C40.5281 10.7762 40.149 10.4961 39.6912 10.4327C39.1192 10.288 38.4854 10.4073 38.003 10.7449C37.5884 11.0216 37.4775 11.6301 37.7145 12.054C38.0284 12.4805 38.5412 12.6895 39.0269 12.8546C39.5431 13.0458 40.0889 13.1626 40.5857 13.4021C40.6077 13.4308 40.6517 13.4884 40.6737 13.518C40.358 13.4334 40.0449 13.3394 39.731 13.2497L39.6633 13.2311C39.533 13.188 39.4044 13.1414 39.2749 13.0974L39.2063 13.0754C38.8831 12.9519 38.5581 12.8334 38.2425 12.6921C37.9903 12.5677 37.7492 12.4044 37.5892 12.1683C37.3794 11.889 37.4606 11.5184 37.4141 11.1951C37.6561 10.9218 37.8685 10.5985 38.2112 10.4428Z" fill="white"/>
<path d="M79.9012 10.8472C80.1804 10.5603 80.5765 10.4317 80.9369 10.2769C81.0977 10.3615 81.2644 10.4385 81.4413 10.4884C80.8972 10.7101 80.3268 10.9005 79.8724 11.2881C79.8631 11.1442 79.7776 10.9665 79.9012 10.8472Z" fill="white"/>
<path d="M80.623 10.9768C81.5217 10.4581 82.742 10.4115 83.6339 10.9709C83.1253 10.8414 82.6176 10.6688 82.0845 10.7111C81.5776 10.6781 81.1105 10.8888 80.623 10.9768Z" fill="white"/>
<path d="M57.7888 11.5918C57.9555 11.5478 58.129 11.5326 58.3016 11.5258C59.1428 11.5123 60.0177 11.4522 60.8089 11.7949C61.8422 12.1435 62.5107 13.1505 62.7222 14.1821C62.795 14.5849 62.9177 14.9826 62.9203 15.3947C62.9228 17.0854 62.916 18.7762 62.9245 20.4669C62.3508 20.5879 61.7618 20.5008 61.1821 20.5262C60.8699 20.5118 60.5415 20.5744 60.2411 20.4788C60.0897 20.2765 60.0846 19.9964 59.9907 19.7646C60.0152 19.7273 60.0651 19.6529 60.0897 19.6156C60.1574 19.6021 60.2928 19.5759 60.3596 19.5632C60.363 19.8314 60.3655 20.1005 60.3664 20.3688C61.1322 20.4153 61.9116 20.4737 62.6723 20.3434C62.6749 18.5824 62.6808 16.8223 62.6672 15.0613C62.6816 14.5874 62.5183 14.1381 62.388 13.6896C62.2991 13.4137 62.1587 13.1582 61.9979 12.9187C61.926 12.8146 61.8506 12.7122 61.7711 12.6149C61.3522 12.0217 60.6067 11.7873 59.9204 11.6824C58.9515 11.5351 57.9225 11.5901 57.0162 11.9862C56.4332 12.2019 55.8755 12.5133 55.4177 12.9373C55.3187 13.0202 55.4033 13.1649 55.4719 13.2402C55.8366 13.6625 56.2106 14.078 56.6143 14.4647C56.6963 14.4055 56.7793 14.3462 56.8614 14.2853L56.8284 14.3581C56.8072 14.562 56.5677 14.6357 56.4272 14.4884C56.0481 14.1609 55.7367 13.7624 55.3957 13.3968C55.2781 13.2622 55.13 13.0947 55.2104 12.9026C55.9034 12.2019 56.8546 11.8431 57.7888 11.5918Z" fill="white"/>
<path d="M79.6189 11.5964C79.7052 11.5592 79.7923 11.5211 79.8803 11.4839C79.7229 11.8012 79.4471 12.0382 79.2821 12.3496C79.024 12.8108 78.9055 13.3329 78.815 13.8491C78.6813 14.5624 78.9419 15.2605 79.0798 15.9511C79.3878 16.656 79.9125 17.3058 80.6242 17.6325C80.7613 17.6968 80.8797 17.7916 80.9872 17.8982C80.2738 17.7983 79.7306 17.2305 79.3134 16.6839C79.0925 16.3217 78.903 15.9375 78.7769 15.5322C78.6 14.7249 78.6169 13.8829 78.7845 13.0748C78.9461 12.529 79.2288 12.0136 79.6189 11.5964Z" fill="white"/>
<path d="M98.117 12.8174C98.9421 12.1252 99.9736 11.6809 101.037 11.5311C101.933 11.5091 102.873 11.427 103.717 11.7952C104.154 11.9932 104.657 12.225 104.844 12.7014C104.727 12.6134 104.605 12.5322 104.488 12.4467C104.278 12.2843 104.057 12.1379 103.823 12.0135C103.612 11.8958 103.389 11.7884 103.149 11.7469C102.514 11.6276 101.863 11.5548 101.219 11.6352C100.538 11.7215 99.834 11.8552 99.262 12.2597C99.1393 12.3283 99.0166 12.3977 98.8964 12.4687C98.6434 12.6168 98.3988 12.7785 98.1585 12.9443C98.2981 13.2853 98.5791 13.5299 98.8177 13.799C98.8296 13.8379 98.8541 13.9149 98.8659 13.9538C98.5749 13.7651 98.3354 13.5104 98.1111 13.2498C97.9935 13.1381 97.9698 12.9138 98.117 12.8174Z" fill="white"/>
<path d="M49.166 11.712C49.5848 11.651 50.0037 11.497 50.431 11.5774C50.8838 11.6553 51.3619 11.7001 51.7503 11.9701C52.7742 12.5429 53.2066 13.775 53.2413 14.8903C53.2599 16.4982 53.2396 18.106 53.2515 19.7146C53.2566 19.9609 53.2286 20.2063 53.1948 20.4508C52.5009 20.4728 51.8061 20.4381 51.1123 20.4576C50.8846 20.4567 50.646 20.4957 50.4302 20.4017C50.4691 20.4026 50.5478 20.4034 50.5868 20.4034C51.4152 20.4271 52.2462 20.461 53.0721 20.378C53.1347 18.5781 53.0755 16.7757 53.1026 14.975C53.0357 14.0611 52.8241 13.0837 52.1573 12.4101C51.7105 12.0708 51.1867 11.7729 50.6113 11.7602C49.9707 11.7255 49.2861 11.7297 48.7183 12.0699C48.3037 12.2552 47.9872 12.5937 47.7587 12.9796C47.6487 12.9923 47.5387 13.005 47.4287 13.0185C47.4185 12.68 47.4228 12.3415 47.4109 12.0031C46.5968 11.9921 45.7786 11.9497 44.9662 12.0251C44.9941 14.8032 44.9738 17.5822 44.9763 20.3603C45.8403 20.3764 46.7035 20.3611 47.5666 20.3679C47.6368 18.6568 47.559 16.9416 47.603 15.2297C47.6478 14.8413 47.9093 14.5205 48.1581 14.2354C48.5279 13.8436 49.1 13.7209 49.6085 13.874C50.0613 14.1178 50.4014 14.5696 50.4641 15.0867C50.4514 15.129 50.4251 15.2128 50.4124 15.2542C50.3151 15.0114 50.25 14.755 50.1256 14.5239C49.9986 14.3014 49.7828 14.1491 49.5696 14.0162C49.5561 14.012 49.5298 14.0044 49.5171 14.0001C49.2523 13.9934 48.9756 13.9561 48.7192 14.0416C48.3045 14.2185 47.9736 14.5866 47.8416 15.019C47.647 15.6046 47.7155 16.2307 47.7045 16.8375C47.6978 18.04 47.7215 19.2433 47.6927 20.4457C46.7551 20.483 45.8149 20.4771 44.8773 20.45C44.8604 17.5881 44.8655 14.7262 44.8748 11.8643H44.9493C45.8166 11.8643 46.6832 11.8567 47.5505 11.8702C47.5895 12.1952 47.6258 12.5201 47.6842 12.8425C47.7139 12.7909 47.7748 12.6868 47.8052 12.6352C47.9423 12.3382 48.2436 12.1926 48.5051 12.0259C48.7132 11.899 48.9172 11.7441 49.166 11.712Z" fill="white"/>
<path d="M57.0156 11.9859C57.9219 11.5899 58.9509 11.5349 59.9198 11.6821C60.6061 11.7871 61.3516 12.0215 61.7705 12.6147C61.6038 12.4903 61.4312 12.3735 61.2543 12.2635C60.8701 12.0367 60.4538 11.837 60.0011 11.8125C59.0034 11.7524 57.993 11.7481 57.0156 11.9859Z" fill="white"/>
<path d="M67.6899 12.6461C68.3424 11.9471 69.291 11.5807 70.2362 11.5469C70.5789 11.5536 70.914 11.6391 71.2525 11.6823C71.6857 11.7297 72.0674 11.959 72.4177 12.2035C73.2606 12.7908 73.8842 13.7064 74.1127 14.7066C74.1998 15.7551 74.2946 16.8374 73.9714 17.8579C73.8707 18.2015 73.6803 18.5078 73.4713 18.7947C73.6887 18.2362 73.9646 17.6895 74.0602 17.0921C74.1118 16.5285 74.0924 15.9607 74.0822 15.3955C74.0797 15.0646 73.9595 14.7532 73.8487 14.4469C73.5432 13.4424 72.8205 12.6004 71.9168 12.08C71.1949 11.7009 70.3538 11.6645 69.5601 11.7627C69.1556 11.8194 68.7739 11.9878 68.4312 12.2052C68.0445 12.3965 67.8295 12.8365 67.4005 12.9474C67.3836 12.8627 67.3667 12.779 67.3506 12.696C67.3827 12.4489 67.4056 12.201 67.3971 11.9522C67.431 11.9522 67.4978 11.9531 67.5317 11.9539C67.5503 12.2264 67.5554 12.5006 67.5655 12.7739C67.6061 12.7316 67.6476 12.6884 67.6899 12.6461Z" fill="white"/>
<path d="M99.2627 12.2595C99.8347 11.855 100.539 11.7213 101.22 11.635C101.864 11.5546 102.515 11.6274 103.149 11.7467C103.39 11.7881 103.612 11.8956 103.824 12.0132C103.3 11.8812 102.767 11.7695 102.224 11.7848C101.512 11.8017 100.768 11.7145 100.09 11.9811C99.8161 12.0801 99.5403 12.174 99.2627 12.2595Z" fill="white"/>
<path d="M44.9509 11.7018C45.7091 11.7034 46.4665 11.7068 47.2247 11.6992C47.3702 11.7119 47.5632 11.6798 47.6546 11.8262C47.713 12.0944 47.7113 12.3745 47.8052 12.6351C47.7747 12.6868 47.7138 12.7908 47.6842 12.8425C47.6258 12.52 47.5894 12.1951 47.5505 11.8702C46.6831 11.8566 45.8166 11.8642 44.9492 11.8642C44.9501 11.8236 44.9509 11.7424 44.9509 11.7018Z" fill="white"/>
<path d="M64.7464 12.1775C64.743 11.9964 64.765 11.7163 65.007 11.7189C65.8439 11.6935 66.6817 11.7214 67.5186 11.707C67.5804 12.0193 67.6142 12.3366 67.6904 12.6463C67.6481 12.6886 67.6066 12.7318 67.566 12.7741C67.5558 12.5008 67.5507 12.2266 67.5321 11.9541C67.4983 11.9533 67.4314 11.9524 67.3976 11.9524C66.5861 11.9592 65.7737 11.9643 64.9622 11.9524C64.8056 12.5566 64.9334 13.1786 64.9249 13.7913C64.9216 16.9223 64.9258 20.0541 64.9224 23.1851C64.9266 23.615 64.8285 24.0592 64.9639 24.479C65.1932 24.5365 65.4318 24.5246 65.6662 24.5246C66.3009 24.512 66.9372 24.5382 67.5719 24.501C67.6269 22.8678 67.533 21.2303 67.6184 19.5988C67.8283 19.7046 68.0305 19.8248 68.2235 19.9602C68.3513 20.0549 68.4833 20.1429 68.6195 20.2259C68.6644 20.2546 68.7541 20.3122 68.7989 20.3401C68.848 20.3604 68.947 20.401 68.9961 20.4205C69.0045 20.423 69.0223 20.4273 69.0308 20.4298C69.0959 20.4332 69.2246 20.4408 69.2897 20.445C69.3329 20.5525 69.4167 20.5999 69.541 20.5847C70.0005 20.6913 70.4761 20.7091 70.9331 20.5813L71.0041 20.5703C71.1184 20.5906 71.2055 20.5517 71.2656 20.4527C71.3223 20.4434 71.4357 20.4239 71.4916 20.4146C71.5034 20.4112 71.5271 20.4053 71.539 20.4019C72.3378 20.0956 73.0359 19.5354 73.4717 18.7949C73.6807 18.5081 73.8711 18.2017 73.9718 17.8582C74.2951 16.8376 74.2003 15.7553 74.1131 14.7069C74.3315 15.1587 74.3619 15.6673 74.3577 16.1607C74.3848 16.8393 74.1808 17.4977 73.9837 18.1391C73.6266 18.9752 73.03 19.7241 72.2684 20.2267C71.451 20.7548 70.433 20.836 69.4903 20.7048C68.8497 20.5965 68.3132 20.2098 67.775 19.873C67.7327 21.3437 67.7699 22.817 67.7581 24.2894C67.7555 24.429 67.7428 24.6186 67.5795 24.6634C67.3113 24.7125 67.0371 24.6871 66.7672 24.6897C66.1054 24.6753 65.442 24.7167 64.7811 24.6626C64.7261 24.0584 64.7616 23.4516 64.7557 22.8458C64.7515 19.29 64.7642 15.7333 64.7464 12.1775Z" fill="white"/>
<path d="M48.7183 12.0695C49.2862 11.7293 49.9707 11.7251 50.6113 11.7598C51.1868 11.7725 51.7106 12.0703 52.1574 12.4097C52.8242 13.0832 53.0357 14.0606 53.1026 14.9745C53.0755 16.7753 53.1347 18.5777 53.0721 20.3776C52.2462 20.4605 51.4152 20.4267 50.5868 20.403C50.547 18.846 50.5792 17.2872 50.5724 15.7302C50.5673 15.511 50.5165 15.2978 50.4641 15.0862C50.4015 14.5692 50.0613 14.1173 49.6086 13.8736C49.1 13.7204 48.5279 13.8431 48.1581 14.2349C48.0972 14.1342 48.0363 14.0344 47.9762 13.9337C48.2292 13.668 48.5322 13.415 48.9121 13.3743C49.5248 13.2643 50.1205 13.6011 50.5089 14.053C50.9236 14.5709 51.0327 15.2589 51.0277 15.9045C51.0192 17.0909 51.0319 18.2765 51.0158 19.4629C51.0133 19.7167 51.0573 19.9672 51.1123 20.2143C51.6158 20.2481 52.1218 20.2524 52.6262 20.2101C52.6829 18.9179 52.6321 17.6223 52.6507 16.3293C52.6422 15.6608 52.6084 14.983 52.7768 14.3289C52.6482 14.2028 52.5085 14.0835 52.4087 13.9311C52.2166 13.5952 52.2394 13.1526 51.95 12.87C51.6852 12.617 51.3416 12.4401 51.1605 12.1076C50.5411 12.4393 49.8108 12.1042 49.1677 12.3487C48.7623 12.5053 48.5203 12.9047 48.137 13.0959C47.9144 13.1975 47.6631 13.1306 47.4338 13.0959L47.4287 13.0181C47.5387 13.0045 47.6487 12.9919 47.7587 12.9792C47.9872 12.5933 48.3037 12.2548 48.7183 12.0695Z" fill="white"/>
<path d="M68.4326 12.2053C68.7753 11.9878 69.157 11.8194 69.5615 11.7627C70.3552 11.6646 71.1964 11.7009 71.9182 12.08C71.8344 12.1951 71.7506 12.3102 71.6677 12.4253C71.0737 12.0817 70.3738 12.2451 69.7248 12.2011C69.4345 12.1723 69.1747 12.3128 68.9014 12.3779C68.7356 12.35 68.5858 12.2687 68.4326 12.2053Z" fill="white"/>
<path d="M39.7308 13.2495C40.0447 13.3392 40.3578 13.4331 40.6735 13.5178L40.7175 13.5423C41.1313 13.8029 41.5764 14.0128 41.9732 14.2997C42.5444 14.7058 42.8668 15.393 42.9549 16.0742C42.9836 16.6716 43.02 17.2834 42.8787 17.869C42.7535 17.7675 42.6282 17.6651 42.5038 17.5627C42.5444 16.9069 42.4937 16.2426 42.6223 15.5935C42.211 15.4217 42.079 14.9589 41.7549 14.6864C41.144 14.1507 40.3485 13.9146 39.625 13.577C39.6597 13.4678 39.6952 13.3587 39.7308 13.2495Z" fill="white"/>
<path d="M36.9567 17.9814C37.0786 18.0288 37.2021 18.072 37.3248 18.1177C37.9629 18.435 38.6906 18.3242 39.3752 18.3123C39.0257 18.556 38.5891 18.5425 38.1846 18.4951C38.133 18.578 38.0839 18.6626 38.0196 18.738C37.9146 18.749 37.8089 18.7422 37.7039 18.7397C37.7234 18.6313 37.7429 18.523 37.7623 18.4156C37.5694 18.4519 37.3756 18.5019 37.1776 18.4943C36.9686 18.4096 36.9119 18.1837 36.9567 17.9814Z" fill="white"/>
<path d="M57.0162 11.9859C57.9935 11.7481 59.0039 11.7523 60.0016 11.8124C60.4543 11.837 60.8707 12.0367 61.2549 12.2635C61.2125 12.3481 61.1711 12.4327 61.1296 12.5182C61.3082 12.6967 61.496 12.866 61.6923 13.0259C61.7939 12.9895 61.8954 12.954 61.9978 12.9184C62.1586 13.1579 62.2991 13.4135 62.3879 13.6893C62.4006 14.0498 62.3279 14.4052 62.2415 14.7539C62.1358 15.1871 62.1848 15.6348 62.1925 16.0757C62.2178 17.1757 62.1899 18.2758 62.2119 19.3751C62.2212 19.6941 62.1764 20.0123 62.0918 20.3194C62.2855 20.3245 62.4785 20.3321 62.6723 20.3431C61.9115 20.4734 61.1322 20.4151 60.3663 20.3685C60.3655 20.1003 60.3629 19.8312 60.3596 19.5629C60.1666 19.5274 59.9652 19.4478 59.7697 19.5071C59.4668 19.6188 59.2366 19.8709 58.9295 19.9725C58.7204 20.0317 58.503 20.0503 58.2897 20.0825C58.4818 20.316 58.7543 20.4557 59.0632 20.4125C58.2618 20.6723 57.3868 20.6951 56.5854 20.4193C56.2063 20.1823 55.7612 20.0266 55.4693 19.6721C55.0623 19.1965 54.8372 18.5627 54.8634 17.9365C54.8389 17.1368 55.289 16.3549 55.9711 15.9462C56.6667 15.5265 57.4782 15.3758 58.2703 15.2616C58.9371 15.0763 59.6462 15.2887 60.3071 15.0678C60.2741 14.6126 60.1683 14.0608 59.7164 13.8366C59.3221 13.5742 58.8313 13.6445 58.3845 13.6394C57.8201 13.6335 57.2328 13.8501 56.8613 14.2851C56.7792 14.346 56.6963 14.4052 56.6142 14.4645C56.2106 14.0777 55.8365 13.6623 55.4718 13.24C55.4033 13.1647 55.3187 13.02 55.4177 12.9371C55.8755 12.5131 56.4331 12.2017 57.0162 11.9859ZM58.5106 16.7823C58.002 16.9016 57.3242 17.1554 57.3225 17.7799C57.2328 18.2479 57.6339 18.6194 58.046 18.7302C58.4158 18.759 58.789 18.7582 59.1588 18.7226C59.9483 18.4442 60.4662 17.5557 60.269 16.7332C60.0769 16.6553 59.8603 16.7044 59.658 16.6942C59.2756 16.7129 58.8795 16.6553 58.5106 16.7823Z" fill="white"/>
<path d="M100.091 11.9809C100.769 11.7144 101.513 11.8015 102.225 11.7846C102.768 11.7694 103.301 11.8811 103.824 12.0131C104.058 12.1375 104.28 12.2839 104.49 12.4463C104.996 13.0345 105.305 13.7681 105.397 14.5382C105.641 15.4267 105.517 16.3516 105.545 17.2605C105.526 18.2564 105.586 19.2558 105.507 20.2501C105.393 19.5681 105.456 18.8776 105.444 18.1913C105.439 17.3425 105.448 16.4946 105.448 15.6459C105.459 15.4453 105.398 15.2549 105.281 15.0933C105.084 15.6256 105.189 16.1993 105.167 16.7527C105.145 17.9467 105.227 19.1441 105.11 20.3348C104.518 20.3415 103.925 20.3508 103.334 20.3212C103.317 20.0233 103.292 19.7263 103.248 19.4318C102.971 19.5393 102.604 19.6392 102.591 19.998C102.533 20.1384 102.361 20.1901 102.24 20.2628C101.124 20.812 99.7203 20.713 98.6829 20.0352C98.765 19.9328 98.8487 19.8304 98.9325 19.728C98.715 19.4852 98.506 19.2355 98.3072 18.9774C98.2208 19.0747 98.1337 19.1721 98.0474 19.2694C98.055 18.7303 98.33 18.2243 98.2369 17.6793C98.2589 17.4153 98.0279 17.263 97.8604 17.1048C97.9264 16.9854 97.9966 16.8678 98.0702 16.7527C98.143 16.828 98.2175 16.9034 98.2919 16.9795C98.5449 16.6055 98.9173 16.3449 99.3116 16.1367C99.2854 16.0224 99.2591 15.9074 99.2338 15.7931C99.5172 15.6738 99.8075 15.5706 100.103 15.48C100.503 15.3522 100.955 15.4309 101.323 15.1982L101.39 15.1686C101.959 15.2008 102.53 15.1788 103.1 15.172C103.104 14.9257 103.137 14.6744 103.087 14.4307C102.889 14.1193 102.614 13.8341 102.275 13.6784C101.865 13.609 101.445 13.637 101.031 13.6454C100.609 13.6522 100.239 13.8841 99.8921 14.099C99.3979 13.8807 99.018 13.4745 98.5179 13.2714C98.704 13.0869 98.8868 12.8991 99.0713 12.7137C99.0129 12.6317 98.9554 12.5496 98.8978 12.4683C99.018 12.3973 99.1407 12.3279 99.2634 12.2593C99.5409 12.1739 99.8168 12.0799 100.091 11.9809ZM101.353 16.3C101.422 16.4109 101.491 16.5217 101.563 16.6334C101.2 16.7324 100.796 16.8043 100.522 17.0844C100.365 17.2342 100.216 17.395 100.102 17.5795C100.047 17.786 100.059 18.011 100.096 18.2201C100.385 18.6931 100.942 18.8251 101.453 18.892C102.046 18.8141 102.681 18.5899 102.998 18.0432C103.201 17.6032 103.332 17.1191 103.272 16.6309C103.236 16.63 103.164 16.6266 103.128 16.6258C103.127 16.5006 103.127 16.3753 103.13 16.2509C102.89 16.1807 102.642 16.1494 102.394 16.157C102.044 16.1646 101.671 16.1231 101.353 16.3Z" fill="white"/>
<path d="M64.9609 11.9521C65.7725 11.964 66.5848 11.9589 67.3963 11.9521C67.4048 12.2009 67.382 12.4489 67.3498 12.696C67.3066 12.5064 67.2618 12.3186 67.2212 12.129C67.1907 12.1205 67.1289 12.1028 67.0985 12.0935C67.079 12.1976 67.0595 12.3008 67.0409 12.4049C66.5332 12.4582 66.0221 12.4345 65.5127 12.4472C65.461 12.8931 65.4314 13.3408 65.434 13.7901C65.4374 16.5826 65.434 19.376 65.4365 22.1685C65.4433 22.7752 65.4052 23.382 65.4492 23.9879C65.9865 24.0361 66.5264 24.0327 67.0638 23.9896C67.1036 22.6754 67.0562 21.3595 67.0799 20.0454C67.0705 19.8423 67.1501 19.6561 67.2635 19.4936C67.4547 20.1139 67.3473 20.7689 67.3701 21.4069C67.3523 22.3581 67.4141 23.3109 67.3337 24.2603C66.6178 24.3077 65.8985 24.312 65.1835 24.2612C65.1327 23.6206 65.1623 22.9783 65.1547 22.3377C65.1547 19.7424 65.1547 17.1479 65.1547 14.5526C65.1606 13.7436 65.1378 12.9346 65.186 12.1273C65.1471 12.0969 65.0676 12.0368 65.0286 12.0063L64.9609 11.9521Z" fill="white"/>
<path d="M64.9249 13.791C64.9334 13.1783 64.8056 12.5563 64.9622 11.9521L65.0299 12.0063C65.0705 16.1316 65.0155 20.2594 65.0569 24.3856C65.8575 24.411 66.6597 24.411 67.4602 24.3864C67.4924 23.2525 67.4636 22.1177 67.4737 20.9838C67.4771 20.4431 67.4289 19.8956 67.5406 19.3616C67.8249 19.4894 68.0449 19.7094 68.2235 19.9599C68.0305 19.8245 67.8283 19.7043 67.6184 19.5985C67.533 21.2301 67.6269 22.8675 67.5719 24.5007C66.9372 24.5379 66.3009 24.5117 65.6662 24.5244C65.4318 24.5244 65.1932 24.5362 64.9639 24.4787C64.8285 24.0589 64.9266 23.6147 64.9224 23.1848C64.9258 20.0538 64.9216 16.922 64.9249 13.791Z" fill="white"/>
<path d="M75.5027 13.5346C75.5518 13.0108 75.6034 12.4438 75.8936 11.9937C75.8293 12.2907 75.7642 12.5894 75.7379 12.8932C75.6076 13.5219 75.4967 14.1684 75.5831 14.8107C75.6609 15.4394 75.7819 16.0623 75.93 16.6783C75.7489 16.5277 75.7125 16.2899 75.655 16.0758C75.4164 15.2499 75.5162 14.3817 75.5027 13.5346Z" fill="white"/>
<path d="M110.506 11.9931C111.136 11.9728 111.767 11.9677 112.398 11.9981C112.424 12.6049 112.423 13.2133 112.4 13.82C111.763 13.8632 111.125 13.8226 110.489 13.8505C110.427 15.1757 110.468 16.5034 110.469 17.8294C110.362 17.8607 110.255 17.892 110.149 17.9233C110.048 17.7186 109.981 17.496 109.992 17.265C109.996 16.3883 110.007 15.5125 109.99 14.6358C109.995 14.3963 109.968 14.1188 110.154 13.9334C110.323 13.7464 110.493 13.5315 110.732 13.4325C111.137 13.3893 111.548 13.4502 111.951 13.3699C111.958 13.0703 111.951 12.7699 111.929 12.4712C111.474 12.4568 111.011 12.4754 110.567 12.3536C110.547 12.2334 110.527 12.1132 110.506 11.9931Z" fill="white"/>
<path d="M98.1592 12.9443C98.3995 12.7785 98.6441 12.6168 98.8971 12.4688C98.9546 12.55 99.0122 12.6321 99.0706 12.7142C98.8861 12.8995 98.7033 13.0873 98.5171 13.2718C99.0172 13.4749 99.3972 13.8811 99.8914 14.0994C99.7433 14.1916 99.5944 14.2797 99.4446 14.3668C99.2373 14.1756 99.0291 13.9869 98.8184 13.799C98.5798 13.5299 98.2988 13.2853 98.1592 12.9443Z" fill="white"/>
<path d="M101.353 16.2999C101.671 16.123 102.044 16.1645 102.394 16.1569C102.642 16.1493 102.89 16.1806 103.13 16.2508C103.127 16.3752 103.127 16.5004 103.128 16.6257C102.606 16.6096 102.083 16.6062 101.562 16.6333C101.491 16.5216 101.422 16.4107 101.353 16.2999Z" fill="white"/>
<path d="M97.792 18.8904C97.8182 18.2955 97.731 17.6913 97.8597 17.104C98.0272 17.2622 98.2582 17.4146 98.2362 17.6786C98.3293 18.2235 98.0543 18.7296 98.0467 19.2686C98.133 19.1713 98.2202 19.074 98.3065 18.9767C98.5053 19.2348 98.7143 19.4844 98.9318 19.7273C98.848 19.8297 98.7643 19.9321 98.6822 20.0344C98.2828 19.7433 97.9773 19.3482 97.792 18.8904Z" fill="white"/>
<path d="M61.2541 12.2642C61.431 12.3742 61.6036 12.4909 61.7703 12.6153C61.8499 12.7127 61.9252 12.815 61.9971 12.9191C61.8947 12.9547 61.7932 12.9902 61.6916 13.0266C61.4953 12.8667 61.3075 12.6974 61.1289 12.5189C61.1704 12.4334 61.2118 12.3488 61.2541 12.2642Z" fill="white"/>
<path d="M104.489 12.4473C104.606 12.5327 104.727 12.614 104.845 12.702C104.902 12.7511 104.948 12.8094 104.985 12.8763C105.438 13.786 105.665 14.8082 105.647 15.8237C105.633 17.3528 105.672 18.8836 105.629 20.4127C104.817 20.4846 104 20.4347 103.186 20.4372C103.176 20.1707 103.178 19.9041 103.181 19.6376C102.958 19.7112 102.784 19.8736 102.59 19.9989C102.603 19.6401 102.97 19.5402 103.247 19.4328C103.291 19.7273 103.316 20.0243 103.333 20.3221C103.924 20.3518 104.517 20.3425 105.109 20.3357C105.241 20.334 105.374 20.3323 105.508 20.3314L105.506 20.2511C105.585 19.2568 105.525 18.2574 105.544 17.2614C105.516 16.3525 105.64 15.4276 105.396 14.5391C105.304 13.7691 104.995 13.0354 104.489 12.4473Z" fill="white"/>
<path d="M38.2425 12.6924C38.5581 12.8337 38.8831 12.9522 39.2063 13.0757C38.9787 13.1146 38.7536 13.1959 38.52 13.184C38.355 13.1409 38.2103 13.0461 38.0605 12.9666C38.1215 12.8752 38.1816 12.7838 38.2425 12.6924Z" fill="white"/>
<path d="M62.388 13.6899C62.5183 14.1384 62.6816 14.5878 62.6672 15.0617C62.6808 16.8226 62.6748 18.5828 62.6723 20.3437C62.4785 20.3327 62.2856 20.3251 62.0918 20.32C62.1764 20.0129 62.2213 19.6947 62.212 19.3757C62.19 18.2764 62.2179 17.1763 62.1925 16.0763C62.1849 15.6354 62.1358 15.1877 62.2416 14.7545C62.3279 14.4058 62.4007 14.0504 62.388 13.6899Z" fill="white"/>
<path d="M104.985 12.8755C105.094 12.9406 105.199 13.0202 105.244 13.1454C105.454 13.621 105.643 14.1186 105.686 14.6415C105.719 15.0646 105.844 15.4768 105.836 15.9032C105.829 17.0888 105.832 18.2752 105.833 19.4607C105.826 19.7789 105.868 20.103 105.799 20.4161C105.588 20.6598 105.214 20.5549 104.93 20.5828C104.328 20.5413 103.707 20.6657 103.119 20.4957C103.951 20.4178 104.79 20.461 105.624 20.4745L105.628 20.4119C105.671 18.8828 105.632 17.352 105.647 15.8229C105.665 14.8074 105.438 13.7852 104.985 12.8755Z" fill="white"/>
<path d="M39.2733 13.0972C39.4027 13.1412 39.5314 13.1877 39.6617 13.2309C39.5449 13.3392 39.4315 13.4526 39.319 13.5643C39.214 13.4864 39.1099 13.4086 39.0059 13.3299C39.0947 13.252 39.1836 13.175 39.2733 13.0972Z" fill="white"/>
<path d="M40.7173 13.5425C41.0076 13.5636 41.2961 13.6423 41.5381 13.8099C42.2024 14.2592 42.8489 14.8507 43.0512 15.6572C43.1459 16.1827 43.2145 16.7217 43.1231 17.2531C43.1222 18.5487 42.21 19.6995 41.0812 20.2547C40.6191 20.4662 40.141 20.6837 39.6265 20.7201C38.8785 20.7708 38.1287 20.77 37.3815 20.7158C36.8383 20.6617 36.3195 20.4645 35.8118 20.275C35.2 19.9534 34.5687 19.6183 34.1016 19.097C34.0297 18.8813 34.2581 18.7069 34.3876 18.5614C34.8911 18.1044 35.3024 17.5586 35.7983 17.0957C35.9252 16.9697 36.1207 17.061 36.2163 17.1795C36.4608 17.4495 36.7672 17.6475 37.0549 17.8666C37.1463 17.9487 37.2343 18.035 37.3248 18.118C37.2021 18.0723 37.0786 18.0291 36.9567 17.9817C36.7367 17.8734 36.5446 17.7186 36.3661 17.5518C36.2451 17.4393 36.1511 17.2751 35.9785 17.2371C35.6417 17.4376 35.4056 17.7609 35.1264 18.03C34.8598 18.3143 34.5425 18.5555 34.3284 18.8855C34.248 19.0353 34.3868 19.152 34.4782 19.2536C34.7523 19.532 35.0917 19.7342 35.4352 19.9145C35.6569 20.0135 35.8837 20.1023 36.1088 20.1971C36.3796 20.3224 36.6656 20.418 36.9652 20.4417C37.0007 20.4467 37.071 20.4561 37.1065 20.4603C37.6836 20.7015 38.3183 20.5931 38.9259 20.6168C39.5444 20.6405 40.1436 20.4518 40.7156 20.2369C40.774 20.2132 40.8899 20.1667 40.9483 20.1438C41.6253 19.8383 42.2092 19.3137 42.5426 18.6452C42.6771 18.3972 42.7846 18.1357 42.8785 17.8692C43.0199 17.2836 42.9835 16.6718 42.9547 16.0744C42.8667 15.3932 42.5443 14.706 41.9731 14.2998C41.5762 14.013 41.1311 13.8031 40.7173 13.5425Z" fill="white"/>
<path d="M56.8621 14.2849C57.2336 13.8499 57.8209 13.6333 58.3853 13.6392C58.8321 13.6443 59.3229 13.574 59.7172 13.8364C60.1691 14.0606 60.2749 14.6123 60.3079 15.0676C60.2554 15.0659 60.1522 15.0608 60.0997 15.0583C60.0955 15.0151 60.0862 14.928 60.082 14.8848C60.0642 14.4321 59.7773 13.9591 59.3094 13.8643C58.7441 13.6375 58.128 13.7864 57.5831 13.9963C57.3275 14.108 57.1016 14.284 56.8291 14.3576L56.8621 14.2849Z" fill="white"/>
<path d="M99.8914 14.0986C100.238 13.8837 100.608 13.6518 101.03 13.645C101.444 13.6366 101.865 13.6087 102.274 13.6781C102.613 13.8338 102.889 14.1189 103.086 14.4303C103.137 14.674 103.104 14.9254 103.099 15.1716C102.529 15.1784 101.959 15.2004 101.389 15.1682L101.286 15.1488C101.82 14.9474 102.407 15.0481 102.966 15.0235C103.002 14.6537 102.89 14.2569 102.574 14.0352C102.064 13.7457 101.431 13.6518 100.87 13.8524C100.433 13.9607 100.053 14.2052 99.6874 14.4591C99.3278 14.707 98.9935 14.2467 98.8666 13.9531C98.8547 13.9141 98.8302 13.8371 98.8184 13.7982C99.0291 13.9861 99.2372 14.1748 99.4446 14.366C99.5943 14.2789 99.7433 14.1909 99.8914 14.0986Z" fill="white"/>
<path d="M68.9797 13.8646C69.3571 13.8146 69.7446 13.8189 70.1246 13.8561C70.6839 14.0668 71.1756 14.5052 71.4371 15.0442C71.6148 15.4783 71.5809 15.959 71.5775 16.4184C71.5792 16.7349 71.5073 17.0472 71.3821 17.3374C71.2044 17.6945 70.8963 17.9772 70.5638 18.1887C70.2464 18.3309 69.9037 18.4172 69.5593 18.4561C69.1184 18.4138 68.6784 18.2683 68.323 17.9983C68.2248 17.9222 68.1343 17.8367 68.0556 17.7419C67.8466 17.4855 67.6951 17.191 67.5199 16.9126C67.4607 16.4184 67.4658 15.9133 67.5132 15.4182C67.6604 15.0924 67.8288 14.7683 68.0657 14.4967C68.3128 14.2115 68.6623 14.055 68.9797 13.8646ZM69.088 14.022C68.0632 14.3935 67.3947 15.5866 67.6858 16.6486C67.8263 17.0887 67.9896 17.5685 68.3822 17.8494C68.6513 18.0466 68.9424 18.2725 69.2961 18.2547C69.6905 18.2547 70.128 18.308 70.4758 18.0787C70.9133 17.7935 71.2475 17.3493 71.3617 16.8365C71.5894 16.1536 71.4438 15.4013 71.107 14.7819C70.9336 14.473 70.6095 14.3004 70.3107 14.1345C69.9426 13.9213 69.4916 13.9636 69.088 14.022Z" fill="white"/>
<path d="M107.894 13.8345C108.062 13.892 108.238 13.9606 108.36 14.0968C108.424 14.2974 108.413 14.5123 108.418 14.7213C108.403 15.6809 108.409 16.6405 108.415 17.6001C108.442 18.0926 108.084 18.5293 108.234 19.0294C108.322 18.883 108.409 18.7349 108.496 18.5868C108.63 18.9422 108.7 19.3552 109.003 19.615C109.159 19.7504 109.319 19.901 109.523 19.9636C109.815 20.0144 110.115 20.0068 110.412 20.0381C110.334 20.1405 110.258 20.2429 110.183 20.3461C110.626 20.4747 111.09 20.4383 111.535 20.3334C111.459 20.2488 111.384 20.1642 111.31 20.0804C111.502 20.0262 111.7 19.9822 111.878 19.8874C111.971 19.6302 111.929 19.3518 111.921 19.0852C111.623 19.0345 111.328 18.9668 111.044 18.8652C111.309 18.7247 111.596 18.6325 111.892 18.5843C112.034 18.5716 112.177 18.558 112.321 18.5437C112.351 19.1572 112.356 19.7724 112.318 20.3859C111.938 20.4197 111.564 20.4908 111.189 20.5475C110.652 20.633 110.119 20.4874 109.597 20.385C108.935 20.2293 108.5 19.6598 108.152 19.1182C108.092 18.696 107.953 18.2856 107.953 17.8557C107.949 17.2058 107.959 16.5559 107.954 15.906C107.934 15.2155 108.013 14.5191 107.894 13.8345Z" fill="white"/>
<path d="M105.279 15.0933C105.396 15.2549 105.458 15.4453 105.447 15.6458C105.446 16.4946 105.438 17.3425 105.443 18.1913C105.455 18.8775 105.392 19.568 105.505 20.2501L105.508 20.3305C105.373 20.3313 105.24 20.333 105.108 20.3347C105.226 19.1441 105.144 17.9467 105.165 16.7527C105.188 16.1993 105.082 15.6255 105.279 15.0933Z" fill="white"/>
<path d="M91.4873 13.9788C91.9984 13.7131 92.6847 13.8832 93.0342 14.3351C93.211 14.5991 93.3693 14.8978 93.3735 15.2236C93.3947 16.949 93.349 18.6753 93.3955 20.3999C94.2349 20.4168 95.0752 20.3855 95.9138 20.4177C95.957 20.4202 96.0433 20.4244 96.0856 20.4261C95.1548 20.493 94.2189 20.4718 93.2872 20.449C93.2339 19.387 93.277 18.3233 93.2635 17.2604C93.25 16.5158 93.2999 15.7592 93.1425 15.0264C93.0765 14.6465 92.8311 14.3173 92.5214 14.0973C92.2252 13.8925 91.8385 13.9153 91.5431 14.1074C91.307 14.2589 91.0583 14.4171 90.9025 14.6549C90.6673 15.0873 90.5869 15.5883 90.5962 16.0757C90.6038 17.4034 90.5928 18.7303 90.603 20.058C90.5979 20.201 90.6089 20.3508 90.5573 20.4887C90.1046 20.5446 89.6459 20.4972 89.1915 20.5107C88.7599 20.4972 88.3258 20.5395 87.8968 20.498C87.8799 20.4743 87.846 20.4278 87.8291 20.4041L87.9095 20.3948C88.7125 20.3237 89.5283 20.4591 90.3254 20.3263C90.3534 20.3127 90.4084 20.2865 90.4363 20.273C90.4617 18.6423 90.4236 17.0099 90.4541 15.3784C90.5556 15.0713 90.6529 14.7616 90.7968 14.4705C91.0151 14.2919 91.2343 14.1083 91.4873 13.9788Z" fill="white"/>
<path d="M91.5439 14.1073C91.8393 13.9152 92.226 13.8923 92.5222 14.0971C92.1964 14.1073 91.8697 14.1098 91.5439 14.1073Z" fill="white"/>
<path d="M58.7119 15.0701C59.1189 14.812 59.6241 14.9161 60.0802 14.8848C60.0845 14.9279 60.0938 15.0151 60.098 15.0582C59.636 15.0498 59.1739 15.0769 58.7119 15.0701Z" fill="white"/>
<path d="M57.3711 15.2394C57.8035 15.0921 58.2621 15.0795 58.7132 15.0701C59.1752 15.0769 59.6372 15.0498 60.0993 15.0583C60.1517 15.0608 60.255 15.0659 60.3074 15.0676C59.6465 15.2885 58.9374 15.0761 58.2706 15.2614C57.4785 15.3756 56.667 15.5263 55.9714 15.946C55.2894 16.3547 54.8392 17.1366 54.8637 17.9363C54.8375 18.5625 55.0626 19.1963 55.4696 19.6719C55.7616 20.0264 56.2067 20.1821 56.5858 20.4191C56.4521 20.4275 56.3091 20.4563 56.1898 20.3784C55.4375 20.018 54.84 19.2911 54.741 18.4499C54.6835 17.817 54.6886 17.1163 55.0981 16.5908C55.6008 15.8106 56.5172 15.4738 57.3711 15.2394Z" fill="white"/>
<path d="M71.4378 15.0439C71.6138 15.0879 71.7932 15.126 71.9599 15.2013C72.0936 15.3841 71.9879 15.6033 71.9244 15.7903C71.8482 15.792 71.7721 15.7937 71.6959 15.7962C71.7044 15.9849 71.7111 16.1745 71.7162 16.364C71.8127 16.392 71.91 16.4199 72.0082 16.4478C72.0183 16.634 72.0564 16.8413 71.9405 17.0055C71.8465 17.0546 71.7391 17.0647 71.6375 17.0867C71.6942 17.2145 71.7983 17.3423 71.745 17.4904C71.591 17.5902 71.492 17.4167 71.3828 17.3372C71.5081 17.0469 71.58 16.7347 71.5783 16.4182C71.5817 15.9587 71.6155 15.4781 71.4378 15.0439Z" fill="white"/>
<path d="M38.1514 15.3226C38.4594 15.2803 38.7589 15.1568 39.0729 15.1644C39.3792 15.2516 39.6255 15.4682 39.8819 15.6484C39.7913 15.7407 39.7008 15.8321 39.6102 15.9243C39.1702 15.6679 38.6862 15.497 38.2038 15.3396L38.1514 15.3226Z" fill="white"/>
<path d="M67.0115 16.673C66.9895 16.4598 67.1765 16.4099 67.3466 16.3921C67.3576 16.5698 67.3678 16.7483 67.3771 16.9277C67.4126 16.9235 67.4846 16.9159 67.5201 16.9125C67.6953 17.1909 67.8468 17.4854 68.0558 17.7418C67.851 17.7435 67.5963 17.7824 67.4617 17.5878C67.2713 17.3077 67.0936 17.0022 67.0115 16.673Z" fill="white"/>
<path d="M93.1426 15.0264C93.3 15.7592 93.25 16.5157 93.2636 17.2604C93.2771 18.3232 93.234 19.3869 93.2873 20.4489C94.219 20.4718 95.1549 20.4929 96.0857 20.4261L96.1746 20.4286C95.9833 20.619 95.6948 20.542 95.4536 20.5606C94.7055 20.5327 93.9533 20.6063 93.2077 20.5217C93.019 19.8735 93.1392 19.1931 93.1087 18.5297C93.1341 17.3619 93.0495 16.1908 93.1426 15.0264Z" fill="white"/>
<path d="M50.4639 15.0869C50.5163 15.2985 50.5671 15.5117 50.5722 15.7309C50.5789 17.2879 50.5468 18.8466 50.5866 20.4037C50.5476 20.4037 50.4689 20.4028 50.43 20.402L50.375 20.4011C50.3978 18.96 50.3801 17.5181 50.3852 16.0761C50.3945 15.8028 50.3462 15.5227 50.4122 15.2545C50.4249 15.213 50.4512 15.1292 50.4639 15.0869Z" fill="white"/>
<path d="M99.8737 15.3865C100.34 15.2426 100.832 15.1132 101.323 15.1978C100.955 15.4305 100.503 15.3518 100.103 15.4796C99.8077 15.5701 99.5175 15.6734 99.234 15.7927C98.7635 15.9915 98.3471 16.3199 98.0704 16.7523C97.9968 16.8674 97.9266 16.985 97.8606 17.1043C97.7319 17.6916 97.8191 18.2958 97.7929 18.8907L97.7785 18.8357C97.6143 18.2628 97.6583 17.6586 97.7396 17.0764C97.831 16.7151 98.1153 16.4527 98.3675 16.1972C98.7762 15.7834 99.3364 15.5752 99.8737 15.3865Z" fill="white"/>
<path d="M37.9719 15.3818C38.0294 15.3708 38.1445 15.3505 38.202 15.3403C38.6844 15.4977 39.1684 15.6687 39.6084 15.9251C39.7853 16.0596 39.9503 16.2102 40.1043 16.3702C40.3091 16.7806 40.2956 17.2815 40.1119 17.6979C39.8961 17.9357 39.6558 18.1548 39.374 18.3122C38.6894 18.3241 37.9617 18.4349 37.3237 18.1176C37.2331 18.0347 37.1451 17.9484 37.0537 17.8663C37.6156 18.0118 38.1631 18.2995 38.7605 18.2251C39.2894 18.1735 39.908 17.934 40.0561 17.3662C40.2947 16.8314 39.8919 16.2458 39.4223 15.9995C38.9704 15.7186 38.417 15.6704 37.9719 15.3818Z" fill="white"/>
<path d="M90.312 15.8997C90.2925 15.7118 90.3585 15.5367 90.4542 15.3784C90.4237 17.0099 90.4618 18.6423 90.4364 20.2729C90.4085 20.2865 90.3535 20.3127 90.3255 20.3262C90.3103 18.8504 90.334 17.3746 90.312 15.8997Z" fill="white"/>
<path d="M100.521 17.0848C100.795 16.8047 101.199 16.7328 101.562 16.6338C102.082 16.6067 102.605 16.6101 103.127 16.6262C103.163 16.627 103.235 16.6304 103.271 16.6313C103.331 17.1195 103.2 17.6036 102.997 18.0436C102.68 18.5902 102.045 18.8145 101.452 18.8923C100.941 18.8255 100.384 18.6935 100.095 18.2205C100.058 18.0114 100.046 17.7863 100.101 17.5799C100.215 17.3954 100.364 17.2346 100.521 17.0848ZM101.024 16.9418C100.661 17.0484 100.293 17.3539 100.31 17.7652C100.305 17.9844 100.288 18.2628 100.501 18.399C101.073 18.8213 101.905 18.7502 102.471 18.3542C102.943 18.0004 103.127 17.3675 103.01 16.8014C102.346 16.7726 101.673 16.792 101.024 16.9418Z" fill="white"/>
<path d="M84.0627 17.4591C84.2963 17.2941 84.4511 16.9277 84.7922 17.0292C84.9775 17.1358 85.1027 17.3212 85.2593 17.465C85.6663 17.894 86.1613 18.2359 86.5362 18.6946C86.609 18.9459 86.3331 19.0838 86.185 19.2378C85.8034 19.5137 85.4598 19.8615 85.0105 20.0257C84.5772 20.1738 84.1643 20.3887 83.7073 20.4547C83.6328 20.3303 83.5592 20.2051 83.4864 20.0798C83.7928 19.9292 84.1118 20.0705 84.4088 20.1695C84.3623 20.0731 84.3166 19.9774 84.2726 19.8818C84.8378 19.6796 85.3684 19.3588 85.7991 18.9391C86.0005 18.7487 85.7484 18.5228 85.6231 18.3739C85.3236 18.0836 85.057 17.7417 84.6898 17.5353C84.3741 17.5547 84.243 17.9211 83.9908 18.0709C83.4957 18.373 82.9203 18.5575 82.3381 18.5643C81.9235 18.5778 81.497 18.5854 81.1043 18.4314C81.7365 18.1022 82.471 18.3248 83.1488 18.2833C82.603 18.1479 82.0403 18.2571 81.4868 18.2165C81.3134 18.2139 81.1627 18.12 81.0146 18.0404C81.0942 18.0421 81.2524 18.0447 81.332 18.0455C81.7788 18.0701 82.2281 18.0828 82.6758 18.0565C83.1632 17.933 83.6523 17.757 84.0627 17.4591Z" fill="white"/>
<path d="M97.5147 18.1844C97.4994 17.8061 97.5062 17.3957 97.7389 17.0767C97.6577 17.6589 97.6137 18.2631 97.7778 18.8359C97.5544 18.7014 97.5358 18.4171 97.5147 18.1844Z" fill="white"/>
<path d="M35.1258 18.0302C35.4051 17.7611 35.6412 17.4379 35.9779 17.2373C36.1506 17.2754 36.2445 17.4396 36.3655 17.5521C36.2454 17.481 36.1218 17.4159 35.9991 17.349C36.0016 17.4531 36.0042 17.5572 36.0067 17.6621C35.6352 18.0167 35.202 18.3162 34.9041 18.741C34.7382 18.972 34.8923 19.2564 34.9371 19.5026C35.0547 19.4764 35.1715 19.4493 35.2891 19.4222C35.3061 19.4518 35.3391 19.5119 35.356 19.5424C35.3196 19.5932 35.2832 19.6448 35.2477 19.6956C35.4169 19.6854 35.5862 19.6753 35.7562 19.6651C35.6488 19.748 35.5421 19.8318 35.4347 19.9147C35.0911 19.7345 34.7518 19.5322 34.4776 19.2538C34.3862 19.1523 34.2474 19.0355 34.3278 18.8857C34.5419 18.5557 34.8593 18.3145 35.1258 18.0302Z" fill="white"/>
<path d="M80.8486 20.3813C80.9891 20.29 81.1389 20.1977 81.3141 20.2053C82.0926 20.2003 82.9142 20.097 83.6327 20.4702C83.4939 20.5066 83.3568 20.5506 83.2155 20.5726C82.4421 20.3348 81.6212 20.6234 80.8486 20.3813Z" fill="white"/>
<path d="M68.3218 17.9985C68.6772 18.2685 69.1172 18.414 69.5581 18.4563C69.9025 18.4174 70.2452 18.3311 70.5625 18.1889C70.6514 18.2532 70.7419 18.3176 70.8333 18.3827C70.6548 18.5486 70.4745 18.7356 70.2334 18.8041C70.0024 18.7551 69.7959 18.6171 69.5589 18.6002C69.2958 18.623 69.0664 18.7923 68.8033 18.8024C68.4749 18.7407 68.2769 18.4453 68.0967 18.1932C68.1711 18.128 68.2465 18.0628 68.3218 17.9985Z" fill="white"/>
<path d="M76.8926 18.2038C76.984 18.1539 77.0762 18.1031 77.1693 18.0532C77.4765 18.357 77.7642 18.6845 78.117 18.9367C78.3311 19.0924 78.5351 19.2616 78.7272 19.4444C78.6849 19.5417 78.6425 19.639 78.6002 19.7363C77.8987 19.3953 77.3698 18.8038 76.8926 18.2038Z" fill="white"/>
<path d="M59.7701 19.5071C59.9655 19.4479 60.1669 19.5274 60.3599 19.563C60.293 19.5757 60.1576 19.6019 60.0899 19.6154C60.0654 19.6527 60.0155 19.7271 59.9909 19.7644C59.7836 20.0961 59.396 20.2408 59.0635 20.4126C58.7546 20.4557 58.4821 20.3161 58.29 20.0825C58.5033 20.0504 58.7208 20.0318 58.9298 19.9725C59.237 19.871 59.4671 19.6188 59.7701 19.5071Z" fill="white"/>
<path d="M78.5996 19.7368C78.7714 19.6801 78.9499 19.5642 79.1378 19.6251C79.4357 19.7081 79.7302 19.8062 80.0204 19.9162C80.3352 20.0398 80.5476 20.3173 80.7583 20.5687C80.0712 20.457 79.4281 20.1997 78.7799 19.9602C78.7579 19.9492 78.7138 19.9281 78.691 19.9171C78.6681 19.8722 78.6225 19.7825 78.5996 19.7368Z" fill="white"/>
<path d="M36.1084 20.196C36.4562 20.0327 36.8404 19.9235 37.2229 20.0302C37.1374 20.1672 37.0511 20.3043 36.9648 20.4406C36.6652 20.4169 36.3792 20.3213 36.1084 20.196Z" fill="white"/>
<path d="M78.7803 19.96C79.4285 20.1994 80.0716 20.4567 80.7587 20.5684C81.1674 20.6395 81.5855 20.6141 81.9993 20.6183C82.4046 20.6132 82.8133 20.6369 83.2161 20.5726C83.3574 20.5506 83.4945 20.5066 83.6333 20.4702L83.7078 20.455C84.1647 20.389 84.5777 20.1741 85.011 20.026C85.0423 20.0429 85.1057 20.0759 85.137 20.0928C84.4592 20.4677 83.7069 20.7444 82.9267 20.7664C82.1931 20.7943 81.4552 20.8129 80.724 20.7334C80.2214 20.6826 79.7492 20.4956 79.2804 20.3188C79.0891 20.2392 78.8522 20.1808 78.7803 19.96Z" fill="white"/>
<path d="M71.5037 20.406L71.5372 20.4019C71.5255 20.4052 71.502 20.4111 71.4902 20.4144L71.5037 20.406Z" fill="white"/>
<path d="M69.29 20.4446C69.4102 20.4243 69.494 20.4708 69.5413 20.5842C69.417 20.5994 69.3332 20.552 69.29 20.4446Z" fill="white"/>
<path d="M71.0049 20.5702C71.0565 20.4552 71.1436 20.4162 71.2663 20.4526C71.2063 20.5516 71.1191 20.5905 71.0049 20.5702Z" fill="white"/>
<path d="M109.662 20.5088C109.844 20.546 110.024 20.5926 110.205 20.6391C110.002 20.6535 109.799 20.6552 109.597 20.6467C109.613 20.612 109.646 20.5426 109.662 20.5088Z" fill="white"/>
<path d="M111.505 20.6384C111.79 20.5597 112.079 20.4928 112.372 20.459C112.138 20.6739 111.802 20.6798 111.505 20.6384Z" fill="white"/>
<path d="M69.54 20.584C70.0038 20.5797 70.4683 20.5831 70.9321 20.5806C70.4751 20.7083 69.9995 20.6906 69.54 20.584Z" fill="white"/>
<path d="M37.3809 20.7158C38.1281 20.77 38.8778 20.7708 39.6259 20.7201C39.3035 20.9621 38.8804 20.8884 38.5038 20.9045C38.1272 20.8791 37.7041 20.957 37.3809 20.7158Z" fill="white"/>
<path d="M135.06 23.5L132.144 19.1156L129.574 23.5H125.618L130.207 16.2199L125.516 9.18456H129.574L132.45 13.5077L134.978 9.18456H138.935L134.387 16.4035L139.118 23.5H135.06ZM140.4 20.7062C140.862 20.3392 141.073 20.1692 141.032 20.1964C142.364 19.0952 143.411 18.1912 144.172 17.4843C144.947 16.7773 145.6 16.0364 146.13 15.2615C146.66 14.4866 146.925 13.7321 146.925 12.9979C146.925 12.4405 146.796 12.0055 146.538 11.6928C146.279 11.3801 145.892 11.2238 145.375 11.2238C144.859 11.2238 144.451 11.4209 144.152 11.8152C143.866 12.1958 143.724 12.7396 143.724 13.4466H140.359C140.386 12.291 140.631 11.3258 141.093 10.5508C141.569 9.77593 142.187 9.20495 142.949 8.83788C143.724 8.47082 144.58 8.28729 145.518 8.28729C147.136 8.28729 148.353 8.70194 149.168 9.53123C149.998 10.3605 150.412 11.4413 150.412 12.7736C150.412 14.2283 149.916 15.581 148.924 16.8317C147.931 18.0688 146.667 19.2788 145.131 20.4615H150.637V23.2961H140.4V20.7062Z" fill="white"/>
</svg>
