<svg width="201" height="135" viewBox="0 0 201 135" fill="none" xmlns="http://www.w3.org/2000/svg">
<path d="M32.01 45.7261L37.1104 45.6675C37.066 47.3979 37.0142 49.1279 36.9736 50.8583C35.2725 50.8877 33.5705 50.9056 31.8695 50.9177C31.9204 49.1872 31.9644 47.4565 32.01 45.7261Z" fill="white"/>
<path d="M17.9418 50.9446C19.5924 50.4069 21.3677 50.3416 23.0351 50.6731C24.4797 50.9681 25.8624 51.6161 26.8983 52.6516C27.7509 53.4928 28.343 54.6245 28.4173 55.8484C26.9801 56.1867 25.5425 56.5229 24.1053 56.8604C24.0536 56.3987 23.896 55.9522 23.634 55.5744C23.275 55.0346 22.6789 54.6982 22.0617 54.517C21.3092 54.3085 20.4956 54.3112 19.7228 54.4882C19.1491 54.6271 18.5658 54.909 18.2198 55.4124C17.8929 55.8797 17.8386 56.5314 18.1274 57.0074C18.3313 57.3446 18.6722 57.5735 19.0325 57.7234C19.4676 57.908 19.945 57.9664 20.4096 58.0546C21.2952 58.2196 22.1831 58.3767 23.0678 58.547C24.4108 58.8237 25.7146 59.3704 26.7283 60.2835C27.4462 60.9193 27.9841 61.7579 28.2369 62.692C28.5178 63.7227 28.4786 64.844 28.1608 65.8844C27.7972 67.0732 27.022 68.1416 26.0074 68.8797C24.5752 69.9432 22.8024 70.4395 21.0663 70.541C19.1835 70.6529 17.2601 70.3202 15.6412 69.4005C14.8342 68.9412 14.1262 68.3205 13.5597 67.5898C12.9538 66.8048 12.5697 65.8449 12.4957 64.8399L12.4967 64.8061C13.9732 64.4669 15.4501 64.1306 16.9266 63.7931C16.9438 64.4769 17.2179 65.1422 17.7063 65.6092C18.3867 66.2999 19.3803 66.6037 20.351 66.6325C21.0298 66.647 21.7318 66.5808 22.368 66.2987C22.8008 66.1078 23.1992 65.779 23.3795 65.3323C23.5476 64.9121 23.5569 64.4253 23.3742 64.022C23.1978 63.642 22.8385 63.391 22.4655 63.2223C21.8814 62.9615 21.2398 62.8576 20.6176 62.7094C19.7783 62.5155 18.9343 62.3389 18.0986 62.1318C16.7471 61.774 15.4174 61.1864 14.449 60.1747C13.7025 59.4049 13.2833 58.3499 13.2259 57.2676C13.1365 55.9603 13.5022 54.602 14.2858 53.5105C15.1638 52.2659 16.5196 51.4163 17.9418 50.9446Z" fill="white"/>
<path d="M50.6043 50.5314C52.0723 50.0934 53.6226 49.9973 55.1153 50.1945C56.3608 50.3607 57.5711 50.7576 58.6337 51.4014C59.3739 51.854 60.0605 52.4049 60.6028 53.0827C61.3815 54.0397 61.9546 55.1704 62.2364 56.3844C60.6906 56.916 59.1451 57.4484 57.5982 57.9755C57.4246 57.3845 57.1799 56.8088 56.8093 56.3182C56.4137 55.7862 55.8674 55.3684 55.2452 55.1259C54.5941 54.87 53.8755 54.7992 53.1699 54.8431C51.8212 54.9204 50.4636 55.5735 49.636 56.6824C49.0733 57.4149 48.7378 58.2977 48.5951 59.1923C48.483 59.8994 48.4679 60.6191 48.5578 61.3219C48.6657 62.1563 48.9441 62.9707 49.4245 63.6537C50.1447 64.697 51.366 65.3329 52.6359 65.4642C53.6696 65.5664 54.768 65.3886 55.6809 64.8284C56.6373 64.2525 57.358 63.3051 57.6767 62.2482C59.1705 62.7305 60.6651 63.2111 62.1571 63.6983C61.6937 65.2316 60.8008 66.6478 59.6003 67.7347C58.3008 68.9372 56.6375 69.7161 54.9184 70.0169C52.6152 70.4261 50.1906 70.1078 48.1765 69.0085C47.0599 68.4061 46.0845 67.5618 45.322 66.5552C44.2577 65.1734 43.6066 63.4819 43.4212 61.7274C43.2412 60.0053 43.4533 58.2203 44.0881 56.5738C44.6473 55.1243 45.5389 53.7872 46.694 52.7269C47.8128 51.7098 49.1656 50.9559 50.6043 50.5314Z" fill="white"/>
<path d="M36.9707 50.8628C38.6706 50.8449 40.3711 50.8238 42.0711 50.8051C42.0266 52.4477 41.9845 54.0903 41.938 55.7325C40.2389 55.7507 38.5393 55.7711 36.8397 55.791C36.8821 54.1484 36.9287 52.5054 36.9707 50.8628Z" fill="white"/>
<path d="M31.5092 64.4387C31.586 61.5755 31.6641 58.7124 31.7393 55.8493C33.4393 55.8294 35.1393 55.8103 36.8393 55.7908C36.775 58.2013 36.7099 60.6114 36.6452 63.0219C36.6326 63.4131 36.627 63.8075 36.6965 64.1912C36.7663 64.5823 36.9082 64.9791 37.205 65.2497C37.6383 65.6379 38.2379 65.7835 38.8184 65.8036C39.8129 65.8416 40.8526 65.5977 41.6894 65.0099C41.653 66.3974 41.6187 67.7844 41.5765 69.1719C41.0619 69.5882 40.4437 69.8488 39.8191 70.0348C38.8316 70.3222 37.799 70.4095 36.7873 70.349C35.8352 70.2886 34.8881 70.0716 34.0555 69.6242C33.5035 69.3243 32.9984 68.93 32.6142 68.4329C32.1695 67.8661 31.8658 67.1938 31.694 66.4895C31.5299 65.8238 31.484 65.1296 31.5092 64.4387Z" fill="white"/>
<path d="M150.126 84.7414C151.978 84.0405 153.969 83.7103 155.949 83.7301C156.984 83.7218 158.04 83.9094 158.951 84.4175C159.028 84.4453 159.11 84.5368 159.197 84.4856C160.351 84.0292 161.584 83.7862 162.821 83.7219C163.913 83.6671 165.038 83.7772 166.043 84.2317C166.849 84.59 167.552 85.2125 167.923 86.0215C168.296 86.8218 168.358 87.7236 168.359 88.5947C168.366 91.4308 168.375 94.2668 168.379 97.1023C167.249 97.1056 166.121 97.1032 164.991 97.1134C164.974 94.3925 164.976 91.671 164.967 88.9501C164.978 88.3808 164.887 87.7682 164.517 87.3144C164.176 86.8994 163.635 86.7163 163.116 86.6683C162.348 86.5832 161.578 86.7408 160.853 86.9889C160.976 87.5218 161.004 88.0715 161 88.6173C161.007 91.4516 161.014 94.2854 161.021 97.1197C159.879 97.1191 158.737 97.1322 157.595 97.1229C157.597 94.6717 157.584 92.2205 157.581 89.7693C157.575 89.2173 157.598 88.6623 157.522 88.1144C157.467 87.7611 157.359 87.3966 157.106 87.132C156.822 86.8447 156.411 86.7351 156.021 86.6937C155.181 86.611 154.323 86.6933 153.524 86.9707C153.526 90.36 153.542 93.7492 153.546 97.1385C152.418 97.1436 151.29 97.1366 150.162 97.152C150.134 93.0159 150.136 88.8781 150.126 84.7414Z" fill="white"/>
<path d="M172.532 85.0064C173.967 83.9365 175.839 83.5499 177.599 83.7701C178.782 83.8829 179.977 84.2488 180.905 85.0152C180.428 85.8376 179.946 86.6577 179.477 87.4842C178.901 87.0601 178.229 86.7473 177.512 86.6746C176.616 86.5771 175.66 86.6837 174.883 87.1701C174.24 87.5708 173.793 88.2328 173.575 88.951C173.322 89.7929 173.295 90.695 173.434 91.5606C173.578 92.4302 174.003 93.2945 174.748 93.7995C175.562 94.3645 176.604 94.4685 177.564 94.3488C178.219 94.2653 178.811 93.9511 179.366 93.6096C179.918 94.3402 180.492 95.0541 181.055 95.7766C180.092 96.6741 178.797 97.1349 177.509 97.2932C176.11 97.4427 174.651 97.2893 173.368 96.6871C172.217 96.1516 171.257 95.2221 170.69 94.0861C169.956 92.6298 169.819 90.9354 170.048 89.3387C170.296 87.6555 171.146 86.0252 172.532 85.0064Z" fill="white"/>
<path d="M112.868 85.6796C114.008 84.5967 115.566 84.0408 117.116 83.9271C118.205 83.8454 119.321 83.9096 120.365 84.2519C121.334 84.5616 122.218 85.1642 122.81 85.999C123.608 87.1098 123.894 88.5031 123.934 89.8488C123.937 92.3035 123.951 94.7586 123.948 97.2139C122.16 97.2102 120.372 97.222 118.585 97.2235C117.481 97.1976 116.365 97.1671 115.288 96.8994C114.469 96.6981 113.696 96.3294 113.004 95.8506C112.554 95.5236 112.166 95.111 111.863 94.6444C111.144 93.5369 110.883 92.2002 110.835 90.898L110.834 90.4169C110.886 88.6603 111.56 86.8838 112.868 85.6796ZM115.021 87.9383C114.352 88.783 114.166 89.9099 114.243 90.9607C114.294 91.8597 114.547 92.8144 115.234 93.4409C115.976 94.1264 117.025 94.3168 118 94.3597C118.818 94.3594 119.636 94.3608 120.454 94.3514C120.445 93.1212 120.446 91.8916 120.443 90.6615C120.429 90.0281 120.398 89.3884 120.226 88.7755C120.068 88.1923 119.761 87.6266 119.261 87.2699C118.696 86.8669 117.973 86.7673 117.295 86.8022C116.424 86.8416 115.558 87.2406 115.021 87.9383Z" fill="white"/>
<path d="M137.853 85.0007C139.095 84.1701 140.61 83.836 142.089 83.8358C143.311 83.8334 144.57 84.0399 145.636 84.6679C146.478 85.1566 147.144 85.9236 147.544 86.808C148.052 87.8995 148.187 89.1202 148.19 90.312C148.196 92.5902 148.198 94.8685 148.208 97.1467C146.447 97.1619 144.685 97.1564 142.922 97.1647C141.354 97.1371 139.72 97.097 138.277 96.4075C137.622 96.0895 136.978 95.7085 136.499 95.1502C135.757 94.313 135.346 93.231 135.167 92.1381C134.957 90.8122 134.991 89.4239 135.444 88.1497C135.88 86.8772 136.726 85.7423 137.853 85.0007ZM139.134 88.171C138.535 89.1323 138.466 90.3214 138.616 91.4172C138.726 92.2148 139.063 93.0226 139.717 93.5233C140.46 94.101 141.427 94.2625 142.344 94.3009C143.165 94.3012 143.985 94.2974 144.806 94.2954C144.803 93.1214 144.8 91.9473 144.797 90.7739C144.801 90.066 144.759 89.3479 144.55 88.668C144.368 88.0694 144.019 87.4964 143.481 87.1575C142.818 86.7388 141.989 86.671 141.229 86.7862C140.372 86.9132 139.583 87.4288 139.134 88.171Z" fill="white"/>
<path d="M129.923 84.2463C131.48 83.8301 133.118 83.8398 134.71 84.0106C134.898 84.0365 135.09 84.0412 135.275 84.0894C135.279 84.1914 135.233 84.2877 135.213 84.3862C134.973 85.2894 134.737 86.1937 134.498 87.0975C133.544 86.8644 132.526 86.7089 131.561 86.9672C130.706 87.1932 129.984 87.8313 129.636 88.6402C129.396 89.178 129.286 89.7682 129.275 90.3552C129.284 92.6346 129.284 94.9146 129.295 97.1945C128.139 97.2042 126.983 97.2013 125.828 97.2058C125.821 94.848 125.816 92.4896 125.81 90.1318C125.854 88.7337 126.133 87.2737 126.988 86.1308C127.694 85.1675 128.783 84.5503 129.923 84.2463Z" fill="white"/>
<path d="M187.31 83.8433C188.595 83.6953 189.924 83.9223 191.079 84.5065C192.866 85.3898 194.207 87.1093 194.638 89.0554C194.968 90.5213 194.805 92.0973 194.159 93.4567C193.387 95.1115 191.914 96.4237 190.176 96.9881C188.807 97.4404 187.293 97.4332 185.928 96.9698C184.119 96.37 182.602 94.962 181.86 93.2073C181.322 91.9555 181.183 90.5378 181.457 89.2033C181.862 87.1635 183.277 85.3646 185.15 84.4689C185.828 84.1408 186.562 83.9282 187.31 83.8433ZM187.631 86.953C186.39 87.0923 185.254 87.9118 184.74 89.0498C184.272 90.0498 184.304 91.2644 184.819 92.2396C185.317 93.2201 186.279 93.9508 187.36 94.1618C188.44 94.3911 189.613 94.0749 190.439 93.3444C191.243 92.6529 191.724 91.6042 191.717 90.543C191.714 89.499 191.234 88.4681 190.435 87.7954C189.672 87.1393 188.63 86.8262 187.631 86.953Z" fill="white"/>
<path d="M98.6411 24.5242C98.5808 24.5242 98.5233 24.522 98.4795 24.5199C98.4448 24.5229 98.4089 24.5242 98.373 24.5242C97.1058 24.5242 96.2586 23.9252 95.5109 23.3962C94.975 23.0177 94.4696 22.6603 93.8775 22.5618C93.5867 22.5136 93.2974 22.4891 93.0179 22.4891C92.5143 22.4891 92.1163 22.5672 91.8257 22.624C91.6469 22.6589 91.4927 22.6889 91.3736 22.6889C91.2488 22.6889 91.0971 22.6612 91.0339 22.4454C90.9838 22.2752 90.9479 22.1103 90.9132 21.9515C90.8265 21.5546 90.7636 21.3124 90.615 21.2894C89.0257 21.0442 88.0866 20.6829 87.8996 20.2455C87.88 20.1995 87.869 20.1532 87.8666 20.1075C87.8593 19.9771 87.9514 19.8627 88.0799 19.8414C89.3421 19.6336 90.4643 18.9665 91.4157 17.858C92.1526 16.9999 92.5145 16.1799 92.5534 16.0894C92.5551 16.0853 92.557 16.0811 92.5591 16.0772C92.7425 15.7051 92.7789 15.3836 92.6679 15.1218C92.4631 14.6389 91.7848 14.4237 91.3361 14.2813C91.2245 14.246 91.119 14.2126 91.0349 14.1792C90.6371 14.0221 89.983 13.6901 90.0701 13.2319C90.1336 12.8978 90.5755 12.6651 90.9327 12.6651C91.0318 12.6651 91.1197 12.6825 91.1937 12.7173C91.5973 12.9063 91.9604 13.0022 92.2726 13.0022C92.661 13.0022 92.8485 12.8543 92.8939 12.8123C92.8827 12.6052 92.869 12.3861 92.8558 12.179C92.8558 12.1788 92.8555 12.1763 92.8555 12.1763C92.7644 10.7262 92.6507 8.9217 93.1123 7.88688C94.4938 4.78932 97.4236 4.54844 98.2884 4.54844C98.3114 4.54844 98.6653 4.54494 98.6653 4.54494C98.6813 4.54466 98.6986 4.54443 98.7166 4.54443C99.5837 4.54443 102.52 4.78559 103.902 7.88502C104.364 8.92051 104.25 10.7266 104.158 12.1781L104.154 12.2476C104.142 12.4447 104.13 12.6312 104.12 12.8121C104.163 12.8514 104.335 12.9869 104.684 13.0007C104.981 12.9893 105.324 12.8939 105.7 12.7175C105.817 12.6628 105.946 12.6515 106.033 12.6515C106.165 12.6515 106.3 12.6772 106.412 12.724L106.418 12.7264C106.738 12.8398 106.947 13.0666 106.952 13.3048C106.956 13.5269 106.791 13.8588 105.979 14.1793C105.896 14.2122 105.79 14.2459 105.678 14.2814C105.229 14.424 104.551 14.639 104.346 15.1217C104.235 15.3835 104.272 15.7049 104.455 16.0768C104.457 16.0809 104.459 16.085 104.461 16.0893C104.517 16.2217 105.884 19.3387 108.934 19.8411C109.063 19.8626 109.155 19.977 109.148 20.1072C109.145 20.154 109.134 20.2007 109.114 20.2464C108.928 20.6815 107.989 21.0422 106.399 21.2877C106.25 21.3108 106.187 21.5519 106.101 21.9467C106.066 22.1098 106.03 22.2696 105.98 22.4375C105.934 22.5955 105.831 22.6727 105.666 22.6727H105.641C105.533 22.6727 105.381 22.6532 105.189 22.6156C104.853 22.5502 104.476 22.4893 103.996 22.4893C103.717 22.4893 103.428 22.5138 103.137 22.562C102.545 22.6605 102.04 23.0173 101.505 23.3954C100.756 23.9251 99.9082 24.5242 98.6411 24.5242Z" fill="white"/>
<path d="M98.7162 4.80047C99.5325 4.80047 102.344 5.01977 103.668 7.98981C104.105 8.96782 103.993 10.7394 103.903 12.1626C103.889 12.3884 103.875 12.6073 103.864 12.8164L103.859 12.9062L103.919 12.9731C103.943 13 104.17 13.237 104.675 13.2565L104.683 13.2569L104.691 13.2568C105.025 13.244 105.4 13.1405 105.808 12.9494C105.868 12.9213 105.948 12.9076 106.033 12.9076C106.129 12.9076 106.232 12.9257 106.316 12.9613L106.329 12.9664C106.543 13.0413 106.694 13.1826 106.696 13.3105C106.697 13.3828 106.643 13.6432 105.885 13.9427C105.811 13.9719 105.714 14.003 105.601 14.0387C105.107 14.1953 104.362 14.4318 104.111 15.0229C103.97 15.3559 104.008 15.7488 104.226 16.1907C104.315 16.3995 105.724 19.5717 108.892 20.0939C108.892 20.1089 108.888 20.1253 108.88 20.1447C108.826 20.2712 108.484 20.7083 106.36 21.0361C106.028 21.087 105.946 21.4596 105.852 21.8928C105.818 22.0479 105.783 22.2044 105.735 22.3661C105.721 22.415 105.718 22.4178 105.666 22.4178C105.658 22.4178 105.65 22.4178 105.641 22.4178C105.546 22.4178 105.403 22.3982 105.238 22.3657C104.936 22.3069 104.523 22.2348 103.996 22.2348C103.702 22.2348 103.399 22.2604 103.095 22.3111C102.445 22.4192 101.916 22.7932 101.356 23.1889C100.604 23.7203 99.827 24.2701 98.6412 24.2701C98.5894 24.2701 98.5389 24.2683 98.4882 24.2658L98.4749 24.2652L98.4615 24.2662C98.4324 24.2688 98.4031 24.2701 98.3732 24.2701C97.1876 24.2701 96.4101 23.7204 95.6585 23.1889C95.0985 22.7932 94.5695 22.4192 93.9195 22.3111C93.6157 22.2605 93.3123 22.2348 93.0182 22.2348C92.4911 22.2348 92.0782 22.3154 91.777 22.3743C91.6112 22.4067 91.4677 22.4345 91.3738 22.4345C91.2968 22.4345 91.2954 22.43 91.2791 22.3744C91.2314 22.2126 91.1966 22.0524 91.1627 21.8975C91.068 21.4639 90.9865 21.0892 90.6543 21.0382C88.53 20.7101 88.1886 20.2723 88.1347 20.1462C88.1263 20.1263 88.1225 20.1093 88.1216 20.0943C91.2905 19.5726 92.6985 16.4003 92.7883 16.1907C93.0061 15.7492 93.0447 15.3563 92.903 15.0229C92.6522 14.4321 91.9069 14.1953 91.4139 14.039C91.3005 14.0031 91.2029 13.9719 91.1288 13.9427C90.4886 13.6897 90.2916 13.4349 90.3209 13.2805C90.3548 13.1024 90.6635 12.9213 90.9329 12.9213C90.9935 12.9213 91.0465 12.9311 91.0858 12.9495C91.5233 13.1545 91.9227 13.2585 92.273 13.2585C92.8237 13.2585 93.0689 13.0023 93.0952 12.973L93.1549 12.9063L93.1501 12.8169C93.1389 12.608 93.1252 12.3891 93.1108 12.1637C93.0214 10.7402 92.9095 8.96979 93.3456 7.99173C94.6654 5.03259 97.4629 4.80448 98.2887 4.80448C98.309 4.80448 98.668 4.80081 98.668 4.80081C98.6827 4.8007 98.6991 4.80047 98.7162 4.80047ZM98.7162 4.29004H98.7152C98.6964 4.29004 98.6787 4.29004 98.6619 4.29026C98.5277 4.29162 98.3071 4.29377 98.2873 4.29399C97.8035 4.29399 96.8356 4.36233 95.7958 4.82126C95.2014 5.08348 94.6666 5.43804 94.2066 5.87511C93.6581 6.39588 93.2112 7.03796 92.8787 7.78379C92.3917 8.87582 92.5073 10.7152 92.6002 12.1934L92.6005 12.1957C92.6104 12.354 92.6209 12.5193 92.6304 12.6804C92.559 12.7132 92.4432 12.7478 92.2724 12.7478C91.9977 12.7478 91.6711 12.66 91.3018 12.4869C91.1931 12.4363 91.0691 12.4107 90.9322 12.4107C90.7124 12.4107 90.4806 12.4755 90.2795 12.5937C90.0266 12.7422 89.8631 12.9521 89.8187 13.1849C89.7895 13.3388 89.7909 13.6431 90.1289 13.9517C90.3148 14.1216 90.588 14.2782 90.9405 14.4176C91.033 14.454 91.1428 14.4888 91.2591 14.5257C91.6626 14.6539 92.2733 14.8477 92.4326 15.2225C92.5133 15.4126 92.4786 15.6627 92.3296 15.9649C92.3257 15.9732 92.3218 15.9812 92.3183 15.9897C92.2811 16.0766 91.9338 16.8631 91.2216 17.6926C90.8169 18.1643 90.3711 18.5585 89.8974 18.8646C89.3192 19.2383 88.6936 19.4826 88.038 19.5906C87.7806 19.6328 87.5968 19.8622 87.6111 20.1228C87.6155 20.1979 87.6332 20.2728 87.6637 20.3453C87.6639 20.3457 87.6642 20.3462 87.6645 20.3466C87.7685 20.5901 88.0099 20.7969 88.4022 20.9793C88.8816 21.202 89.5987 21.3893 90.5332 21.5359C90.5804 21.6257 90.6294 21.8513 90.6634 22.0059C90.6989 22.1701 90.7359 22.339 90.7887 22.5183C90.8457 22.7127 90.9935 22.9449 91.3732 22.9449C91.5171 22.9449 91.6826 22.9125 91.8742 22.8753C92.1548 22.8203 92.5386 22.7451 93.0176 22.7451C93.2831 22.7451 93.5583 22.7685 93.8354 22.8146C94.3693 22.9034 94.8297 23.2286 95.3623 23.6052C96.1419 24.1563 97.0244 24.7801 98.3726 24.7801C98.4094 24.7801 98.4463 24.7789 98.4827 24.7764C98.5273 24.7785 98.5825 24.7801 98.6408 24.7801C99.9894 24.7801 100.872 24.1561 101.65 23.6055L101.652 23.6043C102.184 23.2282 102.644 22.9034 103.178 22.8146C103.455 22.7686 103.73 22.7451 103.996 22.7451C104.453 22.7451 104.816 22.8035 105.139 22.8666C105.35 22.9081 105.514 22.9281 105.64 22.9281L105.652 22.9284H105.665C105.943 22.9284 106.147 22.7759 106.225 22.5092C106.277 22.3336 106.314 22.1687 106.35 22.0017C106.382 21.8569 106.432 21.6248 106.48 21.534C107.415 21.3872 108.132 21.2002 108.611 20.9776C109.002 20.796 109.243 20.5894 109.348 20.347C109.38 20.2743 109.398 20.199 109.402 20.1223C109.417 19.8621 109.233 19.6323 108.975 19.59C106.062 19.1099 104.749 16.1164 104.695 15.9892C104.692 15.9808 104.688 15.9725 104.683 15.9645C104.535 15.6621 104.5 15.4123 104.581 15.2219C104.74 14.8474 105.35 14.6536 105.754 14.5254C105.871 14.4886 105.981 14.4536 106.073 14.4173C106.47 14.2603 106.755 14.09 106.942 13.8966C107.166 13.666 107.209 13.445 107.207 13.3005C107.2 12.9507 106.932 12.6398 106.507 12.4876C106.363 12.4282 106.2 12.3968 106.033 12.3968C105.919 12.3968 105.751 12.4124 105.592 12.4868C105.251 12.6462 104.946 12.7334 104.684 12.7459C104.544 12.7388 104.446 12.7086 104.383 12.6797C104.391 12.5433 104.4 12.4031 104.409 12.257L104.413 12.1944C104.506 10.7153 104.622 8.87446 104.135 7.78164C103.801 7.03316 103.352 6.38944 102.802 5.86754C102.34 5.43019 101.803 5.07568 101.207 4.81363C100.169 4.35809 99.2006 4.29004 98.7162 4.29004Z" fill="white"/>
<path d="M171.133 5.84459C172.065 5.84459 172.997 5.82682 173.929 5.8539C173.959 6.09169 173.988 6.32947 173.992 6.5698C173.995 8.09214 173.975 9.61532 174 11.1377C174.326 10.85 174.637 10.5301 175.037 10.3431C175.882 9.92419 176.903 9.97666 177.761 10.3329C178.315 10.6189 178.783 11.0835 179.054 11.6479C179.373 12.3012 179.519 13.0323 179.518 13.7575C179.518 15.4923 179.512 17.227 179.522 18.9609L179.434 18.9584C179.391 18.9567 179.305 18.9525 179.262 18.9499C179.302 17.0527 179.275 15.1538 179.275 13.2557C179.309 12.2944 178.9 11.3069 178.121 10.7247C177.574 10.294 176.848 10.2288 176.179 10.2483C175.467 10.2466 174.735 10.5369 174.284 11.1004C174.166 11.2553 174.007 11.3636 173.819 11.4127C173.739 10.817 173.79 10.2144 173.777 9.61532C173.766 8.44162 173.799 7.26792 173.761 6.09507C173.47 6.03414 173.173 6.0206 172.878 6.02991C172.33 6.04684 171.776 5.98506 171.235 6.10353C171.195 6.09084 171.113 6.06545 171.071 6.05361C171.087 6.00114 171.118 5.89706 171.133 5.84459Z" fill="white"/>
<path d="M171.07 6.05371C171.112 6.06556 171.194 6.09094 171.234 6.10364C171.252 9.61543 171.238 13.1272 171.242 16.639C171.25 17.3786 171.207 18.1207 171.286 18.8578L171.256 18.9272L171.176 18.9365L171.12 18.9424C171.135 14.9872 171.12 11.032 171.128 7.07678C171.138 6.73407 171.079 6.39474 171.07 6.05371Z" fill="white"/>
<path d="M159.085 11.4253L159.101 11.5006C159.125 11.6242 159.154 11.7469 159.182 11.8704C159.156 12.0896 159.118 12.3079 159.092 12.5271C159.027 12.9798 159.14 13.4308 159.149 13.8835C159.166 14.8415 159.571 15.7401 160.084 16.5322C160.134 16.6007 160.186 16.6693 160.239 16.7361C160.716 17.3361 161.245 17.9276 161.947 18.2686C161.97 18.3143 162.015 18.404 162.038 18.4489C161.441 18.2162 160.979 17.7516 160.531 17.309C159.939 16.7319 159.551 15.9796 159.277 15.2104C159.129 14.5944 159.008 13.9716 158.93 13.3428C158.844 12.7005 158.955 12.054 159.085 11.4253Z" fill="white"/>
<path d="M171.236 6.10314C171.777 5.98467 172.331 6.04644 172.879 6.02952C173.174 6.02021 173.471 6.03375 173.762 6.09468C173.629 7.03652 173.723 7.9902 173.696 8.93796C173.667 9.77741 173.767 10.6253 173.629 11.4588C173.537 11.4851 173.447 11.5113 173.357 11.5392C173.26 11.3361 173.2 11.1153 173.211 10.8876C173.23 9.44992 173.212 8.01136 173.224 6.57364C173.32 6.61425 173.413 6.6591 173.508 6.70311C173.501 6.54825 173.546 6.26561 173.308 6.28846C172.683 6.30116 172.057 6.3367 171.433 6.26477C171.384 6.58802 171.365 6.91551 171.369 7.24299C171.374 10.4882 171.362 13.7335 171.376 16.9787C171.352 17.6024 171.591 18.27 171.288 18.8573C171.208 18.1202 171.252 17.3781 171.244 16.6385C171.24 13.1267 171.254 9.61493 171.236 6.10314Z" fill="white"/>
<path d="M173.762 6.09521C173.8 7.26807 173.767 8.44177 173.778 9.61547C173.79 10.2146 173.739 10.8171 173.819 11.4128C174.007 11.3638 174.166 11.2554 174.285 11.1006C174.735 10.537 175.467 10.2467 176.179 10.2484C176.849 10.229 177.575 10.2941 178.121 10.7249C178.9 11.3071 179.309 12.2946 179.276 13.2559C179.276 15.1539 179.303 17.0529 179.262 18.9501C178.423 18.9179 177.583 18.9492 176.744 18.9323C176.697 17.2077 176.743 15.4814 176.722 13.756C176.717 13.4302 176.559 13.1315 176.382 12.8675C176.033 12.4156 175.347 12.2455 174.835 12.5112C174.582 12.6407 174.363 12.8243 174.145 13.0029C174.198 12.7871 174.148 12.5053 174.351 12.3581C174.554 12.1888 174.775 12.034 175.022 11.9358C175.313 11.8266 175.624 11.9231 175.915 11.9857C175.916 12.0475 175.919 12.1719 175.92 12.2337C175.562 12.2523 175.203 12.2582 174.844 12.2497L174.841 12.32C175.254 12.3386 175.665 12.2929 176.075 12.2489C176.326 12.2142 176.514 12.4274 176.664 12.5975C176.954 12.9817 177.218 13.4294 177.209 13.9261C177.2 15.5068 177.188 17.0875 177.209 18.6674C177.72 18.802 178.252 18.7766 178.772 18.7233C178.865 17.1316 178.753 15.5339 178.828 13.9405C178.843 13.5664 178.783 13.195 178.759 12.8226C178.736 12.0356 178.234 11.3274 177.599 10.8949C177.362 10.7113 177.047 10.7875 176.772 10.7832C176.358 10.8086 175.937 10.7494 175.527 10.8315C175.127 10.9364 174.813 11.2207 174.478 11.4484C174.413 11.4298 174.35 11.412 174.286 11.3942C174.197 11.5008 174.141 11.6802 173.974 11.6692C173.817 11.6955 173.73 11.5457 173.628 11.4594C173.767 10.6258 173.666 9.77794 173.696 8.9385C173.723 7.99074 173.628 7.03705 173.762 6.09521Z" fill="white"/>
<path d="M171.433 6.26465C172.057 6.33658 172.683 6.30104 173.307 6.28834C173.545 6.26549 173.5 6.54813 173.508 6.70299C173.412 6.65898 173.319 6.61413 173.224 6.57352C172.712 6.40512 172.168 6.49482 171.643 6.51851C171.6 10.1445 171.648 13.7731 171.619 17.4C171.607 17.8679 171.606 18.3368 171.644 18.8039C172.027 18.8377 172.413 18.88 172.798 18.8352C173.089 18.8081 173.398 18.7074 173.674 18.858C172.877 18.9909 172.061 18.8555 171.258 18.9266L171.287 18.8572C171.59 18.2699 171.352 17.6022 171.375 16.9786C171.361 13.7333 171.374 10.4881 171.369 7.24287C171.364 6.91539 171.384 6.5879 171.433 6.26465Z" fill="white"/>
<path d="M163.987 6.49624C164.866 6.34477 165.768 6.36 166.651 6.4717C167.826 6.71711 169.017 7.17491 169.834 8.09051C169.894 8.15483 169.904 8.2843 169.834 8.34607C169.56 8.63463 169.243 8.88257 168.992 9.19398C168.667 9.59508 168.325 9.99111 167.888 10.2746C167.61 9.99111 167.32 9.71355 166.982 9.50285C166.09 8.9435 164.87 8.99004 163.971 9.50877C163.714 9.66532 163.496 9.87941 163.228 10.0165C163.14 10.0537 163.053 10.0918 162.967 10.129C163.001 10.0876 163.067 10.0055 163.1 9.96403C163.139 9.91495 163.179 9.86757 163.221 9.82018C163.675 9.43261 164.245 9.24221 164.789 9.0205C165.243 8.96719 165.704 8.96127 166.159 9.0112C166.822 9.22952 167.447 9.55362 167.953 10.041C168.437 9.55954 168.907 9.06535 169.401 8.59486C169.546 8.43831 169.802 8.23522 169.61 8.01351C169.334 7.81719 169.064 7.60986 168.774 7.433C168.553 7.2883 168.289 7.42624 168.062 7.47955C168.183 7.422 168.303 7.36362 168.424 7.30269C168.134 7.06321 167.769 6.97012 167.419 6.86096C167.166 6.72642 166.883 6.70103 166.604 6.68749C165.757 6.43193 164.858 6.49286 164.009 6.69849C163.594 6.71711 163.196 6.84065 162.819 7.00821C162.741 7.03782 162.664 7.06913 162.588 7.10044C161.475 7.55571 160.541 8.40615 159.903 9.41822C159.508 10.0563 159.303 10.784 159.102 11.5008L159.086 11.4254C159.112 11.1217 159.177 10.8229 159.242 10.5259C159.347 10.0021 159.673 9.56547 159.936 9.11274C160.809 7.68433 162.39 6.84658 163.987 6.49624Z" fill="white"/>
<path d="M171.643 6.51921C172.169 6.49552 172.713 6.40582 173.224 6.57422C173.212 8.01194 173.23 9.4505 173.211 10.8882C173.199 11.1159 173.26 11.3367 173.357 11.5398C173.447 11.5119 173.537 11.4856 173.628 11.4594C173.731 11.5457 173.818 11.6955 173.975 11.6693C174.141 11.6803 174.198 11.5009 174.287 11.3943C174.35 11.412 174.414 11.4298 174.479 11.4484C174.813 11.2208 175.128 10.9365 175.527 10.8315C175.938 10.7494 176.358 10.8087 176.773 10.7833C177.048 10.7875 177.363 10.7114 177.6 10.895C178.234 11.3274 178.736 12.0357 178.759 12.8227C178.784 13.195 178.844 13.5665 178.828 13.9405C178.753 15.5339 178.866 17.1316 178.773 18.7233C178.252 18.7766 177.721 18.802 177.21 18.6675C177.189 17.0876 177.2 15.5069 177.21 13.9261C177.219 13.4294 176.954 12.9818 176.665 12.5976C176.514 12.4275 176.326 12.2142 176.076 12.2489C175.665 12.2929 175.255 12.3386 174.842 12.32L174.844 12.2498C175.203 12.2582 175.562 12.2523 175.921 12.2337C175.919 12.1719 175.917 12.0475 175.916 11.9858C175.625 11.9231 175.313 11.8267 175.022 11.9358C174.775 12.034 174.554 12.1889 174.351 12.3581C174.148 12.5053 174.199 12.7871 174.146 13.0029C174.002 13.294 173.904 13.6037 173.803 13.9109C173.707 14.0691 173.641 14.2443 173.661 14.4322C173.683 15.9071 173.659 17.3829 173.674 18.8587C173.398 18.7081 173.089 18.8088 172.798 18.8359C172.413 18.8807 172.027 18.8384 171.644 18.8046C171.607 18.3375 171.608 17.8686 171.62 17.4007C171.648 13.7738 171.6 10.1452 171.643 6.51921Z" fill="white"/>
<path d="M119.511 7.35953C121.065 6.34661 123.121 6.25776 124.829 6.91865C124.692 7.03966 124.556 7.16152 124.421 7.28337C124.602 7.29099 124.783 7.2986 124.964 7.3096C125.143 7.63116 125.523 7.72425 125.774 7.96965C125.826 8.10589 125.702 8.21421 125.631 8.31406C125.315 8.66524 124.989 9.01557 124.597 9.28298C124.45 9.13658 124.301 8.99188 124.153 8.84802C124.064 8.9411 123.975 9.03419 123.887 9.12812C123.652 9.00542 123.41 8.90049 123.162 8.8074C123.2 8.69316 123.238 8.57977 123.276 8.46553C122.767 8.28698 122.171 8.2379 121.688 8.51461C121.387 8.68893 121.084 8.87256 120.837 9.11966C120.664 9.27705 120.762 9.52669 120.761 9.72724C120.807 10.0505 120.726 10.4211 120.936 10.7004C121.096 10.9365 121.337 11.0998 121.589 11.2242C121.528 11.3156 121.468 11.407 121.407 11.4984C121.557 11.5779 121.702 11.6727 121.867 11.7158C122.1 11.7277 122.326 11.6465 122.553 11.6075L122.622 11.6295C122.532 11.7074 122.443 11.7844 122.354 11.8622C122.458 11.9409 122.563 12.0188 122.667 12.0966C122.78 11.9849 122.893 11.8715 123.01 11.7632L123.078 11.7818C123.042 11.891 123.007 12.0002 122.972 12.1093C123.696 12.447 124.491 12.6831 125.102 13.2187C125.426 13.4912 125.558 13.9541 125.969 14.1259C125.841 14.7749 125.892 15.4392 125.851 16.095C125.975 16.1974 126.101 16.2998 126.226 16.4013C126.132 16.6679 126.024 16.9294 125.89 17.1773C125.803 17.1045 125.715 17.0318 125.628 16.959C125.343 17.3152 125.098 17.7172 124.708 17.9719C124.452 18.12 124.378 18.4153 124.296 18.676C124.237 18.6988 124.121 18.7454 124.063 18.769C124.114 18.6243 124.168 18.4805 124.221 18.3375C123.879 18.4035 123.544 18.4974 123.215 18.61C122.522 18.8554 121.781 18.6785 121.066 18.7022C120.831 18.7098 120.649 18.8824 120.454 18.9924C120.418 18.9882 120.348 18.9789 120.312 18.9738C120.399 18.8376 120.485 18.7005 120.571 18.5634C120.188 18.4568 119.804 18.566 119.456 18.7293C119.231 18.6345 119.004 18.5456 118.782 18.4466C118.89 18.3637 118.997 18.2799 119.104 18.197C118.934 18.2072 118.765 18.2173 118.595 18.2275C118.631 18.1767 118.667 18.1251 118.704 18.0743C118.687 18.0438 118.654 17.9838 118.637 17.9541C118.519 17.9812 118.403 18.0083 118.285 18.0345C118.24 17.7883 118.086 17.504 118.252 17.2729C118.55 16.8481 118.983 16.5486 119.355 16.194C119.352 16.0891 119.349 15.985 119.347 15.8809C119.47 15.9478 119.593 16.0129 119.713 16.084C119.892 16.2507 120.084 16.4056 120.304 16.5139C120.259 16.7161 120.316 16.9421 120.525 17.0267C120.723 17.0343 120.917 16.9844 121.11 16.948C121.09 17.0555 121.071 17.1638 121.051 17.2721C121.156 17.2746 121.262 17.2814 121.367 17.2704C121.431 17.1951 121.48 17.1105 121.532 17.0275C121.936 17.0749 122.373 17.0885 122.722 16.8448C123.004 16.6874 123.245 16.4682 123.46 16.2304C123.526 16.3099 123.592 16.3886 123.658 16.4673C123.816 16.3235 124.026 16.1898 124.044 15.9562C124.087 15.6152 124.114 15.2479 123.984 14.923C123.844 14.7436 123.625 14.8401 123.453 14.9027C123.299 14.7428 123.134 14.5921 122.957 14.4576C123.047 14.3653 123.138 14.274 123.228 14.1817C122.972 14.0015 122.726 13.7848 122.419 13.6977C122.106 13.6901 121.806 13.8136 121.498 13.8559C120.663 13.6351 119.81 13.338 119.137 12.7804C119.255 12.7025 119.374 12.6255 119.492 12.5494C119.336 12.3404 119.124 12.1821 118.86 12.1474C118.843 11.8402 118.766 11.5407 118.642 11.2589C118.557 11.3841 118.474 11.5094 118.389 11.6346C118.355 11.3342 118.346 11.0245 118.474 10.7435C118.612 10.4313 118.566 10.0877 118.519 9.76109C118.422 9.74501 118.326 9.72893 118.228 9.71285C118.293 9.4666 118.351 9.21782 118.403 8.96818C118.48 9.08412 118.557 9.20005 118.635 9.31513C118.811 8.95295 118.955 8.56454 119.228 8.2599C119.412 8.04496 119.637 7.8571 119.762 7.59732C119.683 7.51269 119.597 7.43653 119.511 7.35953Z" fill="white"/>
<path d="M128.313 10.557C129.126 10.4817 129.944 10.524 130.758 10.535C130.77 10.8735 130.766 11.2119 130.776 11.5504L130.781 11.6283C131.01 11.663 131.262 11.7298 131.484 11.6283C131.868 11.437 132.11 11.0376 132.515 10.8811C133.158 10.6365 133.888 10.9716 134.508 10.6399C134.689 10.9725 135.032 11.1493 135.297 11.4023C135.587 11.685 135.564 12.1275 135.756 12.4635C135.856 12.6158 135.995 12.7351 136.124 12.8612C135.956 13.5153 135.989 14.1932 135.998 14.8617C135.979 16.1547 136.03 17.4502 135.973 18.7424C135.469 18.7847 134.963 18.7805 134.46 18.7466C134.405 18.4995 134.361 18.2491 134.363 17.9952C134.379 16.8088 134.366 15.6233 134.375 14.4369C134.38 13.7912 134.271 13.1032 133.856 12.5854C133.468 12.1335 132.872 11.7967 132.259 11.9067C131.879 11.9473 131.576 12.2003 131.323 12.466C131.384 12.5667 131.444 12.6666 131.505 12.7673C131.257 13.0525 130.995 13.3732 130.95 13.7616C130.906 15.4735 130.984 17.1888 130.914 18.8998C130.051 18.893 129.188 18.9083 128.324 18.8922C128.321 16.1141 128.341 13.3351 128.313 10.557Z" fill="white"/>
<path d="M164.009 6.69853C164.858 6.4929 165.758 6.43197 166.604 6.68753C166.59 6.84069 166.579 6.99386 166.568 7.14702C166.887 7.19357 167.193 7.09202 167.419 6.861C167.769 6.97016 168.134 7.06325 168.424 7.30273C168.303 7.36366 168.183 7.42204 168.062 7.47959C168.29 7.42628 168.553 7.28834 168.775 7.43304C169.064 7.6099 169.334 7.81723 169.611 8.01355C169.6 8.06517 169.579 8.16756 169.569 8.21918C169.447 8.1591 169.326 8.09902 169.205 8.03893C169.165 8.23187 169.127 8.44004 168.969 8.57628C168.622 8.92154 168.282 9.27441 167.908 9.59089C167.664 9.39711 167.37 9.29049 167.058 9.29049C167.125 9.23041 167.193 9.16948 167.261 9.1094C166.927 8.90207 166.596 8.65075 166.194 8.60336C165.671 8.54836 165.126 8.51958 164.621 8.69644C164.742 8.7616 164.862 8.85045 165.005 8.85469C165.49 8.886 165.976 8.83861 166.462 8.85045C166.361 8.90461 166.26 8.95792 166.16 9.01124C165.704 8.96131 165.243 8.96723 164.79 9.02054C164.613 8.97062 164.446 8.89361 164.285 8.80899C163.925 8.96385 163.529 9.09247 163.25 9.37934C163.126 9.49866 163.212 9.67636 163.221 9.82022C163.179 9.8676 163.14 9.91499 163.101 9.96407C163.008 9.94123 162.915 9.91838 162.823 9.89638C162.463 10.1858 162.119 10.5209 161.934 10.9516C161.848 11.1378 161.933 11.3392 161.968 11.527C161.858 11.5795 161.748 11.6303 161.647 11.6963C161.639 12.0187 161.775 12.3284 161.775 12.6525C161.781 12.9901 161.859 13.3565 161.692 13.6696C161.643 13.7923 161.558 13.932 161.643 14.0606C161.785 14.2222 161.991 14.3026 162.175 14.4067C162.172 14.7528 162.157 15.1201 162.367 15.4171C162.465 15.3502 162.563 15.2834 162.661 15.2165C163.079 15.7632 163.622 16.331 164.335 16.4308C164.464 16.4402 164.571 16.5163 164.681 16.5781C164.601 16.5772 164.443 16.5747 164.363 16.573C164.511 16.6526 164.662 16.7465 164.835 16.749C165.389 16.7896 165.952 16.6805 166.497 16.8159C165.82 16.8573 165.085 16.6348 164.453 16.964C164.846 17.118 165.272 17.1104 165.687 17.0968C166.269 17.09 166.844 16.9056 167.339 16.6035C167.592 16.4537 167.723 16.0873 168.038 16.0678C168.406 16.2743 168.672 16.6162 168.972 16.9064C169.097 17.0554 169.349 17.2813 169.148 17.4717C168.717 17.8914 168.186 18.2121 167.621 18.4144C167.665 18.51 167.711 18.6056 167.757 18.7021C167.46 18.6031 167.141 18.4618 166.835 18.6124C166.908 18.7376 166.981 18.8629 167.056 18.9873L166.981 19.0025C166.263 18.6293 165.441 18.7326 164.663 18.7376C164.488 18.73 164.338 18.8223 164.197 18.9136C164.97 19.1557 165.791 18.8671 166.564 19.1049C166.161 19.1692 165.753 19.1455 165.347 19.1506C164.934 19.1464 164.516 19.1717 164.107 19.1007C163.896 18.8493 163.684 18.5718 163.369 18.4482C163.079 18.3382 162.784 18.2401 162.486 18.1571C162.298 18.0962 162.12 18.2121 161.948 18.2688C161.99 18.1715 162.033 18.0742 162.075 17.9769C161.883 17.7941 161.679 17.6249 161.465 17.4692C161.112 17.217 160.824 16.8895 160.517 16.5857C160.424 16.6356 160.332 16.6864 160.24 16.7363C160.187 16.6695 160.136 16.6009 160.086 16.5324C160.174 16.4833 160.264 16.4342 160.355 16.386C160.246 16.1059 160.159 15.8131 160 15.5576C159.844 15.3714 159.475 15.3908 159.453 15.0938C159.382 14.6149 159.72 14.1393 159.494 13.6713C159.379 13.7424 159.266 13.8144 159.151 13.8837C159.141 13.431 159.029 12.98 159.093 12.5273C159.119 12.3081 159.157 12.0898 159.184 11.8706C159.268 12.0111 159.362 12.1456 159.458 12.2802C159.684 11.7487 159.53 11.1826 159.396 10.6504C159.503 10.7773 159.611 10.9025 159.722 11.0261C159.795 10.7604 159.731 10.493 159.635 10.2433C159.719 10.2899 159.804 10.3364 159.889 10.3829C160.077 9.81514 160.395 9.31164 160.792 8.86738C161.277 8.16587 162.073 7.80453 162.818 7.45082C162.741 7.33404 162.664 7.21726 162.589 7.10048C162.664 7.06917 162.741 7.03786 162.819 7.00825C162.949 6.99471 163.08 6.9854 163.212 6.97524C163.089 7.07679 162.966 7.17918 162.846 7.28326C163.266 7.42628 163.671 7.19695 164.06 7.06409C164.042 6.94224 164.026 6.82039 164.009 6.69853Z" fill="white"/>
<path d="M148.378 10.5386C148.417 10.569 148.496 10.6291 148.535 10.6596C148.487 11.4669 148.51 12.2759 148.504 13.0848C148.504 15.6802 148.504 18.2747 148.504 20.87C148.512 21.5106 148.482 22.1529 148.533 22.7935C149.248 22.8442 149.967 22.84 150.683 22.7926C150.763 21.8432 150.702 20.8903 150.719 19.9392C150.697 19.3011 150.804 18.6462 150.613 18.0259C150.499 18.1884 150.42 18.3745 150.429 18.5776C150.405 19.8918 150.453 21.2077 150.413 22.5218C149.876 22.565 149.336 22.5684 148.798 22.5201C148.754 21.9142 148.793 21.3075 148.786 20.7008C148.783 17.9083 148.787 15.1149 148.783 12.3224C148.781 11.8731 148.81 11.4254 148.862 10.9795C149.371 10.9668 149.882 10.9905 150.39 10.9371C150.409 10.8331 150.428 10.7298 150.448 10.6257C150.478 10.635 150.54 10.6528 150.57 10.6613C150.611 10.8508 150.656 11.0387 150.699 11.2282C150.715 11.3112 150.732 11.3949 150.749 11.4796C151.178 11.3687 151.393 10.9287 151.78 10.7374C151.933 10.8009 152.083 10.8821 152.249 10.9101C152.522 10.8449 152.782 10.7044 153.072 10.7332C153.721 10.7772 154.421 10.6139 155.015 10.9575C155.098 10.8424 155.181 10.7273 155.265 10.6122C156.169 11.1326 156.892 11.9746 157.197 12.9791C156.846 13.7889 156.97 14.6808 156.992 15.5346C157.009 15.8503 156.848 16.1304 156.737 16.4138C156.596 16.743 156.502 17.101 156.276 17.3861C155.939 17.7991 155.543 18.1706 155.077 18.4346C155.096 18.5116 155.117 18.5886 155.138 18.6665C154.885 18.5598 154.615 18.4786 154.34 18.5514C154.376 18.6639 154.412 18.7765 154.45 18.8899C154.583 18.9051 154.718 18.9212 154.853 18.9381L154.84 18.9466C154.784 18.9559 154.67 18.9753 154.614 18.9846C154.491 18.9483 154.404 18.9872 154.352 19.1023L154.281 19.1133C153.817 19.1158 153.353 19.1124 152.889 19.1167C152.842 19.0033 152.758 18.9567 152.638 18.977C152.573 18.9728 152.444 18.9652 152.379 18.9618C152.37 18.9593 152.353 18.955 152.344 18.9525C152.295 18.933 152.196 18.8924 152.147 18.8721C152.102 18.8442 152.012 18.7866 151.968 18.7579C151.831 18.6749 151.699 18.5869 151.572 18.4921C151.393 18.2417 151.173 18.0217 150.889 17.8939C150.777 18.4278 150.825 18.9753 150.822 19.5161C150.812 20.65 150.84 21.7848 150.808 22.9187C150.008 22.9432 149.206 22.9432 148.405 22.9179C148.364 18.7917 148.419 14.6639 148.378 10.5386ZM151.525 12.4629C151.111 12.8784 150.668 13.3049 150.464 13.8693C150.388 14.0267 150.475 14.1883 150.533 14.3347C150.68 14.1841 150.716 13.9784 150.733 13.7779C150.765 13.821 150.829 13.9074 150.861 13.9505C150.813 14.4455 150.808 14.9507 150.867 15.4449C150.832 15.4483 150.76 15.4559 150.724 15.4602C150.715 15.2808 150.705 15.1022 150.694 14.9245C150.524 14.9423 150.337 14.9922 150.359 15.2054C150.441 15.5346 150.619 15.8401 150.809 16.1202C150.944 16.3148 151.198 16.2759 151.403 16.2742C151.482 16.369 151.572 16.4545 151.671 16.5306C151.595 16.5949 151.52 16.6601 151.445 16.7253C151.626 16.9774 151.824 17.2728 152.152 17.3345C152.415 17.3244 152.645 17.1551 152.908 17.1323C153.145 17.1492 153.351 17.2871 153.582 17.3362C153.823 17.2677 154.004 17.0807 154.182 16.9148C154.091 16.8496 154 16.7853 153.911 16.721C154.244 16.5095 154.552 16.2268 154.73 15.8697C154.839 15.9493 154.938 16.1227 155.092 16.0229C155.145 15.8748 155.041 15.747 154.984 15.6192C155.086 15.5972 155.193 15.5871 155.287 15.538C155.403 15.3738 155.365 15.1665 155.355 14.9804C155.257 14.9524 155.159 14.9245 155.063 14.8966C155.058 14.707 155.051 14.5175 155.043 14.3288C155.119 14.3262 155.195 14.3245 155.271 14.3228C155.335 14.1358 155.44 13.9167 155.307 13.7339C155.14 13.6586 154.961 13.6205 154.785 13.5765C154.523 13.0374 154.031 12.5991 153.472 12.3884C153.092 12.3512 152.705 12.3469 152.327 12.3969C152.321 12.3596 152.311 12.2843 152.306 12.2471C152.767 12.2539 153.228 12.2682 153.688 12.231C153.678 12.1735 153.657 12.0575 153.646 12C153.266 11.934 152.876 11.9408 152.491 11.9374C152.122 11.9915 151.794 12.2141 151.525 12.4629Z" fill="white"/>
<path d="M162.819 7.00796C163.197 6.84041 163.594 6.71686 164.01 6.69824C164.026 6.8201 164.043 6.94195 164.061 7.06381C163.671 7.19666 163.266 7.42599 162.846 7.28298C162.967 7.17889 163.089 7.0765 163.212 6.97495C163.081 6.98511 162.95 6.99442 162.819 7.00796Z" fill="white"/>
<path d="M166.604 6.68701C166.883 6.70055 167.167 6.72594 167.419 6.86049C167.193 7.0915 166.887 7.19305 166.567 7.14651C166.578 6.99334 166.59 6.84018 166.604 6.68701Z" fill="white"/>
<path d="M169.205 8.03857C169.326 8.09865 169.447 8.15873 169.569 8.21881C169.579 8.16719 169.6 8.0648 169.61 8.01318C169.802 8.23489 169.546 8.43798 169.401 8.59453C168.907 9.06503 168.437 9.55922 167.953 10.0407C167.447 9.55329 166.822 9.22919 166.16 9.01087C166.259 8.95756 166.361 8.90425 166.462 8.85009C165.976 8.83824 165.49 8.88563 165.005 8.85432C164.861 8.85009 164.742 8.76124 164.621 8.69608C165.125 8.51922 165.671 8.54799 166.194 8.603C166.596 8.65038 166.927 8.90171 167.26 9.10903C167.193 9.16911 167.125 9.23004 167.058 9.29012C167.37 9.29012 167.664 9.39675 167.908 9.59053C168.282 9.27404 168.622 8.92117 168.969 8.57592C169.126 8.43968 169.165 8.23151 169.205 8.03857Z" fill="white"/>
<path d="M181.417 15.2848C181.694 14.8524 182.11 14.5241 182.581 14.3252C182.606 14.4394 182.632 14.5545 182.658 14.6688C182.264 14.8769 181.892 15.1376 181.639 15.5116C181.564 15.4354 181.49 15.3601 181.417 15.2848Z" fill="white"/>
<path d="M124.421 7.28366C124.556 7.16181 124.692 7.03995 124.829 6.91895C125.4 7.11865 125.937 7.41906 126.39 7.82355C126.391 7.89548 126.394 8.03849 126.395 8.11042C125.843 8.67484 125.303 9.2545 124.813 9.87393C124.588 9.82062 124.449 9.62599 124.3 9.46774C124.18 9.33404 124.042 9.21727 123.887 9.12841C123.975 9.03448 124.064 8.9414 124.152 8.84832C124.301 8.99217 124.449 9.13687 124.597 9.28327C124.989 9.01587 125.315 8.66553 125.631 8.31435C125.702 8.2145 125.826 8.10619 125.774 7.96994C125.523 7.72454 125.143 7.63146 124.964 7.3099C124.783 7.2989 124.602 7.29128 124.421 7.28366Z" fill="white"/>
<path d="M159.903 9.41788C160.54 8.40581 161.474 7.55536 162.588 7.1001C162.663 7.21688 162.74 7.33365 162.817 7.45043C162.072 7.80415 161.276 8.16548 160.791 8.867C160.395 9.31126 160.076 9.81476 159.889 10.3826C159.803 10.336 159.718 10.2895 159.635 10.2429C159.73 10.4926 159.794 10.76 159.721 11.0257C159.61 10.9021 159.502 10.7769 159.395 10.65C159.529 11.1822 159.683 11.7484 159.457 12.2798C159.361 12.1452 159.267 12.0107 159.183 11.8702C159.155 11.7467 159.126 11.624 159.102 11.5004C159.302 10.7837 159.508 10.0559 159.903 9.41788Z" fill="white"/>
<path d="M191.282 8.25481C192.118 8.18119 192.96 8.21927 193.798 8.23365C193.833 8.94278 193.771 9.65445 193.829 10.3627C193.676 10.3297 193.525 10.2959 193.375 10.2629C193.337 9.73822 193.35 9.21188 193.344 8.68553C192.828 8.57891 192.294 8.57383 191.784 8.71007C191.753 9.24827 191.794 9.789 191.737 10.3263C191.452 10.4372 191.259 10.675 191.115 10.9339C190.911 10.9661 190.708 10.9957 190.505 11.0236C190.475 11.3029 190.468 11.5847 190.485 11.8656C190.729 11.9062 190.977 11.9384 191.212 12.0188C191.27 12.177 191.074 12.2591 190.999 12.37C190.665 12.3767 190.333 12.3708 190.002 12.3395C190.007 11.726 190.003 11.1125 190.006 10.499C190.421 10.5134 190.837 10.5117 191.252 10.4719C191.331 9.73569 191.282 8.99355 191.282 8.25481Z" fill="white"/>
<path d="M118.19 9.21887C118.399 8.47674 118.831 7.75492 119.511 7.35889C119.596 7.43589 119.683 7.51205 119.762 7.59667C119.637 7.85646 119.412 8.04432 119.227 8.25926C118.955 8.5639 118.811 8.95231 118.635 9.31449C118.557 9.1994 118.48 9.08347 118.403 8.96754C118.351 9.21717 118.293 9.46596 118.228 9.71221C118.325 9.72829 118.422 9.74437 118.519 9.76044C118.566 10.0871 118.612 10.4306 118.473 10.7429C118.346 11.0238 118.355 11.3336 118.389 11.634C118.473 11.5087 118.557 11.3835 118.642 11.2582C118.765 11.54 118.843 11.8396 118.86 12.1468C119.124 12.1815 119.336 12.3397 119.492 12.5487C119.374 12.6249 119.255 12.7019 119.137 12.7797C118.431 12.2415 118.015 11.3463 118.072 10.4603C118.089 10.0456 118.008 9.60813 118.19 9.21887Z" fill="white"/>
<path d="M157.197 12.9785C157.307 13.2848 157.428 13.5963 157.43 13.9271C157.44 14.4924 157.46 15.0602 157.408 15.6238C157.312 16.2212 157.037 16.7679 156.819 17.3264C156.383 18.0668 155.685 18.627 154.886 18.9333L154.853 18.9376C154.717 18.9206 154.583 18.9046 154.449 18.8893C154.412 18.7759 154.375 18.6634 154.339 18.5508C154.614 18.4781 154.885 18.5593 155.138 18.6659C155.117 18.5881 155.095 18.5111 155.076 18.4341C155.542 18.17 155.938 17.7986 156.275 17.3856C156.501 17.1004 156.596 16.7425 156.736 16.4133C156.847 16.1298 157.009 15.8497 156.991 15.5341C156.969 14.6803 156.845 13.7883 157.197 12.9785Z" fill="white"/>
<path d="M159.149 13.8833C159.264 13.8139 159.378 13.742 159.493 13.6709C159.719 14.1389 159.38 14.6144 159.452 15.0934C159.474 15.3904 159.842 15.3709 159.999 15.5571C160.158 15.8127 160.245 16.1055 160.354 16.3856C160.263 16.4338 160.173 16.4829 160.084 16.532C159.571 15.7399 159.166 14.8412 159.149 13.8833Z" fill="white"/>
<path d="M191.198 8.13C192.065 7.99038 192.95 8.11392 193.823 8.05469C194.047 8.79936 193.821 9.58464 193.976 10.3403C194.619 10.4393 195.274 10.3268 195.914 10.4486C195.932 11.1078 195.926 11.7662 195.92 12.4254C195.344 12.6099 194.738 12.4592 194.151 12.5354C193.931 12.5599 193.923 12.824 193.916 12.9932C193.903 13.5881 193.927 14.183 193.917 14.777C193.921 15.3499 193.855 15.949 194.085 16.4915C194.159 16.6565 194.313 16.7631 194.46 16.8621C194.47 16.8672 194.49 16.8765 194.501 16.8816C194.903 17.028 195.339 16.8638 195.741 16.9315C195.747 16.9383 195.76 16.9509 195.765 16.9577C195.863 17.1456 195.839 17.3647 195.848 17.5704C195.836 18.04 195.881 18.5131 195.804 18.9793L195.721 18.9912C195.427 19.025 195.138 19.0919 194.853 19.1706C194.428 19.2493 193.978 19.256 193.553 19.1706C193.372 19.124 193.192 19.0775 193.01 19.0403C192.431 18.9666 191.963 18.5537 191.646 18.0874C191.551 17.9596 191.522 17.8039 191.501 17.6508C191.849 18.1923 192.284 18.7618 192.946 18.9175C193.468 19.0199 194.001 19.1655 194.538 19.08C194.913 19.0233 195.287 18.9522 195.666 18.9184C195.705 18.3049 195.699 17.6897 195.67 17.0762C195.526 17.0906 195.383 17.1041 195.241 17.1168C194.974 17.11 194.698 17.1346 194.44 17.0559C194.153 16.9112 194.004 16.6082 193.818 16.3611C193.817 15.0351 193.776 13.7074 193.838 12.3822C194.474 12.3543 195.112 12.3949 195.749 12.3518C195.772 11.745 195.773 11.1366 195.747 10.5299C195.116 10.4994 194.485 10.5045 193.856 10.5248C193.849 10.4842 193.836 10.4029 193.83 10.3623C193.773 9.65403 193.834 8.94237 193.8 8.23324C192.962 8.21885 192.12 8.18077 191.284 8.25439C191.284 8.99314 191.333 9.73527 191.253 10.4715C190.839 10.5113 190.422 10.5129 190.008 10.4986C190.004 11.1121 190.009 11.7256 190.004 12.3391C190.334 12.3704 190.667 12.3763 191 12.3695C191.061 12.3687 191.182 12.3678 191.242 12.367C191.362 13.0516 191.283 13.748 191.303 14.4385C191.308 15.0884 191.298 15.7383 191.302 16.3882C191.302 16.8181 191.44 17.2285 191.501 17.6508C191.24 17.3182 191.209 16.8748 191.193 16.4686C191.187 15.2831 191.195 14.0975 191.193 12.912C191.201 12.7639 191.143 12.5887 190.978 12.5625C190.635 12.5041 190.285 12.5743 189.943 12.5219C189.804 12.4516 189.839 12.2832 189.826 12.1563C189.825 11.7027 189.83 11.2491 189.824 10.7956C189.834 10.645 189.797 10.4486 189.949 10.3555C190.315 10.2853 190.693 10.3775 191.061 10.3056C191.154 10.2151 191.194 10.0848 191.189 9.95613C191.198 9.3477 191.174 8.73843 191.198 8.13Z" fill="white"/>
<path d="M193.821 8.05469C193.915 8.13592 194.051 8.20362 194.041 8.35002C194.078 8.96691 194.033 9.58718 194.051 10.2058C194.66 10.2752 195.273 10.2202 195.885 10.2362C196.01 10.6086 195.984 11.0054 195.984 11.393C195.979 11.8085 196.022 12.2358 195.889 12.6378C195.293 12.6623 194.698 12.6336 194.103 12.6589C194.057 13.9359 194.104 15.2145 194.083 16.4915C193.853 15.949 193.919 15.3499 193.914 14.777C193.925 14.183 193.901 13.5881 193.914 12.9932C193.921 12.824 193.929 12.5599 194.149 12.5354C194.736 12.4592 195.342 12.6099 195.917 12.4254C195.924 11.7662 195.93 11.1078 195.912 10.4486C195.272 10.3268 194.617 10.4393 193.974 10.3403C193.819 9.58464 194.045 8.79936 193.821 8.05469Z" fill="white"/>
<path d="M121.689 8.51411C122.172 8.2374 122.768 8.28648 123.277 8.46503C123.239 8.57927 123.201 8.69266 123.163 8.8069C122.628 8.77051 122.052 8.71974 121.559 8.97445C121.216 9.13016 121.004 9.45341 120.762 9.72674C120.763 9.52618 120.665 9.27655 120.838 9.11916C121.085 8.87206 121.388 8.68843 121.689 8.51411Z" fill="white"/>
<path d="M162.824 9.89648C162.916 9.91849 163.008 9.94133 163.101 9.96418C163.068 10.0056 163.001 10.0877 162.967 10.1292C162.577 10.5464 162.295 11.0617 162.133 11.6075C161.966 12.4157 161.949 13.2576 162.125 14.0649C162.252 14.4703 162.441 14.8545 162.662 15.2166C162.564 15.2835 162.466 15.3503 162.368 15.4172C162.158 15.1202 162.172 14.7529 162.175 14.4068C161.992 14.3027 161.785 14.2223 161.644 14.0607C161.559 13.9321 161.643 13.7925 161.692 13.6698C161.86 13.3567 161.781 12.9902 161.776 12.6526C161.775 12.3285 161.64 12.0188 161.647 11.6964C161.749 11.6304 161.859 11.5796 161.968 11.5271C161.933 11.3393 161.849 11.1379 161.934 10.9517C162.12 10.521 162.464 10.1859 162.824 9.89648Z" fill="white"/>
<path d="M151.526 12.4625C151.795 12.2137 152.123 11.9912 152.492 11.937C152.876 11.9404 153.266 11.9336 153.646 11.9996C153.657 12.0572 153.678 12.1731 153.688 12.2306C153.229 12.2679 152.768 12.2535 152.307 12.2467C152.312 12.284 152.322 12.3593 152.328 12.3965C152.01 12.5869 151.661 12.7435 151.414 13.0286C151.177 13.3003 151.008 13.6244 150.861 13.9502C150.829 13.907 150.766 13.8207 150.733 13.7775C150.717 13.9781 150.68 14.1837 150.534 14.3343C150.475 14.1879 150.388 14.0263 150.464 13.8689C150.668 13.3045 151.112 12.878 151.526 12.4625Z" fill="white"/>
<path d="M123.454 14.9025C123.626 14.8399 123.845 14.7435 123.986 14.9229C124.115 15.2478 124.088 15.6151 124.046 15.9561C124.027 16.1896 123.817 16.3233 123.66 16.4672C123.594 16.3885 123.528 16.3098 123.462 16.2303C123.645 15.8139 123.659 15.313 123.454 14.9025Z" fill="white"/>
<path d="M124.709 17.9719C125.099 17.7172 125.344 17.3152 125.63 16.959C125.717 17.0318 125.804 17.1045 125.891 17.1773C125.558 17.8458 124.974 18.3705 124.297 18.676C124.38 18.4153 124.453 18.12 124.709 17.9719Z" fill="white"/>
<path d="M123.216 18.6094C123.545 18.4968 123.881 18.4029 124.222 18.3369C124.169 18.4799 124.116 18.6238 124.064 18.7685C123.492 18.9834 122.893 19.1721 122.274 19.1484C121.667 19.1247 121.032 19.2331 120.455 18.9919C120.651 18.8819 120.832 18.7092 121.068 18.7016C121.783 18.6779 122.523 18.8548 123.216 18.6094Z" fill="white"/>
<path d="M191.786 8.70994C192.295 8.5737 192.83 8.57877 193.345 8.6854C193.352 9.21174 193.338 9.73809 193.376 10.2627C193.526 10.2957 193.678 10.3296 193.83 10.3626C193.836 10.4032 193.849 10.4844 193.855 10.5251C193.876 10.6452 193.896 10.7654 193.916 10.8856C194.36 11.0074 194.823 10.9888 195.278 11.0032C195.3 11.3019 195.307 11.6023 195.3 11.9019C194.897 11.9822 194.486 11.9213 194.081 11.9645C193.842 12.0635 193.672 12.2784 193.503 12.4654C193.317 12.6508 193.344 12.9283 193.339 13.1678C193.356 14.0445 193.345 14.9203 193.341 15.797C193.33 16.028 193.397 16.2506 193.498 16.4553C193.604 16.424 193.711 16.3927 193.818 16.3614C194.004 16.6085 194.153 16.9114 194.44 17.0562C194.698 17.1349 194.974 17.1103 195.241 17.1171C194.945 17.1653 194.658 17.2576 194.393 17.398C194.677 17.4996 194.972 17.5673 195.269 17.618C195.278 17.8846 195.319 18.163 195.226 18.4203C195.049 18.515 194.851 18.559 194.658 18.6132C194.733 18.697 194.807 18.7816 194.884 18.8662C194.438 18.9711 193.975 19.0075 193.531 18.8789C193.607 18.7757 193.683 18.6733 193.761 18.5709C193.464 18.5396 193.164 18.5472 192.871 18.4964C192.668 18.4338 192.508 18.2832 192.352 18.1478C192.049 17.888 191.979 17.475 191.845 17.1196C191.758 17.2677 191.671 17.4158 191.582 17.5622C191.433 17.0621 191.791 16.6254 191.764 16.1329C191.758 15.1733 191.752 14.2137 191.767 13.2541C191.762 13.0451 191.773 12.8302 191.709 12.6296C191.587 12.4934 191.411 12.4248 191.242 12.3673C191.182 12.3681 191.06 12.369 191 12.3698C191.076 12.259 191.271 12.1769 191.214 12.0186C190.978 11.9382 190.73 11.9061 190.487 11.8655C190.47 11.5845 190.476 11.3027 190.506 11.0235C190.709 10.9956 190.912 10.9659 191.116 10.9338C191.261 10.6748 191.454 10.4371 191.738 10.3262C191.796 9.78886 191.754 9.24813 191.786 8.70994Z" fill="white"/>
<path d="M121.559 8.97506C122.052 8.72035 122.628 8.77113 123.162 8.80751C123.41 8.9006 123.653 9.00553 123.888 9.12823C124.043 9.21708 124.181 9.33386 124.301 9.46756C123.876 9.30847 123.497 9.02838 123.039 8.96491C122.467 8.82021 121.833 8.93952 121.351 9.27716C120.936 9.55388 120.825 10.1623 121.062 10.5863C121.376 11.0128 121.889 11.2218 122.375 11.3868C122.891 11.578 123.437 11.6948 123.933 11.9343C123.955 11.963 123.999 12.0206 124.021 12.0502C123.706 11.9656 123.393 11.8717 123.079 11.782L123.011 11.7633C122.881 11.7202 122.752 11.6736 122.623 11.6296L122.554 11.6076C122.231 11.4841 121.906 11.3656 121.59 11.2243C121.338 11.0999 121.097 10.9366 120.937 10.7005C120.727 10.4212 120.808 10.0506 120.762 9.72735C121.004 9.45402 121.216 9.13077 121.559 8.97506Z" fill="white"/>
<path d="M163.249 9.37943C163.528 9.09256 163.924 8.96394 164.285 8.80908C164.445 8.8937 164.612 8.97071 164.789 9.02064C164.245 9.24234 163.674 9.43274 163.22 9.82031C163.211 9.67645 163.125 9.49875 163.249 9.37943Z" fill="white"/>
<path d="M163.971 9.50904C164.869 8.99031 166.09 8.94377 166.982 9.50312C166.473 9.37365 165.965 9.20102 165.432 9.24333C164.925 9.21033 164.458 9.42104 163.971 9.50904Z" fill="white"/>
<path d="M141.136 10.124C141.303 10.08 141.477 10.0648 141.649 10.058C142.49 10.0445 143.365 9.98442 144.157 10.3271C145.19 10.6758 145.858 11.6828 146.07 12.7143C146.143 13.1171 146.265 13.5148 146.268 13.9269C146.27 15.6177 146.264 17.3084 146.272 18.9991C145.698 19.1202 145.109 19.033 144.53 19.0584C144.218 19.044 143.889 19.1066 143.589 19.011C143.437 18.8087 143.432 18.5286 143.338 18.2968C143.363 18.2596 143.413 18.1851 143.437 18.1479C143.505 18.1343 143.64 18.1081 143.707 18.0954C143.711 18.3636 143.713 18.6327 143.714 18.901C144.48 18.9475 145.259 19.0059 146.02 18.8756C146.023 17.1146 146.028 15.3545 146.015 13.5935C146.029 13.1196 145.866 12.6703 145.736 12.2218C145.647 11.9459 145.506 11.6904 145.346 11.4509C145.274 11.3468 145.198 11.2444 145.119 11.1471C144.7 10.5539 143.954 10.3195 143.268 10.2146C142.299 10.0673 141.27 10.1224 140.364 10.5184C139.781 10.7342 139.223 11.0456 138.765 11.4695C138.666 11.5525 138.751 11.6972 138.82 11.7725C139.184 12.1947 139.558 12.6102 139.962 12.9969C140.044 12.9377 140.127 12.8785 140.209 12.8175L140.176 12.8903C140.155 13.0943 139.915 13.1679 139.775 13.0206C139.396 12.6932 139.084 12.2946 138.743 11.929C138.626 11.7945 138.478 11.6269 138.558 11.4348C139.251 10.7342 140.202 10.3754 141.136 10.124Z" fill="white"/>
<path d="M162.967 10.1287C163.053 10.0914 163.14 10.0533 163.228 10.0161C163.071 10.3334 162.795 10.5704 162.63 10.8818C162.372 11.343 162.253 11.8651 162.163 12.3813C162.029 13.0946 162.29 13.7928 162.427 14.4833C162.736 15.1882 163.26 15.8381 163.972 16.1647C164.109 16.229 164.227 16.3238 164.335 16.4304C163.621 16.3306 163.078 15.7628 162.661 15.2161C162.44 14.8539 162.251 14.4697 162.125 14.0644C161.948 13.2571 161.965 12.4151 162.132 11.607C162.294 11.0612 162.576 10.5458 162.967 10.1287Z" fill="white"/>
<path d="M181.465 11.3496C182.29 10.6574 183.321 10.2131 184.385 10.0634C185.281 10.0414 186.22 9.95927 187.065 10.3274C187.502 10.5254 188.005 10.7573 188.192 11.2337C188.074 11.1457 187.953 11.0644 187.836 10.979C187.626 10.8165 187.404 10.6701 187.171 10.5457C186.959 10.4281 186.737 10.3206 186.496 10.2791C185.862 10.1598 185.211 10.0871 184.567 10.1674C183.886 10.2538 183.182 10.3875 182.61 10.7919C182.487 10.8605 182.364 10.9299 182.244 11.001C181.991 11.1491 181.746 11.3107 181.506 11.4765C181.646 11.8176 181.927 12.0621 182.165 12.3312C182.177 12.3701 182.202 12.4471 182.214 12.4861C181.923 12.2974 181.683 12.0427 181.459 11.782C181.341 11.6703 181.317 11.4461 181.465 11.3496Z" fill="white"/>
<path d="M132.514 10.2442C132.932 10.1833 133.351 10.0292 133.779 10.1096C134.231 10.1875 134.71 10.2323 135.098 10.5023C136.122 11.0752 136.554 12.3073 136.589 13.4226C136.608 15.0304 136.587 16.6382 136.599 18.2468C136.604 18.4931 136.576 18.7385 136.542 18.983C135.849 19.0051 135.154 18.9704 134.46 18.9898C134.232 18.989 133.994 19.0279 133.778 18.934C133.817 18.9348 133.895 18.9357 133.934 18.9357C134.763 18.9594 135.594 18.9932 136.42 18.9103C136.482 17.1104 136.423 15.3079 136.45 13.5072C136.383 12.5933 136.172 11.6159 135.505 10.9423C135.058 10.603 134.534 10.3051 133.959 10.2924C133.318 10.2577 132.634 10.262 132.066 10.6021C131.651 10.7875 131.335 11.1259 131.106 11.5118C130.996 11.5245 130.886 11.5372 130.776 11.5507C130.766 11.2123 130.77 10.8738 130.759 10.5353C129.945 10.5243 129.126 10.482 128.314 10.5573C128.342 13.3354 128.321 16.1144 128.324 18.8925C129.188 18.9086 130.051 18.8934 130.914 18.9001C130.985 17.1891 130.907 15.4738 130.951 13.7619C130.996 13.3735 131.257 13.0528 131.506 12.7676C131.876 12.3758 132.448 12.2531 132.956 12.4063C133.409 12.65 133.749 13.1019 133.812 13.6189C133.799 13.6612 133.773 13.745 133.76 13.7864C133.663 13.5436 133.598 13.2872 133.473 13.0562C133.346 12.8336 133.131 12.6813 132.917 12.5484C132.904 12.5442 132.877 12.5366 132.865 12.5324C132.6 12.5256 132.323 12.4884 132.067 12.5738C131.652 12.7507 131.321 13.1188 131.189 13.5512C130.995 14.1368 131.063 14.763 131.052 15.3697C131.045 16.5722 131.069 17.7755 131.04 18.978C130.103 19.0152 129.163 19.0093 128.225 18.9822C128.208 16.1203 128.213 13.2584 128.222 10.3965H128.297C129.164 10.3965 130.031 10.3889 130.898 10.4024C130.937 10.7274 130.974 11.0523 131.032 11.3747C131.062 11.3231 131.122 11.219 131.153 11.1674C131.29 10.8704 131.591 10.7248 131.853 10.5581C132.061 10.4312 132.265 10.2763 132.514 10.2442Z" fill="white"/>
<path d="M140.363 10.5182C141.27 10.1221 142.299 10.0671 143.267 10.2144C143.954 10.3193 144.699 10.5537 145.118 11.1469C144.951 11.0225 144.779 10.9057 144.602 10.7957C144.218 10.5689 143.801 10.3692 143.349 10.3447C142.351 10.2846 141.341 10.2804 140.363 10.5182Z" fill="white"/>
<path d="M151.038 11.1783C151.69 10.4794 152.639 10.113 153.584 10.0791C153.927 10.0859 154.262 10.1713 154.6 10.2145C155.033 10.2619 155.415 10.4912 155.765 10.7358C156.608 11.323 157.232 12.2386 157.46 13.2389C157.548 14.2873 157.642 15.3696 157.319 16.3902C157.218 16.7337 157.028 17.0401 156.819 17.3269C157.036 16.7684 157.312 16.2218 157.408 15.6243C157.459 15.0608 157.44 14.493 157.43 13.9277C157.427 13.5968 157.307 13.2854 157.196 12.9791C156.891 11.9746 156.168 11.1326 155.264 10.6122C154.543 10.2331 153.701 10.1967 152.908 10.2949C152.503 10.3516 152.122 10.52 151.779 10.7375C151.392 10.9287 151.177 11.3687 150.748 11.4796C150.731 11.395 150.714 11.3112 150.698 11.2283C150.73 10.9812 150.753 10.7332 150.745 10.4844C150.779 10.4844 150.845 10.4853 150.879 10.4861C150.898 10.7586 150.903 11.0328 150.913 11.3061C150.954 11.2638 150.995 11.2206 151.038 11.1783Z" fill="white"/>
<path d="M182.61 10.7917C183.182 10.3872 183.886 10.2535 184.568 10.1672C185.212 10.0868 185.862 10.1596 186.497 10.2789C186.737 10.3204 186.96 10.4278 187.171 10.5455C186.648 10.4134 186.115 10.3017 185.572 10.317C184.86 10.3339 184.116 10.2467 183.438 10.5133C183.164 10.6123 182.888 10.7062 182.61 10.7917Z" fill="white"/>
<path d="M128.299 10.234C129.057 10.2357 129.814 10.2391 130.572 10.2314C130.718 10.2441 130.911 10.212 131.002 10.3584C131.061 10.6266 131.059 10.9067 131.153 11.1674C131.122 11.219 131.061 11.3231 131.032 11.3747C130.973 11.0523 130.937 10.7273 130.898 10.4024C130.031 10.3888 129.164 10.3965 128.297 10.3965C128.298 10.3558 128.299 10.2746 128.299 10.234Z" fill="white"/>
<path d="M148.094 10.7098C148.091 10.5287 148.113 10.2486 148.355 10.2511C149.192 10.2257 150.029 10.2536 150.866 10.2393C150.928 10.5515 150.962 10.8688 151.038 11.1786C150.996 11.2209 150.954 11.264 150.914 11.3063C150.903 11.033 150.898 10.7588 150.88 10.4864C150.846 10.4855 150.779 10.4847 150.745 10.4847C149.934 10.4914 149.121 10.4965 148.31 10.4847C148.153 11.0889 148.281 11.7108 148.273 12.3235C148.269 15.4545 148.273 18.5863 148.27 21.7173C148.274 22.1472 148.176 22.5915 148.312 23.0112C148.541 23.0687 148.779 23.0569 149.014 23.0569C149.649 23.0442 150.285 23.0704 150.92 23.0332C150.975 21.4 150.881 19.7626 150.966 18.1311C151.176 18.2368 151.378 18.357 151.571 18.4924C151.699 18.5872 151.831 18.6752 151.967 18.7581C152.012 18.7869 152.102 18.8444 152.147 18.8723C152.196 18.8927 152.295 18.9333 152.344 18.9527C152.352 18.9553 152.37 18.9595 152.378 18.962C152.444 18.9654 152.572 18.973 152.637 18.9773C152.681 19.0847 152.764 19.1321 152.889 19.1169C153.348 19.2235 153.824 19.2413 154.281 19.1135L154.352 19.1025C154.466 19.1228 154.553 19.0839 154.613 18.9849C154.67 18.9756 154.783 18.9561 154.839 18.9468C154.851 18.9434 154.875 18.9375 154.887 18.9341C155.685 18.6278 156.384 18.0676 156.819 17.3272C157.028 17.0403 157.219 16.734 157.319 16.3904C157.643 15.3699 157.548 14.2876 157.461 13.2391C157.679 13.691 157.71 14.1995 157.705 14.6929C157.732 15.3716 157.528 16.0299 157.331 16.6713C156.974 17.5074 156.378 18.2563 155.616 18.759C154.799 19.287 153.781 19.3682 152.838 19.2371C152.197 19.1287 151.661 18.742 151.123 18.4052C151.08 19.876 151.118 21.3492 151.106 22.8216C151.103 22.9613 151.09 23.1508 150.927 23.1957C150.659 23.2447 150.385 23.2194 150.115 23.2219C149.453 23.2075 148.79 23.249 148.129 23.1948C148.074 22.5906 148.109 21.9839 148.103 21.378C148.099 17.8222 148.112 14.2655 148.094 10.7098Z" fill="white"/>
<path d="M132.066 10.6017C132.634 10.2615 133.318 10.2573 133.959 10.292C134.534 10.3047 135.058 10.6025 135.505 10.9419C136.172 11.6155 136.383 12.5928 136.45 13.5068C136.423 15.3075 136.482 17.1099 136.42 18.9098C135.594 18.9928 134.763 18.9589 133.934 18.9352C133.895 17.3782 133.927 15.8195 133.92 14.2624C133.915 14.0433 133.864 13.83 133.812 13.6185C133.749 13.1014 133.409 12.6495 132.956 12.4058C132.448 12.2527 131.876 12.3754 131.506 12.7672C131.445 12.6665 131.384 12.5666 131.324 12.4659C131.577 12.2002 131.88 11.9472 132.26 11.9066C132.872 11.7966 133.468 12.1334 133.857 12.5852C134.271 13.1031 134.38 13.7911 134.375 14.4367C134.367 15.6231 134.38 16.8087 134.363 17.9951C134.361 18.2489 134.405 18.4994 134.46 18.7465C134.963 18.7804 135.469 18.7846 135.974 18.7423C136.031 17.4501 135.98 16.1546 135.998 14.8615C135.99 14.193 135.956 13.5152 136.124 12.8611C135.996 12.735 135.856 12.6157 135.756 12.4634C135.564 12.1274 135.587 11.6849 135.298 11.4022C135.033 11.1492 134.689 10.9723 134.508 10.6398C133.889 10.9715 133.158 10.6364 132.515 10.881C132.11 11.0375 131.868 11.4369 131.485 11.6282C131.262 11.7297 131.011 11.6629 130.781 11.6282L130.776 11.5503C130.886 11.5368 130.996 11.5241 131.106 11.5114C131.335 11.1255 131.651 10.787 132.066 10.6017Z" fill="white"/>
<path d="M151.78 10.7375C152.123 10.52 152.505 10.3516 152.909 10.2949C153.703 10.1968 154.544 10.2332 155.266 10.6123C155.182 10.7274 155.098 10.8424 155.015 10.9575C154.421 10.614 153.721 10.7773 153.072 10.7333C152.782 10.7045 152.522 10.845 152.249 10.9101C152.083 10.8822 151.933 10.801 151.78 10.7375Z" fill="white"/>
<path d="M123.078 11.7817C123.392 11.8714 123.705 11.9654 124.021 12.05L124.065 12.0745C124.479 12.3352 124.924 12.545 125.321 12.8319C125.892 13.2381 126.215 13.9252 126.303 14.6064C126.331 15.2038 126.368 15.8156 126.226 16.4012C126.101 16.2997 125.976 16.1973 125.851 16.0949C125.892 15.4391 125.841 14.7748 125.97 14.1258C125.559 13.954 125.427 13.4911 125.103 13.2186C124.492 12.683 123.696 12.4469 122.973 12.1092C123.007 12.0001 123.043 11.8909 123.078 11.7817Z" fill="white"/>
<path d="M120.304 16.5137C120.426 16.5611 120.55 16.6042 120.672 16.6499C121.311 16.9672 122.038 16.8564 122.723 16.8445C122.373 17.0883 121.937 17.0747 121.532 17.0273C121.481 17.1103 121.432 17.1949 121.367 17.2702C121.262 17.2812 121.157 17.2744 121.052 17.2719C121.071 17.1636 121.091 17.0552 121.11 16.9478C120.917 16.9842 120.723 17.0341 120.525 17.0265C120.316 16.9419 120.26 16.7159 120.304 16.5137Z" fill="white"/>
<path d="M140.364 10.5181C141.341 10.2803 142.352 10.2846 143.349 10.3447C143.802 10.3692 144.218 10.5689 144.603 10.7957C144.56 10.8803 144.519 10.9649 144.477 11.0504C144.656 11.229 144.844 11.3982 145.04 11.5581C145.142 11.5217 145.243 11.4862 145.345 11.4507C145.506 11.6901 145.647 11.9457 145.736 12.2216C145.748 12.5821 145.676 12.9375 145.589 13.2861C145.483 13.7194 145.533 14.167 145.54 14.6079C145.566 15.708 145.538 16.808 145.56 17.9073C145.569 18.2263 145.524 18.5445 145.439 18.8517C145.633 18.8567 145.826 18.8643 146.02 18.8753C145.259 19.0057 144.48 18.9473 143.714 18.9007C143.713 18.6325 143.711 18.3634 143.707 18.0951C143.514 18.0596 143.313 17.9801 143.117 18.0393C142.814 18.151 142.584 18.4032 142.277 18.5047C142.068 18.5639 141.851 18.5826 141.637 18.6147C141.829 18.8483 142.102 18.9879 142.411 18.9447C141.609 19.2045 140.734 19.2274 139.933 18.9515C139.554 18.7146 139.109 18.5589 138.817 18.2043C138.41 17.7287 138.185 17.0949 138.211 16.4687C138.187 15.669 138.637 14.8871 139.319 14.4784C140.014 14.0587 140.826 13.9081 141.618 13.7938C142.285 13.6085 142.994 13.8209 143.655 13.6C143.622 13.1448 143.516 12.5931 143.064 12.3688C142.67 12.1065 142.179 12.1767 141.732 12.1716C141.168 12.1657 140.58 12.3823 140.209 12.8173C140.127 12.8782 140.044 12.9375 139.962 12.9967C139.558 12.61 139.184 12.1945 138.819 11.7722C138.751 11.6969 138.666 11.5522 138.765 11.4693C139.223 11.0453 139.781 10.7339 140.364 10.5181ZM141.858 15.3145C141.35 15.4338 140.672 15.6877 140.67 16.3122C140.58 16.7801 140.982 17.1516 141.394 17.2625C141.763 17.2912 142.137 17.2904 142.506 17.2548C143.296 16.9764 143.814 16.0879 143.617 15.2654C143.425 15.1875 143.208 15.2366 143.006 15.2265C142.623 15.2451 142.227 15.1875 141.858 15.3145Z" fill="white"/>
<path d="M183.439 10.5131C184.116 10.2466 184.86 10.3337 185.573 10.3168C186.115 10.3016 186.648 10.4133 187.172 10.5453C187.406 10.6697 187.627 10.8161 187.837 10.9786C188.343 11.5667 188.653 12.3004 188.744 13.0704C188.989 13.9589 188.865 14.8838 188.892 15.7927C188.874 16.7887 188.934 17.7881 188.854 18.7824C188.741 18.1003 188.804 17.4098 188.792 16.7235C188.787 15.8748 188.795 15.0269 188.796 14.1781C188.807 13.9775 188.745 13.7872 188.628 13.6255C188.431 14.1578 188.537 14.7315 188.514 15.285C188.493 16.479 188.575 17.6764 188.458 18.867C187.865 18.8737 187.273 18.8831 186.681 18.8534C186.664 18.5556 186.64 18.2586 186.596 17.9641C186.318 18.0715 185.952 18.1714 185.938 18.5302C185.881 18.6707 185.709 18.7223 185.587 18.7951C184.472 19.3442 183.068 19.2452 182.031 18.5674C182.113 18.465 182.196 18.3626 182.28 18.2602C182.063 18.0174 181.854 17.7677 181.655 17.5097C181.568 17.607 181.481 17.7043 181.395 17.8016C181.403 17.2626 181.678 16.7565 181.585 16.2116C181.607 15.9475 181.376 15.7952 181.208 15.637C181.274 15.5177 181.344 15.4 181.418 15.285C181.491 15.3603 181.565 15.4356 181.64 15.5117C181.893 15.1377 182.265 14.8771 182.659 14.6689C182.633 14.5547 182.607 14.4396 182.581 14.3253C182.865 14.206 183.155 14.1028 183.45 14.0122C183.851 13.8845 184.303 13.9632 184.671 13.7305L184.738 13.7008C185.307 13.733 185.877 13.711 186.448 13.7042C186.452 13.458 186.485 13.2066 186.434 12.9629C186.237 12.6515 185.961 12.3664 185.623 12.2107C185.213 12.1413 184.793 12.1692 184.379 12.1777C183.957 12.1844 183.587 12.4163 183.24 12.6312C182.746 12.4129 182.366 12.0067 181.866 11.8036C182.052 11.6191 182.234 11.4313 182.419 11.246C182.361 11.1639 182.303 11.0818 182.245 11.0006C182.366 10.9295 182.488 10.8601 182.611 10.7916C182.889 10.7061 183.164 10.6122 183.439 10.5131ZM184.7 14.8322C184.77 14.9431 184.839 15.0539 184.91 15.1656C184.547 15.2646 184.144 15.3366 183.869 15.6167C183.713 15.7664 183.564 15.9272 183.45 16.1117C183.395 16.3182 183.406 16.5433 183.444 16.7523C183.732 17.2253 184.29 17.3573 184.8 17.4242C185.393 17.3463 186.029 17.1221 186.345 16.5754C186.548 16.1354 186.68 15.6514 186.62 15.1631C186.583 15.1623 186.511 15.1589 186.476 15.158C186.475 15.0328 186.475 14.9075 186.477 14.7831C186.238 14.7129 185.99 14.6816 185.742 14.6892C185.392 14.6968 185.019 14.6554 184.7 14.8322Z" fill="white"/>
<path d="M148.309 10.4844C149.12 10.4962 149.932 10.4911 150.744 10.4844C150.752 10.7332 150.73 10.9811 150.697 11.2282C150.654 11.0386 150.609 10.8508 150.569 10.6612C150.538 10.6528 150.477 10.635 150.446 10.6257C150.427 10.7298 150.407 10.833 150.389 10.9371C149.881 10.9904 149.37 10.9667 148.86 10.9794C148.809 11.4254 148.779 11.873 148.782 12.3224C148.785 15.1149 148.782 17.9082 148.784 20.7007C148.791 21.3075 148.753 21.9142 148.797 22.5201C149.334 22.5683 149.874 22.5649 150.411 22.5218C150.451 21.2076 150.404 19.8917 150.428 18.5776C150.418 18.3745 150.498 18.1883 150.611 18.0258C150.802 18.6461 150.695 19.3011 150.718 19.9391C150.7 20.8903 150.762 21.8431 150.681 22.7926C149.965 22.84 149.246 22.8442 148.531 22.7934C148.48 22.1528 148.51 21.5106 148.502 20.87C148.502 18.2746 148.502 15.6801 148.502 13.0848C148.508 12.2758 148.485 11.4668 148.534 10.6595C148.495 10.6291 148.415 10.569 148.376 10.5385L148.309 10.4844Z" fill="white"/>
<path d="M148.273 12.3232C148.281 11.7105 148.153 11.0886 148.31 10.4844L148.378 10.5385C148.418 14.6638 148.363 18.7917 148.405 22.9178C149.205 22.9432 150.007 22.9432 150.808 22.9187C150.84 21.7847 150.811 20.65 150.821 19.516C150.825 18.9753 150.777 18.4278 150.888 17.8938C151.173 18.0216 151.393 18.2416 151.571 18.4921C151.378 18.3567 151.176 18.2366 150.966 18.1308C150.881 19.7623 150.975 21.3997 150.92 23.0329C150.285 23.0701 149.649 23.0439 149.014 23.0566C148.779 23.0566 148.541 23.0684 148.312 23.0109C148.176 22.5912 148.274 22.1469 148.27 21.717C148.273 18.586 148.269 15.4542 148.273 12.3232Z" fill="white"/>
<path d="M158.85 12.0668C158.899 11.543 158.951 10.9761 159.241 10.5259C159.177 10.8229 159.112 11.1216 159.086 11.4254C158.955 12.0541 158.844 12.7007 158.931 13.3429C159.009 13.9717 159.13 14.5945 159.278 15.2105C159.097 15.0599 159.06 14.8221 159.003 14.608C158.764 13.7821 158.864 12.9139 158.85 12.0668Z" fill="white"/>
<path d="M193.854 10.5253C194.484 10.505 195.115 10.4999 195.745 10.5304C195.772 11.1371 195.771 11.7455 195.748 12.3523C195.111 12.3954 194.473 12.3548 193.836 12.3827C193.775 13.7079 193.815 15.0356 193.817 16.3616C193.709 16.3929 193.603 16.4243 193.497 16.4556C193.395 16.2508 193.329 16.0282 193.34 15.7972C193.344 14.9205 193.355 14.0447 193.338 13.168C193.343 12.9285 193.316 12.651 193.501 12.4657C193.67 12.2786 193.841 12.0637 194.08 11.9647C194.485 11.9215 194.896 11.9825 195.299 11.9021C195.305 11.6025 195.299 11.3021 195.277 11.0034C194.821 10.989 194.358 11.0076 193.915 10.8858C193.895 10.7656 193.874 10.6455 193.854 10.5253Z" fill="white"/>
<path d="M181.507 11.4766C181.747 11.3107 181.992 11.1491 182.245 11.001C182.302 11.0822 182.36 11.1643 182.418 11.2464C182.234 11.4317 182.051 11.6196 181.865 11.804C182.365 12.0071 182.745 12.4133 183.239 12.6316C183.091 12.7239 182.942 12.8119 182.792 12.899C182.585 12.7078 182.377 12.5191 182.166 12.3312C181.927 12.0621 181.646 11.8176 181.507 11.4766Z" fill="white"/>
<path d="M184.7 14.8321C185.018 14.6553 185.392 14.6967 185.742 14.6891C185.99 14.6815 186.238 14.7128 186.477 14.783C186.475 14.9074 186.475 15.0327 186.476 15.1579C185.953 15.1418 185.43 15.1384 184.91 15.1655C184.839 15.0538 184.77 14.943 184.7 14.8321Z" fill="white"/>
<path d="M181.14 17.4226C181.166 16.8277 181.079 16.2235 181.207 15.6362C181.375 15.7945 181.606 15.9468 181.584 16.2108C181.677 16.7558 181.402 17.2618 181.394 17.8008C181.481 17.7035 181.568 17.6062 181.654 17.5089C181.853 17.767 182.062 18.0166 182.279 18.2595C182.196 18.3619 182.112 18.4643 182.03 18.5667C181.63 18.2756 181.325 17.8804 181.14 17.4226Z" fill="white"/>
<path d="M144.602 10.7964C144.779 10.9064 144.951 11.0232 145.118 11.1476C145.198 11.2449 145.273 11.3473 145.345 11.4514C145.242 11.4869 145.141 11.5224 145.039 11.5588C144.843 11.3989 144.655 11.2296 144.477 11.0511C144.518 10.9656 144.559 10.881 144.602 10.7964Z" fill="white"/>
<path d="M187.836 10.9795C187.953 11.065 188.075 11.1462 188.193 11.2342C188.249 11.2833 188.296 11.3417 188.333 11.4085C188.786 12.3182 189.013 13.3404 188.995 14.3559C188.98 15.885 189.019 17.4158 188.976 18.9449C188.165 19.0168 187.347 18.9669 186.534 18.9695C186.524 18.7029 186.526 18.4363 186.529 18.1698C186.306 18.2434 186.131 18.4059 185.938 18.5311C185.951 18.1723 186.317 18.0725 186.595 17.965C186.639 18.2595 186.664 18.5565 186.68 18.8544C187.272 18.884 187.864 18.8747 188.457 18.8679C188.589 18.8662 188.722 18.8645 188.856 18.8637L188.854 18.7833C188.933 17.789 188.873 16.7896 188.892 15.7936C188.864 14.8848 188.988 13.9599 188.744 13.0713C188.652 12.3013 188.342 11.5676 187.836 10.9795Z" fill="white"/>
<path d="M121.59 11.2246C121.906 11.3659 122.231 11.4844 122.554 11.6079C122.326 11.6469 122.101 11.7281 121.868 11.7163C121.703 11.6731 121.558 11.5783 121.408 11.4988C121.469 11.4074 121.529 11.316 121.59 11.2246Z" fill="white"/>
<path d="M145.736 12.2222C145.866 12.6707 146.029 13.12 146.015 13.5939C146.028 15.3549 146.022 17.115 146.02 18.876C145.826 18.865 145.633 18.8573 145.439 18.8523C145.524 18.5451 145.569 18.2269 145.56 17.9079C145.538 16.8087 145.566 15.7086 145.54 14.6085C145.533 14.1676 145.483 13.72 145.589 13.2867C145.676 12.9381 145.748 12.5827 145.736 12.2222Z" fill="white"/>
<path d="M188.333 11.4077C188.442 11.4729 188.547 11.5524 188.592 11.6777C188.802 12.1532 188.991 12.6508 189.033 13.1738C189.066 13.5969 189.192 14.009 189.184 14.4355C189.176 15.621 189.18 16.8074 189.181 17.993C189.174 18.3111 189.216 18.6352 189.147 18.9483C188.936 19.192 188.562 19.0871 188.278 19.115C187.675 19.0736 187.055 19.198 186.467 19.0279C187.299 18.95 188.137 18.9932 188.972 19.0067L188.976 18.9441C189.019 17.415 188.98 15.8842 188.994 14.3551C189.012 13.3396 188.785 12.3174 188.333 11.4077Z" fill="white"/>
<path d="M122.621 11.6294C122.75 11.6734 122.879 11.7199 123.009 11.7631C122.893 11.8714 122.779 11.9848 122.667 12.0965C122.562 12.0187 122.458 11.9408 122.354 11.8621C122.442 11.7843 122.531 11.7072 122.621 11.6294Z" fill="white"/>
<path d="M124.065 12.0747C124.355 12.0959 124.644 12.1746 124.886 12.3421C125.55 12.7915 126.197 13.383 126.399 14.1894C126.494 14.7149 126.562 15.2539 126.471 15.7854C126.47 17.0809 125.558 18.2318 124.429 18.7869C123.967 18.9984 123.489 19.2159 122.974 19.2523C122.226 19.3031 121.476 19.3022 120.729 19.2481C120.186 19.1939 119.667 18.9967 119.159 18.8072C118.548 18.4856 117.916 18.1505 117.449 17.6293C117.377 17.4135 117.606 17.2392 117.735 17.0936C118.239 16.6367 118.65 16.0908 119.146 15.628C119.273 15.5019 119.468 15.5933 119.564 15.7117C119.808 15.9817 120.115 16.1797 120.403 16.3989C120.494 16.4809 120.582 16.5673 120.672 16.6502C120.55 16.6045 120.426 16.5613 120.304 16.514C120.084 16.4056 119.892 16.2508 119.714 16.0841C119.593 15.9715 119.499 15.8074 119.326 15.7693C118.989 15.9698 118.753 16.2931 118.474 16.5622C118.207 16.8465 117.89 17.0877 117.676 17.4177C117.596 17.5675 117.734 17.6843 117.826 17.7858C118.1 18.0642 118.439 18.2665 118.783 18.4467C119.005 18.5457 119.231 18.6346 119.456 18.7293C119.727 18.8546 120.013 18.9502 120.313 18.9739C120.348 18.979 120.419 18.9883 120.454 18.9925C121.031 19.2337 121.666 19.1254 122.274 19.1491C122.892 19.1728 123.491 18.9841 124.063 18.7691C124.122 18.7454 124.238 18.6989 124.296 18.676C124.973 18.3705 125.557 17.8459 125.89 17.1774C126.025 16.9294 126.132 16.668 126.226 16.4014C126.368 15.8158 126.331 15.204 126.302 14.6066C126.214 13.9254 125.892 13.2383 125.321 12.8321C124.924 12.5452 124.479 12.3353 124.065 12.0747Z" fill="white"/>
<path d="M140.21 12.8171C140.581 12.3821 141.169 12.1655 141.733 12.1714C142.18 12.1765 142.671 12.1063 143.065 12.3686C143.517 12.5928 143.623 13.1446 143.656 13.5998C143.603 13.5981 143.5 13.5931 143.447 13.5905C143.443 13.5474 143.434 13.4602 143.43 13.4171C143.412 12.9643 143.125 12.4913 142.657 12.3965C142.092 12.1697 141.476 12.3187 140.931 12.5285C140.675 12.6402 140.449 12.8162 140.177 12.8899L140.21 12.8171Z" fill="white"/>
<path d="M183.239 12.6308C183.586 12.4159 183.956 12.184 184.378 12.1773C184.792 12.1688 185.212 12.1409 185.622 12.2103C185.96 12.366 186.236 12.6512 186.433 12.9626C186.484 13.2063 186.451 13.4576 186.447 13.7038C185.877 13.7106 185.306 13.7326 184.737 13.7005L184.634 13.681C185.168 13.4796 185.755 13.5803 186.313 13.5558C186.35 13.186 186.237 12.7891 185.922 12.5674C185.411 12.278 184.778 12.184 184.218 12.3846C183.781 12.4929 183.401 12.7375 183.035 12.9913C182.675 13.2393 182.341 12.7789 182.214 12.4853C182.202 12.4464 182.178 12.3694 182.166 12.3304C182.377 12.5183 182.585 12.707 182.792 12.8983C182.942 12.8111 183.091 12.7231 183.239 12.6308Z" fill="white"/>
<path d="M152.327 12.3968C152.705 12.3469 153.092 12.3511 153.472 12.3883C154.032 12.599 154.523 13.0374 154.785 13.5764C154.962 14.0105 154.929 14.4912 154.925 14.9507C154.927 15.2672 154.855 15.5794 154.73 15.8697C154.552 16.2268 154.244 16.5094 153.911 16.721C153.594 16.8631 153.251 16.9494 152.907 16.9884C152.466 16.9461 152.026 16.8005 151.671 16.5306C151.572 16.4544 151.482 16.3689 151.403 16.2742C151.194 16.0178 151.043 15.7233 150.868 15.4449C150.808 14.9507 150.813 14.4455 150.861 13.9504C151.008 13.6247 151.176 13.3006 151.413 13.0289C151.66 12.7437 152.01 12.5872 152.327 12.3968ZM152.436 12.5542C151.411 12.9257 150.742 14.1188 151.033 15.1808C151.174 15.6209 151.337 16.1007 151.73 16.3816C151.999 16.5788 152.29 16.8047 152.644 16.787C153.038 16.787 153.476 16.8403 153.823 16.6109C154.261 16.3258 154.595 15.8815 154.709 15.3687C154.937 14.6858 154.791 13.9335 154.455 13.3141C154.281 13.0052 153.957 12.8326 153.658 12.6667C153.29 12.4535 152.839 12.4958 152.436 12.5542Z" fill="white"/>
<path d="M191.241 12.3667C191.41 12.4242 191.586 12.4928 191.707 12.629C191.772 12.8296 191.761 13.0445 191.766 13.2535C191.751 14.2131 191.757 15.1727 191.762 16.1324C191.79 16.6249 191.432 17.0615 191.581 17.5616C191.669 17.4152 191.757 17.2671 191.844 17.119C191.977 17.4745 192.048 17.8874 192.351 18.1472C192.507 18.2826 192.667 18.4332 192.87 18.4958C193.163 18.5466 193.463 18.539 193.76 18.5703C193.682 18.6727 193.606 18.7751 193.53 18.8783C193.974 19.0069 194.437 18.9706 194.882 18.8656C194.806 18.781 194.732 18.6964 194.657 18.6126C194.849 18.5585 195.047 18.5145 195.225 18.4197C195.318 18.1624 195.277 17.884 195.268 17.6175C194.97 17.5667 194.676 17.499 194.392 17.3974C194.657 17.257 194.943 17.1647 195.24 17.1165C195.382 17.1038 195.525 17.0903 195.669 17.0759C195.698 17.6894 195.704 18.3046 195.665 18.9181C195.285 18.9519 194.912 19.023 194.536 19.0797C194 19.1652 193.467 19.0196 192.945 18.9172C192.283 18.7615 191.848 18.192 191.499 17.6505C191.439 17.2282 191.3 16.8178 191.3 16.3879C191.297 15.738 191.306 15.0881 191.302 14.4382C191.282 13.7477 191.361 13.0513 191.241 12.3667Z" fill="white"/>
<path d="M188.627 13.6255C188.744 13.7871 188.806 13.9775 188.795 14.1781C188.794 15.0268 188.785 15.8747 188.79 16.7235C188.802 17.4098 188.74 18.1003 188.853 18.7823L188.855 18.8627C188.721 18.8636 188.588 18.8653 188.456 18.8669C188.574 17.6763 188.492 16.4789 188.513 15.2849C188.536 14.7315 188.43 14.1578 188.627 13.6255Z" fill="white"/>
<path d="M174.835 12.511C175.346 12.2453 176.032 12.4154 176.382 12.8673C176.559 13.1313 176.717 13.43 176.721 13.7558C176.742 15.4812 176.697 17.2075 176.743 18.9321C177.583 18.949 178.423 18.9177 179.261 18.9499C179.305 18.9524 179.391 18.9566 179.433 18.9583C178.502 19.0252 177.567 19.004 176.635 18.9812C176.582 17.9192 176.625 16.8555 176.611 15.7927C176.598 15.048 176.648 14.2915 176.49 13.5586C176.424 13.1787 176.179 12.8495 175.869 12.6295C175.573 12.4247 175.186 12.4476 174.891 12.6397C174.655 12.7911 174.406 12.9494 174.25 13.1872C174.015 13.6196 173.935 14.1205 173.944 14.608C173.951 15.9357 173.94 17.2625 173.951 18.5902C173.946 18.7332 173.957 18.883 173.905 19.021C173.452 19.0768 172.994 19.0294 172.539 19.043C172.108 19.0294 171.673 19.0717 171.244 19.0303C171.228 19.0066 171.194 18.96 171.177 18.9363L171.257 18.927C172.06 18.8559 172.876 18.9913 173.673 18.8585C173.701 18.8449 173.756 18.8187 173.784 18.8052C173.809 17.1745 173.771 15.5422 173.802 13.9107C173.903 13.6035 174.001 13.2938 174.144 13.0027C174.363 12.8241 174.582 12.6405 174.835 12.511Z" fill="white"/>
<path d="M174.892 12.6395C175.187 12.4474 175.574 12.4246 175.87 12.6294C175.544 12.6395 175.217 12.6421 174.892 12.6395Z" fill="white"/>
<path d="M142.06 13.6023C142.467 13.3442 142.972 13.4483 143.428 13.417C143.432 13.4601 143.441 13.5473 143.446 13.5905C142.984 13.582 142.522 13.6091 142.06 13.6023Z" fill="white"/>
<path d="M140.719 13.7716C141.151 13.6244 141.61 13.6117 142.061 13.6024C142.523 13.6091 142.985 13.5821 143.447 13.5905C143.499 13.5931 143.603 13.5981 143.655 13.5998C142.994 13.8207 142.285 13.6083 141.618 13.7936C140.826 13.9079 140.015 14.0585 139.319 14.4782C138.637 14.8869 138.187 15.6688 138.211 16.4685C138.185 17.0947 138.41 17.7285 138.817 18.2041C139.109 18.5587 139.554 18.7144 139.933 18.9513C139.8 18.9598 139.657 18.9885 139.537 18.9107C138.785 18.5502 138.188 17.8233 138.089 16.9822C138.031 16.3492 138.036 15.6485 138.446 15.123C138.948 14.3428 139.865 14.006 140.719 13.7716Z" fill="white"/>
<path d="M154.785 13.5762C154.961 13.6202 155.141 13.6583 155.308 13.7336C155.441 13.9164 155.336 14.1355 155.272 14.3225C155.196 14.3242 155.12 14.3259 155.044 14.3285C155.052 14.5172 155.059 14.7067 155.064 14.8963C155.16 14.9242 155.258 14.9521 155.356 14.98C155.366 15.1662 155.404 15.3735 155.288 15.5377C155.194 15.5868 155.087 15.5969 154.985 15.6189C155.042 15.7467 155.146 15.8745 155.093 16.0226C154.939 16.1224 154.84 15.949 154.73 15.8694C154.856 15.5792 154.928 15.2669 154.926 14.9504C154.929 14.4909 154.963 14.0103 154.785 13.5762Z" fill="white"/>
<path d="M121.499 13.8549C121.807 13.8126 122.107 13.689 122.421 13.6966C122.727 13.7838 122.973 14.0004 123.23 14.1807C123.139 14.2729 123.048 14.3643 122.958 14.4565C122.518 14.2001 122.034 14.0292 121.551 13.8718L121.499 13.8549Z" fill="white"/>
<path d="M150.359 15.2053C150.337 14.992 150.524 14.9421 150.694 14.9243C150.705 15.102 150.715 15.2806 150.725 15.46C150.76 15.4557 150.832 15.4481 150.868 15.4447C151.043 15.7231 151.194 16.0176 151.403 16.274C151.199 16.2757 150.944 16.3146 150.809 16.12C150.619 15.8399 150.441 15.5344 150.359 15.2053Z" fill="white"/>
<path d="M176.49 13.5586C176.648 14.2914 176.598 15.0479 176.611 15.7926C176.625 16.8554 176.582 17.9191 176.635 18.9811C177.567 19.004 178.503 19.0251 179.433 18.9583L179.522 18.9608C179.331 19.1512 179.042 19.0742 178.801 19.0928C178.053 19.0649 177.301 19.1385 176.555 19.0539C176.367 18.4057 176.487 17.7254 176.456 17.0619C176.482 15.8941 176.397 14.723 176.49 13.5586Z" fill="white"/>
<path d="M133.812 13.6191C133.864 13.8307 133.915 14.0439 133.92 14.2631C133.927 15.8201 133.894 17.3789 133.934 18.9359C133.895 18.9359 133.817 18.9351 133.778 18.9342L133.723 18.9334C133.746 17.4923 133.728 16.0503 133.733 14.6084C133.742 14.335 133.694 14.0549 133.76 13.7867C133.773 13.7452 133.799 13.6615 133.812 13.6191Z" fill="white"/>
<path d="M183.221 13.9187C183.688 13.7749 184.18 13.6454 184.671 13.73C184.303 13.9627 183.851 13.884 183.451 14.0118C183.155 14.1024 182.865 14.2056 182.582 14.3249C182.111 14.5238 181.695 14.8521 181.418 15.2845C181.344 15.3996 181.274 15.5172 181.208 15.6365C181.08 16.2238 181.167 16.828 181.141 17.4229L181.126 17.3679C180.962 16.795 181.006 16.1908 181.087 15.6086C181.179 15.2473 181.463 14.985 181.715 14.7294C182.124 14.3156 182.684 14.1074 183.221 13.9187Z" fill="white"/>
<path d="M121.32 13.914C121.377 13.903 121.492 13.8827 121.55 13.8726C122.032 14.03 122.516 14.2009 122.956 14.4573C123.133 14.5918 123.298 14.7425 123.452 14.9024C123.657 15.3128 123.643 15.8138 123.46 16.2301C123.244 16.4679 123.003 16.6871 122.722 16.8445C122.037 16.8563 121.309 16.9672 120.671 16.6498C120.581 16.5669 120.493 16.4806 120.401 16.3985C120.963 16.5441 121.511 16.8318 122.108 16.7573C122.637 16.7057 123.256 16.4662 123.404 15.8984C123.642 15.3636 123.24 14.778 122.77 14.5318C122.318 14.2508 121.765 14.2026 121.32 13.914Z" fill="white"/>
<path d="M173.66 14.4319C173.64 14.2441 173.706 14.0689 173.802 13.9106C173.771 15.5421 173.809 17.1745 173.784 18.8052C173.756 18.8187 173.701 18.8449 173.673 18.8585C173.658 17.3827 173.682 15.9069 173.66 14.4319Z" fill="white"/>
<path d="M183.868 15.6171C184.143 15.337 184.546 15.265 184.909 15.166C185.43 15.1389 185.953 15.1423 186.475 15.1584C186.51 15.1593 186.582 15.1626 186.619 15.1635C186.679 15.6518 186.548 16.1358 186.344 16.5758C186.028 17.1225 185.392 17.3467 184.799 17.4246C184.289 17.3577 183.731 17.2257 183.443 16.7527C183.406 16.5437 183.394 16.3186 183.449 16.1121C183.563 15.9276 183.712 15.7668 183.868 15.6171ZM184.372 15.474C184.009 15.5807 183.641 15.8862 183.658 16.2974C183.653 16.5166 183.636 16.795 183.849 16.9312C184.42 17.3535 185.253 17.2824 185.819 16.8864C186.29 16.5327 186.475 15.8997 186.358 15.3336C185.694 15.3048 185.021 15.3243 184.372 15.474Z" fill="white"/>
<path d="M167.41 15.9913C167.644 15.8263 167.799 15.4599 168.14 15.5614C168.325 15.6681 168.45 15.8534 168.607 15.9972C169.014 16.4263 169.509 16.7681 169.884 17.2268C169.957 17.4781 169.681 17.6161 169.533 17.7701C169.151 18.0459 168.807 18.3937 168.358 18.5579C167.925 18.706 167.512 18.9209 167.055 18.9869C166.98 18.8625 166.907 18.7373 166.834 18.6121C167.14 18.4614 167.459 18.6027 167.756 18.7017C167.71 18.6053 167.664 18.5097 167.62 18.414C168.186 18.2118 168.716 17.8911 169.147 17.4714C169.348 17.281 169.096 17.055 168.971 16.9061C168.671 16.6158 168.405 16.274 168.037 16.0675C167.722 16.0869 167.591 16.4534 167.338 16.6031C166.843 16.9052 166.268 17.0897 165.686 17.0965C165.271 17.11 164.845 17.1176 164.452 16.9636C165.084 16.6344 165.819 16.857 166.496 16.8155C165.951 16.6801 165.388 16.7893 164.834 16.7487C164.661 16.7461 164.51 16.6522 164.362 16.5727C164.442 16.5744 164.6 16.5769 164.68 16.5777C165.126 16.6023 165.576 16.615 166.023 16.5887C166.511 16.4652 167 16.2892 167.41 15.9913Z" fill="white"/>
<path d="M180.862 16.7166C180.847 16.3383 180.854 15.9279 181.087 15.6089C181.005 16.1911 180.961 16.7953 181.126 17.3682C180.902 17.2336 180.883 16.9493 180.862 16.7166Z" fill="white"/>
<path d="M118.473 16.5624C118.753 16.2933 118.989 15.9701 119.326 15.7695C119.498 15.8076 119.592 15.9718 119.713 16.0843C119.593 16.0132 119.469 15.9481 119.347 15.8812C119.349 15.9853 119.352 16.0894 119.354 16.1943C118.983 16.5489 118.55 16.8485 118.252 17.2733C118.086 17.5043 118.24 17.7886 118.285 18.0348C118.402 18.0086 118.519 17.9815 118.637 17.9545C118.654 17.9841 118.687 18.0442 118.704 18.0746C118.667 18.1254 118.631 18.177 118.595 18.2278C118.765 18.2176 118.934 18.2075 119.104 18.1973C118.996 18.2803 118.89 18.364 118.782 18.447C118.439 18.2667 118.099 18.0645 117.825 17.7861C117.734 17.6845 117.595 17.5677 117.675 17.418C117.89 17.0879 118.207 16.8468 118.473 16.5624Z" fill="white"/>
<path d="M164.196 18.9136C164.337 18.8222 164.487 18.7299 164.662 18.7376C165.44 18.7325 166.262 18.6292 166.98 19.0024C166.842 19.0388 166.704 19.0828 166.563 19.1048C165.79 18.867 164.969 19.1556 164.196 18.9136Z" fill="white"/>
<path d="M151.669 16.5308C152.025 16.8007 152.465 16.9463 152.906 16.9886C153.25 16.9496 153.593 16.8633 153.91 16.7212C153.999 16.7855 154.09 16.8498 154.181 16.9149C154.002 17.0808 153.822 17.2678 153.581 17.3364C153.35 17.2873 153.144 17.1493 152.907 17.1324C152.643 17.1553 152.414 17.3245 152.151 17.3347C151.823 17.2729 151.625 16.9776 151.444 16.7254C151.519 16.6602 151.594 16.5951 151.669 16.5308Z" fill="white"/>
<path d="M160.24 16.7361C160.332 16.6861 160.424 16.6354 160.517 16.5854C160.824 16.8892 161.112 17.2167 161.465 17.4689C161.679 17.6246 161.883 17.7938 162.075 17.9766C162.033 18.0739 161.99 18.1713 161.948 18.2686C161.246 17.9275 160.717 17.336 160.24 16.7361Z" fill="white"/>
<path d="M143.118 18.0393C143.313 17.9801 143.515 18.0597 143.708 18.0952C143.641 18.1079 143.505 18.1341 143.438 18.1477C143.413 18.1849 143.363 18.2594 143.339 18.2966C143.131 18.6283 142.744 18.773 142.411 18.9448C142.102 18.9879 141.83 18.8483 141.638 18.6148C141.851 18.5826 142.068 18.564 142.277 18.5048C142.585 18.4032 142.815 18.151 143.118 18.0393Z" fill="white"/>
<path d="M161.947 18.2691C162.119 18.2124 162.298 18.0964 162.485 18.1574C162.783 18.2403 163.078 18.3384 163.368 18.4485C163.683 18.572 163.895 18.8496 164.106 19.1009C163.419 18.9892 162.776 18.7319 162.128 18.4925C162.106 18.4815 162.062 18.4603 162.039 18.4493C162.016 18.4045 161.97 18.3148 161.947 18.2691Z" fill="white"/>
<path d="M119.456 18.7282C119.804 18.5649 120.188 18.4558 120.571 18.5624C120.485 18.6995 120.399 18.8366 120.312 18.9728C120.013 18.9491 119.727 18.8535 119.456 18.7282Z" fill="white"/>
<path d="M162.128 18.4922C162.776 18.7317 163.419 18.9889 164.106 19.1006C164.515 19.1717 164.933 19.1463 165.347 19.1505C165.752 19.1455 166.161 19.1692 166.564 19.1048C166.705 19.0828 166.842 19.0388 166.981 19.0025L167.055 18.9872C167.512 18.9212 167.925 18.7063 168.359 18.5582C168.39 18.5751 168.453 18.6081 168.485 18.625C167.807 18.9999 167.055 19.2766 166.274 19.2986C165.541 19.3266 164.803 19.3452 164.072 19.2656C163.569 19.2149 163.097 19.0278 162.628 18.851C162.437 18.7714 162.2 18.713 162.128 18.4922Z" fill="white"/>
<path d="M154.851 18.9383L154.885 18.9341C154.873 18.9374 154.85 18.9433 154.838 18.9467L154.851 18.9383Z" fill="white"/>
<path d="M152.638 18.9768C152.758 18.9565 152.842 19.003 152.889 19.1164C152.765 19.1316 152.681 19.0843 152.638 18.9768Z" fill="white"/>
<path d="M154.353 19.1025C154.404 18.9874 154.491 18.9485 154.614 18.9849C154.554 19.0838 154.467 19.1228 154.353 19.1025Z" fill="white"/>
<path d="M193.009 19.041C193.191 19.0782 193.372 19.1248 193.553 19.1713C193.35 19.1857 193.147 19.1874 192.944 19.1789C192.96 19.1443 192.993 19.0749 193.009 19.041Z" fill="white"/>
<path d="M194.853 19.1706C195.138 19.0919 195.426 19.0251 195.72 18.9912C195.486 19.2061 195.15 19.2121 194.853 19.1706Z" fill="white"/>
<path d="M152.888 19.1162C153.351 19.1119 153.816 19.1153 154.28 19.1128C153.823 19.2406 153.347 19.2228 152.888 19.1162Z" fill="white"/>
<path d="M120.729 19.248C121.476 19.3022 122.225 19.3031 122.974 19.2523C122.651 19.4943 122.228 19.4207 121.851 19.4368C121.475 19.4114 121.052 19.4892 120.729 19.248Z" fill="white"/>
</svg>
