<svg width="201" height="109" viewBox="0 0 201 109" fill="none" xmlns="http://www.w3.org/2000/svg">
<path d="M32.01 28.7261L37.1104 28.6675C37.066 30.3979 37.0142 32.1279 36.9736 33.8583C35.2725 33.8877 33.5705 33.9056 31.8695 33.9177C31.9204 32.1872 31.9644 30.4565 32.01 28.7261Z" fill="white"/>
<path d="M17.9418 33.9446C19.5924 33.4069 21.3677 33.3416 23.0351 33.6731C24.4797 33.9681 25.8624 34.6161 26.8983 35.6516C27.7509 36.4928 28.343 37.6245 28.4173 38.8484C26.9801 39.1867 25.5425 39.5229 24.1053 39.8604C24.0536 39.3987 23.896 38.9522 23.634 38.5744C23.275 38.0346 22.6789 37.6982 22.0617 37.517C21.3092 37.3085 20.4956 37.3112 19.7228 37.4882C19.1491 37.6271 18.5658 37.909 18.2198 38.4124C17.8929 38.8797 17.8386 39.5314 18.1274 40.0074C18.3313 40.3446 18.6722 40.5735 19.0325 40.7234C19.4676 40.908 19.945 40.9664 20.4096 41.0546C21.2952 41.2196 22.1831 41.3767 23.0678 41.547C24.4108 41.8237 25.7146 42.3704 26.7283 43.2835C27.4462 43.9193 27.9841 44.7579 28.2369 45.692C28.5178 46.7227 28.4786 47.844 28.1608 48.8844C27.7972 50.0732 27.022 51.1416 26.0074 51.8797C24.5752 52.9432 22.8024 53.4395 21.0663 53.541C19.1835 53.6529 17.2601 53.3202 15.6412 52.4005C14.8342 51.9412 14.1262 51.3205 13.5597 50.5898C12.9538 49.8048 12.5697 48.8449 12.4957 47.8399L12.4967 47.8061C13.9732 47.4669 15.4501 47.1306 16.9266 46.7931C16.9438 47.4769 17.2179 48.1422 17.7063 48.6092C18.3867 49.2999 19.3803 49.6037 20.351 49.6325C21.0298 49.647 21.7318 49.5808 22.368 49.2987C22.8008 49.1078 23.1992 48.779 23.3795 48.3323C23.5476 47.9121 23.5569 47.4253 23.3742 47.022C23.1978 46.642 22.8385 46.391 22.4655 46.2223C21.8814 45.9615 21.2398 45.8576 20.6176 45.7094C19.7783 45.5155 18.9343 45.3389 18.0986 45.1318C16.7471 44.774 15.4174 44.1864 14.449 43.1747C13.7025 42.4049 13.2833 41.3499 13.2259 40.2676C13.1365 38.9603 13.5022 37.602 14.2858 36.5105C15.1638 35.2659 16.5196 34.4163 17.9418 33.9446Z" fill="white"/>
<path d="M50.6043 33.5314C52.0723 33.0934 53.6226 32.9973 55.1153 33.1945C56.3608 33.3607 57.5711 33.7576 58.6337 34.4014C59.3739 34.854 60.0605 35.4049 60.6028 36.0827C61.3815 37.0397 61.9546 38.1704 62.2364 39.3844C60.6906 39.916 59.1451 40.4484 57.5982 40.9755C57.4246 40.3845 57.1799 39.8088 56.8093 39.3182C56.4137 38.7862 55.8674 38.3684 55.2452 38.1259C54.5941 37.87 53.8755 37.7992 53.1699 37.8431C51.8212 37.9204 50.4636 38.5735 49.636 39.6824C49.0733 40.4149 48.7378 41.2977 48.5951 42.1923C48.483 42.8994 48.4679 43.6191 48.5578 44.3219C48.6657 45.1563 48.9441 45.9707 49.4245 46.6537C50.1447 47.697 51.366 48.3329 52.6359 48.4642C53.6696 48.5664 54.768 48.3886 55.6809 47.8284C56.6373 47.2525 57.358 46.3051 57.6767 45.2482C59.1705 45.7305 60.6651 46.2111 62.1571 46.6983C61.6937 48.2316 60.8008 49.6478 59.6003 50.7347C58.3008 51.9372 56.6375 52.7161 54.9184 53.0169C52.6152 53.4261 50.1906 53.1078 48.1765 52.0085C47.0599 51.4061 46.0845 50.5618 45.322 49.5552C44.2577 48.1734 43.6066 46.4819 43.4212 44.7274C43.2412 43.0053 43.4533 41.2203 44.0881 39.5738C44.6473 38.1243 45.5389 36.7872 46.694 35.7269C47.8128 34.7098 49.1656 33.9559 50.6043 33.5314Z" fill="white"/>
<path d="M36.9707 33.8628C38.6706 33.8449 40.3711 33.8238 42.0711 33.8051C42.0266 35.4477 41.9845 37.0903 41.938 38.7325C40.2389 38.7507 38.5393 38.7711 36.8397 38.791C36.8821 37.1484 36.9287 35.5054 36.9707 33.8628Z" fill="white"/>
<path d="M31.5092 47.4387C31.586 44.5755 31.6641 41.7124 31.7393 38.8493C33.4393 38.8294 35.1393 38.8103 36.8393 38.7908C36.775 41.2013 36.7099 43.6114 36.6452 46.0219C36.6326 46.4131 36.627 46.8075 36.6965 47.1912C36.7663 47.5823 36.9082 47.9791 37.205 48.2497C37.6383 48.6379 38.2379 48.7835 38.8184 48.8036C39.8129 48.8416 40.8526 48.5977 41.6894 48.0099C41.653 49.3974 41.6187 50.7844 41.5765 52.1719C41.0619 52.5882 40.4437 52.8488 39.8191 53.0348C38.8316 53.3222 37.799 53.4095 36.7873 53.349C35.8352 53.2886 34.8881 53.0716 34.0555 52.6242C33.5035 52.3243 32.9984 51.93 32.6142 51.4329C32.1695 50.8661 31.8658 50.1938 31.694 49.4895C31.5299 48.8238 31.484 48.1296 31.5092 47.4387Z" fill="white"/>
<path d="M143.218 58.2395C145.071 57.5385 147.062 57.2084 149.041 57.2281C150.076 57.2199 151.132 57.4074 152.044 57.9155C152.121 57.9434 152.203 58.0348 152.289 57.9836C153.443 57.5272 154.677 57.2842 155.913 57.2199C157.005 57.1652 158.131 57.2752 159.136 57.7298C159.942 58.0881 160.645 58.7106 161.016 59.5195C161.389 60.3198 161.45 61.2217 161.452 62.0928C161.458 64.9288 161.468 67.7649 161.472 70.6003C160.342 70.6037 159.213 70.6013 158.084 70.6115C158.067 67.8906 158.068 65.169 158.06 62.4481C158.071 61.8788 157.979 61.2662 157.609 60.8124C157.269 60.3975 156.728 60.2144 156.209 60.1664C155.44 60.0812 154.671 60.2389 153.946 60.4869C154.069 61.0198 154.097 61.5695 154.093 62.1153C154.1 64.9497 154.107 67.7834 154.113 70.6177C152.971 70.6171 151.83 70.6302 150.688 70.621C150.69 68.1698 150.677 65.7186 150.674 63.2674C150.668 62.7153 150.691 62.1603 150.615 61.6124C150.56 61.2592 150.451 60.8946 150.199 60.6301C149.914 60.3427 149.504 60.2332 149.113 60.1917C148.274 60.109 147.416 60.1913 146.617 60.4687C146.619 63.858 146.635 67.2473 146.639 70.6366C145.511 70.6416 144.383 70.6347 143.254 70.65C143.227 66.514 143.228 62.3761 143.218 58.2395Z" fill="white"/>
<path d="M165.625 58.5045C167.06 57.4346 168.932 57.048 170.691 57.2682C171.874 57.381 173.07 57.7469 173.998 58.5132C173.521 59.3356 173.039 60.1558 172.569 60.9822C171.994 60.5581 171.321 60.2453 170.605 60.1726C169.709 60.0752 168.753 60.1817 167.976 60.6681C167.333 61.0689 166.885 61.7309 166.668 62.449C166.414 63.291 166.388 64.193 166.527 65.0586C166.671 65.9282 167.096 66.7926 167.841 67.2976C168.654 67.8626 169.697 67.9666 170.657 67.8468C171.312 67.7633 171.904 67.4492 172.458 67.1076C173.011 67.8382 173.585 68.5521 174.147 69.2746C173.185 70.1721 171.89 70.6329 170.601 70.7913C169.203 70.9407 167.744 70.7874 166.461 70.1851C165.31 69.6496 164.35 68.7202 163.782 67.5841C163.049 66.1278 162.912 64.4335 163.141 62.8368C163.389 61.1536 164.239 59.5233 165.625 58.5045Z" fill="white"/>
<path d="M105.961 59.1777C107.101 58.0948 108.659 57.5389 110.209 57.4251C111.298 57.3434 112.414 57.4077 113.457 57.7499C114.427 58.0597 115.311 58.6623 115.902 59.497C116.701 60.6078 116.987 62.0011 117.026 63.3469C117.03 65.8015 117.044 68.2567 117.04 70.7119C115.253 70.7083 113.465 70.7201 111.678 70.7216C110.574 70.6956 109.458 70.6652 108.381 70.3975C107.562 70.1962 106.789 69.8275 106.097 69.3487C105.647 69.0216 105.259 68.6091 104.956 68.1425C104.236 67.0349 103.975 65.6983 103.928 64.396L103.927 63.915C103.978 62.1583 104.653 60.3818 105.961 59.1777ZM108.114 61.4363C107.445 62.281 107.259 63.408 107.336 64.4587C107.387 65.3577 107.64 66.3124 108.327 66.939C109.069 67.6244 110.118 67.8149 111.093 67.8577C111.911 67.8575 112.729 67.8589 113.547 67.8494C113.537 66.6193 113.539 65.3897 113.535 64.1595C113.522 63.5261 113.491 62.8865 113.318 62.2735C113.161 61.6903 112.853 61.1247 112.354 60.7679C111.789 60.365 111.066 60.2654 110.388 60.3003C109.517 60.3396 108.65 60.7386 108.114 61.4363Z" fill="white"/>
<path d="M130.946 58.4988C132.187 57.6682 133.703 57.334 135.181 57.3338C136.404 57.3314 137.663 57.538 138.729 58.1659C139.57 58.6547 140.237 59.4216 140.637 60.306C141.145 61.3975 141.28 62.6182 141.283 63.81C141.289 66.0883 141.291 68.3665 141.301 70.6447C139.54 70.6599 137.777 70.6545 136.015 70.6628C134.447 70.6351 132.812 70.595 131.37 69.9056C130.715 69.5876 130.07 69.2066 129.591 68.6482C128.849 67.811 128.439 66.729 128.26 65.6362C128.05 64.3103 128.084 62.9219 128.536 61.6477C128.973 60.3752 129.819 59.2403 130.946 58.4988ZM132.226 61.669C131.627 62.6304 131.559 63.8195 131.709 64.9153C131.818 65.7128 132.156 66.5206 132.81 67.0213C133.552 67.5991 134.52 67.7605 135.437 67.7989C136.257 67.7992 137.078 67.7955 137.899 67.7935C137.896 66.6194 137.893 65.4454 137.89 64.2719C137.893 63.564 137.852 62.846 137.643 62.1661C137.461 61.5675 137.112 60.9945 136.574 60.6556C135.911 60.2368 135.082 60.169 134.322 60.2843C133.464 60.4112 132.675 60.9269 132.226 61.669Z" fill="white"/>
<path d="M123.016 57.7443C124.573 57.3282 126.21 57.3379 127.803 57.5087C127.991 57.5346 128.183 57.5392 128.367 57.5875C128.372 57.6894 128.326 57.7857 128.306 57.8843C128.066 58.7875 127.83 59.6918 127.591 60.5955C126.637 60.3625 125.618 60.2069 124.653 60.4653C123.799 60.6913 123.077 61.3293 122.729 62.1383C122.489 62.6761 122.379 63.2662 122.368 63.8533C122.376 66.1326 122.376 68.4126 122.388 70.6925C121.232 70.7022 120.076 70.6993 118.92 70.7039C118.914 68.346 118.909 65.9876 118.903 63.6298C118.947 62.2317 119.225 60.7718 120.081 59.6288C120.787 58.6655 121.876 58.0483 123.016 57.7443Z" fill="white"/>
<path d="M180.403 57.3414C181.688 57.1934 183.017 57.4203 184.171 58.0045C185.959 58.8879 187.3 60.6073 187.73 62.5535C188.061 64.0194 187.898 65.5953 187.252 66.9548C186.48 68.6095 185.007 69.9218 183.269 70.4861C181.9 70.9385 180.386 70.9313 179.021 70.4679C177.212 69.8681 175.694 68.4601 174.953 66.7054C174.415 65.4536 174.276 64.0359 174.55 62.7014C174.954 60.6615 176.37 58.8626 178.243 57.9669C178.921 57.6388 179.655 57.4263 180.403 57.3414ZM180.723 60.451C179.483 60.5903 178.347 61.4098 177.832 62.5479C177.365 63.5478 177.397 64.7625 177.912 65.7377C178.41 66.7181 179.372 67.4488 180.452 67.6598C181.532 67.8891 182.706 67.573 183.532 66.8425C184.336 66.1509 184.817 65.1023 184.81 64.0411C184.807 62.997 184.327 61.9662 183.528 61.2935C182.764 60.6373 181.723 60.3243 180.723 60.451Z" fill="white"/>
<path d="M103.653 24.5242C103.593 24.5242 103.535 24.522 103.491 24.5199C103.456 24.5229 103.421 24.5242 103.385 24.5242C102.118 24.5242 101.27 23.9252 100.523 23.3962C99.9867 23.0177 99.4813 22.6603 98.8892 22.5618C98.5984 22.5136 98.3091 22.4891 98.0296 22.4891C97.526 22.4891 97.128 22.5672 96.8374 22.624C96.6586 22.6589 96.5045 22.6889 96.3853 22.6889C96.2605 22.6889 96.1088 22.6612 96.0456 22.4454C95.9956 22.2752 95.9596 22.1103 95.925 21.9515C95.8382 21.5546 95.7753 21.3124 95.6267 21.2894C94.0374 21.0442 93.0984 20.6829 92.9113 20.2455C92.8917 20.1995 92.8808 20.1532 92.8783 20.1075C92.871 19.9771 92.9631 19.8627 93.0916 19.8414C94.3538 19.6336 95.476 18.9665 96.4274 17.858C97.1643 16.9999 97.5262 16.1799 97.5651 16.0894C97.5668 16.0853 97.5688 16.0811 97.5708 16.0772C97.7542 15.7051 97.7907 15.3836 97.6796 15.1218C97.4748 14.6389 96.7966 14.4237 96.3479 14.2813C96.2363 14.246 96.1307 14.2126 96.0466 14.1792C95.6488 14.0221 94.9947 13.6901 95.0818 13.2319C95.1453 12.8978 95.5872 12.6651 95.9444 12.6651C96.0436 12.6651 96.1314 12.6825 96.2054 12.7173C96.609 12.9063 96.9721 13.0022 97.2843 13.0022C97.6727 13.0022 97.8602 12.8543 97.9056 12.8123C97.8944 12.6052 97.8807 12.3861 97.8675 12.179C97.8675 12.1788 97.8672 12.1763 97.8672 12.1763C97.7761 10.7262 97.6624 8.9217 98.124 7.88688C99.5055 4.78932 102.435 4.54844 103.3 4.54844C103.323 4.54844 103.677 4.54494 103.677 4.54494C103.693 4.54466 103.71 4.54443 103.728 4.54443C104.595 4.54443 107.531 4.78559 108.914 7.88502C109.375 8.92051 109.262 10.7266 109.17 12.1781L109.166 12.2476C109.153 12.4447 109.142 12.6312 109.132 12.8121C109.175 12.8514 109.346 12.9869 109.695 13.0007C109.993 12.9893 110.335 12.8939 110.712 12.7175C110.828 12.6628 110.957 12.6515 111.045 12.6515C111.177 12.6515 111.312 12.6772 111.424 12.724L111.43 12.7264C111.75 12.8398 111.959 13.0666 111.964 13.3048C111.968 13.5269 111.803 13.8588 110.991 14.1793C110.908 14.2122 110.802 14.2459 110.69 14.2814C110.241 14.424 109.563 14.639 109.358 15.1217C109.247 15.3835 109.283 15.7049 109.467 16.0768C109.469 16.0809 109.471 16.085 109.473 16.0893C109.529 16.2217 110.896 19.3387 113.946 19.8411C114.075 19.8626 114.167 19.977 114.159 20.1072C114.157 20.154 114.145 20.2007 114.126 20.2464C113.94 20.6815 113.001 21.0422 111.411 21.2877C111.262 21.3108 111.199 21.5519 111.113 21.9467C111.078 22.1098 111.041 22.2696 110.992 22.4375C110.946 22.5955 110.843 22.6727 110.678 22.6727H110.653C110.545 22.6727 110.393 22.6532 110.2 22.6156C109.864 22.5502 109.487 22.4893 109.008 22.4893C108.729 22.4893 108.44 22.5138 108.148 22.562C107.557 22.6605 107.052 23.0173 106.517 23.3954C105.767 23.9251 104.92 24.5242 103.653 24.5242Z" fill="white"/>
<path d="M103.728 4.80047C104.544 4.80047 107.355 5.01977 108.68 7.98981C109.116 8.96782 109.005 10.7394 108.915 12.1626C108.901 12.3884 108.887 12.6073 108.876 12.8164L108.871 12.9062L108.931 12.9731C108.955 13 109.182 13.237 109.686 13.2565L109.694 13.2569L109.703 13.2568C110.036 13.244 110.412 13.1405 110.82 12.9494C110.88 12.9213 110.96 12.9076 111.044 12.9076C111.141 12.9076 111.243 12.9257 111.328 12.9613L111.341 12.9664C111.554 13.0413 111.706 13.1826 111.708 13.3105C111.709 13.3828 111.655 13.6432 110.897 13.9427C110.823 13.9719 110.725 14.003 110.612 14.0387C110.119 14.1953 109.373 14.4318 109.123 15.0229C108.981 15.3559 109.02 15.7488 109.238 16.1907C109.327 16.3995 110.735 19.5717 113.904 20.0939C113.904 20.1089 113.9 20.1253 113.891 20.1447C113.838 20.2712 113.496 20.7083 111.372 21.0361C111.039 21.087 110.958 21.4596 110.863 21.8928C110.829 22.0479 110.795 22.2044 110.747 22.3661C110.732 22.415 110.73 22.4178 110.677 22.4178C110.67 22.4178 110.662 22.4178 110.652 22.4178C110.558 22.4178 110.415 22.3982 110.249 22.3657C109.948 22.3069 109.535 22.2348 109.008 22.2348C108.714 22.2348 108.411 22.2604 108.107 22.3111C107.456 22.4192 106.928 22.7932 106.368 23.1889C105.616 23.7203 104.839 24.2701 103.653 24.2701C103.601 24.2701 103.551 24.2683 103.5 24.2658L103.487 24.2652L103.473 24.2662C103.444 24.2688 103.415 24.2701 103.385 24.2701C102.199 24.2701 101.422 23.7204 100.67 23.1889C100.11 22.7932 99.5812 22.4192 98.9312 22.3111C98.6274 22.2605 98.324 22.2348 98.0299 22.2348C97.5028 22.2348 97.0899 22.3154 96.7887 22.3743C96.6229 22.4067 96.4794 22.4345 96.3855 22.4345C96.3086 22.4345 96.3071 22.43 96.2908 22.3744C96.2432 22.2126 96.2083 22.0524 96.1744 21.8975C96.0797 21.4639 95.9982 21.0892 95.666 21.0382C93.5417 20.7101 93.2003 20.2723 93.1464 20.1462C93.138 20.1263 93.1342 20.1093 93.1333 20.0943C96.3022 19.5726 97.7103 16.4003 97.8 16.1907C98.0178 15.7492 98.0565 15.3563 97.9148 15.0229C97.6639 14.4321 96.9186 14.1953 96.4256 14.039C96.3122 14.0031 96.2146 13.9719 96.1405 13.9427C95.5003 13.6897 95.3033 13.4349 95.3326 13.2805C95.3665 13.1024 95.6752 12.9213 95.9446 12.9213C96.0052 12.9213 96.0583 12.9311 96.0975 12.9495C96.535 13.1545 96.9344 13.2585 97.2848 13.2585C97.8355 13.2585 98.0806 13.0023 98.1069 12.973L98.1666 12.9063L98.1618 12.8169C98.1507 12.608 98.1369 12.3891 98.1225 12.1637C98.0331 10.7402 97.9213 8.96979 98.3573 7.99173C99.6772 5.03259 102.475 4.80448 103.3 4.80448C103.321 4.80448 103.68 4.80081 103.68 4.80081C103.694 4.8007 103.711 4.80047 103.728 4.80047ZM103.728 4.29004H103.727C103.708 4.29004 103.69 4.29004 103.674 4.29026C103.539 4.29162 103.319 4.29377 103.299 4.29399C102.815 4.29399 101.847 4.36233 100.808 4.82126C100.213 5.08348 99.6783 5.43804 99.2183 5.87511C98.6698 6.39588 98.223 7.03796 97.8904 7.78379C97.4034 8.87582 97.519 10.7152 97.6119 12.1934L97.6122 12.1957C97.6222 12.354 97.6326 12.5193 97.6421 12.6804C97.5707 12.7132 97.4549 12.7478 97.2841 12.7478C97.0094 12.7478 96.6828 12.66 96.3135 12.4869C96.2048 12.4363 96.0808 12.4107 95.944 12.4107C95.7241 12.4107 95.4923 12.4755 95.2913 12.5937C95.0383 12.7422 94.8749 12.9521 94.8305 13.1849C94.8012 13.3388 94.8026 13.6431 95.1406 13.9517C95.3266 14.1216 95.5997 14.2782 95.9522 14.4176C96.0447 14.454 96.1545 14.4888 96.2708 14.5257C96.6743 14.6539 97.285 14.8477 97.4443 15.2225C97.525 15.4126 97.4903 15.6627 97.3414 15.9649C97.3375 15.9732 97.3336 15.9812 97.33 15.9897C97.2928 16.0766 96.9456 16.8631 96.2333 17.6926C95.8286 18.1643 95.3829 18.5585 94.9091 18.8646C94.3309 19.2383 93.7053 19.4826 93.0498 19.5906C92.7923 19.6328 92.6085 19.8622 92.6229 20.1228C92.6273 20.1979 92.6449 20.2728 92.6754 20.3453C92.6757 20.3457 92.6759 20.3462 92.6762 20.3466C92.7803 20.5901 93.0216 20.7969 93.4139 20.9793C93.8934 21.202 94.6104 21.3893 95.5449 21.5359C95.5921 21.6257 95.6411 21.8513 95.6751 22.0059C95.7106 22.1701 95.7476 22.339 95.8004 22.5183C95.8574 22.7127 96.0052 22.9449 96.3849 22.9449C96.5288 22.9449 96.6943 22.9125 96.8859 22.8753C97.1666 22.8203 97.5503 22.7451 98.0293 22.7451C98.2948 22.7451 98.5701 22.7685 98.8471 22.8146C99.3811 22.9034 99.8414 23.2286 100.374 23.6052C101.154 24.1563 102.036 24.7801 103.384 24.7801C103.421 24.7801 103.458 24.7789 103.494 24.7764C103.539 24.7785 103.594 24.7801 103.652 24.7801C105.001 24.7801 105.883 24.1561 106.662 23.6055L106.663 23.6043C107.196 23.2282 107.656 22.9034 108.19 22.8146C108.467 22.7686 108.742 22.7451 109.007 22.7451C109.465 22.7451 109.827 22.8035 110.151 22.8666C110.362 22.9081 110.526 22.9281 110.652 22.9281L110.664 22.9284H110.677C110.955 22.9284 111.159 22.7759 111.237 22.5092C111.288 22.3336 111.325 22.1687 111.362 22.0017C111.393 21.8569 111.444 21.6248 111.491 21.534C112.427 21.3872 113.143 21.2002 113.623 20.9776C114.014 20.796 114.255 20.5894 114.36 20.347C114.391 20.2743 114.41 20.199 114.414 20.1223C114.429 19.8621 114.244 19.6323 113.987 19.59C111.073 19.1099 109.761 16.1164 109.707 15.9892C109.703 15.9808 109.699 15.9725 109.695 15.9645C109.546 15.6621 109.512 15.4123 109.593 15.2219C109.752 14.8474 110.362 14.6536 110.766 14.5254C110.883 14.4886 110.993 14.4536 111.085 14.4173C111.482 14.2603 111.766 14.09 111.954 13.8966C112.178 13.666 112.221 13.445 112.218 13.3005C112.212 12.9507 111.944 12.6398 111.519 12.4876C111.375 12.4282 111.211 12.3968 111.044 12.3968C110.931 12.3968 110.763 12.4124 110.603 12.4868C110.263 12.6462 109.957 12.7334 109.695 12.7459C109.556 12.7388 109.458 12.7086 109.395 12.6797C109.403 12.5433 109.412 12.4031 109.421 12.257L109.424 12.1944C109.518 10.7153 109.634 8.87446 109.147 7.78164C108.813 7.03316 108.364 6.38944 107.814 5.86754C107.352 5.43019 106.815 5.07568 106.218 4.81363C105.18 4.35809 104.212 4.29004 103.728 4.29004Z" fill="white"/>
<path d="M176.145 5.84459C177.076 5.84459 178.009 5.82682 178.941 5.8539C178.971 6.09169 179 6.32947 179.003 6.5698C179.007 8.09214 178.986 9.61532 179.012 11.1377C179.338 10.85 179.649 10.5301 180.049 10.3431C180.894 9.92419 181.915 9.97666 182.772 10.3329C183.327 10.6189 183.795 11.0835 184.065 11.6479C184.384 12.3012 184.531 13.0323 184.53 13.7575C184.53 15.4923 184.524 17.227 184.534 18.9609L184.445 18.9584C184.403 18.9567 184.317 18.9525 184.274 18.9499C184.314 17.0527 184.287 15.1538 184.287 13.2557C184.321 12.2944 183.911 11.3069 183.133 10.7247C182.586 10.294 181.86 10.2288 181.191 10.2483C180.478 10.2466 179.746 10.5369 179.296 11.1004C179.178 11.2553 179.019 11.3636 178.831 11.4127C178.75 10.817 178.802 10.2144 178.789 9.61532C178.778 8.44162 178.811 7.26792 178.773 6.09507C178.482 6.03414 178.185 6.0206 177.89 6.02991C177.342 6.04684 176.788 5.98506 176.247 6.10353C176.207 6.09084 176.124 6.06545 176.083 6.05361C176.098 6.00114 176.13 5.89706 176.145 5.84459Z" fill="white"/>
<path d="M176.082 6.05371C176.123 6.06556 176.206 6.09094 176.246 6.10364C176.264 9.61543 176.25 13.1272 176.254 16.639C176.261 17.3786 176.218 18.1207 176.298 18.8578L176.268 18.9272L176.188 18.9365L176.132 18.9424C176.147 14.9872 176.132 11.032 176.14 7.07678C176.15 6.73407 176.09 6.39474 176.082 6.05371Z" fill="white"/>
<path d="M164.097 11.4253L164.113 11.5006C164.137 11.6242 164.166 11.7469 164.194 11.8704C164.168 12.0896 164.13 12.3079 164.103 12.5271C164.039 12.9798 164.152 13.4308 164.161 13.8835C164.178 14.8415 164.582 15.7401 165.096 16.5322C165.146 16.6007 165.197 16.6693 165.251 16.7361C165.728 17.3361 166.257 17.9276 166.958 18.2686C166.981 18.3143 167.027 18.404 167.05 18.4489C166.452 18.2162 165.99 17.7516 165.543 17.309C164.951 16.7319 164.563 15.9796 164.289 15.2104C164.141 14.5944 164.02 13.9716 163.942 13.3428C163.855 12.7005 163.966 12.054 164.097 11.4253Z" fill="white"/>
<path d="M176.248 6.10314C176.789 5.98467 177.343 6.04644 177.891 6.02952C178.186 6.02021 178.483 6.03375 178.774 6.09468C178.64 7.03652 178.735 7.9902 178.708 8.93796C178.678 9.77741 178.779 10.6253 178.64 11.4588C178.549 11.4851 178.458 11.5113 178.369 11.5392C178.271 11.3361 178.211 11.1153 178.223 10.8876C178.242 9.44992 178.224 8.01136 178.236 6.57364C178.331 6.61425 178.425 6.6591 178.52 6.70311C178.513 6.54825 178.557 6.26561 178.32 6.28846C177.695 6.30116 177.069 6.3367 176.445 6.26477C176.396 6.58802 176.377 6.91551 176.381 7.24299C176.386 10.4882 176.373 13.7335 176.388 16.9787C176.364 17.6024 176.603 18.27 176.3 18.8573C176.22 18.1202 176.263 17.3781 176.256 16.6385C176.251 13.1267 176.266 9.61493 176.248 6.10314Z" fill="white"/>
<path d="M178.773 6.09521C178.811 7.26807 178.778 8.44177 178.789 9.61547C178.802 10.2146 178.751 10.8171 178.831 11.4128C179.019 11.3638 179.178 11.2554 179.296 11.1006C179.746 10.537 180.478 10.2467 181.191 10.2484C181.86 10.229 182.586 10.2941 183.133 10.7249C183.912 11.3071 184.321 12.2946 184.287 13.2559C184.287 15.1539 184.314 17.0529 184.274 18.9501C183.435 18.9179 182.595 18.9492 181.755 18.9323C181.709 17.2077 181.755 15.4814 181.733 13.756C181.729 13.4302 181.571 13.1315 181.394 12.8675C181.045 12.4156 180.358 12.2455 179.847 12.5112C179.594 12.6407 179.375 12.8243 179.157 13.0029C179.21 12.7871 179.159 12.5053 179.362 12.3581C179.565 12.1888 179.786 12.034 180.033 11.9358C180.324 11.8266 180.636 11.9231 180.927 11.9857C180.928 12.0475 180.93 12.1719 180.932 12.2337C180.573 12.2523 180.214 12.2582 179.856 12.2497L179.853 12.32C180.266 12.3386 180.676 12.2929 181.087 12.2489C181.337 12.2142 181.525 12.4274 181.676 12.5975C181.965 12.9817 182.23 13.4294 182.221 13.9261C182.212 15.5068 182.2 17.0875 182.221 18.6674C182.732 18.802 183.263 18.7766 183.784 18.7233C183.877 17.1316 183.764 15.5339 183.84 13.9405C183.855 13.5664 183.795 13.195 183.77 12.8226C183.747 12.0356 183.246 11.3274 182.611 10.8949C182.374 10.7113 182.059 10.7875 181.784 10.7832C181.37 10.8086 180.949 10.7494 180.539 10.8315C180.139 10.9364 179.824 11.2207 179.49 11.4484C179.425 11.4298 179.361 11.412 179.298 11.3942C179.209 11.5008 179.152 11.6802 178.986 11.6692C178.829 11.6955 178.742 11.5457 178.64 11.4594C178.778 10.6258 178.678 9.77794 178.707 8.9385C178.734 7.99074 178.64 7.03705 178.773 6.09521Z" fill="white"/>
<path d="M176.445 6.26465C177.068 6.33658 177.695 6.30104 178.319 6.28834C178.557 6.26549 178.512 6.54813 178.52 6.70299C178.424 6.65898 178.331 6.61413 178.235 6.57352C177.724 6.40512 177.18 6.49482 176.655 6.51851C176.611 10.1445 176.66 13.7731 176.631 17.4C176.619 17.8679 176.618 18.3368 176.655 18.8039C177.039 18.8377 177.425 18.88 177.81 18.8352C178.101 18.8081 178.41 18.7074 178.685 18.858C177.888 18.9909 177.073 18.8555 176.27 18.9266L176.299 18.8572C176.602 18.2699 176.363 17.6022 176.387 16.9786C176.373 13.7333 176.385 10.4881 176.38 7.24287C176.376 6.91539 176.396 6.5879 176.445 6.26465Z" fill="white"/>
<path d="M168.999 6.49624C169.878 6.34477 170.779 6.36 171.663 6.4717C172.837 6.71711 174.029 7.17491 174.845 8.09051C174.906 8.15483 174.916 8.2843 174.845 8.34607C174.571 8.63463 174.255 8.88257 174.003 9.19398C173.679 9.59508 173.337 9.99111 172.9 10.2746C172.622 9.99111 172.332 9.71355 171.994 9.50285C171.102 8.9435 169.882 8.99004 168.983 9.50877C168.726 9.66532 168.507 9.87941 168.24 10.0165C168.152 10.0537 168.065 10.0918 167.978 10.129C168.012 10.0876 168.079 10.0055 168.112 9.96403C168.151 9.91495 168.191 9.86757 168.232 9.82018C168.687 9.43261 169.257 9.24221 169.801 9.0205C170.255 8.96719 170.716 8.96127 171.171 9.0112C171.834 9.22952 172.459 9.55362 172.964 10.041C173.448 9.55954 173.919 9.06535 174.413 8.59486C174.558 8.43831 174.814 8.23522 174.622 8.01351C174.345 7.81719 174.075 7.60986 173.786 7.433C173.564 7.2883 173.301 7.42624 173.073 7.47955C173.194 7.422 173.315 7.36362 173.436 7.30269C173.145 7.06321 172.781 6.97012 172.43 6.86096C172.178 6.72642 171.895 6.70103 171.615 6.68749C170.769 6.43193 169.87 6.49286 169.021 6.69849C168.605 6.71711 168.208 6.84065 167.83 7.00821C167.752 7.03782 167.675 7.06913 167.6 7.10044C166.487 7.55571 165.552 8.40615 164.915 9.41822C164.52 10.0563 164.314 10.784 164.114 11.5008L164.098 11.4254C164.124 11.1217 164.189 10.8229 164.253 10.5259C164.359 10.0021 164.685 9.56547 164.948 9.11274C165.821 7.68433 167.402 6.84658 168.999 6.49624Z" fill="white"/>
<path d="M176.655 6.51921C177.18 6.49552 177.725 6.40582 178.236 6.57422C178.224 8.01194 178.242 9.4505 178.223 10.8882C178.211 11.1159 178.271 11.3367 178.369 11.5398C178.458 11.5119 178.549 11.4856 178.64 11.4594C178.743 11.5457 178.83 11.6955 178.986 11.6693C179.153 11.6803 179.21 11.5009 179.299 11.3943C179.362 11.412 179.425 11.4298 179.491 11.4484C179.825 11.2208 180.14 10.9365 180.539 10.8315C180.95 10.7494 181.37 10.8087 181.785 10.7833C182.06 10.7875 182.375 10.7114 182.611 10.895C183.246 11.3274 183.748 12.0357 183.771 12.8227C183.795 13.195 183.855 13.5665 183.84 13.9405C183.765 15.5339 183.877 17.1316 183.784 18.7233C183.264 18.7766 182.732 18.802 182.221 18.6675C182.2 17.0876 182.212 15.5069 182.221 13.9261C182.231 13.4294 181.966 12.9818 181.676 12.5976C181.526 12.4275 181.338 12.2142 181.087 12.2489C180.677 12.2929 180.267 12.3386 179.854 12.32L179.856 12.2498C180.215 12.2582 180.574 12.2523 180.933 12.2337C180.931 12.1719 180.928 12.0475 180.928 11.9858C180.636 11.9231 180.325 11.8267 180.034 11.9358C179.787 12.034 179.566 12.1889 179.363 12.3581C179.16 12.5053 179.211 12.7871 179.157 13.0029C179.013 13.294 178.916 13.6037 178.815 13.9109C178.719 14.0691 178.653 14.2443 178.672 14.4322C178.694 15.9071 178.671 17.3829 178.686 18.8587C178.41 18.7081 178.101 18.8088 177.81 18.8359C177.425 18.8807 177.039 18.8384 176.656 18.8046C176.619 18.3375 176.619 17.8686 176.631 17.4007C176.66 13.7738 176.612 10.1452 176.655 6.51921Z" fill="white"/>
<path d="M124.523 7.35953C126.076 6.34661 128.133 6.25776 129.84 6.91865C129.704 7.03966 129.568 7.16152 129.433 7.28337C129.614 7.29099 129.795 7.2986 129.976 7.3096C130.154 7.63116 130.535 7.72425 130.786 7.96965C130.838 8.10589 130.714 8.21421 130.643 8.31406C130.327 8.66524 130.001 9.01557 129.609 9.28298C129.461 9.13658 129.313 8.99188 129.164 8.84802C129.075 8.9411 128.987 9.03419 128.899 9.12812C128.664 9.00542 128.421 8.90049 128.173 8.8074C128.211 8.69316 128.25 8.57977 128.288 8.46553C127.779 8.28698 127.182 8.2379 126.7 8.51461C126.399 8.68893 126.096 8.87256 125.849 9.11966C125.676 9.27705 125.773 9.52669 125.773 9.72724C125.819 10.0505 125.738 10.4211 125.948 10.7004C126.108 10.9365 126.349 11.0998 126.601 11.2242C126.54 11.3156 126.48 11.407 126.419 11.4984C126.569 11.5779 126.714 11.6727 126.879 11.7158C127.112 11.7277 127.337 11.6465 127.565 11.6075L127.633 11.6295C127.544 11.7074 127.455 11.7844 127.366 11.8622C127.47 11.9409 127.574 12.0188 127.679 12.0966C127.792 11.9849 127.905 11.8715 128.022 11.7632L128.09 11.7818C128.054 11.891 128.018 12.0002 127.984 12.1093C128.707 12.447 129.503 12.6831 130.114 13.2187C130.438 13.4912 130.57 13.9541 130.981 14.1259C130.852 14.7749 130.903 15.4392 130.863 16.095C130.987 16.1974 131.112 16.2998 131.237 16.4013C131.144 16.6679 131.036 16.9294 130.902 17.1773C130.814 17.1045 130.727 17.0318 130.64 16.959C130.355 17.3152 130.109 17.7172 129.719 17.9719C129.464 18.12 129.39 18.4153 129.307 18.676C129.249 18.6988 129.133 18.7454 129.075 18.769C129.126 18.6243 129.179 18.4805 129.233 18.3375C128.891 18.4035 128.556 18.4974 128.227 18.61C127.534 18.8554 126.793 18.6785 126.078 18.7022C125.843 18.7098 125.661 18.8824 125.465 18.9924C125.43 18.9882 125.36 18.9789 125.324 18.9738C125.41 18.8376 125.497 18.7005 125.582 18.5634C125.2 18.4568 124.816 18.566 124.468 18.7293C124.243 18.6345 124.016 18.5456 123.794 18.4466C123.902 18.3637 124.008 18.2799 124.116 18.197C123.946 18.2072 123.776 18.2173 123.607 18.2275C123.643 18.1767 123.679 18.1251 123.715 18.0743C123.699 18.0438 123.666 17.9838 123.649 17.9541C123.531 17.9812 123.414 18.0083 123.297 18.0345C123.252 17.7883 123.098 17.504 123.264 17.2729C123.561 16.8481 123.995 16.5486 124.366 16.194C124.364 16.0891 124.361 15.985 124.359 15.8809C124.481 15.9478 124.605 16.0129 124.725 16.084C124.904 16.2507 125.096 16.4056 125.316 16.5139C125.271 16.7161 125.328 16.9421 125.537 17.0267C125.735 17.0343 125.928 16.9844 126.121 16.948C126.102 17.0555 126.082 17.1638 126.063 17.2721C126.168 17.2746 126.274 17.2814 126.379 17.2704C126.443 17.1951 126.492 17.1105 126.544 17.0275C126.948 17.0749 127.385 17.0885 127.734 16.8448C128.016 16.6874 128.256 16.4682 128.472 16.2304C128.538 16.3099 128.604 16.3886 128.67 16.4673C128.827 16.3235 129.037 16.1898 129.056 15.9562C129.098 15.6152 129.125 15.2479 128.996 14.923C128.855 14.7436 128.636 14.8401 128.464 14.9027C128.31 14.7428 128.145 14.5921 127.969 14.4576C128.059 14.3653 128.15 14.274 128.24 14.1817C127.984 14.0015 127.738 13.7848 127.431 13.6977C127.117 13.6901 126.818 13.8136 126.51 13.8559C125.674 13.6351 124.821 13.338 124.149 12.7804C124.267 12.7025 124.386 12.6255 124.504 12.5494C124.348 12.3404 124.136 12.1821 123.872 12.1474C123.855 11.8402 123.777 11.5407 123.654 11.2589C123.569 11.3841 123.485 11.5094 123.401 11.6346C123.367 11.3342 123.358 11.0245 123.485 10.7435C123.624 10.4313 123.578 10.0877 123.531 9.76109C123.434 9.74501 123.337 9.72893 123.24 9.71285C123.305 9.4666 123.363 9.21782 123.415 8.96818C123.492 9.08412 123.569 9.20005 123.647 9.31513C123.823 8.95295 123.967 8.56454 124.239 8.2599C124.424 8.04496 124.649 7.8571 124.774 7.59732C124.695 7.51269 124.608 7.43653 124.523 7.35953Z" fill="white"/>
<path d="M133.325 10.557C134.138 10.4817 134.956 10.524 135.77 10.535C135.782 10.8735 135.778 11.2119 135.788 11.5504L135.793 11.6283C136.022 11.663 136.273 11.7298 136.496 11.6283C136.879 11.437 137.121 11.0376 137.527 10.8811C138.17 10.6365 138.9 10.9716 139.519 10.6399C139.701 10.9725 140.044 11.1493 140.309 11.4023C140.598 11.685 140.576 12.1275 140.768 12.4635C140.868 12.6158 141.007 12.7351 141.136 12.8612C140.967 13.5153 141.001 14.1932 141.01 14.8617C140.991 16.1547 141.042 17.4502 140.985 18.7424C140.481 18.7847 139.975 18.7805 139.471 18.7466C139.416 18.4995 139.372 18.2491 139.375 17.9952C139.391 16.8088 139.378 15.6233 139.387 14.4369C139.392 13.7912 139.283 13.1032 138.868 12.5854C138.479 12.1335 137.884 11.7967 137.271 11.9067C136.891 11.9473 136.588 12.2003 136.335 12.466C136.395 12.5667 136.456 12.6666 136.517 12.7673C136.268 13.0525 136.007 13.3732 135.962 13.7616C135.918 15.4735 135.996 17.1888 135.926 18.8998C135.062 18.893 134.199 18.9083 133.335 18.8922C133.333 16.1141 133.353 13.3351 133.325 10.557Z" fill="white"/>
<path d="M169.021 6.69853C169.87 6.4929 170.769 6.43197 171.616 6.68753C171.602 6.84069 171.59 6.99386 171.579 7.14702C171.899 7.19357 172.205 7.09202 172.431 6.861C172.781 6.97016 173.146 7.06325 173.436 7.30273C173.315 7.36366 173.195 7.42204 173.074 7.47959C173.301 7.42628 173.565 7.28834 173.786 7.43304C174.076 7.6099 174.346 7.81723 174.622 8.01355C174.612 8.06517 174.591 8.16756 174.581 8.21918C174.459 8.1591 174.338 8.09902 174.217 8.03893C174.177 8.23187 174.138 8.44004 173.981 8.57628C173.634 8.92154 173.294 9.27441 172.92 9.59089C172.676 9.39711 172.382 9.29049 172.07 9.29049C172.137 9.23041 172.205 9.16948 172.272 9.1094C171.939 8.90207 171.608 8.65075 171.206 8.60336C170.683 8.54836 170.137 8.51958 169.633 8.69644C169.754 8.7616 169.873 8.85045 170.017 8.85469C170.502 8.886 170.988 8.83861 171.474 8.85045C171.373 8.90461 171.271 8.95792 171.171 9.01124C170.716 8.96131 170.255 8.96723 169.801 9.02054C169.625 8.97062 169.458 8.89361 169.297 8.80899C168.937 8.96385 168.541 9.09247 168.261 9.37934C168.138 9.49866 168.223 9.67636 168.233 9.82022C168.191 9.8676 168.151 9.91499 168.112 9.96407C168.019 9.94123 167.927 9.91838 167.835 9.89638C167.475 10.1858 167.131 10.5209 166.945 10.9516C166.86 11.1378 166.945 11.3392 166.979 11.527C166.87 11.5795 166.76 11.6303 166.659 11.6963C166.651 12.0187 166.786 12.3284 166.787 12.6525C166.792 12.9901 166.871 13.3565 166.703 13.6696C166.654 13.7923 166.57 13.932 166.655 14.0606C166.797 14.2222 167.003 14.3026 167.187 14.4067C167.183 14.7528 167.169 15.1201 167.379 15.4171C167.477 15.3502 167.575 15.2834 167.673 15.2165C168.09 15.7632 168.634 16.331 169.347 16.4308C169.476 16.4402 169.582 16.5163 169.692 16.5781C169.613 16.5772 169.454 16.5747 169.375 16.573C169.523 16.6526 169.674 16.7465 169.847 16.749C170.401 16.7896 170.963 16.6805 171.509 16.8159C170.831 16.8573 170.097 16.6348 169.465 16.964C169.857 17.118 170.284 17.1104 170.698 17.0968C171.281 17.09 171.856 16.9056 172.351 16.6035C172.603 16.4537 172.734 16.0873 173.05 16.0678C173.417 16.2743 173.684 16.6162 173.983 16.9064C174.109 17.0554 174.361 17.2813 174.159 17.4717C173.729 17.8914 173.198 18.2121 172.633 18.4144C172.677 18.51 172.723 18.6056 172.769 18.7021C172.472 18.6031 172.153 18.4618 171.847 18.6124C171.92 18.7376 171.993 18.8629 172.068 18.9873L171.993 19.0025C171.275 18.6293 170.453 18.7326 169.674 18.7376C169.499 18.73 169.35 18.8223 169.209 18.9136C169.982 19.1557 170.802 18.8671 171.576 19.1049C171.173 19.1692 170.764 19.1455 170.359 19.1506C169.945 19.1464 169.527 19.1717 169.119 19.1007C168.908 18.8493 168.695 18.5718 168.381 18.4482C168.09 18.3382 167.796 18.2401 167.498 18.1571C167.31 18.0962 167.132 18.2121 166.96 18.2688C167.002 18.1715 167.044 18.0742 167.087 17.9769C166.895 17.7941 166.691 17.6249 166.477 17.4692C166.124 17.217 165.836 16.8895 165.529 16.5857C165.436 16.6356 165.344 16.6864 165.252 16.7363C165.199 16.6695 165.147 16.6009 165.097 16.5324C165.186 16.4833 165.276 16.4342 165.366 16.386C165.258 16.1059 165.171 15.8131 165.012 15.5576C164.855 15.3714 164.486 15.3908 164.464 15.0938C164.393 14.6149 164.732 14.1393 164.506 13.6713C164.391 13.7424 164.277 13.8144 164.162 13.8837C164.153 13.431 164.04 12.98 164.105 12.5273C164.131 12.3081 164.169 12.0898 164.195 11.8706C164.28 12.0111 164.374 12.1456 164.469 12.2802C164.695 11.7487 164.541 11.1826 164.408 10.6504C164.514 10.7773 164.623 10.9025 164.733 11.0261C164.806 10.7604 164.743 10.493 164.647 10.2433C164.731 10.2899 164.816 10.3364 164.901 10.3829C165.089 9.81514 165.407 9.31164 165.804 8.86738C166.289 8.16587 167.084 7.80453 167.83 7.45082C167.753 7.33404 167.676 7.21726 167.6 7.10048C167.676 7.06917 167.753 7.03786 167.831 7.00825C167.961 6.99471 168.092 6.9854 168.223 6.97524C168.101 7.07679 167.978 7.17918 167.858 7.28326C168.277 7.42628 168.683 7.19695 169.072 7.06409C169.054 6.94224 169.037 6.82039 169.021 6.69853Z" fill="white"/>
<path d="M153.39 10.5386C153.429 10.569 153.508 10.6291 153.547 10.6596C153.499 11.4669 153.522 12.2759 153.516 13.0848C153.516 15.6802 153.516 18.2747 153.516 20.87C153.523 21.5106 153.494 22.1529 153.545 22.7935C154.26 22.8442 154.979 22.84 155.695 22.7926C155.775 21.8432 155.713 20.8903 155.731 19.9392C155.708 19.3011 155.816 18.6462 155.625 18.0259C155.511 18.1884 155.432 18.3745 155.441 18.5776C155.417 19.8918 155.465 21.2077 155.425 22.5218C154.887 22.565 154.348 22.5684 153.81 22.5201C153.766 21.9142 153.804 21.3075 153.798 20.7008C153.795 17.9083 153.798 15.1149 153.795 12.3224C153.792 11.8731 153.822 11.4254 153.874 10.9795C154.383 10.9668 154.894 10.9905 155.402 10.9371C155.421 10.8331 155.44 10.7298 155.459 10.6257C155.49 10.635 155.552 10.6528 155.582 10.6613C155.623 10.8508 155.668 11.0387 155.711 11.2282C155.727 11.3112 155.744 11.3949 155.761 11.4796C156.19 11.3687 156.405 10.9287 156.791 10.7374C156.945 10.8009 157.094 10.8821 157.26 10.9101C157.534 10.8449 157.793 10.7044 158.084 10.7332C158.733 10.7772 159.432 10.6139 160.027 10.9575C160.109 10.8424 160.193 10.7273 160.277 10.6122C161.181 11.1326 161.903 11.9746 162.209 12.9791C161.858 13.7889 161.981 14.6808 162.003 15.5346C162.021 15.8503 161.859 16.1304 161.749 16.4138C161.608 16.743 161.513 17.101 161.287 17.3861C160.951 17.7991 160.555 18.1706 160.088 18.4346C160.108 18.5116 160.129 18.5886 160.15 18.6665C159.897 18.5598 159.626 18.4786 159.351 18.5514C159.388 18.6639 159.424 18.7765 159.461 18.8899C159.595 18.9051 159.729 18.9212 159.865 18.9381L159.851 18.9466C159.795 18.9559 159.682 18.9753 159.625 18.9846C159.503 18.9483 159.416 18.9872 159.364 19.1023L159.293 19.1133C158.829 19.1158 158.365 19.1124 157.901 19.1167C157.853 19.0033 157.77 18.9567 157.649 18.977C157.584 18.9728 157.456 18.9652 157.391 18.9618C157.382 18.9593 157.364 18.955 157.356 18.9525C157.307 18.933 157.208 18.8924 157.159 18.8721C157.114 18.8442 157.024 18.7866 156.979 18.7579C156.843 18.6749 156.711 18.5869 156.583 18.4921C156.405 18.2417 156.185 18.0217 155.9 17.8939C155.789 18.4278 155.837 18.9753 155.834 19.5161C155.823 20.65 155.852 21.7848 155.82 22.9187C155.019 22.9432 154.217 22.9432 153.417 22.9179C153.375 18.7917 153.43 14.6639 153.39 10.5386ZM156.537 12.4629C156.123 12.8784 155.68 13.3049 155.476 13.8693C155.399 14.0267 155.487 14.1883 155.545 14.3347C155.691 14.1841 155.728 13.9784 155.745 13.7779C155.777 13.821 155.84 13.9074 155.872 13.9505C155.825 14.4455 155.82 14.9507 155.879 15.4449C155.844 15.4483 155.772 15.4559 155.736 15.4602C155.727 15.2808 155.717 15.1022 155.706 14.9245C155.536 14.9423 155.349 14.9922 155.371 15.2054C155.453 15.5346 155.63 15.8401 155.821 16.1202C155.955 16.3148 156.21 16.2759 156.415 16.2742C156.494 16.369 156.584 16.4545 156.682 16.5306C156.607 16.5949 156.532 16.6601 156.457 16.7253C156.637 16.9774 156.835 17.2728 157.164 17.3345C157.427 17.3244 157.656 17.1551 157.919 17.1323C158.156 17.1492 158.363 17.2871 158.594 17.3362C158.835 17.2677 159.015 17.0807 159.194 16.9148C159.102 16.8496 159.012 16.7853 158.923 16.721C159.256 16.5095 159.564 16.2268 159.741 15.8697C159.851 15.9493 159.95 16.1227 160.104 16.0229C160.157 15.8748 160.053 15.747 159.996 15.6192C160.098 15.5972 160.205 15.5871 160.299 15.538C160.415 15.3738 160.377 15.1665 160.367 14.9804C160.269 14.9524 160.171 14.9245 160.075 14.8966C160.07 14.707 160.063 14.5175 160.054 14.3288C160.131 14.3262 160.207 14.3245 160.283 14.3228C160.346 14.1358 160.452 13.9167 160.318 13.7339C160.152 13.6586 159.972 13.6205 159.796 13.5765C159.535 13.0374 159.043 12.5991 158.484 12.3884C158.104 12.3512 157.716 12.3469 157.339 12.3969C157.333 12.3596 157.323 12.2843 157.318 12.2471C157.779 12.2539 158.24 12.2682 158.7 12.231C158.689 12.1735 158.668 12.0575 158.657 12C158.277 11.934 157.887 11.9408 157.503 11.9374C157.134 11.9915 156.806 12.2141 156.537 12.4629Z" fill="white"/>
<path d="M167.831 7.00796C168.208 6.84041 168.606 6.71686 169.022 6.69824C169.038 6.8201 169.055 6.94195 169.072 7.06381C168.683 7.19666 168.278 7.42599 167.858 7.28298C167.978 7.17889 168.101 7.0765 168.224 6.97495C168.093 6.98511 167.961 6.99442 167.831 7.00796Z" fill="white"/>
<path d="M171.615 6.68701C171.895 6.70055 172.178 6.72594 172.43 6.86049C172.204 7.0915 171.899 7.19305 171.579 7.14651C171.59 6.99334 171.602 6.84018 171.615 6.68701Z" fill="white"/>
<path d="M174.217 8.03857C174.338 8.09865 174.459 8.15873 174.581 8.21881C174.591 8.16719 174.612 8.0648 174.622 8.01318C174.814 8.23489 174.558 8.43798 174.413 8.59453C173.919 9.06503 173.448 9.55922 172.964 10.0407C172.459 9.55329 171.834 9.22919 171.171 9.01087C171.271 8.95756 171.373 8.90425 171.473 8.85009C170.988 8.83824 170.502 8.88563 170.017 8.85432C169.873 8.85009 169.754 8.76124 169.633 8.69608C170.137 8.51922 170.683 8.54799 171.206 8.603C171.608 8.65038 171.939 8.90171 172.272 9.10903C172.204 9.16911 172.137 9.23004 172.07 9.29012C172.381 9.29012 172.676 9.39675 172.92 9.59053C173.294 9.27404 173.634 8.92117 173.981 8.57592C174.138 8.43968 174.177 8.23151 174.217 8.03857Z" fill="white"/>
<path d="M186.429 15.2848C186.705 14.8524 187.122 14.5241 187.592 14.3252C187.618 14.4394 187.644 14.5545 187.67 14.6688C187.276 14.8769 186.903 15.1376 186.65 15.5116C186.576 15.4354 186.501 15.3601 186.429 15.2848Z" fill="white"/>
<path d="M129.432 7.28366C129.568 7.16181 129.704 7.03995 129.84 6.91895C130.411 7.11865 130.949 7.41906 131.402 7.82355C131.402 7.89548 131.406 8.03849 131.407 8.11042C130.855 8.67484 130.315 9.2545 129.825 9.87393C129.6 9.82062 129.461 9.62599 129.311 9.46774C129.192 9.33404 129.054 9.21727 128.898 9.12841C128.986 9.03448 129.075 8.9414 129.164 8.84832C129.313 8.99217 129.461 9.13687 129.608 9.28327C130.001 9.01587 130.327 8.66553 130.642 8.31435C130.714 8.2145 130.838 8.10619 130.785 7.96994C130.535 7.72454 130.154 7.63146 129.976 7.3099C129.795 7.2989 129.613 7.29128 129.432 7.28366Z" fill="white"/>
<path d="M164.915 9.41788C165.552 8.40581 166.486 7.55536 167.6 7.1001C167.675 7.21688 167.752 7.33365 167.829 7.45043C167.083 7.80415 166.288 8.16548 165.803 8.867C165.406 9.31126 165.088 9.81476 164.9 10.3826C164.815 10.336 164.73 10.2895 164.646 10.2429C164.742 10.4926 164.805 10.76 164.733 11.0257C164.622 10.9021 164.514 10.7769 164.407 10.65C164.541 11.1822 164.695 11.7484 164.469 12.2798C164.373 12.1452 164.279 12.0107 164.195 11.8702C164.167 11.7467 164.138 11.624 164.113 11.5004C164.314 10.7837 164.519 10.0559 164.915 9.41788Z" fill="white"/>
<path d="M196.294 8.25481C197.13 8.18119 197.972 8.21927 198.81 8.23365C198.844 8.94278 198.783 9.65445 198.84 10.3627C198.688 10.3297 198.536 10.2959 198.387 10.2629C198.349 9.73822 198.362 9.21188 198.355 8.68553C197.84 8.57891 197.305 8.57383 196.796 8.71007C196.764 9.24827 196.806 9.789 196.748 10.3263C196.464 10.4372 196.271 10.675 196.126 10.9339C195.923 10.9661 195.719 10.9957 195.516 11.0236C195.487 11.3029 195.48 11.5847 195.497 11.8656C195.741 11.9062 195.989 11.9384 196.224 12.0188C196.281 12.177 196.086 12.2591 196.011 12.37C195.677 12.3767 195.345 12.3708 195.014 12.3395C195.019 11.726 195.015 11.1125 195.018 10.499C195.433 10.5134 195.849 10.5117 196.264 10.4719C196.343 9.73569 196.294 8.99355 196.294 8.25481Z" fill="white"/>
<path d="M123.202 9.21887C123.411 8.47674 123.843 7.75492 124.523 7.35889C124.608 7.43589 124.694 7.51205 124.774 7.59667C124.649 7.85646 124.424 8.04432 124.239 8.25926C123.967 8.5639 123.823 8.95231 123.647 9.31449C123.569 9.1994 123.492 9.08347 123.415 8.96754C123.363 9.21717 123.305 9.46596 123.24 9.71221C123.337 9.72829 123.434 9.74437 123.531 9.76044C123.577 10.0871 123.624 10.4306 123.485 10.7429C123.357 11.0238 123.367 11.3336 123.401 11.634C123.485 11.5087 123.569 11.3835 123.654 11.2582C123.777 11.54 123.855 11.8396 123.872 12.1468C124.136 12.1815 124.348 12.3397 124.504 12.5487C124.386 12.6249 124.267 12.7019 124.149 12.7797C123.443 12.2415 123.027 11.3463 123.083 10.4603C123.101 10.0456 123.02 9.60813 123.202 9.21887Z" fill="white"/>
<path d="M162.208 12.9785C162.319 13.2848 162.439 13.5963 162.442 13.9271C162.452 14.4924 162.471 15.0602 162.42 15.6238C162.324 16.2212 162.048 16.7679 161.831 17.3264C161.395 18.0668 160.697 18.627 159.898 18.9333L159.864 18.9376C159.729 18.9206 159.594 18.9046 159.461 18.8893C159.423 18.7759 159.387 18.6634 159.351 18.5508C159.626 18.4781 159.896 18.5593 160.149 18.6659C160.128 18.5881 160.107 18.5111 160.088 18.4341C160.554 18.17 160.95 17.7986 161.287 17.3856C161.513 17.1004 161.607 16.7425 161.748 16.4133C161.859 16.1298 162.02 15.8497 162.003 15.5341C161.981 14.6803 161.857 13.7883 162.208 12.9785Z" fill="white"/>
<path d="M164.161 13.8833C164.276 13.8139 164.39 13.742 164.505 13.6709C164.731 14.1389 164.392 14.6144 164.463 15.0934C164.485 15.3904 164.854 15.3709 165.011 15.5571C165.17 15.8127 165.257 16.1055 165.365 16.3856C165.275 16.4338 165.185 16.4829 165.096 16.532C164.583 15.7399 164.178 14.8412 164.161 13.8833Z" fill="white"/>
<path d="M196.21 8.13C197.077 7.99038 197.962 8.11392 198.835 8.05469C199.059 8.79936 198.833 9.58464 198.987 10.3403C199.631 10.4393 200.286 10.3268 200.926 10.4486C200.944 11.1078 200.938 11.7662 200.931 12.4254C200.356 12.6099 199.75 12.4592 199.163 12.5354C198.943 12.5599 198.935 12.824 198.927 12.9932C198.915 13.5881 198.938 14.183 198.928 14.777C198.932 15.3499 198.866 15.949 199.097 16.4915C199.171 16.6565 199.325 16.7631 199.472 16.8621C199.482 16.8672 199.502 16.8765 199.513 16.8816C199.915 17.028 200.351 16.8638 200.753 16.9315C200.759 16.9383 200.771 16.9509 200.777 16.9577C200.875 17.1456 200.851 17.3647 200.859 17.5704C200.847 18.04 200.892 18.5131 200.816 18.9793L200.732 18.9912C200.439 19.025 200.15 19.0919 199.865 19.1706C199.439 19.2493 198.99 19.256 198.565 19.1706C198.384 19.124 198.204 19.0775 198.022 19.0403C197.442 18.9666 196.974 18.5537 196.658 18.0874C196.563 17.9596 196.533 17.8039 196.512 17.6508C196.861 18.1923 197.296 18.7618 197.958 18.9175C198.48 19.0199 199.013 19.1655 199.549 19.08C199.925 19.0233 200.298 18.9522 200.678 18.9184C200.717 18.3049 200.711 17.6897 200.682 17.0762C200.538 17.0906 200.395 17.1041 200.253 17.1168C199.986 17.11 199.71 17.1346 199.452 17.0559C199.165 16.9112 199.015 16.6082 198.83 16.3611C198.828 15.0351 198.788 13.7074 198.85 12.3822C199.486 12.3543 200.124 12.3949 200.761 12.3518C200.784 11.745 200.785 11.1366 200.759 10.5299C200.128 10.4994 199.497 10.5045 198.867 10.5248C198.861 10.4842 198.848 10.4029 198.842 10.3623C198.784 9.65403 198.846 8.94237 198.811 8.23324C197.974 8.21885 197.132 8.18077 196.296 8.25439C196.296 8.99314 196.345 9.73527 196.265 10.4715C195.851 10.5113 195.434 10.5129 195.02 10.4986C195.016 11.1121 195.02 11.7256 195.015 12.3391C195.346 12.3704 195.679 12.3763 196.012 12.3695C196.072 12.3687 196.194 12.3678 196.254 12.367C196.374 13.0516 196.295 13.748 196.315 14.4385C196.319 15.0884 196.31 15.7383 196.313 16.3882C196.313 16.8181 196.452 17.2285 196.512 17.6508C196.252 17.3182 196.22 16.8748 196.205 16.4686C196.198 15.2831 196.207 14.0975 196.204 12.912C196.213 12.7639 196.154 12.5887 195.989 12.5625C195.647 12.5041 195.297 12.5743 194.954 12.5219C194.816 12.4516 194.85 12.2832 194.838 12.1563C194.837 11.7027 194.842 11.2491 194.836 10.7956C194.845 10.645 194.809 10.4486 194.96 10.3555C195.327 10.2853 195.705 10.3775 196.072 10.3056C196.166 10.2151 196.206 10.0848 196.201 9.95613C196.21 9.3477 196.186 8.73843 196.21 8.13Z" fill="white"/>
<path d="M198.833 8.05469C198.927 8.13592 199.063 8.20362 199.053 8.35002C199.089 8.96691 199.045 9.58718 199.063 10.2058C199.672 10.2752 200.285 10.2202 200.897 10.2362C201.022 10.6086 200.996 11.0054 200.996 11.393C200.991 11.8085 201.034 12.2358 200.9 12.6378C200.305 12.6623 199.71 12.6336 199.115 12.6589C199.069 13.9359 199.116 15.2145 199.094 16.4915C198.864 15.949 198.93 15.3499 198.926 14.777C198.936 14.183 198.913 13.5881 198.925 12.9932C198.933 12.824 198.94 12.5599 199.16 12.5354C199.748 12.4592 200.354 12.6099 200.929 12.4254C200.936 11.7662 200.942 11.1078 200.924 10.4486C200.283 10.3268 199.628 10.4393 198.985 10.3403C198.83 9.58464 199.056 8.79936 198.833 8.05469Z" fill="white"/>
<path d="M126.701 8.51411C127.183 8.2374 127.78 8.28648 128.289 8.46503C128.251 8.57927 128.212 8.69266 128.174 8.8069C127.64 8.77051 127.064 8.71974 126.571 8.97445C126.228 9.13016 126.016 9.45341 125.774 9.72674C125.774 9.52618 125.677 9.27655 125.85 9.11916C126.097 8.87206 126.4 8.68843 126.701 8.51411Z" fill="white"/>
<path d="M167.835 9.89648C167.928 9.91849 168.02 9.94133 168.113 9.96418C168.08 10.0056 168.013 10.0877 167.979 10.1292C167.589 10.5464 167.306 11.0617 167.145 11.6075C166.977 12.4157 166.96 13.2576 167.137 14.0649C167.263 14.4703 167.453 14.8545 167.674 15.2166C167.576 15.2835 167.477 15.3503 167.379 15.4172C167.169 15.1202 167.184 14.7529 167.187 14.4068C167.004 14.3027 166.797 14.2223 166.656 14.0607C166.57 13.9321 166.655 13.7925 166.704 13.6698C166.872 13.3567 166.793 12.9902 166.788 12.6526C166.787 12.3285 166.651 12.0188 166.659 11.6964C166.761 11.6304 166.871 11.5796 166.98 11.5271C166.945 11.3393 166.86 11.1379 166.946 10.9517C167.131 10.521 167.476 10.1859 167.835 9.89648Z" fill="white"/>
<path d="M156.537 12.4625C156.806 12.2137 157.135 11.9912 157.504 11.937C157.888 11.9404 158.278 11.9336 158.658 11.9996C158.669 12.0572 158.69 12.1731 158.7 12.2306C158.241 12.2679 157.779 12.2535 157.318 12.2467C157.323 12.284 157.334 12.3593 157.339 12.3965C157.022 12.5869 156.673 12.7435 156.426 13.0286C156.189 13.3003 156.02 13.6244 155.873 13.9502C155.841 13.907 155.777 13.8207 155.745 13.7775C155.728 13.9781 155.692 14.1837 155.545 14.3343C155.487 14.1879 155.4 14.0263 155.476 13.8689C155.68 13.3045 156.123 12.878 156.537 12.4625Z" fill="white"/>
<path d="M128.466 14.9025C128.638 14.8399 128.857 14.7435 128.997 14.9229C129.127 15.2478 129.1 15.6151 129.057 15.9561C129.039 16.1896 128.829 16.3233 128.671 16.4672C128.605 16.3885 128.539 16.3098 128.473 16.2303C128.657 15.8139 128.671 15.313 128.466 14.9025Z" fill="white"/>
<path d="M129.721 17.9719C130.111 17.7172 130.356 17.3152 130.641 16.959C130.729 17.0318 130.816 17.1045 130.903 17.1773C130.569 17.8458 129.986 18.3705 129.309 18.676C129.392 18.4153 129.465 18.12 129.721 17.9719Z" fill="white"/>
<path d="M128.228 18.6094C128.557 18.4968 128.892 18.4029 129.234 18.3369C129.181 18.4799 129.128 18.6238 129.076 18.7685C128.504 18.9834 127.905 19.1721 127.286 19.1484C126.679 19.1247 126.044 19.2331 125.467 18.9919C125.662 18.8819 125.844 18.7092 126.079 18.7016C126.795 18.6779 127.535 18.8548 128.228 18.6094Z" fill="white"/>
<path d="M196.797 8.70994C197.307 8.5737 197.842 8.57877 198.357 8.6854C198.364 9.21174 198.35 9.73809 198.388 10.2627C198.538 10.2957 198.689 10.3296 198.842 10.3626C198.848 10.4032 198.86 10.4844 198.867 10.5251C198.887 10.6452 198.908 10.7654 198.928 10.8856C199.371 11.0074 199.834 10.9888 200.29 11.0032C200.312 11.3019 200.318 11.6023 200.312 11.9019C199.909 11.9822 199.498 11.9213 199.093 11.9645C198.854 12.0635 198.684 12.2784 198.514 12.4654C198.329 12.6508 198.356 12.9283 198.351 13.1678C198.368 14.0445 198.357 14.9203 198.353 15.797C198.342 16.028 198.408 16.2506 198.51 16.4553C198.616 16.424 198.722 16.3927 198.83 16.3614C199.015 16.6085 199.165 16.9114 199.452 17.0562C199.71 17.1349 199.986 17.1103 200.252 17.1171C199.956 17.1653 199.669 17.2576 199.404 17.398C199.689 17.4996 199.983 17.5673 200.281 17.618C200.29 17.8846 200.331 18.163 200.238 18.4203C200.06 18.515 199.862 18.559 199.67 18.6132C199.745 18.697 199.819 18.7816 199.895 18.8662C199.45 18.9711 198.986 19.0075 198.543 18.8789C198.618 18.7757 198.695 18.6733 198.772 18.5709C198.475 18.5396 198.176 18.5472 197.883 18.4964C197.68 18.4338 197.52 18.2832 197.363 18.1478C197.06 17.888 196.99 17.475 196.857 17.1196C196.769 17.2677 196.682 17.4158 196.594 17.5622C196.444 17.0621 196.802 16.6254 196.775 16.1329C196.769 15.1733 196.763 14.2137 196.779 13.2541C196.774 13.0451 196.785 12.8302 196.72 12.6296C196.598 12.4934 196.422 12.4248 196.254 12.3673C196.194 12.3681 196.072 12.369 196.012 12.3698C196.087 12.259 196.283 12.1769 196.225 12.0186C195.99 11.9382 195.742 11.9061 195.498 11.8655C195.481 11.5845 195.488 11.3027 195.518 11.0235C195.721 10.9956 195.924 10.9659 196.128 10.9338C196.273 10.6748 196.466 10.4371 196.75 10.3262C196.807 9.78886 196.766 9.24813 196.797 8.70994Z" fill="white"/>
<path d="M126.571 8.97506C127.064 8.72035 127.639 8.77113 128.174 8.80751C128.422 8.9006 128.665 9.00553 128.899 9.12823C129.055 9.21708 129.193 9.33386 129.312 9.46756C128.888 9.30847 128.508 9.02838 128.051 8.96491C127.479 8.82021 126.845 8.93952 126.362 9.27716C125.948 9.55388 125.837 10.1623 126.074 10.5863C126.388 11.0128 126.901 11.2218 127.386 11.3868C127.903 11.578 128.448 11.6948 128.945 11.9343C128.967 11.963 129.011 12.0206 129.033 12.0502C128.717 11.9656 128.404 11.8717 128.09 11.782L128.023 11.7633C127.892 11.7202 127.764 11.6736 127.634 11.6296L127.566 11.6076C127.242 11.4841 126.918 11.3656 126.602 11.2243C126.35 11.0999 126.109 10.9366 125.949 10.7005C125.739 10.4212 125.82 10.0506 125.773 9.72735C126.015 9.45402 126.228 9.13077 126.571 8.97506Z" fill="white"/>
<path d="M168.261 9.37943C168.54 9.09256 168.936 8.96394 169.296 8.80908C169.457 8.8937 169.624 8.97071 169.801 9.02064C169.257 9.24234 168.686 9.43274 168.232 9.82031C168.222 9.67645 168.137 9.49875 168.261 9.37943Z" fill="white"/>
<path d="M168.982 9.50904C169.881 8.99031 171.101 8.94377 171.993 9.50312C171.485 9.37365 170.977 9.20102 170.444 9.24333C169.937 9.21033 169.47 9.42104 168.982 9.50904Z" fill="white"/>
<path d="M146.148 10.124C146.315 10.08 146.488 10.0648 146.661 10.058C147.502 10.0445 148.377 9.98442 149.168 10.3271C150.202 10.6758 150.87 11.6828 151.082 12.7143C151.154 13.1171 151.277 13.5148 151.28 13.9269C151.282 15.6177 151.275 17.3084 151.284 18.9991C150.71 19.1202 150.121 19.033 149.542 19.0584C149.229 19.044 148.901 19.1066 148.601 19.011C148.449 18.8087 148.444 18.5286 148.35 18.2968C148.375 18.2596 148.425 18.1851 148.449 18.1479C148.517 18.1343 148.652 18.1081 148.719 18.0954C148.722 18.3636 148.725 18.6327 148.726 18.901C149.492 18.9475 150.271 19.0059 151.032 18.8756C151.034 17.1146 151.04 15.3545 151.027 13.5935C151.041 13.1196 150.878 12.6703 150.747 12.2218C150.659 11.9459 150.518 11.6904 150.357 11.4509C150.285 11.3468 150.21 11.2444 150.13 11.1471C149.712 10.5539 148.966 10.3195 148.28 10.2146C147.311 10.0673 146.282 10.1224 145.376 10.5184C144.793 10.7342 144.235 11.0456 143.777 11.4695C143.678 11.5525 143.763 11.6972 143.831 11.7725C144.196 12.1947 144.57 12.6102 144.974 12.9969C145.056 12.9377 145.139 12.8785 145.221 12.8175L145.188 12.8903C145.167 13.0943 144.927 13.1679 144.787 13.0206C144.408 12.6932 144.096 12.2946 143.755 11.929C143.637 11.7945 143.489 11.6269 143.57 11.4348C144.263 10.7342 145.214 10.3754 146.148 10.124Z" fill="white"/>
<path d="M167.978 10.1287C168.065 10.0914 168.152 10.0533 168.24 10.0161C168.082 10.3334 167.806 10.5704 167.641 10.8818C167.383 11.343 167.265 11.8651 167.174 12.3813C167.041 13.0946 167.301 13.7928 167.439 14.4833C167.747 15.1882 168.272 15.8381 168.984 16.1647C169.121 16.229 169.239 16.3238 169.347 16.4304C168.633 16.3306 168.09 15.7628 167.673 15.2161C167.452 14.8539 167.262 14.4697 167.136 14.0644C166.959 13.2571 166.976 12.4151 167.144 11.607C167.305 11.0612 167.588 10.5458 167.978 10.1287Z" fill="white"/>
<path d="M186.476 11.3496C187.301 10.6574 188.333 10.2131 189.397 10.0634C190.293 10.0414 191.232 9.95927 192.077 10.3274C192.513 10.5254 193.017 10.7573 193.204 11.2337C193.086 11.1457 192.964 11.0644 192.848 10.979C192.638 10.8165 192.416 10.6701 192.182 10.5457C191.971 10.4281 191.748 10.3206 191.508 10.2791C190.873 10.1598 190.223 10.0871 189.579 10.1674C188.897 10.2538 188.193 10.3875 187.621 10.7919C187.499 10.8605 187.376 10.9299 187.256 11.001C187.003 11.1491 186.758 11.3107 186.518 11.4765C186.658 11.8176 186.938 12.0621 187.177 12.3312C187.189 12.3701 187.213 12.4471 187.225 12.4861C186.934 12.2974 186.695 12.0427 186.47 11.782C186.353 11.6703 186.329 11.4461 186.476 11.3496Z" fill="white"/>
<path d="M137.525 10.2442C137.944 10.1833 138.363 10.0292 138.79 10.1096C139.243 10.1875 139.721 10.2323 140.11 10.5023C141.134 11.0752 141.566 12.3073 141.601 13.4226C141.619 15.0304 141.599 16.6382 141.611 18.2468C141.616 18.4931 141.588 18.7385 141.554 18.983C140.86 19.0051 140.166 18.9704 139.472 18.9898C139.244 18.989 139.005 19.0279 138.79 18.934C138.829 18.9348 138.907 18.9357 138.946 18.9357C139.775 18.9594 140.606 18.9932 141.431 18.9103C141.494 17.1104 141.435 15.3079 141.462 13.5072C141.395 12.5933 141.184 11.6159 140.517 10.9423C140.07 10.603 139.546 10.3051 138.971 10.2924C138.33 10.2577 137.645 10.262 137.078 10.6021C136.663 10.7875 136.347 11.1259 136.118 11.5118C136.008 11.5245 135.898 11.5372 135.788 11.5507C135.778 11.2123 135.782 10.8738 135.77 10.5353C134.956 10.5243 134.138 10.482 133.326 10.5573C133.353 13.3354 133.333 16.1144 133.336 18.8925C134.2 18.9086 135.063 18.8934 135.926 18.9001C135.996 17.1891 135.918 15.4738 135.962 13.7619C136.007 13.3735 136.269 13.0528 136.517 12.7676C136.887 12.3758 137.459 12.2531 137.968 12.4063C138.421 12.65 138.761 13.1019 138.823 13.6189C138.811 13.6612 138.785 13.745 138.772 13.7864C138.674 13.5436 138.609 13.2872 138.485 13.0562C138.358 12.8336 138.142 12.6813 137.929 12.5484C137.915 12.5442 137.889 12.5366 137.877 12.5324C137.612 12.5256 137.335 12.4884 137.079 12.5738C136.664 12.7507 136.333 13.1188 136.201 13.5512C136.006 14.1368 136.075 14.763 136.064 15.3697C136.057 16.5722 136.081 17.7755 136.052 18.978C135.114 19.0152 134.174 19.0093 133.237 18.9822C133.22 16.1203 133.225 13.2584 133.234 10.3965H133.309C134.176 10.3965 135.043 10.3889 135.91 10.4024C135.949 10.7274 135.985 11.0523 136.044 11.3747C136.073 11.3231 136.134 11.219 136.165 11.1674C136.302 10.8704 136.603 10.7248 136.864 10.5581C137.073 10.4312 137.277 10.2763 137.525 10.2442Z" fill="white"/>
<path d="M145.375 10.5182C146.281 10.1221 147.31 10.0671 148.279 10.2144C148.965 10.3193 149.711 10.5537 150.13 11.1469C149.963 11.0225 149.791 10.9057 149.614 10.7957C149.23 10.5689 148.813 10.3692 148.36 10.3447C147.363 10.2846 146.352 10.2804 145.375 10.5182Z" fill="white"/>
<path d="M156.049 11.1783C156.702 10.4794 157.65 10.113 158.596 10.0791C158.938 10.0859 159.273 10.1713 159.612 10.2145C160.045 10.2619 160.427 10.4912 160.777 10.7358C161.62 11.323 162.244 12.2386 162.472 13.2389C162.559 14.2873 162.654 15.3696 162.331 16.3902C162.23 16.7337 162.04 17.0401 161.831 17.3269C162.048 16.7684 162.324 16.2218 162.42 15.6243C162.471 15.0608 162.452 14.493 162.442 13.9277C162.439 13.5968 162.319 13.2854 162.208 12.9791C161.903 11.9746 161.18 11.1326 160.276 10.6122C159.554 10.2331 158.713 10.1967 157.919 10.2949C157.515 10.3516 157.133 10.52 156.791 10.7375C156.404 10.9287 156.189 11.3687 155.76 11.4796C155.743 11.395 155.726 11.3112 155.71 11.2283C155.742 10.9812 155.765 10.7332 155.757 10.4844C155.79 10.4844 155.857 10.4853 155.891 10.4861C155.91 10.7586 155.915 11.0328 155.925 11.3061C155.966 11.2638 156.007 11.2206 156.049 11.1783Z" fill="white"/>
<path d="M187.622 10.7917C188.194 10.3872 188.898 10.2535 189.579 10.1672C190.223 10.0868 190.874 10.1596 191.509 10.2789C191.749 10.3204 191.972 10.4278 192.183 10.5455C191.659 10.4134 191.126 10.3017 190.584 10.317C189.871 10.3339 189.127 10.2467 188.45 10.5133C188.175 10.6123 187.9 10.7062 187.622 10.7917Z" fill="white"/>
<path d="M133.31 10.234C134.068 10.2357 134.826 10.2391 135.584 10.2314C135.73 10.2441 135.923 10.212 136.014 10.3584C136.072 10.6266 136.071 10.9067 136.165 11.1674C136.134 11.219 136.073 11.3231 136.044 11.3747C135.985 11.0523 135.949 10.7273 135.91 10.4024C135.042 10.3888 134.176 10.3965 133.309 10.3965C133.309 10.3558 133.31 10.2746 133.31 10.234Z" fill="white"/>
<path d="M153.106 10.7098C153.102 10.5287 153.124 10.2486 153.366 10.2511C154.203 10.2257 155.041 10.2536 155.878 10.2393C155.94 10.5515 155.974 10.8688 156.05 11.1786C156.007 11.2209 155.966 11.264 155.925 11.3063C155.915 11.033 155.91 10.7588 155.892 10.4864C155.858 10.4855 155.791 10.4847 155.757 10.4847C154.945 10.4914 154.133 10.4965 153.322 10.4847C153.165 11.0889 153.293 11.7108 153.284 12.3235C153.281 15.4545 153.285 18.5863 153.282 21.7173C153.286 22.1472 153.188 22.5915 153.323 23.0112C153.553 23.0687 153.791 23.0569 154.026 23.0569C154.66 23.0442 155.297 23.0704 155.931 23.0332C155.986 21.4 155.892 19.7626 155.978 18.1311C156.188 18.2368 156.39 18.357 156.583 18.4924C156.711 18.5872 156.843 18.6752 156.979 18.7581C157.024 18.7869 157.113 18.8444 157.158 18.8723C157.207 18.8927 157.306 18.9333 157.355 18.9527C157.364 18.9553 157.382 18.9595 157.39 18.962C157.455 18.9654 157.584 18.973 157.649 18.9773C157.692 19.0847 157.776 19.1321 157.9 19.1169C158.36 19.2235 158.835 19.2413 159.292 19.1135L159.364 19.1025C159.478 19.1228 159.565 19.0839 159.625 18.9849C159.682 18.9756 159.795 18.9561 159.851 18.9468C159.863 18.9434 159.886 18.9375 159.898 18.9341C160.697 18.6278 161.395 18.0676 161.831 17.3272C162.04 17.0403 162.231 16.734 162.331 16.3904C162.654 15.3699 162.56 14.2876 162.473 13.2391C162.691 13.691 162.721 14.1995 162.717 14.6929C162.744 15.3716 162.54 16.0299 162.343 16.6713C161.986 17.5074 161.389 18.2563 160.628 18.759C159.81 19.287 158.792 19.3682 157.85 19.2371C157.209 19.1287 156.673 18.742 156.134 18.4052C156.092 19.876 156.129 21.3492 156.117 22.8216C156.115 22.9613 156.102 23.1508 155.939 23.1957C155.671 23.2447 155.396 23.2194 155.127 23.2219C154.465 23.2075 153.801 23.249 153.14 23.1948C153.085 22.5906 153.121 21.9839 153.115 21.378C153.111 17.8222 153.124 14.2655 153.106 10.7098Z" fill="white"/>
<path d="M137.078 10.6017C137.646 10.2615 138.33 10.2573 138.971 10.292C139.546 10.3047 140.07 10.6025 140.517 10.9419C141.184 11.6155 141.395 12.5928 141.462 13.5068C141.435 15.3075 141.494 17.1099 141.431 18.9098C140.606 18.9928 139.775 18.9589 138.946 18.9352C138.906 17.3782 138.939 15.8195 138.932 14.2624C138.927 14.0433 138.876 13.83 138.823 13.6185C138.761 13.1014 138.421 12.6495 137.968 12.4058C137.459 12.2527 136.887 12.3754 136.518 12.7672C136.457 12.6665 136.396 12.5666 136.336 12.4659C136.589 12.2002 136.892 11.9472 137.272 11.9066C137.884 11.7966 138.48 12.1334 138.868 12.5852C139.283 13.1031 139.392 13.7911 139.387 14.4367C139.379 15.6231 139.391 16.8087 139.375 17.9951C139.373 18.2489 139.417 18.4994 139.472 18.7465C139.975 18.7804 140.481 18.7846 140.986 18.7423C141.042 17.4501 140.991 16.1546 141.01 14.8615C141.002 14.193 140.968 13.5152 141.136 12.8611C141.008 12.735 140.868 12.6157 140.768 12.4634C140.576 12.1274 140.599 11.6849 140.309 11.4022C140.045 11.1492 139.701 10.9723 139.52 10.6398C138.9 10.9715 138.17 10.6364 137.527 10.881C137.122 11.0375 136.88 11.4369 136.496 11.6282C136.274 11.7297 136.022 11.6629 135.793 11.6282L135.788 11.5503C135.898 11.5368 136.008 11.5241 136.118 11.5114C136.347 11.1255 136.663 10.787 137.078 10.6017Z" fill="white"/>
<path d="M156.792 10.7375C157.135 10.52 157.516 10.3516 157.921 10.2949C158.715 10.1968 159.556 10.2332 160.278 10.6123C160.194 10.7274 160.11 10.8424 160.027 10.9575C159.433 10.614 158.733 10.7773 158.084 10.7333C157.794 10.7045 157.534 10.845 157.261 10.9101C157.095 10.8822 156.945 10.801 156.792 10.7375Z" fill="white"/>
<path d="M128.09 11.7817C128.404 11.8714 128.717 11.9654 129.033 12.05L129.077 12.0745C129.491 12.3352 129.936 12.545 130.333 12.8319C130.904 13.2381 131.226 13.9252 131.314 14.6064C131.343 15.2038 131.379 15.8156 131.238 16.4012C131.113 16.2997 130.988 16.1973 130.863 16.0949C130.904 15.4391 130.853 14.7748 130.982 14.1258C130.57 13.954 130.438 13.4911 130.114 13.2186C129.503 12.683 128.708 12.4469 127.984 12.1092C128.019 12.0001 128.055 11.8909 128.09 11.7817Z" fill="white"/>
<path d="M125.316 16.5137C125.438 16.5611 125.562 16.6042 125.684 16.6499C126.322 16.9672 127.05 16.8564 127.735 16.8445C127.385 17.0883 126.948 17.0747 126.544 17.0273C126.492 17.1103 126.443 17.1949 126.379 17.2702C126.274 17.2812 126.168 17.2744 126.063 17.2719C126.083 17.1636 126.102 17.0552 126.122 16.9478C125.929 16.9842 125.735 17.0341 125.537 17.0265C125.328 16.9419 125.271 16.7159 125.316 16.5137Z" fill="white"/>
<path d="M145.376 10.5181C146.353 10.2803 147.363 10.2846 148.361 10.3447C148.814 10.3692 149.23 10.5689 149.614 10.7957C149.572 10.8803 149.53 10.9649 149.489 11.0504C149.668 11.229 149.855 11.3982 150.052 11.5581C150.153 11.5217 150.255 11.4862 150.357 11.4507C150.518 11.6901 150.658 11.9457 150.747 12.2216C150.76 12.5821 150.687 12.9375 150.601 13.2861C150.495 13.7194 150.544 14.167 150.552 14.6079C150.577 15.708 150.549 16.808 150.571 17.9073C150.581 18.2263 150.536 18.5445 150.451 18.8517C150.645 18.8567 150.838 18.8643 151.032 18.8753C150.271 19.0057 149.492 18.9473 148.726 18.9007C148.725 18.6325 148.722 18.3634 148.719 18.0951C148.526 18.0596 148.325 17.9801 148.129 18.0393C147.826 18.151 147.596 18.4032 147.289 18.5047C147.08 18.5639 146.862 18.5826 146.649 18.6147C146.841 18.8483 147.114 18.9879 147.423 18.9447C146.621 19.2045 145.746 19.2274 144.945 18.9515C144.566 18.7146 144.121 18.5589 143.829 18.2043C143.422 17.7287 143.197 17.0949 143.223 16.4687C143.198 15.669 143.648 14.8871 144.33 14.4784C145.026 14.0587 145.838 13.9081 146.63 13.7938C147.296 13.6085 148.006 13.8209 148.666 13.6C148.633 13.1448 148.528 12.5931 148.076 12.3688C147.681 12.1065 147.191 12.1767 146.744 12.1716C146.179 12.1657 145.592 12.3823 145.221 12.8173C145.139 12.8782 145.056 12.9375 144.974 12.9967C144.57 12.61 144.196 12.1945 143.831 11.7722C143.763 11.6969 143.678 11.5522 143.777 11.4693C144.235 11.0453 144.792 10.7339 145.376 10.5181ZM146.87 15.3145C146.361 15.4338 145.684 15.6877 145.682 16.3122C145.592 16.7801 145.993 17.1516 146.405 17.2625C146.775 17.2912 147.148 17.2904 147.518 17.2548C148.308 16.9764 148.826 16.0879 148.628 15.2654C148.436 15.1875 148.22 15.2366 148.017 15.2265C147.635 15.2451 147.239 15.1875 146.87 15.3145Z" fill="white"/>
<path d="M188.45 10.5131C189.128 10.2466 189.872 10.3337 190.585 10.3168C191.127 10.3016 191.66 10.4133 192.184 10.5453C192.417 10.6697 192.639 10.8161 192.849 10.9786C193.355 11.5667 193.665 12.3004 193.756 13.0704C194.001 13.9589 193.876 14.8838 193.904 15.7927C193.886 16.7887 193.946 17.7881 193.866 18.7824C193.753 18.1003 193.815 17.4098 193.804 16.7235C193.798 15.8748 193.807 15.0269 193.808 14.1781C193.819 13.9775 193.757 13.7872 193.64 13.6255C193.443 14.1578 193.549 14.7315 193.526 15.285C193.505 16.479 193.587 17.6764 193.469 18.867C192.877 18.8737 192.285 18.8831 191.693 18.8534C191.676 18.5556 191.652 18.2586 191.608 17.9641C191.33 18.0715 190.964 18.1714 190.95 18.5302C190.893 18.6707 190.721 18.7223 190.599 18.7951C189.484 19.3442 188.08 19.2452 187.042 18.5674C187.124 18.465 187.208 18.3626 187.292 18.2602C187.074 18.0174 186.865 17.7677 186.667 17.5097C186.58 17.607 186.493 17.7043 186.407 17.8016C186.414 17.2626 186.689 16.7565 186.596 16.2116C186.618 15.9475 186.387 15.7952 186.22 15.637C186.286 15.5177 186.356 15.4 186.43 15.285C186.502 15.3603 186.577 15.4356 186.651 15.5117C186.904 15.1377 187.277 14.8771 187.671 14.6689C187.645 14.5547 187.619 14.4396 187.593 14.3253C187.877 14.206 188.167 14.1028 188.462 14.0122C188.862 13.8845 189.314 13.9632 189.682 13.7305L189.749 13.7008C190.319 13.733 190.889 13.711 191.459 13.7042C191.464 13.458 191.497 13.2066 191.446 12.9629C191.249 12.6515 190.973 12.3664 190.634 12.2107C190.225 12.1413 189.804 12.1692 189.39 12.1777C188.968 12.1844 188.598 12.4163 188.251 12.6312C187.757 12.4129 187.377 12.0067 186.877 11.8036C187.063 11.6191 187.246 11.4313 187.431 11.246C187.372 11.1639 187.315 11.0818 187.257 11.0006C187.377 10.9295 187.5 10.8601 187.623 10.7916C187.9 10.7061 188.176 10.6122 188.45 10.5131ZM189.712 14.8322C189.781 14.9431 189.851 15.0539 189.922 15.1656C189.559 15.2646 189.155 15.3366 188.881 15.6167C188.725 15.7664 188.576 15.9272 188.461 16.1117C188.406 16.3182 188.418 16.5433 188.455 16.7523C188.744 17.2253 189.302 17.3573 189.812 17.4242C190.405 17.3463 191.041 17.1221 191.357 16.5754C191.56 16.1354 191.691 15.6514 191.631 15.1631C191.595 15.1623 191.523 15.1589 191.487 15.158C191.487 15.0328 191.487 14.9075 191.489 14.7831C191.25 14.7129 191.002 14.6816 190.754 14.6892C190.403 14.6968 190.03 14.6554 189.712 14.8322Z" fill="white"/>
<path d="M153.32 10.4844C154.132 10.4962 154.944 10.4911 155.756 10.4844C155.764 10.7332 155.741 10.9811 155.709 11.2282C155.666 11.0386 155.621 10.8508 155.581 10.6612C155.55 10.6528 155.488 10.635 155.458 10.6257C155.438 10.7298 155.419 10.833 155.4 10.9371C154.893 10.9904 154.381 10.9667 153.872 10.9794C153.82 11.4254 153.791 11.873 153.793 12.3224C153.797 15.1149 153.793 17.9082 153.796 20.7007C153.803 21.3075 153.765 21.9142 153.809 22.5201C154.346 22.5683 154.886 22.5649 155.423 22.5218C155.463 21.2076 155.416 19.8917 155.439 18.5776C155.43 18.3745 155.509 18.1883 155.623 18.0258C155.814 18.6461 155.707 19.3011 155.729 19.9391C155.712 20.8903 155.773 21.8431 155.693 22.7926C154.977 22.84 154.258 22.8442 153.543 22.7934C153.492 22.1528 153.522 21.5106 153.514 20.87C153.514 18.2746 153.514 15.6801 153.514 13.0848C153.52 12.2758 153.497 11.4668 153.545 10.6595C153.506 10.6291 153.427 10.569 153.388 10.5385L153.32 10.4844Z" fill="white"/>
<path d="M153.284 12.3232C153.293 11.7105 153.165 11.0886 153.322 10.4844L153.389 10.5385C153.43 14.6638 153.375 18.7917 153.416 22.9178C154.217 22.9432 155.019 22.9432 155.82 22.9187C155.852 21.7847 155.823 20.65 155.833 19.516C155.836 18.9753 155.788 18.4278 155.9 17.8938C156.184 18.0216 156.404 18.2416 156.583 18.4921C156.39 18.3567 156.188 18.2366 155.978 18.1308C155.892 19.7623 155.986 21.3997 155.931 23.0329C155.297 23.0701 154.66 23.0439 154.026 23.0566C153.791 23.0566 153.553 23.0684 153.323 23.0109C153.188 22.5912 153.286 22.1469 153.282 21.717C153.285 18.586 153.281 15.4542 153.284 12.3232Z" fill="white"/>
<path d="M163.862 12.0668C163.911 11.543 163.963 10.9761 164.253 10.5259C164.189 10.8229 164.124 11.1216 164.097 11.4254C163.967 12.0541 163.856 12.7007 163.942 13.3429C164.02 13.9717 164.141 14.5945 164.289 15.2105C164.108 15.0599 164.072 14.8221 164.014 14.608C163.776 13.7821 163.876 12.9139 163.862 12.0668Z" fill="white"/>
<path d="M198.866 10.5253C199.495 10.505 200.127 10.4999 200.757 10.5304C200.783 11.1371 200.782 11.7455 200.76 12.3523C200.122 12.3954 199.484 12.3548 198.848 12.3827C198.786 13.7079 198.827 15.0356 198.829 16.3616C198.721 16.3929 198.614 16.4243 198.509 16.4556C198.407 16.2508 198.34 16.0282 198.351 15.7972C198.356 14.9205 198.367 14.0447 198.35 13.168C198.355 12.9285 198.328 12.651 198.513 12.4657C198.682 12.2786 198.852 12.0637 199.092 11.9647C199.496 11.9215 199.907 11.9825 200.31 11.9021C200.317 11.6025 200.31 11.3021 200.288 11.0034C199.833 10.989 199.37 11.0076 198.927 10.8858C198.906 10.7656 198.886 10.6455 198.866 10.5253Z" fill="white"/>
<path d="M186.519 11.4766C186.759 11.3107 187.003 11.1491 187.256 11.001C187.314 11.0822 187.372 11.1643 187.43 11.2464C187.245 11.4317 187.063 11.6196 186.877 11.804C187.377 12.0071 187.757 12.4133 188.251 12.6316C188.103 12.7239 187.954 12.8119 187.804 12.899C187.597 12.7078 187.388 12.5191 187.178 12.3312C186.939 12.0621 186.658 11.8176 186.519 11.4766Z" fill="white"/>
<path d="M189.712 14.8321C190.03 14.6553 190.403 14.6967 190.754 14.6891C191.002 14.6815 191.249 14.7128 191.489 14.783C191.486 14.9074 191.486 15.0327 191.487 15.1579C190.965 15.1418 190.442 15.1384 189.922 15.1655C189.851 15.0538 189.781 14.943 189.712 14.8321Z" fill="white"/>
<path d="M186.151 17.4226C186.178 16.8277 186.09 16.2235 186.219 15.6362C186.387 15.7945 186.618 15.9468 186.596 16.2108C186.689 16.7558 186.414 17.2618 186.406 17.8008C186.492 17.7035 186.58 17.6062 186.666 17.5089C186.865 17.767 187.074 18.0166 187.291 18.2595C187.207 18.3619 187.124 18.4643 187.042 18.5667C186.642 18.2756 186.337 17.8804 186.151 17.4226Z" fill="white"/>
<path d="M149.614 10.7964C149.79 10.9064 149.963 11.0232 150.13 11.1476C150.209 11.2449 150.285 11.3473 150.356 11.4514C150.254 11.4869 150.153 11.5224 150.051 11.5588C149.855 11.3989 149.667 11.2296 149.488 11.0511C149.53 10.9656 149.571 10.881 149.614 10.7964Z" fill="white"/>
<path d="M192.848 10.9795C192.965 11.065 193.087 11.1462 193.204 11.2342C193.261 11.2833 193.308 11.3417 193.345 11.4085C193.798 12.3182 194.024 13.3404 194.007 14.3559C193.992 15.885 194.031 17.4158 193.988 18.9449C193.176 19.0168 192.359 18.9669 191.546 18.9695C191.536 18.7029 191.537 18.4363 191.541 18.1698C191.317 18.2434 191.143 18.4059 190.949 18.5311C190.963 18.1723 191.329 18.0725 191.607 17.965C191.651 18.2595 191.675 18.5565 191.692 18.8544C192.284 18.884 192.876 18.8747 193.468 18.8679C193.6 18.8662 193.733 18.8645 193.868 18.8637L193.865 18.7833C193.945 17.789 193.885 16.7896 193.903 15.7936C193.875 14.8848 194 13.9599 193.755 13.0713C193.664 12.3013 193.354 11.5676 192.848 10.9795Z" fill="white"/>
<path d="M126.602 11.2246C126.917 11.3659 127.242 11.4844 127.566 11.6079C127.338 11.6469 127.113 11.7281 126.879 11.7163C126.714 11.6731 126.57 11.5783 126.42 11.4988C126.481 11.4074 126.541 11.316 126.602 11.2246Z" fill="white"/>
<path d="M150.747 12.2222C150.878 12.6707 151.041 13.12 151.027 13.5939C151.04 15.3549 151.034 17.115 151.032 18.876C150.838 18.865 150.645 18.8573 150.451 18.8523C150.536 18.5451 150.581 18.2269 150.571 17.9079C150.549 16.8087 150.577 15.7086 150.552 14.6085C150.544 14.1676 150.495 13.72 150.601 13.2867C150.687 12.9381 150.76 12.5827 150.747 12.2222Z" fill="white"/>
<path d="M193.344 11.4077C193.454 11.4729 193.559 11.5524 193.603 11.6777C193.813 12.1532 194.003 12.6508 194.045 13.1738C194.078 13.5969 194.203 14.009 194.196 14.4355C194.188 15.621 194.191 16.8074 194.192 17.993C194.186 18.3111 194.228 18.6352 194.158 18.9483C193.948 19.192 193.574 19.0871 193.289 19.115C192.687 19.0736 192.067 19.198 191.479 19.0279C192.31 18.95 193.149 18.9932 193.983 19.0067L193.988 18.9441C194.031 17.415 193.992 15.8842 194.006 14.3551C194.024 13.3396 193.797 12.3174 193.344 11.4077Z" fill="white"/>
<path d="M127.633 11.6294C127.762 11.6734 127.891 11.7199 128.021 11.7631C127.904 11.8714 127.791 11.9848 127.678 12.0965C127.573 12.0187 127.469 11.9408 127.365 11.8621C127.454 11.7843 127.543 11.7072 127.633 11.6294Z" fill="white"/>
<path d="M129.077 12.0747C129.367 12.0959 129.655 12.1746 129.898 12.3421C130.562 12.7915 131.208 13.383 131.411 14.1894C131.505 14.7149 131.574 15.2539 131.482 15.7854C131.482 17.0809 130.569 18.2318 129.441 18.7869C128.979 18.9984 128.5 19.2159 127.986 19.2523C127.238 19.3031 126.488 19.3022 125.741 19.2481C125.198 19.1939 124.679 18.9967 124.171 18.8072C123.559 18.4856 122.928 18.1505 122.461 17.6293C122.389 17.4135 122.618 17.2392 122.747 17.0936C123.25 16.6367 123.662 16.0908 124.158 15.628C124.285 15.5019 124.48 15.5933 124.576 15.7117C124.82 15.9817 125.127 16.1797 125.414 16.3989C125.506 16.4809 125.594 16.5673 125.684 16.6502C125.561 16.6045 125.438 16.5613 125.316 16.514C125.096 16.4056 124.904 16.2508 124.725 16.0841C124.604 15.9715 124.51 15.8074 124.338 15.7693C124.001 15.9698 123.765 16.2931 123.486 16.5622C123.219 16.8465 122.902 17.0877 122.688 17.4177C122.607 17.5675 122.746 17.6843 122.838 17.7858C123.112 18.0642 123.451 18.2665 123.795 18.4467C124.016 18.5457 124.243 18.6346 124.468 18.7293C124.739 18.8546 125.025 18.9502 125.325 18.9739C125.36 18.979 125.43 18.9883 125.466 18.9925C126.043 19.2337 126.678 19.1254 127.285 19.1491C127.904 19.1728 128.503 18.9841 129.075 18.7691C129.133 18.7454 129.249 18.6989 129.308 18.676C129.985 18.3705 130.569 17.8459 130.902 17.1774C131.037 16.9294 131.144 16.668 131.238 16.4014C131.379 15.8158 131.343 15.204 131.314 14.6066C131.226 13.9254 130.904 13.2383 130.332 12.8321C129.936 12.5452 129.49 12.3353 129.077 12.0747Z" fill="white"/>
<path d="M145.221 12.8171C145.593 12.3821 146.18 12.1655 146.745 12.1714C147.191 12.1765 147.682 12.1063 148.077 12.3686C148.528 12.5928 148.634 13.1446 148.667 13.5998C148.615 13.5981 148.512 13.5931 148.459 13.5905C148.455 13.5474 148.446 13.4602 148.441 13.4171C148.424 12.9643 148.137 12.4913 147.669 12.3965C147.103 12.1697 146.487 12.3187 145.942 12.5285C145.687 12.6402 145.461 12.8162 145.188 12.8899L145.221 12.8171Z" fill="white"/>
<path d="M188.251 12.6308C188.598 12.4159 188.967 12.184 189.39 12.1773C189.804 12.1688 190.224 12.1409 190.634 12.2103C190.972 12.366 191.248 12.6512 191.445 12.9626C191.496 13.2063 191.463 13.4576 191.459 13.7038C190.888 13.7106 190.318 13.7326 189.749 13.7005L189.645 13.681C190.179 13.4796 190.767 13.5803 191.325 13.5558C191.361 13.186 191.249 12.7891 190.933 12.5674C190.423 12.278 189.79 12.184 189.23 12.3846C188.792 12.4929 188.412 12.7375 188.047 12.9913C187.687 13.2393 187.353 12.7789 187.226 12.4853C187.214 12.4464 187.19 12.3694 187.178 12.3304C187.388 12.5183 187.597 12.707 187.804 12.8983C187.954 12.8111 188.103 12.7231 188.251 12.6308Z" fill="white"/>
<path d="M157.339 12.3968C157.716 12.3469 158.104 12.3511 158.484 12.3883C159.043 12.599 159.535 13.0374 159.796 13.5764C159.974 14.0105 159.94 14.4912 159.937 14.9507C159.939 15.2672 159.867 15.5794 159.741 15.8697C159.564 16.2268 159.256 16.5094 158.923 16.721C158.606 16.8631 158.263 16.9494 157.919 16.9884C157.478 16.9461 157.038 16.8005 156.682 16.5306C156.584 16.4544 156.494 16.3689 156.415 16.2742C156.206 16.0178 156.054 15.7233 155.879 15.4449C155.82 14.9507 155.825 14.4455 155.873 13.9504C156.02 13.6247 156.188 13.3006 156.425 13.0289C156.672 12.7437 157.022 12.5872 157.339 12.3968ZM157.447 12.5542C156.423 12.9257 155.754 14.1188 156.045 15.1808C156.186 15.6209 156.349 16.1007 156.742 16.3816C157.011 16.5788 157.302 16.8047 157.656 16.787C158.05 16.787 158.487 16.8403 158.835 16.6109C159.273 16.3258 159.607 15.8815 159.721 15.3687C159.949 14.6858 159.803 13.9335 159.466 13.3141C159.293 13.0052 158.969 12.8326 158.67 12.6667C158.302 12.4535 157.851 12.4958 157.447 12.5542Z" fill="white"/>
<path d="M196.253 12.3667C196.421 12.4242 196.597 12.4928 196.719 12.629C196.784 12.8296 196.773 13.0445 196.778 13.2535C196.762 14.2131 196.768 15.1727 196.774 16.1324C196.801 16.6249 196.443 17.0615 196.593 17.5616C196.681 17.4152 196.768 17.2671 196.855 17.119C196.989 17.4745 197.059 17.8874 197.362 18.1472C197.519 18.2826 197.679 18.4332 197.882 18.4958C198.175 18.5466 198.474 18.539 198.771 18.5703C198.693 18.6727 198.617 18.7751 198.542 18.8783C198.985 19.0069 199.449 18.9706 199.894 18.8656C199.818 18.781 199.744 18.6964 199.669 18.6126C199.861 18.5585 200.059 18.5145 200.237 18.4197C200.33 18.1624 200.289 17.884 200.28 17.6175C199.982 17.5667 199.688 17.499 199.403 17.3974C199.668 17.257 199.955 17.1647 200.251 17.1165C200.393 17.1038 200.536 17.0903 200.68 17.0759C200.71 17.6894 200.716 18.3046 200.677 18.9181C200.297 18.9519 199.924 19.023 199.548 19.0797C199.012 19.1652 198.478 19.0196 197.956 18.9172C197.295 18.7615 196.86 18.192 196.511 17.6505C196.451 17.2282 196.312 16.8178 196.312 16.3879C196.309 15.738 196.318 15.0881 196.314 14.4382C196.294 13.7477 196.372 13.0513 196.253 12.3667Z" fill="white"/>
<path d="M193.639 13.6255C193.755 13.7871 193.817 13.9775 193.806 14.1781C193.805 15.0268 193.797 15.8747 193.802 16.7235C193.814 17.4098 193.751 18.1003 193.865 18.7823L193.867 18.8627C193.733 18.8636 193.6 18.8653 193.468 18.8669C193.585 17.6763 193.503 16.4789 193.524 15.2849C193.547 14.7315 193.442 14.1578 193.639 13.6255Z" fill="white"/>
<path d="M179.847 12.511C180.358 12.2453 181.044 12.4154 181.394 12.8673C181.57 13.1313 181.729 13.43 181.733 13.7558C181.754 15.4812 181.708 17.2075 181.755 18.9321C182.594 18.949 183.435 18.9177 184.273 18.9499C184.316 18.9524 184.403 18.9566 184.445 18.9583C183.514 19.0252 182.578 19.004 181.647 18.9812C181.593 17.9192 181.636 16.8555 181.623 15.7927C181.609 15.048 181.659 14.2915 181.502 13.5586C181.436 13.1787 181.19 12.8495 180.881 12.6295C180.585 12.4247 180.198 12.4476 179.903 12.6397C179.666 12.7911 179.418 12.9494 179.262 13.1872C179.027 13.6196 178.946 14.1205 178.956 14.608C178.963 15.9357 178.952 17.2625 178.962 18.5902C178.957 18.7332 178.968 18.883 178.917 19.021C178.464 19.0768 178.005 19.0294 177.551 19.043C177.119 19.0294 176.685 19.0717 176.256 19.0303C176.239 19.0066 176.205 18.96 176.188 18.9363L176.269 18.927C177.072 18.8559 177.888 18.9913 178.685 18.8585C178.713 18.8449 178.768 18.8187 178.796 18.8052C178.821 17.1745 178.783 15.5422 178.813 13.9107C178.915 13.6035 179.012 13.2938 179.156 13.0027C179.374 12.8241 179.594 12.6405 179.847 12.511Z" fill="white"/>
<path d="M179.903 12.6395C180.199 12.4474 180.585 12.4246 180.882 12.6294C180.556 12.6395 180.229 12.6421 179.903 12.6395Z" fill="white"/>
<path d="M147.071 13.6023C147.478 13.3442 147.984 13.4483 148.44 13.417C148.444 13.4601 148.453 13.5473 148.457 13.5905C147.995 13.582 147.533 13.6091 147.071 13.6023Z" fill="white"/>
<path d="M145.73 13.7716C146.163 13.6244 146.622 13.6117 147.073 13.6024C147.535 13.6091 147.997 13.5821 148.459 13.5905C148.511 13.5931 148.614 13.5981 148.667 13.5998C148.006 13.8207 147.297 13.6083 146.63 13.7936C145.838 13.9079 145.026 14.0585 144.331 14.4782C143.649 14.8869 143.199 15.6688 143.223 16.4685C143.197 17.0947 143.422 17.7285 143.829 18.2041C144.121 18.5587 144.566 18.7144 144.945 18.9513C144.811 18.9598 144.668 18.9885 144.549 18.9107C143.797 18.5502 143.199 17.8233 143.1 16.9822C143.043 16.3492 143.048 15.6485 143.458 15.123C143.96 14.3428 144.877 14.006 145.73 13.7716Z" fill="white"/>
<path d="M159.797 13.5762C159.973 13.6202 160.153 13.6583 160.319 13.7336C160.453 13.9164 160.347 14.1355 160.284 14.3225C160.208 14.3242 160.131 14.3259 160.055 14.3285C160.064 14.5172 160.071 14.7067 160.076 14.8963C160.172 14.9242 160.269 14.9521 160.368 14.98C160.378 15.1662 160.416 15.3735 160.3 15.5377C160.206 15.5868 160.098 15.5969 159.997 15.6189C160.054 15.7467 160.158 15.8745 160.104 16.0226C159.95 16.1224 159.851 15.949 159.742 15.8694C159.867 15.5792 159.939 15.2669 159.938 14.9504C159.941 14.4909 159.975 14.0103 159.797 13.5762Z" fill="white"/>
<path d="M126.511 13.8549C126.819 13.8126 127.118 13.689 127.432 13.6966C127.739 13.7838 127.985 14.0004 128.241 14.1807C128.151 14.2729 128.06 14.3643 127.97 14.4565C127.53 14.2001 127.046 14.0292 126.563 13.8718L126.511 13.8549Z" fill="white"/>
<path d="M155.371 15.2053C155.349 14.992 155.536 14.9421 155.706 14.9243C155.717 15.102 155.727 15.2806 155.736 15.46C155.772 15.4557 155.844 15.4481 155.879 15.4447C156.055 15.7231 156.206 16.0176 156.415 16.274C156.21 16.2757 155.956 16.3146 155.821 16.12C155.631 15.8399 155.453 15.5344 155.371 15.2053Z" fill="white"/>
<path d="M181.502 13.5586C181.659 14.2914 181.609 15.0479 181.623 15.7926C181.637 16.8554 181.593 17.9191 181.647 18.9811C182.578 19.004 183.514 19.0251 184.445 18.9583L184.534 18.9608C184.343 19.1512 184.054 19.0742 183.813 19.0928C183.065 19.0649 182.313 19.1385 181.567 19.0539C181.378 18.4057 181.499 17.7254 181.468 17.0619C181.493 15.8941 181.409 14.723 181.502 13.5586Z" fill="white"/>
<path d="M138.823 13.6191C138.876 13.8307 138.926 14.0439 138.932 14.2631C138.938 15.8201 138.906 17.3789 138.946 18.9359C138.907 18.9359 138.828 18.9351 138.789 18.9342L138.734 18.9334C138.757 17.4923 138.739 16.0503 138.745 14.6084C138.754 14.335 138.706 14.0549 138.772 13.7867C138.784 13.7452 138.811 13.6615 138.823 13.6191Z" fill="white"/>
<path d="M188.233 13.9187C188.699 13.7749 189.192 13.6454 189.683 13.73C189.315 13.9627 188.863 13.884 188.462 14.0118C188.167 14.1024 187.877 14.2056 187.593 14.3249C187.123 14.5238 186.707 14.8521 186.43 15.2845C186.356 15.3996 186.286 15.5172 186.22 15.6365C186.091 16.2238 186.178 16.828 186.152 17.4229L186.138 17.3679C185.974 16.795 186.018 16.1908 186.099 15.6086C186.19 15.2473 186.475 14.985 186.727 14.7294C187.136 14.3156 187.696 14.1074 188.233 13.9187Z" fill="white"/>
<path d="M126.331 13.914C126.389 13.903 126.504 13.8827 126.561 13.8726C127.044 14.03 127.528 14.2009 127.968 14.4573C128.145 14.5918 128.31 14.7425 128.464 14.9024C128.668 15.3128 128.655 15.8138 128.471 16.2301C128.256 16.4679 128.015 16.6871 127.733 16.8445C127.049 16.8563 126.321 16.9672 125.683 16.6498C125.592 16.5669 125.504 16.4806 125.413 16.3985C125.975 16.5441 126.522 16.8318 127.12 16.7573C127.649 16.7057 128.267 16.4662 128.415 15.8984C128.654 15.3636 128.251 14.778 127.782 14.5318C127.33 14.2508 126.776 14.2026 126.331 13.914Z" fill="white"/>
<path d="M178.671 14.4319C178.652 14.2441 178.718 14.0689 178.814 13.9106C178.783 15.5421 178.821 17.1745 178.796 18.8052C178.768 18.8187 178.713 18.8449 178.685 18.8585C178.67 17.3827 178.693 15.9069 178.671 14.4319Z" fill="white"/>
<path d="M188.88 15.6171C189.154 15.337 189.558 15.265 189.921 15.166C190.441 15.1389 190.964 15.1423 191.487 15.1584C191.522 15.1593 191.594 15.1626 191.63 15.1635C191.69 15.6518 191.559 16.1358 191.356 16.5758C191.04 17.1225 190.404 17.3467 189.811 17.4246C189.301 17.3577 188.743 17.2257 188.455 16.7527C188.417 16.5437 188.405 16.3186 188.46 16.1121C188.575 15.9276 188.724 15.7668 188.88 15.6171ZM189.384 15.474C189.021 15.5807 188.653 15.8862 188.669 16.2974C188.664 16.5166 188.647 16.795 188.861 16.9312C189.432 17.3535 190.265 17.2824 190.831 16.8864C191.302 16.5327 191.487 15.8997 191.37 15.3336C190.705 15.3048 190.033 15.3243 189.384 15.474Z" fill="white"/>
<path d="M172.422 15.9913C172.656 15.8263 172.811 15.4599 173.152 15.5614C173.337 15.6681 173.462 15.8534 173.619 15.9972C174.026 16.4263 174.521 16.7681 174.896 17.2268C174.968 17.4781 174.692 17.6161 174.544 17.7701C174.163 18.0459 173.819 18.3937 173.37 18.5579C172.937 18.706 172.524 18.9209 172.067 18.9869C171.992 18.8625 171.919 18.7373 171.846 18.6121C172.152 18.4614 172.471 18.6027 172.768 18.7017C172.722 18.6053 172.676 18.5097 172.632 18.414C173.197 18.2118 173.728 17.8911 174.159 17.4714C174.36 17.281 174.108 17.055 173.983 16.9061C173.683 16.6158 173.416 16.274 173.049 16.0675C172.733 16.0869 172.602 16.4534 172.35 16.6031C171.855 16.9052 171.28 17.0897 170.698 17.0965C170.283 17.11 169.856 17.1176 169.464 16.9636C170.096 16.6344 170.83 16.857 171.508 16.8155C170.962 16.6801 170.4 16.7893 169.846 16.7487C169.673 16.7461 169.522 16.6522 169.374 16.5727C169.454 16.5744 169.612 16.5769 169.691 16.5777C170.138 16.6023 170.587 16.615 171.035 16.5887C171.523 16.4652 172.012 16.2892 172.422 15.9913Z" fill="white"/>
<path d="M185.874 16.7166C185.859 16.3383 185.866 15.9279 186.098 15.6089C186.017 16.1911 185.973 16.7953 186.137 17.3682C185.914 17.2336 185.895 16.9493 185.874 16.7166Z" fill="white"/>
<path d="M123.485 16.5624C123.764 16.2933 124.001 15.9701 124.337 15.7695C124.51 15.8076 124.604 15.9718 124.725 16.0843C124.605 16.0132 124.481 15.9481 124.358 15.8812C124.361 15.9853 124.364 16.0894 124.366 16.1943C123.995 16.5489 123.561 16.8485 123.263 17.2733C123.098 17.5043 123.252 17.7886 123.296 18.0348C123.414 18.0086 123.531 17.9815 123.649 17.9545C123.665 17.9841 123.698 18.0442 123.715 18.0746C123.679 18.1254 123.643 18.177 123.607 18.2278C123.776 18.2176 123.946 18.2075 124.116 18.1973C124.008 18.2803 123.902 18.364 123.794 18.447C123.45 18.2667 123.111 18.0645 122.837 17.7861C122.746 17.6845 122.607 17.5677 122.687 17.418C122.901 17.0879 123.219 16.8468 123.485 16.5624Z" fill="white"/>
<path d="M169.208 18.9136C169.348 18.8222 169.498 18.7299 169.673 18.7376C170.452 18.7325 171.274 18.6292 171.992 19.0024C171.853 19.0388 171.716 19.0828 171.575 19.1048C170.801 18.867 169.981 19.1556 169.208 18.9136Z" fill="white"/>
<path d="M156.681 16.5308C157.037 16.8007 157.477 16.9463 157.917 16.9886C158.262 16.9496 158.605 16.8633 158.922 16.7212C159.011 16.7855 159.101 16.8498 159.193 16.9149C159.014 17.0808 158.834 17.2678 158.593 17.3364C158.362 17.2873 158.155 17.1493 157.918 17.1324C157.655 17.1553 157.426 17.3245 157.163 17.3347C156.834 17.2729 156.636 16.9776 156.456 16.7254C156.531 16.6602 156.606 16.5951 156.681 16.5308Z" fill="white"/>
<path d="M165.252 16.7361C165.343 16.6861 165.436 16.6354 165.529 16.5854C165.836 16.8892 166.124 17.2167 166.476 17.4689C166.691 17.6246 166.894 17.7938 167.087 17.9766C167.044 18.0739 167.002 18.1713 166.96 18.2686C166.258 17.9275 165.729 17.336 165.252 16.7361Z" fill="white"/>
<path d="M148.129 18.0393C148.325 17.9801 148.526 18.0597 148.719 18.0952C148.652 18.1079 148.517 18.1341 148.449 18.1477C148.425 18.1849 148.375 18.2594 148.35 18.2966C148.143 18.6283 147.755 18.773 147.423 18.9448C147.114 18.9879 146.842 18.8483 146.649 18.6148C146.863 18.5826 147.08 18.564 147.289 18.5048C147.596 18.4032 147.826 18.151 148.129 18.0393Z" fill="white"/>
<path d="M166.959 18.2691C167.131 18.2124 167.309 18.0964 167.497 18.1574C167.795 18.2403 168.09 18.3384 168.38 18.4485C168.695 18.572 168.907 18.8496 169.118 19.1009C168.431 18.9892 167.787 18.7319 167.139 18.4925C167.117 18.4815 167.073 18.4603 167.05 18.4493C167.028 18.4045 166.982 18.3148 166.959 18.2691Z" fill="white"/>
<path d="M124.468 18.7282C124.816 18.5649 125.2 18.4558 125.582 18.5624C125.497 18.6995 125.41 18.8366 125.324 18.9728C125.025 18.9491 124.739 18.8535 124.468 18.7282Z" fill="white"/>
<path d="M167.14 18.4922C167.788 18.7317 168.431 18.9889 169.118 19.1006C169.527 19.1717 169.945 19.1463 170.359 19.1505C170.764 19.1455 171.173 19.1692 171.576 19.1048C171.717 19.0828 171.854 19.0388 171.993 19.0025L172.067 18.9872C172.524 18.9212 172.937 18.7063 173.37 18.5582C173.402 18.5751 173.465 18.6081 173.496 18.625C172.819 18.9999 172.066 19.2766 171.286 19.2986C170.552 19.3266 169.815 19.3452 169.083 19.2656C168.581 19.2149 168.109 19.0278 167.64 18.851C167.449 18.7714 167.212 18.713 167.14 18.4922Z" fill="white"/>
<path d="M159.863 18.9383L159.897 18.9341C159.885 18.9374 159.861 18.9433 159.85 18.9467L159.863 18.9383Z" fill="white"/>
<path d="M157.649 18.9768C157.77 18.9565 157.853 19.003 157.901 19.1164C157.776 19.1316 157.693 19.0843 157.649 18.9768Z" fill="white"/>
<path d="M159.364 19.1025C159.416 18.9874 159.503 18.9485 159.626 18.9849C159.566 19.0838 159.478 19.1228 159.364 19.1025Z" fill="white"/>
<path d="M198.021 19.041C198.203 19.0782 198.383 19.1248 198.564 19.1713C198.361 19.1857 198.158 19.1874 197.956 19.1789C197.972 19.1443 198.005 19.0749 198.021 19.041Z" fill="white"/>
<path d="M199.864 19.1706C200.149 19.0919 200.438 19.0251 200.732 18.9912C200.497 19.2061 200.161 19.2121 199.864 19.1706Z" fill="white"/>
<path d="M157.899 19.1162C158.363 19.1119 158.828 19.1153 159.291 19.1128C158.834 19.2406 158.359 19.2228 157.899 19.1162Z" fill="white"/>
<path d="M125.74 19.248C126.487 19.3022 127.237 19.3031 127.985 19.2523C127.663 19.4943 127.24 19.4207 126.863 19.4368C126.487 19.4114 126.063 19.4892 125.74 19.248Z" fill="white"/>
</svg>
