<svg width="200" height="185" viewBox="0 0 200 185" fill="none" xmlns="http://www.w3.org/2000/svg">
<path d="M26.5637 111.185L31.3927 109.543C31.8889 111.201 32.3779 112.861 32.8776 114.519C31.2701 115.076 29.6581 115.622 28.0452 116.163C27.5553 114.502 27.0587 112.844 26.5637 111.185Z" fill="white"/>
<path d="M14.8171 120.521C16.2185 119.496 17.8854 118.882 19.5732 118.678C21.0379 118.509 22.5535 118.695 23.8602 119.357C24.9322 119.891 25.847 120.782 26.2983 121.922C25.0377 122.691 23.776 123.458 22.5152 124.226C22.3224 123.803 22.0337 123.428 21.6671 123.15C21.158 122.749 20.4869 122.615 19.844 122.634C19.0639 122.67 18.2915 122.926 17.6121 123.335C17.1101 123.645 16.6435 124.095 16.4712 124.681C16.306 125.226 16.4571 125.863 16.8796 126.225C17.1783 126.482 17.5735 126.594 17.9626 126.624C18.4336 126.664 18.9054 126.571 19.3744 126.51C20.2674 126.392 21.1601 126.265 22.0539 126.151C23.4163 125.997 24.8255 126.111 26.0729 126.663C26.953 127.044 27.7251 127.673 28.256 128.483C28.8436 129.375 29.1552 130.453 29.1768 131.54C29.2011 132.783 28.7967 134.04 28.0622 135.057C27.0318 136.513 25.5014 137.536 23.8831 138.173C22.1285 138.865 20.197 139.147 18.3723 138.777C17.4625 138.591 16.5965 138.222 15.8309 137.703C15.0108 137.146 14.3471 136.353 13.9642 135.421L13.9545 135.389C15.2523 134.607 16.5512 133.828 17.8494 133.048C18.0786 133.692 18.5461 134.239 19.1554 134.531C20.017 134.976 21.0558 134.955 21.9873 134.681C22.6369 134.483 23.2835 134.202 23.8003 133.736C24.1523 133.42 24.4286 132.984 24.461 132.503C24.49 132.051 24.3475 131.586 24.0483 131.259C23.7625 130.953 23.343 130.826 22.9359 130.782C22.2997 130.716 21.6576 130.817 21.0202 130.87C20.1622 130.946 19.3052 131.041 18.4465 131.104C17.0507 131.185 15.6042 131.04 14.3692 130.38C13.4202 129.88 12.6936 129.008 12.3023 127.997C11.8106 126.783 11.7356 125.378 12.1408 124.097C12.588 122.641 13.6123 121.412 14.8171 120.521Z" fill="white"/>
<path d="M45.7301 109.967C46.989 109.094 48.4325 108.521 49.9125 108.244C51.1478 108.014 52.4215 108.015 53.6317 108.296C54.476 108.496 55.2999 108.806 56.0261 109.281C57.064 109.949 57.9604 110.845 58.6058 111.911C57.3021 112.897 55.999 113.884 54.6928 114.866C54.344 114.358 53.9324 113.887 53.4275 113.536C52.886 113.154 52.2368 112.927 51.5701 112.89C50.8716 112.849 50.1667 113.006 49.5098 113.267C48.2521 113.76 47.165 114.803 46.7235 116.114C46.4166 116.985 46.3723 117.929 46.515 118.823C46.6285 119.53 46.838 120.219 47.1421 120.859C47.5042 121.618 48.0222 122.306 48.6913 122.805C49.7003 123.573 51.0588 123.797 52.3065 123.527C53.3208 123.303 54.3093 122.792 55.0026 121.975C55.7324 121.131 56.1226 120.006 56.0967 118.902C57.6664 118.896 59.2364 118.888 60.8059 118.887C60.8425 120.488 60.4345 122.112 59.6317 123.518C58.7708 125.065 57.4323 126.323 55.8921 127.144C53.8306 128.249 51.4272 128.701 49.1711 128.283C47.9224 128.058 46.7328 127.559 45.695 126.839C44.2536 125.857 43.1086 124.452 42.3866 122.842C41.6798 121.262 41.326 119.499 41.4171 117.737C41.4976 116.185 41.929 114.637 42.6969 113.27C43.4437 111.956 44.4949 110.818 45.7301 109.967Z" fill="white"/>
<path d="M32.876 114.523C34.486 113.978 36.0955 113.428 37.7053 112.882C38.174 114.457 38.6451 116.031 39.1117 117.606C37.5026 118.152 35.8937 118.7 34.2846 119.248C33.8139 117.674 33.3471 116.098 32.876 114.523Z" fill="white"/>
<path d="M31.9087 129.125C31.091 126.38 30.2744 123.635 29.4552 120.89C31.0646 120.342 32.6743 119.795 34.2838 119.248C34.9727 121.559 35.6606 123.87 36.349 126.181C36.4588 126.556 36.5762 126.933 36.7616 127.276C36.9495 127.626 37.2079 127.959 37.5741 128.124C38.1067 128.358 38.7218 128.31 39.2798 128.148C40.2368 127.875 41.149 127.32 41.7614 126.501C42.1585 127.831 42.5573 129.16 42.9489 130.491C42.5894 131.047 42.0829 131.487 41.5472 131.858C40.6981 132.439 39.7439 132.843 38.7636 133.1C37.8399 133.339 36.8723 133.427 35.9418 133.261C35.324 133.148 34.7212 132.93 34.2015 132.577C33.6025 132.177 33.1047 131.632 32.7223 131.017C32.3593 130.435 32.0997 129.789 31.9087 129.125Z" fill="white"/>
<path d="M148.218 132.209C149.855 131.093 151.713 130.306 153.642 129.861C154.646 129.611 155.717 129.546 156.722 129.826C156.804 129.835 156.904 129.905 156.977 129.835C157.992 129.121 159.134 128.595 160.321 128.243C161.37 127.934 162.489 127.777 163.573 127.984C164.441 128.143 165.27 128.584 165.82 129.283C166.371 129.974 166.641 130.836 166.847 131.683C167.518 134.438 168.191 137.193 168.859 139.949C167.762 140.217 166.664 140.479 165.569 140.753C164.914 138.112 164.278 135.466 163.632 132.823C163.51 132.267 163.277 131.693 162.811 131.338C162.383 131.015 161.814 130.963 161.298 131.038C160.532 131.136 159.82 131.469 159.173 131.88C159.418 132.369 159.574 132.897 159.698 133.429C160.369 136.183 161.039 138.936 161.71 141.69C160.6 141.957 159.493 142.237 158.38 142.496C157.809 140.112 157.221 137.732 156.644 135.35C156.509 134.815 156.401 134.27 156.199 133.755C156.063 133.424 155.872 133.095 155.565 132.897C155.221 132.685 154.796 132.674 154.407 132.725C153.571 132.842 152.756 133.123 152.045 133.58C152.841 136.874 153.65 140.165 154.448 143.459C153.353 143.729 152.254 143.986 151.161 144.265C150.165 140.251 149.197 136.228 148.218 132.209Z" fill="white"/>
<path d="M170.063 127.217C171.207 125.84 172.937 125.026 174.699 124.828C175.876 124.66 177.124 124.736 178.205 125.263C177.934 126.175 177.658 127.085 177.395 127.998C176.736 127.721 176.009 127.574 175.295 127.672C174.401 127.787 173.497 128.114 172.856 128.769C172.325 129.309 172.044 130.058 172.002 130.807C171.952 131.685 172.138 132.568 172.476 133.377C172.819 134.189 173.435 134.929 174.278 135.246C175.201 135.604 176.239 135.461 177.144 135.12C177.761 134.885 178.263 134.441 178.722 133.979C179.431 134.56 180.156 135.12 180.872 135.69C180.146 136.788 178.996 137.54 177.78 137.995C176.456 138.468 175.001 138.661 173.613 138.376C172.368 138.125 171.217 137.447 170.399 136.475C169.345 135.231 168.815 133.616 168.663 132.01C168.51 130.316 168.954 128.532 170.063 127.217Z" fill="white"/>
<path d="M112.218 141.85C113.072 140.53 114.457 139.625 115.938 139.151C116.977 138.816 118.077 138.617 119.172 138.706C120.187 138.779 121.187 139.158 121.958 139.831C122.994 140.724 123.599 142.011 123.953 143.311C124.531 145.696 125.12 148.08 125.692 150.467C123.953 150.883 122.218 151.313 120.48 151.733C119.401 151.967 118.309 152.198 117.199 152.19C116.356 152.187 115.518 152.009 114.733 151.706C114.219 151.493 113.745 151.183 113.341 150.801C112.383 149.892 111.816 148.654 111.465 147.399L111.351 146.932C110.989 145.212 111.229 143.327 112.218 141.85ZM114.84 143.541C114.388 144.519 114.471 145.658 114.792 146.662C115.052 147.524 115.522 148.393 116.337 148.841C117.219 149.333 118.283 149.273 119.241 149.086C120.036 148.894 120.832 148.704 121.625 148.503C121.327 147.309 121.041 146.114 120.749 144.918C120.588 144.306 120.408 143.691 120.096 143.136C119.807 142.606 119.375 142.128 118.806 141.898C118.162 141.639 117.436 141.711 116.785 141.904C115.948 142.146 115.199 142.737 114.84 143.541Z" fill="white"/>
<path d="M136.348 135.336C137.36 134.238 138.755 133.558 140.193 133.211C141.38 132.923 142.653 132.828 143.837 133.189C144.769 133.467 145.596 134.057 146.193 134.823C146.943 135.765 147.36 136.92 147.642 138.078C148.181 140.291 148.717 142.506 149.261 144.718C147.552 145.145 145.837 145.553 144.126 145.974C142.595 146.315 140.997 146.659 139.433 146.326C138.722 146.171 138.006 145.951 137.409 145.521C136.492 144.881 135.839 143.925 135.409 142.904C134.894 141.665 134.602 140.307 134.743 138.962C134.869 137.623 135.426 136.321 136.348 135.336ZM138.336 138.118C137.979 139.193 138.19 140.365 138.593 141.395C138.886 142.145 139.404 142.851 140.157 143.185C141.014 143.573 141.993 143.503 142.893 143.325C143.691 143.133 144.488 142.938 145.285 142.743C145.007 141.603 144.729 140.462 144.452 139.322C144.289 138.633 144.081 137.944 143.718 137.333C143.401 136.793 142.927 136.318 142.325 136.115C141.582 135.863 140.76 135.991 140.048 136.281C139.245 136.605 138.598 137.292 138.336 138.118Z" fill="white"/>
<path d="M128.462 136.46C129.879 135.691 131.473 135.317 133.061 135.11C133.25 135.091 133.438 135.05 133.628 135.054C133.657 135.152 133.635 135.256 133.638 135.357C133.617 136.291 133.598 137.226 133.578 138.16C132.596 138.157 131.57 138.245 130.692 138.722C129.914 139.142 129.362 139.931 129.213 140.799C129.106 141.378 129.137 141.978 129.264 142.551C129.806 144.765 130.34 146.982 130.885 149.195C129.764 149.476 128.64 149.744 127.517 150.019C126.959 147.728 126.401 145.436 125.843 143.146C125.558 141.776 125.487 140.292 126.05 138.98C126.511 137.878 127.426 137.023 128.462 136.46Z" fill="white"/>
<path d="M184.158 122.623C185.373 122.178 186.718 122.088 187.977 122.385C189.922 122.825 191.629 124.182 192.503 125.974C193.168 127.321 193.379 128.891 193.069 130.365C192.706 132.154 191.581 133.775 190.024 134.731C188.799 135.491 187.326 135.839 185.89 135.708C183.991 135.549 182.186 134.536 181.053 133.004C180.237 131.913 179.77 130.567 179.724 129.205C179.639 127.128 180.594 125.047 182.205 123.737C182.787 123.26 183.451 122.881 184.158 122.623ZM185.198 125.571C184.025 125.997 183.112 127.06 182.879 128.287C182.659 129.369 182.974 130.542 183.704 131.369C184.418 132.206 185.524 132.691 186.624 132.643C187.728 132.613 188.794 132.031 189.426 131.127C190.046 130.266 190.268 129.134 190.012 128.104C189.764 127.09 189.057 126.2 188.122 125.733C187.226 125.274 186.14 125.214 185.198 125.571Z" fill="white"/>
<path d="M74.5806 69.0999C74.523 69.1276 74.4671 69.152 74.4243 69.1701C74.3926 69.189 74.3589 69.2067 74.3247 69.2232C73.1152 69.8062 72.031 69.6242 71.074 69.4632C70.3884 69.3484 69.7416 69.2398 69.1312 69.4182C68.8314 69.5059 68.5441 69.6157 68.2773 69.7442C67.7966 69.9759 67.4527 70.2335 67.2015 70.4214C67.0469 70.5369 66.9135 70.6365 66.7998 70.6913C66.6806 70.7487 66.5232 70.7921 66.3636 70.6152C66.2375 70.4757 66.1273 70.3349 66.0212 70.1992C65.7558 69.8604 65.5843 69.6581 65.432 69.7045C63.8022 70.2016 62.7398 70.2888 62.36 69.9573C62.3202 69.9224 62.2885 69.8833 62.2651 69.8408C62.1981 69.7197 62.2334 69.5682 62.3463 69.4887C63.4553 68.7097 64.2196 67.5568 64.6177 66.0612C64.9263 64.9031 64.8945 63.954 64.89 63.8497C64.8897 63.8451 64.8896 63.8401 64.8898 63.8354C64.8937 63.396 64.7806 63.0723 64.5541 62.8736C64.1365 62.5068 63.3902 62.6134 62.8964 62.684C62.7737 62.7016 62.6576 62.7183 62.5619 62.7251C62.11 62.7581 61.3329 62.7422 61.2053 62.2648C61.1122 61.9167 61.427 61.4913 61.7679 61.327C61.8625 61.2814 61.9544 61.2576 62.041 61.2567C62.5132 61.2515 62.9038 61.1759 63.2019 61.0323C63.5725 60.8537 63.6835 60.6263 63.7075 60.5653C63.6015 60.3727 63.4877 60.17 63.3798 59.9783C63.3797 59.9781 63.3783 59.9759 63.3783 59.9759C62.6242 58.6338 61.6856 56.9638 61.6501 55.7638C61.5438 52.1718 64.2294 50.5941 65.0548 50.1963C65.0767 50.1857 65.4129 50.0196 65.4129 50.0196C65.428 50.0119 65.4445 50.0037 65.4616 49.9955C66.2892 49.5966 69.2024 48.4762 71.9476 50.7985C72.8645 51.5745 73.5867 53.3507 74.1671 54.7782L74.195 54.8464C74.2737 55.0403 74.3485 55.2237 74.4223 55.4008C74.4812 55.4187 74.7073 55.4691 75.0469 55.3215C75.3258 55.1737 75.6084 54.9253 75.8868 54.5837C75.9728 54.4779 76.0907 54.4078 76.1742 54.3675C76.3005 54.3066 76.4409 54.2693 76.5695 54.2624L76.5763 54.2618C76.9336 54.2231 77.2377 54.3432 77.3516 54.5685C77.4576 54.7786 77.4528 55.1713 76.8255 55.8506C76.7613 55.9203 76.6756 56.0012 76.585 56.0867C76.2219 56.4293 75.674 56.9463 75.7006 57.5012C75.7148 57.8022 75.8976 58.0921 76.2438 58.3628C76.2476 58.3657 76.2512 58.3688 76.255 58.372C76.3698 58.4724 79.1084 60.8185 82.2506 59.8951C82.3831 59.8564 82.5238 59.9233 82.5767 60.0509C82.5956 60.0968 82.6063 60.1466 82.6085 60.1993C82.6313 60.7 81.901 61.4762 80.4966 62.4419C80.3648 62.5325 80.4158 62.7916 80.5153 63.2079C80.5564 63.3799 80.5953 63.5491 80.6254 63.7322C80.654 63.9042 80.5913 64.0252 80.4335 64.1013L80.4098 64.1127C80.3071 64.1622 80.1526 64.2137 79.9518 64.2662C79.601 64.3584 79.2133 64.4736 78.7559 64.6941C78.4892 64.8226 78.2244 64.9791 77.9687 65.159C77.4494 65.5251 77.1313 66.0981 76.7946 66.7051C76.3233 67.5553 75.7899 68.517 74.5806 69.0999Z" fill="white"/>
<path d="M65.5799 50.2397C66.359 49.8641 69.143 48.7803 71.7737 51.0056C72.64 51.7384 73.3482 53.4807 73.9173 54.8803C74.0078 55.1023 74.0952 55.3176 74.1806 55.5223L74.2174 55.6103L74.3055 55.6466C74.341 55.6611 74.6664 55.783 75.1567 55.5696L75.1647 55.5662L75.1727 55.5622C75.4851 55.3967 75.7959 55.125 76.0973 54.7551C76.1417 54.7006 76.2117 54.6507 76.2925 54.6118C76.3845 54.5674 76.4906 54.5376 76.5876 54.5327L76.6022 54.5317C76.8408 54.5048 77.0501 54.5701 77.1111 54.6911C77.1455 54.7595 77.2137 55.0329 76.6279 55.6676C76.5706 55.7296 76.4919 55.8041 76.4003 55.8902C76.0015 56.2666 75.3988 56.8352 75.4313 57.5148C75.4497 57.8976 75.6674 58.2548 76.0782 58.5766C76.2596 58.7347 79.063 61.1145 82.3278 60.1552C82.3341 60.1698 82.338 60.1872 82.3389 60.2096C82.3458 60.3551 82.221 60.9293 80.3441 62.2194C80.0503 62.421 80.144 62.8141 80.2531 63.271C80.2919 63.4347 80.3308 63.6 80.3597 63.7763C80.3683 63.8296 80.367 63.8335 80.317 63.8576C80.3101 63.8609 80.302 63.8648 80.2932 63.8691C80.2033 63.9124 80.0578 63.9595 79.8846 64.0048C79.5694 64.0875 79.1427 64.2084 78.6395 64.4509C78.3586 64.5863 78.0811 64.7501 77.8142 64.9385C77.2434 65.3407 76.9108 65.9408 76.5585 66.5761C76.0852 67.4291 75.5964 68.3114 74.4646 68.8569C74.4152 68.8807 74.3661 68.9023 74.3166 68.9232L74.3036 68.9288L74.2913 68.9359C74.2647 68.9517 74.2374 68.9664 74.2088 68.9802C73.0772 69.5256 72.0823 69.3587 71.1204 69.1971C70.4038 69.077 69.7269 68.9634 69.0568 69.1592C68.7436 69.2507 68.4421 69.3657 68.1615 69.501C67.6584 69.7434 67.3014 70.0104 67.041 70.2052C66.8977 70.3123 66.7735 70.4049 66.6838 70.4481C66.6104 70.4835 66.6069 70.4798 66.5659 70.4343C66.4459 70.3018 66.3389 70.1648 66.2353 70.0326C65.9455 69.6623 65.6953 69.3422 65.3548 69.4464C63.1764 70.1104 62.6491 69.8496 62.5396 69.754C62.5224 69.7389 62.511 69.7245 62.5033 69.7105C65.2878 67.7548 65.1724 64.0793 65.1617 63.838C65.1665 63.3164 65.0226 62.9236 64.734 62.6706C64.2228 62.2221 63.4025 62.339 62.86 62.4165C62.7353 62.4344 62.6279 62.4495 62.5436 62.4557C61.8162 62.5088 61.511 62.3562 61.4679 62.1954C61.4184 62.0098 61.6297 61.695 61.8869 61.571C61.9446 61.5432 61.9998 61.5281 62.0457 61.5276C62.5576 61.522 62.9867 61.4375 63.321 61.2764C63.8467 61.023 63.9627 60.6657 63.9744 60.6257L64.0007 60.5345L63.955 60.4514C63.8482 60.2571 63.7345 60.0546 63.617 59.8461C62.8768 58.5286 61.9557 56.8902 61.9219 55.7561C61.8204 52.3246 64.3855 50.82 65.1737 50.4401C65.1931 50.4308 65.5341 50.2621 65.5341 50.2621C65.548 50.2553 65.5635 50.2475 65.5799 50.2397ZM65.345 49.7525L65.3441 49.7529C65.3262 49.7616 65.3093 49.7697 65.2934 49.7777C65.1659 49.8407 64.9563 49.9442 64.9375 49.9536C64.4758 50.1761 63.5834 50.6866 62.8021 51.6029C62.3553 52.1267 62.0081 52.711 61.77 53.3398C61.4861 54.0892 61.355 54.9076 61.3807 55.7724C61.4182 57.0387 62.3747 58.7411 63.1433 60.1093L63.1447 60.1113C63.227 60.2578 63.313 60.4108 63.3962 60.5602C63.3431 60.6243 63.2485 60.7107 63.0855 60.7892C62.8233 60.9156 62.4711 60.982 62.0391 60.9867C61.9121 60.9884 61.7819 61.0211 61.6513 61.084C61.4415 61.1851 61.25 61.3535 61.1125 61.5589C60.9394 61.817 60.88 62.0925 60.9447 62.3351C60.9876 62.4955 61.1289 62.7853 61.5935 62.9243C61.8491 63.0009 62.1818 63.0248 62.5824 62.9956C62.6874 62.9878 62.8082 62.9705 62.9362 62.9523C63.3803 62.889 64.0524 62.793 64.3768 63.0775C64.5413 63.2218 64.6231 63.4765 64.62 63.8335C64.6201 63.8431 64.6201 63.8526 64.6206 63.8623C64.6251 63.9624 64.6555 64.8728 64.3573 65.9921C64.188 66.6285 63.9438 67.2098 63.6325 67.7199C63.2526 68.3426 62.7678 68.8636 62.1918 69.2682C61.9655 69.4269 61.8956 69.7304 62.0292 69.9726C62.0679 70.0422 62.1192 70.1056 62.1817 70.1607C62.1821 70.161 62.1826 70.1613 62.183 70.1616C62.3943 70.3461 62.7198 70.4325 63.1782 70.4261C63.7382 70.4181 64.5088 70.2671 65.4681 69.9771C65.5545 70.041 65.7051 70.2339 65.8086 70.3658C65.918 70.5062 66.0311 70.6503 66.164 70.7972C66.3078 70.9565 66.5557 71.1101 66.9181 70.9355C67.0554 70.8693 67.1985 70.7622 67.3643 70.6386C67.6068 70.4569 67.9385 70.2087 68.3957 69.9884C68.6491 69.8662 68.9225 69.7619 69.2081 69.6784C69.7587 69.5176 70.3476 69.6163 71.0292 69.7307C72.0268 69.898 73.156 70.0875 74.4429 69.4673C74.478 69.4503 74.5126 69.4322 74.5462 69.4131C74.5897 69.3946 74.6432 69.3707 74.6988 69.3439C75.986 68.7235 76.541 67.7221 77.031 66.8383L77.0317 66.8366C77.3671 66.2326 77.6566 65.7111 78.1252 65.3807C78.3684 65.2094 78.6202 65.0605 78.8738 64.9383C79.3105 64.7278 79.6831 64.6168 80.0209 64.5282C80.2415 64.4707 80.4073 64.4144 80.5275 64.3564L80.5393 64.351L80.5515 64.3451C80.8165 64.2174 80.9412 63.978 80.8928 63.6876C80.8614 63.4962 80.8208 63.3218 80.7788 63.1457C80.7424 62.9929 80.6841 62.748 80.6874 62.6397C81.5124 62.0693 82.1105 61.5612 82.4657 61.1281C82.7558 60.7748 82.8908 60.4667 82.8792 60.1871C82.8758 60.1033 82.8586 60.023 82.8273 59.9479C82.7216 59.6927 82.4402 59.5581 82.1749 59.6363C79.1734 60.5182 76.5437 58.2648 76.4334 58.1684C76.4262 58.162 76.4186 58.1559 76.4109 58.1501C76.1297 57.93 75.982 57.7074 75.9715 57.4885C75.9509 57.058 76.4443 56.5923 76.7707 56.2842C76.8654 56.1952 76.9544 56.1111 77.0253 56.0343C77.3325 55.7016 77.5254 55.4083 77.6153 55.1375C77.7229 54.8144 77.6629 54.5834 77.5938 54.4467C77.4263 54.116 77.0281 53.9423 76.5521 53.9927C76.3876 54.0021 76.2168 54.0475 76.0576 54.1243C75.9492 54.1765 75.7958 54.2688 75.6781 54.413C75.4261 54.722 75.1749 54.9456 74.9304 55.0781C74.7941 55.1355 74.6869 55.1516 74.6132 55.1532C74.558 55.0193 74.502 54.8814 74.4434 54.7377L74.4182 54.6763C73.8269 53.2216 73.0908 51.4113 72.1231 50.5924C71.4601 50.0316 70.7359 49.6235 69.9702 49.3787C69.3282 49.1737 68.6531 49.0822 67.9631 49.1065C66.7625 49.1493 65.8074 49.5296 65.345 49.7525Z" fill="white"/>
<path d="M135.178 17.9233C136.067 17.4947 136.949 17.0488 137.851 16.6461C137.989 16.859 138.126 17.0727 138.24 17.3006C138.943 18.752 139.625 20.2151 140.349 21.6565C140.528 21.232 140.678 20.7834 140.974 20.4208C141.587 19.6325 142.586 19.2127 143.568 19.1584C144.229 19.1765 144.889 19.4046 145.407 19.8188C146.012 20.2955 146.488 20.926 146.821 21.6186C147.619 23.2743 148.411 24.9327 149.219 26.583L149.133 26.6214C149.092 26.6393 149.007 26.6749 148.965 26.6924C148.131 24.8629 147.232 23.0629 146.358 21.2513C145.949 20.3183 145.103 19.5641 144.092 19.3666C143.373 19.2069 142.65 19.4787 142.02 19.8052C141.339 20.1314 140.774 20.7451 140.603 21.4901C140.561 21.6924 140.459 21.869 140.303 22.0023C139.952 21.4706 139.724 20.8718 139.436 20.3058C138.886 19.1907 138.378 18.0552 137.802 16.9533C137.496 17.0291 137.206 17.1528 136.928 17.2975C136.414 17.5656 135.856 17.7616 135.395 18.1234C135.35 18.13 135.26 18.1435 135.215 18.1512C135.205 18.0942 135.187 17.9804 135.178 17.9233Z" fill="white"/>
<path d="M135.216 18.1509C135.261 18.1431 135.351 18.1296 135.395 18.123C137.028 21.4667 138.63 24.8251 140.249 28.175C140.597 28.8774 140.897 29.6056 141.312 30.2725L141.315 30.3523L141.243 30.3982L141.192 30.4295C139.388 26.6475 137.554 22.8794 135.741 19.1009C135.593 18.7691 135.381 18.4725 135.216 18.1509Z" fill="white"/>
<path d="M126.246 28.7917L126.296 28.8561C126.377 28.9628 126.46 29.0667 126.544 29.1717C126.62 29.393 126.684 29.6189 126.76 29.8401C126.906 30.3018 127.221 30.6805 127.439 31.1084C127.895 32.0149 128.695 32.6865 129.549 33.2062C129.629 33.2487 129.709 33.2903 129.791 33.3296C130.523 33.6827 131.299 34.004 132.126 34.0068C132.169 34.0399 132.254 34.1045 132.296 34.1368C131.619 34.1895 130.964 33.9586 130.333 33.7421C129.503 33.4634 128.786 32.924 128.171 32.316C127.746 31.7961 127.344 31.2574 126.981 30.6931C126.603 30.1198 126.411 29.4517 126.246 28.7917Z" fill="white"/>
<path d="M135.395 18.1231C135.857 17.7613 136.414 17.5653 136.929 17.2973C137.207 17.1525 137.497 17.0288 137.802 16.9531C138.108 17.9135 138.637 18.7801 139.047 19.6972C139.405 20.512 139.891 21.275 140.142 22.1344C140.067 22.2015 139.993 22.2681 139.92 22.3361C139.734 22.187 139.575 22.0038 139.481 21.7811C138.838 20.4003 138.159 19.0354 137.509 17.6578C137.619 17.6526 137.729 17.6525 137.84 17.6505C137.762 17.5062 137.674 17.2159 137.458 17.347C136.868 17.6464 136.286 17.9684 135.658 18.1867C135.76 18.5178 135.892 18.8393 136.047 19.1499C137.544 22.245 139.025 25.3482 140.532 28.439C140.796 29.0452 141.331 29.5727 141.312 30.2725C140.897 29.6057 140.597 28.8775 140.249 28.1751C138.63 24.8252 137.028 21.4668 135.395 18.1231Z" fill="white"/>
<path d="M137.802 16.9536C138.378 18.0555 138.887 19.191 139.437 20.3061C139.725 20.8721 139.953 21.4709 140.304 22.0026C140.46 21.8693 140.562 21.6927 140.604 21.4904C140.775 20.7454 141.34 20.1317 142.02 19.8055C142.65 19.479 143.373 19.2072 144.093 19.3669C145.104 19.5644 145.949 20.3186 146.359 21.2516C147.232 23.0632 148.132 24.8632 148.966 26.6927C148.15 27.0477 147.363 27.4642 146.554 27.8342C145.716 26.2096 144.966 24.5409 144.152 22.9038C143.998 22.5948 143.709 22.3825 143.419 22.2118C142.878 21.9413 142.144 22.0947 141.779 22.5834C141.597 22.8234 141.472 23.0994 141.346 23.3703C141.298 23.1398 141.119 22.8942 141.246 22.6603C141.362 22.4053 141.501 22.1559 141.692 21.9485C141.919 21.7104 142.261 21.6593 142.568 21.5851C142.597 21.6437 142.657 21.7612 142.687 21.8194C142.353 22.0023 142.013 22.173 141.667 22.3299L141.696 22.3981C142.099 22.2259 142.47 21.9935 142.841 21.7627C143.064 21.6144 143.342 21.7315 143.564 21.8246C144.017 22.0581 144.476 22.3635 144.695 22.8419C145.413 24.3549 146.129 25.8691 146.876 27.3673C147.426 27.2606 147.922 26.9919 148.394 26.7016C147.75 25.1396 146.908 23.6664 146.247 22.111C146.089 21.747 145.861 21.42 145.666 21.076C145.283 20.3353 144.478 19.8902 143.673 19.7694C143.363 19.7031 143.097 19.9206 142.833 20.0431C142.449 20.2581 142.02 20.395 141.666 20.6621C141.333 20.946 141.163 21.3622 140.949 21.7332C140.878 21.7454 140.81 21.7577 140.741 21.7699C140.705 21.9125 140.733 22.1099 140.569 22.176C140.432 22.2731 140.28 22.1702 140.142 22.1349C139.891 21.2756 139.405 20.5126 139.047 19.6978C138.637 18.7807 138.108 17.9141 137.802 16.9536Z" fill="white"/>
<path d="M135.657 18.186C136.286 17.9678 136.867 17.6458 137.457 17.3464C137.674 17.2152 137.761 17.5056 137.839 17.6499C137.728 17.6519 137.618 17.6519 137.509 17.6571C136.943 17.7315 136.465 18.0674 135.975 18.3318C137.601 21.8125 139.317 25.2536 140.958 28.7285C141.161 29.1806 141.376 29.6284 141.627 30.0571C142.008 29.9131 142.396 29.776 142.743 29.5561C143.008 29.3963 143.257 29.1581 143.589 29.175C142.89 29.6685 142.049 29.9145 141.315 30.3518L141.311 30.2719C141.33 29.572 140.795 29.0445 140.531 28.4384C139.024 25.3476 137.544 22.2443 136.046 19.1493C135.891 18.8387 135.759 18.5171 135.657 18.186Z" fill="white"/>
<path d="M128.658 21.8322C129.427 21.2832 130.294 20.8832 131.189 20.5834C132.423 20.2773 133.771 20.1662 134.971 20.6644C135.058 20.6982 135.128 20.8171 135.089 20.9083C134.96 21.3099 134.772 21.6921 134.675 22.1049C134.55 22.6372 134.406 23.1725 134.119 23.6439C133.723 23.5014 133.319 23.3697 132.899 23.3243C131.791 23.2007 130.647 23.8064 130.028 24.7149C129.855 24.9827 129.745 25.2875 129.553 25.5413C129.486 25.6173 129.42 25.6938 129.355 25.769C129.368 25.7139 129.394 25.6048 129.407 25.55C129.421 25.4853 129.437 25.4217 129.455 25.3574C129.711 24.7785 130.167 24.3344 130.585 23.8725C130.993 23.6129 131.43 23.3951 131.888 23.2334C132.621 23.1369 133.367 23.1586 134.073 23.3914C134.314 22.7092 134.535 22.0211 134.791 21.3447C134.857 21.1287 135.008 20.8169 134.723 20.6937C134.368 20.6336 134.015 20.5599 133.658 20.5242C133.38 20.4881 133.192 20.7408 132.999 20.8964C133.088 20.7858 133.176 20.6748 133.263 20.561C132.876 20.4659 132.485 20.5449 132.101 20.6018C131.798 20.5894 131.516 20.6956 131.243 20.8111C130.318 20.9565 129.487 21.4284 128.772 22.0151C128.384 22.224 128.061 22.5249 127.778 22.8585C127.717 22.9225 127.658 22.9878 127.601 23.0524C126.747 23.9992 126.247 25.2406 126.104 26.4997C126.02 27.2905 126.159 28.0797 126.297 28.856L126.247 28.7916C126.133 28.4895 126.057 28.1745 125.982 27.8614C125.842 27.3128 125.952 26.7462 125.995 26.193C126.171 24.4283 127.295 22.9012 128.658 21.8322Z" fill="white"/>
<path d="M135.975 18.3325C136.466 18.0682 136.944 17.7322 137.509 17.6578C138.159 19.0355 138.838 20.4004 139.482 21.7812C139.575 22.0039 139.734 22.1871 139.92 22.3361C139.993 22.2682 140.067 22.2015 140.142 22.1345C140.28 22.1697 140.432 22.2726 140.569 22.1755C140.733 22.1094 140.705 21.912 140.741 21.7694C140.81 21.7572 140.878 21.7449 140.949 21.7327C141.163 21.3617 141.333 20.9455 141.666 20.6616C142.02 20.3945 142.449 20.2576 142.833 20.0426C143.097 19.9201 143.363 19.7026 143.673 19.7689C144.478 19.8897 145.283 20.3348 145.666 21.0755C145.861 21.4195 146.089 21.7465 146.247 22.1105C146.908 23.6659 147.75 25.1391 148.394 26.7011C147.922 26.9914 147.426 27.2601 146.876 27.3668C146.129 25.8686 145.414 24.3544 144.695 22.8414C144.476 22.363 144.017 22.0576 143.564 21.8241C143.342 21.731 143.065 21.6139 142.841 21.7622C142.47 21.993 142.099 22.2254 141.697 22.3976L141.667 22.3294C142.013 22.1725 142.353 22.0018 142.687 21.8189C142.657 21.7607 142.597 21.6432 142.568 21.5846C142.261 21.6588 141.919 21.7099 141.692 21.948C141.501 22.1554 141.362 22.4048 141.246 22.6598C141.12 22.8937 141.298 23.1393 141.346 23.3698C141.343 23.7138 141.392 24.0542 141.437 24.3941C141.418 24.5891 141.436 24.7866 141.541 24.957C142.24 26.3546 142.896 27.7741 143.59 29.1757C143.257 29.1588 143.009 29.397 142.743 29.5568C142.397 29.7767 142.009 29.9138 141.627 30.0579C141.377 29.6292 141.162 29.1813 140.958 28.7292C139.317 25.2543 137.602 21.8132 135.975 18.3325Z" fill="white"/>
<path d="M86.6045 43.116C87.6214 41.4346 89.5432 40.4038 91.4771 40.2491C91.4027 40.4272 91.3288 40.6062 91.2556 40.7848C91.4319 40.7088 91.6083 40.6327 91.7862 40.5599C92.1045 40.7847 92.5108 40.6984 92.8627 40.8174C92.9755 40.9233 92.9066 41.0839 92.8847 41.2119C92.745 41.6923 92.5952 42.1765 92.3434 42.6124C92.1356 42.5404 91.9276 42.4704 91.7193 42.4016C91.6773 42.5313 91.6353 42.661 91.5946 42.7912C91.3144 42.7819 91.0343 42.7934 90.7549 42.8187C90.7386 42.6921 90.7228 42.5664 90.7066 42.4398C90.1391 42.5033 89.5471 42.7309 89.214 43.2169C89.0067 43.5219 88.802 43.8365 88.6798 44.186C88.5875 44.4157 88.7952 44.6091 88.8866 44.801C89.0798 45.0881 89.1727 45.4792 89.5015 45.6492C89.7627 45.801 90.0681 45.8459 90.366 45.8486C90.3499 45.9639 90.3345 46.0787 90.3184 46.194C90.498 46.201 90.6797 46.2249 90.857 46.1902C91.0854 46.0941 91.2629 45.913 91.4622 45.7711L91.5378 45.7606C91.488 45.8762 91.4386 45.9905 91.3896 46.1057C91.5252 46.1329 91.6603 46.1594 91.7963 46.1854C91.8523 46.027 91.9084 45.8666 91.97 45.7095L92.0432 45.6962C92.0595 45.8167 92.0758 45.9372 92.0929 46.0574C92.9387 46.0468 93.8066 45.9062 94.6361 46.1364C95.0708 46.2474 95.4097 46.6285 95.8813 46.6033C96.0571 47.2819 96.4111 47.8926 96.674 48.5372C96.8399 48.5777 97.0065 48.6178 97.1727 48.6571C97.2057 48.9548 97.2234 49.2538 97.2091 49.5523C97.0924 49.5229 96.9757 49.4936 96.8591 49.4642C96.7508 49.9354 96.7014 50.4319 96.4463 50.8545C96.2705 51.1134 96.3361 51.4292 96.3768 51.7161C96.3316 51.7647 96.2424 51.8625 96.1975 51.912C96.1802 51.7501 96.1649 51.5883 96.15 51.4273C95.8541 51.6475 95.5775 51.8913 95.3151 52.1502C94.7665 52.7032 93.9784 52.875 93.3068 53.2266C93.0858 53.3421 92.9915 53.5905 92.8556 53.7854C92.8197 53.7977 92.7484 53.8212 92.7121 53.8327C92.7318 53.6629 92.7512 53.4924 92.7697 53.3222C92.3556 53.3964 92.0391 53.6773 91.7823 53.9932C91.5238 54.0063 91.2665 54.0258 91.0094 54.0333C91.0738 53.9047 91.137 53.7757 91.2014 53.6471C91.0438 53.735 90.8869 53.8226 90.73 53.9101C90.7406 53.8453 90.7516 53.7793 90.763 53.7141C90.7328 53.6928 90.6737 53.6507 90.6439 53.6302C90.5441 53.7101 90.4451 53.7897 90.3449 53.8688C90.1888 53.6544 89.911 53.4539 89.963 53.1571C90.0519 52.6147 90.3276 52.1294 90.5191 51.6201C90.4684 51.5211 90.4181 51.423 90.3678 51.3248C90.5157 51.3322 90.6636 51.3375 90.8109 51.3501C91.0581 51.4271 91.3126 51.4865 91.5724 51.4887C91.6227 51.7023 91.7807 51.8919 92.0191 51.8765C92.2116 51.7927 92.3736 51.6559 92.541 51.5324C92.5719 51.6439 92.6032 51.7563 92.6344 51.8686C92.7357 51.8228 92.8398 51.7806 92.9349 51.7218C92.9616 51.6203 92.9695 51.517 92.9807 51.4141C93.3885 51.2732 93.8115 51.0853 94.033 50.6919C94.2295 50.4121 94.3581 50.0923 94.4546 49.7661C94.5542 49.8117 94.6534 49.8564 94.7526 49.9012C94.8367 49.6915 94.9755 49.4673 94.8858 49.2358C94.7693 48.8909 94.6262 48.5279 94.3532 48.2773C94.1366 48.1707 93.9718 48.3636 93.8366 48.5024C93.616 48.4206 93.3893 48.3527 93.1586 48.3057C93.2026 48.176 93.2469 48.0471 93.2909 47.9174C92.9633 47.8633 92.6286 47.7698 92.2961 47.8276C91.993 47.9647 91.7639 48.2204 91.4894 48.4025C90.5906 48.5759 89.6398 48.6848 88.7412 48.462C88.8185 48.3332 88.8961 48.2052 88.9742 48.078C88.7286 47.9506 88.4539 47.8969 88.1859 47.9852C88.0285 47.6998 87.8164 47.4497 87.5688 47.2376C87.5457 47.396 87.5233 47.5541 87.5002 47.7126C87.3297 47.4414 87.1783 47.1501 87.171 46.8232C87.1598 46.4613 86.9574 46.1548 86.7627 45.8644C86.6624 45.8939 86.5629 45.9229 86.4627 45.9523C86.4116 45.6873 86.3521 45.4234 86.2873 45.161C86.4141 45.2362 86.5409 45.3114 86.6682 45.3855C86.6696 44.9588 86.6282 44.5219 86.7481 44.1058C86.8253 43.8158 86.9538 43.533 86.9538 43.2274C86.8389 43.1832 86.7215 43.1502 86.6045 43.116Z" fill="white"/>
<path d="M96.4772 42.1189C97.2179 41.6734 98.0184 41.3373 98.8004 40.9733C98.9674 41.291 99.1191 41.616 99.2845 41.9344L99.3252 42.0063C99.56 41.934 99.8306 41.8822 99.9963 41.6829C100.274 41.324 100.321 40.8314 100.636 40.4955C101.138 39.9663 101.989 39.9502 102.427 39.3486C102.753 39.5827 103.163 39.5935 103.532 39.7131C103.938 39.8498 104.12 40.2827 104.458 40.515C104.623 40.6144 104.811 40.6641 104.992 40.7253C105.132 41.427 105.476 42.0584 105.792 42.6926C106.369 43.9353 107.013 45.1485 107.554 46.4078C107.092 46.6802 106.607 46.909 106.111 47.1083C105.944 46.8978 105.787 46.6789 105.673 46.4355C105.142 45.2957 104.585 44.17 104.047 43.0338C103.755 42.4152 103.334 41.8088 102.7 41.5052C102.122 41.2526 101.398 41.2052 100.864 41.592C100.52 41.8056 100.348 42.1864 100.228 42.5564C100.332 42.6249 100.436 42.6922 100.54 42.7602C100.434 43.1469 100.332 43.5733 100.468 43.9646C101.214 45.6188 102.077 47.2201 102.797 48.8855C101.97 49.2761 101.153 49.6877 100.321 50.0698C99.0408 47.4194 97.7818 44.7577 96.4772 42.1189Z" fill="white"/>
<path d="M128.772 22.0158C129.487 21.4291 130.318 20.9571 131.243 20.8118C131.3 20.9642 131.359 21.1158 131.419 21.2671C131.746 21.1644 131.991 20.9269 132.1 20.6025C132.485 20.5455 132.876 20.4666 133.263 20.5616C133.176 20.6755 133.088 20.7865 132.999 20.8971C133.191 20.7415 133.379 20.4887 133.657 20.5249C134.015 20.5605 134.368 20.6342 134.722 20.6943C134.736 20.7483 134.763 20.8557 134.777 20.9097C134.633 20.9084 134.49 20.9067 134.347 20.905C134.398 21.1075 134.457 21.3241 134.369 21.5265C134.197 22.0156 134.034 22.5089 133.823 22.983C133.501 22.9102 133.171 22.9439 132.874 23.0871C132.91 22.999 132.947 22.9098 132.984 22.8213C132.57 22.7768 132.139 22.6891 131.733 22.8288C131.209 23.0168 130.675 23.2405 130.275 23.6413C130.42 23.6478 130.575 23.6777 130.714 23.6156C131.191 23.4224 131.633 23.1537 132.102 22.9416C132.031 23.0396 131.958 23.1372 131.888 23.234C131.43 23.3958 130.993 23.6136 130.584 23.8731C130.393 23.9068 130.198 23.91 130.006 23.9032C129.733 24.2169 129.414 24.5218 129.279 24.9241C129.216 25.0948 129.38 25.2251 129.455 25.3581C129.437 25.4224 129.421 25.4859 129.406 25.5507C129.307 25.5717 129.208 25.5923 129.11 25.6137C128.9 26.0554 128.726 26.5337 128.747 27.03C128.751 27.247 128.924 27.4003 129.044 27.5637C128.964 27.664 128.882 27.763 128.816 27.8727C128.957 28.184 129.228 28.4173 129.378 28.7262C129.538 29.0462 129.782 29.3597 129.766 29.7356C129.776 29.8753 129.759 30.0475 129.9 30.1309C130.109 30.2202 130.343 30.2019 130.566 30.2168C130.722 30.5487 130.878 30.9058 131.214 31.0928C131.277 30.9838 131.34 30.8749 131.403 30.7659C132.053 31.0957 132.833 31.3878 133.559 31.1549C133.687 31.1046 133.823 31.1283 133.957 31.1366C133.88 31.1724 133.728 31.2428 133.652 31.2778C133.829 31.2856 134.016 31.3059 134.183 31.2285C134.73 31.0127 135.217 30.6497 135.8 30.5278C135.172 30.8792 134.369 31.0047 133.917 31.6096C134.363 31.576 134.766 31.3726 135.156 31.1689C135.708 30.8946 136.173 30.4538 136.506 29.9378C136.678 29.6788 136.635 29.2688 136.927 29.105C137.372 29.1331 137.784 29.3368 138.203 29.476C138.392 29.5606 138.736 29.6602 138.631 29.9346C138.413 30.5333 138.055 31.0835 137.608 31.5366C137.694 31.6076 137.782 31.6778 137.87 31.7485C137.541 31.7906 137.172 31.8025 136.949 32.0872C137.076 32.1732 137.204 32.2589 137.332 32.3434L137.268 32.3922C136.411 32.3665 135.674 32.843 134.933 33.206C134.762 33.2793 134.662 33.4362 134.57 33.5881C135.419 33.4637 136.069 32.8107 136.917 32.6818C136.562 32.9285 136.161 33.0939 135.777 33.2852C135.38 33.4715 134.992 33.688 134.57 33.8082C134.253 33.6653 133.922 33.4981 133.565 33.525C133.237 33.5535 132.911 33.5953 132.589 33.6531C132.381 33.6814 132.264 33.8742 132.127 34.0073C132.122 33.895 132.118 33.7826 132.113 33.6703C131.846 33.5842 131.573 33.5165 131.297 33.4663C130.845 33.388 130.419 33.2078 129.987 33.0591C129.921 33.1496 129.856 33.2405 129.792 33.3302C129.71 33.2909 129.629 33.2492 129.55 33.2068C129.612 33.119 129.675 33.0309 129.74 32.9433C129.507 32.7257 129.289 32.4864 129.02 32.3156C128.785 32.21 128.442 32.3983 128.284 32.1249C127.996 31.7005 128.1 31.0908 127.669 30.7481C127.592 30.8689 127.517 30.9897 127.439 31.1089C127.222 30.6811 126.907 30.3024 126.76 29.8407C126.684 29.6194 126.62 29.3935 126.545 29.1723C126.69 29.2674 126.842 29.3526 126.995 29.4371C126.966 28.8259 126.558 28.3564 126.186 27.9099C126.346 27.982 126.507 28.0517 126.67 28.1187C126.617 27.8316 126.433 27.6055 126.227 27.4113C126.329 27.4171 126.431 27.4226 126.534 27.4277C126.452 26.7994 126.524 26.1725 126.698 25.5659C126.839 24.6733 127.432 23.9625 127.98 23.2819C127.853 23.2059 127.726 23.1298 127.6 23.053C127.658 22.9885 127.717 22.9232 127.778 22.8591C127.896 22.7862 128.017 22.717 128.137 22.647C128.067 22.8004 127.997 22.9545 127.93 23.1091C128.396 23.0526 128.678 22.6472 128.988 22.3414C128.915 22.2332 128.843 22.1247 128.772 22.0158Z" fill="white"/>
<path d="M115.618 32.8716C115.669 32.8828 115.773 32.9035 115.824 32.9147C116.149 33.7074 116.543 34.469 116.91 35.2439C118.104 37.721 119.297 40.1973 120.491 42.6744C120.793 43.2823 121.06 43.909 121.403 44.497C122.109 44.2165 122.794 43.8816 123.455 43.5071C123.095 42.5639 122.598 41.6829 122.177 40.7669C121.862 40.1684 121.663 39.4938 121.195 38.9898C121.162 39.197 121.172 39.4113 121.274 39.6008C121.856 40.8661 122.506 42.1002 123.073 43.3728C122.58 43.6612 122.066 43.9127 121.531 44.1139C121.211 43.5558 120.968 42.9592 120.682 42.3832C119.395 39.7191 118.113 37.0514 116.826 34.3877C116.616 33.96 116.439 33.5191 116.283 33.0697C116.763 32.8233 117.262 32.6108 117.722 32.3263C117.692 32.2184 117.663 32.1109 117.634 32.0026C117.667 31.9975 117.734 31.986 117.767 31.9801C117.893 32.1423 118.022 32.301 118.151 32.4621C118.204 32.5338 118.259 32.606 118.314 32.679C118.673 32.3758 118.675 31.8569 118.956 31.4965C119.132 31.4866 119.312 31.4953 119.483 31.4456C119.714 31.2577 119.898 31.0041 120.188 30.8981C120.828 30.6415 121.42 30.1637 122.145 30.2183C122.172 30.0703 122.199 29.922 122.226 29.7736C123.328 29.8545 124.405 30.3257 125.158 31.1439C125.196 32.0784 125.724 32.8728 126.138 33.6777C126.3 33.9708 126.274 34.3124 126.299 34.634C126.316 35.0128 126.391 35.3981 126.306 35.7742C126.175 36.3232 125.968 36.86 125.644 37.3265C125.698 37.391 125.754 37.4548 125.81 37.5194C125.519 37.534 125.223 37.581 124.994 37.777C125.081 37.8677 125.167 37.9583 125.255 38.0494C125.39 38.0025 125.525 37.9559 125.662 37.9098L125.653 37.9241C125.604 37.9587 125.505 38.0294 125.455 38.0644C125.321 38.0861 125.256 38.1633 125.26 38.2969L125.197 38.3401C124.756 38.5559 124.311 38.7664 123.87 38.9837C123.772 38.8973 123.671 38.8914 123.566 38.9661C123.502 38.992 123.375 39.0439 123.312 39.0706C123.302 39.0721 123.283 39.0762 123.274 39.0777C123.218 39.0817 123.105 39.0885 123.049 39.0917C122.993 39.0857 122.881 39.072 122.825 39.0652C122.657 39.0487 122.491 39.0254 122.325 38.9938C122.039 38.8368 121.728 38.728 121.398 38.7369C121.537 39.2979 121.835 39.7983 122.08 40.3159C122.592 41.4029 123.142 42.4727 123.633 43.5698C122.88 43.9615 122.114 44.3305 121.339 44.6745C119.401 40.7554 117.555 36.7903 115.618 32.8716ZM119.507 33.2605C119.303 33.8474 119.076 34.4585 119.141 35.091C119.141 35.2763 119.298 35.3904 119.422 35.5033C119.492 35.2922 119.432 35.0792 119.356 34.88C119.407 34.9064 119.507 34.9596 119.557 34.986C119.74 35.4803 119.967 35.9648 120.251 36.4092C120.219 36.4288 120.154 36.4691 120.122 36.4895C120.03 36.3226 119.939 36.1568 119.846 35.9923C119.692 36.0875 119.537 36.2212 119.656 36.4146C119.886 36.691 120.196 36.9008 120.506 37.0806C120.724 37.2045 120.949 37.0501 121.144 36.9543C121.263 37.0086 121.389 37.0485 121.517 37.076C121.475 37.1721 121.433 37.2689 121.392 37.3653C121.68 37.5231 122.005 37.7139 122.347 37.6218C122.593 37.4911 122.734 37.224 122.975 37.0812C123.209 36.9883 123.469 37.025 123.712 36.9656C123.911 36.7892 123.997 36.5278 124.091 36.2874C123.974 36.2672 123.858 36.2475 123.744 36.227C123.964 35.8721 124.128 35.4606 124.133 35.038C124.274 35.0637 124.448 35.1838 124.549 35.0176C124.532 34.8517 124.374 34.7777 124.261 34.6818C124.348 34.6141 124.446 34.5549 124.513 34.4649C124.548 34.2549 124.416 34.0745 124.321 33.9015C124.214 33.92 124.108 33.9381 124.003 33.9558C123.911 33.7773 123.818 33.5994 123.723 33.4232C123.794 33.3858 123.866 33.3491 123.938 33.3125C123.913 33.1048 123.913 32.8469 123.701 32.734C123.507 32.7388 123.319 32.785 123.131 32.8239C122.633 32.4297 121.962 32.2375 121.331 32.2937C120.952 32.433 120.58 32.6072 120.242 32.8285C120.22 32.7957 120.175 32.7285 120.153 32.6953C120.597 32.4896 121.043 32.2912 121.465 32.0442C121.429 31.994 121.355 31.8931 121.318 31.8432C120.925 31.955 120.556 32.1409 120.188 32.3144C119.86 32.5358 119.649 32.8993 119.507 33.2605Z" fill="white"/>
<path d="M127.777 22.8586C128.06 22.5251 128.383 22.2242 128.771 22.0153C128.843 22.1242 128.915 22.2327 128.988 22.3408C128.677 22.6467 128.396 23.052 127.93 23.1086C127.996 22.954 128.066 22.7998 128.137 22.6465C128.016 22.7165 127.895 22.7857 127.777 22.8586Z" fill="white"/>
<path d="M131.242 20.8109C131.515 20.6954 131.797 20.5892 132.099 20.6016C131.99 20.926 131.745 21.1635 131.418 21.2662C131.358 21.115 131.299 20.9633 131.242 20.8109Z" fill="white"/>
<path d="M134.347 20.9048C134.49 20.9065 134.633 20.9082 134.777 20.9095C134.763 20.8555 134.736 20.7481 134.722 20.6941C135.007 20.8174 134.856 21.1291 134.79 21.3451C134.535 22.0215 134.313 22.7096 134.072 23.3919C133.366 23.159 132.62 23.1374 131.887 23.2338C131.958 23.137 132.03 23.0394 132.102 22.9414C131.633 23.1535 131.191 23.4222 130.714 23.6154C130.574 23.6775 130.42 23.6476 130.274 23.641C130.674 23.2402 131.208 23.0166 131.733 22.8285C132.138 22.6889 132.57 22.7765 132.983 22.8211C132.946 22.9095 132.91 22.9988 132.873 23.0869C133.171 22.9437 133.501 22.91 133.823 22.9828C134.034 22.5087 134.196 22.0154 134.369 21.5263C134.456 21.3238 134.398 21.1072 134.347 20.9048Z" fill="white"/>
<path d="M149.336 22.2025C149.401 21.6625 149.647 21.1576 150.005 20.7514C150.082 20.8487 150.16 20.9465 150.237 21.0435C149.957 21.4236 149.721 21.8436 149.652 22.317C149.546 22.2785 149.44 22.2409 149.336 22.2025Z" fill="white"/>
<path d="M91.2555 40.7846C91.3287 40.606 91.4027 40.427 91.4771 40.2489C92.1141 40.1767 92.7652 40.2163 93.3833 40.3941C93.4172 40.4623 93.4863 40.5973 93.5201 40.6655C93.2532 41.458 93.0046 42.2597 92.8219 43.0763C92.5825 43.1289 92.3605 43.007 92.1448 42.9249C91.9694 42.8521 91.784 42.8041 91.5945 42.791C91.6353 42.6608 91.6773 42.5311 91.7193 42.4014C91.9276 42.4702 92.1355 42.5402 92.3434 42.6122C92.5951 42.1763 92.7449 41.6921 92.8846 41.2117C92.9065 41.0837 92.9755 40.9231 92.8627 40.8172C92.5107 40.6982 92.1045 40.7845 91.7861 40.5597C91.6082 40.6325 91.4319 40.7086 91.2555 40.7846Z" fill="white"/>
<path d="M126.104 26.4998C126.246 25.2407 126.747 23.9993 127.6 23.0525C127.726 23.1293 127.853 23.2053 127.98 23.2813C127.431 23.9619 126.838 24.6727 126.698 25.5653C126.524 26.1719 126.452 26.7988 126.534 27.4272C126.431 27.4221 126.328 27.4166 126.227 27.4107C126.433 27.605 126.617 27.831 126.67 28.1181C126.507 28.0512 126.346 27.9814 126.186 27.9093C126.558 28.3559 126.966 28.8253 126.994 29.4365C126.841 29.3521 126.69 29.2669 126.544 29.1717C126.461 29.0666 126.377 28.9628 126.297 28.8561C126.158 28.0798 126.02 27.2906 126.104 26.4998Z" fill="white"/>
<path d="M155.519 10.9544C156.283 10.4995 157.104 10.1485 157.91 9.77688C158.269 10.4377 158.538 11.1454 158.919 11.795C158.758 11.8335 158.598 11.8709 158.44 11.9083C158.162 11.4251 157.933 10.9165 157.684 10.4172C157.143 10.5525 156.63 10.7937 156.207 11.1581C156.425 11.6861 156.713 12.1832 156.905 12.7225C156.685 12.9591 156.61 13.2748 156.591 13.5885C156.411 13.713 156.231 13.8347 156.05 13.9548C156.15 14.235 156.273 14.507 156.419 14.7674C156.67 14.694 156.921 14.6107 157.183 14.5792C157.311 14.7038 157.162 14.872 157.141 15.0125C156.826 15.1723 156.506 15.3196 156.176 15.442C155.898 14.8541 155.612 14.2704 155.333 13.6833C155.735 13.5063 156.132 13.3132 156.509 13.0845C156.247 12.3452 155.858 11.6595 155.519 10.9544Z" fill="white"/>
<path d="M86.1992 45.4982C86.0573 44.6937 86.138 43.8058 86.6043 43.1153C86.7213 43.1495 86.8387 43.1824 86.9536 43.2266C86.9536 43.5322 86.8251 43.815 86.7479 44.105C86.628 44.5211 86.6694 44.958 86.668 45.3847C86.5408 45.3107 86.4139 45.2354 86.2871 45.1602C86.3519 45.4226 86.4114 45.6865 86.4625 45.9515C86.5627 45.9221 86.6622 45.8931 86.7625 45.8637C86.9572 46.154 87.1596 46.4605 87.1708 46.8224C87.1781 47.1493 87.3295 47.4406 87.5 47.7118C87.5231 47.5533 87.5455 47.3953 87.5686 47.2368C87.8162 47.4489 88.0283 47.699 88.1857 47.9844C88.4537 47.8961 88.7284 47.9498 88.974 48.0773C88.8959 48.2045 88.8183 48.3325 88.741 48.4613C87.8198 48.2722 87.0106 47.6092 86.6572 46.7375C86.4834 46.3336 86.2046 45.9534 86.1992 45.4982Z" fill="white"/>
<path d="M125.158 31.143C125.405 31.3843 125.663 31.6263 125.817 31.9409C126.087 32.4758 126.367 33.0088 126.577 33.5704C126.76 34.1846 126.749 34.8333 126.798 35.4664C126.723 36.3736 126.314 37.2294 125.693 37.8892L125.662 37.9088C125.525 37.955 125.389 38.0015 125.255 38.0485C125.167 37.9574 125.081 37.8667 124.994 37.776C125.223 37.58 125.519 37.533 125.809 37.5184C125.753 37.4538 125.698 37.3901 125.644 37.3255C125.967 36.859 126.174 36.3223 126.306 35.7732C126.39 35.3971 126.316 35.0118 126.299 34.633C126.274 34.3115 126.3 33.9698 126.137 33.6767C125.724 32.8719 125.196 32.0774 125.158 31.143Z" fill="white"/>
<path d="M127.439 31.1085C127.516 30.9893 127.592 30.8685 127.669 30.7477C128.1 31.0904 127.995 31.7 128.284 32.1245C128.441 32.3979 128.784 32.2096 129.019 32.3152C129.289 32.486 129.507 32.7253 129.739 32.9428C129.675 33.0305 129.612 33.1186 129.549 33.2063C128.695 32.6867 127.895 32.015 127.439 31.1085Z" fill="white"/>
<path d="M155.38 10.8748C156.143 10.3429 157.045 10.0536 157.851 9.59536C158.407 10.2033 158.553 11.0568 159.048 11.7068C159.707 11.5055 160.281 11.0967 160.948 10.9184C161.268 11.5394 161.566 12.1705 161.862 12.8027C161.398 13.2435 160.75 13.3785 160.225 13.7213C160.026 13.846 160.14 14.1015 160.211 14.2665C160.473 14.8401 160.769 15.397 161.032 15.9687C161.3 16.5135 161.513 17.1157 161.982 17.5275C162.129 17.6508 162.325 17.6817 162.51 17.7088C162.522 17.709 162.546 17.7086 162.559 17.7084C163.01 17.6632 163.35 17.306 163.765 17.1857C163.774 17.1895 163.792 17.1957 163.8 17.1995C163.98 17.334 164.058 17.5541 164.161 17.7465C164.365 18.2002 164.626 18.631 164.767 19.1111L164.693 19.1609C164.428 19.3283 164.184 19.5249 163.948 19.7312C163.578 20.0021 163.152 20.2152 162.707 20.3291C162.513 20.368 162.319 20.4065 162.129 20.4546C161.541 20.651 160.905 20.4721 160.388 20.1727C160.239 20.0943 160.139 19.9593 160.049 19.8229C160.63 20.1794 161.308 20.5229 162.011 20.3671C162.556 20.2246 163.132 20.1183 163.605 19.7899C163.937 19.563 164.261 19.3235 164.608 19.1164C164.363 18.5129 164.074 17.9285 163.764 17.3565C163.633 17.4364 163.503 17.5151 163.373 17.5927C163.115 17.7088 162.863 17.8591 162.581 17.9028C162.24 17.8966 161.958 17.6764 161.667 17.5258C161.056 16.2609 160.406 15.0124 159.856 13.7192C160.45 13.3998 161.078 13.145 161.666 12.8107C161.409 12.2211 161.13 11.64 160.826 11.073C160.21 11.3339 159.61 11.6292 159.018 11.9382C158.993 11.9025 158.944 11.8308 158.919 11.7948C158.538 11.1452 158.27 10.4375 157.911 9.77668C157.105 10.1483 156.283 10.4993 155.519 10.9542C155.859 11.6593 156.247 12.345 156.51 13.0843C156.133 13.313 155.736 13.5061 155.334 13.6831C155.613 14.2703 155.899 14.8539 156.176 15.4418C156.506 15.3194 156.827 15.1721 157.142 15.0123C157.199 14.9838 157.315 14.927 157.372 14.8985C157.8 15.497 158.046 16.198 158.383 16.8477C158.686 17.466 158.976 18.0906 159.278 18.7093C159.476 19.1196 159.797 19.4475 160.049 19.8229C159.647 19.6254 159.413 19.2165 159.212 18.8359C158.66 17.7074 158.122 16.572 157.575 15.4416C157.515 15.2964 157.378 15.1561 157.209 15.2069C156.855 15.3089 156.553 15.5367 156.202 15.6442C156.037 15.641 155.993 15.4644 155.923 15.3491C155.713 14.9165 155.509 14.4813 155.295 14.0511C155.235 13.9031 155.11 13.7324 155.211 13.5739C155.529 13.3383 155.932 13.2523 156.25 13.0147C156.298 12.8851 156.276 12.7424 156.212 12.622C155.941 12.037 155.637 11.4668 155.38 10.8748Z" fill="white"/>
<path d="M157.851 9.59521C157.978 9.62954 158.139 9.63148 158.196 9.77588C158.515 10.3479 158.757 10.9606 159.06 11.5424C159.672 11.3288 160.233 10.994 160.824 10.728C161.115 11.0257 161.272 11.4166 161.451 11.7865C161.637 12.1854 161.875 12.5734 161.932 13.0186C161.375 13.316 160.794 13.5622 160.238 13.8601C160.781 15.0999 161.414 16.2989 161.981 17.5274C161.512 17.1156 161.299 16.5134 161.032 15.9685C160.768 15.3969 160.472 14.84 160.21 14.2663C160.14 14.1013 160.026 13.8458 160.224 13.7212C160.75 13.3783 161.397 13.2434 161.862 12.8026C161.565 12.1703 161.268 11.5392 160.948 10.9182C160.28 11.0966 159.707 11.5053 159.047 11.7067C158.552 11.0566 158.406 10.2032 157.851 9.59521Z" fill="white"/>
<path d="M89.2143 43.2163C89.5473 42.7303 90.1393 42.5027 90.7069 42.4391C90.7231 42.5657 90.7389 42.6914 90.7551 42.818C90.2279 43.0293 89.6553 43.2455 89.3016 43.7156C89.0462 44.0218 88.9921 44.4281 88.8869 44.8003C88.7954 44.6085 88.5877 44.415 88.6801 44.1853C88.8022 43.8358 89.0069 43.5212 89.2143 43.2163Z" fill="white"/>
<path d="M129.11 25.6134C129.208 25.592 129.307 25.5713 129.406 25.5503C129.394 25.6051 129.368 25.7142 129.354 25.7693C129.174 26.3469 129.141 26.9688 129.238 27.5641C129.45 28.4125 129.821 29.2239 130.361 29.9131C130.668 30.242 131.026 30.5215 131.403 30.7655C131.34 30.8745 131.277 30.9835 131.214 31.0924C130.877 30.9055 130.722 30.5483 130.566 30.2164C130.343 30.2016 130.109 30.2198 129.9 30.1306C129.759 30.0471 129.776 29.8749 129.766 29.7352C129.782 29.3593 129.538 29.0458 129.378 28.7259C129.228 28.4169 128.956 28.1836 128.815 27.8724C128.882 27.7627 128.964 27.6636 129.044 27.5633C128.924 27.4 128.751 27.2467 128.747 27.0297C128.725 26.5333 128.9 26.055 129.11 25.6134Z" fill="white"/>
<path d="M119.508 33.26C119.65 32.8987 119.861 32.5353 120.188 32.3139C120.556 32.1404 120.926 31.9544 121.319 31.8427C121.356 31.8925 121.429 31.9934 121.465 32.0437C121.044 32.2906 120.597 32.489 120.154 32.6947C120.176 32.7279 120.22 32.7951 120.243 32.8279C120.028 33.1556 119.766 33.4658 119.661 33.8517C119.56 34.2199 119.549 34.6067 119.558 34.9854C119.507 34.959 119.407 34.9058 119.357 34.8794C119.433 35.0787 119.493 35.2917 119.422 35.5028C119.299 35.3899 119.141 35.2757 119.142 35.0905C119.077 34.4579 119.304 33.8469 119.508 33.26Z" fill="white"/>
<path d="M93.8369 48.5013C93.972 48.3625 94.1368 48.1696 94.3534 48.2762C94.6265 48.5268 94.7696 48.8898 94.8861 49.2348C94.9758 49.4662 94.837 49.6904 94.7529 49.9001C94.6537 49.8553 94.5545 49.8106 94.4549 49.765C94.4387 49.2832 94.2211 48.7988 93.8369 48.5013Z" fill="white"/>
<path d="M96.4462 50.8539C96.7014 50.4313 96.7507 49.9348 96.859 49.4636C96.9757 49.4929 97.0923 49.5223 97.209 49.5517C97.1983 50.3431 96.8824 51.1124 96.3767 51.7154C96.336 51.4285 96.2704 51.1128 96.4462 50.8539Z" fill="white"/>
<path d="M95.3155 52.1495C95.5779 51.8907 95.8545 51.6469 96.1504 51.4266C96.1653 51.5877 96.1806 51.7495 96.1979 51.9113C95.7508 52.3796 95.2658 52.8353 94.6645 53.0973C94.0737 53.3542 93.5178 53.7495 92.856 53.7848C92.9919 53.5899 93.0862 53.3414 93.3072 53.2259C93.9788 52.8744 94.7669 52.7026 95.3155 52.1495Z" fill="white"/>
<path d="M156.207 11.1577C156.631 10.7933 157.144 10.5522 157.684 10.4169C157.933 10.9161 158.162 11.4247 158.44 11.9079C158.598 11.8705 158.758 11.8332 158.919 11.7946C158.943 11.8306 158.993 11.9023 159.018 11.938C159.092 12.0433 159.167 12.1487 159.242 12.254C159.721 12.1664 160.154 11.9357 160.595 11.74C160.754 12.0149 160.898 12.2986 161.03 12.5876C160.682 12.8496 160.262 12.9806 159.896 13.2079C159.713 13.4126 159.649 13.696 159.574 13.9523C159.482 14.2144 159.635 14.4669 159.741 14.6978C160.16 15.5268 160.553 16.3678 160.952 17.2064C161.048 17.432 161.214 17.6137 161.405 17.7624C161.491 17.6839 161.579 17.6049 161.667 17.5256C161.958 17.6762 162.24 17.8964 162.58 17.9026C162.863 17.859 163.115 17.7087 163.372 17.5925C163.112 17.7748 162.88 17.9948 162.692 18.2507C163.01 18.2168 163.323 18.146 163.63 18.0574C163.761 18.3079 163.929 18.5546 163.958 18.8429C163.832 19.0151 163.663 19.1482 163.505 19.2883C163.614 19.334 163.724 19.3805 163.836 19.4262C163.46 19.7311 163.034 19.9792 162.551 20.0604C162.576 19.9272 162.601 19.7944 162.628 19.6609C162.331 19.7677 162.048 19.9127 161.745 19.999C161.523 20.0326 161.301 19.9624 161.089 19.9052C160.68 19.7966 160.423 19.4348 160.132 19.1571C160.117 19.3385 160.102 19.5199 160.086 19.7001C159.713 19.2917 159.853 18.7103 159.601 18.2527C159.154 17.3395 158.707 16.4263 158.28 15.5034C158.179 15.3063 158.09 15.0961 157.937 14.9342C157.758 14.8603 157.558 14.8758 157.371 14.8984C157.314 14.9268 157.198 14.9837 157.141 15.0121C157.162 14.8717 157.311 14.7034 157.183 14.5788C156.922 14.6103 156.67 14.6937 156.419 14.767C156.274 14.5067 156.15 14.2346 156.05 13.9544C156.231 13.8344 156.411 13.7127 156.591 13.5882C156.61 13.2745 156.685 12.9587 156.905 12.7221C156.713 12.1828 156.425 11.6858 156.207 11.1577Z" fill="white"/>
<path d="M89.302 43.7161C89.6557 43.246 90.2282 43.0298 90.7554 42.8185C91.0349 42.7933 91.315 42.7817 91.5951 42.791C91.7846 42.8042 91.97 42.8522 92.1454 42.9249C91.6667 42.9685 91.1761 42.8755 90.7099 43.0255C90.0974 43.1506 89.5473 43.556 89.2423 44.1002C88.9738 44.555 89.1479 45.1867 89.569 45.4824C90.0649 45.745 90.6505 45.7086 91.19 45.6427C91.7706 45.5877 92.3453 45.4481 92.9296 45.4482C92.9638 45.4655 93.0323 45.5002 93.0669 45.5184C92.7267 45.5828 92.3847 45.6372 92.0438 45.696L91.9706 45.7093C91.8263 45.7281 91.6822 45.7428 91.5384 45.7604L91.4628 45.7709C91.0975 45.8017 90.7328 45.8381 90.3665 45.8484C90.0686 45.8457 89.7633 45.8008 89.5021 45.649C89.1733 45.479 89.0803 45.0879 88.8872 44.8008C88.9925 44.4286 89.0465 44.0223 89.302 43.7161Z" fill="white"/>
<path d="M129.28 24.9241C129.414 24.5218 129.733 24.2169 130.006 23.9032C130.198 23.91 130.393 23.9068 130.585 23.8731C130.167 24.3351 129.71 24.7791 129.455 25.3581C129.38 25.2251 129.217 25.0948 129.28 24.9241Z" fill="white"/>
<path d="M130.027 24.7151C130.646 23.8066 131.79 23.2008 132.898 23.3244C132.353 23.4348 131.789 23.5036 131.3 23.7892C130.801 23.9909 130.452 24.4069 130.027 24.7151Z" fill="white"/>
<path d="M108.516 35.8061C108.655 35.6875 108.813 35.5931 108.975 35.5073C109.772 35.1074 110.579 34.6475 111.492 34.6107C112.639 34.4681 113.74 35.1217 114.416 36.009C114.671 36.3599 114.971 36.6831 115.163 37.0753C115.943 38.6878 116.715 40.3047 117.5 41.9145C117.009 42.2939 116.406 42.4817 115.865 42.7725C115.56 42.9024 115.276 43.1133 114.945 43.1602C114.707 43.0368 114.574 42.7718 114.377 42.5937C114.383 42.5469 114.397 42.4529 114.403 42.406C114.462 42.362 114.579 42.2746 114.637 42.2318C114.763 42.4863 114.89 42.7419 115.014 42.9976C115.766 42.6897 116.537 42.3869 117.203 41.9126C116.395 40.2306 115.591 38.548 114.768 36.8734C114.564 36.4145 114.201 36.0608 113.871 35.6927C113.659 35.4702 113.407 35.2909 113.144 35.1363C113.027 35.0701 112.908 35.007 112.788 34.9507C112.115 34.5772 111.296 34.6964 110.592 34.912C109.6 35.2172 108.643 35.743 107.96 36.5379C107.503 37.0121 107.114 37.5658 106.872 38.1811C106.816 38.3058 106.963 38.405 107.063 38.4453C107.605 38.6806 108.153 38.9051 108.717 39.0885C108.768 38.9942 108.82 38.8995 108.87 38.8036L108.872 38.8882C108.946 39.0926 108.751 39.273 108.549 39.1971C108.037 39.059 107.556 38.8218 107.062 38.6298C106.888 38.5555 106.67 38.4637 106.658 38.2433C106.997 37.2558 107.74 36.4758 108.516 35.8061Z" fill="white"/>
<path d="M129.354 25.7693C129.419 25.694 129.485 25.6176 129.552 25.5416C129.548 25.9169 129.393 26.2699 129.379 26.643C129.345 27.202 129.472 27.7548 129.623 28.2891C129.824 29.0315 130.394 29.5779 130.843 30.1735C131.461 30.7046 132.261 31.0836 133.09 31.0679C133.251 31.0663 133.407 31.1022 133.559 31.1546C132.832 31.3874 132.052 31.0954 131.403 30.7655C131.025 30.5214 130.668 30.242 130.361 29.9131C129.821 29.2239 129.45 28.4125 129.238 27.5641C129.141 26.9688 129.174 26.3469 129.354 25.7693Z" fill="white"/>
<path d="M147.572 18.4245C148.041 17.3843 148.821 16.4857 149.768 15.8535C150.613 15.4202 151.472 14.9098 152.447 14.8726C152.955 14.8608 153.542 14.8504 153.94 15.2191C153.787 15.1892 153.633 15.1678 153.483 15.1399C153.208 15.0814 152.929 15.0436 152.649 15.0323C152.392 15.0174 152.131 15.0172 151.882 15.0882C151.222 15.2663 150.567 15.4961 149.989 15.8691C149.379 16.2649 148.768 16.7163 148.408 17.3655C148.323 17.4874 148.238 17.6101 148.156 17.7332C147.982 17.9909 147.823 18.2577 147.67 18.5266C147.96 18.7878 148.341 18.892 148.693 19.0391C148.722 19.0708 148.781 19.133 148.81 19.1647C148.445 19.1185 148.099 18.9855 147.765 18.8399C147.602 18.7874 147.476 18.5843 147.572 18.4245Z" fill="white"/>
<path d="M100.342 39.888C100.714 39.6371 101.043 39.2975 101.488 39.1776C101.956 39.0436 102.433 38.8665 102.928 38.9455C104.168 39.0213 105.148 39.9983 105.694 41.0469C106.451 42.5729 107.172 44.1168 107.923 45.6467C108.041 45.8794 108.127 46.1265 108.208 46.3755C107.555 46.7157 106.876 47.0021 106.223 47.3399C106.005 47.4438 105.796 47.5908 105.546 47.6004C105.584 47.5833 105.659 47.5479 105.697 47.53C106.498 47.1715 107.307 46.8215 108.057 46.3624C107.289 44.6157 106.403 42.9226 105.601 41.1915C105.116 40.3499 104.465 39.5144 103.519 39.1782C102.936 39.0599 102.299 39.0166 101.744 39.2691C101.117 39.5307 100.465 39.8497 100.08 40.4356C99.7692 40.8032 99.6228 41.2718 99.5822 41.7452C99.4831 41.808 99.3839 41.8707 99.2851 41.9342C99.1197 41.6158 98.9681 41.2908 98.8011 40.9732C98.019 41.3372 97.2185 41.6732 96.4778 42.1188C97.7825 44.7575 99.0414 47.4192 100.322 50.0696C101.154 49.6875 101.971 49.2759 102.798 48.8854C102.078 47.2199 101.214 45.6186 100.469 43.9644C100.333 43.5731 100.435 43.1467 100.541 42.7601C100.714 42.216 101.203 41.8358 101.759 41.748C102.303 41.7723 102.836 42.0471 103.134 42.5118C103.141 42.558 103.154 42.6501 103.161 42.6955C102.957 42.5085 102.777 42.2937 102.552 42.1304C102.328 41.9764 102.052 41.9303 101.787 41.9016C101.773 41.9038 101.744 41.9086 101.73 41.9104C101.474 42.0258 101.193 42.1175 100.987 42.317C100.673 42.6766 100.527 43.1801 100.6 43.6536C100.683 44.302 101.037 44.8681 101.305 45.4523C101.852 46.6031 102.428 47.7407 102.954 48.9017C102.076 49.3685 101.176 49.7953 100.269 50.2008C98.9359 47.477 97.6243 44.7432 96.3166 42.0074L96.3877 41.9731C97.2156 41.5741 98.0391 41.1682 98.8732 40.7821C99.0598 41.0744 99.244 41.3678 99.4481 41.6486C99.4526 41.5858 99.4629 41.4584 99.4682 41.3951C99.4624 41.0485 99.683 40.771 99.8559 40.4917C99.9962 40.2747 100.12 40.0331 100.342 39.888Z" fill="white"/>
<path d="M107.96 36.5385C108.643 35.7436 109.6 35.2178 110.592 34.9126C111.296 34.697 112.115 34.5778 112.788 34.9513C112.571 34.9093 112.353 34.8772 112.134 34.8536C111.663 34.8138 111.173 34.8148 110.73 34.9996C109.75 35.4012 108.784 35.8619 107.96 36.5385Z" fill="white"/>
<path d="M118.452 32.2583C118.753 31.291 119.49 30.5049 120.376 30.0378C120.706 29.8866 121.066 29.814 121.409 29.6995C121.844 29.5455 122.314 29.5888 122.76 29.661C123.835 29.8338 124.852 30.4208 125.53 31.2704C126.095 32.231 126.684 33.2204 126.844 34.3432C126.906 34.7174 126.866 35.0974 126.798 35.4673C126.749 34.8342 126.761 34.1856 126.577 33.5714C126.367 33.0097 126.087 32.4767 125.817 31.9419C125.663 31.6272 125.405 31.3853 125.158 31.1439C124.405 30.3257 123.327 29.8545 122.225 29.7736C121.362 29.7438 120.543 30.096 119.83 30.5548C119.47 30.795 119.183 31.1313 118.956 31.4965C118.675 31.8569 118.672 32.3758 118.314 32.679C118.259 32.606 118.204 32.5338 118.151 32.462C118.068 32.2114 117.975 31.9643 117.853 31.7307C117.885 31.7151 117.949 31.6852 117.982 31.6704C118.125 31.9219 118.256 32.1813 118.392 32.4375C118.411 32.3784 118.431 32.3181 118.452 32.2583Z" fill="white"/>
<path d="M148.408 17.3652C148.768 16.716 149.379 16.2645 149.989 15.8688C150.567 15.4958 151.221 15.2659 151.882 15.0879C152.131 15.0169 152.392 15.0171 152.648 15.032C152.088 15.147 151.528 15.2856 151.017 15.5497C150.345 15.8936 149.594 16.1526 149.07 16.7188C148.854 16.9394 148.634 17.156 148.408 17.3652Z" fill="white"/>
<path d="M96.3143 41.8171C97.0388 41.4699 97.7632 41.1247 98.4833 40.7687C98.6281 40.7138 98.7975 40.5944 98.952 40.6921C99.1312 40.9213 99.2584 41.1894 99.4679 41.3949C99.4626 41.4582 99.4523 41.5856 99.4478 41.6485C99.2438 41.3676 99.0596 41.0742 98.8729 40.782C98.0388 41.168 97.2153 41.5739 96.3874 41.9729C96.3696 41.9338 96.333 41.8558 96.3143 41.8171Z" fill="white"/>
<path d="M115.427 33.1647C115.34 32.9935 115.232 32.716 115.464 32.6071C116.252 32.1979 117.064 31.8392 117.856 31.4404C118.059 31.71 118.237 31.9973 118.452 32.2579C118.431 32.3178 118.412 32.378 118.392 32.4371C118.257 32.1809 118.126 31.9215 117.983 31.67C117.95 31.6848 117.886 31.7147 117.854 31.7303C117.082 32.1101 116.309 32.4886 115.529 32.8506C115.658 33.4993 116.066 34.0342 116.339 34.6228C117.777 37.6128 119.221 40.6 120.658 43.5899C120.86 43.9983 120.971 44.4675 121.293 44.8058C121.538 44.7552 121.761 44.6341 121.984 44.5263C122.584 44.2222 123.204 43.9545 123.792 43.6271C123.094 42.043 122.251 40.5233 121.582 38.9268C121.831 38.9312 122.079 38.9529 122.326 38.9934C122.491 39.025 122.658 39.0483 122.826 39.0648C122.882 39.0716 122.994 39.0853 123.05 39.0913C123.106 39.0881 123.219 39.0813 123.275 39.0773C123.284 39.0759 123.303 39.0717 123.312 39.0703C123.376 39.0435 123.502 38.9916 123.566 38.9657C123.657 39.0484 123.759 39.0551 123.87 38.9833C124.358 38.8737 124.82 38.6719 125.197 38.3397L125.26 38.2965C125.379 38.2634 125.444 38.1861 125.456 38.064C125.505 38.029 125.605 37.9583 125.654 37.9237C125.664 37.915 125.683 37.8985 125.693 37.8898C126.315 37.23 126.723 36.3741 126.799 35.4669C126.866 35.097 126.907 34.717 126.845 34.3428C126.684 33.22 126.096 32.2306 125.53 31.27C125.947 31.6009 126.21 32.0723 126.432 32.5451C126.771 33.1804 126.879 33.9026 126.986 34.6055C127.029 35.5677 126.804 36.557 126.309 37.3871C125.771 38.2671 124.837 38.8129 123.877 39.1214C123.216 39.3127 122.526 39.1904 121.857 39.1165C122.494 40.5397 123.207 41.9287 123.873 43.3395C123.935 43.4739 124.01 43.6607 123.874 43.7786C123.641 43.9489 123.368 44.0508 123.111 44.1774C122.473 44.468 121.859 44.8128 121.203 45.0651C120.873 44.5138 120.627 43.9183 120.343 43.3427C118.703 39.9509 117.079 36.5504 115.427 33.1647Z" fill="white"/>
<path d="M100.079 40.4351C100.465 39.8492 101.116 39.5303 101.743 39.2687C102.298 39.0161 102.935 39.0595 103.518 39.1778C104.464 39.5139 105.116 40.3495 105.6 41.191C106.403 42.9222 107.288 44.6153 108.056 46.362C107.306 46.8211 106.498 47.171 105.696 47.5295C104.942 46.0617 104.255 44.5592 103.533 43.0762C103.427 42.8693 103.28 42.6892 103.133 42.5114C102.835 42.0467 102.303 41.7719 101.759 41.7475C101.203 41.8353 100.713 42.2156 100.541 42.7596C100.436 42.6915 100.332 42.6243 100.228 42.5558C100.348 42.1858 100.52 41.8049 100.864 41.5914C101.398 41.2046 102.122 41.252 102.701 41.5046C103.335 41.8081 103.755 42.4146 104.047 43.0331C104.585 44.1694 105.143 45.2951 105.673 46.4348C105.787 46.6783 105.945 46.8971 106.111 47.1077C106.607 46.9084 107.092 46.6796 107.554 46.4072C107.013 45.1478 106.369 43.9347 105.792 42.692C105.476 42.0578 105.132 41.4264 104.992 40.7246C104.811 40.6635 104.623 40.6138 104.458 40.5144C104.12 40.2821 103.938 39.8492 103.532 39.7125C103.163 39.5929 102.753 39.5821 102.428 39.348C101.989 39.9496 101.138 39.9657 100.636 40.4949C100.322 40.8308 100.274 41.3234 99.9964 41.6822C99.8307 41.8815 99.5601 41.9333 99.3252 42.0057L99.2846 41.9338C99.3833 41.8702 99.4825 41.8075 99.5817 41.7448C99.6222 41.2714 99.7686 40.8027 100.079 40.4351Z" fill="white"/>
<path d="M118.956 31.4955C119.183 31.1303 119.47 30.794 119.83 30.5538C120.543 30.095 121.362 29.7428 122.226 29.7726C122.199 29.9209 122.172 30.0693 122.145 30.2173C121.42 30.1627 120.827 30.6405 120.188 30.8971C119.897 31.0031 119.714 31.2567 119.483 31.4446C119.312 31.4943 119.132 31.4856 118.956 31.4955Z" fill="white"/>
<path d="M92.0433 45.6955C92.3842 45.6367 92.7263 45.5823 93.0665 45.5179L93.1198 45.521C93.6346 45.5795 94.156 45.575 94.6667 45.6662C95.3988 45.7912 96.0226 46.2987 96.4199 46.9084C96.7222 47.4653 97.0384 48.0325 97.1729 48.6565C97.0067 48.6171 96.84 48.577 96.6742 48.5365C96.4113 47.8919 96.0572 47.2812 95.8814 46.6026C95.4099 46.6278 95.071 46.2467 94.6363 46.1358C93.8067 45.9056 92.9389 46.0461 92.093 46.0567C92.0759 45.9366 92.0596 45.816 92.0433 45.6955Z" fill="white"/>
<path d="M91.5723 51.488C91.7104 51.4772 91.8482 51.4616 91.9863 51.4487C92.7413 51.4581 93.3849 51.0175 94.0328 50.6913C93.8114 51.0847 93.3884 51.2726 92.9805 51.4134C92.9694 51.5163 92.9615 51.6197 92.9347 51.7212C92.8396 51.7799 92.7356 51.8221 92.6342 51.868C92.603 51.7556 92.5717 51.6433 92.5409 51.5318C92.3735 51.6553 92.2115 51.7921 92.019 51.8759C91.7806 51.8913 91.6225 51.7017 91.5723 51.488Z" fill="white"/>
<path d="M107.961 36.5384C108.784 35.8618 109.751 35.4011 110.731 34.9995C111.174 34.8146 111.663 34.8137 112.134 34.8535C112.133 34.9537 112.132 35.0535 112.132 35.1542C112.384 35.2425 112.642 35.3176 112.903 35.3799C112.983 35.2985 113.063 35.2178 113.145 35.1368C113.408 35.2914 113.66 35.4707 113.872 35.6931C114.05 36.0314 114.144 36.4041 114.222 36.7765C114.32 37.2387 114.573 37.6434 114.783 38.0607C115.313 39.099 115.793 40.1618 116.319 41.2008C116.475 41.501 116.578 41.8254 116.639 42.1575C116.826 42.0732 117.014 41.9917 117.204 41.913C116.538 42.3874 115.767 42.6902 115.015 42.998C114.89 42.7424 114.764 42.4867 114.638 42.2323C114.437 42.2871 114.208 42.3038 114.049 42.4503C113.811 42.6962 113.708 43.0428 113.461 43.281C113.289 43.4337 113.09 43.5515 112.901 43.6803C113.192 43.8149 113.516 43.8228 113.791 43.6395C113.146 44.2561 112.321 44.6804 111.429 44.7858C110.959 44.734 110.462 44.7902 110.02 44.586C109.413 44.3194 108.907 43.818 108.644 43.2082C108.252 42.4563 108.322 41.5029 108.785 40.799C109.256 40.0784 109.961 39.5614 110.665 39.088C111.216 38.6044 111.991 38.4809 112.52 37.966C112.279 37.5467 111.924 37.0688 111.39 37.0626C110.893 36.9936 110.456 37.2864 110.028 37.4871C109.486 37.7411 109.025 38.218 108.871 38.8041C108.821 38.9 108.769 38.9947 108.718 39.089C108.154 38.9055 107.606 38.681 107.064 38.4458C106.964 38.4054 106.816 38.3062 106.873 38.1815C107.115 37.5663 107.504 37.0126 107.961 36.5384ZM111.594 40.4288C111.163 40.7766 110.633 41.3307 110.919 41.9276C111.048 42.4155 111.602 42.5855 112.046 42.5018C112.413 42.3591 112.768 42.1866 113.105 41.9826C113.73 41.3537 113.816 40.2674 113.249 39.5731C113.03 39.5871 112.846 39.7336 112.648 39.817C112.292 40.0107 111.887 40.1379 111.594 40.4288Z" fill="white"/>
<path d="M149.071 16.7187C149.595 16.1525 150.345 15.8935 151.017 15.5496C151.528 15.2856 152.088 15.1469 152.649 15.032C152.929 15.0433 153.208 15.081 153.483 15.1395C154.236 15.4681 154.87 16.0259 155.311 16.7188C155.953 17.4543 156.26 18.3943 156.705 19.2489C157.145 20.2081 157.662 21.1343 158.044 22.1199C157.622 21.5211 157.364 20.8333 157.037 20.1837C156.641 19.3759 156.259 18.5628 155.87 17.7523C155.788 17.5558 155.642 17.4025 155.456 17.3019C155.512 17.9007 155.877 18.3996 156.11 18.9383C156.639 20.0877 157.268 21.1928 157.704 22.3833C157.141 22.6622 156.58 22.9436 156.002 23.1874C155.849 22.9109 155.689 22.6387 155.511 22.3779C155.296 22.6082 154.992 22.872 155.144 23.2207C155.154 23.3812 155.014 23.5095 154.931 23.635C154.119 24.6723 152.734 25.2236 151.432 25.0539C151.463 24.9184 151.496 24.7821 151.529 24.6459C151.209 24.5141 150.895 24.372 150.586 24.2171C150.549 24.3497 150.51 24.4827 150.473 24.6153C150.232 24.0973 150.262 23.4878 149.922 23.0105C149.822 22.7484 149.531 22.7093 149.299 22.6353C149.307 22.4911 149.32 22.3465 149.337 22.2028C149.441 22.2412 149.547 22.2788 149.653 22.3172C149.722 21.8439 149.958 21.4238 150.238 21.0437C150.161 20.9468 150.083 20.849 150.006 20.7516C150.222 20.5073 150.451 20.2753 150.691 20.053C151.015 19.7469 151.482 19.6142 151.727 19.2227L151.777 19.1637C152.335 18.9324 152.869 18.649 153.411 18.3802C153.301 18.1432 153.217 17.8882 153.057 17.6789C152.725 17.4724 152.331 17.3271 151.936 17.3342C151.513 17.4564 151.125 17.6765 150.734 17.8749C150.334 18.0757 150.087 18.4671 149.855 18.8318C149.283 18.8508 148.733 18.6379 148.163 18.6741C148.256 18.4124 148.344 18.149 148.434 17.8873C148.341 17.8358 148.248 17.7839 148.156 17.7328C148.238 17.6097 148.323 17.487 148.409 17.3652C148.634 17.1559 148.854 16.9394 149.071 16.7187ZM152.262 20.2607C152.379 20.3346 152.496 20.4085 152.615 20.4824C152.314 20.7439 151.962 20.9982 151.829 21.3917C151.749 21.6066 151.681 21.8286 151.656 22.0572C151.699 22.2796 151.814 22.489 151.945 22.6714C152.439 22.9901 153.031 22.8596 153.549 22.6886C154.08 22.3415 154.583 21.8351 154.634 21.1677C154.625 20.6543 154.528 20.132 154.246 19.6936C154.211 19.7095 154.14 19.7394 154.106 19.7549C154.048 19.6358 153.99 19.5163 153.935 19.3964C153.674 19.4395 153.423 19.5237 153.19 19.645C152.859 19.8134 152.484 19.9455 152.262 20.2607Z" fill="white"/>
<path d="M115.529 32.8506C116.309 32.4886 117.082 32.11 117.854 31.7303C117.976 31.9638 118.069 32.211 118.152 32.4616C118.023 32.3006 117.894 32.1419 117.768 31.9796C117.735 31.9856 117.668 31.997 117.634 32.0022C117.664 32.1105 117.693 32.218 117.723 32.3259C117.263 32.6103 116.764 32.8228 116.284 33.0693C116.439 33.5187 116.617 33.9595 116.826 34.3872C118.114 37.051 119.396 39.7187 120.683 42.3828C120.968 42.9588 121.211 43.5554 121.532 44.1135C122.067 43.9123 122.581 43.6607 123.074 43.3723C122.507 42.0997 121.857 40.8656 121.275 39.6004C121.172 39.4108 121.163 39.1966 121.196 38.9893C121.664 39.4934 121.863 40.1679 122.178 40.7664C122.599 41.6824 123.096 42.5634 123.456 43.5066C122.794 43.8812 122.11 44.2161 121.404 44.4966C121.061 43.9085 120.794 43.2819 120.492 42.674C119.298 40.1968 118.104 37.7205 116.91 35.2434C116.544 34.4686 116.15 33.7069 115.825 32.9142C115.774 32.9031 115.67 32.8823 115.619 32.8711L115.529 32.8506Z" fill="white"/>
<path d="M116.339 34.6229C116.066 34.0342 115.657 33.4994 115.529 32.8507L115.618 32.8712C117.555 36.7899 119.401 40.755 121.339 44.6741C122.115 44.3301 122.88 43.9611 123.633 43.5694C123.142 42.4724 122.593 41.4025 122.081 40.3156C121.835 39.7979 121.537 39.2975 121.398 38.7365C121.728 38.7277 122.04 38.8364 122.325 38.9934C122.079 38.9529 121.831 38.9313 121.582 38.9268C122.251 40.5233 123.093 42.043 123.792 43.6271C123.204 43.9546 122.584 44.2223 121.984 44.5263C121.761 44.6342 121.538 44.7552 121.293 44.8058C120.971 44.4675 120.86 43.9983 120.658 43.59C119.221 40.6 117.776 37.6128 116.339 34.6229Z" fill="white"/>
<path d="M126.318 29.5123C126.123 28.9898 125.912 28.4249 125.982 27.8617C126.057 28.1748 126.132 28.4898 126.247 28.7919C126.412 29.4519 126.603 30.12 126.981 30.6933C127.345 31.2576 127.747 31.7963 128.172 32.3162C127.929 32.2557 127.785 32.0455 127.632 31.8677C127.024 31.1891 126.72 30.3145 126.318 29.5123Z" fill="white"/>
<path d="M159.018 11.9384C159.609 11.6294 160.21 11.3342 160.825 11.0733C161.129 11.6403 161.409 12.2214 161.666 12.811C161.078 13.1453 160.45 13.4001 159.855 13.7195C160.406 15.0127 161.056 16.2612 161.667 17.5261C161.579 17.6054 161.492 17.6843 161.405 17.7629C161.214 17.6141 161.048 17.4325 160.952 17.2069C160.553 16.3682 160.16 15.5272 159.741 14.6983C159.636 14.4673 159.482 14.2149 159.574 13.9528C159.649 13.6964 159.713 13.413 159.896 13.2084C160.262 12.9811 160.682 12.8501 161.03 12.588C160.899 12.299 160.754 12.0154 160.595 11.7404C160.154 11.9361 159.721 12.1668 159.242 12.2545C159.167 12.1491 159.093 12.0438 159.018 11.9384Z" fill="white"/>
<path d="M147.67 18.5262C147.823 18.2573 147.982 17.9906 148.155 17.7328C148.248 17.7839 148.34 17.8358 148.434 17.8872C148.343 18.149 148.255 18.4124 148.162 18.6741C148.733 18.6379 149.282 18.8508 149.855 18.8318C149.756 18.988 149.654 19.1405 149.551 19.2926C149.265 19.2054 148.98 19.1211 148.692 19.0387C148.341 18.8916 147.96 18.7874 147.67 18.5262Z" fill="white"/>
<path d="M152.262 20.2606C152.484 19.9454 152.859 19.8133 153.19 19.6449C153.423 19.5236 153.674 19.4394 153.935 19.3963C153.99 19.5162 154.048 19.6357 154.106 19.7549C153.6 19.9797 153.1 20.217 152.615 20.4823C152.496 20.4084 152.379 20.3345 152.262 20.2606Z" fill="white"/>
<path d="M150.056 24.3712C149.807 23.7913 149.446 23.2548 149.299 22.6351C149.531 22.709 149.822 22.7481 149.922 23.0103C150.262 23.4876 150.232 24.0971 150.473 24.6151C150.511 24.4825 150.549 24.3495 150.587 24.2169C150.895 24.3718 151.21 24.5139 151.529 24.6456C151.496 24.7819 151.463 24.9182 151.432 25.0537C150.917 24.9596 150.443 24.7229 150.056 24.3712Z" fill="white"/>
<path d="M112.134 34.8535C112.354 34.8772 112.572 34.9092 112.788 34.9512C112.909 35.0075 113.028 35.0706 113.145 35.1369C113.063 35.2179 112.983 35.2985 112.902 35.38C112.642 35.3176 112.384 35.2425 112.132 35.1542C112.132 35.0536 112.133 34.9538 112.134 34.8535Z" fill="white"/>
<path d="M153.483 15.1401C153.634 15.168 153.788 15.1895 153.941 15.2194C154.017 15.2401 154.088 15.2745 154.155 15.3211C155.005 15.9811 155.692 16.8525 156.142 17.8298C156.832 19.2959 157.573 20.7391 158.235 22.2184C157.494 22.6604 156.691 22.9887 155.916 23.3652C155.783 23.1155 155.662 22.8603 155.543 22.6043C155.364 22.7774 155.272 23.0126 155.145 23.2213C154.993 22.8726 155.296 22.6088 155.512 22.3785C155.689 22.6393 155.849 22.9115 156.003 23.1881C156.581 22.9442 157.142 22.6629 157.704 22.3839C157.829 22.3216 157.955 22.2588 158.083 22.1961L158.044 22.1206C157.663 21.135 157.145 20.2087 156.705 19.2496C156.26 18.395 155.954 17.455 155.311 16.7194C154.87 16.0265 154.237 15.4687 153.483 15.1401Z" fill="white"/>
<path d="M90.366 45.8489C90.7323 45.8386 91.0969 45.8022 91.4623 45.7714C91.2629 45.9133 91.0855 46.0944 90.8571 46.1905C90.6798 46.2252 90.4981 46.2013 90.3185 46.1943C90.3346 46.079 90.3499 45.9642 90.366 45.8489Z" fill="white"/>
<path d="M113.871 35.6938C114.201 36.0619 114.564 36.4157 114.768 36.8746C115.591 38.5491 116.395 40.2318 117.203 41.9137C117.013 41.9924 116.825 42.0739 116.638 42.1582C116.577 41.8261 116.474 41.5017 116.318 41.2015C115.791 40.1625 115.312 39.0997 114.782 38.0614C114.572 37.6441 114.319 37.2394 114.221 36.7772C114.143 36.4048 114.049 36.0321 113.871 35.6938Z" fill="white"/>
<path d="M154.154 15.3204C154.288 15.3323 154.425 15.36 154.525 15.4589C154.944 15.8163 155.354 16.204 155.635 16.6837C155.861 17.0723 156.17 17.408 156.359 17.8186C156.897 18.9536 157.446 20.0844 157.993 21.2156C158.132 21.5224 158.322 21.8123 158.4 22.143C158.311 22.4726 157.905 22.5445 157.647 22.7019C157.053 22.9395 156.518 23.3436 155.878 23.4518C156.637 22.9948 157.457 22.6502 158.259 22.2793L158.235 22.2176C157.572 20.7383 156.831 19.2951 156.141 17.8291C155.691 16.8517 155.005 15.9804 154.154 15.3204Z" fill="white"/>
<path d="M91.5384 45.7608C91.6822 45.7432 91.8264 45.7285 91.9707 45.7097C91.909 45.8668 91.853 46.0272 91.7969 46.1856C91.661 46.1596 91.5258 46.1331 91.3903 46.1059C91.4392 45.9907 91.4886 45.8763 91.5384 45.7608Z" fill="white"/>
<path d="M93.1194 45.5217C93.4062 45.4083 93.7178 45.3507 94.0259 45.3993C94.8666 45.5226 95.7558 45.7897 96.3198 46.4664C96.652 46.9244 96.9653 47.4073 97.1226 47.9566C97.7177 49.1935 97.3765 50.7116 96.5544 51.7607C96.2108 52.1752 95.8545 52.6027 95.3801 52.8741C94.6895 53.2667 93.9735 53.6107 93.2354 53.9028C92.692 54.101 92.1062 54.1514 91.5344 54.2041C90.8025 54.1786 90.0459 54.1492 89.3602 53.8665C89.1923 53.6937 89.3302 53.4222 89.3868 53.2237C89.6572 52.5559 89.7986 51.8458 90.059 51.1759C90.1221 50.9972 90.3508 50.9945 90.4965 51.0636C90.8541 51.2087 91.2376 51.2568 91.613 51.3336C91.738 51.3699 91.8617 51.4118 91.9863 51.4493C91.8481 51.4621 91.7104 51.4778 91.5723 51.4886C91.3124 51.4864 91.0579 51.427 90.8108 51.35C90.6435 51.2983 90.4783 51.1848 90.296 51.2279C90.0668 51.5742 89.9902 51.9913 89.8475 52.3766C89.7238 52.7706 89.5319 53.1468 89.4794 53.5603C89.4716 53.7402 89.6577 53.7878 89.7917 53.8427C90.1814 53.9823 90.5983 54.0193 91.0092 54.0332C91.2663 54.0257 91.5236 54.0062 91.7821 53.9931C92.0982 53.9881 92.4151 53.9478 92.7119 53.8326C92.7482 53.8211 92.8195 53.7977 92.8554 53.7854C93.5172 53.7501 94.0731 53.3547 94.6639 53.0979C95.2652 52.8359 95.7502 52.3802 96.1973 51.9119C96.2422 51.8624 96.3314 51.7647 96.3766 51.716C96.8822 51.113 97.1982 50.3437 97.2089 49.5522C97.2232 49.2537 97.2055 48.9547 97.1726 48.6571C97.0381 48.0332 96.7219 47.466 96.4196 46.909C96.0222 46.2993 95.3984 45.7918 94.6664 45.6668C94.1556 45.5756 93.6343 45.5801 93.1194 45.5217Z" fill="white"/>
<path d="M108.871 38.8035C109.025 38.2175 109.486 37.7406 110.028 37.4866C110.456 37.2859 110.893 36.9931 111.39 37.0621C111.924 37.0682 112.279 37.5462 112.52 37.9655C112.469 37.988 112.368 38.0307 112.317 38.0524C112.293 38.0131 112.244 37.9342 112.22 37.895C111.995 37.4711 111.503 37.1515 111.013 37.2763C110.369 37.3199 109.85 37.7455 109.426 38.1964C109.234 38.4206 109.099 38.6925 108.873 38.8882L108.871 38.8035Z" fill="white"/>
<path d="M149.855 18.8313C150.087 18.4666 150.333 18.0752 150.733 17.8745C151.124 17.676 151.513 17.4559 151.936 17.3337C152.33 17.3266 152.725 17.4719 153.056 17.6785C153.217 17.8877 153.301 18.1428 153.41 18.3797C152.869 18.6486 152.335 18.9319 151.776 19.1632L151.669 19.1921C152.086 18.7543 152.693 18.5802 153.215 18.2999C153.079 17.9302 152.789 17.6032 152.386 17.5368C151.766 17.4953 151.118 17.6968 150.676 18.1459C150.308 18.4506 150.058 18.8588 149.826 19.2692C149.597 19.6713 149.066 19.3857 148.81 19.1638C148.781 19.1321 148.722 19.0699 148.693 19.0382C148.98 19.1206 149.266 19.2049 149.551 19.2921C149.654 19.14 149.756 18.9875 149.855 18.8313Z" fill="white"/>
<path d="M120.243 32.8282C120.58 32.6069 120.952 32.4327 121.332 32.2934C121.962 32.2372 122.633 32.4294 123.131 32.8236C123.5 33.1562 123.689 33.6305 123.897 34.0707C124.044 34.372 124.119 34.7031 124.133 35.0377C124.128 35.4603 123.964 35.8718 123.744 36.2267C123.506 36.5083 123.219 36.7484 122.908 36.9439C122.468 37.1064 121.981 37.1699 121.517 37.0757C121.389 37.0482 121.263 37.0083 121.144 36.954C120.827 36.8054 120.547 36.594 120.252 36.4089C119.968 35.9645 119.74 35.48 119.558 34.9857C119.548 34.607 119.56 34.2202 119.661 33.8519C119.766 33.4661 120.027 33.1559 120.243 32.8282ZM120.418 32.9286C119.611 33.7546 119.522 35.2009 120.288 36.0806C120.625 36.436 121.001 36.8188 121.505 36.9063C121.853 36.9707 122.235 37.0525 122.564 36.8728C122.941 36.6914 123.383 36.541 123.609 36.1621C123.896 35.6887 124.01 35.1109 123.883 34.5689C123.786 33.8124 123.301 33.1614 122.695 32.7251C122.387 32.5101 121.999 32.4944 121.637 32.4735C121.188 32.4393 120.777 32.6872 120.418 32.9286Z" fill="white"/>
<path d="M157.371 14.8979C157.558 14.8754 157.758 14.8599 157.937 14.9338C158.09 15.0957 158.179 15.3059 158.28 15.503C158.707 16.4259 159.154 17.3391 159.601 18.2523C159.853 18.7099 159.712 19.2913 160.086 19.6997C160.102 19.5195 160.117 19.3381 160.132 19.1567C160.423 19.4344 160.68 19.7962 161.089 19.9048C161.301 19.962 161.523 20.0322 161.745 19.9985C162.048 19.9123 162.331 19.7672 162.628 19.6605C162.601 19.794 162.576 19.9268 162.551 20.06C163.034 19.9788 163.46 19.7307 163.836 19.4258C163.724 19.3801 163.614 19.3336 163.505 19.2879C163.663 19.1478 163.832 19.0147 163.958 18.8425C163.929 18.5542 163.761 18.3075 163.63 18.057C163.323 18.1456 163.01 18.2164 162.692 18.2503C162.88 17.9944 163.112 17.7744 163.372 17.5921C163.502 17.5146 163.632 17.4359 163.763 17.356C164.074 17.9279 164.362 18.5123 164.607 19.1158C164.26 19.3229 163.937 19.5624 163.604 19.7894C163.131 20.1177 162.556 20.2241 162.01 20.3665C161.307 20.5223 160.63 20.1788 160.048 19.8223C159.796 19.4469 159.475 19.119 159.277 18.7087C158.975 18.09 158.685 17.4654 158.382 16.8471C158.045 16.1974 157.8 15.4965 157.371 14.8979Z" fill="white"/>
<path d="M155.455 17.3017C155.641 17.4023 155.787 17.5556 155.869 17.7521C156.259 18.5626 156.641 19.3757 157.036 20.1835C157.363 20.8331 157.621 21.5209 158.043 22.1197L158.082 22.1953C157.954 22.258 157.828 22.3207 157.703 22.3831C157.268 21.1926 156.639 20.0875 156.109 18.9381C155.877 18.3994 155.512 17.9005 155.455 17.3017Z" fill="white"/>
<path d="M141.779 22.5832C142.145 22.0945 142.878 21.9411 143.419 22.2116C143.71 22.3823 143.998 22.5946 144.152 22.9036C144.966 24.5407 145.716 26.2094 146.554 27.834C147.363 27.464 148.151 27.0476 148.966 26.6925C149.008 26.675 149.093 26.6394 149.134 26.6215C148.276 27.1135 147.373 27.5239 146.473 27.9307C145.934 26.9416 145.486 25.9065 144.984 24.8983C144.629 24.1937 144.328 23.4487 143.841 22.8217C143.603 22.4894 143.217 22.2881 142.821 22.2206C142.444 22.1614 142.085 22.3611 141.892 22.6803C141.736 22.9335 141.571 23.1989 141.532 23.4975C141.506 24.0185 141.66 24.5336 141.893 24.9945C142.511 26.2582 143.111 27.5297 143.732 28.7923C143.793 28.9311 143.872 29.069 143.886 29.2244C143.48 29.486 143.02 29.6517 142.593 29.8737C142.175 30.0593 141.78 30.2994 141.351 30.4572C141.324 30.4423 141.27 30.4135 141.243 30.3987L141.316 30.3528C142.05 29.9155 142.89 29.6695 143.59 29.176C143.611 29.1502 143.651 29.0999 143.671 29.0741C142.946 27.5061 142.158 25.9656 141.437 24.3944C141.392 24.0545 141.343 23.7141 141.346 23.3701C141.472 23.0993 141.597 22.8232 141.779 22.5832Z" fill="white"/>
<path d="M141.891 22.6794C142.085 22.3602 142.443 22.1605 142.82 22.2197C142.514 22.3792 142.203 22.5319 141.891 22.6794Z" fill="white"/>
<path d="M110.999 38.7013C111.269 38.2677 111.799 38.1347 112.22 37.895C112.244 37.9342 112.293 38.0131 112.317 38.0524C111.872 38.2568 111.443 38.4952 110.999 38.7013Z" fill="white"/>
<path d="M109.796 39.4803C110.141 39.1409 110.573 38.9178 110.999 38.7014C111.443 38.4954 111.872 38.257 112.317 38.0525C112.368 38.0308 112.469 37.9881 112.52 37.9656C111.99 38.4804 111.216 38.6039 110.665 39.0876C109.961 39.5609 109.256 40.078 108.785 40.7986C108.322 41.5025 108.252 42.4558 108.644 43.2078C108.907 43.8175 109.413 44.3189 110.02 44.5856C110.462 44.7897 110.958 44.7336 111.429 44.7853C111.306 44.8549 111.182 44.9482 111.033 44.9287C110.149 44.9307 109.244 44.5118 108.763 43.7545C108.417 43.1768 108.099 42.5057 108.248 41.8158C108.369 40.8399 109.089 40.0968 109.796 39.4803Z" fill="white"/>
<path d="M123.131 32.8233C123.319 32.7844 123.508 32.7382 123.701 32.7334C123.913 32.8463 123.913 33.1042 123.938 33.3119C123.866 33.3485 123.795 33.3852 123.723 33.4226C123.818 33.5988 123.912 33.7766 124.004 33.9552C124.109 33.9375 124.214 33.9194 124.321 33.9009C124.416 34.0739 124.548 34.2543 124.513 34.4643C124.446 34.5543 124.348 34.6135 124.261 34.6812C124.374 34.7771 124.532 34.8511 124.549 35.017C124.448 35.1831 124.274 35.0631 124.133 35.0374C124.119 34.7028 124.044 34.3717 123.897 34.0704C123.689 33.6302 123.5 33.1559 123.131 32.8233Z" fill="white"/>
<path d="M91.4899 48.4018C91.7645 48.2198 91.9936 47.964 92.2967 47.8269C92.6292 47.7692 92.9639 47.8627 93.2915 47.9167C93.2475 48.0464 93.2031 48.1753 93.1591 48.305C92.6212 48.2627 92.0806 48.3222 91.5478 48.3939L91.4899 48.4018Z" fill="white"/>
<path d="M119.656 36.4138C119.537 36.2204 119.693 36.0867 119.847 35.9915C119.939 36.1561 120.031 36.3218 120.122 36.4888C120.154 36.4684 120.22 36.428 120.252 36.4084C120.547 36.5936 120.827 36.805 121.145 36.9535C120.95 37.0494 120.725 37.2037 120.507 37.0798C120.196 36.9001 119.886 36.6902 119.656 36.4138Z" fill="white"/>
<path d="M143.841 22.8216C144.328 23.4487 144.628 24.1937 144.984 24.8982C145.486 25.9064 145.934 26.9415 146.473 27.9306C147.373 27.5238 148.276 27.1135 149.134 26.6215L149.22 26.583C149.125 26.8527 148.814 26.912 148.592 27.0407C147.865 27.3581 147.181 27.7745 146.431 28.0366C145.953 27.5048 145.754 26.8001 145.42 26.1809C144.907 25.0547 144.288 23.9758 143.841 22.8216Z" fill="white"/>
<path d="M103.134 42.5119C103.281 42.6896 103.428 42.8698 103.533 43.0767C104.256 44.5597 104.942 46.0622 105.697 47.53C105.659 47.5479 105.584 47.5833 105.546 47.6004L105.493 47.6249C104.852 46.2389 104.172 44.8708 103.514 43.4922C103.397 43.2271 103.222 42.9819 103.161 42.6955C103.154 42.6501 103.141 42.5581 103.134 42.5119Z" fill="white"/>
<path d="M150.43 20.0691C150.809 19.7173 151.219 19.3671 151.727 19.2221C151.482 19.6136 151.015 19.7463 150.692 20.0524C150.451 20.2747 150.222 20.5068 150.006 20.751C149.649 21.1573 149.402 21.6622 149.337 22.2022C149.32 22.3459 149.307 22.4905 149.299 22.6347C149.446 23.2544 149.807 23.791 150.056 24.3708L150.017 24.325C149.597 23.8537 149.361 23.2568 149.17 22.6637C149.091 22.2768 149.242 21.8956 149.365 21.5357C149.565 20.9527 150.004 20.4964 150.43 20.0691Z" fill="white"/>
<path d="M91.3466 48.5396C91.3964 48.5026 91.4969 48.4303 91.5472 48.3941C92.08 48.3225 92.6206 48.263 93.1585 48.3053C93.3892 48.3523 93.616 48.4202 93.8366 48.502C94.2208 48.7995 94.4383 49.2839 94.4546 49.7657C94.358 50.0919 94.2295 50.4117 94.0329 50.6915C93.385 51.0177 92.7414 51.4583 91.9864 51.449C91.8618 51.4115 91.7381 51.3696 91.6131 51.3333C92.2164 51.2137 92.8713 51.2364 93.4073 50.8905C93.8883 50.598 94.3686 50.0849 94.2487 49.4748C94.2304 48.8546 93.5766 48.481 93.0151 48.462C92.4545 48.4017 91.9041 48.6102 91.3466 48.5396Z" fill="white"/>
<path d="M141.541 24.9569C141.436 24.7865 141.418 24.589 141.437 24.394C142.158 25.9652 142.945 27.5056 143.671 29.0737C143.651 29.0995 143.611 29.1498 143.59 29.1756C142.897 27.774 142.24 26.3545 141.541 24.9569Z" fill="white"/>
<path d="M151.829 21.3921C151.962 20.9986 152.314 20.7443 152.615 20.4828C153.099 20.2175 153.6 19.9802 154.106 19.7554C154.14 19.7398 154.21 19.71 154.245 19.694C154.527 20.1324 154.625 20.6547 154.633 21.1681C154.583 21.8355 154.079 22.3419 153.549 22.6891C153.031 22.86 152.438 22.9905 151.945 22.6718C151.813 22.4894 151.699 22.28 151.656 22.0576C151.68 21.829 151.748 21.607 151.829 21.3921ZM152.244 21.024C151.946 21.2927 151.735 21.7536 151.941 22.1384C152.037 22.3499 152.149 22.6234 152.415 22.6553C153.154 22.7956 153.916 22.3447 154.275 21.7063C154.562 21.1519 154.447 20.4629 154.075 19.9763C153.427 20.2544 152.794 20.5824 152.244 21.024Z" fill="white"/>
<path d="M136.293 29.3198C136.44 29.0548 136.419 28.6339 136.791 28.5739C137.017 28.5904 137.222 28.7097 137.438 28.775C138.023 28.9972 138.653 29.0958 139.222 29.3611C139.407 29.5675 139.207 29.8261 139.137 30.0412C138.899 30.4801 138.731 30.97 138.378 31.3334C138.033 31.6741 137.737 32.0692 137.332 32.3424C137.203 32.2579 137.075 32.1723 136.948 32.0862C137.171 31.8015 137.541 31.7897 137.87 31.7475C137.781 31.6769 137.694 31.6066 137.608 31.5356C138.054 31.0825 138.413 30.5323 138.631 29.9336C138.736 29.6592 138.391 29.5596 138.203 29.475C137.783 29.3358 137.372 29.1321 136.926 29.104C136.634 29.2678 136.677 29.6778 136.506 29.9368C136.172 30.4529 135.708 30.8936 135.155 31.1679C134.766 31.3716 134.362 31.575 133.916 31.6087C134.368 31.0037 135.172 30.8782 135.8 30.5268C135.216 30.6487 134.73 31.0118 134.183 31.2276C134.016 31.3049 133.829 31.2846 133.651 31.2768C133.728 31.2418 133.88 31.1714 133.956 31.1357C134.394 30.9535 134.829 30.759 135.244 30.528C135.652 30.1859 136.038 29.7929 136.293 29.3198Z" fill="white"/>
<path d="M149.465 23.8245C149.277 23.4705 149.095 23.0757 149.17 22.6641C149.36 23.2572 149.596 23.8541 150.016 24.3254C149.741 24.2997 149.593 24.0369 149.465 23.8245Z" fill="white"/>
<path d="M89.8486 52.3762C89.9914 51.9909 90.068 51.5737 90.2972 51.2274C90.4795 51.1843 90.6446 51.2978 90.8119 51.3496C90.6645 51.337 90.5166 51.3316 90.3688 51.3243C90.4191 51.4224 90.4694 51.5206 90.5201 51.6196C90.3286 52.1289 90.0529 52.6141 89.964 53.1566C89.912 53.4534 90.1898 53.6539 90.3458 53.8683C90.446 53.7892 90.545 53.7096 90.6448 53.6297C90.6746 53.6501 90.7338 53.6923 90.7639 53.7136C90.7526 53.7788 90.7416 53.8448 90.731 53.9096C90.8879 53.8221 91.0447 53.7345 91.2024 53.6466C91.138 53.7752 91.0747 53.9042 91.0103 54.0328C90.5995 54.0188 90.1826 53.9818 89.7928 53.8422C89.6589 53.7874 89.4727 53.7397 89.4805 53.5598C89.5331 53.1463 89.725 52.7702 89.8486 52.3762Z" fill="white"/>
<path d="M134.57 33.5874C134.662 33.4356 134.763 33.2786 134.933 33.2053C135.674 32.8423 136.411 32.3658 137.268 32.3915C137.153 32.4901 137.042 32.5951 136.917 32.6811C136.07 32.81 135.419 33.463 134.57 33.5874Z" fill="white"/>
<path d="M121.518 37.0757C121.981 37.1698 122.468 37.1063 122.908 36.9439C123.219 36.7483 123.506 36.5083 123.744 36.2266C123.858 36.2471 123.974 36.2668 124.091 36.287C123.997 36.5274 123.911 36.7888 123.713 36.9652C123.47 37.0246 123.209 36.9879 122.975 37.0808C122.734 37.2237 122.593 37.4907 122.347 37.6214C122.005 37.7135 121.68 37.5227 121.392 37.365C121.433 37.2685 121.475 37.1717 121.518 37.0757Z" fill="white"/>
<path d="M129.792 33.3298C129.856 33.2401 129.921 33.1492 129.987 33.0587C130.42 33.2074 130.845 33.3876 131.298 33.466C131.574 33.5161 131.846 33.5838 132.114 33.6699C132.118 33.7822 132.122 33.8946 132.127 34.0069C131.3 34.0042 130.523 33.6829 129.792 33.3298Z" fill="white"/>
<path d="M114.048 42.4498C114.208 42.3034 114.437 42.2866 114.637 42.2318C114.579 42.2747 114.462 42.362 114.404 42.4061C114.397 42.4529 114.384 42.5469 114.378 42.5938C114.332 43.0057 114.029 43.3221 113.79 43.6391C113.516 43.8223 113.191 43.8144 112.9 43.6799C113.089 43.5511 113.288 43.4333 113.46 43.2806C113.707 43.0424 113.811 42.6958 114.048 42.4498Z" fill="white"/>
<path d="M132.127 34.0073C132.265 33.8742 132.382 33.6814 132.589 33.6531C132.911 33.5953 133.238 33.5535 133.565 33.525C133.923 33.4981 134.253 33.6653 134.57 33.8082C133.862 34.0177 133.13 34.068 132.401 34.1376C132.375 34.1373 132.324 34.1373 132.297 34.1373C132.254 34.105 132.17 34.0404 132.127 34.0073Z" fill="white"/>
<path d="M91.7823 53.9922C92.0391 53.6763 92.3556 53.3954 92.7697 53.3212C92.7512 53.4914 92.7319 53.6619 92.7122 53.8317C92.4154 53.9469 92.0984 53.9872 91.7823 53.9922Z" fill="white"/>
<path d="M132.401 34.1372C133.13 34.0676 133.862 34.0173 134.57 33.8078C134.992 33.6876 135.38 33.4711 135.777 33.2848C136.161 33.0935 136.562 32.9281 136.917 32.6814C137.042 32.5954 137.152 32.4903 137.268 32.3918L137.332 32.343C137.738 32.0698 138.033 31.6746 138.379 31.334C138.416 31.3358 138.492 31.3381 138.53 31.3398C138.055 32.0094 137.464 32.6196 136.73 32.9995C136.043 33.3636 135.347 33.7209 134.612 33.9813C134.109 34.164 133.573 34.2027 133.044 34.2496C132.825 34.2617 132.572 34.3149 132.401 34.1372Z" fill="white"/>
<path d="M125.663 37.9099L125.693 37.8905C125.684 37.8991 125.664 37.9155 125.654 37.9241L125.663 37.9099Z" fill="white"/>
<path d="M123.567 38.9654C123.672 38.8907 123.773 38.8966 123.871 38.983C123.759 39.0548 123.657 39.0481 123.567 38.9654Z" fill="white"/>
<path d="M125.26 38.2967C125.257 38.1631 125.322 38.0859 125.456 38.0642C125.444 38.1863 125.379 38.2635 125.26 38.2967Z" fill="white"/>
<path d="M162.129 20.4549C162.319 20.4067 162.513 20.3682 162.707 20.3294C162.52 20.4365 162.327 20.5316 162.13 20.6165C162.129 20.576 162.129 20.4946 162.129 20.4549Z" fill="white"/>
<path d="M163.948 19.7308C164.184 19.5245 164.428 19.328 164.693 19.1606C164.568 19.4735 164.25 19.6337 163.948 19.7308Z" fill="white"/>
<path d="M123.87 38.9832C124.31 38.7659 124.755 38.5554 125.197 38.3396C124.819 38.6718 124.357 38.8736 123.87 38.9832Z" fill="white"/>
<path d="M93.2363 53.9028C93.9744 53.6108 94.6904 53.2667 95.381 52.8741C95.1846 53.2534 94.7469 53.3778 94.3949 53.5664C94.0238 53.7154 93.6558 53.9843 93.2363 53.9028Z" fill="white"/>
</svg>
