<svg width="105" height="75" viewBox="0 0 105 75" fill="none" xmlns="http://www.w3.org/2000/svg">
<path d="M31.6624 24.7261L36.7628 24.6675C36.7184 26.3979 36.6666 28.1279 36.6259 29.8583C34.9248 29.8877 33.2228 29.9056 31.5218 29.9177C31.5728 28.1872 31.6168 26.4565 31.6624 24.7261Z" fill="white"/>
<path d="M17.5942 29.9446C19.2448 29.4069 21.02 29.3416 22.6874 29.6731C24.1321 29.9681 25.5147 30.6161 26.5507 31.6516C27.4033 32.4928 27.9954 33.6245 28.0696 34.8484C26.6324 35.1867 25.1948 35.5229 23.7576 35.8604C23.7059 35.3987 23.5483 34.9522 23.2863 34.5744C22.9273 34.0346 22.3313 33.6982 21.7141 33.517C20.9616 33.3085 20.1479 33.3112 19.3751 33.4882C18.8015 33.6271 18.2182 33.909 17.8721 34.4124C17.5453 34.8797 17.491 35.5314 17.7797 36.0074C17.9837 36.3446 18.3245 36.5735 18.6849 36.7234C19.12 36.908 19.5974 36.9664 20.0619 37.0546C20.9476 37.2196 21.8355 37.3767 22.7201 37.547C24.0631 37.8237 25.367 38.3704 26.3806 39.2835C27.0985 39.9193 27.6364 40.7579 27.8893 41.692C28.1702 42.7227 28.131 43.844 27.8131 44.8844C27.4495 46.0732 26.6743 47.1416 25.6598 47.8797C24.2275 48.9432 22.4547 49.4395 20.7186 49.541C18.8359 49.6529 16.9125 49.3202 15.2935 48.4005C14.4865 47.9412 13.7785 47.3205 13.2121 46.5898C12.6061 45.8048 12.222 44.8449 12.1481 43.8399L12.149 43.8061C13.6255 43.4669 15.1024 43.1306 16.5789 42.7931C16.5961 43.4769 16.8703 44.1422 17.3586 44.6092C18.039 45.2999 19.0326 45.6037 20.0034 45.6325C20.6821 45.647 21.3841 45.5808 22.0203 45.2987C22.4531 45.1078 22.8516 44.779 23.0319 44.3323C23.1999 43.9121 23.2092 43.4253 23.0265 43.022C22.8502 42.642 22.4909 42.391 22.1178 42.2223C21.5338 41.9615 20.8922 41.8576 20.27 41.7094C19.4306 41.5155 18.5867 41.3389 17.751 41.1318C16.3994 40.774 15.0698 40.1864 14.1014 39.1747C13.3548 38.4049 12.9356 37.3499 12.8782 36.2676C12.7888 34.9603 13.1545 33.602 13.9382 32.5105C14.8162 31.2659 16.172 30.4163 17.5942 29.9446Z" fill="white"/>
<path d="M50.2567 29.5314C51.7247 29.0934 53.2749 28.9973 54.7677 29.1945C56.0131 29.3607 57.2234 29.7576 58.286 30.4014C59.0262 30.854 59.7129 31.4049 60.2551 32.0827C61.0339 33.0397 61.607 34.1704 61.8887 35.3844C60.3429 35.916 58.7975 36.4484 57.2505 36.9755C57.077 36.3845 56.8323 35.8088 56.4616 35.3182C56.066 34.7862 55.5197 34.3684 54.8976 34.1259C54.2464 33.87 53.5278 33.7992 52.8223 33.8431C51.4735 33.9204 50.116 34.5735 49.2884 35.6824C48.7257 36.4149 48.3901 37.2977 48.2474 38.1923C48.1354 38.8994 48.1202 39.6191 48.2101 40.3219C48.318 41.1563 48.5964 41.9707 49.0769 42.6537C49.7971 43.697 51.0183 44.3329 52.2883 44.4642C53.322 44.5664 54.4203 44.3886 55.3333 43.8284C56.2896 43.2525 57.0103 42.3051 57.329 41.2482C58.8228 41.7305 60.3175 42.2111 61.8095 42.6983C61.346 44.2316 60.4531 45.6478 59.2527 46.7347C57.9531 47.9372 56.2898 48.7161 54.5707 49.0169C52.2676 49.4261 49.8429 49.1078 47.8289 48.0085C46.7122 47.4061 45.7369 46.5618 44.9743 45.5552C43.91 44.1734 43.2589 42.4819 43.0735 40.7274C42.8935 39.0053 43.1056 37.2203 43.7404 35.5738C44.2996 34.1243 45.1912 32.7872 46.3463 31.7269C47.4651 30.7098 48.818 29.9559 50.2567 29.5314Z" fill="white"/>
<path d="M36.623 29.8628C38.323 29.8449 40.0234 29.8238 41.7234 29.8051C41.6789 31.4477 41.6369 33.0903 41.5903 34.7325C39.8912 34.7507 38.1916 34.7711 36.492 34.791C36.5345 33.1484 36.581 31.5054 36.623 29.8628Z" fill="white"/>
<path d="M31.1615 43.4387C31.2384 40.5755 31.3165 37.7124 31.3916 34.8493C33.0916 34.8294 34.7916 34.8103 36.4916 34.7908C36.4273 37.2013 36.3622 39.6114 36.2975 42.0219C36.285 42.4131 36.2793 42.8075 36.3489 43.1912C36.4186 43.5823 36.5606 43.9791 36.8573 44.2497C37.2907 44.6379 37.8902 44.7835 38.4708 44.8036C39.4653 44.8416 40.505 44.5977 41.3417 44.0099C41.3053 45.3974 41.271 46.7844 41.2288 48.1719C40.7143 48.5882 40.096 48.8488 39.4714 49.0348C38.4839 49.3222 37.4513 49.4095 36.4396 49.349C35.4875 49.2886 34.5404 49.0716 33.7078 48.6242C33.1559 48.3243 32.6507 47.93 32.2666 47.4329C31.8219 46.8661 31.5181 46.1938 31.3464 45.4895C31.1823 44.8238 31.1364 44.1296 31.1615 43.4387Z" fill="white"/>
<path d="M88.4194 47L85.5033 42.6156L82.9339 47H78.9777L83.566 39.7199L78.8758 32.6846H82.9339L85.8092 37.0077L88.3378 32.6846H92.2939L87.7465 39.9035L92.4775 47H88.4194ZM93.759 44.2062C94.2212 43.8392 94.432 43.6692 94.3912 43.6964C95.7235 42.5952 96.7703 41.6912 97.5316 40.9843C98.3065 40.2773 98.9591 39.5364 99.4893 38.7615C100.019 37.9866 100.285 37.2321 100.285 36.4979C100.285 35.9405 100.155 35.5055 99.8971 35.1928C99.6388 34.8801 99.2514 34.7238 98.7348 34.7238C98.2181 34.7238 97.8103 34.9209 97.5112 35.3152C97.2257 35.6958 97.083 36.2396 97.083 36.9466H93.7182C93.7454 35.791 93.9901 34.8258 94.4524 34.0508C94.9282 33.2759 95.5467 32.7049 96.3081 32.3379C97.083 31.9708 97.9394 31.7873 98.8775 31.7873C100.495 31.7873 101.712 32.2019 102.528 33.0312C103.357 33.8605 103.772 34.9413 103.772 36.2736C103.772 37.7283 103.275 39.081 102.283 40.3317C101.291 41.5688 100.026 42.7788 98.49 43.9615H103.996V46.7961H93.759V44.2062Z" fill="white"/>
</svg>
