<svg width="89" height="82" viewBox="0 0 89 82" fill="none" xmlns="http://www.w3.org/2000/svg">
<path d="M3.89344 35.7483C6.74947 29.7254 12.1895 25.6453 17.3576 21.7207C16.6582 29.7448 16.5027 38.3906 21.2045 45.3462C26.5085 54.3611 36.7476 58.8881 46.87 59.7041C41.6631 66.9122 36.5338 74.198 31.4241 81.4644C24.4685 80.5512 17.2604 78.8804 11.8787 74.0814C0.668221 65.2413 -2.77065 48.3382 3.89344 35.7483Z" fill="white"/>
<path d="M17.8232 22.1306C21.573 10.9979 31.4817 1.69151 43.5859 1.14751C58.5267 0.720071 73.4868 1.12808 88.447 0.972653C88.2722 19.9935 88.7967 39.0143 88.2139 58.0157C87.359 70.2947 76.0126 79.232 64.1999 79.9897C64.0833 60.7163 64.2193 41.4429 64.1222 22.1501C48.6957 22.1889 33.2497 22.2472 17.8232 22.1306Z" fill="#1ED760"/>
</svg>
