<svg width="454" height="166" viewBox="0 0 454 166" fill="none" xmlns="http://www.w3.org/2000/svg">
<g filter="url(#filter0_d_276_47389)">
<rect x="7" width="439.78" height="145" rx="72.5" fill="#1ED760" shape-rendering="crispEdges"/>
<rect x="10.5" y="3.5" width="432.78" height="138" rx="69" stroke="white" stroke-width="7" shape-rendering="crispEdges"/>
<mask id="path-3-outside-1_276_47389" maskUnits="userSpaceOnUse" x="64.8901" y="48.5" width="323" height="59" fill="black">
<rect fill="white" x="64.8901" y="48.5" width="323" height="59"/>
<path d="M84.0727 55.4442C87.6473 55.4442 90.7711 56.1688 93.444 57.618C96.1492 59.035 98.2263 61.0316 99.6755 63.608C101.125 66.1843 101.849 69.131 101.849 72.448C101.849 75.7328 101.109 78.6633 99.6272 81.2397C98.178 83.816 96.1009 85.8448 93.3957 87.3262C90.7228 88.7754 87.6151 89.5 84.0727 89.5H70.5953V55.4442H84.0727ZM83.3481 81.1431C86.1176 81.1431 88.2914 80.3863 89.8694 78.8727C91.4474 77.3591 92.2364 75.2175 92.2364 72.448C92.2364 69.6462 91.4474 67.4885 89.8694 65.975C88.2914 64.4292 86.1176 63.6563 83.3481 63.6563H80.0633V81.1431H83.3481ZM115.585 67.1826C116.648 65.6368 117.936 64.4131 119.45 63.5114C120.963 62.6096 122.59 62.1588 124.329 62.1588V72.2547H121.672C119.611 72.2547 118.081 72.6573 117.083 73.4624C116.084 74.2675 115.585 75.6684 115.585 77.665V89.5H106.117V62.4003H115.585V67.1826ZM140.331 89.8381C137.626 89.8381 135.194 89.2746 133.036 88.1474C130.911 87.0203 129.236 85.4101 128.013 83.3168C126.789 81.2236 126.177 78.76 126.177 75.926C126.177 73.1243 126.789 70.6767 128.013 68.5835C129.269 66.4902 130.959 64.88 133.085 63.7529C135.242 62.6257 137.674 62.0622 140.379 62.0622C143.084 62.0622 145.499 62.6257 147.625 63.7529C149.783 64.88 151.473 66.4902 152.697 68.5835C153.953 70.6767 154.581 73.1243 154.581 75.926C154.581 78.7278 153.953 81.1914 152.697 83.3168C151.473 85.4101 149.783 87.0203 147.625 88.1474C145.467 89.2746 143.036 89.8381 140.331 89.8381ZM140.331 81.6261C141.651 81.6261 142.746 81.1431 143.616 80.1769C144.517 79.1786 144.968 77.7616 144.968 75.926C144.968 74.0904 144.517 72.6895 143.616 71.7234C142.746 70.7573 141.667 70.2742 140.379 70.2742C139.091 70.2742 138.012 70.7573 137.143 71.7234C136.273 72.6895 135.838 74.0904 135.838 75.926C135.838 77.7938 136.257 79.2108 137.094 80.1769C137.931 81.1431 139.01 81.6261 140.331 81.6261ZM167.901 66.1682C168.642 64.9122 169.688 63.9139 171.041 63.1732C172.393 62.4325 173.988 62.0622 175.823 62.0622C177.981 62.0622 179.929 62.6257 181.668 63.7529C183.439 64.88 184.824 66.4902 185.823 68.5835C186.853 70.6767 187.368 73.1243 187.368 75.926C187.368 78.7278 186.853 81.1914 185.823 83.3168C184.824 85.4101 183.439 87.0203 181.668 88.1474C179.929 89.2746 177.981 89.8381 175.823 89.8381C173.988 89.8381 172.393 89.4678 171.041 88.7271C169.721 87.9864 168.674 86.9881 167.901 85.7321V102.446H158.433V62.4003H167.901V66.1682ZM177.755 75.926C177.755 74.1548 177.272 72.7861 176.306 71.82C175.372 70.8217 174.213 70.3225 172.828 70.3225C171.443 70.3225 170.268 70.8217 169.302 71.82C168.368 72.8183 167.901 74.187 167.901 75.926C167.901 77.6972 168.368 79.082 169.302 80.0803C170.268 81.0786 171.443 81.5778 172.828 81.5778C174.213 81.5778 175.372 81.0786 176.306 80.0803C177.272 79.0498 177.755 77.665 177.755 75.926ZM216.501 81.4329V89.5H212.395C205.472 89.5 202.01 86.0703 202.01 79.2108V70.2742H198.676V62.4003H202.01V55.8307H211.526V62.4003H216.453V70.2742H211.526V79.3557C211.526 80.0964 211.687 80.6278 212.009 80.9498C212.363 81.2719 212.943 81.4329 213.748 81.4329H216.501ZM238.669 62.1588C241.761 62.1588 244.208 63.2054 246.011 65.2987C247.847 67.3597 248.765 70.1615 248.765 73.7039V89.5H239.297V74.9599C239.297 73.4141 238.894 72.2064 238.089 71.3369C237.284 70.4352 236.205 69.9844 234.853 69.9844C233.436 69.9844 232.325 70.4352 231.52 71.3369C230.715 72.2064 230.312 73.4141 230.312 74.9599V89.5H220.844V53.7535H230.312V66.2648C231.149 65.041 232.276 64.0588 233.693 63.3181C235.143 62.5452 236.801 62.1588 238.669 62.1588ZM279.852 75.6362C279.852 76.3769 279.804 77.1176 279.707 77.8582H261.786C261.882 79.3396 262.285 80.4507 262.993 81.1914C263.734 81.8999 264.668 82.2541 265.795 82.2541C267.373 82.2541 268.5 81.5456 269.176 80.1286H279.272C278.854 81.9965 278.033 83.6711 276.809 85.1525C275.617 86.6016 274.104 87.7449 272.268 88.5822C270.432 89.4195 268.404 89.8381 266.182 89.8381C263.509 89.8381 261.125 89.2746 259.032 88.1474C256.971 87.0203 255.345 85.4101 254.153 83.3168C252.994 81.2236 252.414 78.76 252.414 75.926C252.414 73.092 252.994 70.6445 254.153 68.5835C255.313 66.4902 256.923 64.88 258.984 63.7529C261.077 62.6257 263.476 62.0622 266.182 62.0622C268.854 62.0622 271.221 62.6096 273.282 63.7046C275.344 64.7995 276.954 66.3775 278.113 68.4386C279.272 70.4674 279.852 72.8666 279.852 75.6362ZM270.191 73.2692C270.191 72.1098 269.804 71.2081 269.032 70.564C268.259 69.8877 267.293 69.5496 266.133 69.5496C264.974 69.5496 264.024 69.8716 263.283 70.5157C262.542 71.1276 262.059 72.0454 261.834 73.2692H270.191ZM314.711 72.0132C316.707 72.4641 318.285 73.4624 319.445 75.0082C320.636 76.5218 321.232 78.2608 321.232 80.2252C321.232 83.1236 320.234 85.394 318.237 87.0364C316.24 88.6788 313.439 89.5 309.832 89.5H292.973V55.4442H309.3C312.778 55.4442 315.5 56.2171 317.464 57.7629C319.461 59.3087 320.459 61.4825 320.459 64.2842C320.459 66.2809 319.928 67.9555 318.865 69.3081C317.834 70.6284 316.45 71.5302 314.711 72.0132ZM302.441 68.9699H307.223C309.606 68.9699 310.798 67.9877 310.798 66.0233C310.798 63.9944 309.606 62.98 307.223 62.98H302.441V68.9699ZM307.948 81.8676C310.331 81.8676 311.522 80.8693 311.522 78.8727C311.522 77.8421 311.2 77.0531 310.556 76.5057C309.944 75.9582 309.059 75.6845 307.899 75.6845H302.441V81.8676H307.948ZM323.836 75.926C323.836 73.1243 324.335 70.6767 325.333 68.5835C326.364 66.4902 327.748 64.88 329.487 63.7529C331.259 62.6257 333.223 62.0622 335.381 62.0622C337.248 62.0622 338.859 62.4325 340.211 63.1732C341.564 63.9139 342.61 64.9122 343.351 66.1682V62.4003H352.819V89.5H343.351V85.7321C342.61 86.9881 341.548 87.9864 340.163 88.7271C338.81 89.4678 337.216 89.8381 335.381 89.8381C333.223 89.8381 331.259 89.2746 329.487 88.1474C327.748 87.0203 326.364 85.4101 325.333 83.3168C324.335 81.1914 323.836 78.7278 323.836 75.926ZM343.351 75.926C343.351 74.187 342.868 72.8183 341.902 71.82C340.968 70.8217 339.809 70.3225 338.424 70.3225C337.007 70.3225 335.832 70.8217 334.898 71.82C333.964 72.7861 333.497 74.1548 333.497 75.926C333.497 77.665 333.964 79.0498 334.898 80.0803C335.832 81.0786 337.007 81.5778 338.424 81.5778C339.809 81.5778 340.968 81.0786 341.902 80.0803C342.868 79.082 343.351 77.6972 343.351 75.926ZM367.682 53.7535V89.5H358.214V53.7535H367.682ZM382.542 53.7535V89.5H373.074V53.7535H382.542Z"/>
</mask>
<path d="M84.0727 55.4442C87.6473 55.4442 90.7711 56.1688 93.444 57.618C96.1492 59.035 98.2263 61.0316 99.6755 63.608C101.125 66.1843 101.849 69.131 101.849 72.448C101.849 75.7328 101.109 78.6633 99.6272 81.2397C98.178 83.816 96.1009 85.8448 93.3957 87.3262C90.7228 88.7754 87.6151 89.5 84.0727 89.5H70.5953V55.4442H84.0727ZM83.3481 81.1431C86.1176 81.1431 88.2914 80.3863 89.8694 78.8727C91.4474 77.3591 92.2364 75.2175 92.2364 72.448C92.2364 69.6462 91.4474 67.4885 89.8694 65.975C88.2914 64.4292 86.1176 63.6563 83.3481 63.6563H80.0633V81.1431H83.3481ZM115.585 67.1826C116.648 65.6368 117.936 64.4131 119.45 63.5114C120.963 62.6096 122.59 62.1588 124.329 62.1588V72.2547H121.672C119.611 72.2547 118.081 72.6573 117.083 73.4624C116.084 74.2675 115.585 75.6684 115.585 77.665V89.5H106.117V62.4003H115.585V67.1826ZM140.331 89.8381C137.626 89.8381 135.194 89.2746 133.036 88.1474C130.911 87.0203 129.236 85.4101 128.013 83.3168C126.789 81.2236 126.177 78.76 126.177 75.926C126.177 73.1243 126.789 70.6767 128.013 68.5835C129.269 66.4902 130.959 64.88 133.085 63.7529C135.242 62.6257 137.674 62.0622 140.379 62.0622C143.084 62.0622 145.499 62.6257 147.625 63.7529C149.783 64.88 151.473 66.4902 152.697 68.5835C153.953 70.6767 154.581 73.1243 154.581 75.926C154.581 78.7278 153.953 81.1914 152.697 83.3168C151.473 85.4101 149.783 87.0203 147.625 88.1474C145.467 89.2746 143.036 89.8381 140.331 89.8381ZM140.331 81.6261C141.651 81.6261 142.746 81.1431 143.616 80.1769C144.517 79.1786 144.968 77.7616 144.968 75.926C144.968 74.0904 144.517 72.6895 143.616 71.7234C142.746 70.7573 141.667 70.2742 140.379 70.2742C139.091 70.2742 138.012 70.7573 137.143 71.7234C136.273 72.6895 135.838 74.0904 135.838 75.926C135.838 77.7938 136.257 79.2108 137.094 80.1769C137.931 81.1431 139.01 81.6261 140.331 81.6261ZM167.901 66.1682C168.642 64.9122 169.688 63.9139 171.041 63.1732C172.393 62.4325 173.988 62.0622 175.823 62.0622C177.981 62.0622 179.929 62.6257 181.668 63.7529C183.439 64.88 184.824 66.4902 185.823 68.5835C186.853 70.6767 187.368 73.1243 187.368 75.926C187.368 78.7278 186.853 81.1914 185.823 83.3168C184.824 85.4101 183.439 87.0203 181.668 88.1474C179.929 89.2746 177.981 89.8381 175.823 89.8381C173.988 89.8381 172.393 89.4678 171.041 88.7271C169.721 87.9864 168.674 86.9881 167.901 85.7321V102.446H158.433V62.4003H167.901V66.1682ZM177.755 75.926C177.755 74.1548 177.272 72.7861 176.306 71.82C175.372 70.8217 174.213 70.3225 172.828 70.3225C171.443 70.3225 170.268 70.8217 169.302 71.82C168.368 72.8183 167.901 74.187 167.901 75.926C167.901 77.6972 168.368 79.082 169.302 80.0803C170.268 81.0786 171.443 81.5778 172.828 81.5778C174.213 81.5778 175.372 81.0786 176.306 80.0803C177.272 79.0498 177.755 77.665 177.755 75.926ZM216.501 81.4329V89.5H212.395C205.472 89.5 202.01 86.0703 202.01 79.2108V70.2742H198.676V62.4003H202.01V55.8307H211.526V62.4003H216.453V70.2742H211.526V79.3557C211.526 80.0964 211.687 80.6278 212.009 80.9498C212.363 81.2719 212.943 81.4329 213.748 81.4329H216.501ZM238.669 62.1588C241.761 62.1588 244.208 63.2054 246.011 65.2987C247.847 67.3597 248.765 70.1615 248.765 73.7039V89.5H239.297V74.9599C239.297 73.4141 238.894 72.2064 238.089 71.3369C237.284 70.4352 236.205 69.9844 234.853 69.9844C233.436 69.9844 232.325 70.4352 231.52 71.3369C230.715 72.2064 230.312 73.4141 230.312 74.9599V89.5H220.844V53.7535H230.312V66.2648C231.149 65.041 232.276 64.0588 233.693 63.3181C235.143 62.5452 236.801 62.1588 238.669 62.1588ZM279.852 75.6362C279.852 76.3769 279.804 77.1176 279.707 77.8582H261.786C261.882 79.3396 262.285 80.4507 262.993 81.1914C263.734 81.8999 264.668 82.2541 265.795 82.2541C267.373 82.2541 268.5 81.5456 269.176 80.1286H279.272C278.854 81.9965 278.033 83.6711 276.809 85.1525C275.617 86.6016 274.104 87.7449 272.268 88.5822C270.432 89.4195 268.404 89.8381 266.182 89.8381C263.509 89.8381 261.125 89.2746 259.032 88.1474C256.971 87.0203 255.345 85.4101 254.153 83.3168C252.994 81.2236 252.414 78.76 252.414 75.926C252.414 73.092 252.994 70.6445 254.153 68.5835C255.313 66.4902 256.923 64.88 258.984 63.7529C261.077 62.6257 263.476 62.0622 266.182 62.0622C268.854 62.0622 271.221 62.6096 273.282 63.7046C275.344 64.7995 276.954 66.3775 278.113 68.4386C279.272 70.4674 279.852 72.8666 279.852 75.6362ZM270.191 73.2692C270.191 72.1098 269.804 71.2081 269.032 70.564C268.259 69.8877 267.293 69.5496 266.133 69.5496C264.974 69.5496 264.024 69.8716 263.283 70.5157C262.542 71.1276 262.059 72.0454 261.834 73.2692H270.191ZM314.711 72.0132C316.707 72.4641 318.285 73.4624 319.445 75.0082C320.636 76.5218 321.232 78.2608 321.232 80.2252C321.232 83.1236 320.234 85.394 318.237 87.0364C316.24 88.6788 313.439 89.5 309.832 89.5H292.973V55.4442H309.3C312.778 55.4442 315.5 56.2171 317.464 57.7629C319.461 59.3087 320.459 61.4825 320.459 64.2842C320.459 66.2809 319.928 67.9555 318.865 69.3081C317.834 70.6284 316.45 71.5302 314.711 72.0132ZM302.441 68.9699H307.223C309.606 68.9699 310.798 67.9877 310.798 66.0233C310.798 63.9944 309.606 62.98 307.223 62.98H302.441V68.9699ZM307.948 81.8676C310.331 81.8676 311.522 80.8693 311.522 78.8727C311.522 77.8421 311.2 77.0531 310.556 76.5057C309.944 75.9582 309.059 75.6845 307.899 75.6845H302.441V81.8676H307.948ZM323.836 75.926C323.836 73.1243 324.335 70.6767 325.333 68.5835C326.364 66.4902 327.748 64.88 329.487 63.7529C331.259 62.6257 333.223 62.0622 335.381 62.0622C337.248 62.0622 338.859 62.4325 340.211 63.1732C341.564 63.9139 342.61 64.9122 343.351 66.1682V62.4003H352.819V89.5H343.351V85.7321C342.61 86.9881 341.548 87.9864 340.163 88.7271C338.81 89.4678 337.216 89.8381 335.381 89.8381C333.223 89.8381 331.259 89.2746 329.487 88.1474C327.748 87.0203 326.364 85.4101 325.333 83.3168C324.335 81.1914 323.836 78.7278 323.836 75.926ZM343.351 75.926C343.351 74.187 342.868 72.8183 341.902 71.82C340.968 70.8217 339.809 70.3225 338.424 70.3225C337.007 70.3225 335.832 70.8217 334.898 71.82C333.964 72.7861 333.497 74.1548 333.497 75.926C333.497 77.665 333.964 79.0498 334.898 80.0803C335.832 81.0786 337.007 81.5778 338.424 81.5778C339.809 81.5778 340.968 81.0786 341.902 80.0803C342.868 79.082 343.351 77.6972 343.351 75.926ZM367.682 53.7535V89.5H358.214V53.7535H367.682ZM382.542 53.7535V89.5H373.074V53.7535H382.542Z" fill="white"/>
<path d="M93.444 57.618L91.0609 62.0136L91.0923 62.0306L91.124 62.0472L93.444 57.618ZM99.6755 63.608L104.033 61.1567L99.6755 63.608ZM99.6272 81.2397L95.2927 78.7473L95.2809 78.7678L95.2693 78.7884L99.6272 81.2397ZM93.3957 87.3262L95.7788 91.7218L95.7881 91.7168L95.7973 91.7117L93.3957 87.3262ZM70.5953 89.5H65.5953V94.5H70.5953V89.5ZM70.5953 55.4442V50.4442H65.5953V55.4442H70.5953ZM89.8694 65.975L86.3705 69.5468L86.3893 69.5652L86.4083 69.5834L89.8694 65.975ZM80.0633 63.6563V58.6563H75.0633V63.6563H80.0633ZM80.0633 81.1431H75.0633V86.1431H80.0633V81.1431ZM84.0727 60.4442C86.9615 60.4442 89.2385 61.0255 91.0609 62.0136L95.8272 53.2225C92.3037 51.3122 88.3331 50.4442 84.0727 50.4442V60.4442ZM91.124 62.0472C93.0029 63.0314 94.3586 64.3543 95.3176 66.0593L104.033 61.1567C102.094 57.709 99.2954 55.0386 95.7641 53.1889L91.124 62.0472ZM95.3176 66.0593C96.2964 67.7992 96.8493 69.8827 96.8493 72.448H106.849C106.849 68.3792 105.953 64.5693 104.033 61.1567L95.3176 66.0593ZM96.8493 72.448C96.8493 74.9525 96.2933 77.0071 95.2927 78.7473L103.962 83.732C105.924 80.3195 106.849 76.513 106.849 72.448H96.8493ZM95.2693 78.7884C94.299 80.5134 92.9165 81.888 90.9942 82.9407L95.7973 91.7117C99.2852 89.8017 102.057 87.1186 103.985 83.691L95.2693 78.7884ZM91.0126 82.9307C89.1838 83.9222 86.9209 84.5 84.0727 84.5V94.5C88.3093 94.5 92.2618 93.6286 95.7788 91.7218L91.0126 82.9307ZM84.0727 84.5H70.5953V94.5H84.0727V84.5ZM75.5953 89.5V55.4442H65.5953V89.5H75.5953ZM70.5953 60.4442H84.0727V50.4442H70.5953V60.4442ZM83.3481 86.1431C87.0482 86.1431 90.5909 85.1088 93.3305 82.4811L86.4083 75.2643C85.9918 75.6637 85.187 76.1431 83.3481 76.1431V86.1431ZM93.3305 82.4811C96.1382 79.7879 97.2364 76.1953 97.2364 72.448H87.2364C87.2364 74.2398 86.7565 74.9302 86.4083 75.2643L93.3305 82.4811ZM97.2364 72.448C97.2364 68.6881 96.1494 65.0704 93.3305 62.3666L86.4083 69.5834C86.7454 69.9067 87.2364 70.6043 87.2364 72.448H97.2364ZM93.3683 62.4032C90.6329 59.7236 87.0766 58.6563 83.3481 58.6563V68.6563C85.1586 68.6563 85.9499 69.1348 86.3705 69.5468L93.3683 62.4032ZM83.3481 58.6563H80.0633V68.6563H83.3481V58.6563ZM75.0633 63.6563V81.1431H85.0633V63.6563H75.0633ZM80.0633 86.1431H83.3481V76.1431H80.0633V86.1431ZM115.585 67.1826H110.585V83.281L119.705 70.0153L115.585 67.1826ZM124.329 62.1588H129.329V57.1588H124.329V62.1588ZM124.329 72.2547V77.2547H129.329V72.2547H124.329ZM117.083 73.4624L120.221 77.3545L117.083 73.4624ZM115.585 89.5V94.5H120.585V89.5H115.585ZM106.117 89.5H101.117V94.5H106.117V89.5ZM106.117 62.4003V57.4003H101.117V62.4003H106.117ZM115.585 62.4003H120.585V57.4003H115.585V62.4003ZM119.705 70.0153C120.386 69.0248 121.155 68.3157 122.009 67.8069L116.891 59.2158C114.718 60.5104 112.909 62.2488 111.465 64.35L119.705 70.0153ZM122.009 67.8069C122.759 67.3599 123.503 67.1588 124.329 67.1588V57.1588C121.676 57.1588 119.167 57.8594 116.891 59.2158L122.009 67.8069ZM119.329 62.1588V72.2547H129.329V62.1588H119.329ZM124.329 67.2547H121.672V77.2547H124.329V67.2547ZM121.672 67.2547C119.115 67.2547 116.23 67.727 113.944 69.5703L120.221 77.3545C120.06 77.485 120.013 77.4547 120.251 77.392C120.497 77.3273 120.949 77.2547 121.672 77.2547V67.2547ZM113.944 69.5703C111.237 71.753 110.585 75.0049 110.585 77.665H120.585C120.585 77.3709 120.604 77.1551 120.626 77.006C120.648 76.857 120.67 76.7937 120.669 76.7951C120.668 76.799 120.641 76.8734 120.564 76.9862C120.485 77.1028 120.371 77.2337 120.221 77.3545L113.944 69.5703ZM110.585 77.665V89.5H120.585V77.665H110.585ZM115.585 84.5H106.117V94.5H115.585V84.5ZM111.117 89.5V62.4003H101.117V89.5H111.117ZM106.117 67.4003H115.585V57.4003H106.117V67.4003ZM110.585 62.4003V67.1826H120.585V62.4003H110.585ZM133.036 88.1474L130.694 92.5647L130.708 92.572L130.721 92.5792L133.036 88.1474ZM128.013 83.3168L132.329 80.7933V80.7933L128.013 83.3168ZM128.013 68.5835L123.725 66.011L123.711 66.0354L123.696 66.06L128.013 68.5835ZM133.085 63.7529L130.77 59.3211L130.756 59.3283L130.742 59.3356L133.085 63.7529ZM147.625 63.7529L145.282 68.1702L145.296 68.1775L145.31 68.1846L147.625 63.7529ZM152.697 68.5835L148.381 71.107L148.395 71.1315L148.41 71.156L152.697 68.5835ZM152.697 83.3168L148.392 80.7732L148.386 80.7832L148.381 80.7933L152.697 83.3168ZM147.625 88.1474L145.31 83.7157L147.625 88.1474ZM143.616 80.1769L139.905 76.8255L139.899 76.8321L143.616 80.1769ZM143.616 71.7234L139.899 75.0682L139.929 75.1019L139.96 75.135L143.616 71.7234ZM137.094 80.1769L133.316 83.4516L137.094 80.1769ZM140.331 84.8381C138.341 84.8381 136.718 84.4295 135.352 83.7157L130.721 92.5792C133.67 94.1196 136.91 94.8381 140.331 94.8381V84.8381ZM135.379 83.7301C134.082 83.0421 133.088 82.0908 132.329 80.7933L123.696 85.8403C125.385 88.7294 127.74 90.9985 130.694 92.5647L135.379 83.7301ZM132.329 80.7933C131.624 79.5865 131.177 78.0243 131.177 75.926H121.177C121.177 79.4956 121.954 82.8606 123.696 85.8403L132.329 80.7933ZM131.177 75.926C131.177 73.8714 131.619 72.3223 132.329 71.107L123.696 66.06C121.959 69.0312 121.177 72.3772 121.177 75.926H131.177ZM132.3 71.156C133.095 69.8312 134.118 68.8643 135.427 68.1702L130.742 59.3356C127.8 60.8957 125.442 63.1493 123.725 66.011L132.3 71.156ZM135.4 68.1846C136.766 67.4708 138.389 67.0622 140.379 67.0622V57.0622C136.959 57.0622 133.719 57.7807 130.77 59.3211L135.4 68.1846ZM140.379 67.0622C142.37 67.0622 143.964 67.4712 145.282 68.1702L149.967 59.3356C147.035 57.7803 143.798 57.0622 140.379 57.0622V67.0622ZM145.31 68.1846C146.638 68.8783 147.633 69.8287 148.381 71.107L157.014 66.06C155.313 63.1517 152.927 60.8817 149.94 59.3211L145.31 68.1846ZM148.41 71.156C149.134 72.363 149.581 73.8942 149.581 75.926H159.581C159.581 72.3543 158.772 68.9904 156.985 66.011L148.41 71.156ZM149.581 75.926C149.581 77.956 149.134 79.5176 148.392 80.7732L157.002 85.8605C158.772 82.8651 159.581 79.4995 159.581 75.926H149.581ZM148.381 80.7933C147.633 82.0716 146.638 83.022 145.31 83.7157L149.94 92.5792C152.927 91.0186 155.313 88.7486 157.014 85.8403L148.381 80.7933ZM145.31 83.7157C143.943 84.4295 142.321 84.8381 140.331 84.8381V94.8381C143.751 94.8381 146.991 94.1196 149.94 92.5792L145.31 83.7157ZM140.331 86.6261C143.043 86.6261 145.497 85.5604 147.332 83.5218L139.899 76.8321C139.893 76.8388 139.91 76.8191 139.953 76.7873C139.997 76.7548 140.055 76.7196 140.124 76.6892C140.275 76.6225 140.368 76.6261 140.331 76.6261V86.6261ZM147.326 83.5284C149.319 81.3214 149.968 78.5444 149.968 75.926H139.968C139.968 76.445 139.903 76.7304 139.865 76.8494C139.833 76.9501 139.829 76.9094 139.905 76.8255L147.326 83.5284ZM149.968 75.926C149.968 73.3202 149.324 70.512 147.271 68.3118L139.96 75.135C139.855 75.022 139.844 74.95 139.87 75.0304C139.903 75.131 139.968 75.4052 139.968 75.926H149.968ZM147.332 68.3786C145.524 66.3697 143.099 65.2742 140.379 65.2742V75.2742C140.383 75.2742 140.27 75.2712 140.111 75.1999C139.953 75.1291 139.884 75.0516 139.899 75.0682L147.332 68.3786ZM140.379 65.2742C137.659 65.2742 135.234 66.3697 133.426 68.3786L140.859 75.0682C140.874 75.0516 140.805 75.1291 140.647 75.1999C140.488 75.2712 140.375 75.2742 140.379 75.2742V65.2742ZM133.426 68.3786C131.444 70.5805 130.838 73.3623 130.838 75.926H140.838C140.838 75.3901 140.903 75.0982 140.94 74.9806C140.97 74.8814 140.966 74.949 140.859 75.0682L133.426 68.3786ZM130.838 75.926C130.838 78.4544 131.396 81.2366 133.316 83.4516L140.873 76.9023C140.989 77.0366 140.986 77.1027 140.947 76.9729C140.904 76.827 140.838 76.5006 140.838 75.926H130.838ZM133.316 83.4516C135.138 85.554 137.615 86.6261 140.331 86.6261V76.6261C140.292 76.6261 140.4 76.6221 140.575 76.7004C140.754 76.7805 140.853 76.88 140.873 76.9023L133.316 83.4516ZM167.901 66.1682H162.901V84.4893L172.208 68.7081L167.901 66.1682ZM171.041 63.1732L168.639 58.7877L171.041 63.1732ZM181.668 63.7529L178.949 67.9486L178.966 67.96L178.984 67.9712L181.668 63.7529ZM185.823 68.5835L181.31 70.7359L181.323 70.764L181.337 70.7919L185.823 68.5835ZM185.823 83.3168L181.323 81.1355L181.316 81.1499L181.31 81.1645L185.823 83.3168ZM181.668 88.1474L178.984 83.9291L178.966 83.9403L178.949 83.9517L181.668 88.1474ZM171.041 88.7271L168.595 93.0878L168.617 93.1003L168.639 93.1126L171.041 88.7271ZM167.901 85.7321L172.159 83.1116L162.901 68.0669V85.7321H167.901ZM167.901 102.446V107.446H172.901V102.446H167.901ZM158.433 102.446H153.433V107.446H158.433V102.446ZM158.433 62.4003V57.4003H153.433V62.4003H158.433ZM167.901 62.4003H172.901V57.4003H167.901V62.4003ZM176.306 71.82L172.655 75.2358L172.712 75.2966L172.771 75.3555L176.306 71.82ZM169.302 71.82L165.709 68.3429L165.679 68.3733L165.651 68.4042L169.302 71.82ZM169.302 80.0803L165.651 83.4961L165.679 83.527L165.709 83.5574L169.302 80.0803ZM176.306 80.0803L172.659 76.6606L172.655 76.6645L176.306 80.0803ZM172.208 68.7081C172.464 68.2729 172.832 67.8929 173.442 67.5587L168.639 58.7877C166.544 59.9349 164.819 61.5516 163.594 63.6283L172.208 68.7081ZM173.442 67.5587C173.93 67.2915 174.667 67.0622 175.823 67.0622V57.0622C173.308 57.0622 170.856 57.5736 168.639 58.7877L173.442 67.5587ZM175.823 67.0622C177.058 67.0622 178.054 67.3688 178.949 67.9486L184.388 59.5571C181.804 57.8827 178.904 57.0622 175.823 57.0622V67.0622ZM178.984 67.9712C179.882 68.543 180.671 69.3976 181.31 70.7359L190.336 66.4311C188.977 63.5829 186.996 61.2171 184.353 59.5346L178.984 67.9712ZM181.337 70.7919C181.968 72.0736 182.368 73.738 182.368 75.926H192.368C192.368 72.5105 191.738 69.2799 190.308 66.3751L181.337 70.7919ZM182.368 75.926C182.368 78.1115 181.968 79.8051 181.323 81.1355L190.322 85.4982C191.738 82.5776 192.368 79.344 192.368 75.926H182.368ZM181.31 81.1645C180.671 82.5028 179.882 83.3573 178.984 83.9291L184.353 92.3657C186.996 90.6833 188.977 88.3174 190.336 85.4692L181.31 81.1645ZM178.949 83.9517C178.054 84.5316 177.058 84.8381 175.823 84.8381V94.8381C178.904 94.8381 181.804 94.0176 184.388 92.3432L178.949 83.9517ZM175.823 84.8381C174.667 84.8381 173.93 84.6088 173.442 84.3416L168.639 93.1126C170.856 94.3267 173.308 94.8381 175.823 94.8381V84.8381ZM173.487 84.3664C172.888 84.0305 172.474 83.6229 172.159 83.1116L163.643 88.3526C164.874 90.3533 166.553 91.9423 168.595 93.0878L173.487 84.3664ZM162.901 85.7321V102.446H172.901V85.7321H162.901ZM167.901 97.446H158.433V107.446H167.901V97.446ZM163.433 102.446V62.4003H153.433V102.446H163.433ZM158.433 67.4003H167.901V57.4003H158.433V67.4003ZM162.901 62.4003V66.1682H172.901V62.4003H162.901ZM182.755 75.926C182.755 73.2387 182 70.4431 179.842 68.2845L172.771 75.3555C172.739 75.3243 172.712 75.2891 172.692 75.2569C172.673 75.2256 172.671 75.2141 172.678 75.2352C172.695 75.282 172.755 75.4866 172.755 75.926H182.755ZM179.958 68.4042C178.064 66.3805 175.577 65.3225 172.828 65.3225V75.3225C172.873 75.3225 172.882 75.3264 172.862 75.3226C172.841 75.3184 172.804 75.3087 172.759 75.2893C172.714 75.2699 172.678 75.2482 172.654 75.2314C172.632 75.2152 172.633 75.2122 172.655 75.2358L179.958 68.4042ZM172.828 65.3225C170.084 65.3225 167.613 66.3748 165.709 68.3429L172.895 75.2971C172.928 75.2627 172.941 75.2554 172.931 75.2624C172.92 75.2701 172.896 75.2847 172.862 75.2991C172.829 75.3135 172.801 75.3208 172.786 75.3237C172.772 75.3264 172.784 75.3225 172.828 75.3225V65.3225ZM165.651 68.4042C163.633 70.5612 162.901 73.2773 162.901 75.926H172.901C172.901 75.4979 172.959 75.2812 172.983 75.2097C173.002 75.1561 172.998 75.1882 172.953 75.2358L165.651 68.4042ZM162.901 75.926C162.901 78.5783 163.617 81.3228 165.651 83.4961L172.953 76.6645C173.007 76.7223 173.01 76.7585 172.989 76.6953C172.962 76.6136 172.901 76.3797 172.901 75.926H162.901ZM165.709 83.5574C167.613 85.5255 170.084 86.5778 172.828 86.5778V76.5778C172.784 76.5778 172.772 76.5739 172.786 76.5766C172.801 76.5795 172.829 76.5868 172.862 76.6012C172.896 76.6156 172.92 76.6302 172.931 76.6379C172.941 76.6449 172.928 76.6376 172.895 76.6032L165.709 83.5574ZM172.828 86.5778C175.577 86.5778 178.064 85.5198 179.958 83.4961L172.655 76.6645C172.633 76.6881 172.632 76.6852 172.654 76.6689C172.678 76.6521 172.714 76.6304 172.759 76.611C172.804 76.5917 172.841 76.5819 172.862 76.5778C172.882 76.5739 172.873 76.5778 172.828 76.5778V86.5778ZM179.954 83.5C181.979 81.3398 182.755 78.6267 182.755 75.926H172.755C172.755 76.3363 172.698 76.547 172.672 76.622C172.659 76.659 172.651 76.6714 172.653 76.6685C172.653 76.6678 172.654 76.6659 172.656 76.6635C172.658 76.6611 172.659 76.66 172.659 76.6606L179.954 83.5ZM216.501 81.4329H221.501V76.4329H216.501V81.4329ZM216.501 89.5V94.5H221.501V89.5H216.501ZM202.01 70.2742H207.01V65.2742H202.01V70.2742ZM198.676 70.2742H193.676V75.2742H198.676V70.2742ZM198.676 62.4003V57.4003H193.676V62.4003H198.676ZM202.01 62.4003V67.4003H207.01V62.4003H202.01ZM202.01 55.8307V50.8307H197.01V55.8307H202.01ZM211.526 55.8307H216.526V50.8307H211.526V55.8307ZM211.526 62.4003H206.526V67.4003H211.526V62.4003ZM216.453 62.4003H221.453V57.4003H216.453V62.4003ZM216.453 70.2742V75.2742H221.453V70.2742H216.453ZM211.526 70.2742V65.2742H206.526V70.2742H211.526ZM212.009 80.9498L208.473 84.4854L208.558 84.5695L208.646 84.6495L212.009 80.9498ZM211.501 81.4329V89.5H221.501V81.4329H211.501ZM216.501 84.5H212.395V94.5H216.501V84.5ZM212.395 84.5C209.692 84.5 208.586 83.8324 208.125 83.3757C207.673 82.9275 207.01 81.8579 207.01 79.2108H197.01C197.01 83.4231 198.078 87.4982 201.087 90.4797C204.088 93.4527 208.174 94.5 212.395 94.5V84.5ZM207.01 79.2108V70.2742H197.01V79.2108H207.01ZM202.01 65.2742H198.676V75.2742H202.01V65.2742ZM203.676 70.2742V62.4003H193.676V70.2742H203.676ZM198.676 67.4003H202.01V57.4003H198.676V67.4003ZM207.01 62.4003V55.8307H197.01V62.4003H207.01ZM202.01 60.8307H211.526V50.8307H202.01V60.8307ZM206.526 55.8307V62.4003H216.526V55.8307H206.526ZM211.526 67.4003H216.453V57.4003H211.526V67.4003ZM211.453 62.4003V70.2742H221.453V62.4003H211.453ZM216.453 65.2742H211.526V75.2742H216.453V65.2742ZM206.526 70.2742V79.3557H216.526V70.2742H206.526ZM206.526 79.3557C206.526 80.6288 206.772 82.7837 208.473 84.4854L215.544 77.4143C216.08 77.9494 216.325 78.5088 216.432 78.8597C216.532 79.1912 216.526 79.3879 216.526 79.3557H206.526ZM208.646 84.6495C210.372 86.2189 212.487 86.4329 213.748 86.4329V76.4329C213.655 76.4329 213.783 76.4211 214.048 76.4945C214.322 76.5708 214.842 76.7678 215.372 77.2501L208.646 84.6495ZM213.748 86.4329H216.501V76.4329H213.748V86.4329ZM246.011 65.2987L242.223 68.5622L242.25 68.5934L242.278 68.6241L246.011 65.2987ZM248.765 89.5V94.5H253.765V89.5H248.765ZM239.297 89.5H234.297V94.5H239.297V89.5ZM238.089 71.3369L234.36 74.667L234.39 74.7008L234.42 74.734L238.089 71.3369ZM231.52 71.3369L235.188 74.734L235.219 74.7008L235.249 74.667L231.52 71.3369ZM230.312 89.5V94.5H235.312V89.5H230.312ZM220.844 89.5H215.844V94.5H220.844V89.5ZM220.844 53.7535V48.7535H215.844V53.7535H220.844ZM230.312 53.7535H235.312V48.7535H230.312V53.7535ZM230.312 66.2648H225.312V82.427L234.439 69.0882L230.312 66.2648ZM233.693 63.3181L236.01 67.7493L236.028 67.7396L236.046 67.7299L233.693 63.3181ZM238.669 67.1588C240.499 67.1588 241.489 67.7103 242.223 68.5622L249.8 62.0351C246.927 58.7005 243.022 57.1588 238.669 57.1588V67.1588ZM242.278 68.6241C243.088 69.5335 243.765 71.03 243.765 73.7039H253.765C253.765 69.293 252.607 65.1859 249.745 61.9732L242.278 68.6241ZM243.765 73.7039V89.5H253.765V73.7039H243.765ZM248.765 84.5H239.297V94.5H248.765V84.5ZM244.297 89.5V74.9599H234.297V89.5H244.297ZM244.297 74.9599C244.297 72.5491 243.654 69.9874 241.758 67.9399L234.42 74.734C234.369 74.6779 234.326 74.6193 234.295 74.5656C234.264 74.5128 234.253 74.4791 234.252 74.4759C234.251 74.4742 234.297 74.6132 234.297 74.9599H244.297ZM241.819 68.0069C239.946 65.9097 237.441 64.9844 234.853 64.9844V74.9844C234.97 74.9844 234.908 75.0025 234.748 74.9358C234.672 74.9039 234.593 74.8603 234.518 74.8068C234.444 74.7537 234.392 74.7029 234.36 74.667L241.819 68.0069ZM234.853 64.9844C232.281 64.9844 229.709 65.8571 227.79 68.0069L235.249 74.667C235.206 74.7157 235.144 74.7738 235.064 74.83C234.984 74.8864 234.905 74.9277 234.837 74.9556C234.697 75.0123 234.674 74.9844 234.853 74.9844V64.9844ZM227.851 67.9399C225.955 69.9874 225.312 72.5491 225.312 74.9599H235.312C235.312 74.6132 235.358 74.4742 235.357 74.4759C235.356 74.4791 235.345 74.5128 235.314 74.5656C235.283 74.6193 235.24 74.6779 235.188 74.734L227.851 67.9399ZM225.312 74.9599V89.5H235.312V74.9599H225.312ZM230.312 84.5H220.844V94.5H230.312V84.5ZM225.844 89.5V53.7535H215.844V89.5H225.844ZM220.844 58.7535H230.312V48.7535H220.844V58.7535ZM225.312 53.7535V66.2648H235.312V53.7535H225.312ZM234.439 69.0882C234.777 68.5929 235.26 68.1409 236.01 67.7493L231.377 58.887C229.292 59.9767 227.521 61.4892 226.185 63.4414L234.439 69.0882ZM236.046 67.7299C236.677 67.3935 237.508 67.1588 238.669 67.1588V57.1588C236.094 57.1588 233.608 57.697 231.34 58.9064L236.046 67.7299ZM279.707 77.8582V82.8582H284.097L284.665 78.5049L279.707 77.8582ZM261.786 77.8582V72.8582H256.449L256.796 78.1836L261.786 77.8582ZM262.993 81.1914L259.38 84.6475L259.457 84.7278L259.537 84.8046L262.993 81.1914ZM269.176 80.1286V75.1286H266.023L264.664 77.975L269.176 80.1286ZM279.272 80.1286L284.151 81.2222L285.517 75.1286H279.272V80.1286ZM276.809 85.1525L272.954 81.968L272.947 81.9769L276.809 85.1525ZM272.268 88.5822L274.343 93.1313L272.268 88.5822ZM259.032 88.1474L256.633 92.5343L256.647 92.5421L256.662 92.5498L259.032 88.1474ZM254.153 83.3168L249.779 85.7393L249.794 85.7649L249.808 85.7903L254.153 83.3168ZM254.153 68.5835L258.511 71.0348L258.519 71.0204L258.527 71.006L254.153 68.5835ZM258.984 63.7529L256.613 59.3505L256.599 59.3582L256.585 59.366L258.984 63.7529ZM273.283 63.7046L275.628 59.289L275.628 59.289L273.283 63.7046ZM278.113 68.4386L273.755 70.8899L273.764 70.9046L273.772 70.9193L278.113 68.4386ZM270.191 73.2692V78.2692H275.191V73.2692H270.191ZM269.032 70.564L265.739 74.3269L265.784 74.3666L265.831 74.4051L269.032 70.564ZM263.283 70.5157L266.468 74.3705L266.516 74.3303L266.564 74.2888L263.283 70.5157ZM261.834 73.2692L256.917 72.3634L255.829 78.2692H261.834V73.2692ZM274.852 75.6362C274.852 76.1588 274.818 76.6835 274.749 77.2116L284.665 78.5049C284.79 77.5516 284.852 76.5949 284.852 75.6362H274.852ZM279.707 72.8582H261.786V82.8582H279.707V72.8582ZM256.796 78.1836C256.936 80.3241 257.563 82.7477 259.38 84.6475L266.607 77.7352C266.7 77.8326 266.765 77.9237 266.807 77.9939C266.848 78.0627 266.862 78.1028 266.861 78.0993C266.859 78.095 266.844 78.0502 266.825 77.9545C266.807 77.8586 266.787 77.7203 266.775 77.5328L256.796 78.1836ZM259.537 84.8046C261.305 86.4954 263.52 87.2541 265.795 87.2541V77.2541C265.76 77.2541 265.855 77.2499 266.023 77.3134C266.199 77.3802 266.349 77.4817 266.449 77.5782L259.537 84.8046ZM265.795 87.2541C267.349 87.2541 268.987 86.8975 270.485 85.9559C271.984 85.0133 273.017 83.6897 273.689 82.2823L264.664 77.975C264.66 77.9845 264.791 77.7237 265.163 77.4895C265.534 77.2564 265.819 77.2541 265.795 77.2541V87.2541ZM269.176 85.1286H279.272V75.1286H269.176V85.1286ZM274.393 79.0351C274.148 80.132 273.679 81.0909 272.954 81.9681L280.664 88.3369C282.387 86.2512 283.56 83.8609 284.151 81.2222L274.393 79.0351ZM272.947 81.9769C272.274 82.7946 271.389 83.4874 270.193 84.0331L274.343 93.1313C276.818 92.0024 278.96 90.4087 280.671 88.328L272.947 81.9769ZM270.193 84.0331C269.072 84.5443 267.761 84.8381 266.182 84.8381V94.8381C269.046 94.8381 271.793 94.2947 274.343 93.1313L270.193 84.0331ZM266.182 84.8381C264.232 84.8381 262.681 84.4333 261.403 83.7451L256.662 92.5498C259.57 94.1159 262.786 94.8381 266.182 94.8381V84.8381ZM261.431 83.7606C260.205 83.0901 259.244 82.1522 258.499 80.8433L249.808 85.7903C251.446 88.668 253.737 90.9505 256.633 92.5343L261.431 83.7606ZM258.527 80.8943C257.848 79.6683 257.414 78.0689 257.414 75.926H247.414C247.414 79.451 248.14 82.7789 249.779 85.7393L258.527 80.8943ZM257.414 75.926C257.414 73.7805 257.849 72.2119 258.511 71.0348L249.795 66.1322C248.139 69.0772 247.414 72.4036 247.414 75.926H257.414ZM258.527 71.006C259.237 69.725 260.169 68.8035 261.383 68.1397L256.585 59.366C253.676 60.9565 251.389 63.2554 249.779 66.161L258.527 71.006ZM261.354 68.1552C262.624 67.4717 264.188 67.0622 266.182 67.0622V57.0622C262.764 57.0622 259.53 57.7798 256.613 59.3505L261.354 68.1552ZM266.182 67.0622C268.156 67.0622 269.697 67.4615 270.937 68.1202L275.628 59.289C272.746 57.7578 269.553 57.0622 266.182 57.0622V67.0622ZM270.937 68.1202C272.141 68.76 273.058 69.6509 273.755 70.8899L282.471 65.9873C280.849 63.1042 278.546 60.839 275.628 59.289L270.937 68.1202ZM273.772 70.9193C274.426 72.0636 274.852 73.575 274.852 75.6362H284.852C284.852 72.1583 284.119 68.8713 282.454 65.9579L273.772 70.9193ZM275.191 73.2692C275.191 70.8785 274.326 68.4676 272.232 66.7229L265.831 74.4051C265.627 74.2355 265.431 73.9862 265.305 73.693C265.188 73.419 265.191 73.2454 265.191 73.2692H275.191ZM272.324 66.8011C270.522 65.2239 268.337 64.5496 266.133 64.5496V74.5496C266.224 74.5496 266.189 74.5621 266.076 74.5225C265.954 74.4798 265.832 74.408 265.739 74.3269L272.324 66.8011ZM266.133 64.5496C263.998 64.5496 261.813 65.1684 260.002 66.7427L266.564 74.2888C266.433 74.4029 266.283 74.4834 266.156 74.5265C266.041 74.5656 266.016 74.5496 266.133 74.5496V64.5496ZM260.099 66.6609C258.212 68.2192 257.291 70.3307 256.917 72.3634L266.751 74.175C266.79 73.9637 266.825 73.9251 266.79 73.9917C266.772 74.0267 266.737 74.0848 266.68 74.1555C266.623 74.2268 266.552 74.3008 266.468 74.3705L260.099 66.6609ZM261.834 78.2692H270.191V68.2692H261.834V78.2692ZM314.711 72.0132L313.372 67.1956L313.609 76.8904L314.711 72.0132ZM319.445 75.0082L315.445 78.0082L315.48 78.055L315.516 78.101L319.445 75.0082ZM318.237 87.0364L321.413 90.8978V90.8978L318.237 87.0364ZM292.973 89.5H287.973V94.5H292.973V89.5ZM292.973 55.4442V50.4442H287.973V55.4442H292.973ZM317.464 57.7629L314.372 61.6923L314.388 61.7045L314.403 61.7166L317.464 57.7629ZM318.865 69.3081L314.933 66.219L314.928 66.2253L314.923 66.2317L318.865 69.3081ZM302.441 68.9699H297.441V73.9699H302.441V68.9699ZM302.441 62.98V57.98H297.441V62.98H302.441ZM310.556 76.5057L307.222 80.2319L307.27 80.2742L307.318 80.3154L310.556 76.5057ZM302.441 75.6845V70.6845H297.441V75.6845H302.441ZM302.441 81.8676H297.441V86.8676H302.441V81.8676ZM313.609 76.8904C314.522 77.0965 315.042 77.4719 315.445 78.0082L323.445 72.0082C321.528 69.4529 318.893 67.8316 315.812 67.136L313.609 76.8904ZM315.516 78.101C315.999 78.7143 316.232 79.3587 316.232 80.2252H326.232C326.232 77.1629 325.274 74.3292 323.373 71.9154L315.516 78.101ZM316.232 80.2252C316.232 81.8329 315.754 82.6049 315.061 83.1749L321.413 90.8978C324.714 88.1831 326.232 84.4143 326.232 80.2252H316.232ZM315.061 83.1749C314.255 83.8376 312.732 84.5 309.832 84.5V94.5C314.145 94.5 318.226 93.52 321.413 90.8978L315.061 83.1749ZM309.832 84.5H292.973V94.5H309.832V84.5ZM297.973 89.5V55.4442H287.973V89.5H297.973ZM292.973 60.4442H309.3V50.4442H292.973V60.4442ZM309.3 60.4442C312.089 60.4442 313.577 61.0667 314.372 61.6923L320.556 53.8336C317.422 51.3676 313.468 50.4442 309.3 50.4442V60.4442ZM314.403 61.7166C315.031 62.2026 315.459 62.8354 315.459 64.2843H325.459C325.459 60.1296 323.89 56.4148 320.525 53.8093L314.403 61.7166ZM315.459 64.2843C315.459 65.3488 315.196 65.8847 314.933 66.219L322.796 72.3972C324.659 70.0263 325.459 67.213 325.459 64.2843H315.459ZM314.923 66.2317C314.604 66.641 314.164 66.9756 313.372 67.1956L316.049 76.8308C318.735 76.0847 321.065 74.6159 322.806 72.3844L314.923 66.2317ZM302.441 73.9699H307.223V63.9699H302.441V73.9699ZM307.223 73.9699C308.976 73.9699 311.22 73.6285 313.084 72.0914C315.134 70.4019 315.798 68.0581 315.798 66.0233H305.798C305.798 66.0188 305.798 65.7877 305.939 65.438C306.093 65.0577 306.36 64.6752 306.724 64.3751C307.397 63.8203 307.854 63.9699 307.223 63.9699V73.9699ZM315.798 66.0233C315.798 64.0088 315.168 61.656 313.145 59.9336C311.276 58.3425 309.006 57.98 307.223 57.98V67.98C307.823 67.98 307.34 68.1247 306.663 67.548C306.305 67.243 306.056 66.8671 305.919 66.5148C305.792 66.1927 305.798 65.9944 305.798 66.0233H315.798ZM307.223 57.98H302.441V67.98H307.223V57.98ZM297.441 62.98V68.9699H307.441V62.98H297.441ZM307.948 86.8676C309.716 86.8676 311.973 86.5158 313.84 84.9515C315.876 83.2453 316.522 80.8969 316.522 78.8727H306.522C306.522 78.885 306.52 78.6705 306.653 78.3346C306.799 77.9683 307.056 77.589 307.418 77.2863C308.093 76.7203 308.563 76.8676 307.948 76.8676V86.8676ZM316.522 78.8727C316.522 76.7268 315.799 74.3997 313.794 72.696L307.318 80.3154C307.024 80.0654 306.791 79.7391 306.652 79.3975C306.522 79.0808 306.522 78.8731 306.522 78.8727H316.522ZM313.89 72.7795C312.045 71.1282 309.785 70.6845 307.899 70.6845V80.6845C308.098 80.6845 308.094 80.7094 307.957 80.6668C307.801 80.6186 307.518 80.4964 307.222 80.2319L313.89 72.7795ZM307.899 70.6845H302.441V80.6845H307.899V70.6845ZM297.441 75.6845V81.8676H307.441V75.6845H297.441ZM302.441 86.8676H307.948V76.8676H302.441V86.8676ZM325.333 68.5835L320.847 66.3751L320.833 66.403L320.82 66.4311L325.333 68.5835ZM329.487 63.7529L326.803 59.5346L326.785 59.5458L326.768 59.5571L329.487 63.7529ZM340.211 63.1732L337.81 67.5587V67.5587L340.211 63.1732ZM343.351 66.1682L339.044 68.7081L348.351 84.4893V66.1682H343.351ZM343.351 62.4003V57.4003H338.351V62.4003H343.351ZM352.819 62.4003H357.819V57.4003H352.819V62.4003ZM352.819 89.5V94.5H357.819V89.5H352.819ZM343.351 89.5H338.351V94.5H343.351V89.5ZM343.351 85.7321H348.351V67.4111L339.044 83.1922L343.351 85.7321ZM340.163 88.7271L337.805 84.3182L337.783 84.3298L337.761 84.3416L340.163 88.7271ZM329.487 88.1474L326.768 92.3432L326.785 92.3545L326.803 92.3657L329.487 88.1474ZM325.333 83.3168L320.807 85.4425L320.827 85.4841L320.847 85.5252L325.333 83.3168ZM341.902 71.82L338.251 75.2358L338.28 75.2667L338.309 75.2971L341.902 71.82ZM334.898 71.82L338.493 75.2951L338.521 75.2657L338.549 75.2358L334.898 71.82ZM334.898 80.0803L331.193 83.4379L331.219 83.4672L331.246 83.4961L334.898 80.0803ZM341.902 80.0803L338.309 76.6032L338.28 76.6336L338.251 76.6645L341.902 80.0803ZM328.836 75.926C328.836 73.7164 329.228 72.0316 329.846 70.7358L320.82 66.4311C319.441 69.3219 318.836 72.5321 318.836 75.926H328.836ZM329.819 70.7919C330.502 69.4041 331.317 68.5253 332.207 67.9486L326.768 59.5571C324.18 61.2347 322.225 63.5764 320.847 66.3751L329.819 70.7919ZM332.172 67.9712C333.117 67.3693 334.146 67.0622 335.381 67.0622V57.0622C332.3 57.0622 329.4 57.8822 326.803 59.5346L332.172 67.9712ZM335.381 67.0622C336.585 67.0622 337.334 67.2981 337.81 67.5587L342.613 58.7877C340.384 57.5669 337.912 57.0622 335.381 57.0622V67.0622ZM337.81 67.5587C338.42 67.8929 338.788 68.2729 339.044 68.7081L347.658 63.6283C346.433 61.5516 344.708 59.9349 342.613 58.7877L337.81 67.5587ZM348.351 66.1682V62.4003H338.351V66.1682H348.351ZM343.351 67.4003H352.819V57.4003H343.351V67.4003ZM347.819 62.4003V89.5H357.819V62.4003H347.819ZM352.819 84.5H343.351V94.5H352.819V84.5ZM348.351 89.5V85.7321H338.351V89.5H348.351ZM339.044 83.1922C338.805 83.5974 338.445 83.9754 337.805 84.3182L342.521 93.136C344.65 91.9974 346.416 90.3788 347.658 88.2721L339.044 83.1922ZM337.761 84.3416C337.273 84.6088 336.536 84.8381 335.381 84.8381V94.8381C337.896 94.8381 340.347 94.3267 342.565 93.1126L337.761 84.3416ZM335.381 84.8381C334.146 84.8381 333.117 84.531 332.172 83.9291L326.803 92.3657C329.4 94.0182 332.3 94.8381 335.381 94.8381V84.8381ZM332.207 83.9517C331.317 83.375 330.502 82.4962 329.819 81.1084L320.847 85.5252C322.225 88.3239 324.18 90.6656 326.768 92.3432L332.207 83.9517ZM329.859 81.1911C329.227 79.8469 328.836 78.1331 328.836 75.926H318.836C318.836 79.3225 319.442 82.5358 320.807 85.4425L329.859 81.1911ZM348.351 75.926C348.351 73.2325 347.577 70.4943 345.495 68.3429L338.309 75.2971C338.27 75.2565 338.261 75.2219 338.274 75.2593C338.294 75.3151 338.351 75.5142 338.351 75.926H348.351ZM345.553 68.4042C343.66 66.3805 341.172 65.3225 338.424 65.3225V75.3225C338.469 75.3225 338.477 75.3264 338.458 75.3226C338.437 75.3184 338.4 75.3087 338.355 75.2893C338.31 75.2699 338.274 75.2482 338.25 75.2314C338.227 75.2152 338.229 75.2122 338.251 75.2358L345.553 68.4042ZM338.424 65.3225C335.68 65.3225 333.164 66.3543 331.246 68.4042L338.549 75.2358C338.566 75.2176 338.563 75.224 338.538 75.2419C338.512 75.2604 338.476 75.2814 338.434 75.2991C338.393 75.3167 338.362 75.3239 338.352 75.3259C338.343 75.3277 338.364 75.3225 338.424 75.3225V65.3225ZM331.303 68.3449C329.21 70.5102 328.497 73.2838 328.497 75.926H338.497C338.497 75.4706 338.558 75.2483 338.579 75.1856C338.593 75.1436 338.575 75.2096 338.493 75.2951L331.303 68.3449ZM328.497 75.926C328.497 78.5827 329.231 81.2733 331.193 83.4379L338.603 76.7227C338.621 76.7426 338.61 76.7459 338.585 76.6712C338.554 76.5807 338.497 76.3526 338.497 75.926H328.497ZM331.246 83.4961C333.164 85.546 335.68 86.5778 338.424 86.5778V76.5778C338.364 76.5778 338.343 76.5726 338.352 76.5744C338.362 76.5764 338.393 76.5836 338.434 76.6012C338.476 76.6189 338.512 76.6399 338.538 76.6584C338.563 76.6764 338.566 76.6827 338.549 76.6645L331.246 83.4961ZM338.424 86.5778C341.172 86.5778 343.66 85.5198 345.553 83.4961L338.251 76.6645C338.229 76.6881 338.227 76.6852 338.25 76.6689C338.274 76.6521 338.31 76.6304 338.355 76.611C338.4 76.5917 338.437 76.5819 338.458 76.5778C338.477 76.5739 338.469 76.5778 338.424 76.5778V86.5778ZM345.495 83.5574C347.593 81.3894 348.351 78.6224 348.351 75.926H338.351C338.351 76.3637 338.291 76.5801 338.268 76.6461C338.252 76.6928 338.26 76.654 338.309 76.6032L345.495 83.5574ZM367.682 53.7535H372.682V48.7535H367.682V53.7535ZM367.682 89.5V94.5H372.682V89.5H367.682ZM358.214 89.5H353.214V94.5H358.214V89.5ZM358.214 53.7535V48.7535H353.214V53.7535H358.214ZM362.682 53.7535V89.5H372.682V53.7535H362.682ZM367.682 84.5H358.214V94.5H367.682V84.5ZM363.214 89.5V53.7535H353.214V89.5H363.214ZM358.214 58.7535H367.682V48.7535H358.214V58.7535ZM382.542 53.7535H387.542V48.7535H382.542V53.7535ZM382.542 89.5V94.5H387.542V89.5H382.542ZM373.074 89.5H368.074V94.5H373.074V89.5ZM373.074 53.7535V48.7535H368.074V53.7535H373.074ZM377.542 53.7535V89.5H387.542V53.7535H377.542ZM382.542 84.5H373.074V94.5H382.542V84.5ZM378.074 89.5V53.7535H368.074V89.5H378.074ZM373.074 58.7535H382.542V48.7535H373.074V58.7535Z" fill="black" mask="url(#path-3-outside-1_276_47389)"/>
</g>
<defs>
<filter id="filter0_d_276_47389" x="0.626373" y="0" width="452.528" height="165.714" filterUnits="userSpaceOnUse" color-interpolation-filters="sRGB">
<feFlood flood-opacity="0" result="BackgroundImageFix"/>
<feColorMatrix in="SourceAlpha" type="matrix" values="0 0 0 0 0 0 0 0 0 0 0 0 0 0 0 0 0 0 127 0" result="hardAlpha"/>
<feOffset dy="14.3407"/>
<feGaussianBlur stdDeviation="3.18681"/>
<feComposite in2="hardAlpha" operator="out"/>
<feColorMatrix type="matrix" values="0 0 0 0 0.976667 0 0 0 0 0.953878 0 0 0 0 0.953878 0 0 0 0.25 0"/>
<feBlend mode="normal" in2="BackgroundImageFix" result="effect1_dropShadow_276_47389"/>
<feBlend mode="normal" in="SourceGraphic" in2="effect1_dropShadow_276_47389" result="shape"/>
</filter>
</defs>
</svg>
