<svg width="19" height="17" viewBox="0 0 19 17" fill="none" xmlns="http://www.w3.org/2000/svg">
<path d="M0.714801 7.3481C1.31779 6.07649 2.46634 5.21507 3.55747 4.38647C3.4098 6.08059 3.37697 7.90597 4.36965 9.37448C5.48949 11.2778 7.65124 12.2336 9.78837 12.4058C8.68904 13.9277 7.60612 15.4659 6.5273 17.0001C5.05879 16.8073 3.53696 16.4545 2.40071 15.4413C0.0338667 13.5749 -0.692177 10.0062 0.714801 7.3481Z" fill="white"/>
<path d="M3.65582 4.47282C4.4475 2.12239 6.53952 0.157544 9.09505 0.0426887C12.2495 -0.0475548 15.408 0.0385882 18.5665 0.00577243C18.5296 4.02161 18.6403 8.03744 18.5173 12.0492C18.3368 14.6416 15.9412 16.5285 13.4472 16.6885C13.4226 12.6193 13.4514 8.55019 13.4308 4.47693C10.1739 4.48513 6.91279 4.49743 3.65582 4.47282Z" fill="#000814"/>
</svg>
