<svg width="377" height="823" viewBox="0 0 377 823" fill="none" xmlns="http://www.w3.org/2000/svg">
<rect x="-338" y="-19" width="1398" height="841" fill="url(#paint0_linear_230_10894)"/>
<g opacity="0.5">
<path d="M105.826 356.717L101.111 355.858L99.0297 367.283L103.745 368.142L105.826 356.717ZM-197.399 828.13L-192.684 828.989L-190.603 817.564L-195.317 816.705L-197.399 828.13ZM102.2 360.936L-194.229 821.783L-193.773 823.911L102.656 363.064L102.2 360.936Z" fill="white"/>
<path d="M109.928 356.543L105.34 355.895L103.705 367.457L108.293 368.105L109.928 356.543ZM-159.059 828.304L-154.471 828.952L-152.836 817.39L-157.424 816.742L-159.059 828.304ZM106.561 360.943L-156.203 821.79L-155.692 823.905L107.072 363.057L106.561 360.943Z" fill="white"/>
<path d="M114.052 356.4L109.561 355.938L108.36 367.6L112.85 368.062L114.052 356.4ZM-125.873 828.447L-121.382 828.909L-120.181 817.248L-124.672 816.785L-125.873 828.447ZM110.921 360.95L-123.312 821.797L-122.742 823.897L111.49 363.05L110.921 360.95Z" fill="white"/>
<path d="M118.194 356.282L113.771 355.989L112.993 367.718L117.416 368.011L118.194 356.282ZM-96.619 828.565L-92.1958 828.858L-91.4178 817.129L-95.841 816.836L-96.619 828.565ZM115.278 360.959L-94.3341 821.806L-93.7027 823.888L115.909 363.041L115.278 360.959Z" fill="white"/>
<path d="M122.354 356.184L117.97 356.049L117.608 367.816L121.993 367.951L122.354 356.184ZM-70.4246 828.663L-66.0402 828.798L-65.6786 817.031L-70.0629 816.897L-70.4246 828.663ZM119.633 360.969L-68.4 821.816L-67.7032 823.878L120.33 363.031L119.633 360.969Z" fill="white"/>
<path d="M126.531 356.102L122.157 356.121L122.209 367.898L126.582 367.879L126.531 356.102ZM-46.6521 828.745L-42.2783 828.726L-42.3299 816.949L-46.7037 816.968L-46.6521 828.745ZM123.986 360.982L-44.8742 821.829L-44.1077 823.865L124.753 363.018L123.986 360.982Z" fill="white"/>
<path d="M130.721 356.033L126.329 356.207L126.795 367.967L131.186 367.793L130.721 356.033ZM-24.8247 828.814L-20.4333 828.64L-20.8986 816.88L-25.29 817.054L-24.8247 828.814ZM128.337 360.997L-23.2822 821.844L-22.441 823.85L129.178 363.003L128.337 360.997Z" fill="white"/>
<path d="M134.924 355.975L130.486 356.31L131.369 368.025L135.807 367.69L134.924 355.975ZM-4.57654 828.872L-0.139069 828.537L-1.0221 816.822L-5.45956 817.157L-4.57654 828.872ZM132.686 361.014L-3.26008 821.861L-2.33855 823.833L133.607 362.986L132.686 361.014Z" fill="white"/>
<path d="M139.137 355.926L134.624 356.434L135.933 368.074L140.445 367.566L139.137 355.926ZM14.3768 828.921L18.8893 828.413L17.5808 816.773L13.0684 817.281L14.3768 828.921ZM137.031 361.036L15.4747 821.883L16.4829 823.811L138.039 362.964L137.031 361.036Z" fill="white"/>
<path d="M143.359 355.885L138.742 356.584L140.487 368.115L145.104 367.416L143.359 355.885ZM32.263 828.962L36.8799 828.263L35.1351 816.732L30.5182 817.431L32.263 828.962ZM141.372 361.062L33.1481 821.909L34.25 823.785L142.474 362.938L141.372 361.062Z" fill="white"/>
<path d="M147.59 355.85L142.838 356.766L145.033 368.15L149.785 367.234L147.59 355.85ZM49.2643 828.997L54.0156 828.081L51.8203 816.697L47.069 817.613L49.2643 828.997ZM145.71 361.094L49.9407 821.941L51.1439 823.754L146.913 362.906L145.71 361.094Z" fill="white"/>
<path d="M151.827 355.821L146.911 356.99L149.573 368.179L154.489 367.01L151.827 355.821ZM65.5317 829.026L70.4474 827.857L67.7855 816.668L62.8698 817.837L65.5317 829.026ZM150.044 361.132L66.0023 821.979L67.3148 823.715L151.356 362.868L150.044 361.132Z" fill="white"/>
<path d="M156.07 355.796L150.961 357.265L154.107 368.204L159.216 366.735L156.07 355.796ZM81.1895 829.051L86.2984 827.582L83.1528 816.643L78.0439 818.112L81.1895 829.051ZM154.374 361.18L81.4563 822.027L82.886 823.667L155.803 362.82L154.374 361.18Z" fill="white"/>
<path d="M160.318 355.775L154.991 357.603L158.636 368.225L163.963 366.397L160.318 355.775ZM96.3447 829.072L101.672 827.244L98.0275 816.622L92.7001 818.45L96.3447 829.072ZM158.7 361.238L96.4091 822.086L97.9631 823.609L160.254 362.762L158.7 361.238Z" fill="white"/>
<path d="M164.57 355.758L159.006 358.019L163.16 368.242L168.724 365.981L164.57 355.758ZM111.087 829.089L116.652 826.828L112.498 816.606L106.934 818.866L111.087 829.089ZM163.024 361.31L110.951 822.158L112.634 823.537L164.707 362.69L163.024 361.31Z" fill="white"/>
<path d="M168.825 355.745L163.019 358.526L167.68 368.255L173.486 365.474L168.825 355.745ZM125.497 829.102L131.303 826.321L126.643 816.592L120.836 819.374L125.497 829.102ZM167.346 361.398L125.163 822.245L126.976 823.449L169.159 362.602L167.346 361.398Z" fill="white"/>
<path d="M173.084 355.734L167.051 359.137L172.199 368.266L178.232 364.863L173.084 355.734ZM139.647 829.113L145.68 825.711L140.532 816.581L134.499 819.984L139.647 829.113ZM171.673 361.504L139.121 822.351L141.058 823.343L173.61 362.496L171.673 361.504Z" fill="white"/>
<path d="M177.344 355.727L171.126 359.853L176.715 368.273L182.932 364.147L177.344 355.727ZM153.599 829.121L159.816 824.994L154.228 816.574L148.01 820.7L153.599 829.121ZM176.007 361.628L152.891 822.475L154.936 823.219L178.052 362.372L176.007 361.628Z" fill="white"/>
<path d="M181.606 355.721L175.279 360.666L181.229 368.279L187.555 363.334L181.606 355.721ZM167.413 829.126L173.739 824.181L167.79 816.569L161.463 821.513L167.413 829.126ZM180.354 361.769L166.538 822.616L168.665 823.078L182.481 362.231L180.354 361.769Z" fill="white"/>
<path d="M185.869 355.719L179.541 361.547L185.744 368.281L192.071 362.453L185.869 355.719ZM181.147 829.127L187.475 823.3L181.272 816.565L174.945 822.393L181.147 829.127ZM184.721 361.922L180.125 822.768L182.295 822.925L186.891 362.078L184.721 361.922Z" fill="white"/>
<path d="M190.132 355.719L183.93 362.453L190.257 368.281L196.46 361.547L190.132 355.719ZM194.854 829.127L201.056 822.393L194.729 816.565L188.526 823.3L194.854 829.127ZM189.11 362.078L193.706 822.925L195.876 822.768L191.28 361.922L189.11 362.078Z" fill="white"/>
<path d="M194.395 355.721L188.445 363.334L194.771 368.279L200.721 360.666L194.395 355.721ZM208.587 829.126L214.537 821.513L208.211 816.569L202.261 824.181L208.587 829.126ZM193.52 362.231L207.336 823.078L209.462 822.616L195.646 361.769L193.52 362.231Z" fill="white"/>
<path d="M198.656 355.727L193.068 364.147L199.285 368.273L204.874 359.853L198.656 355.727ZM222.401 829.121L227.99 820.7L221.772 816.574L216.184 824.994L222.401 829.121ZM197.948 362.372L221.064 823.219L223.109 822.475L199.993 361.628L197.948 362.372Z" fill="white"/>
<path d="M202.917 355.734L197.769 364.863L203.802 368.266L208.95 359.137L202.917 355.734ZM236.354 829.113L241.502 819.984L235.469 816.581L230.321 825.711L236.354 829.113ZM202.391 362.496L234.943 823.343L236.88 822.351L204.328 361.504L202.391 362.496Z" fill="white"/>
<path d="M207.175 355.745L202.514 365.474L208.32 368.255L212.981 358.526L207.175 355.745ZM250.503 829.102L255.164 819.374L249.358 816.592L244.697 826.321L250.503 829.102ZM206.841 362.602L249.024 823.449L250.837 822.245L208.654 361.398L206.841 362.602Z" fill="white"/>
<path d="M211.43 355.758L207.276 365.981L212.841 368.242L216.994 358.019L211.43 355.758ZM264.913 829.089L269.067 818.866L263.503 816.606L259.349 826.828L264.913 829.089ZM211.294 362.69L263.366 823.537L265.049 822.158L212.977 361.31L211.294 362.69Z" fill="white"/>
<path d="M215.683 355.775L212.038 366.397L217.365 368.225L221.01 357.603L215.683 355.775ZM279.656 829.072L283.301 818.45L277.974 816.622L274.329 827.244L279.656 829.072ZM215.747 362.762L278.038 823.609L279.592 822.086L217.301 361.238L215.747 362.762Z" fill="white"/>
<path d="M219.931 355.796L216.786 366.735L221.895 368.204L225.04 357.265L219.931 355.796ZM294.812 829.051L297.958 818.112L292.849 816.643L289.703 827.582L294.812 829.051ZM220.198 362.82L293.115 823.667L294.545 822.027L221.628 361.18L220.198 362.82Z" fill="white"/>
<path d="M224.174 355.821L221.512 367.01L226.428 368.179L229.09 356.99L224.174 355.821ZM310.469 829.026L313.131 817.837L308.215 816.668L305.554 827.857L310.469 829.026ZM224.645 362.868L308.686 823.715L309.999 821.979L225.957 361.132L224.645 362.868Z" fill="white"/>
<path d="M228.411 355.85L226.216 367.234L230.967 368.15L233.162 356.766L228.411 355.85ZM326.736 828.997L328.932 817.613L324.18 816.697L321.985 828.081L326.736 828.997ZM229.087 362.906L324.857 823.754L326.06 821.941L230.291 361.094L229.087 362.906Z" fill="white"/>
<path d="M232.641 355.885L230.896 367.416L235.513 368.115L237.258 356.584L232.641 355.885ZM343.737 828.962L345.482 817.431L340.865 816.732L339.121 828.263L343.737 828.962ZM233.526 362.938L341.75 823.785L342.852 821.909L234.628 361.062L233.526 362.938Z" fill="white"/>
<path d="M236.863 355.926L235.555 367.566L240.067 368.074L241.376 356.434L236.863 355.926ZM361.623 828.921L362.932 817.281L358.419 816.773L357.111 828.413L361.623 828.921ZM237.961 362.964L359.517 823.811L360.525 821.883L238.969 361.036L237.961 362.964Z" fill="white"/>
<path d="M241.077 355.975L240.194 367.69L244.631 368.025L245.514 356.31L241.077 355.975ZM380.577 828.872L381.46 817.157L377.023 816.822L376.14 828.537L380.577 828.872ZM242.393 362.986L378.339 823.833L379.261 821.861L243.315 361.014L242.393 362.986Z" fill="white"/>
<path d="M245.279 356.033L244.813 367.793L249.205 367.967L249.67 356.207L245.279 356.033ZM400.824 828.814L401.289 817.054L396.898 816.88L396.433 828.64L400.824 828.814ZM246.821 363.003L398.441 823.85L399.282 821.844L247.662 360.997L246.821 363.003Z" fill="white"/>
<path d="M249.47 356.102L249.418 367.879L253.792 367.898L253.844 356.121L249.47 356.102ZM422.653 828.745L422.704 816.968L418.33 816.949L418.279 828.726L422.653 828.745ZM251.248 363.018L420.108 823.865L420.875 821.829L252.014 360.982L251.248 363.018Z" fill="white"/>
<path d="M253.646 356.184L254.008 367.951L258.392 367.816L258.03 356.049L253.646 356.184ZM446.425 828.663L446.063 816.897L441.679 817.031L442.041 828.798L446.425 828.663ZM255.671 363.031L443.704 823.878L444.4 821.816L256.367 360.969L255.671 363.031Z" fill="white"/>
<path d="M257.806 356.282L258.584 368.011L263.007 367.718L262.229 355.989L257.806 356.282ZM472.62 828.565L471.842 816.836L467.418 817.129L468.196 828.858L472.62 828.565ZM260.091 363.041L469.703 823.888L470.335 821.806L260.722 360.959L260.091 363.041Z" fill="white"/>
<path d="M261.949 356.4L263.151 368.062L267.641 367.6L266.44 355.938L261.949 356.4ZM501.874 828.447L500.673 816.785L496.182 817.248L497.383 828.909L501.874 828.447ZM264.511 363.05L498.743 823.897L499.313 821.797L265.08 360.95L264.511 363.05Z" fill="white"/>
<path d="M266.072 356.543L267.706 368.105L272.294 367.457L270.66 355.895L266.072 356.543ZM535.058 828.304L533.424 816.742L528.836 817.39L530.471 828.952L535.058 828.304ZM268.927 363.057L531.691 823.905L532.203 821.79L269.439 360.943L268.927 363.057Z" fill="white"/>
<path d="M270.174 356.717L272.255 368.142L276.97 367.283L274.889 355.858L270.174 356.717ZM573.398 828.13L571.317 816.705L566.602 817.564L568.683 828.989L573.398 828.13ZM273.344 363.064L569.772 823.911L570.228 821.783L273.8 360.936L273.344 363.064Z" fill="white"/>
<path d="M96.1464 362L102.428 368.281L108.709 362L102.428 355.719L96.1464 362ZM279.852 362L273.571 355.719L267.289 362L273.571 368.281L279.852 362ZM102.428 363.088H273.571V360.912H102.428V363.088Z" fill="white"/>
<path d="M96.1464 362L102.428 368.281L108.709 362L102.428 355.719L96.1464 362ZM279.852 362L273.571 355.719L267.289 362L273.571 368.281L279.852 362ZM102.428 363.088H273.571V360.912H102.428V363.088Z" fill="white"/>
<path d="M96.1464 362L102.428 368.281L108.709 362L102.428 355.719L96.1464 362ZM279.852 362L273.571 355.719L267.289 362L273.571 368.281L279.852 362ZM102.428 363.088H273.571V360.912H102.428V363.088Z" fill="white"/>
<path d="M96.1464 362L102.428 368.281L108.709 362L102.428 355.719L96.1464 362ZM279.852 362L273.571 355.719L267.289 362L273.571 368.281L279.852 362ZM102.428 363.088H273.571V360.912H102.428V363.088Z" fill="white"/>
<path d="M96.1464 362L102.428 368.281L108.709 362L102.428 355.719L96.1464 362ZM279.852 362L273.571 355.719L267.289 362L273.571 368.281L279.852 362ZM102.428 363.088H273.571V360.912H102.428V363.088Z" fill="white"/>
<path d="M96.1464 362L102.428 368.281L108.709 362L102.428 355.719L96.1464 362ZM279.852 362L273.571 355.719L267.29 362L273.571 368.281L279.852 362ZM102.428 363.088H273.571V360.912H102.428V363.088Z" fill="white"/>
<path d="M96.1464 362L102.428 368.281L108.709 362L102.428 355.719L96.1464 362ZM279.853 362L273.572 355.719L267.291 362L273.572 368.281L279.853 362ZM102.428 363.088H273.572V360.912H102.428V363.088Z" fill="white"/>
<path d="M96.1454 362.002L102.427 368.283L108.708 362.002L102.427 355.721L96.1454 362.002ZM279.855 362.002L273.573 355.721L267.292 362.002L273.573 368.283L279.855 362.002ZM102.427 363.09H273.573V360.914H102.427V363.09Z" fill="white"/>
<path d="M96.1425 362.006L102.424 368.288L108.705 362.006L102.424 355.725L96.1425 362.006ZM279.857 362.006L273.576 355.725L267.295 362.006L273.576 368.288L279.857 362.006ZM102.424 363.094H273.576V360.918H102.424V363.094Z" fill="white"/>
<path d="M96.1371 362.016L102.418 368.297L108.7 362.016L102.418 355.734L96.1371 362.016ZM279.863 362.016L273.582 355.734L267.301 362.016L273.582 368.297L279.863 362.016ZM102.418 363.104H273.582V360.928H102.418V363.104Z" fill="white"/>
<path d="M96.1259 362.033L102.407 368.314L108.689 362.033L102.407 355.751L96.1259 362.033ZM279.875 362.033L273.593 355.751L267.312 362.033L273.593 368.314L279.875 362.033ZM102.407 363.121H273.593V360.945H102.407V363.121Z" fill="white"/>
<path d="M96.1049 362.064L102.386 368.346L108.668 362.064L102.386 355.783L96.1049 362.064ZM279.895 362.064L273.613 355.783L267.332 362.064L273.613 368.346L279.895 362.064ZM102.386 363.152H273.613V360.976H102.386V363.152Z" fill="white"/>
<path d="M96.0702 362.119L102.352 368.4L108.633 362.119L102.352 355.838L96.0702 362.119ZM279.931 362.119L273.649 355.838L267.368 362.119L273.649 368.4L279.931 362.119ZM102.352 363.207H273.649V361.031H102.352V363.207Z" fill="white"/>
<path d="M96.0111 362.211L102.292 368.493L108.574 362.211L102.292 355.93L96.0111 362.211ZM279.988 362.211L273.707 355.93L267.425 362.211L273.707 368.493L279.988 362.211ZM102.292 363.299H273.707V361.123H102.292V363.299Z" fill="white"/>
<path d="M95.9194 362.354L102.201 368.635L108.482 362.354L102.201 356.072L95.9194 362.354ZM280.08 362.354L273.799 356.072L267.518 362.354L273.799 368.635L280.08 362.354ZM102.201 363.441H273.799V361.266H102.201V363.441Z" fill="white"/>
<path d="M95.7787 362.573L102.06 368.855L108.341 362.573L102.06 356.292L95.7787 362.573ZM280.223 362.573L273.941 356.292L267.66 362.573L273.941 368.855L280.223 362.573ZM102.06 363.661H273.941V361.485H102.06V363.661Z" fill="white"/>
<path d="M95.5673 362.9L101.849 369.181L108.13 362.9L101.849 356.619L95.5673 362.9ZM280.433 362.9L274.151 356.619L267.87 362.9L274.151 369.181L280.433 362.9ZM101.849 363.988H274.151V361.812H101.849V363.988Z" fill="white"/>
<path d="M95.2611 363.377L101.542 369.658L107.824 363.377L101.542 357.096L95.2611 363.377ZM280.74 363.377L274.458 357.096L268.177 363.377L274.458 369.658L280.74 363.377ZM101.542 364.465H274.458V362.289H101.542V364.465Z" fill="white"/>
<path d="M94.8246 364.055L101.106 370.336L107.387 364.055L101.106 357.773L94.8246 364.055ZM281.175 364.055L274.894 357.773L268.612 364.055L274.894 370.336L281.175 364.055ZM101.106 365.143H274.894V362.967H101.106V365.143Z" fill="white"/>
<path d="M94.2162 365.001L100.498 371.282L106.779 365.001L100.498 358.72L94.2162 365.001ZM281.784 365.001L275.502 358.72L269.221 365.001L275.502 371.282L281.784 365.001ZM100.498 366.089H275.502V363.913H100.498V366.089Z" fill="white"/>
<path d="M93.3822 366.298L99.6636 372.58L105.945 366.298L99.6636 360.017L93.3822 366.298ZM282.618 366.298L276.336 360.017L270.055 366.298L276.336 372.58L282.618 366.298ZM99.6636 367.386H276.336V365.21H99.6636V367.386Z" fill="white"/>
<path d="M92.2563 368.047L98.5376 374.328L104.819 368.047L98.5376 361.766L92.2563 368.047ZM283.743 368.047L277.462 361.766L271.18 368.047L277.462 374.328L283.743 368.047ZM98.5376 369.135H277.462V366.959H98.5376V369.135Z" fill="white"/>
<path d="M90.7587 370.375L97.04 376.656L103.321 370.375L97.04 364.094L90.7587 370.375ZM285.24 370.375L278.959 364.094L272.678 370.375L278.959 376.656L285.24 370.375ZM97.04 371.463H278.959V369.287H97.04V371.463Z" fill="white"/>
<path d="M88.7929 373.434L95.0742 379.715L101.356 373.434L95.0742 367.153L88.7929 373.434ZM287.208 373.434L280.927 367.153L274.645 373.434L280.927 379.715L287.208 373.434ZM95.0742 374.522H280.927V372.346H95.0742V374.522Z" fill="white"/>
<path d="M86.2402 377.402L92.5215 383.683L98.8028 377.402L92.5215 371.121L86.2402 377.402ZM289.76 377.402L283.479 371.121L277.197 377.402L283.479 383.683L289.76 377.402ZM92.5215 378.49H283.479V376.314H92.5215V378.49Z" fill="white"/>
<path d="M82.9633 382.496L89.2446 388.777L95.526 382.496L89.2446 376.215L82.9633 382.496ZM293.037 382.496L286.756 376.215L280.474 382.496L286.756 388.777L293.037 382.496ZM89.2446 383.584H286.756V381.408H89.2446V383.584Z" fill="white"/>
<path d="M78.7973 388.971L85.0786 395.253L91.3599 388.971L85.0786 382.69L78.7973 388.971ZM297.201 388.971L290.92 382.69L284.639 388.971L290.92 395.253L297.201 388.971ZM85.0786 390.059H290.92V387.883H85.0786V390.059Z" fill="white"/>
<path d="M73.5522 397.128L79.8335 403.409L86.1148 397.128L79.8335 390.847L73.5522 397.128ZM302.448 397.128L296.167 390.847L289.885 397.128L296.167 403.409L302.448 397.128ZM79.8335 398.216H296.167V396.04H79.8335V398.216Z" fill="white"/>
<path d="M67.0019 407.311L73.2832 413.592L79.5645 407.311L73.2832 401.029L67.0019 407.311ZM308.999 407.311L302.718 401.029L296.436 407.311L302.718 413.592L308.999 407.311ZM73.2832 408.399H302.718V406.223H73.2832V408.399Z" fill="white"/>
<path d="M58.8871 419.928L65.1685 426.209L71.4498 419.928L65.1685 413.646L58.8871 419.928ZM317.115 419.928L310.833 413.646L304.552 419.928L310.833 426.209L317.115 419.928ZM65.1685 421.016H310.833V418.84H65.1685V421.016Z" fill="white"/>
<path d="M48.9062 435.442L55.1875 441.724L61.4688 435.442L55.1875 429.161L48.9062 435.442ZM327.093 435.442L320.812 429.161L314.531 435.442L320.812 441.724L327.093 435.442ZM55.1875 436.53H320.812V434.354H55.1875V436.53Z" fill="white"/>
<path d="M36.7182 454.391L42.9995 460.672L49.2808 454.391L42.9995 448.11L36.7182 454.391ZM339.282 454.391L333.001 448.11L326.719 454.391L333.001 460.672L339.282 454.391ZM42.9995 455.479H333.001V453.303H42.9995V455.479Z" fill="white"/>
<path d="M21.9281 477.387L28.2095 483.668L34.4908 477.387L28.2095 471.105L21.9281 477.387ZM354.073 477.387L347.791 471.105L341.51 477.387L347.791 483.668L354.073 477.387ZM28.2095 478.475H347.791V476.299H28.2095V478.475Z" fill="white"/>
<path d="M4.0883 505.121L10.3696 511.402L16.651 505.121L10.3696 498.839L4.0883 505.121ZM371.912 505.121L365.63 498.839L359.349 505.121L365.63 511.402L371.912 505.121ZM10.3696 506.209H365.63V504.033H10.3696V506.209Z" fill="white"/>
<path d="M-17.3067 538.383L-11.0254 544.664L-4.74406 538.383L-11.0254 532.101L-17.3067 538.383ZM393.307 538.383L387.026 532.101L380.744 538.383L387.026 544.664L393.307 538.383ZM-11.0254 539.471H387.026V537.295H-11.0254V539.471Z" fill="white"/>
<path d="M-42.8297 578.062L-36.5483 584.343L-30.267 578.062L-36.5483 571.78L-42.8297 578.062ZM418.831 578.062L412.549 571.78L406.268 578.062L412.549 584.343L418.831 578.062ZM-36.5483 579.149H412.549V576.974H-36.5483V579.149Z" fill="white"/>
<path d="M-73.1246 625.16L-66.8433 631.441L-60.5619 625.16L-66.8433 618.878L-73.1246 625.16ZM449.125 625.16L442.844 618.878L436.562 625.16L442.844 631.441L449.125 625.16ZM-66.8433 626.248H442.844V624.072H-66.8433V626.248Z" fill="white"/>
<path d="M-108.912 680.797L-102.63 687.079L-96.349 680.797L-102.63 674.516L-108.912 680.797ZM484.913 680.797L478.631 674.516L472.35 680.797L478.631 687.079L484.913 680.797ZM-102.63 681.885H478.631V679.709H-102.63V681.885Z" fill="white"/>
<path d="M-150.999 746.228L-144.717 752.509L-138.436 746.228L-144.717 739.947L-150.999 746.228ZM526.998 746.228L520.717 739.947L514.435 746.228L520.717 752.509L526.998 746.228ZM-144.717 747.316H520.717V745.14H-144.717V747.316Z" fill="white"/>
<path d="M-200.281 822.846L-194 829.128L-187.719 822.846L-194 816.565L-200.281 822.846ZM576.281 822.846L570 816.565L563.718 822.846L570 829.128L576.281 822.846ZM-194 823.934H570V821.758H-194V823.934Z" fill="white"/>
</g>
<g opacity="0.5">
<path d="M105.826 356.717L101.111 355.858L99.0297 367.283L103.745 368.142L105.826 356.717ZM-197.399 828.13L-192.684 828.989L-190.603 817.564L-195.317 816.705L-197.399 828.13ZM102.2 360.936L-194.229 821.783L-193.773 823.911L102.656 363.064L102.2 360.936Z" fill="white"/>
<path d="M109.928 356.543L105.34 355.895L103.705 367.457L108.293 368.105L109.928 356.543ZM-159.059 828.304L-154.471 828.952L-152.836 817.39L-157.424 816.742L-159.059 828.304ZM106.561 360.943L-156.203 821.79L-155.692 823.905L107.072 363.057L106.561 360.943Z" fill="white"/>
<path d="M114.052 356.4L109.561 355.938L108.36 367.6L112.85 368.062L114.052 356.4ZM-125.873 828.447L-121.382 828.909L-120.181 817.248L-124.672 816.785L-125.873 828.447ZM110.921 360.95L-123.312 821.797L-122.742 823.897L111.49 363.05L110.921 360.95Z" fill="white"/>
<path d="M118.194 356.282L113.771 355.989L112.993 367.718L117.416 368.011L118.194 356.282ZM-96.619 828.565L-92.1958 828.858L-91.4178 817.129L-95.841 816.836L-96.619 828.565ZM115.278 360.959L-94.3341 821.806L-93.7027 823.888L115.909 363.041L115.278 360.959Z" fill="white"/>
<path d="M122.354 356.184L117.97 356.049L117.608 367.816L121.993 367.951L122.354 356.184ZM-70.4246 828.663L-66.0402 828.798L-65.6786 817.031L-70.0629 816.897L-70.4246 828.663ZM119.633 360.969L-68.4 821.816L-67.7032 823.878L120.33 363.031L119.633 360.969Z" fill="white"/>
<path d="M126.531 356.102L122.157 356.121L122.209 367.898L126.582 367.879L126.531 356.102ZM-46.6521 828.745L-42.2783 828.726L-42.3299 816.949L-46.7037 816.968L-46.6521 828.745ZM123.986 360.982L-44.8742 821.829L-44.1077 823.865L124.753 363.018L123.986 360.982Z" fill="white"/>
<path d="M130.721 356.033L126.329 356.207L126.795 367.967L131.186 367.793L130.721 356.033ZM-24.8247 828.814L-20.4333 828.64L-20.8986 816.88L-25.29 817.054L-24.8247 828.814ZM128.337 360.997L-23.2822 821.844L-22.441 823.85L129.178 363.003L128.337 360.997Z" fill="white"/>
<path d="M134.924 355.975L130.486 356.31L131.369 368.025L135.807 367.69L134.924 355.975ZM-4.57654 828.872L-0.139069 828.537L-1.0221 816.822L-5.45956 817.157L-4.57654 828.872ZM132.686 361.014L-3.26008 821.861L-2.33855 823.833L133.607 362.986L132.686 361.014Z" fill="white"/>
<path d="M139.137 355.926L134.624 356.434L135.933 368.074L140.445 367.566L139.137 355.926ZM14.3768 828.921L18.8893 828.413L17.5808 816.773L13.0684 817.281L14.3768 828.921ZM137.031 361.036L15.4747 821.883L16.4829 823.811L138.039 362.964L137.031 361.036Z" fill="white"/>
<path d="M143.359 355.885L138.742 356.584L140.487 368.115L145.104 367.416L143.359 355.885ZM32.263 828.962L36.8799 828.263L35.1351 816.732L30.5182 817.431L32.263 828.962ZM141.372 361.062L33.1481 821.909L34.25 823.785L142.474 362.938L141.372 361.062Z" fill="white"/>
<path d="M147.59 355.85L142.838 356.766L145.033 368.15L149.785 367.234L147.59 355.85ZM49.2643 828.997L54.0156 828.081L51.8203 816.697L47.069 817.613L49.2643 828.997ZM145.71 361.094L49.9407 821.941L51.1439 823.754L146.913 362.906L145.71 361.094Z" fill="white"/>
<path d="M151.827 355.821L146.911 356.99L149.573 368.179L154.489 367.01L151.827 355.821ZM65.5317 829.026L70.4474 827.857L67.7855 816.668L62.8698 817.837L65.5317 829.026ZM150.044 361.132L66.0023 821.979L67.3148 823.715L151.356 362.868L150.044 361.132Z" fill="white"/>
<path d="M156.07 355.796L150.961 357.265L154.107 368.204L159.216 366.735L156.07 355.796ZM81.1895 829.051L86.2984 827.582L83.1528 816.643L78.0439 818.112L81.1895 829.051ZM154.374 361.18L81.4563 822.027L82.886 823.667L155.803 362.82L154.374 361.18Z" fill="white"/>
<path d="M160.318 355.775L154.991 357.603L158.636 368.225L163.963 366.397L160.318 355.775ZM96.3447 829.072L101.672 827.244L98.0275 816.622L92.7001 818.45L96.3447 829.072ZM158.7 361.238L96.4091 822.086L97.9631 823.609L160.254 362.762L158.7 361.238Z" fill="white"/>
<path d="M164.57 355.758L159.006 358.019L163.16 368.242L168.724 365.981L164.57 355.758ZM111.087 829.089L116.652 826.828L112.498 816.606L106.934 818.866L111.087 829.089ZM163.024 361.31L110.951 822.158L112.634 823.537L164.707 362.69L163.024 361.31Z" fill="white"/>
<path d="M168.825 355.745L163.019 358.526L167.68 368.255L173.486 365.474L168.825 355.745ZM125.497 829.102L131.303 826.321L126.643 816.592L120.836 819.374L125.497 829.102ZM167.346 361.398L125.163 822.245L126.976 823.449L169.159 362.602L167.346 361.398Z" fill="white"/>
<path d="M173.084 355.734L167.051 359.137L172.199 368.266L178.232 364.863L173.084 355.734ZM139.647 829.113L145.68 825.711L140.532 816.581L134.499 819.984L139.647 829.113ZM171.673 361.504L139.121 822.351L141.058 823.343L173.61 362.496L171.673 361.504Z" fill="white"/>
<path d="M177.344 355.727L171.126 359.853L176.715 368.273L182.932 364.147L177.344 355.727ZM153.599 829.121L159.816 824.994L154.228 816.574L148.01 820.7L153.599 829.121ZM176.007 361.628L152.891 822.475L154.936 823.219L178.052 362.372L176.007 361.628Z" fill="white"/>
<path d="M181.606 355.721L175.279 360.666L181.229 368.279L187.555 363.334L181.606 355.721ZM167.413 829.126L173.739 824.181L167.79 816.569L161.463 821.513L167.413 829.126ZM180.354 361.769L166.538 822.616L168.665 823.078L182.481 362.231L180.354 361.769Z" fill="white"/>
<path d="M185.869 355.719L179.541 361.547L185.744 368.281L192.071 362.453L185.869 355.719ZM181.147 829.127L187.475 823.3L181.272 816.565L174.945 822.393L181.147 829.127ZM184.721 361.922L180.125 822.768L182.295 822.925L186.891 362.078L184.721 361.922Z" fill="white"/>
<path d="M190.132 355.719L183.93 362.453L190.257 368.281L196.46 361.547L190.132 355.719ZM194.854 829.127L201.056 822.393L194.729 816.565L188.526 823.3L194.854 829.127ZM189.11 362.078L193.706 822.925L195.876 822.768L191.28 361.922L189.11 362.078Z" fill="white"/>
<path d="M194.395 355.721L188.445 363.334L194.771 368.279L200.721 360.666L194.395 355.721ZM208.587 829.126L214.537 821.513L208.211 816.569L202.261 824.181L208.587 829.126ZM193.52 362.231L207.336 823.078L209.462 822.616L195.646 361.769L193.52 362.231Z" fill="white"/>
<path d="M198.656 355.727L193.068 364.147L199.285 368.273L204.874 359.853L198.656 355.727ZM222.401 829.121L227.99 820.7L221.772 816.574L216.184 824.994L222.401 829.121ZM197.948 362.372L221.064 823.219L223.109 822.475L199.993 361.628L197.948 362.372Z" fill="white"/>
<path d="M202.917 355.734L197.769 364.863L203.802 368.266L208.95 359.137L202.917 355.734ZM236.354 829.113L241.502 819.984L235.469 816.581L230.321 825.711L236.354 829.113ZM202.391 362.496L234.943 823.343L236.88 822.351L204.328 361.504L202.391 362.496Z" fill="white"/>
<path d="M207.175 355.745L202.514 365.474L208.32 368.255L212.981 358.526L207.175 355.745ZM250.503 829.102L255.164 819.374L249.358 816.592L244.697 826.321L250.503 829.102ZM206.841 362.602L249.024 823.449L250.837 822.245L208.654 361.398L206.841 362.602Z" fill="white"/>
<path d="M211.43 355.758L207.276 365.981L212.841 368.242L216.994 358.019L211.43 355.758ZM264.913 829.089L269.067 818.866L263.503 816.606L259.349 826.828L264.913 829.089ZM211.294 362.69L263.366 823.537L265.049 822.158L212.977 361.31L211.294 362.69Z" fill="white"/>
<path d="M215.683 355.775L212.038 366.397L217.365 368.225L221.01 357.603L215.683 355.775ZM279.656 829.072L283.301 818.45L277.974 816.622L274.329 827.244L279.656 829.072ZM215.747 362.762L278.038 823.609L279.592 822.086L217.301 361.238L215.747 362.762Z" fill="white"/>
<path d="M219.931 355.796L216.786 366.735L221.895 368.204L225.04 357.265L219.931 355.796ZM294.812 829.051L297.958 818.112L292.849 816.643L289.703 827.582L294.812 829.051ZM220.198 362.82L293.115 823.667L294.545 822.027L221.628 361.18L220.198 362.82Z" fill="white"/>
<path d="M224.174 355.821L221.512 367.01L226.428 368.179L229.09 356.99L224.174 355.821ZM310.469 829.026L313.131 817.837L308.215 816.668L305.554 827.857L310.469 829.026ZM224.645 362.868L308.686 823.715L309.999 821.979L225.957 361.132L224.645 362.868Z" fill="white"/>
<path d="M228.411 355.85L226.216 367.234L230.967 368.15L233.162 356.766L228.411 355.85ZM326.736 828.997L328.932 817.613L324.18 816.697L321.985 828.081L326.736 828.997ZM229.087 362.906L324.857 823.754L326.06 821.941L230.291 361.094L229.087 362.906Z" fill="white"/>
<path d="M232.641 355.885L230.896 367.416L235.513 368.115L237.258 356.584L232.641 355.885ZM343.737 828.962L345.482 817.431L340.865 816.732L339.121 828.263L343.737 828.962ZM233.526 362.938L341.75 823.785L342.852 821.909L234.628 361.062L233.526 362.938Z" fill="white"/>
<path d="M236.863 355.926L235.555 367.566L240.067 368.074L241.376 356.434L236.863 355.926ZM361.623 828.921L362.932 817.281L358.419 816.773L357.111 828.413L361.623 828.921ZM237.961 362.964L359.517 823.811L360.525 821.883L238.969 361.036L237.961 362.964Z" fill="white"/>
<path d="M241.077 355.975L240.194 367.69L244.631 368.025L245.514 356.31L241.077 355.975ZM380.577 828.872L381.46 817.157L377.023 816.822L376.14 828.537L380.577 828.872ZM242.393 362.986L378.339 823.833L379.261 821.861L243.315 361.014L242.393 362.986Z" fill="white"/>
<path d="M245.279 356.033L244.813 367.793L249.205 367.967L249.67 356.207L245.279 356.033ZM400.824 828.814L401.289 817.054L396.898 816.88L396.433 828.64L400.824 828.814ZM246.821 363.003L398.441 823.85L399.282 821.844L247.662 360.997L246.821 363.003Z" fill="white"/>
<path d="M249.47 356.102L249.418 367.879L253.792 367.898L253.844 356.121L249.47 356.102ZM422.653 828.745L422.704 816.968L418.33 816.949L418.279 828.726L422.653 828.745ZM251.248 363.018L420.108 823.865L420.875 821.829L252.014 360.982L251.248 363.018Z" fill="white"/>
<path d="M253.646 356.184L254.008 367.951L258.392 367.816L258.03 356.049L253.646 356.184ZM446.425 828.663L446.063 816.897L441.679 817.031L442.041 828.798L446.425 828.663ZM255.671 363.031L443.704 823.878L444.4 821.816L256.367 360.969L255.671 363.031Z" fill="white"/>
<path d="M257.806 356.282L258.584 368.011L263.007 367.718L262.229 355.989L257.806 356.282ZM472.62 828.565L471.842 816.836L467.418 817.129L468.196 828.858L472.62 828.565ZM260.091 363.041L469.703 823.888L470.335 821.806L260.722 360.959L260.091 363.041Z" fill="white"/>
<path d="M261.949 356.4L263.151 368.062L267.641 367.6L266.44 355.938L261.949 356.4ZM501.874 828.447L500.673 816.785L496.182 817.248L497.383 828.909L501.874 828.447ZM264.511 363.05L498.743 823.897L499.313 821.797L265.08 360.95L264.511 363.05Z" fill="white"/>
<path d="M266.072 356.543L267.706 368.105L272.294 367.457L270.66 355.895L266.072 356.543ZM535.058 828.304L533.424 816.742L528.836 817.39L530.471 828.952L535.058 828.304ZM268.927 363.057L531.691 823.905L532.203 821.79L269.439 360.943L268.927 363.057Z" fill="white"/>
<path d="M270.174 356.717L272.255 368.142L276.97 367.283L274.889 355.858L270.174 356.717ZM573.398 828.13L571.317 816.705L566.602 817.564L568.683 828.989L573.398 828.13ZM273.344 363.064L569.772 823.911L570.228 821.783L273.8 360.936L273.344 363.064Z" fill="white"/>
<path d="M96.1464 362L102.428 368.281L108.709 362L102.428 355.719L96.1464 362ZM279.852 362L273.571 355.719L267.289 362L273.571 368.281L279.852 362ZM102.428 363.088H273.571V360.912H102.428V363.088Z" fill="white"/>
<path d="M96.1464 362L102.428 368.281L108.709 362L102.428 355.719L96.1464 362ZM279.852 362L273.571 355.719L267.289 362L273.571 368.281L279.852 362ZM102.428 363.088H273.571V360.912H102.428V363.088Z" fill="white"/>
<path d="M96.1464 362L102.428 368.281L108.709 362L102.428 355.719L96.1464 362ZM279.852 362L273.571 355.719L267.289 362L273.571 368.281L279.852 362ZM102.428 363.088H273.571V360.912H102.428V363.088Z" fill="white"/>
<path d="M96.1464 362L102.428 368.281L108.709 362L102.428 355.719L96.1464 362ZM279.852 362L273.571 355.719L267.289 362L273.571 368.281L279.852 362ZM102.428 363.088H273.571V360.912H102.428V363.088Z" fill="white"/>
<path d="M96.1464 362L102.428 368.281L108.709 362L102.428 355.719L96.1464 362ZM279.852 362L273.571 355.719L267.289 362L273.571 368.281L279.852 362ZM102.428 363.088H273.571V360.912H102.428V363.088Z" fill="white"/>
<path d="M96.1464 362L102.428 368.281L108.709 362L102.428 355.719L96.1464 362ZM279.852 362L273.571 355.719L267.29 362L273.571 368.281L279.852 362ZM102.428 363.088H273.571V360.912H102.428V363.088Z" fill="white"/>
<path d="M96.1464 362L102.428 368.281L108.709 362L102.428 355.719L96.1464 362ZM279.853 362L273.572 355.719L267.291 362L273.572 368.281L279.853 362ZM102.428 363.088H273.572V360.912H102.428V363.088Z" fill="white"/>
<path d="M96.1454 362.002L102.427 368.283L108.708 362.002L102.427 355.721L96.1454 362.002ZM279.855 362.002L273.573 355.721L267.292 362.002L273.573 368.283L279.855 362.002ZM102.427 363.09H273.573V360.914H102.427V363.09Z" fill="white"/>
<path d="M96.1425 362.006L102.424 368.288L108.705 362.006L102.424 355.725L96.1425 362.006ZM279.857 362.006L273.576 355.725L267.295 362.006L273.576 368.288L279.857 362.006ZM102.424 363.094H273.576V360.918H102.424V363.094Z" fill="white"/>
<path d="M96.1371 362.016L102.418 368.297L108.7 362.016L102.418 355.734L96.1371 362.016ZM279.863 362.016L273.582 355.734L267.301 362.016L273.582 368.297L279.863 362.016ZM102.418 363.104H273.582V360.928H102.418V363.104Z" fill="white"/>
<path d="M96.1259 362.033L102.407 368.314L108.689 362.033L102.407 355.751L96.1259 362.033ZM279.875 362.033L273.593 355.751L267.312 362.033L273.593 368.314L279.875 362.033ZM102.407 363.121H273.593V360.945H102.407V363.121Z" fill="white"/>
<path d="M96.1049 362.064L102.386 368.346L108.668 362.064L102.386 355.783L96.1049 362.064ZM279.895 362.064L273.613 355.783L267.332 362.064L273.613 368.346L279.895 362.064ZM102.386 363.152H273.613V360.976H102.386V363.152Z" fill="white"/>
<path d="M96.0702 362.119L102.352 368.4L108.633 362.119L102.352 355.838L96.0702 362.119ZM279.931 362.119L273.649 355.838L267.368 362.119L273.649 368.4L279.931 362.119ZM102.352 363.207H273.649V361.031H102.352V363.207Z" fill="white"/>
<path d="M96.0111 362.211L102.292 368.493L108.574 362.211L102.292 355.93L96.0111 362.211ZM279.988 362.211L273.707 355.93L267.425 362.211L273.707 368.493L279.988 362.211ZM102.292 363.299H273.707V361.123H102.292V363.299Z" fill="white"/>
<path d="M95.9194 362.354L102.201 368.635L108.482 362.354L102.201 356.072L95.9194 362.354ZM280.08 362.354L273.799 356.072L267.518 362.354L273.799 368.635L280.08 362.354ZM102.201 363.441H273.799V361.266H102.201V363.441Z" fill="white"/>
<path d="M95.7787 362.573L102.06 368.855L108.341 362.573L102.06 356.292L95.7787 362.573ZM280.223 362.573L273.941 356.292L267.66 362.573L273.941 368.855L280.223 362.573ZM102.06 363.661H273.941V361.485H102.06V363.661Z" fill="white"/>
<path d="M95.5673 362.9L101.849 369.181L108.13 362.9L101.849 356.619L95.5673 362.9ZM280.433 362.9L274.151 356.619L267.87 362.9L274.151 369.181L280.433 362.9ZM101.849 363.988H274.151V361.812H101.849V363.988Z" fill="white"/>
<path d="M95.2611 363.377L101.542 369.658L107.824 363.377L101.542 357.096L95.2611 363.377ZM280.74 363.377L274.458 357.096L268.177 363.377L274.458 369.658L280.74 363.377ZM101.542 364.465H274.458V362.289H101.542V364.465Z" fill="white"/>
<path d="M94.8246 364.055L101.106 370.336L107.387 364.055L101.106 357.773L94.8246 364.055ZM281.175 364.055L274.894 357.773L268.612 364.055L274.894 370.336L281.175 364.055ZM101.106 365.143H274.894V362.967H101.106V365.143Z" fill="white"/>
<path d="M94.2162 365.001L100.498 371.282L106.779 365.001L100.498 358.72L94.2162 365.001ZM281.784 365.001L275.502 358.72L269.221 365.001L275.502 371.282L281.784 365.001ZM100.498 366.089H275.502V363.913H100.498V366.089Z" fill="white"/>
<path d="M93.3822 366.298L99.6636 372.58L105.945 366.298L99.6636 360.017L93.3822 366.298ZM282.618 366.298L276.336 360.017L270.055 366.298L276.336 372.58L282.618 366.298ZM99.6636 367.386H276.336V365.21H99.6636V367.386Z" fill="white"/>
<path d="M92.2563 368.047L98.5376 374.328L104.819 368.047L98.5376 361.766L92.2563 368.047ZM283.743 368.047L277.462 361.766L271.18 368.047L277.462 374.328L283.743 368.047ZM98.5376 369.135H277.462V366.959H98.5376V369.135Z" fill="white"/>
<path d="M90.7587 370.375L97.04 376.656L103.321 370.375L97.04 364.094L90.7587 370.375ZM285.24 370.375L278.959 364.094L272.678 370.375L278.959 376.656L285.24 370.375ZM97.04 371.463H278.959V369.287H97.04V371.463Z" fill="white"/>
<path d="M88.7929 373.434L95.0742 379.715L101.356 373.434L95.0742 367.153L88.7929 373.434ZM287.208 373.434L280.927 367.153L274.645 373.434L280.927 379.715L287.208 373.434ZM95.0742 374.522H280.927V372.346H95.0742V374.522Z" fill="white"/>
<path d="M86.2402 377.402L92.5215 383.683L98.8028 377.402L92.5215 371.121L86.2402 377.402ZM289.76 377.402L283.479 371.121L277.197 377.402L283.479 383.683L289.76 377.402ZM92.5215 378.49H283.479V376.314H92.5215V378.49Z" fill="white"/>
<path d="M82.9633 382.496L89.2446 388.777L95.526 382.496L89.2446 376.215L82.9633 382.496ZM293.037 382.496L286.756 376.215L280.474 382.496L286.756 388.777L293.037 382.496ZM89.2446 383.584H286.756V381.408H89.2446V383.584Z" fill="white"/>
<path d="M78.7973 388.971L85.0786 395.253L91.3599 388.971L85.0786 382.69L78.7973 388.971ZM297.201 388.971L290.92 382.69L284.639 388.971L290.92 395.253L297.201 388.971ZM85.0786 390.059H290.92V387.883H85.0786V390.059Z" fill="white"/>
<path d="M73.5522 397.128L79.8335 403.409L86.1148 397.128L79.8335 390.847L73.5522 397.128ZM302.448 397.128L296.167 390.847L289.885 397.128L296.167 403.409L302.448 397.128ZM79.8335 398.216H296.167V396.04H79.8335V398.216Z" fill="white"/>
<path d="M67.0019 407.311L73.2832 413.592L79.5645 407.311L73.2832 401.029L67.0019 407.311ZM308.999 407.311L302.718 401.029L296.436 407.311L302.718 413.592L308.999 407.311ZM73.2832 408.399H302.718V406.223H73.2832V408.399Z" fill="white"/>
<path d="M58.8871 419.928L65.1685 426.209L71.4498 419.928L65.1685 413.646L58.8871 419.928ZM317.115 419.928L310.833 413.646L304.552 419.928L310.833 426.209L317.115 419.928ZM65.1685 421.016H310.833V418.84H65.1685V421.016Z" fill="white"/>
<path d="M48.9062 435.442L55.1875 441.724L61.4688 435.442L55.1875 429.161L48.9062 435.442ZM327.093 435.442L320.812 429.161L314.531 435.442L320.812 441.724L327.093 435.442ZM55.1875 436.53H320.812V434.354H55.1875V436.53Z" fill="white"/>
<path d="M36.7182 454.391L42.9995 460.672L49.2808 454.391L42.9995 448.11L36.7182 454.391ZM339.282 454.391L333.001 448.11L326.719 454.391L333.001 460.672L339.282 454.391ZM42.9995 455.479H333.001V453.303H42.9995V455.479Z" fill="white"/>
<path d="M21.9281 477.387L28.2095 483.668L34.4908 477.387L28.2095 471.105L21.9281 477.387ZM354.073 477.387L347.791 471.105L341.51 477.387L347.791 483.668L354.073 477.387ZM28.2095 478.475H347.791V476.299H28.2095V478.475Z" fill="white"/>
<path d="M4.0883 505.121L10.3696 511.402L16.651 505.121L10.3696 498.839L4.0883 505.121ZM371.912 505.121L365.63 498.839L359.349 505.121L365.63 511.402L371.912 505.121ZM10.3696 506.209H365.63V504.033H10.3696V506.209Z" fill="white"/>
<path d="M-17.3067 538.383L-11.0254 544.664L-4.74406 538.383L-11.0254 532.101L-17.3067 538.383ZM393.307 538.383L387.026 532.101L380.744 538.383L387.026 544.664L393.307 538.383ZM-11.0254 539.471H387.026V537.295H-11.0254V539.471Z" fill="white"/>
<path d="M-42.8297 578.062L-36.5483 584.343L-30.267 578.062L-36.5483 571.78L-42.8297 578.062ZM418.831 578.062L412.549 571.78L406.268 578.062L412.549 584.343L418.831 578.062ZM-36.5483 579.149H412.549V576.974H-36.5483V579.149Z" fill="white"/>
<path d="M-73.1246 625.16L-66.8433 631.441L-60.5619 625.16L-66.8433 618.878L-73.1246 625.16ZM449.125 625.16L442.844 618.878L436.562 625.16L442.844 631.441L449.125 625.16ZM-66.8433 626.248H442.844V624.072H-66.8433V626.248Z" fill="white"/>
<path d="M-108.912 680.797L-102.63 687.079L-96.349 680.797L-102.63 674.516L-108.912 680.797ZM484.913 680.797L478.631 674.516L472.35 680.797L478.631 687.079L484.913 680.797ZM-102.63 681.885H478.631V679.709H-102.63V681.885Z" fill="white"/>
<path d="M-150.999 746.228L-144.717 752.509L-138.436 746.228L-144.717 739.947L-150.999 746.228ZM526.998 746.228L520.717 739.947L514.435 746.228L520.717 752.509L526.998 746.228ZM-144.717 747.316H520.717V745.14H-144.717V747.316Z" fill="white"/>
<path d="M-200.281 822.846L-194 829.128L-187.719 822.846L-194 816.565L-200.281 822.846ZM576.281 822.846L570 816.565L563.718 822.846L570 829.128L576.281 822.846ZM-194 823.934H570V821.758H-194V823.934Z" fill="white"/>
</g>
<g opacity="0.1">
<g opacity="0.3">
<path d="M35.9028 0H106.971C103.225 7.69457 97.3696 14.4793 89.7039 18.4481C77.7664 24.9975 62.435 24.4093 50.9286 17.1853C44.2348 13.2086 39.2889 6.92589 35.9028 0Z" fill="#EDFDE1"/>
<path d="M141.122 0H172.193C180.086 2.91782 188.089 5.55327 196.044 8.30637C200.865 9.78881 205.576 12.0713 209.009 15.8676C215.561 22.6131 217.497 32.9039 214.723 41.7907C195.543 35.2256 176.378 28.6134 157.222 21.9778C152.033 36.9904 146.868 52.0187 141.726 67.0471C141.546 67.1647 141.177 67.4079 140.997 67.5334C132.563 62.035 127.782 51.5638 128.197 41.5632C128.331 36.206 130.392 31.2018 132.109 26.2055C135.126 17.4755 138.12 8.73777 141.122 0Z" fill="#EDFDE1"/>
<path d="M241.536 0H260.849C257.455 6.21213 253.96 12.3615 250.605 18.5972C245.635 13.5616 242.673 6.93374 241.536 0Z" fill="#EDFDE1"/>
<path d="M317.598 0H329.692C328.83 1.7805 328.07 3.60805 327.255 5.40424C324.025 3.6159 320.867 1.7099 317.598 0Z" fill="#EDFDE1"/>
<path d="M365.92 0H381.134C387.984 2.50995 395.587 2.50211 402.438 0H419.455C421.077 5.60033 422.527 11.2556 424.291 16.8167C419.204 23.1543 411.75 27.5389 403.692 28.7076C394.827 30.1586 385.46 27.633 378.422 22.0876C371.469 16.7931 367.033 8.62795 365.92 0Z" fill="#EDFDE1"/>
<path d="M278.282 26.9977C287.469 25.2564 295.26 18.9658 299.884 10.9575C303.913 19.4286 308.005 27.8683 312.112 36.308C306.735 45.9949 296.294 52.6698 285.196 53.1482C275.484 53.7992 265.679 49.7284 259.079 42.6143C253.036 36.1982 250.057 27.2644 250.48 18.5109C257.574 25.7662 268.336 29.1703 278.282 26.9977Z" fill="#EDFDE1"/>
<path d="M321.125 72.9763C328.125 62.0894 335.187 51.2417 342.257 40.4019C355.919 49.4141 369.706 58.2382 383.4 67.2034C389.67 71.2899 393.472 78.7727 393.064 86.2555C392.986 90.1616 391.543 93.8638 389.647 97.213C375.209 87.8713 360.873 78.3492 346.333 69.1643C338.636 80.6003 331.378 92.3343 323.696 103.786C316.509 95.3776 315.176 82.4122 321.125 72.9763Z" fill="#EDFDE1"/>
<path d="M173.377 70.0585C180.603 66.3407 185.667 59.5403 188.622 52.0967C194.077 59.6501 199.415 67.2897 205.004 74.749C202.221 83.1416 195.849 90.2322 187.83 93.9344C178.824 98.2327 167.859 98.0052 158.994 93.456C150.74 89.3773 144.422 81.6121 142.165 72.6783C142.165 71.541 140.887 69.7134 141.875 68.9212C143.842 69.2349 145.387 70.686 147.229 71.3841C155.537 74.9137 165.444 74.3646 173.377 70.0585Z" fill="#EDFDE1"/>
<path d="M31.9211 58.9209C50.7327 61.925 69.5521 64.8899 88.3558 67.8783C95.8255 68.9136 102.684 73.4786 106.548 79.9574C109.754 85.0479 110.679 91.2365 110.044 97.1506C90.0018 94.1151 69.9988 90.8286 49.9724 87.6912C47.3466 103.818 45.05 119.999 42.1734 136.086C37.6195 133.051 32.9322 129.929 29.9146 125.223C25.4155 118.76 23.6676 110.516 24.9687 102.767C27.2888 88.154 29.5775 73.5335 31.9211 58.9209Z" fill="#EDFDE1"/>
<path d="M235.376 73.73C250.692 80.2009 266.016 86.6719 281.292 93.2527C291.599 97.8647 296.483 111.105 291.882 121.38C276.088 114.556 260.215 107.928 244.398 101.151C239.429 112.893 234.428 124.611 229.482 136.361C229.106 137.255 228.62 138.11 227.883 138.746C219.222 132.157 216.126 119.246 220.351 109.191C225.32 97.3549 230.368 85.5503 235.376 73.73Z" fill="#EDFDE1"/>
<path d="M359.948 106.916C362.346 105.12 364.016 102.594 366.046 100.429C369.079 107.747 371.87 115.175 374.919 122.493C370.004 129.937 361.516 134.894 352.564 135.168C341.599 135.725 330.673 129.137 326.095 119.144C323.759 114.367 323.234 108.94 323.571 103.692C326.934 107.269 330.978 110.32 335.767 111.669C343.966 114.242 353.317 112.344 359.948 106.916Z" fill="#EDFDE1"/>
<path d="M85.8005 112.925C85.7299 111.435 87.0232 112.909 87.47 113.191C93.7484 119.317 100.066 125.404 106.289 131.585C104.651 140.55 99.4702 148.888 91.7418 153.829C82.1949 160.206 69.2698 160.865 59.0254 155.751C51.344 152.096 45.7162 145.138 42.6201 137.318C43.0042 136.942 43.3883 136.565 43.788 136.197C49.7215 139.381 56.9247 139.326 63.3207 137.734C74.8192 134.738 83.7626 124.565 85.8005 112.925Z" fill="#EDFDE1"/>
<path d="M135.957 125.019C151.845 128.737 167.764 132.361 183.66 136.063C190.714 137.663 196.757 143.028 199.125 149.875C200.645 153.766 200.528 158.041 199.979 162.119C183.158 158.323 166.385 154.331 149.572 150.526C146.382 163.813 143.701 177.242 140.158 190.435C137.572 189.737 135.479 187.368 133.535 185.485C127.931 179.391 125.501 170.535 127.335 162.441C130.18 149.962 133.096 137.498 135.957 125.019Z" fill="#EDFDE1"/>
<path d="M380.357 154.11C386.965 145.31 393.517 136.47 400.25 127.764C411.529 136.447 423.028 144.847 434.283 153.561C441.675 159.554 442.655 171.17 437.097 178.724C425.34 169.962 413.661 161.099 401.967 152.259C394.905 161.664 387.819 171.052 380.749 180.449C375.129 172.872 374.714 161.781 380.357 154.11Z" fill="#EDFDE1"/>
<path d="M269.158 128.556C273.501 135.278 277.616 142.141 281.833 148.934C278.345 156.644 271.494 162.825 263.233 164.903C252.612 167.876 240.518 163.719 233.855 154.958C230.618 150.816 228.737 145.702 228.243 140.486L228.776 140.282C230.234 140.329 231.245 141.522 232.484 142.141C240.494 146.589 250.864 146.04 258.545 141.098C263.319 138.172 266.815 133.584 269.158 128.556Z" fill="#EDFDE1"/>
<path d="M-66.9878 145.797C-47.8314 145.577 -28.6828 145.153 -9.53417 144.84C-2.06441 144.651 5.36614 147.985 10.2258 153.656C14.2076 158.111 16.2925 164.025 16.4885 169.97C-3.74178 170.355 -23.9799 170.629 -44.2101 171.029C-43.9201 187.164 -43.6693 203.298 -43.3401 219.44C-56.3828 216.758 -66.1334 203.847 -66.2118 190.646C-66.4234 175.696 -66.7683 160.746 -66.9878 145.797Z" fill="#EDFDE1"/>
<path d="M307.55 149.695C320.208 155.939 332.726 162.457 345.29 168.881C353.889 173.367 357.095 184.882 352.799 193.439C339.733 186.796 326.698 180.097 313.624 173.477C308.31 183.933 302.972 194.38 297.658 204.836C290.753 198.459 288.479 187.643 292.618 179.14C297.525 169.289 302.651 159.547 307.55 149.695Z" fill="#EDFDE1"/>
<path d="M178.715 173.186C184.154 179.084 189.508 185.077 194.759 191.156C192.682 198.725 187.76 205.588 180.721 209.243C170.681 214.843 157.285 213.259 148.797 205.533C145.528 202.631 142.988 198.937 141.421 194.874C141.107 193.783 140.3 192.568 141.131 191.532C145.983 193.477 151.297 194.936 156.611 193.948C167.412 192.536 176.34 183.704 178.715 173.186Z" fill="#EDFDE1"/>
<path d="M220.217 187.312C233.652 191.289 247.031 195.454 260.427 199.572C269.785 202.404 275.241 213.283 272.309 222.562C258.342 218.193 244.319 214.004 230.344 209.667C226.872 220.883 223.47 232.115 220.037 243.347C211.822 238.092 207.77 227.268 210.882 217.957C213.978 207.737 217.168 197.548 220.217 187.312Z" fill="#EDFDE1"/>
<path d="M-4.48692 188.481C1.57197 192.709 7.70924 196.827 13.8152 200.984C15.4925 202.169 17.358 203.141 18.761 204.671C18.9099 214.679 14.1522 224.625 6.23567 230.751C-1.37517 236.814 -11.7529 239.167 -21.237 237.041C-29.4436 235.339 -36.7801 230.209 -41.4124 223.26C-41.8827 222.405 -42.8938 221.574 -42.2746 220.546C-41.044 220.005 -39.7351 220.585 -38.4731 220.656C-27.2802 222.138 -15.7033 216.311 -9.68361 206.851C-6.07806 201.455 -4.52611 194.929 -4.48692 188.481Z" fill="#EDFDE1"/>
<path d="M46.9002 192.882C63.133 193.713 79.358 194.553 95.583 195.423C104.08 195.674 112.035 201.494 114.943 209.479C116.056 212.279 116.268 215.322 116.385 218.311C99.2198 217.393 82.0465 216.397 64.8731 215.66C63.8463 229.206 63.5484 242.822 62.553 256.376L62.216 256.721C52.0499 253.262 44.7134 242.924 44.9407 232.163C45.4658 219.064 46.3594 205.981 46.9002 192.882Z" fill="#EDFDE1"/>
<path d="M332.365 199.172C332.733 197.698 333.729 199.204 333.972 199.768C336.59 204.961 339.435 210.051 342.03 215.26C342.798 216.389 341.692 217.44 341.183 218.397C336.457 225.676 327.498 229.935 318.868 228.915C310.301 228.092 302.384 222.233 299.272 214.177C298.018 211.204 297.736 207.965 297.478 204.796C301.451 208.271 306.46 210.742 311.821 210.804C320.185 211.267 328.328 206.436 332.365 199.172Z" fill="#EDFDE1"/>
<path d="M350.361 241.598C355.033 233.833 359.704 226.068 364.36 218.295C374.432 224.366 384.528 230.413 394.608 236.484C399.373 239.261 402.375 244.689 402.258 250.203C402.266 252.971 401.262 255.599 400.173 258.101C389.411 251.803 378.767 245.324 368.107 238.861C362.871 247.395 357.823 256.054 352.58 264.58C346.999 258.415 345.823 248.681 350.361 241.598Z" fill="#EDFDE1"/>
<path d="M241.467 244.861C247.447 242.179 251.688 236.649 253.741 230.515C257.825 236.037 262.206 241.331 266.243 246.885C263.821 253.528 258.789 259.325 252.08 261.819C242.595 265.662 230.823 262.478 224.638 254.305C222.091 251.144 220.766 247.238 219.849 243.332C226.206 247.449 234.616 248.21 241.467 244.861Z" fill="#EDFDE1"/>
<path d="M97.4404 232.758C103.711 237.77 110.068 242.665 116.307 247.708C115.609 255.96 111.502 263.968 104.667 268.76C95.9276 275.231 83.3709 275.788 74.0592 270.211C70.0304 267.851 66.66 264.423 64.2693 260.415C63.8539 259.466 62.7331 258.462 63.5561 257.434C68.6352 258.517 74.02 259.027 79.0286 257.207C89.5709 253.999 96.9074 243.637 97.4404 232.758Z" fill="#EDFDE1"/>
<path d="M136.78 272.212C138.057 261.293 139.453 250.391 140.769 239.48C154.4 241.19 168.046 242.822 181.677 244.524C185.361 244.924 188.919 246.399 191.725 248.83C196.483 252.744 198.67 259.05 198.16 265.105C183.644 263.45 169.143 261.654 154.666 259.764C153.044 271.412 151.649 283.107 150.348 294.793C141.585 291.201 135.698 281.687 136.78 272.212Z" fill="#EDFDE1"/>
<path d="M278.031 271.224C281.339 262.462 284.717 253.732 288.088 244.995C299.351 249.45 310.732 253.623 321.98 258.109C329.457 261.286 332.953 270.549 330.171 278.063C318.547 273.561 306.899 269.137 295.275 264.627C292.571 271.694 289.843 278.746 287.163 285.821C286.371 287.844 285.799 290.04 284.286 291.68C284.059 291.68 283.604 291.672 283.369 291.672C277.773 286.683 275.429 278.322 278.031 271.224Z" fill="#EDFDE1"/>
<path d="M367.526 270.487C373.985 270.283 379.605 266.189 383.116 260.965C385.39 266.291 387.772 271.562 390.077 276.872C387.012 281.39 382.411 284.982 376.987 286.064C368.867 287.97 359.916 284.096 355.542 277.044C353.096 273.342 352.43 268.832 352.43 264.479C356.388 268.424 361.844 271.005 367.526 270.487Z" fill="#EDFDE1"/>
<path d="M-28.9492 275.129C-12.5361 273.137 3.86127 271.05 20.2743 269.113C31.5848 267.764 42.6523 276.823 43.7731 288.126C26.7016 290.149 9.66149 292.354 -7.40999 294.354C-5.80317 308.08 -4.09445 321.798 -2.37006 335.509C-13.5708 333.838 -23.0706 324.332 -24.2934 312.998C-25.861 300.378 -27.3973 287.749 -28.9492 275.129Z" fill="#EDFDE1"/>
<path d="M181.207 276.361C186.31 280.879 191.303 285.522 196.366 290.095C195.214 297.578 190.66 304.527 183.88 308.049C175.383 312.732 164.081 311.422 156.893 304.904C153.781 302.229 151.665 298.637 150.16 294.864C154.957 296.629 160.279 297.295 165.217 295.664C173.847 293.225 180.133 285.161 181.207 276.361Z" fill="#EDFDE1"/>
<path d="M295.377 296.378C303.56 296.825 310.834 291.099 313.969 283.805C316.979 288.636 320.435 293.201 323.343 298.096C320.733 306.026 312.299 311.391 304.046 311.046C295.886 310.912 288.119 305.351 285.524 297.578C285.187 296.268 284.348 294.676 285.344 293.476C288.573 294.699 291.732 296.645 295.377 296.378Z" fill="#EDFDE1"/>
<path d="M212.23 312.23C213.946 302.998 215.772 293.79 217.599 284.582C229.152 286.895 240.737 289.076 252.298 291.358C255.857 292.064 259.125 294.017 261.398 296.849C264.463 300.355 265.208 305.179 264.918 309.689C252.565 307.665 240.345 304.865 228.008 302.732C226.15 312.536 224.261 322.341 222.294 332.129C215.31 328.325 210.748 320.223 212.23 312.23Z" fill="#EDFDE1"/>
<path d="M342.069 298.057C350.777 301.978 359.383 306.136 368.068 310.104C371.752 311.603 374.981 314.458 376.274 318.301C377.599 321.595 376.956 325.156 376.094 328.474C366.312 324.278 356.773 319.548 347.109 315.093C343.738 322.293 340.337 329.486 337.068 336.733C336.864 336.922 336.457 337.282 336.245 337.471C335.101 337.847 334.677 336.145 333.964 335.557C330.453 330.976 329.826 324.458 332.255 319.242C335.485 312.159 338.879 305.155 342.069 298.057Z" fill="#EDFDE1"/>
<path d="M108.116 302.841C112.835 302.394 117.851 302.167 122.17 304.457C128.182 307.296 131.983 313.548 132.556 320.081C117.945 320.756 103.343 321.697 88.7247 322.285C89.1323 334.074 89.9239 345.84 90.4961 357.621C83.9121 355.856 77.9864 351.377 75.196 345.071C72.727 339.949 73.2443 334.145 72.7976 328.639C72.39 320.67 71.9589 312.708 71.5435 304.739C83.7396 304.135 95.9279 303.445 108.116 302.841Z" fill="#EDFDE1"/>
<path d="M27.7519 305.642C34.7278 309.485 41.7586 313.226 48.7816 316.968C49.7222 325.109 47.0494 333.596 41.3667 339.549C34.0224 347.471 21.8968 350.452 11.7307 346.789C5.85207 344.812 0.898364 340.648 -2.51123 335.518C8.64245 337.651 20.4781 331.267 25.2123 321.023C27.5794 316.278 28.1124 310.873 27.7519 305.642Z" fill="#EDFDE1"/>
<path d="M249.713 318.293C253.757 322.332 257.566 326.607 261.642 330.623C260.271 338.459 253.843 345.04 246.052 346.608C238.144 348.397 229.31 344.898 224.936 338.02C223.729 336.192 222.969 334.121 222.193 332.09C227.868 334.788 234.875 334.89 240.323 331.572C245.253 328.803 248.435 323.713 249.713 318.293Z" fill="#EDFDE1"/>
<path d="M274.606 347.479C276.487 340.781 278.125 334.02 280.093 327.353C289.867 330.161 299.743 332.592 309.533 335.353C316.313 337.243 320.255 344.875 318.5 351.605C308.279 348.852 298.073 345.997 287.798 343.424C285.666 351.628 283.4 359.801 281.261 368.006C277.443 365.472 274.418 361.574 273.681 356.97C273.015 353.785 273.736 350.546 274.606 347.479Z" fill="#EDFDE1"/>
<path d="M349.61 341.847C354.995 341.031 359.212 337.063 361.829 332.482C364.071 336.765 366.791 340.804 368.9 345.157C365.49 353.518 354.603 357.417 346.522 353.581C340.706 351.197 336.865 345.392 336.199 339.227C336.379 339.11 336.74 338.882 336.912 338.772C340.612 341.22 345.119 342.883 349.61 341.847Z" fill="#EDFDE1"/>
<path d="M117.804 334.012C123.557 337.675 129.365 341.244 135.072 344.97C135.158 351.888 132.54 358.908 127.312 363.567C119.638 370.846 106.98 371.928 98.2088 366.006C94.9167 363.936 92.4477 360.869 90.3706 357.637C97.4406 359.143 105.208 357.323 110.468 352.264C115.555 347.684 117.992 340.766 117.804 334.012Z" fill="#EDFDE1"/>
<path d="M154.98 335.854C166.502 335.996 178.024 336.255 189.546 336.388C195.041 336.302 200.52 339.117 203.38 343.863C205.073 346.396 205.536 349.463 205.865 352.428C193.41 352.287 180.955 351.91 168.493 351.793C168.023 361.793 168.454 371.833 167.686 381.826C160.608 379.143 154.784 372.57 154.588 364.774C154.533 355.134 154.909 345.494 154.98 335.854Z" fill="#EDFDE1"/>
<path d="M374.871 364.241C378.084 358.17 381.557 352.24 384.802 346.185C392.475 350.428 400.188 354.601 407.791 358.97C412.909 362.005 414.273 368.939 411.71 374.108C403.825 369.708 395.924 365.346 388.031 360.962C384.527 367.268 381.071 373.598 377.528 379.881C373.546 375.841 372.269 369.355 374.871 364.241Z" fill="#EDFDE1"/>
<path d="M298.199 367.629C301.796 365.456 303.905 361.676 305.37 357.872C308.435 361.738 311.672 365.456 314.761 369.3C313.193 373.755 310.222 377.841 305.903 379.959C299.265 383.489 290.415 381.92 285.383 376.32C283.173 374.037 281.997 371.01 281.104 368.021C286.355 370.868 293.166 371.072 298.199 367.629Z" fill="#EDFDE1"/>
<path d="M192.509 363.347C197.11 366.783 201.726 370.21 206.421 373.52C206.273 379.246 203.764 384.886 199.344 388.58C193.496 393.694 184.631 394.871 177.616 391.553C173.501 389.804 170.617 386.274 168.046 382.76C168.43 382.423 168.83 382.093 169.229 381.78C175.022 383.85 181.661 381.654 186.097 377.654C190.157 374.054 192.219 368.689 192.509 363.347Z" fill="#EDFDE1"/>
<path d="M221.879 391.34C222.412 383.253 223.258 375.19 223.94 367.119C234.193 368.076 244.476 368.821 254.721 369.88C261.548 370.719 266.603 377.465 266.055 384.242C255.544 383.277 245.009 382.461 234.506 381.418C233.331 389.646 233.432 398.031 231.912 406.204L231.567 406.659C225.735 403.984 221.471 397.866 221.879 391.34Z" fill="#EDFDE1"/>
<path d="M324.872 383.458C326.761 378.109 328.556 372.72 330.429 367.371C338.738 370.383 347.179 373.018 355.457 376.101C360.857 378.274 363.428 384.807 361.672 390.235C353.183 387.223 344.648 384.376 336.159 381.388C333.745 388.227 331.44 395.106 329.042 401.954C326.283 399.648 323.955 396.612 323.43 392.965C322.748 389.717 323.775 386.486 324.872 383.458Z" fill="#EDFDE1"/>
<path d="M55.3807 371.638C61.4788 370.265 68.1726 372.242 72.4992 376.76C74.9526 379.113 76.3321 382.29 77.4686 385.435C63.2189 388.925 48.8672 392.031 34.5939 395.443C37.2668 406.887 39.8298 418.355 42.5653 429.791C33.3712 429.241 24.7649 422.818 22.3116 413.837C19.6544 402.942 17.2638 391.984 14.6851 381.074C28.2372 377.866 41.8129 374.783 55.3807 371.638Z" fill="#EDFDE1"/>
<path d="M135.071 391.913C139.045 391.199 143.372 391.191 146.978 393.254C151.351 395.489 154.236 399.898 155.2 404.651C142.902 406.682 130.564 408.494 118.282 410.573C119.858 420.424 121.488 430.268 122.93 440.143C115.249 439.053 108.375 433.186 106.807 425.475C105.145 416.087 103.899 406.619 102.222 397.231C113.14 395.285 124.129 393.756 135.071 391.913Z" fill="#EDFDE1"/>
<path d="M254.125 392.776C257.903 395.921 261.642 399.129 265.404 402.298C264.573 408.306 260.866 413.969 255.183 416.369C247.086 420.228 236.246 416.424 232.719 408.087C232.75 407.875 232.813 407.459 232.844 407.247C235.885 407.64 239.005 408.4 242.03 407.365C248.701 405.702 253.349 399.451 254.125 392.776Z" fill="#EDFDE1"/>
<path d="M340.869 403.718C345.243 402.479 348.316 398.777 350.142 394.776C352.384 398.188 355.056 401.302 357.165 404.801C355.213 412.424 345.8 416.652 338.581 413.828C333.361 412.103 329.826 407.201 328.83 401.906C332.436 403.977 336.809 405.114 340.869 403.718Z" fill="#EDFDE1"/>
<path d="M280.469 397.788C289.106 399.114 297.752 400.431 306.366 401.898C312.213 402.965 316.022 409.012 315.286 414.785C306.413 413.342 297.509 412.032 288.652 410.503C287.35 417.664 286.214 424.856 285.25 432.065C280.139 429.476 276.495 423.868 277.341 418.025C278.266 411.263 279.52 404.549 280.469 397.788Z" fill="#EDFDE1"/>
<path d="M65.2961 401.757C71.4961 404.596 78.0644 406.651 84.1155 409.757C86.8667 420.785 80.2356 433.068 69.5992 436.959C60.1935 440.896 48.7341 437.712 42.4009 429.805C48.9849 430.088 55.6552 427.539 60.0289 422.55C65.1472 417.052 66.9108 409.02 65.2961 401.757Z" fill="#EDFDE1"/>
<path d="M370.749 404.329C377.646 407.216 384.56 410.071 391.394 413.114C396.019 415.216 397.594 420.95 396.058 425.546C388.972 422.558 381.902 419.514 374.809 416.542C372.395 422.228 369.981 427.915 367.574 433.609C363.561 430.009 362.001 423.962 364.517 419.059C366.587 414.141 368.727 409.263 370.749 404.329Z" fill="#EDFDE1"/>
<path d="M175.587 416.009C185.722 415.114 195.856 414.142 206.007 413.381C213.061 412.761 219.339 418.628 220.068 425.507C209.51 426.417 198.968 427.429 188.402 428.229C189.045 436.786 190.001 445.32 190.503 453.893C184.397 452.097 178.801 447.359 177.844 440.786C176.888 432.558 176.371 424.268 175.587 416.009Z" fill="#EDFDE1"/>
<path d="M143.975 417.727C149.141 420.346 154.361 422.856 159.542 425.445C160.028 430.37 159.213 435.532 156.367 439.673C151.743 446.905 142.204 450.458 133.974 448.019C129.467 446.834 125.689 443.838 122.875 440.191C128.628 440.74 134.648 438.889 138.669 434.629C143.082 430.284 144.806 423.782 143.975 417.727Z" fill="#EDFDE1"/>
<path d="M296.13 432.151C300.715 430.331 303.623 425.892 304.65 421.217C307.574 424.197 310.584 427.099 313.594 429.994C312.763 433.578 310.991 437.045 307.958 439.257C302.863 443.304 295.048 443.21 290.001 439.139C287.626 437.406 286.238 434.723 285.016 432.135C288.613 433.202 292.595 433.806 296.13 432.151Z" fill="#EDFDE1"/>
<path d="M322.834 443.908C323.979 438.284 325.444 432.731 326.636 427.123C333.988 428.785 341.364 430.37 348.661 432.244C353.489 433.57 355.927 438.864 355.284 443.586C347.736 441.963 340.259 440.057 332.718 438.464C331.174 444.167 330.578 450.167 328.313 455.642L327.898 455.971C324.065 453.359 321.745 448.52 322.834 443.908Z" fill="#EDFDE1"/>
<path d="M385.844 428.809C387.812 431.743 389.607 434.778 391.511 437.759C390.132 440.08 388.478 442.386 386.024 443.657C381.204 446.434 374.612 445.398 370.873 441.28C368.781 439.225 368.02 436.315 367.354 433.57C370.246 435.264 373.585 436.574 376.995 435.821C380.961 435.225 383.947 432.166 385.844 428.809Z" fill="#EDFDE1"/>
<path d="M209.777 435.939C213.962 438.449 218.187 440.904 222.428 443.328C222.694 448.128 221.228 453.062 217.834 456.552C212.998 461.886 204.674 463.533 198.153 460.505C195.245 459.289 193.168 456.85 190.824 454.858C191.24 454.513 191.663 454.167 192.094 453.846C198.764 454.685 205.505 450.638 208.201 444.543C209.542 441.884 209.706 438.857 209.777 435.939Z" fill="#EDFDE1"/>
<path d="M236.677 436.3C245.527 436.355 254.368 435.783 263.217 435.932C269.017 436.175 273.603 441.446 273.799 447.124C264.824 447.171 255.857 447.407 246.883 447.485C246.632 454.607 247.447 461.768 246.804 468.859C241.247 467.682 237.101 462.106 236.991 456.458C236.818 449.744 236.787 443.022 236.677 436.3Z" fill="#EDFDE1"/>
<path d="M10.9772 449.493C19.9362 445.877 30.7607 450.795 34.4838 459.58C20.9944 465.298 7.50491 471.031 -5.9767 476.765C-1.36003 487.566 3.24096 498.382 7.78708 509.222C-1.53247 510.296 -11.2831 505.174 -15.1081 496.507C-19.4662 486.358 -23.832 476.208 -28.0176 465.988C-14.9906 460.568 -2.04979 454.913 10.9772 449.493Z" fill="#EDFDE1"/>
<path d="M345.738 448.559C348.167 451.171 350.558 453.83 352.91 456.528C351.593 460.136 349.194 463.54 345.51 464.976C340.102 467.423 333.134 465.235 330.101 460.136C329.56 459.093 328.611 457.862 329.262 456.685C331.935 457.611 334.874 458.293 337.641 457.258C341.717 456.073 344.491 452.465 345.738 448.559Z" fill="#EDFDE1"/>
<path d="M91.3738 456.199C94.7207 454.913 98.3106 453.87 101.924 454.513C107.622 455.305 112.372 459.564 114.418 464.866C102.684 469.016 90.8722 472.977 79.115 477.079C81.9445 485.377 84.7741 493.684 87.7056 501.951C87.9642 502.931 88.6148 503.92 88.3248 504.979C86.4985 505.833 84.4292 505.026 82.5794 504.649C76.7008 503.01 71.7785 498.343 69.8738 492.539C66.9031 483.926 63.9246 475.306 60.9932 466.678C71.1122 463.172 81.2548 459.721 91.3738 456.199Z" fill="#EDFDE1"/>
<path d="M359.767 469.039C361.052 464.199 362.643 459.438 364.14 454.662C370.152 456.677 376.305 458.278 382.309 460.34C386.416 461.721 388.188 466.388 387.349 470.419C381.126 468.49 374.863 466.662 368.671 464.639C366.946 469.58 365.59 474.631 363.984 479.604C360.613 477.337 358.622 473.047 359.767 469.039Z" fill="#EDFDE1"/>
<path d="M258.773 466.906C262.528 464.262 264.189 459.689 264.519 455.258C267.92 457.783 271.534 460.003 274.912 462.552C274.449 466.913 272.749 471.353 269.12 474.035C263.476 478.655 254.4 478.051 249.509 472.616C248.795 471.62 247.306 470.631 247.737 469.267C251.554 469.988 255.669 469.392 258.773 466.906Z" fill="#EDFDE1"/>
<path d="M286.332 475.243C286.387 469.196 286.904 463.164 287.249 457.125C294.891 457.768 302.588 457.76 310.223 458.513C314.941 459.274 318.124 463.87 318.116 468.498C310.45 468.019 302.776 467.784 295.119 467.243C294.813 473.439 294.452 479.636 294.123 485.832C289.93 483.942 286.34 480.075 286.332 475.243Z" fill="#EDFDE1"/>
<path d="M165.781 464.662C172.632 462.788 180.039 467.415 181.873 474.176C171.66 476.914 161.439 479.659 151.218 482.389C153.154 490.475 155.85 498.413 157.434 506.571L157.183 507.049C150.826 506.531 144.775 502.304 142.831 496.115C140.542 488.311 138.677 480.396 136.412 472.584C146.17 469.831 155.983 467.274 165.781 464.662Z" fill="#EDFDE1"/>
<path d="M372.802 480.561C375.851 479.534 377.724 476.749 379.096 474.004C380.844 476.404 382.662 478.765 384.567 481.047C382.835 486.42 376.784 489.856 371.328 488.091C367.307 487.04 364.799 483.401 363.655 479.612C366.477 480.945 369.776 481.879 372.802 480.561Z" fill="#EDFDE1"/>
<path d="M309.697 474.945C312.472 477.173 315.286 479.369 318.092 481.581C317.504 484.483 316.587 487.495 314.337 489.574C310.324 493.778 303.262 494.421 298.52 491.095C296.545 489.801 295.259 487.77 293.95 485.871C297.101 486.256 300.542 486.624 303.395 484.891C307.126 482.961 309.133 478.961 309.697 474.945Z" fill="#EDFDE1"/>
<path d="M200.057 481.973C208.546 480.279 217.042 478.569 225.562 477.016C231.535 475.816 237.053 480.31 238.691 485.863C229.866 487.879 220.938 489.417 212.057 491.142C213.178 497.746 214.722 504.28 215.757 510.9C215.671 511.19 215.506 511.771 215.428 512.061C210.364 512.022 205.403 507.512 204.149 502.468C202.628 495.668 201.523 488.781 200.057 481.973Z" fill="#EDFDE1"/>
<path d="M25.3838 477.761C31.9522 479.157 38.5598 480.452 45.0733 482.083C50.1838 492.444 45.4338 506.132 35.4559 511.748C26.9201 517.018 15.2413 515.913 7.75586 509.261C14.3791 508.359 20.6026 504.547 24.0043 498.727C27.8921 492.492 28.135 484.483 25.3838 477.761Z" fill="#EDFDE1"/>
<path d="M328.798 477.878C335.163 478.702 341.551 479.322 347.892 480.294C352.109 480.984 354.476 485.244 354.547 489.244C348.025 488.593 341.52 487.746 335.022 486.875C334.262 492.122 333.595 497.385 333.109 502.664C329.716 500.805 326.815 497.448 327.027 493.362C327.356 488.177 328.265 483.047 328.798 477.878Z" fill="#EDFDE1"/>
<path d="M105.67 479.738C111.196 481.401 116.754 482.985 122.303 484.609C123.408 488.711 123.737 493.135 122.358 497.221C119.991 505.104 112.348 511.034 104.118 511.316C99.4234 511.653 94.7205 510.14 90.9582 507.339C90.386 506.728 88.9908 506.382 89.4298 505.331C96.586 504.853 103.068 499.872 105.49 493.135C107.215 488.852 106.877 484.099 105.67 479.738Z" fill="#EDFDE1"/>
<path d="M173.643 486.24C178.15 488.193 183.049 489.299 187.367 491.637C189.272 498.806 185.855 506.947 179.388 510.579C173.086 514.367 164.504 513.458 159.08 508.508C159.087 508.281 159.119 507.826 159.134 507.598C161.737 506.163 164.943 506.022 167.302 504.061C172.937 500.178 175.163 492.766 173.643 486.24Z" fill="#EDFDE1"/>
<path d="M253.49 493.699C259.847 492.899 266.204 492.13 272.553 491.33C275.492 490.97 278.776 490.664 281.347 492.444C283.918 493.919 285.297 496.695 285.862 499.519C278.235 500.39 270.601 501.229 263.014 502.358C263.758 507.849 264.511 513.347 265.067 518.861C264.973 519.12 264.785 519.63 264.683 519.881C263.249 520.618 261.893 519.301 260.67 518.689C257.942 516.924 256.038 513.951 255.622 510.72C254.807 505.065 254.258 499.362 253.49 493.699Z" fill="#EDFDE1"/>
<path d="M341.646 501.967C344.593 500.429 346.098 497.3 346.921 494.225C349.116 496.343 351.373 498.398 353.623 500.453C352.619 505.379 348.387 509.622 343.19 509.559C338.62 509.81 334.717 506.649 332.883 502.657C335.783 503.253 338.997 503.614 341.646 501.967Z" fill="#EDFDE1"/>
<path d="M230.83 495.747C234.537 497.692 238.613 498.947 242.18 501.159C243.034 506.054 241.223 511.332 237.461 514.595C232.844 518.815 225.398 519.521 220.123 516.133C218.83 515.058 216.745 514.156 216.416 512.423C221.745 512.823 227.099 509.866 229.427 505.034C231.018 502.21 231.026 498.885 230.83 495.747Z" fill="#EDFDE1"/>
<path d="M362.847 497.88C368.31 499.033 373.852 499.826 379.268 501.182C382.631 502.179 384.167 505.763 384.002 509.042C378.484 508.171 373.045 506.908 367.542 505.967C366.711 510.352 365.849 514.736 365.018 519.121C362.432 517.395 360.198 514.673 360.433 511.395C360.88 506.83 362.157 502.406 362.847 497.88Z" fill="#EDFDE1"/>
<path d="M298.128 506.829C304.524 506.508 310.92 506.076 317.324 505.88C321.58 505.88 324.676 509.598 325.35 513.551C318.837 514.14 312.292 514.218 305.771 514.65C305.927 519.889 306.225 525.121 306.554 530.36C309.956 530.901 313.671 529.999 315.96 527.301C317.92 525.356 318.406 522.548 318.751 519.936C321.337 521.489 323.885 523.113 326.432 524.736C326.354 529.866 322.685 534.909 317.426 535.568C313.021 536.439 308.741 534.015 306.358 530.399C302.776 529.113 299.469 526.289 298.998 522.321C298.528 517.167 298.364 511.998 298.128 506.829Z" fill="#EDFDE1"/>
<path d="M278.768 507.237C281.88 509.002 285.062 510.625 288.174 512.398C288.338 516.814 286.598 521.402 282.836 523.92C277.679 527.795 269.002 526.556 265.772 520.994C268.618 520.43 271.745 520.296 274.065 518.32C277.553 515.802 278.948 511.386 278.768 507.237Z" fill="#EDFDE1"/>
<path d="M377.293 512.971C379.08 514.814 380.859 516.673 382.623 518.547C381.494 521.826 379.025 524.862 375.435 525.458C370.897 526.54 366.476 523.426 364.814 519.293C367.385 519.732 370.262 520.352 372.66 518.916C375.09 517.787 376.289 515.292 377.293 512.971Z" fill="#EDFDE1"/>
<path d="M135.785 521.936C142.188 519.215 149.737 522.658 152.825 528.674C143.223 533.176 133.621 537.663 123.996 542.11C127.492 549.875 131.215 557.531 134.719 565.288C140.974 564.213 146.398 559.35 147.761 553.091C148.804 549.389 147.942 545.538 146.68 542.016C151.5 542.957 156.344 543.796 161.18 544.667C162.897 549.028 163.281 554.032 161.392 558.417C158.727 565.17 151.422 569.712 144.179 569.068C140.668 568.904 137.47 567.28 134.617 565.351C128.103 566.072 121.151 563.037 118.078 557.091C114.512 549.765 111.173 542.337 107.724 534.964C117.091 530.651 126.379 526.164 135.785 521.936Z" fill="#EDFDE1"/>
<path d="M335.117 520.61C340.682 520.712 346.255 520.697 351.804 521.042C355.292 521.316 357.259 524.65 358.012 527.724C352.392 528.415 346.741 527.489 341.105 527.756C341.066 532.235 340.948 536.705 340.956 541.184C338.04 539.906 335.281 537.505 335.023 534.133C334.764 529.623 335.148 525.113 335.117 520.61Z" fill="#EDFDE1"/>
<path d="M63.658 525.027C70.9083 521.027 80.7766 524.078 84.6721 531.341C73.7849 537.326 62.984 543.452 52.0654 549.366C56.7448 558.237 61.8945 566.857 66.5033 575.775C61.1655 576.583 55.4202 575.783 51.0386 572.442C46.8844 569.586 44.8779 564.818 42.4794 560.582C39.0933 554.55 35.8405 548.44 32.3682 542.448C42.7224 536.518 53.2176 530.816 63.658 525.027Z" fill="#EDFDE1"/>
<path d="M195.37 524.204C198.702 522.839 202.676 522.972 205.764 524.902C208.006 526.126 209.385 528.345 210.717 530.44C202.331 533.859 193.795 536.903 185.385 540.291C187.807 546.472 190.158 552.676 192.572 558.857C192.572 559.116 192.572 559.626 192.572 559.884C191.106 560.99 189.17 560.151 187.587 559.775C183.888 558.559 180.752 555.727 179.31 552.088C176.794 545.829 174.505 539.475 172.005 533.216C179.78 530.181 187.587 527.224 195.37 524.204Z" fill="#EDFDE1"/>
<path d="M226.667 535.466C233.878 533.38 240.995 530.949 248.23 528.972C253.082 527.725 257.957 530.98 259.587 535.521C252.251 537.843 244.844 539.937 237.546 542.361C238.918 546.4 240.062 550.51 241.379 554.566C241.81 556.079 242.492 557.625 242.179 559.24L241.904 559.891C237.452 559.444 233.228 556.495 231.809 552.173C229.975 546.644 228.399 541.028 226.667 535.466Z" fill="#EDFDE1"/>
<path d="M-20.1943 534.329C-12.0348 528.98 -0.0973015 531.757 5.02885 540.024C-7.28488 547.922 -19.5202 555.946 -31.7948 563.908C-25.3675 573.728 -19.0186 583.595 -12.607 593.431C-21.4249 596.137 -31.7634 592.929 -37.109 585.321C-43.3168 576.05 -49.2111 566.567 -55.4189 557.296C-43.7636 549.507 -31.9437 541.969 -20.1943 534.329Z" fill="#EDFDE1"/>
<path d="M351.913 532.91C353.967 534.455 356.052 535.977 358.121 537.514C357.62 541.389 355.064 545.146 351.067 545.962C346.999 547.091 342.876 544.746 340.775 541.303C343.252 541.389 345.996 541.468 348.073 539.86C350.456 538.346 351.38 535.538 351.913 532.91Z" fill="#EDFDE1"/>
<path d="M364.814 545.883C364.846 542.063 365.465 538.283 365.708 534.486C370.434 535.051 375.223 535.106 379.918 535.867C382.897 536.392 384.323 539.404 384.613 542.142C379.871 541.702 375.121 541.334 370.387 540.871C370.05 544.699 369.705 548.519 369.345 552.338C367.032 550.934 364.767 548.809 364.814 545.883Z" fill="#EDFDE1"/>
<path d="M289.083 536.902C291.419 536.322 294.013 535.914 296.231 537.122C298.536 538.11 299.79 540.385 300.934 542.479C294.601 544.33 288.08 545.459 281.699 547.138C282.569 551.962 284.631 556.715 284.505 561.625L284.215 562.292C280.688 561.554 277.412 559.099 276.369 555.562C275.006 550.668 274.12 545.663 272.827 540.753C278.219 539.357 283.675 538.235 289.083 536.902Z" fill="#EDFDE1"/>
<path d="M204.674 541.459C208.718 542.573 212.794 543.553 216.854 544.612C218.022 548.746 217.999 553.42 215.671 557.17C212.175 563.39 203.827 566.206 197.306 563.241C196.201 562.558 194.304 562.37 194.179 560.809C194.312 560.637 194.586 560.291 194.72 560.119C199.861 559.193 204.086 555.005 205.191 549.922C205.975 547.106 205.317 544.212 204.674 541.459Z" fill="#EDFDE1"/>
<path d="M253.929 544.549C257.198 545.663 260.584 546.47 263.766 547.851C265.537 552.471 263.617 558.103 259.753 561.114C255.842 564.315 249.924 564.73 245.605 562.087C244.954 561.515 243.395 561.334 243.834 560.189C246.318 559.138 249.14 558.51 250.99 556.385C254.094 553.326 254.854 548.675 253.929 544.549Z" fill="#EDFDE1"/>
<path d="M311.782 547.805C317.316 547.052 322.795 545.836 328.36 545.334C331.856 545.083 334.364 548.056 335.438 551.084C329.951 552.103 324.425 552.88 318.923 553.75C319.503 558.229 320.318 562.669 320.961 567.139C317.959 566.245 314.878 564.449 313.985 561.241C312.958 556.817 312.464 552.291 311.782 547.805Z" fill="#EDFDE1"/>
<path d="M379.245 545.969C380.875 547.373 382.537 548.753 384.222 550.11C383.572 553.161 381.604 556.095 378.399 556.809C374.699 557.93 371.031 555.609 369.228 552.455C371.517 552.55 374.088 552.84 376.016 551.295C377.873 550.11 378.548 547.922 379.245 545.969Z" fill="#EDFDE1"/>
<path d="M78.6448 547.452C84.4058 548.126 90.1825 548.683 95.9436 549.381C97.9266 553.64 98.9299 558.48 97.8953 563.139C96.453 570.935 89.9317 577.367 82.2033 578.936C76.7793 580.175 71.0731 578.748 66.48 575.736C72.288 574.253 77.4299 570.182 79.6637 564.543C82.1014 559.052 81.3019 552.699 78.6448 547.452Z" fill="#EDFDE1"/>
<path d="M295.526 549.931C298.285 551.123 301.076 552.245 303.858 553.382C304.078 556.519 303.78 559.931 301.577 562.386C297.901 567.116 290.337 567.438 286.019 563.414C286.058 563.202 286.136 562.778 286.167 562.567C288.574 561.829 291.231 561.225 292.916 559.186C295.322 556.755 295.793 553.194 295.526 549.931Z" fill="#EDFDE1"/>
<path d="M344.31 556.111C349.185 555.946 354.037 555.044 358.92 555.083C361.773 555.295 363.388 557.915 364.211 560.37C359.469 560.88 354.719 561.264 349.969 561.609C350.259 565.445 350.675 569.28 350.918 573.124C348.574 572.143 346.074 570.684 345.47 568.017C344.71 564.096 344.639 560.08 344.31 556.111Z" fill="#EDFDE1"/>
<path d="M330.382 556.997C332.742 558.197 335.117 559.358 337.437 560.637C337.382 564.652 335.367 568.864 331.354 570.206C327.568 571.751 323.461 570.025 320.828 567.194C323.352 566.88 326.142 566.464 327.913 564.417C329.951 562.511 330.312 559.633 330.382 556.997Z" fill="#EDFDE1"/>
<path d="M-0.747894 559.398C6.0321 559.68 12.8121 559.908 19.5921 560.19C23.6523 566.583 24.5301 574.881 21.677 581.925C18.2126 590.953 8.78329 597.228 -0.881141 596.945C-5.00401 596.843 -9.06417 595.62 -12.5835 593.463C-5.13726 591.196 0.858931 584.835 2.48926 577.203C4.02554 571.124 2.45007 564.669 -0.747894 559.398Z" fill="#EDFDE1"/>
<path d="M371.376 565.366C375.546 564.997 379.77 564.926 383.956 565.17C386.331 565.523 387.436 567.868 388.04 569.939C383.98 570.08 379.919 570.103 375.867 570.142C375.906 573.46 375.992 576.778 375.93 580.104C377.795 579.884 379.935 579.97 381.409 578.582C382.968 577.406 383.313 575.39 383.886 573.649C385.437 574.794 387.013 575.915 388.573 577.076C387.836 579.633 386.433 582.363 383.643 583.084C381.213 583.869 378.603 582.967 376.917 581.139C375.201 579.343 372.41 578.284 371.776 575.68C371.313 572.268 371.282 568.801 371.376 565.366Z" fill="#EDFDE1"/>
<path d="M359.603 565.083C361.452 566.237 363.443 567.193 365.128 568.59C365.348 572.856 361.64 576.794 357.353 576.661C354.696 576.755 352.572 574.99 350.8 573.241C352.893 572.974 355.26 572.88 356.883 571.327C358.795 569.837 359.273 567.342 359.603 565.083Z" fill="#EDFDE1"/>
<path d="M227.436 571.202C232.029 569.029 237.493 571.406 239.969 575.61C233.142 579.092 226.323 582.606 219.465 586.042C222.161 591.634 225.124 597.086 227.82 602.67C223.259 603.102 218.226 601.517 215.789 597.407C212.849 592.129 210.271 586.662 207.512 581.296C214.174 577.979 220.75 574.465 227.436 571.202Z" fill="#EDFDE1"/>
<path d="M253.898 578.402C259.667 575.994 265.381 573.422 271.189 571.1C275.249 569.335 279.889 571.72 281.77 575.5C275.759 578.104 269.676 580.552 263.711 583.242C265.851 588.027 267.873 592.858 269.864 597.706C265.914 597.815 261.736 596.129 259.918 592.435C257.746 587.83 255.92 583.069 253.898 578.402Z" fill="#EDFDE1"/>
<path d="M293.386 578.692C298.786 576.951 304.046 574.763 309.525 573.288C312.879 572.535 315.638 575.069 317.378 577.633C312.229 579.814 306.844 581.39 301.577 583.249C302.846 587.571 304.406 591.807 305.919 596.058C302.713 595.783 299.264 594.458 297.877 591.328C296.121 587.21 294.953 582.873 293.386 578.692Z" fill="#EDFDE1"/>
<path d="M175.704 575.116C180.862 572.136 187.791 574.293 190.824 579.289C183.08 583.862 175.406 588.544 167.694 593.164C170.758 598.341 173.894 603.479 176.966 608.655C177.507 609.675 178.51 610.514 178.596 611.746C172.396 613.479 165.475 610.036 162.693 604.255C159.589 598.992 156.399 593.784 153.295 588.529C160.78 584.089 168.187 579.493 175.704 575.116Z" fill="#EDFDE1"/>
<path d="M326.902 581.28C331.582 580.096 336.191 578.543 340.948 577.649C343.88 577.233 346.035 579.602 347.258 581.963C342.665 583.226 338.048 584.426 333.455 585.689C334.474 589.399 335.446 593.132 336.496 596.842C334.027 596.222 331.237 595.289 330.155 592.732C328.674 589.046 328.023 585.085 326.902 581.28Z" fill="#EDFDE1"/>
<path d="M112.161 586.12C115.084 583.923 118.368 581.798 122.17 581.821C126.661 581.61 130.8 584.041 133.574 587.445C124.913 593.555 116.236 599.634 107.536 605.689C112.341 612.686 117.255 619.604 122.115 626.569C115.727 628.71 108.132 626.687 104.103 621.181C99.3923 614.686 94.9245 608.011 90.2373 601.493C97.5425 596.363 104.863 591.265 112.161 586.12Z" fill="#EDFDE1"/>
<path d="M277.765 583.634C280.728 584.238 283.69 584.865 286.645 585.532C287.97 589.744 287.163 594.764 283.596 597.642C279.764 601.078 273.799 600.835 269.817 597.784C272.482 596.905 275.319 595.76 276.809 593.211C278.784 590.411 278.69 586.787 277.765 583.634Z" fill="#EDFDE1"/>
<path d="M355.096 585.509C359.234 584.685 363.341 583.603 367.543 583.211C369.973 583.156 371.415 585.266 372.402 587.187C368.46 588.081 364.478 588.779 360.52 589.548C361.037 592.811 361.695 596.05 362.362 599.298C360.332 598.474 357.878 597.604 357.196 595.258C356.177 592.082 355.856 588.74 355.096 585.509Z" fill="#EDFDE1"/>
<path d="M313.374 584.512C315.749 585.242 318.202 585.751 320.506 586.716C322.568 591.477 319.041 597.352 314.048 598.325C311.093 599.156 308.161 597.823 305.763 596.183C308.091 595.391 310.685 594.615 312.088 592.419C313.836 590.167 313.852 587.187 313.374 584.512Z" fill="#EDFDE1"/>
<path d="M235.917 585.407C239.428 585.987 242.956 586.466 246.475 587.007C248.536 591.893 247.784 598.035 243.7 601.651C239.515 605.769 232.617 606.043 227.875 602.718C231.504 601.447 234.984 599.062 236.325 595.298C237.712 592.097 236.991 588.568 235.917 585.407Z" fill="#EDFDE1"/>
<path d="M343.574 587.407C345.58 588.175 347.658 588.787 349.562 589.799C350.761 594.27 347.078 599.227 342.414 599.18C340.125 599.462 338.158 598.152 336.363 596.945C338.495 596.223 340.972 595.642 342.249 593.595C343.621 591.83 343.558 589.517 343.574 587.407Z" fill="#EDFDE1"/>
<path d="M186.842 591.023C191.004 591.399 195.166 591.721 199.344 591.956C201.993 596.796 202.04 603.11 198.826 607.706C195.37 612.954 188.363 615.409 182.382 613.463C181.489 613.079 180.266 613.024 179.929 611.934C181.896 610.122 184.639 609.11 186.152 606.726C189.672 602.231 189.57 595.878 186.842 591.023Z" fill="#EDFDE1"/>
<path d="M368.945 591.642C370.607 592.419 372.292 593.172 373.993 593.901C373.899 596.176 373.522 598.709 371.516 600.137C368.819 602.505 364.736 601.651 362.228 599.431C364.03 598.772 366.194 598.458 367.432 596.819C368.686 595.399 368.741 593.415 368.945 591.642Z" fill="#EDFDE1"/>
<path d="M44.8934 599.525C49.3925 595.846 55.9687 595.07 61.2281 597.517C63.4385 598.482 65.2177 600.16 66.9813 601.76C57.4266 609.808 47.527 617.455 37.9567 625.487C44.1175 633.143 50.5526 640.617 56.4077 648.5C49.2828 652.163 39.8613 649.536 34.8606 643.449C28.982 636.28 23.2366 629.001 17.3267 621.863C26.513 614.412 35.6914 606.961 44.8934 599.525Z" fill="#EDFDE1"/>
<path d="M129.843 601.69C134.75 601.886 139.688 601.502 144.586 601.933C147.839 606.522 148.451 612.789 146.35 617.989C143.826 624.476 137.023 629.064 130.047 628.79C127.241 628.821 124.599 627.801 122.052 626.758C126.292 624.954 130.109 621.801 131.74 617.377C133.927 612.232 132.806 606.278 129.843 601.69Z" fill="#EDFDE1"/>
<path d="M314.173 608.961C318.665 607.016 322.936 604.561 327.553 602.937C330.312 602.114 332.726 604.075 334.317 606.106C330.03 608.216 325.656 610.122 321.377 612.232C323.038 615.66 324.622 619.134 326.244 622.593C323.579 622.523 320.569 621.895 319.135 619.393C317.222 616.044 315.788 612.451 314.173 608.961Z" fill="#EDFDE1"/>
<path d="M295.095 604.372C298.371 602.663 302.008 604.616 304.155 607.188C299.319 610.075 294.287 612.616 289.443 615.502C291.732 619.361 293.856 623.323 296.012 627.26C292.845 627.417 289.247 626.797 287.343 623.981C284.881 620.232 283.008 616.138 280.68 612.318C285.477 609.651 290.204 606.851 295.095 604.372Z" fill="#EDFDE1"/>
<path d="M342.656 608.263C346.489 606.78 350.251 605.055 354.21 603.91C356.663 603.172 358.693 605.118 359.986 606.953C356.232 608.443 352.454 609.863 348.684 611.314C349.812 614.389 351.02 617.432 352.046 620.546C350.063 620.091 347.72 619.699 346.591 617.785C344.882 614.789 344.036 611.4 342.656 608.263Z" fill="#EDFDE1"/>
<path d="M366.916 609.204C370.247 608.271 373.484 607.008 376.87 606.278C378.986 605.698 380.507 607.667 381.863 608.922C378.594 610.302 375.153 611.181 371.775 612.247C372.637 614.946 373.484 617.652 374.252 620.389C372.582 619.691 370.443 619.314 369.62 617.487C368.389 614.844 367.825 611.957 366.916 609.204Z" fill="#EDFDE1"/>
<path d="M257.746 608.521C261.469 606.208 266.133 607.941 268.79 611.039C263.335 614.726 257.746 618.208 252.267 621.871C255.175 626.232 258.005 630.648 260.866 635.048C257.072 635.833 252.722 635.033 250.276 631.801C247.235 627.613 244.617 623.134 241.749 618.836C247.11 615.439 252.346 611.839 257.746 608.521Z" fill="#EDFDE1"/>
<path d="M331.291 618.687C332.475 616.671 331.942 614.271 331.683 612.099C333.768 612.53 335.869 612.938 337.977 613.267C339.043 616.42 338.565 620.248 335.798 622.389C333.094 624.797 329.112 624.444 326.157 622.735C328.093 621.754 330.327 620.797 331.291 618.687Z" fill="#EDFDE1"/>
<path d="M357.393 611.934C359.133 612.389 360.951 612.679 362.621 613.416C363.93 616.859 361.649 621.032 358.082 621.856C355.958 622.617 353.881 621.479 352 620.632C355.864 619.675 358.474 615.918 357.393 611.934Z" fill="#EDFDE1"/>
<path d="M379.222 613.236C380.703 613.746 382.192 614.24 383.689 614.742C383.721 616.829 383.548 619.205 381.691 620.539C379.574 622.484 376.431 621.872 374.189 620.515C375.577 619.684 377.325 619.197 378.281 617.786C379.261 616.484 379.01 614.742 379.222 613.236Z" fill="#EDFDE1"/>
<path d="M214.519 616.318C218.626 613.432 224.489 614.765 227.515 618.593C221.456 623.205 215.256 627.644 209.323 632.405C212.716 637.496 216.69 642.186 220.241 647.175C223.51 645.637 226.355 642.931 227.201 639.323C228.33 635.715 227.076 631.966 225.195 628.883C228.777 628.813 232.367 628.703 235.957 628.601C237.477 631.362 238.7 634.499 238.128 637.715C237.509 643.19 232.782 647.841 227.311 648.414C224.858 648.759 222.436 648.053 220.123 647.324C215.703 648.414 210.514 647.787 207.465 644.092C203.656 639.457 200.246 634.515 196.554 629.793C202.558 625.315 208.452 620.695 214.519 616.318Z" fill="#EDFDE1"/>
<path d="M301.373 614.476C303.944 614.813 306.531 615.111 309.118 615.401C310.497 618.946 310.293 623.37 307.338 626.076C304.415 629.182 299.602 629.339 296.02 627.331C298.105 626.147 300.441 624.931 301.46 622.617C302.863 620.076 302.267 617.072 301.373 614.476Z" fill="#EDFDE1"/>
<path d="M63.7675 618.774C69.6148 618.57 75.4307 617.95 81.278 617.762C84.2643 622.193 86.169 627.582 85.3303 632.986C84.3897 641.222 77.8449 648.399 69.7637 650.148C65.9465 651.105 61.9648 650.548 58.226 649.536C58.1241 649.317 57.9124 648.877 57.8105 648.658C58.0849 647.638 59.2293 647.395 59.966 646.83C66.3385 642.885 69.4502 634.625 67.8199 627.386C67.2242 624.217 65.5468 621.409 63.7675 618.774Z" fill="#EDFDE1"/>
<path d="M266.141 619.778C269.174 619.958 272.208 620.068 275.241 620.178C276.189 622.484 277.161 624.97 276.628 627.512C276.033 631.935 272.341 635.661 267.944 636.351C265.522 636.877 263.147 635.991 260.866 635.308C263.382 633.732 266.102 631.959 267.081 628.994C268.343 625.959 267.497 622.617 266.141 619.778Z" fill="#EDFDE1"/>
<path d="M358.388 629.598C361.703 627.974 364.846 625.935 368.35 624.743C370.223 624.303 371.673 625.833 373.092 626.774C370.043 628.562 366.829 630.06 363.725 631.755C365.058 634.21 366.351 636.688 367.472 639.253C365.74 638.885 363.608 638.83 362.503 637.222C360.841 634.845 359.783 632.116 358.388 629.598Z" fill="#EDFDE1"/>
<path d="M163.116 630.044C165.436 627.966 168.454 626.554 171.636 626.82C174.819 626.734 177.499 628.656 179.89 630.523C173.11 636.523 166.22 642.406 159.425 648.39C163.43 652.892 167.255 657.559 171.339 661.999H158.147C153.452 656.885 149.055 651.496 144.415 646.32C150.669 640.915 156.885 635.472 163.116 630.044Z" fill="#EDFDE1"/>
<path d="M334.356 632.821C337.844 630.703 341.238 628.39 344.891 626.578C347.203 625.37 349.508 626.986 351.248 628.429C347.838 630.664 344.287 632.68 340.807 634.806C342.461 637.637 344.225 640.406 345.745 643.324C343.574 643.206 341.058 643.159 339.632 641.237C337.601 638.61 336.167 635.59 334.356 632.821Z" fill="#EDFDE1"/>
<path d="M318.43 630.264C321.024 628.853 323.814 630.437 325.813 632.131C321.949 634.923 318.022 637.614 314.126 640.351C316.258 643.575 318.531 646.689 320.718 649.873C322.545 648.501 324.622 647.042 325.1 644.642C325.813 642.547 324.825 640.477 324.065 638.563C326.299 638.61 328.525 638.618 330.767 638.641C331.292 640.336 332.076 642.061 331.817 643.897C331.417 648.061 327.051 651.473 322.913 650.422C319.707 649.536 315.702 650.807 313.256 647.999C310.662 645.057 308.702 641.622 306.382 638.477C310.45 635.818 314.213 632.688 318.43 630.264Z" fill="#EDFDE1"/>
<path d="M371.211 631.394C372.724 631.597 374.252 631.817 375.781 632.013C376.306 634.068 376.533 636.5 374.919 638.163C373.131 640.382 369.949 640.508 367.566 639.253C370.71 637.959 372.308 634.633 371.211 631.394Z" fill="#EDFDE1"/>
<path d="M349.562 633.833C351.372 634.013 353.238 634.013 355.017 634.5C356.561 637.669 355.393 641.896 352.133 643.434C350.134 644.626 347.806 643.959 345.729 643.449C347.242 642.218 349.233 641.198 349.828 639.182C350.463 637.425 349.813 635.582 349.562 633.833Z" fill="#EDFDE1"/>
<path d="M287.022 637.151C289.961 635.065 293.763 636.343 296.255 638.5C291.96 642.108 287.531 645.559 283.22 649.152C286.026 652.579 288.825 656.015 291.599 659.482C288.519 660.572 284.772 660.243 282.452 657.756C279.474 654.485 276.801 650.94 274.081 647.457C278.455 644.1 282.554 640.383 287.022 637.151Z" fill="#EDFDE1"/>
<path d="M5.46766 641.928C6.45527 641.904 7.71721 641.426 8.43048 642.383C13.2196 647.614 14.8342 655.082 13.9564 662H-5.89765C-5.65467 655.505 -8.05315 649.23 -12.2544 644.336C-6.33659 643.622 -0.442299 642.736 5.46766 641.928Z" fill="#EDFDE1"/>
<path d="M373.617 646.226C376.063 644.657 378.391 642.884 380.969 641.535C382.6 640.476 384.308 641.802 385.798 642.469C383.438 644.296 380.915 645.881 378.375 647.442C379.629 649.551 380.969 651.606 382.255 653.701C380.797 653.363 379.002 653.63 377.897 652.454C376.188 650.579 375.012 648.312 373.617 646.226Z" fill="#EDFDE1"/>
<path d="M177.899 642.9C182.116 642.602 186.317 642.108 190.526 641.692C192.172 644.304 193.748 647.128 193.85 650.304C194.234 654.65 192.337 658.885 189.382 661.999H177.719C179.545 659.411 181.293 656.571 181.403 653.316C181.763 649.504 180.094 645.896 177.899 642.9Z" fill="#EDFDE1"/>
<path d="M106.227 648.422C109.025 645.779 112.96 644.485 116.777 644.955C119.842 645.128 122.436 646.916 124.874 648.611C120.437 653.089 116.032 657.615 111.486 662H92.5493C97.2052 657.576 101.547 652.823 106.227 648.422Z" fill="#EDFDE1"/>
<path d="M353.544 651.041C356.452 649.002 359.093 646.578 362.15 644.774C363.977 643.676 365.913 644.939 367.441 645.951C364.745 648.076 361.993 650.124 359.219 652.139C360.865 654.477 362.605 656.736 364.251 659.073C362.472 658.971 360.379 659.308 358.976 657.952C356.883 655.881 355.362 653.332 353.544 651.041Z" fill="#EDFDE1"/>
<path d="M252.118 646.947C255.379 644.963 259.267 646.343 262.104 648.422C257.299 652.987 252.448 657.505 247.58 661.999H237.101C237.383 659.301 240.103 657.952 241.764 656.124C245.276 653.144 248.278 649.528 252.118 646.947Z" fill="#EDFDE1"/>
<path d="M294.852 646.124C297.423 646.007 300.002 645.842 302.573 645.677C304.815 649.27 305.042 654.305 301.907 657.458C299.367 660.392 295.166 660.823 291.654 659.678C293.598 658.243 295.683 656.603 296.279 654.117C297.266 651.364 296.059 648.572 294.852 646.124Z" fill="#EDFDE1"/>
<path d="M337.837 651.905C339.154 650.822 340.635 649.567 342.469 649.709C343.857 649.858 345.056 650.65 346.31 651.222C343.292 654.038 340.094 656.642 337.045 659.419C337.868 660.274 338.691 661.16 339.553 662H333.667C332.538 660.862 331.472 659.67 330.398 658.494C332.867 656.282 335.321 654.062 337.837 651.905Z" fill="#EDFDE1"/>
<path d="M366.469 650.658C368.06 650.611 369.643 650.556 371.234 650.501C372.12 652.713 372.598 655.513 370.78 657.411C369.29 659.427 366.633 659.419 364.376 659.317C365.301 658.031 366.524 656.925 367.127 655.435C367.676 653.819 366.908 652.187 366.469 650.658Z" fill="#EDFDE1"/>
<path d="M261.069 657.411C264.071 657.105 267.066 656.423 270.099 656.572C271.416 658.141 272.058 660.125 272.819 662H263.585C262.7 660.486 261.892 658.941 261.069 657.411Z" fill="#EDFDE1"/>
<path d="M345.604 656.854C347.469 656.666 349.343 656.469 351.224 656.281C351.82 658.156 352.298 660.062 352.666 661.999H347.132C346.678 660.258 346.168 658.548 345.604 656.854Z" fill="#EDFDE1"/>
<path d="M315.231 658.203C317.41 657.074 319.777 658.344 321.917 658.94C321.055 659.976 320.193 661.011 319.276 661.999H310.638C312.151 660.713 313.46 659.144 315.231 658.203Z" fill="#EDFDE1"/>
<path d="M378.798 658.422C380.17 657.999 381.557 658.822 382.882 659.152C381.871 660.109 380.868 661.097 379.802 661.999H374.315C375.804 660.799 377.082 659.308 378.798 658.422Z" fill="#EDFDE1"/>
<path d="M132.375 661.999C134.193 661.607 136.004 661.12 137.862 661.034C138.277 661.277 139.092 661.756 139.508 661.999H132.375Z" fill="#EDFDE1"/>
<path d="M210.623 661.999C214.064 660.07 218.14 660.164 221.589 661.999H210.623Z" fill="#EDFDE1"/>
</g>
</g>
<defs>
<linearGradient id="paint0_linear_230_10894" x1="-263.731" y1="52.531" x2="1090.83" y2="763.234" gradientUnits="userSpaceOnUse">
<stop stop-color="#000814"/>
<stop offset="1" stop-color="#24AF56"/>
</linearGradient>
</defs>
</svg>
