<svg width="648" height="1028" viewBox="0 0 648 1028" fill="none" xmlns="http://www.w3.org/2000/svg">
<rect x="-16" width="664" height="1029" fill="url(#paint0_linear_275_45784)"/>
<g opacity="0.12">
<g opacity="0.3">
<path d="M562.388 -63.7197H577.409C584.485 -54.075 593.391 -45.4832 604.646 -40.9813C622.732 -33 644.128 -35.4112 660.98 -45.3306C659.638 -28.5134 658.524 -11.6809 657.259 5.13638C656.862 6.83031 657.32 9.18047 655.368 10.0045C639.584 19.4051 619.484 20.8091 602.297 14.5522C584.394 8.21904 569.86 -6.59906 563.593 -24.4998C558.972 -37.0593 559.079 -50.8702 562.388 -63.7197Z" fill="#EDFDE1"/>
<path d="M221.854 43.3185C239.056 24.5326 256.578 6.05198 273.842 -12.6729C296.656 8.3716 319.195 29.6755 341.964 50.7505C347.911 56.0764 352.684 62.8064 354.972 70.513C359.669 84.8123 355.506 100.775 345.883 112.053C320.995 89.5125 296.701 66.3163 272.088 43.4864C253.788 63.2032 235.488 82.9352 217.035 102.515C206.375 84.2018 207.717 59.4338 221.854 43.3185Z" fill="#EDFDE1"/>
<path d="M431.649 42.6928C451.535 27.6153 471.482 12.6293 491.414 -2.38721C510.538 23.1897 529.875 48.6292 549.014 74.2061C556.669 84.3697 558.789 98.0737 555.586 110.282C553.253 119.362 547.412 127.084 540.321 133.051C520.145 106.223 500 79.3794 479.733 52.6122C458.474 68.9259 436.941 84.8733 415.637 101.111C407.447 80.875 414.173 55.8322 431.649 42.6928Z" fill="#EDFDE1"/>
<path d="M16.954 78.2654C30.5723 57.0836 44.3126 35.9781 58.0682 14.8878C84.649 32.4223 111.474 49.5906 138.116 67.0335C150.316 74.9843 157.712 89.543 156.919 104.102C156.767 111.701 153.961 118.905 150.27 125.421C122.179 107.245 94.287 88.7189 65.9981 70.8487C51.0226 93.0987 36.901 115.929 21.9559 138.209C7.97162 121.85 5.37916 96.6239 16.954 78.2654Z" fill="#EDFDE1"/>
<path d="M649.664 73.1227C667.659 63.9357 685.715 54.8404 703.649 45.5161C717.877 73.1684 731.831 100.958 746.044 128.595C750.802 137.385 752.693 147.747 750.711 157.59C748.347 170.287 739.792 181.458 728.309 187.303C713.333 157.407 697.9 127.741 682.894 97.8602C658.814 109.779 634.993 122.186 611.066 134.394C608.001 118.294 612.866 100.851 624.379 89.1006C631.288 81.6534 640.804 77.6856 649.664 73.1227Z" fill="#EDFDE1"/>
<path d="M415.56 151.028C407.188 135.707 407.584 116.554 415.27 101.05C420.532 114.189 430.902 125.329 444.291 130.289C461.066 137.111 480.83 133.585 495.105 122.75C495.349 138.392 496.126 154.004 496.431 169.646C486.9 176.117 475.676 180.466 464.025 180.237C444.078 180.634 424.619 168.776 415.56 151.028Z" fill="#EDFDE1"/>
<path d="M216.928 102.606C224.66 114.433 236.677 123.742 250.814 126.184C268.489 129.984 287.033 122.826 299.355 110.007C302.329 125.329 305.806 140.529 308.734 155.866C297.937 166.731 282.839 173.522 267.391 172.714C243.753 172.515 221.732 154.767 216.227 131.815C213.665 122.231 214.397 112.113 216.928 102.606Z" fill="#EDFDE1"/>
<path d="M92.4876 144.298C97.1542 140.804 100.402 135.89 104.352 131.678C110.254 145.916 115.683 160.368 121.615 174.606C112.054 189.088 95.5377 198.733 78.1221 199.267C56.7873 200.351 35.5286 187.532 26.6226 168.09C22.0781 158.796 21.0564 148.236 21.7121 138.026C28.2544 144.985 36.1234 150.922 45.4412 153.546C61.3928 158.552 79.5861 154.859 92.4876 144.298Z" fill="#EDFDE1"/>
<path d="M602.999 185.136C596.746 168.197 600.132 148.587 610.822 134.165C613.948 149.762 624.318 163.771 638.852 170.471C653.492 177.719 671.166 176.697 685.639 169.524C683.382 184.907 681.094 200.275 679.005 215.657C666.82 221.609 652.516 223.211 639.446 219.427C622.686 214.787 608.672 201.587 602.999 185.136Z" fill="#EDFDE1"/>
<path d="M309.816 216.894C325.127 202.838 339.905 188.112 355.643 174.545C373.973 193.85 391.984 213.475 410.162 232.902C418.565 241.524 422.225 254.481 419.281 266.201C417.863 273.175 413.685 279.157 409.064 284.407C389.483 263.652 370.115 242.715 350.687 221.823C334.659 236.687 318.631 251.55 302.786 266.613C302.344 266.857 301.49 267.361 301.048 267.62C298.592 266.613 298.531 262.828 297.51 260.57C292.919 245.202 297.876 227.576 309.816 216.894Z" fill="#EDFDE1"/>
<path d="M132.199 236.122C145.055 218.999 157.804 201.8 170.903 184.861C192.848 201.755 215.22 218.099 237.119 235.053C251.5 246.713 253.406 269.314 242.594 284.01C219.719 266.963 196.996 249.719 174.243 232.52C160.503 250.818 146.717 269.085 132.961 287.367C122.027 272.625 121.219 251.047 132.199 236.122Z" fill="#EDFDE1"/>
<path d="M496.63 223.577C510.812 214.314 525.086 205.188 539.193 195.833C554.168 218.847 569.189 241.844 584.028 264.964C593.986 280.912 588.466 303.543 572.727 313.631C557.127 289.732 541.861 265.59 525.971 241.89C507.716 254.053 489.249 265.88 470.857 277.814C470.354 277.905 469.363 278.073 468.859 278.165C464.361 265.071 467.914 249.551 476.744 238.914C482.035 232.245 489.66 228.201 496.63 223.577Z" fill="#EDFDE1"/>
<path d="M-9.45895 227.53C15.1699 239.678 39.5243 252.359 63.9702 264.858C80.6995 273.587 86.9367 295.989 78.5796 312.639C53.1578 299.713 27.797 286.68 2.35986 273.8C-7.97969 294.143 -18.365 314.47 -28.7045 334.813C-42.1398 322.406 -46.5623 301.361 -38.5103 284.819C-28.9638 265.651 -18.9902 246.698 -9.45895 227.53Z" fill="#EDFDE1"/>
<path d="M657.015 274.472C676.779 265.911 696.665 257.548 716.52 249.17C725.945 271.481 735.415 293.777 744.901 316.072C748.927 324.725 752.48 334.294 750.314 343.969C748.469 355.949 739.807 365.822 729.102 370.996C717.878 344.762 706.791 318.453 695.658 292.189C674.567 301.071 653.522 310.06 632.462 319.018C630.464 300.919 640.224 282.026 657.015 274.472Z" fill="#EDFDE1"/>
<path d="M299.233 271.221C299.645 270.993 300.468 270.535 300.88 270.321C303.274 271.527 303.976 274.502 305.714 276.425C315.459 288.817 332.646 294.647 347.972 291.137C356.192 289.595 363.42 285.078 369.78 279.813C371.442 292.968 373.379 306.077 375.071 319.231C365.586 327.396 353.142 332.31 340.53 331.226C320.995 330.326 303.289 315.432 298.669 296.478C296.442 288.191 297.174 279.462 299.233 271.221Z" fill="#EDFDE1"/>
<path d="M467.685 281.324L468.63 280.897C470.811 281.995 470.796 284.941 471.985 286.848C480.891 304.902 503.568 314.012 522.631 307.908C526.977 306.641 530.973 304.459 534.922 302.277C534.633 315.462 533.702 328.647 533.489 341.848C516.348 353.186 491.887 351.279 477.003 337.041C461.722 323.52 457.162 298.889 467.685 281.324Z" fill="#EDFDE1"/>
<path d="M202.974 286.406C207.351 298.873 211.072 311.57 215.251 324.115C207.427 333.836 196.066 340.84 183.53 342.061C163.217 344.778 142.218 332.004 135.051 312.837C131.772 304.734 131.589 295.791 132.748 287.245C139.427 295.348 148.41 301.849 158.932 303.665C175.433 307.252 192.924 299.682 202.974 286.406Z" fill="#EDFDE1"/>
<path d="M628.527 374.322C617.334 357.581 619.179 334.049 632.264 318.85C634.399 331.15 640.865 342.977 651.616 349.692C663.938 358.07 680.225 358.787 693.844 353.201C691.19 364.83 688.75 376.52 686.249 388.194C685.746 389.797 685.609 392.147 683.565 392.543C663.908 400.342 639.675 392.284 628.527 374.322Z" fill="#EDFDE1"/>
<path d="M38.8226 323.794C39.5394 320.925 41.4762 323.855 41.9489 324.954C47.0425 335.057 52.5782 344.961 57.626 355.094C59.1205 357.292 56.9702 359.337 55.9789 361.198C46.7831 375.36 29.3524 383.647 12.562 381.663C-4.10629 380.061 -19.5089 368.661 -25.5631 352.988C-28.0031 347.204 -28.5521 340.902 -29.0554 334.736C-21.3236 341.497 -11.5788 346.304 -1.14776 346.426C15.1241 347.326 30.9688 337.926 38.8226 323.794Z" fill="#EDFDE1"/>
<path d="M224.294 372.415C235.045 360.206 245.553 347.784 256.395 335.636C273.597 350.714 290.937 365.669 308.169 380.732C315.444 386.988 319.454 396.755 318.539 406.339C318.234 412.886 315.017 418.746 311.418 424.041C293.041 408.186 274.695 392.269 256.472 376.23C243.738 390.941 230.928 405.606 218.194 420.318C212.597 411.146 210.569 399.716 213.848 389.369C215.647 382.838 219.81 377.359 224.294 372.415Z" fill="#EDFDE1"/>
<path d="M374.034 369.576C387.271 358.939 400.387 348.181 413.654 337.559C428.294 355.964 443.346 374.063 457.925 392.528C467.441 405.118 464.528 424.423 452.283 434.175C437.124 415.236 421.813 396.45 406.563 377.603C391.587 390.01 376.307 402.051 361.316 414.443C358.037 405.53 357.305 395.489 360.904 386.561C363.42 379.694 368.316 374.002 374.034 369.576Z" fill="#EDFDE1"/>
<path d="M73.8369 406.339C82.9259 391.231 92.015 376.123 101.073 361C120.67 372.812 140.312 384.577 159.924 396.389C169.196 401.792 175.036 412.352 174.808 423.08C174.823 428.467 172.871 433.579 170.751 438.448C149.813 426.193 129.103 413.588 108.363 401.013C98.176 417.617 88.355 434.465 78.1527 451.053C67.2946 439.058 65.0071 420.12 73.8369 406.339Z" fill="#EDFDE1"/>
<path d="M518.925 394.299C535.136 384.822 551.774 376.108 568.091 366.784C579.102 386.577 590.036 406.416 601.032 426.209C606.461 435.396 606.674 447.406 601.382 456.7C598.744 461.72 594.261 465.337 589.884 468.771C577.562 447.787 566.231 426.239 554.275 405.042C537.347 414.641 520.191 423.813 503.324 433.503C506.618 446.795 517.385 457.966 530.897 460.805C540.138 463.201 549.807 460.957 558.24 456.898C556.623 467.977 556.257 479.255 554.214 490.258C538.201 499.811 515.799 494.927 504.605 480.17C493.961 467.062 493.412 447.177 503.157 433.412C500.366 418.731 505.978 402.387 518.925 394.299Z" fill="#EDFDE1"/>
<path d="M-66.8909 463.979C-60.4554 446.933 -53.8826 429.947 -47.325 412.947C-25.4107 421.615 -3.26765 429.734 18.6162 438.463C33.1648 444.643 39.9663 462.666 34.5525 477.286C11.9367 468.526 -10.7248 459.919 -33.3407 451.144C-38.602 464.894 -43.909 478.614 -49.1246 492.379C-50.6648 496.316 -51.7781 500.589 -54.7213 503.778C-55.1636 503.778 -56.0481 503.763 -56.5056 503.763C-67.3941 494.057 -71.9539 477.79 -66.8909 463.979Z" fill="#EDFDE1"/>
<path d="M363.603 451.831C356.451 440.874 355.643 426.255 361.27 414.458C366.608 426.132 377.801 435.121 390.748 436.357C401.027 437.776 411.275 434.099 419.403 427.933C420.242 439.15 420.715 450.382 421.676 461.598C414.92 466.543 406.898 470.083 398.419 470.129C384.603 470.922 370.893 463.521 363.603 451.831Z" fill="#EDFDE1"/>
<path d="M217.904 420.226C223.41 427.628 230.897 433.9 240.108 435.869C253.803 439.638 268.443 433.839 277.837 423.645C280.338 434.632 283.19 445.544 285.752 456.532C279.133 463.277 270.593 468.404 261.062 469.427C244.927 471.731 228.122 462.697 220.924 448.138C216.364 439.592 215.983 429.551 217.904 420.226Z" fill="#EDFDE1"/>
<path d="M663.984 440.202C681.049 434.205 698.19 428.391 715.3 422.515C722.727 444.643 730.566 466.619 737.962 488.747C743.01 504.038 733.585 521.343 718.655 526.563C710.741 503.611 702.978 480.597 694.88 457.706C677.038 463.963 659.119 470.281 641.231 476.187C639.263 473.669 640.285 470.297 640.697 467.443C643.061 455.127 652.15 444.384 663.984 440.202Z" fill="#EDFDE1"/>
<path d="M107.235 462.544C119.801 462.148 130.735 454.181 137.567 444.018C141.989 454.38 146.625 464.635 151.109 474.967C145.146 483.757 136.194 490.746 125.641 492.852C109.842 496.56 92.4267 489.022 83.9171 475.302C79.1591 468.099 77.8629 459.324 77.8629 450.855C85.5642 458.531 96.1783 463.552 107.235 462.544Z" fill="#EDFDE1"/>
<path d="M290.327 498.056C300.316 488.304 309.954 478.171 320.08 468.557C333.118 481.773 346.295 494.866 359.44 507.99C370.954 517.483 371.96 536.299 361.224 546.768C346.737 532.133 332.097 517.666 317.609 503.031C305.958 514.736 294.277 526.41 282.595 538.069C288.1 547.805 298.821 554.444 310.121 554.062C318.738 554.246 326.637 549.988 332.966 544.448C334.43 553.925 336.168 563.356 337.739 572.818C330.648 579.136 321.269 583.164 311.662 582.264C297.296 581.394 284.272 570.239 281.421 556.092C279.819 550.018 281.055 543.761 282.244 537.749C279.042 530.485 277.471 522.229 279.789 514.476C281.344 507.975 285.584 502.588 290.327 498.056Z" fill="#EDFDE1"/>
<path d="M634.948 482.612C636.29 481.239 636.732 477.988 639.157 478.324C641.734 485.13 643.106 492.669 648.307 498.163C657.991 510.417 675.33 514.217 689.878 509.486C686.386 520.123 684.038 531.126 680.149 541.61C662.932 548.218 642.008 539.748 633.331 523.663C626.179 511.073 626.697 494.576 634.948 482.612Z" fill="#EDFDE1"/>
<path d="M414.737 506.526C427.471 497.384 440.372 488.503 453.213 479.514C463.445 494.256 473.755 508.967 484.094 523.633C488.105 528.974 491.551 535.216 491.292 542.113C491.628 550.675 487.007 558.717 480.236 563.722C468.554 546.814 456.629 530.088 444.978 513.149C431.268 522.534 417.68 532.118 404.138 541.762C400.386 529.233 403.924 514.431 414.737 506.526Z" fill="#EDFDE1"/>
<path d="M186.733 480.857C201.739 491.249 216.608 501.825 231.614 512.218C237.47 515.956 242.701 521.221 244.607 528.089C247.047 535.734 245.141 543.899 241.359 550.751C224.34 539.046 207.427 527.188 190.622 515.209C180.969 528.714 171.59 542.418 161.982 555.985C152.802 544.189 152.939 526.654 162.668 515.239C170.736 503.809 178.757 492.348 186.733 480.857Z" fill="#EDFDE1"/>
<path d="M-33.1424 512.92C-17.2214 513.789 -3.06924 502.649 3.03078 488.457C8.88681 497.857 15.6121 506.739 21.2699 516.262C16.1916 531.69 -0.217442 542.129 -16.2758 541.457C-32.1511 541.198 -47.2639 530.378 -52.3117 515.255C-52.9675 512.706 -54.5992 509.608 -52.6624 507.273C-46.3794 509.654 -40.2337 513.438 -33.1424 512.92Z" fill="#EDFDE1"/>
<path d="M539.482 533.659C553.634 526.685 568.122 520.443 582.274 513.454C590.753 530.729 598.561 548.309 606.811 565.676C610.715 573.566 610.502 583.348 605.866 590.887C603.304 595.404 598.973 598.425 594.855 601.355C585.843 582.768 577.241 563.967 568.595 545.211C553.36 551.941 538.461 559.373 523.241 566.134C522.052 553.345 527.74 539.702 539.482 533.659Z" fill="#EDFDE1"/>
<path d="M57.7022 516.185C74.645 523.816 91.3896 531.904 108.287 539.626C115.454 542.541 121.737 548.096 124.253 555.573C126.831 561.983 125.58 568.911 123.903 575.366C104.871 567.202 86.3113 558 67.508 549.332C60.9504 563.341 54.3319 577.335 47.9726 591.436C47.5761 591.802 46.7831 592.504 46.3714 592.87C44.1449 593.603 43.3214 590.291 41.9337 589.147C35.1016 580.234 33.8816 567.553 38.6092 557.405C44.8922 543.624 51.4954 529.996 57.7022 516.185Z" fill="#EDFDE1"/>
<path d="M413.822 584.706C400.463 575.412 395.994 555.878 404.153 541.762C407.539 549.347 412.937 556.336 420.776 559.663C431.07 564.638 443.514 562.761 452.816 556.443C452.633 566.072 452.648 575.717 452.633 585.347C441.043 592.916 425 593.191 413.822 584.706Z" fill="#EDFDE1"/>
<path d="M183.53 567.248C194.983 568.469 206.024 562.41 212.765 553.391C216.028 562.395 219.185 571.444 222.51 580.433C217.264 586.934 210.172 592.199 201.831 593.755C187.358 597.067 171.346 589.193 164.971 575.824C161.753 569.674 161.357 562.593 161.738 555.802C167.503 561.861 174.945 566.759 183.53 567.248Z" fill="#EDFDE1"/>
<path d="M516.134 586.354C516.012 578.999 518.956 571.979 523.378 566.21C525.483 575.138 530.546 583.623 538.765 588.109C547.748 593.557 559.109 593.313 568.61 589.33C567.07 598.731 565.224 608.085 563.669 617.486C555.815 620.691 546.863 621.637 538.796 618.707C525.3 614.327 515.54 600.562 516.134 586.354Z" fill="#EDFDE1"/>
<path d="M658.921 581.562C673.835 577.335 688.887 573.596 703.817 569.399C708.926 587.712 713.653 606.132 718.686 624.46C721.019 632.411 719.921 641.491 714.782 648.129C711.427 652.891 706.166 655.668 701.042 658.079C695.002 638.317 690.168 618.203 684.739 598.273C668.696 602.286 652.76 606.727 636.793 611.031C637.083 597.815 646.05 585.194 658.921 581.562Z" fill="#EDFDE1"/>
<path d="M-73.5551 612.343C-69.8951 599.31 -66.7078 586.155 -62.8801 573.184C-43.8632 578.647 -24.6481 583.378 -5.60078 588.75C7.59054 592.428 15.2612 607.276 11.8452 620.37C-8.04087 615.013 -27.8964 609.458 -47.8893 604.453C-52.0373 620.416 -56.4446 636.317 -60.6078 652.28C-68.0346 647.351 -73.9211 639.766 -75.3546 630.808C-76.6509 624.612 -75.2479 618.31 -73.5551 612.343Z" fill="#EDFDE1"/>
<path d="M72.3727 601.386C82.8495 599.799 91.0541 592.077 96.1476 583.165C100.509 591.497 105.801 599.356 109.903 607.826C103.269 624.094 82.087 631.678 66.3642 624.216C55.0487 619.577 47.5762 608.284 46.2799 596.289C46.6307 596.06 47.3322 595.617 47.6677 595.404C54.8657 600.165 63.6345 603.4 72.3727 601.386Z" fill="#EDFDE1"/>
<path d="M336.916 610.252C346.615 601.828 356.283 593.374 366.028 585.011C377.084 597.952 388.491 610.634 399.441 623.666C406.746 632.609 404.58 646.054 396.726 653.913C384.892 640.85 373.516 627.39 361.941 614.083C351.922 623.025 341.658 631.693 331.639 640.636C331.273 640.743 330.541 640.941 330.19 641.048C325.021 630.839 328.269 617.547 336.916 610.252Z" fill="#EDFDE1"/>
<path d="M228.168 617.455C236.281 607.475 244.211 597.357 252.537 587.544C265.5 598.471 278.965 608.787 291.913 619.729C300.666 627.146 301.337 641.277 294.231 650.037C280.704 638.927 267.009 628.016 253.483 616.921C246.056 626.23 238.446 635.402 231.08 644.756C229.753 646.328 228.427 648.038 226.597 649.045C220.253 639.583 220.786 626.184 228.168 617.455Z" fill="#EDFDE1"/>
<path d="M443.254 623.483C454.707 616.067 466.694 609.489 478.223 602.164C486.229 615.243 493.976 628.474 501.982 641.552C505.78 647.244 508.342 654.295 506.466 661.162C505.322 667.144 501.083 671.799 496.431 675.415C487.419 660.399 478.314 645.443 469.439 630.351C457.178 637.294 445.206 644.757 433.144 652.051C435.538 659.178 440.326 665.679 447.296 668.884C455.5 673.05 465.398 671.86 473.343 667.648C472.733 675.721 472.169 683.793 471.711 691.882C465.992 694.674 459.633 696.551 453.228 695.514C441.089 694.079 430.658 683.946 428.889 671.844C427.501 664.931 429.667 657.957 432.915 651.914C430.917 641.46 434.135 629.633 443.254 623.483Z" fill="#EDFDE1"/>
<path d="M121.524 644.955C127.776 633.143 134.532 621.606 140.846 609.825C155.776 618.081 170.782 626.2 185.574 634.7C195.532 640.606 198.186 654.096 193.199 664.153C177.858 655.592 162.486 647.107 147.129 638.576C140.312 650.846 133.587 663.161 126.694 675.385C118.947 667.526 116.461 654.905 121.524 644.955Z" fill="#EDFDE1"/>
<path d="M627.734 623.392C629.656 618.493 633.148 614.495 636.64 610.664C636.732 621.972 642.649 633.158 652.699 638.622C660.065 643.063 669.001 643.261 677.267 641.781C673.912 650.021 671.258 658.537 667.873 666.762C667.369 669.494 664.243 668.96 662.215 669.402C651.143 670.623 639.66 665.877 632.721 657.179C625.157 647.9 623.053 634.455 627.734 623.392Z" fill="#EDFDE1"/>
<path d="M-27.6524 651.548C-20.6526 647.321 -16.5504 639.965 -13.6986 632.563C-7.73587 640.087 -1.43753 647.321 4.571 654.798C1.52098 663.466 -4.25877 671.417 -12.6616 675.538C-25.5784 682.405 -42.7957 679.353 -52.5863 668.457C-56.8868 664.016 -59.1743 658.125 -60.9128 652.311C-50.6952 657.85 -37.4429 658.247 -27.6524 651.548Z" fill="#EDFDE1"/>
<path d="M549.593 652.707C561.717 648.007 573.826 643.246 586.071 638.805C591.821 654.493 598.104 669.982 603.899 685.655C608.245 696.719 601.703 709.477 591.028 713.887C584.821 697.497 578.431 681.199 572.285 664.794C562.464 668.365 552.75 672.18 543.02 675.965C540.123 676.941 537.286 678.849 534.13 678.04L532.772 677.445C532.864 666.793 539.543 656.507 549.593 652.707Z" fill="#EDFDE1"/>
<path d="M330.145 642.849C333.988 647 337.129 652.188 342.665 654.401C352.425 659.437 364.198 656.751 372.601 650.311C373.18 658.506 374.248 666.64 374.843 674.835C367.05 680.314 356.969 683.183 347.713 679.932C332.813 675.644 323.023 657.118 330.145 642.849Z" fill="#EDFDE1"/>
<path d="M24.2435 682.344C27.9188 671.936 31.4111 661.452 35.0558 651.044C51.2209 656.904 67.6452 662.032 83.7493 668.029C94.2566 672.256 99.2586 684.968 95.8426 695.529C79.3268 689.669 62.7195 684.129 46.2036 678.315C41.5066 691.622 37.0231 705.006 32.3565 718.328C26.9885 713.842 22.4593 707.936 21.4375 700.839C20.1108 694.522 22.1085 688.234 24.2435 682.344Z" fill="#EDFDE1"/>
<path d="M225.956 652.555C226.399 652.356 227.268 651.975 227.695 651.776C231.965 653.974 235.061 658.293 239.956 659.498C250.768 663.497 262.709 658.964 270.242 650.769C271.935 658.72 275.305 666.32 276.281 674.423C268.107 684.419 252.766 687.456 241.42 681.214C230.867 675.965 225.224 664.076 225.956 652.555Z" fill="#EDFDE1"/>
<path d="M149.889 682.755C158.246 681.535 164.88 675.644 169.439 668.868C172.81 676.193 176.302 683.473 179.992 690.661C175.036 699.069 165.947 705.143 156.035 705.204C144.978 705.86 134.044 699.176 129.332 689.211C127.151 684.877 126.846 679.948 126.221 675.247C132.626 680.894 141.257 684.556 149.889 682.755Z" fill="#EDFDE1"/>
<path d="M529.051 684.846C530.012 683.564 530.348 681.092 532.391 681.245C534.785 686.723 536.402 692.873 541.251 696.856C548.754 704.151 560.116 705.402 569.799 702.35C567.695 710.179 565.758 718.069 563.76 725.928C554.29 728.98 543.264 727.683 535.578 721.06C524.964 712.697 522.036 696.383 529.051 684.846Z" fill="#EDFDE1"/>
<path d="M301.505 681.931C312.104 691.637 322.703 701.373 333.057 711.354C340.393 718.175 339.859 730.186 333.576 737.541C322.733 727.256 311.692 717.199 300.865 706.913C292.599 715.657 284.578 724.631 276.22 733.268C274.238 728.324 272.301 722.937 273.521 717.55C274.314 711.827 277.883 707.066 281.848 703.083C288.497 696.124 294.993 689.028 301.505 681.931Z" fill="#EDFDE1"/>
<path d="M370.176 707.768C379.28 700.382 388.873 693.606 398.19 686.494C406.7 698.062 415.576 709.37 424.039 720.983C429.911 729.041 427.364 740.639 419.998 746.866C411.062 734.932 401.988 723.105 393.158 711.095C383.306 718.038 373.851 725.531 364.183 732.734C361.667 724.097 363.039 713.857 370.176 707.768Z" fill="#EDFDE1"/>
<path d="M645.562 701.282C658.814 698.291 672.249 696.124 685.547 693.316C688.78 710.026 692.257 726.706 695.216 743.478C697.214 754.923 688.552 765.758 677.602 768.276C674.232 751.032 670.938 733.772 667.537 716.527C654.132 718.832 640.895 722.586 627.368 723.761L626.255 723.257C627.963 713.094 635.39 703.831 645.562 701.282Z" fill="#EDFDE1"/>
<path d="M186.794 723.822C192.848 713.735 199.467 703.983 205.948 694.155C217.98 702.32 230.409 709.858 242.396 718.084C250.387 723.685 251.759 735.298 246.834 743.386C234.42 735.115 221.839 727.118 209.379 718.939C202.868 728.98 196.447 739.083 189.783 749.017C194.892 754.13 201.968 757.64 209.364 756.541C216.394 755.976 222.113 751.367 226.459 746.133C229.082 752.451 231.538 758.845 234.191 765.163C231.126 768.933 227.573 772.534 222.921 774.258C211.972 779.035 198.064 774.014 192.528 763.469C189.92 759.227 189.829 754.114 189.57 749.307C184.598 741.906 182.173 732.002 186.794 723.822Z" fill="#EDFDE1"/>
<path d="M55.369 721.762C63.8786 719.351 69.8566 712.148 73.4099 704.365C77.7714 711.003 82.9716 717.062 87.0739 723.868C83.2766 738.701 64.9613 746.927 50.916 741.433C40.7595 738.076 33.8817 728.538 31.9449 718.237C38.96 722.266 47.4695 724.478 55.369 721.762Z" fill="#EDFDE1"/>
<path d="M464.986 721.686C474.166 717.092 483.271 712.331 492.482 707.783C498.917 721.09 506.1 734.032 512.352 747.415C516.119 756.312 511.178 766.125 503.538 771.084C496.645 757.823 489.828 744.531 483.194 731.147C472.26 736.244 461.631 741.967 450.895 747.446C450.773 742.12 450.788 736.458 453.67 731.758C456.11 727.179 460.38 723.914 464.986 721.686Z" fill="#EDFDE1"/>
<path d="M-62.148 710.225C-45.3424 712.804 -28.5217 715.368 -11.7618 718.221C-0.385284 720.297 7.02625 732.063 5.59275 743.295C-11.6703 740.487 -28.9944 737.938 -46.2269 734.962C-48.7585 748.895 -50.9698 762.889 -52.8455 776.914C-62.7886 771.878 -69.8798 760.967 -68.2328 749.597C-66.4333 736.443 -63.9933 723.38 -62.148 710.225Z" fill="#EDFDE1"/>
<path d="M113.502 722.952C126.922 728.568 140.373 734.123 153.671 740.044C162.668 744.134 165.734 755.29 162.745 764.232C148.959 758.418 135.203 752.497 121.402 746.713C116.705 757.777 112.008 768.841 107.326 779.92C99.5179 772.916 96.4831 761.15 101.378 751.612C105.404 742.043 109.568 732.551 113.502 722.952Z" fill="#EDFDE1"/>
<path d="M621.756 765.743C611.478 754.557 612.927 734.169 625.371 725.562C626.743 732.093 627.811 739.159 632.63 744.225C638.913 751.779 649.252 754.511 658.738 753.122C655.261 760.509 651.967 767.986 648.612 775.418C638.76 776.609 628.192 773.633 621.756 765.743Z" fill="#EDFDE1"/>
<path d="M275.931 733.101C280.018 737.969 285.05 742.654 291.608 743.6C299.492 745.386 307.239 741.677 313.065 736.58C314.269 743.264 315.703 749.918 317.289 756.526C308.49 766.338 291.821 766.934 282.595 757.426C275.854 751.352 274.314 741.692 275.931 733.101Z" fill="#EDFDE1"/>
<path d="M373.379 764.11C362.765 758.021 358.662 743.661 364.107 732.75C367.553 738.976 372.738 744.745 379.982 746.24C386.86 748.331 393.905 745.782 399.807 742.288C399.975 749.292 400.356 756.282 400.341 763.302C392.258 768.17 381.568 769.391 373.379 764.11Z" fill="#EDFDE1"/>
<path d="M552.567 753.901C562.22 751.001 571.843 747.995 581.511 745.126C585.568 758.952 590.082 772.656 594.016 786.513C596.838 796.127 590.356 805.909 581.42 809.297C576.982 795.028 572.621 780.744 568.351 766.445C559.216 769.009 550.172 771.878 541.129 774.701C538.933 775.312 536.737 776.334 534.48 775.632C533.687 765.514 542.563 755.9 552.567 753.901Z" fill="#EDFDE1"/>
<path d="M449.293 773.48C444.49 765.346 445.71 754.999 450.712 747.278C453.045 753.58 456.659 759.929 463.003 762.92C469.637 766.643 477.582 765.697 484.399 762.981C483.042 769.741 482.859 776.731 481.014 783.4C470.003 789.229 455.104 784.453 449.293 773.48Z" fill="#EDFDE1"/>
<path d="M-31.6784 777.082C-22.7571 773.541 -17.0993 764.904 -15.1016 755.808C-9.41331 761.607 -3.55723 767.254 2.29879 772.885C0.682285 779.859 -2.76423 786.604 -8.66601 790.908C-18.5785 798.782 -33.7829 798.599 -43.604 790.679C-48.2247 787.306 -50.924 782.087 -53.303 777.051C-46.3032 779.127 -38.5562 780.302 -31.6784 777.082Z" fill="#EDFDE1"/>
<path d="M316.374 785.002C323.374 778.104 330.709 771.527 337.968 764.904C346.294 774.197 355.17 783.003 363.329 792.434C368.651 798.782 366.852 808.046 361.911 814.043C352.913 804.917 344.525 795.196 335.528 786.07C328.101 793.166 320.537 800.125 313.08 807.176C310.533 799.805 310.502 790.847 316.374 785.002Z" fill="#EDFDE1"/>
<path d="M20.2787 799.958C22.5052 789.016 25.3569 778.211 27.6749 767.3C41.9795 770.535 56.3298 773.618 70.5277 777.265C79.9217 779.844 84.6645 790.145 83.414 799.332C68.7282 796.173 54.1796 792.465 39.509 789.367C36.5047 800.461 35.3457 812.135 30.9385 822.787L30.1303 823.428C22.673 818.347 18.1589 808.931 20.2787 799.958Z" fill="#EDFDE1"/>
<path d="M142.874 770.581C146.702 776.288 150.194 782.194 153.9 787.993C151.216 792.51 147.998 796.997 143.225 799.469C133.846 804.871 121.02 802.857 113.746 794.845C109.674 790.847 108.195 785.185 106.899 779.844C112.526 783.14 119.023 785.689 125.656 784.224C133.373 783.064 139.183 777.112 142.874 770.581Z" fill="#EDFDE1"/>
<path d="M238.553 792.678C244.211 784.834 250.051 777.128 256.06 769.558C265.286 776.883 274.878 783.735 284.181 790.938C291.638 795.959 292.675 806.581 287.841 813.799C277.73 806.108 267.574 798.447 257.402 790.832C251.134 798.95 245.309 807.42 238.66 815.249C234.893 808.381 233.673 799.301 238.553 792.678Z" fill="#EDFDE1"/>
<path d="M394.119 791.106C402.217 785.185 410.985 780.241 419.19 774.457C426.068 784.514 432.656 794.784 439.183 805.085C443.941 812.303 441.043 822.101 434.257 826.908C427.425 816.21 420.44 805.635 413.593 794.967C404.916 800.553 396.284 806.23 387.592 811.815C386.555 804.414 387.744 795.868 394.119 791.106Z" fill="#EDFDE1"/>
<path d="M530.683 808.259C524.019 799.179 524.919 784.498 533.779 777.463C534.984 783.476 537.027 789.702 542.105 793.594C548.083 798.874 556.517 799.805 564.066 798.08C561.748 804.581 559.628 811.143 557.554 817.736C547.733 820.361 536.432 816.851 530.683 808.259Z" fill="#EDFDE1"/>
<path d="M175.89 788.466C187.129 794.296 198.613 799.683 209.669 805.848C216.684 810.06 217.691 819.125 215.479 826.343C203.813 821.048 192.665 814.669 181.09 809.175C176.576 818.301 171.849 827.32 167.335 836.431C161.799 830.662 159.252 821.796 162.867 814.318C166.954 805.589 171.666 797.15 175.89 788.466Z" fill="#EDFDE1"/>
<path d="M631.974 801.087C642.222 799.866 652.485 798.584 662.749 797.348C664.335 811.998 666.607 826.587 667.949 841.268C668.528 850.837 660.598 858.971 651.464 860.405C649.74 845.572 647.849 830.754 646.05 815.935C634.109 817.492 622.138 818.835 610.197 820.407C612.423 810.075 621.162 801.529 631.974 801.087Z" fill="#EDFDE1"/>
<path d="M469.835 810.335C478.955 805.711 488.669 802.369 497.926 798.035C502.806 809.373 507.793 820.681 512.368 832.157C515.601 840.108 510.736 848.578 503.736 852.485C498.658 840.78 493.702 829.014 488.776 817.248C479.306 821.216 469.927 825.351 460.426 829.212C460.365 821.887 463.079 814.013 469.835 810.335Z" fill="#EDFDE1"/>
<path d="M312.821 807.13C316.618 811.357 320.812 815.936 326.759 816.836C333.057 818.438 339.127 815.417 344.281 812.105C344.998 817.858 345.776 823.612 346.63 829.35C342.573 832.158 338.044 834.813 332.951 834.615C323.328 835.057 314.163 827.64 312.363 818.225C311.692 814.531 312.348 810.793 312.821 807.13Z" fill="#EDFDE1"/>
<path d="M64.8392 809.007C69.5667 814.089 74.218 819.262 78.793 824.512C76.231 831.532 71.5645 838.155 64.397 840.948C53.8744 845.709 40.3172 841.451 34.4154 831.532C33.3631 829.502 31.5179 827.106 32.7836 824.817C37.9839 826.618 43.7027 827.945 49.0859 825.931C57.016 823.627 62.4144 816.607 64.8392 809.007Z" fill="#EDFDE1"/>
<path d="M387.729 832.127C383.901 825.901 384.74 818.118 387.47 811.647C390.413 816.53 393.798 821.78 399.487 823.734C405.419 826.313 411.992 824.634 417.558 821.933C417.131 827.747 417.451 833.638 416.491 839.421C407.127 845.755 392.975 842.123 387.729 832.127Z" fill="#EDFDE1"/>
<path d="M253.605 822.604C260.223 823.261 265.805 819.217 270.425 815.02C272.072 820.468 273.811 825.901 275.778 831.242C269.282 840.063 255.816 842.26 247.062 835.576C240.429 831.166 238.217 822.894 238.477 815.34C242.869 818.82 247.627 822.803 253.605 822.604Z" fill="#EDFDE1"/>
<path d="M92.1369 848.853C94.6379 839.437 97.7337 830.174 100.646 820.88C112.343 824.802 124.315 827.915 135.996 831.929C143.987 834.614 147.434 843.695 145.802 851.539C133.693 847.784 121.509 844.229 109.461 840.291C106.106 849.906 103.468 859.734 100.341 869.409C93.7839 864.998 89.9104 856.651 92.1369 848.853Z" fill="#EDFDE1"/>
<path d="M599.842 844.412C597.905 835.057 602.816 825.901 610.014 820.193C610.212 826.389 611.02 832.997 615.245 837.896C620.17 844.381 628.512 846.823 636.381 846.548C633.026 852.485 629.778 858.513 626.743 864.632C614.238 866.219 601.565 857.002 599.842 844.412Z" fill="#EDFDE1"/>
<path d="M-50.741 860.924C-50.6343 849.158 -49.6278 837.423 -48.9567 825.672C-34.0879 826.923 -19.1124 826.908 -4.25886 828.373C4.92168 829.853 11.1132 838.796 11.098 847.8C-3.81659 846.869 -18.7464 846.411 -33.6457 845.358C-34.2404 857.414 -34.942 869.47 -35.5825 881.526C-43.7412 877.848 -50.7258 870.325 -50.741 860.924Z" fill="#EDFDE1"/>
<path d="M182.006 841.131C188.99 841.024 194.267 835.851 198.201 830.616C200.794 835.82 203.539 840.948 206.314 846.075C201.266 854.896 189.966 859.749 180.343 855.674C172.322 852.836 167.701 844.763 166.801 836.614C171.468 839.116 176.455 841.924 182.006 841.131Z" fill="#EDFDE1"/>
<path d="M459.709 854.82C453.914 847.357 454.631 836.491 460.35 829.197C462.058 834.645 464.635 840.307 469.912 843.16C475.31 846.686 482.035 846.151 488.013 844.625C486.61 850.287 485.406 855.995 484.247 861.717C475.615 864.8 465.138 862.511 459.709 854.82Z" fill="#EDFDE1"/>
<path d="M542.243 841.94C551.865 839.269 561.671 837.285 571.431 835.133C573.978 847.342 577.348 859.382 579.59 871.652C581.146 879.878 574.893 886.989 567.542 889.583C564.599 877.161 561.763 864.724 558.926 852.286C549.212 853.889 539.681 857.963 529.89 858.009C529.372 851.31 535.456 843.969 542.243 841.94Z" fill="#EDFDE1"/>
<path d="M293.697 836.461C301.825 843.496 310.167 850.302 317.96 857.719C322.992 862.618 322.108 870.538 318.402 875.956C310.167 868.859 302.115 861.55 293.727 854.637C288.1 861.336 282.351 867.944 276.51 874.46C274.345 868.768 272.896 861.962 276.693 856.59C281.863 849.494 288.222 843.344 293.697 836.461Z" fill="#EDFDE1"/>
<path d="M343.839 853.538C350.153 847.815 357.137 842.871 363.558 837.255C370.176 845.648 377.237 853.706 383.611 862.282C387.729 867.944 385.701 875.818 380.927 880.412C374.095 872.003 367.294 863.579 360.492 855.14C353.782 859.978 348.094 866.677 340.713 870.294C337.495 865.472 339.493 857.612 343.839 853.538Z" fill="#EDFDE1"/>
<path d="M211.789 870.05C215.678 862.389 220.664 855.323 224.797 847.8C233.978 853.156 243.204 858.467 252.125 864.251C258.058 868.127 258.896 876.322 255.923 882.35C246.681 876.688 237.409 871.103 228.091 865.609C223.699 873.01 219.307 880.412 214.778 887.737C210.721 882.899 208.891 875.925 211.789 870.05Z" fill="#EDFDE1"/>
<path d="M414.447 860.1C420.379 856.865 426.296 853.614 432.168 850.287C437.2 859.474 442.507 868.524 447.341 877.833C450.666 884.288 447.494 891.888 441.806 895.764C436.483 886.318 431.283 876.81 426.022 867.349C418.382 871.667 410.604 875.788 403.071 880.29C403.33 876.093 402.857 871.515 405.251 867.822C407.28 864.22 410.94 862.038 414.447 860.1Z" fill="#EDFDE1"/>
<path d="M117.498 871.27C123.43 869.271 127.075 863.854 129.744 858.513C133.144 863.182 136.682 867.776 140.388 872.217C137.018 882.67 125.245 889.354 114.631 885.921C106.807 883.876 101.927 876.795 99.701 869.424C105.191 872.018 111.611 873.834 117.498 871.27Z" fill="#EDFDE1"/>
<path d="M527.831 860.039C528.167 860.008 528.838 859.932 529.173 859.901C529.738 865.716 531.735 871.729 536.737 875.223C541.358 879.191 547.672 879.374 553.452 879.054C551.088 884.502 548.877 890.011 546.589 895.489C539.665 896.023 532.178 894.635 527.343 889.278C519.459 881.449 519.947 867.7 527.831 860.039Z" fill="#EDFDE1"/>
<path d="M-5.28052 860.344C0.118004 864.678 5.59281 868.951 11.0523 873.255C9.90858 878.901 8.12426 884.761 3.74749 888.805C-4.06054 896.985 -17.8008 898.236 -27.0271 891.766C-30.8701 889.248 -33.3711 885.295 -35.9178 881.602C-29.7873 882.35 -23.0926 883.067 -17.5415 879.695C-10.2825 875.94 -6.37852 868.158 -5.28052 860.344Z" fill="#EDFDE1"/>
<path d="M31.8839 866.052C44.2669 867.654 56.6957 868.86 69.033 870.752C77.2375 872.095 81.8431 880.381 81.9804 888.164C69.2923 886.898 56.6347 885.249 43.9924 883.556C42.5132 893.765 41.2169 904.005 40.2714 914.275C33.6681 910.658 28.0256 904.127 28.4373 896.176C29.0778 886.089 30.8469 876.108 31.8839 866.052Z" fill="#EDFDE1"/>
<path d="M159.008 870.813C169.104 874.811 179.444 878.26 189.371 882.685C195.548 885.722 197.027 893.139 195.929 899.381C185.605 895.84 175.54 891.582 165.292 887.844C162.028 895.596 159.954 903.883 155.684 911.177C150.834 908.735 148.776 901.426 149.752 896.145C152.07 887.447 156.096 879.313 159.008 870.813Z" fill="#EDFDE1"/>
<path d="M338.73 879.374C339.112 877.299 337.343 873.407 340.545 873.148C343.854 875.284 345.867 879.42 350.015 880.396C355.536 882.685 361.361 880.442 366.287 877.817C366.623 882.884 366.928 887.981 367.111 893.063C363.039 894.772 358.738 896.908 354.194 896.145C345.867 895.306 338.807 887.783 338.73 879.374Z" fill="#EDFDE1"/>
<path d="M276.281 874.399C280.307 877.772 284.654 881.709 290.327 881.465C295.42 881.785 299.66 878.657 303.533 875.788C304.586 880.641 305.775 885.478 307.026 890.301C300.88 896.542 290.312 898.145 283.251 892.529C277.379 888.515 275.687 881.114 276.281 874.399Z" fill="#EDFDE1"/>
<path d="M472.916 883.738C480.876 880.335 489.279 878.046 497.392 875.009C500.869 885.02 504.621 894.97 507.655 905.119C509.79 912.062 505.063 918.518 499.115 921.57C495.486 911.33 491.993 901.059 488.516 890.774C480.236 893.46 472.077 896.512 463.781 899.152C464.132 892.925 466.922 886.409 472.916 883.738Z" fill="#EDFDE1"/>
<path d="M402.476 898.389C399.029 892.788 400.066 885.768 402.72 880.076C405.419 884.685 408.423 889.889 413.913 891.537C418.443 893.414 423.262 891.964 427.699 890.606C427.074 895.489 427.044 900.495 425.885 905.317C417.832 909.819 406.791 906.507 402.476 898.389Z" fill="#EDFDE1"/>
<path d="M606.049 886.119C616.358 884.731 626.819 884.914 637.205 884.181C637.616 896.771 638.852 909.331 638.959 921.921C638.852 930.039 631.593 936.22 623.876 937.029C623.297 924.302 622.641 911.574 621.833 898.862C612.057 898.984 601.977 901.395 592.4 899.304C593.041 893.215 599.659 887.34 606.049 886.119Z" fill="#EDFDE1"/>
<path d="M227.801 892.788C233.444 892.742 237.775 888.698 241.344 884.776C243.189 889.324 245.187 893.811 247.322 898.251C242.289 906.202 231.05 909.315 223.013 904.112C217.05 900.876 214.808 894.07 214.229 887.737C218.224 890.484 222.647 893.505 227.801 892.788Z" fill="#EDFDE1"/>
<path d="M305.943 912.093C310.686 905.943 316.74 900.968 322.108 895.383C328.391 902.143 335.375 908.217 341.46 915.16C345.395 919.647 343.626 925.934 340.804 930.482C334.094 924.027 327.674 917.282 320.964 910.842C315.733 916.183 310.518 921.539 305.058 926.636C303.838 921.86 302.71 916.351 305.943 912.093Z" fill="#EDFDE1"/>
<path d="M56.8788 912.917C62.6128 909.926 65.5408 903.837 67.142 897.855C71.4121 901.975 75.8042 905.973 80.1809 909.972C78.2289 919.555 69.9938 927.811 59.883 927.689C50.9922 928.178 43.3977 922.027 39.8292 914.26C45.4717 915.42 51.7243 916.122 56.8788 912.917Z" fill="#EDFDE1"/>
<path d="M263.029 901.166C270.532 905.973 277.822 911.162 284.974 916.503C290.037 920.166 289.701 927.002 287.505 932.206C279.804 926.972 272.271 921.509 264.6 916.274C260.36 922.394 256.121 928.528 251.759 934.572C249.228 929.841 247.459 923.981 250.493 919.052C254.367 912.886 258.545 906.889 263.029 901.166Z" fill="#EDFDE1"/>
<path d="M362.719 913.604C368.499 908.644 375.087 904.737 381.293 900.342C386.387 908.217 392.38 915.496 397.123 923.569C399.792 928.62 396.986 934.099 393.738 938.067C387.927 930.741 382.925 922.821 377.405 915.282C371.381 919.586 365.327 923.844 359.257 928.086C358.464 923.065 358.571 917.22 362.719 913.604Z" fill="#EDFDE1"/>
<path d="M459.114 914.428C457.864 908.919 460.304 903.562 463.491 899.228C464.986 903.959 466.8 909.148 471.345 911.833C475.63 915.008 481.212 914.412 486.229 913.939C484.689 918.563 483.713 923.37 481.807 927.872C472.214 931.794 460.563 924.515 459.114 914.428Z" fill="#EDFDE1"/>
<path d="M585.827 905.164C587.093 903.913 588.191 901.304 590.372 902.57C591.638 907.148 591.561 912.367 594.871 916.183C598.698 921.768 605.454 923.889 611.905 924.454C608.657 929.261 605.561 934.175 602.572 939.15C596.96 938.845 591.149 937.349 587.154 933.183C579.514 926.072 578.843 912.947 585.827 905.164Z" fill="#EDFDE1"/>
<path d="M98.1301 904.966C108.759 907.209 119.541 908.751 130.079 911.391C136.621 913.329 139.61 920.303 139.29 926.682C128.554 924.988 117.97 922.531 107.265 920.7C105.648 929.231 103.971 937.761 102.354 946.292C97.3219 942.935 92.9756 937.639 93.4331 931.26C94.3024 922.378 96.7881 913.771 98.1301 904.966Z" fill="#EDFDE1"/>
<path d="M172.276 913.848C176.561 912.108 179.154 908.094 181.716 904.478C184.308 908.644 187.023 912.734 189.859 916.747C187.892 920.089 185.772 923.63 182.219 925.492C174.731 930.039 164.071 927.826 159.115 920.562C158.658 918.975 153.732 913.649 157.544 914.183C162.409 914.565 167.609 916.122 172.276 913.848Z" fill="#EDFDE1"/>
<path d="M531.125 915.191C539.787 913.07 548.709 912.276 557.493 910.689C558.941 921.616 561.366 932.42 562.357 943.408C562.586 950.107 556.944 955.021 550.95 956.73C549.197 945.987 547.748 935.182 545.674 924.5C537.119 926.072 528.518 927.323 519.947 928.712C521.579 922.928 524.979 916.992 531.125 915.191Z" fill="#EDFDE1"/>
<path d="M418.275 925.156C424.725 921.371 431.817 918.807 438.451 915.328C442.355 923.676 446.594 931.901 450.025 940.462C452.359 946.109 448.348 951.374 444.2 954.777C440.082 946.399 436.3 937.868 432.229 929.49C425.488 932.695 418.809 936.022 411.87 938.738C412.312 933.671 413.501 927.949 418.275 925.156Z" fill="#EDFDE1"/>
<path d="M196.371 937.456C198.826 930.192 202.715 923.508 205.811 916.503C213.985 920.7 222.616 923.981 230.653 928.407C235.884 931.245 236.342 937.746 235.594 943.011C226.902 939.532 218.575 935.213 210.066 931.382C206.543 937.349 205.155 944.919 200.489 949.97C196.234 948.291 195.349 941.668 196.371 937.456Z" fill="#EDFDE1"/>
<path d="M-27.7897 922.379C-15.3456 921.753 -2.90158 920.914 9.55772 920.532C17.8385 920.532 23.8624 927.766 25.1739 935.457C12.5011 936.602 -0.232807 936.754 -12.9209 937.594C-12.6159 947.788 -12.0364 957.966 -11.3959 968.161C-4.77733 969.214 2.4512 967.459 6.90422 962.209C10.7167 958.424 11.6622 952.961 12.3332 947.879C17.3658 950.901 22.3221 954.06 27.2784 957.219C27.1259 967.199 19.9888 977.012 9.75598 978.294C1.18544 979.988 -7.14109 975.272 -11.7771 968.237C-18.7464 965.734 -25.1818 960.24 -26.0968 952.518C-27.0118 942.492 -27.3322 932.435 -27.7897 922.379Z" fill="#EDFDE1"/>
<path d="M304.723 926.697C308.124 929.459 311.448 933.122 316.16 933.381C320.491 934.007 324.334 931.535 327.994 929.597C328.635 933.763 329.306 937.929 330.053 942.095C324.716 946.017 317.197 947.681 311.433 943.637C305.592 940.203 303.93 933.015 304.723 926.697Z" fill="#EDFDE1"/>
<path d="M362.49 946.032C357.137 941.683 356.954 934.282 358.662 928.132C361.697 931.596 364.64 936.006 369.551 936.83C373.546 937.807 377.481 936.22 381.171 934.831C381.004 939.241 380.912 943.667 380.744 948.093C374.751 950.305 367.37 950.946 362.49 946.032Z" fill="#EDFDE1"/>
<path d="M516.516 953.541C510.401 946.017 512.566 934.556 519.718 928.498C520.542 933.259 521.182 938.57 524.995 942.019C528.716 946.124 534.404 946.948 539.65 947.085C537.317 951.572 535.06 956.105 532.788 960.622C526.718 960.377 520.206 958.79 516.516 953.541Z" fill="#EDFDE1"/>
<path d="M126.236 934.328C129.713 937.914 133.175 941.531 136.606 945.178C134.41 951.557 129.606 957.463 122.622 958.623C113.792 960.729 105.191 954.67 101.958 946.628C106.96 947.482 112.557 948.688 117.223 945.895C121.951 943.698 124.284 938.845 126.236 934.328Z" fill="#EDFDE1"/>
<path d="M264.264 939.257C268.443 938.875 271.63 935.961 274.772 933.504C276.083 937.487 277.517 941.439 279.011 945.376C274.284 950.611 266.338 953.449 259.842 949.726C253.955 947.101 251.775 940.569 251.286 934.633C255.252 936.907 259.384 940.066 264.264 939.257Z" fill="#EDFDE1"/>
<path d="M409.689 952.32C407.95 947.711 409.78 942.919 411.885 938.799C413.837 942.813 415.896 947.376 420.349 949.146C424.161 951.175 428.523 950.107 432.534 949.359C431.68 953.419 431.131 957.539 429.956 961.537C422.24 965.536 411.9 960.637 409.689 952.32Z" fill="#EDFDE1"/>
<path d="M470.201 946.567C477.399 943.744 485.055 942.339 492.497 940.295C494.693 949.543 497.911 958.562 499.512 967.947C500.107 973.532 495.532 977.47 491.201 980.003C488.593 971.075 486.26 962.072 483.942 953.083C476.652 954.853 469.469 957.02 462.149 958.653C463.385 953.907 465.306 948.627 470.201 946.567Z" fill="#EDFDE1"/>
<path d="M645.257 951.938C649.069 946.139 654.712 940.493 662.169 940.6C672.692 940.874 683.123 942.813 693.569 944.11C691.693 956.364 690.717 968.74 688.811 980.995C687.439 989.129 679.28 994.012 671.472 993.921C672.432 981.193 674.552 968.588 675.818 955.891C665.631 954.548 655.383 953.602 645.257 951.938Z" fill="#EDFDE1"/>
<path d="M152.054 941.989C161.067 944.43 170.232 946.399 179.077 949.405C184.522 951.435 185.925 957.615 186.001 962.804C176.881 960.759 167.945 958.104 158.917 955.754C156.965 962.941 155.12 970.16 153.091 977.317C149.538 974.112 146.031 970.038 146.427 964.925C147.464 957.097 150.27 949.649 152.054 941.989Z" fill="#EDFDE1"/>
<path d="M222.815 946.643C224.965 950.245 227.085 953.861 229.25 957.463C225.133 964.941 215.037 968.542 207.626 963.598C204.408 961.4 199.985 957.081 202.029 952.961C205.521 953.129 208.846 955.403 212.445 954.396C217.02 953.724 220.054 949.985 222.815 946.643Z" fill="#EDFDE1"/>
<path d="M292.035 948.245C298.059 953.281 304.525 957.86 310.243 963.262C314.025 966.619 312.592 971.96 311.494 976.203C304.753 971.777 298.928 966.192 292.447 961.446C288.558 966.375 284.654 971.304 280.567 976.081C278.996 972.189 277.501 967.596 279.972 963.72C283.419 958.15 288.1 953.465 292.035 948.245Z" fill="#EDFDE1"/>
<path d="M328.025 960.088C332.432 955.357 337.693 951.496 342.39 947.055C347.545 953.22 353.325 958.897 358.052 965.429C360.858 969.473 358.845 974.387 356.192 977.912C350.915 972.052 345.913 965.978 340.637 960.133C335.879 964.391 331.121 968.664 326.027 972.525C325.707 968.359 324.777 963.415 328.025 960.088Z" fill="#EDFDE1"/>
<path d="M44.1754 949.192C55.003 949.39 65.8458 949.359 76.6429 950.031C83.4292 950.565 87.2569 957.051 88.7209 963.033C77.7866 964.376 66.7913 962.575 55.8265 963.094C55.7503 971.808 55.5215 980.506 55.5368 989.22C49.8637 986.733 44.4957 982.063 43.9924 975.501C43.4892 966.726 44.2364 957.951 44.1754 949.192Z" fill="#EDFDE1"/>
<path d="M636.29 958.699C638.638 955.723 642.024 953.877 645.15 951.862C644.357 957.387 643.366 963.506 646.461 968.573C649.313 974.479 655.459 977.592 661.544 979.179C657.548 983.421 653.644 987.74 649.862 992.166C645.577 990.93 641.093 989.541 637.952 986.214C630.571 979.225 629.839 966.528 636.29 958.699Z" fill="#EDFDE1"/>
<path d="M375.834 965.002C381.019 961.064 386.905 958.195 392.396 954.762C396.284 961.812 401.088 968.359 404.535 975.654C406.517 980.079 403.635 984.535 400.448 987.481C396.345 980.735 392.38 973.914 388.202 967.23C382.788 970.633 377.374 974.005 371.716 976.935C371.991 972.739 372.082 967.748 375.834 965.002Z" fill="#EDFDE1"/>
<path d="M572.682 963.537C575.442 958.943 580.474 955.799 585.919 955.967C594.032 955.815 602.13 956.257 610.258 956.211C610.029 967.184 610.304 978.202 609.541 989.174C608.641 995.859 602.16 999.552 596.075 1000.7C596.03 989.739 596.426 978.797 596.472 967.84C587.703 967.642 578.949 967.688 570.196 967.352C569.891 972.403 569.937 977.958 573.398 982.063C576.311 986.336 581.481 987.847 586.269 988.93C583.357 993.005 580.81 997.43 577.119 1000.88C566.704 1000.24 558.377 989.571 561.015 979.301C562.052 972.22 569.311 969.229 572.682 963.537Z" fill="#EDFDE1"/>
<path d="M233.337 975.593C235.777 969.412 239.575 963.918 242.701 958.073C249.304 962.087 256.365 965.322 262.846 969.549C267.101 972.128 267.757 977.775 266.018 982.109C258.866 978.874 252.293 974.54 245.324 970.984C242.289 976.646 239.346 982.384 235.686 987.679C234.161 983.894 231.675 979.759 233.337 975.593Z" fill="#EDFDE1"/>
<path d="M461.234 979.697C455.714 973.807 456.766 964.437 462.027 958.745C463.324 962.758 464.422 967.382 468.173 969.915C471.604 972.784 476.271 972.739 480.51 972.708C478.985 976.645 477.537 980.613 476.073 984.581C470.735 984.84 464.788 984.215 461.234 979.697Z" fill="#EDFDE1"/>
<path d="M165.764 977.775C169.989 976.187 172.185 972.067 174.213 968.344C176.79 971.747 179.993 974.738 181.945 978.583C179.55 986.672 169.79 991.311 162.058 987.877C157.346 986.214 154.815 981.651 152.604 977.53C156.889 978.309 161.586 979.972 165.764 977.775Z" fill="#EDFDE1"/>
<path d="M421.386 978.645C427.272 975.272 433.906 973.471 440.22 971.03C442.751 978.66 446.442 985.909 448.455 993.707C449.69 998.514 445.832 1002.02 442.599 1004.82C439.564 997.415 436.865 989.907 433.876 982.521C427.989 984.902 422.072 987.206 416.094 989.312C416.887 985.405 417.619 980.857 421.386 978.645Z" fill="#EDFDE1"/>
<path d="M76.8563 973.12C80.8518 976.127 84.9084 979.087 88.9344 982.078C87.9584 989.617 82.9869 996.927 75.2094 998.514C67.2946 1000.71 59.2731 996.149 55.186 989.449C60.0051 989.617 65.3426 989.77 69.3838 986.641C74.0199 983.696 75.8193 978.233 76.8563 973.12Z" fill="#EDFDE1"/>
<path d="M325.646 972.693C328.772 975.15 331.624 978.645 335.879 979.057C339.325 979.606 342.436 977.637 345.532 976.432C345.807 980.033 346.325 983.65 346.112 987.297C340.942 991.158 333.042 990.685 328.788 985.695C325.25 982.322 325.585 977.149 325.646 972.693Z" fill="#EDFDE1"/>
<path d="M517.095 976.768C524.919 974.692 533.169 974.982 541.19 974.097C541.877 983.284 543.127 992.44 543.417 1001.66C543.463 1007.55 538.262 1011.36 533.093 1012.78C531.995 1003.57 531.476 994.302 530.485 985.085C523.714 985.176 516.684 987.648 510.096 985.939C508.494 981.865 513.817 978.4 517.095 976.768Z" fill="#EDFDE1"/>
<path d="M101.958 998.361C102.019 990.929 103.224 983.574 103.697 976.188C112.892 977.286 122.21 977.393 131.345 978.874C137.14 979.896 139.915 985.756 140.48 991.082C131.253 990.227 122.012 989.51 112.801 988.61C112.145 996.057 111.474 1003.49 110.773 1010.92C106.274 1008.19 101.867 1004.05 101.958 998.361Z" fill="#EDFDE1"/>
<path d="M189.341 997.034C190.18 989.861 193.535 983.33 195.593 976.478C203.203 979.27 211.148 981.254 218.514 984.688C222.799 986.84 223.013 992.013 223.303 996.194C215.586 993.997 208.114 991.052 200.458 988.671C198.796 993.646 197.21 998.651 195.746 1003.7C195.334 1003.96 194.526 1004.48 194.114 1004.74C190.317 1004.82 190.012 999.811 189.341 997.034Z" fill="#EDFDE1"/>
<path d="M279.987 976.111C283.205 978.034 286.285 980.98 290.312 980.857C294.063 980.949 297.128 978.507 300.27 976.798C301.124 980.262 302.451 983.711 302.542 987.328C297.708 992.288 289.015 992.776 284.135 987.649C280.811 984.764 280.612 980.125 279.987 976.111Z" fill="#EDFDE1"/>
<path d="M371.091 977.119C373.943 979.926 376.215 983.803 380.272 985.039C383.596 986.229 387.027 984.779 390.306 984.138C389.894 987.725 389.879 991.433 388.888 994.943C382.971 998.041 375.026 995.798 371.854 989.892C369.352 986.031 370.527 981.315 371.091 977.119Z" fill="#EDFDE1"/>
<path d="M246.117 990.563C250.021 990.304 252.583 987.007 255.557 984.917C257.097 988.091 259.323 991.265 259.522 994.912C255.755 1000.68 247.154 1002.42 241.572 998.27C237.912 996.027 236.845 991.647 235.64 987.862C239.01 989.037 242.381 991.097 246.117 990.563Z" fill="#EDFDE1"/>
<path d="M502.043 995.447C503.279 992.806 504.636 988.121 507.915 988.06C508.998 992.166 509.379 996.973 512.947 999.857C515.799 1002.73 519.978 1003.12 523.744 1003.95C521.67 1007.52 519.612 1011.1 517.644 1014.74C507.64 1015.41 498.704 1005.27 502.043 995.447Z" fill="#EDFDE1"/>
<path d="M313.842 990.136C318.768 994.836 324.167 999.063 328.681 1004.19C331.624 1007.35 329.733 1011.67 328.635 1015.18C323.542 1010.68 318.616 1005.99 313.69 1001.32C309.817 1005.29 306.095 1009.41 302.268 1013.42C301.841 1010.04 300.422 1006.17 302.466 1003.03C305.668 998.255 310.06 994.439 313.842 990.136Z" fill="#EDFDE1"/>
<path d="M413.669 1001.49C412.007 997.293 413.959 993.081 415.85 989.373C417.543 992.41 418.763 996.103 421.904 998.026C425.107 1000.39 429.301 999.552 433.022 999.567C432 1003.03 431.252 1006.6 429.804 1009.93C423.216 1011.93 415.545 1008.22 413.669 1001.49Z" fill="#EDFDE1"/>
<path d="M343.29 1002.82C347.316 998.682 352.272 995.614 356.878 992.196C360.66 997.629 365.098 1002.6 368.636 1008.24C370.786 1011.47 369.81 1016.55 366.44 1018.57C361.987 1013.76 358.479 1008.19 354.438 1003.06C350.061 1006.42 345.684 1009.78 341.262 1013.1C341.414 1009.64 340.545 1005.53 343.29 1002.82Z" fill="#EDFDE1"/>
<path d="M464.696 999.414C471.086 997.309 477.811 996.515 484.43 995.37C485.665 1003.05 487.647 1010.62 488.623 1018.35C489.386 1023.3 484.902 1026.53 481.456 1029.1C478.818 1021.48 477.933 1013.42 476.332 1005.56C470.034 1006.77 463.781 1008.11 457.437 1009C458.962 1005.27 460.609 1000.96 464.696 999.414Z" fill="#EDFDE1"/>
<path d="M-1.22394 1002.1C9.54261 1000.64 20.2023 998.27 31.0299 997.293C37.8314 996.805 42.7115 1002.59 44.8007 1008.48C34.1257 1010.46 23.3744 1011.97 12.6688 1013.67C13.7974 1022.38 15.3833 1031.02 16.6338 1039.72C10.7931 1037.98 4.79983 1034.48 3.06133 1028.24C1.06357 1019.63 0.102818 1010.83 -1.22394 1002.1Z" fill="#EDFDE1"/>
<path d="M261.931 1013.56C262.358 1006.56 268.229 1001.41 271.508 995.523C277.181 999.658 283.602 1002.79 288.909 1007.41C291.837 1010.04 290.525 1014.25 290.418 1017.64C284.455 1014.26 278.782 1010.42 273.125 1006.59C270.075 1011.15 267.086 1015.74 264.127 1020.37C266.628 1021.51 269.038 1023.4 271.935 1023.36C275.488 1023.48 278.157 1020.79 280.902 1018.95C281.954 1021.82 283.052 1024.7 284.181 1027.57C280.643 1030.85 275.732 1033.25 270.929 1031.19C263.883 1028.46 263.898 1019.71 261.931 1013.56Z" fill="#EDFDE1"/>
<path d="M130.033 998.529C133.205 1001.26 136.438 1003.95 139.717 1006.59C138.451 1012.52 134.624 1018.23 128.386 1019.62C121.188 1021.8 114.051 1017.28 110.544 1011.15C114.997 1011.33 119.999 1011.9 123.75 1008.89C127.365 1006.59 128.676 1002.33 130.033 998.529Z" fill="#EDFDE1"/>
<path d="M204.698 1007.82C208.464 1006.72 210.645 1003.21 213.131 1000.45C215.113 1003.43 217.172 1006.37 219.261 1009.3C216.715 1012.74 213.817 1016.54 209.273 1017.16C202.746 1018.55 196.569 1013.93 194.358 1007.98L195.7 1007.69C198.674 1007.72 201.724 1008.56 204.698 1007.82Z" fill="#EDFDE1"/>
<path d="M383.627 1009.61C388.248 1006.45 393.387 1004.04 398.526 1001.83C401.805 1007.69 405.023 1013.64 407.585 1019.85C409.308 1023.79 406.243 1027.36 403.62 1029.94C400.478 1024.03 397.504 1018.05 394.53 1012.05C389.498 1014.42 384.572 1016.99 379.585 1019.41C380.409 1016.03 380.455 1011.81 383.627 1009.61Z" fill="#EDFDE1"/>
<path d="M149.813 1022.96C149.874 1016.09 151.627 1009.39 152.588 1002.63C160.625 1004.24 168.906 1004.65 176.805 1006.89C181.258 1008.37 182.372 1013.33 183.104 1017.41C175.265 1016.32 167.472 1015.04 159.71 1013.7C158.459 1019.92 157.59 1026.23 156.477 1032.5C153.412 1030.04 150.057 1027.17 149.813 1022.96Z" fill="#EDFDE1"/>
<path d="M613.064 1014.23C616.907 1009.44 622.199 1004.82 628.802 1005.53C637.433 1006.59 645.882 1008.85 654.483 1010.22C652.577 1020.52 650.747 1030.84 648.505 1041.08C647.041 1048.23 639.538 1051.99 632.706 1051.33C634.78 1040.68 636.839 1030.03 638.928 1019.39C630.296 1017.68 621.634 1016.17 613.064 1014.23Z" fill="#EDFDE1"/>
<path d="M224.126 1024.34C225.56 1018.73 228.35 1013.61 230.501 1008.28C236.677 1011.15 243.235 1013.26 249.213 1016.55C252.934 1018.55 252.766 1023.14 252.873 1026.79C246.483 1024.35 240.261 1021.54 233.947 1018.96C231.858 1023.95 229.784 1028.96 227.603 1033.9C225.743 1031.07 223.211 1027.98 224.126 1024.34Z" fill="#EDFDE1"/>
<path d="M454.295 1024.93C451.245 1019.6 453.457 1013.29 457.284 1009.04C458.367 1012.43 458.931 1016.45 461.875 1018.87C464.604 1021.57 468.646 1021.63 472.245 1022.14C470.75 1025.37 469.301 1028.61 467.868 1031.87C462.5 1032.04 456.735 1030.09 454.295 1024.93Z" fill="#EDFDE1"/>
<path d="M301.886 1013.33C304.235 1014.75 306.431 1016.52 309.069 1017.44C312.76 1018.51 316.13 1016.23 319.317 1014.71C319.775 1017.79 320.385 1020.87 320.415 1024.01C316.038 1027.72 308.886 1027.72 305.043 1023.25C302.344 1020.67 302.45 1016.72 301.886 1013.33Z" fill="#EDFDE1"/>
<path d="M340.744 1013.01C343.153 1014.86 345.227 1017.45 348.17 1018.57C351.342 1019.74 354.53 1018.05 357.61 1017.33C357.656 1020.37 357.747 1023.43 357.854 1026.5C353.447 1028.36 347.85 1029.2 344.16 1025.45C340.271 1022.5 340.698 1017.33 340.744 1013.01Z" fill="#EDFDE1"/>
<path d="M548.632 1022.9C551.347 1018.83 554.87 1014.42 560.222 1014.16C568 1013.94 575.732 1015.21 583.479 1015.96C582.228 1025.14 582.167 1034.47 580.703 1043.61C579.636 1049.38 573.749 1051.93 568.579 1052.74C569.235 1043.46 570.242 1034.19 570.791 1024.9C563.41 1024.18 556.013 1023.59 548.632 1022.9Z" fill="#EDFDE1"/>
<path d="M600.605 1030.61C600.574 1022.89 606.43 1017.07 612.957 1013.97C612.195 1018.87 610.853 1024.23 613.46 1028.85C615.534 1033.84 620.521 1036.45 625.279 1038.33C621.695 1041.81 618.096 1045.29 614.467 1048.74C606.613 1046.34 599.995 1039.21 600.605 1030.61Z" fill="#EDFDE1"/>
<path d="M62.0638 1018.26C71.5494 1017.94 80.9891 1016.19 90.4899 1016.26C96.0409 1016.67 99.1824 1021.77 100.784 1026.55C91.5574 1027.54 82.3159 1028.29 73.0743 1028.96C73.6386 1036.42 74.4469 1043.88 74.9196 1051.36C70.3599 1049.45 65.4951 1046.62 64.3208 1041.43C62.8416 1033.8 62.7043 1025.98 62.0638 1018.26Z" fill="#EDFDE1"/>
<path d="M422.072 1023.42C427.181 1021.02 432.778 1019.89 438.161 1018.2C439.945 1024.85 442.675 1031.28 443.849 1038.08C444.657 1042.21 440.936 1044.81 438.176 1047.04C436.133 1040.56 434.257 1034.04 432.076 1027.6C426.906 1029.23 421.737 1030.88 416.597 1032.62C417.604 1029.19 418.442 1025.04 422.072 1023.42Z" fill="#EDFDE1"/>
<path d="M34.9644 1019.99C39.5547 1022.32 44.1754 1024.58 48.6895 1027.07C48.5827 1034.88 44.6634 1043.08 36.8554 1045.68C29.4896 1048.69 21.4986 1045.33 16.3746 1039.82C21.2851 1039.21 26.7141 1038.41 30.1606 1034.42C34.1256 1030.71 34.8272 1025.11 34.9644 1019.99Z" fill="#EDFDE1"/>
<path d="M379.067 1030.09C377.13 1026.69 378.518 1022.85 379.448 1019.42C381.461 1021.77 382.971 1024.91 385.929 1026.3C388.842 1027.68 392.151 1026.64 395.247 1026.62C394.576 1029.63 394.134 1032.7 393.188 1035.64C387.881 1037.55 381.354 1035.4 379.067 1030.09Z" fill="#EDFDE1"/>
<path d="M167.67 1031.51C170.766 1029.66 172.108 1026.15 173.831 1023.19C176.287 1025.75 178.818 1028.27 181.396 1030.74C179.611 1036.45 174.625 1041.63 168.25 1041.05C162.684 1041.41 158.902 1036.88 155.943 1032.87C159.817 1032.8 164.239 1033.96 167.67 1031.51Z" fill="#EDFDE1"/>
<path d="M539.833 1033.64C540.58 1028.61 544.789 1025.39 548.495 1022.46C548.404 1026.81 547.641 1031.71 550.462 1035.48C552.719 1039.38 557.218 1040.79 561.198 1042.24C558.331 1045.38 555.815 1048.9 552.506 1051.62C544.164 1050.58 537.835 1041.92 539.833 1033.64Z" fill="#EDFDE1"/>
<path d="M318.57 1045.85C315.962 1036.99 324.7 1032.22 329.946 1026.98C333.866 1031.28 338.273 1035.19 341.735 1039.9C344.068 1042.72 341.948 1046.22 340.911 1049.09C336.885 1044.95 332.996 1040.71 329.169 1036.44C325.631 1039.58 322.184 1042.8 318.57 1045.85Z" fill="#EDFDE1"/>
<path d="M495.379 1034.38C500.884 1023.79 514.137 1027.63 523.76 1026.79C523.668 1034.61 524.263 1042.42 523.882 1050.23C523.714 1055.42 518.742 1058.17 514.289 1059.25C514.152 1051.35 514.122 1043.43 513.908 1035.54C508.037 1035.54 502.043 1036.41 496.264 1035.05L495.379 1034.38Z" fill="#EDFDE1"/>
</g>
</g>
<g opacity="0.4">
<path d="M763.49 -64H-116V1152H763.49V-64Z" stroke="#B3B3B3" stroke-width="0.87949"/>
<path d="M738.476 -29.4147H-90.9855V1117.41H738.476V-29.4147Z" stroke="#B3B3B3" stroke-width="0.87949"/>
<path d="M714.813 3.30151H-67.3235V1084.7H714.813V3.30151Z" stroke="#B3B3B3" stroke-width="0.87949"/>
<path d="M692.503 34.1475H-45.0133V1053.85H692.503V34.1475Z" stroke="#B3B3B3" stroke-width="0.87949"/>
<path d="M671.545 63.1244H-24.0554V1024.88H671.545V63.1244Z" stroke="#B3B3B3" stroke-width="0.87949"/>
<path d="M651.94 90.2317H-4.44965V997.768H651.94V90.2317Z" stroke="#B3B3B3" stroke-width="0.87949"/>
<path d="M633.686 115.47H13.8042V972.531H633.686V115.47Z" stroke="#B3B3B3" stroke-width="0.87949"/>
<path d="M616.784 138.838H30.7057V949.162H616.784V138.838Z" stroke="#B3B3B3" stroke-width="0.87949"/>
<path d="M601.235 160.337H46.255V927.663H601.235V160.337Z" stroke="#B3B3B3" stroke-width="0.87949"/>
<path d="M587.038 179.967H60.4523V908.034H587.038V179.967Z" stroke="#B3B3B3" stroke-width="0.87949"/>
<path d="M574.193 197.726H73.2976V890.274H574.193V197.726Z" stroke="#B3B3B3" stroke-width="0.87949"/>
<path d="M562.699 213.617H84.7906V874.383H562.699V213.617Z" stroke="#B3B3B3" stroke-width="0.87949"/>
<path d="M552.558 227.638H94.9315V860.362H552.558V227.638Z" stroke="#B3B3B3" stroke-width="0.87949"/>
<path d="M543.77 239.79H103.72V848.211H543.77V239.79Z" stroke="#B3B3B3" stroke-width="0.87949"/>
<path d="M536.333 250.072H111.157V837.929H536.333V250.072Z" stroke="#B3B3B3" stroke-width="0.87949"/>
<path d="M530.249 258.484H117.242V829.516H530.249V258.484Z" stroke="#B3B3B3" stroke-width="0.87949"/>
<path d="M525.516 265.027H121.974V822.973H525.516V265.027Z" stroke="#B3B3B3" stroke-width="0.87949"/>
<path d="M522.136 269.701H125.354V818.299H522.136V269.701Z" stroke="#B3B3B3" stroke-width="0.87949"/>
<path d="M520.108 272.506H127.383V815.495H520.108V272.506Z" stroke="#B3B3B3" stroke-width="0.87949"/>
<path d="M519.431 273.44H128.059V814.56H519.431V273.44Z" stroke="#B3B3B3" stroke-width="0.87949"/>
<path d="M128.059 814.56L-116 1152" stroke="#B3B3B3" stroke-width="0.87949"/>
<path d="M148.657 814.56L-58.0497 1152" stroke="#B3B3B3" stroke-width="0.87949"/>
<path d="M169.256 814.56L-4.99843 1152" stroke="#B3B3B3" stroke-width="0.87949"/>
<path d="M189.854 814.56L44.4271 1152" stroke="#B3B3B3" stroke-width="0.87949"/>
<path d="M210.453 814.56L91.14 1152" stroke="#B3B3B3" stroke-width="0.87949"/>
<path d="M231.052 814.56L135.82 1152" stroke="#B3B3B3" stroke-width="0.87949"/>
<path d="M251.65 814.56L178.991 1152" stroke="#B3B3B3" stroke-width="0.87949"/>
<path d="M272.249 814.56L221.075 1152" stroke="#B3B3B3" stroke-width="0.87949"/>
<path d="M292.847 814.56L262.425 1152" stroke="#B3B3B3" stroke-width="0.87949"/>
<path d="M313.446 814.56L303.351 1152" stroke="#B3B3B3" stroke-width="0.87949"/>
<path d="M334.044 814.56L344.139 1152" stroke="#B3B3B3" stroke-width="0.87949"/>
<path d="M354.643 814.56L385.065 1152" stroke="#B3B3B3" stroke-width="0.87949"/>
<path d="M375.241 814.56L426.415 1152" stroke="#B3B3B3" stroke-width="0.87949"/>
<path d="M395.84 814.56L468.499 1152" stroke="#B3B3B3" stroke-width="0.87949"/>
<path d="M416.439 814.56L511.671 1152" stroke="#B3B3B3" stroke-width="0.87949"/>
<path d="M437.037 814.56L556.35 1152" stroke="#B3B3B3" stroke-width="0.87949"/>
<path d="M457.636 814.56L603.063 1152" stroke="#B3B3B3" stroke-width="0.87949"/>
<path d="M478.234 814.56L652.489 1152" stroke="#B3B3B3" stroke-width="0.87949"/>
<path d="M498.833 814.56L705.54 1152" stroke="#B3B3B3" stroke-width="0.87949"/>
<path d="M519.432 814.56L763.49 1152" stroke="#B3B3B3" stroke-width="0.87949"/>
<path d="M128.058 273.44L-116 -64.0001" stroke="#B3B3B3" stroke-width="0.87949"/>
<path d="M128.058 301.92L-116 16.123" stroke="#B3B3B3" stroke-width="0.87949"/>
<path d="M128.058 330.4L-116 89.4725" stroke="#B3B3B3" stroke-width="0.87949"/>
<path d="M128.058 358.88L-116 157.809" stroke="#B3B3B3" stroke-width="0.87949"/>
<path d="M128.058 387.36L-116 222.396" stroke="#B3B3B3" stroke-width="0.87949"/>
<path d="M128.058 415.84L-116 284.171" stroke="#B3B3B3" stroke-width="0.87949"/>
<path d="M128.058 444.32L-116 343.86" stroke="#B3B3B3" stroke-width="0.87949"/>
<path d="M128.058 472.8L-116 402.046" stroke="#B3B3B3" stroke-width="0.87949"/>
<path d="M128.058 501.28L-116 459.218" stroke="#B3B3B3" stroke-width="0.87949"/>
<path d="M128.058 529.76L-116 515.804" stroke="#B3B3B3" stroke-width="0.87949"/>
<path d="M128.058 558.24L-116 572.197" stroke="#B3B3B3" stroke-width="0.87949"/>
<path d="M128.058 586.72L-116 628.782" stroke="#B3B3B3" stroke-width="0.87949"/>
<path d="M128.058 615.2L-116 685.954" stroke="#B3B3B3" stroke-width="0.87949"/>
<path d="M128.058 643.68L-116 744.14" stroke="#B3B3B3" stroke-width="0.87949"/>
<path d="M128.058 672.16L-116 803.83" stroke="#B3B3B3" stroke-width="0.87949"/>
<path d="M128.058 700.64L-116 865.604" stroke="#B3B3B3" stroke-width="0.87949"/>
<path d="M128.058 729.12L-116 930.191" stroke="#B3B3B3" stroke-width="0.87949"/>
<path d="M128.058 757.6L-116 998.528" stroke="#B3B3B3" stroke-width="0.87949"/>
<path d="M128.058 786.08L-116 1071.88" stroke="#B3B3B3" stroke-width="0.87949"/>
<path d="M128.058 814.56L-116 1152" stroke="#B3B3B3" stroke-width="0.87949"/>
<path d="M519.431 273.44L763.49 -63.9998" stroke="#B3B3B3" stroke-width="0.87949"/>
<path d="M498.833 273.44L705.54 -63.9998" stroke="#B3B3B3" stroke-width="0.87949"/>
<path d="M478.234 273.44L652.489 -63.9998" stroke="#B3B3B3" stroke-width="0.87949"/>
<path d="M457.636 273.44L603.063 -63.9998" stroke="#B3B3B3" stroke-width="0.87949"/>
<path d="M437.037 273.44L556.35 -63.9998" stroke="#B3B3B3" stroke-width="0.87949"/>
<path d="M416.439 273.44L511.67 -63.9998" stroke="#B3B3B3" stroke-width="0.87949"/>
<path d="M395.84 273.44L468.499 -63.9998" stroke="#B3B3B3" stroke-width="0.87949"/>
<path d="M375.241 273.44L426.415 -63.9998" stroke="#B3B3B3" stroke-width="0.87949"/>
<path d="M354.643 273.44L385.065 -63.9998" stroke="#B3B3B3" stroke-width="0.87949"/>
<path d="M334.044 273.44L344.139 -63.9998" stroke="#B3B3B3" stroke-width="0.87949"/>
<path d="M313.446 273.44L303.351 -63.9998" stroke="#B3B3B3" stroke-width="0.87949"/>
<path d="M292.847 273.44L262.425 -63.9998" stroke="#B3B3B3" stroke-width="0.87949"/>
<path d="M272.249 273.44L221.075 -63.9998" stroke="#B3B3B3" stroke-width="0.87949"/>
<path d="M251.65 273.44L178.991 -63.9998" stroke="#B3B3B3" stroke-width="0.87949"/>
<path d="M231.051 273.44L135.819 -63.9998" stroke="#B3B3B3" stroke-width="0.87949"/>
<path d="M210.453 273.44L91.14 -63.9998" stroke="#B3B3B3" stroke-width="0.87949"/>
<path d="M189.854 273.44L44.4271 -63.9998" stroke="#B3B3B3" stroke-width="0.87949"/>
<path d="M169.256 273.44L-4.99849 -63.9998" stroke="#B3B3B3" stroke-width="0.87949"/>
<path d="M148.657 273.44L-58.0497 -63.9998" stroke="#B3B3B3" stroke-width="0.87949"/>
<path d="M128.059 273.44L-116 -63.9998" stroke="#B3B3B3" stroke-width="0.87949"/>
<path d="M519.431 814.56L763.49 1152" stroke="#B3B3B3" stroke-width="0.87949"/>
<path d="M519.431 786.08L763.49 1071.88" stroke="#B3B3B3" stroke-width="0.87949"/>
<path d="M519.431 757.6L763.49 998.528" stroke="#B3B3B3" stroke-width="0.87949"/>
<path d="M519.431 729.12L763.49 930.191" stroke="#B3B3B3" stroke-width="0.87949"/>
<path d="M519.431 700.64L763.49 865.604" stroke="#B3B3B3" stroke-width="0.87949"/>
<path d="M519.431 672.16L763.49 803.83" stroke="#B3B3B3" stroke-width="0.87949"/>
<path d="M519.431 643.68L763.49 744.14" stroke="#B3B3B3" stroke-width="0.87949"/>
<path d="M519.431 615.2L763.49 685.954" stroke="#B3B3B3" stroke-width="0.87949"/>
<path d="M519.431 586.72L763.49 628.782" stroke="#B3B3B3" stroke-width="0.87949"/>
<path d="M519.431 558.24L763.49 572.197" stroke="#B3B3B3" stroke-width="0.87949"/>
<path d="M519.431 529.76L763.49 515.803" stroke="#B3B3B3" stroke-width="0.87949"/>
<path d="M519.431 501.28L763.49 459.218" stroke="#B3B3B3" stroke-width="0.87949"/>
<path d="M519.431 472.8L763.49 402.046" stroke="#B3B3B3" stroke-width="0.87949"/>
<path d="M519.431 444.32L763.49 343.86" stroke="#B3B3B3" stroke-width="0.87949"/>
<path d="M519.431 415.84L763.49 284.171" stroke="#B3B3B3" stroke-width="0.87949"/>
<path d="M519.431 387.36L763.49 222.396" stroke="#B3B3B3" stroke-width="0.87949"/>
<path d="M519.431 358.88L763.49 157.809" stroke="#B3B3B3" stroke-width="0.87949"/>
<path d="M519.431 330.4L763.49 89.4724" stroke="#B3B3B3" stroke-width="0.87949"/>
<path d="M519.431 301.92L763.49 16.123" stroke="#B3B3B3" stroke-width="0.87949"/>
<path d="M519.431 273.44L763.49 -64.0001" stroke="#B3B3B3" stroke-width="0.87949"/>
</g>
<defs>
<linearGradient id="paint0_linear_275_45784" x1="19.275" y1="87.5213" x2="807.073" y2="247.973" gradientUnits="userSpaceOnUse">
<stop stop-color="#000814"/>
<stop offset="1" stop-color="#24AF56"/>
</linearGradient>
</defs>
</svg>
