<svg width="39" height="40" viewBox="0 0 39 40" fill="none" xmlns="http://www.w3.org/2000/svg">
<path d="M17.0094 36L15.5984 33.8785L14.3551 36H12.4408L14.661 32.4774L12.3915 29.0732H14.3551L15.7464 31.165L16.9699 29.0732H18.8842L16.6838 32.5662L18.973 36H17.0094ZM19.5931 34.6482C19.8167 34.4706 19.9187 34.3883 19.899 34.4015C20.5436 33.8687 21.0501 33.4312 21.4185 33.0892C21.7935 32.7471 22.1092 32.3886 22.3658 32.0136C22.6223 31.6387 22.7506 31.2736 22.7506 30.9184C22.7506 30.6486 22.6881 30.4381 22.5631 30.2868C22.4381 30.1355 22.2507 30.0599 22.0007 30.0599C21.7507 30.0599 21.5534 30.1553 21.4086 30.3461C21.2705 30.5302 21.2014 30.7934 21.2014 31.1354H19.5733C19.5865 30.5763 19.7049 30.1092 19.9286 29.7343C20.1588 29.3593 20.4581 29.083 20.8265 28.9054C21.2014 28.7278 21.6159 28.639 22.0698 28.639C22.8526 28.639 23.4413 28.8396 23.836 29.2409C24.2373 29.6422 24.4379 30.1652 24.4379 30.8098C24.4379 31.5137 24.1978 32.1682 23.7176 32.7734C23.2374 33.372 22.6256 33.9575 21.8823 34.5298H24.5464V35.9013H19.5931V34.6482Z" fill="black"/>
<path d="M14.5574 0.000303849C15.859 -5.10017e-08 17.1609 0.0003039 18.4628 0C18.4637 1.3323 18.4625 2.66489 18.4634 3.99719C19.765 3.99719 21.0669 3.99689 22.3685 3.99749C22.3688 5.2608 22.3688 6.52442 22.3685 7.78803C21.0666 7.78834 19.765 7.78834 18.4631 7.78803C18.4628 6.52503 18.4634 5.26172 18.4628 3.99841C17.1609 3.99628 15.859 3.99901 14.5571 3.99719C14.5571 2.66489 14.5571 1.3326 14.5574 0.000303849Z" fill="#000814"/>
<path d="M3.43406 4.05595C4.59587 3.58278 5.88319 3.46426 7.1231 3.61438C8.28612 3.75904 9.43274 4.17447 10.3572 4.90626C11.0504 5.4548 11.619 6.18902 11.874 7.04298C11.9436 7.27637 11.991 7.51645 12.0135 7.75896C10.9182 8.0036 9.82416 8.2528 8.72921 8.49805C8.67025 8.04038 8.46634 7.60154 8.14815 7.26665C7.67681 6.80502 7.01461 6.585 6.36548 6.55036C5.86556 6.52696 5.35137 6.57801 4.88762 6.77646C4.55971 6.91838 4.25672 7.15512 4.10507 7.48576C3.94249 7.83494 3.95464 8.27286 4.17619 8.59408C4.36096 8.86607 4.65453 9.04203 4.95691 9.15569C5.18118 9.24139 5.41762 9.28788 5.65314 9.33195C6.36761 9.47174 7.08268 9.61062 7.79745 9.75042C8.62254 9.9124 9.43091 10.1984 10.143 10.6509C10.8674 11.1092 11.492 11.7531 11.839 12.5445C12.3265 13.6455 12.2997 14.9507 11.8174 16.0487C11.5767 16.5891 11.2233 17.0793 10.7848 17.4765C9.98523 18.1985 8.96413 18.6404 7.91446 18.8495C6.6943 19.0868 5.41974 19.0649 4.21296 18.761C3.10889 18.4775 2.0495 17.9366 1.26027 17.1021C0.567077 16.4116 0.0820529 15.4917 0 14.5086C1.12443 14.2615 2.24886 14.0147 3.37328 13.7683C3.39942 14.2661 3.59787 14.7584 3.95039 15.1146C4.38801 15.5856 5.00918 15.8512 5.63734 15.9442C6.15883 16.0174 6.69703 16.0047 7.20971 15.8782C7.59901 15.7789 7.98891 15.5871 8.22261 15.248C8.43929 14.9337 8.48396 14.5195 8.37942 14.157C8.2995 13.8835 8.09528 13.6637 7.85763 13.5154C7.53276 13.3139 7.162 13.2033 6.79276 13.1149C6.05277 12.9386 5.31216 12.7642 4.57217 12.5879C3.75681 12.3937 2.95542 12.1044 2.24643 11.6513C1.77447 11.3468 1.34232 10.9688 1.02414 10.5029C0.607799 9.90206 0.406314 9.17058 0.387776 8.44426C0.353435 7.52132 0.614789 6.58713 1.14236 5.82738C1.69546 5.01323 2.53209 4.42671 3.43406 4.05595Z" fill="#000814"/>
<path d="M28.3702 4.03441C29.4421 3.63478 30.6021 3.49165 31.7411 3.57613C33.0321 3.66426 34.3121 4.06571 35.3809 4.80358C35.7997 5.09502 36.1969 5.42384 36.5269 5.81466C37.1867 6.57805 37.6772 7.49036 37.9315 8.468C36.7579 8.86429 35.5833 9.25814 34.4093 9.65382C34.2431 9.12594 34.0012 8.61144 33.6286 8.19692C33.1907 7.70187 32.578 7.37336 31.9283 7.26061C30.8929 7.07432 29.7645 7.28067 28.9236 7.93223C28.1186 8.54428 27.6624 9.52496 27.5369 10.5126C27.3947 11.6365 27.5424 12.8426 28.1684 13.8087C28.6374 14.549 29.4163 15.0641 30.2596 15.2772C31.0035 15.4632 31.8064 15.4364 32.5291 15.1754C33.5146 14.8156 34.2868 13.951 34.557 12.9399C35.7112 13.3243 36.866 13.7087 38.02 14.0944C37.7343 15.134 37.1912 16.102 36.4458 16.8815C35.7532 17.6172 34.8877 18.187 33.9407 18.538C32.7166 18.9942 31.3773 19.1045 30.0867 18.9334C28.734 18.7501 27.4242 18.2122 26.3608 17.3519C25.6412 16.7702 25.0358 16.0494 24.576 15.2468C24.026 14.2868 23.6947 13.2055 23.5905 12.1048C23.4708 10.8263 23.6236 9.51585 24.0816 8.31362C24.4432 7.36029 24.9991 6.48171 25.7075 5.74841C26.4538 4.98957 27.3719 4.40243 28.3702 4.03441Z" fill="#000814"/>
<path d="M14.557 7.78786C15.8589 7.78694 17.1608 7.78755 18.463 7.78755C18.463 9.47389 18.463 11.1605 18.463 12.8472C18.47 13.2526 18.4426 13.6601 18.4937 14.0634C18.5417 14.4104 18.6459 14.7703 18.8945 15.0289C19.2322 15.3562 19.7105 15.4865 20.1697 15.509C20.9373 15.5479 21.7363 15.3726 22.369 14.9228C22.3681 15.9892 22.369 17.0553 22.3684 18.1217C22.0311 18.4067 21.6196 18.5875 21.2036 18.7243C20.4778 18.9556 19.7093 19.0337 18.9501 19.003C17.9187 18.9632 16.8645 18.682 16.0443 18.0335C15.2851 17.4427 14.8262 16.5338 14.6542 15.5996C14.5235 14.9432 14.5631 14.2712 14.557 13.606C14.557 11.6665 14.557 9.72734 14.557 7.78786Z" fill="#000814"/>
</svg>
