<svg width="34" height="34" viewBox="0 0 34 34" fill="none" xmlns="http://www.w3.org/2000/svg">
<path d="M28.6886 0.305283C31.605 0.305283 33.97 2.66986 33.97 5.58717V28.1697C33.97 31.0861 31.605 33.4511 28.6886 33.4511H6.1061C3.18928 33.4511 0.824219 31.0861 0.824219 28.1697V5.58717C0.824219 2.66986 3.18928 0.305283 6.1061 0.305283H28.6886Z" fill="#000814"/>
<path d="M28.5724 22.5602C28.4747 22.2369 28.0072 22.009 28.0072 22.009C27.963 21.9858 27.9235 21.9648 27.8909 21.9485C27.1118 21.5718 26.421 21.1182 25.8396 20.6042C25.3721 20.1902 24.9721 19.7344 24.6511 19.2506C24.258 18.6598 24.0743 18.1668 23.9952 17.8993C23.951 17.7249 23.958 17.6551 23.9952 17.5644C24.0255 17.4876 24.1162 17.4155 24.158 17.3807C24.4208 17.1946 24.8441 16.9201 25.1046 16.7527C25.3302 16.6062 25.5233 16.4806 25.6372 16.4015C26.0024 16.1456 26.2536 15.8852 26.4001 15.6037C26.5908 15.2409 26.6141 14.8409 26.4652 14.4478C26.2652 13.9175 25.7698 13.6012 25.1395 13.6012C25 13.6012 24.8558 13.6175 24.7116 13.6477C24.3511 13.7268 24.0092 13.8547 23.7231 13.9664C23.7022 13.9757 23.6789 13.9594 23.6812 13.9361C23.7115 13.2268 23.7464 12.2732 23.6673 11.3684C23.5975 10.5498 23.4277 9.85899 23.1533 9.25661C22.8765 8.6519 22.516 8.20534 22.2346 7.88205C21.9671 7.57505 21.495 7.12151 20.7833 6.7145C19.7832 6.14235 18.6435 5.85162 17.3969 5.85162C16.1526 5.85162 15.0153 6.14235 14.0129 6.7145C13.2593 7.14477 12.7778 7.63087 12.5592 7.88205C12.2778 8.20534 11.9173 8.6519 11.6405 9.25661C11.3638 9.85899 11.1963 10.5474 11.1265 11.3684C11.0474 12.2778 11.08 13.1547 11.1126 13.9361C11.1126 13.9594 11.0916 13.9757 11.0684 13.9664C10.7823 13.8547 10.4404 13.7268 10.0799 13.6477C9.93804 13.6175 9.79384 13.6012 9.65196 13.6012C9.02399 13.6012 8.5286 13.9175 8.32625 14.4478C8.1774 14.8409 8.20066 15.2409 8.39137 15.6037C8.54023 15.8852 8.78909 16.1456 9.15424 16.4015C9.26588 16.4806 9.46125 16.6062 9.68685 16.7527C9.94036 16.9178 10.352 17.1853 10.6172 17.369C10.6497 17.3923 10.7614 17.476 10.7963 17.5644C10.8335 17.6574 10.8404 17.7272 10.7916 17.9133C10.7102 18.1831 10.5265 18.6715 10.1404 19.2506C9.81942 19.7367 9.41938 20.1902 8.95189 20.6042C8.37044 21.1182 7.67968 21.5718 6.90053 21.9485C6.86332 21.9671 6.81913 21.9881 6.77261 22.016C6.77261 22.016 6.30745 22.2532 6.21907 22.5602C6.08882 23.0138 6.43537 23.4394 6.78657 23.6673C7.36337 24.0394 8.06576 24.2395 8.47278 24.3488C8.58674 24.379 8.68908 24.4069 8.78211 24.4348C8.84025 24.4534 8.98678 24.5093 9.04958 24.5907C9.12865 24.693 9.13796 24.8186 9.16587 24.9605C9.21006 25.2 9.31007 25.4954 9.60545 25.7001C9.93106 25.9233 10.3427 25.9396 10.866 25.9606C11.4126 25.9815 12.0917 26.0071 12.8709 26.2652C13.2314 26.3839 13.5593 26.5862 13.9361 26.8188C14.7269 27.3049 15.7107 27.9096 17.3899 27.9096C19.0715 27.9096 20.0623 27.3025 20.8577 26.8141C21.2345 26.5839 21.5578 26.3839 21.9113 26.2676C22.6904 26.0094 23.3696 25.9838 23.9161 25.9629C24.4394 25.942 24.8511 25.928 25.1767 25.7024C25.493 25.4838 25.5837 25.1582 25.6256 24.9139C25.6489 24.793 25.6628 24.6837 25.7326 24.5953C25.7931 24.5186 25.928 24.4651 25.9908 24.4441C26.0861 24.4139 26.1931 24.386 26.3117 24.3534C26.7187 24.2441 27.2304 24.1162 27.8514 23.765C28.6003 23.3394 28.6515 22.8184 28.5724 22.5602Z" fill="white"/>
<path d="M29.219 22.309C29.0538 21.8578 28.7375 21.6182 28.3794 21.4182C28.3119 21.3786 28.2491 21.3461 28.1979 21.3228C28.091 21.267 27.9816 21.2135 27.8723 21.1577C26.7536 20.5646 25.8791 19.8157 25.2744 18.9296C25.0697 18.6295 24.9279 18.3597 24.8278 18.1388C24.7767 17.9899 24.779 17.9062 24.8162 17.8295C24.8441 17.7713 24.9186 17.7108 24.9604 17.6806C25.1535 17.5527 25.3512 17.4248 25.4861 17.3387C25.7256 17.1829 25.9163 17.0596 26.0373 16.9759C26.4978 16.6549 26.8187 16.313 27.0188 15.9316C27.3025 15.3943 27.3374 14.7803 27.1188 14.2035C26.8164 13.4034 26.0582 12.9057 25.1418 12.9057C24.9511 12.9057 24.7581 12.9267 24.5674 12.9685C24.5162 12.9802 24.4673 12.9918 24.4185 13.0034C24.4278 12.4592 24.4139 11.8777 24.365 11.3102C24.1929 9.31003 23.4928 8.26109 22.7625 7.42612C22.4578 7.07725 21.9276 6.5679 21.1321 6.11204C20.0227 5.47477 18.7668 5.15381 17.3969 5.15381C16.0316 5.15381 14.7757 5.47477 13.6663 6.10972C12.8662 6.56557 12.3359 7.07725 12.0336 7.4238C11.3033 8.25876 10.6032 9.3077 10.4311 11.3079C10.3823 11.8754 10.3706 12.4568 10.3776 13.0011C10.3288 12.9895 10.2776 12.9778 10.2288 12.9662C10.038 12.9243 9.84267 12.9034 9.65428 12.9034C8.73791 12.9034 7.9797 13.4011 7.67734 14.2012C7.45872 14.778 7.4936 15.392 7.77735 15.9293C7.97737 16.3107 8.30066 16.6526 8.75884 16.9736C8.88211 17.0596 9.0705 17.1829 9.31006 17.3364C9.44031 17.4201 9.6287 17.5434 9.81476 17.6667C9.84267 17.6853 9.94268 17.7597 9.97757 17.8295C10.0171 17.9085 10.0171 17.9946 9.95896 18.1527C9.86128 18.369 9.7194 18.6342 9.51938 18.9272C8.9263 19.7948 8.07738 20.5297 6.99588 21.1158C6.42141 21.4205 5.826 21.6229 5.57481 22.3066C5.3841 22.823 5.50969 23.4114 5.99113 23.9068C6.14929 24.0766 6.34931 24.2278 6.60049 24.3673C7.19125 24.6929 7.69362 24.8534 8.08901 24.9627C8.15879 24.9836 8.31927 25.0348 8.38904 25.0976C8.5658 25.2511 8.54022 25.4837 8.77512 25.8233C8.917 26.0349 9.07981 26.1791 9.2147 26.2721C9.70545 26.6117 10.259 26.6326 10.8451 26.6559C11.3731 26.6768 11.9731 26.7001 12.6569 26.9257C12.9406 27.0187 13.236 27.2001 13.5756 27.4095C14.3943 27.9142 15.5176 28.6026 17.3946 28.6026C19.2738 28.6026 20.4018 27.9095 21.2275 27.4048C21.5671 27.1978 21.8601 27.0164 22.1346 26.9257C22.8183 26.7001 23.4184 26.6768 23.9464 26.6559C24.5325 26.6326 25.0837 26.6117 25.5768 26.2721C25.7303 26.1652 25.9256 25.9907 26.0791 25.7256C26.2466 25.4395 26.2443 25.2372 26.4024 25.0999C26.4675 25.0441 26.6094 24.9953 26.6862 24.972C27.0839 24.8627 27.5932 24.7022 28.1956 24.3696C28.4631 24.2231 28.6701 24.0626 28.8352 23.8789C28.8375 23.8766 28.8399 23.8742 28.8422 23.8719C29.2911 23.3835 29.405 22.8137 29.219 22.309ZM27.5514 23.2044C26.5327 23.7672 25.8559 23.7068 25.3302 24.044C24.8837 24.3324 25.1465 24.9534 24.8232 25.1767C24.4232 25.4535 23.244 25.1581 21.7206 25.6605C20.4646 26.0768 19.6622 27.2699 17.3992 27.2699C15.1316 27.2699 14.3524 26.0814 13.0779 25.6605C11.5545 25.1581 10.373 25.4535 9.97524 25.1767C9.65195 24.9534 9.91477 24.3324 9.46822 24.044C8.94258 23.7044 8.26577 23.7649 7.24707 23.2044C6.59817 22.8462 6.96565 22.6253 7.18195 22.5206C10.8707 20.7367 11.4568 17.9783 11.4847 17.7713C11.5173 17.5248 11.5521 17.3294 11.28 17.0759C11.0172 16.8317 9.84732 16.1084 9.52403 15.8828C8.98677 15.5083 8.75187 15.1339 8.9263 14.6733C9.04724 14.3547 9.34495 14.2361 9.65893 14.2361C9.75662 14.2361 9.85662 14.2477 9.95198 14.2686C10.5404 14.3966 11.1126 14.6919 11.4428 14.771C11.4893 14.7827 11.5289 14.7873 11.5638 14.7873C11.7405 14.7873 11.801 14.6989 11.7894 14.4966C11.7522 13.8523 11.6591 12.5964 11.7615 11.4219C11.901 9.80775 12.422 9.00767 13.0407 8.2983C13.3384 7.95873 14.7338 6.48417 17.4015 6.48417C20.0762 6.48417 21.4647 7.95873 21.7624 8.2983C22.3811 9.00535 22.9021 9.80542 23.0416 11.4219C23.144 12.5964 23.0556 13.8523 23.0137 14.4966C22.9998 14.7082 23.0649 14.7873 23.2393 14.7873C23.2742 14.7873 23.3161 14.7827 23.3603 14.771C23.6905 14.6919 24.2627 14.3966 24.8511 14.2686C24.9465 14.2477 25.0465 14.2361 25.1442 14.2361C25.4581 14.2361 25.7558 14.357 25.8768 14.6733C26.0512 15.1339 25.814 15.5083 25.2791 15.8828C24.9558 16.1084 23.7859 16.8317 23.5231 17.0759C23.2509 17.3271 23.2858 17.5225 23.3184 17.7713C23.344 17.9783 23.9324 20.7367 27.6211 22.5206C27.8305 22.6253 28.2003 22.8462 27.5514 23.2044Z" fill="#000814"/>
</svg>
