<svg width="36" height="36" viewBox="0 0 36 36" fill="none" xmlns="http://www.w3.org/2000/svg">
<path d="M12.7842 0.451531C12.7492 0.340775 12.8821 0.330045 12.9583 0.330391C13.0832 0.370886 13.2013 0.433879 13.2878 0.535291C13.2753 0.600014 13.2338 0.668891 13.157 0.656085C13.0157 0.64051 12.8555 0.583055 12.7842 0.451531Z" fill="#000814"/>
<path d="M3.34429 1.24303C3.57653 1.17588 3.86692 1.19353 4.04413 1.37455C4.11474 1.44758 4.0604 1.54484 3.98633 1.5881C3.79908 1.64729 3.59072 1.63448 3.41247 1.5528C3.33806 1.51507 3.25465 1.46039 3.24426 1.37005C3.24945 1.31052 3.30103 1.27591 3.34429 1.24303Z" fill="#000814"/>
<path d="M13.6896 1.24132C13.7965 1.16795 13.9353 1.22783 14.0409 1.27697C14.1347 1.3237 14.2579 1.41888 14.1966 1.5376C14.0613 1.60578 13.9042 1.53379 13.7858 1.46111C13.7152 1.41819 13.6297 1.32439 13.6896 1.24132Z" fill="#000814"/>
<path d="M21.5587 1.28741C21.7214 1.29745 21.8709 1.38606 21.9772 1.5065C22.0087 1.54042 22.0007 1.59165 22.0108 1.63388C21.8571 1.6446 21.7197 1.55635 21.6093 1.45874C21.5577 1.41755 21.5421 1.34972 21.5587 1.28741Z" fill="#000814"/>
<path d="M5.1473 1.77097C5.40723 1.74398 5.70247 1.80662 5.87102 2.02156C5.91948 2.16624 5.78761 2.26107 5.66232 2.28426C5.3875 2.31784 5.07565 2.25173 4.89914 2.02225C4.88529 1.87273 5.01716 1.79105 5.1473 1.77097Z" fill="#000814"/>
<path d="M13.3429 1.76372C13.4807 1.73049 13.625 1.77653 13.7444 1.8454C13.8223 1.8904 13.9022 1.9572 13.9099 2.05342C13.8922 2.12576 13.8136 2.15656 13.7458 2.15137C13.5883 2.14029 13.4295 2.07626 13.3187 1.9617C13.2592 1.91013 13.2522 1.78449 13.3429 1.76372Z" fill="#000814"/>
<path d="M21.4164 1.80265C21.4874 1.794 21.5639 1.78154 21.63 1.81753C21.7743 1.8871 21.9467 1.97813 21.9633 2.15707C21.9418 2.16434 21.8996 2.17888 21.8785 2.18614C21.6895 2.11761 21.4614 2.02278 21.4164 1.80265Z" fill="#000814"/>
<path d="M14.551 2.24149C14.6742 2.19061 14.8137 2.23976 14.9279 2.29445C15.0113 2.34048 15.1107 2.40382 15.1214 2.508C15.119 2.59522 15.0207 2.6198 14.9497 2.61114C14.8033 2.5928 14.6555 2.53327 14.5541 2.42355C14.5081 2.37682 14.487 2.28199 14.551 2.24149Z" fill="#000814"/>
<path d="M6.58698 2.40509C6.68493 2.33172 6.80365 2.29607 6.92444 2.28638C7.12553 2.29538 7.33147 2.33518 7.50211 2.44767C7.61494 2.51274 7.70493 2.62176 7.71497 2.75571C7.67516 2.87927 7.55195 2.93603 7.43288 2.95749C7.14111 2.97618 6.81784 2.90315 6.6164 2.67783C6.54441 2.60376 6.54302 2.4937 6.58698 2.40509Z" fill="#000814"/>
<path d="M21.3089 2.32629C21.4937 2.2716 21.6668 2.40139 21.8045 2.50938C21.87 2.5651 21.9644 2.68348 21.8758 2.75754C21.7156 2.77381 21.5726 2.67655 21.4484 2.5876C21.3619 2.52842 21.3023 2.43427 21.3089 2.32629Z" fill="#000814"/>
<path d="M20.4463 2.66129C20.4099 2.62011 20.3933 2.53704 20.4615 2.51904C20.5421 2.50554 20.62 2.55088 20.6906 2.58584C20.7924 2.64606 20.9187 2.7364 20.8844 2.87346C20.7145 2.88038 20.5522 2.7897 20.4463 2.66129Z" fill="#000814"/>
<path d="M14.0706 2.91176C14.0983 2.84461 14.1481 2.78404 14.2264 2.78093C14.4316 2.75947 14.6403 2.8453 14.7923 2.98098C14.8694 3.04328 14.903 3.14296 14.8726 3.23918C14.7853 3.28349 14.6857 3.30841 14.5884 3.28591C14.3755 3.24472 14.1436 3.13154 14.0706 2.91176Z" fill="#000814"/>
<path d="M21.2701 2.84016C21.4057 2.83739 21.5293 2.91354 21.6397 2.98518C21.7342 3.05683 21.8491 3.14024 21.854 3.27107C21.8242 3.37318 21.7006 3.33926 21.6262 3.31434C21.4725 3.25273 21.3182 3.16516 21.223 3.02637C21.1766 2.96822 21.1718 2.84224 21.2701 2.84016Z" fill="#000814"/>
<path d="M8.11352 3.01704C8.17755 2.93016 8.27273 2.86682 8.38141 2.85402C8.67699 2.81179 8.9885 2.89936 9.22282 3.08349C9.32665 3.16829 9.43152 3.29566 9.39726 3.43895C9.36576 3.55732 9.24047 3.60474 9.13421 3.63451C8.81163 3.66842 8.46898 3.57082 8.22843 3.34931C8.13429 3.26659 8.09033 3.1406 8.11352 3.01704Z" fill="#000814"/>
<path d="M20.2429 3.01019C20.409 2.98492 20.5655 3.0756 20.6849 3.18255C20.7434 3.23793 20.8091 3.3383 20.7288 3.40476C20.6703 3.40857 20.6125 3.39991 20.5558 3.38988C20.4253 3.32065 20.2879 3.24451 20.2231 3.10433C20.228 3.0808 20.238 3.03372 20.2429 3.01019Z" fill="#000814"/>
<path d="M6.13021 3.38307C6.21882 3.25846 6.37803 3.23078 6.52098 3.2287C6.71965 3.25189 6.94116 3.3045 7.06576 3.47513C7.11249 3.53328 7.10037 3.61046 7.08895 3.6783C6.91589 3.83475 6.65665 3.81502 6.45037 3.74476C6.29393 3.68868 6.10772 3.5762 6.13021 3.38307Z" fill="#000814"/>
<path d="M15.5572 3.39215C15.6918 3.35407 15.8306 3.42364 15.9438 3.49217C16.039 3.55897 16.1552 3.65519 16.13 3.78603C16.0867 3.88744 15.9538 3.86217 15.8687 3.84071C15.7209 3.78949 15.5641 3.70365 15.4973 3.55517C15.463 3.4946 15.4928 3.41707 15.5572 3.39215Z" fill="#000814"/>
<path d="M21.0914 3.42162C21.1565 3.38666 21.2368 3.41435 21.3043 3.43269C21.4662 3.49326 21.6213 3.58602 21.7355 3.71789C21.7878 3.78331 21.8428 3.88818 21.7729 3.96121C21.6995 4.00966 21.6082 3.97782 21.533 3.95256C21.3631 3.88576 21.2001 3.78434 21.09 3.63655C21.0457 3.57598 21.0135 3.46938 21.0914 3.42162Z" fill="#000814"/>
<path d="M22.1742 3.42788C22.2023 3.38531 22.2715 3.413 22.3134 3.42235C22.4397 3.47599 22.5851 3.5511 22.6308 3.69024C22.6349 3.80826 22.4833 3.75808 22.4203 3.72416C22.312 3.66497 22.1372 3.57394 22.1742 3.42788Z" fill="#000814"/>
<path d="M13.859 3.49585C14.0262 3.44151 14.2065 3.50865 14.3491 3.59795C14.4253 3.65125 14.5091 3.72359 14.5149 3.82293C14.527 3.90599 14.4391 3.95618 14.3675 3.95964C14.1671 3.97625 13.9584 3.89042 13.8262 3.73951C13.759 3.67029 13.7483 3.527 13.859 3.49585Z" fill="#000814"/>
<path d="M20.0928 3.50025C20.2063 3.45595 20.3261 3.52586 20.4244 3.57985C20.5203 3.64527 20.6424 3.72799 20.6393 3.85778C20.621 3.94051 20.5206 3.93393 20.458 3.91386C20.3157 3.87163 20.1797 3.79064 20.0911 3.6695C20.0565 3.62312 20.0336 3.53382 20.0928 3.50025Z" fill="#000814"/>
<path d="M10.0535 3.60469C10.2761 3.55277 10.5132 3.62373 10.6994 3.74868C10.8032 3.82205 10.9102 3.92969 10.9036 4.06675C10.8974 4.17163 10.789 4.22908 10.6963 4.24223C10.4827 4.27096 10.2647 4.20416 10.0878 4.08614C9.98777 4.01657 9.89328 3.91827 9.8822 3.7909C9.88359 3.69503 9.96631 3.62615 10.0535 3.60469Z" fill="#000814"/>
<path d="M7.62488 4.00087C7.6498 3.75097 7.94676 3.71186 8.14682 3.72467C8.36833 3.75962 8.59815 3.83127 8.7539 4.0019C8.82693 4.06974 8.84839 4.17012 8.85358 4.26599C8.80547 4.37155 8.70268 4.42936 8.59607 4.45981C8.36037 4.49858 8.12051 4.44251 7.908 4.34006C7.7834 4.25665 7.66087 4.1535 7.62488 4.00087Z" fill="#000814"/>
<path d="M15.2119 3.98492C15.3528 3.94235 15.5034 3.98735 15.6314 4.0493C15.7681 4.12129 15.9014 4.22097 15.9692 4.36392C16.0038 4.43487 16.0007 4.53871 15.9236 4.57955C15.8114 4.64047 15.6754 4.60516 15.5619 4.5664C15.3871 4.49544 15.2102 4.38053 15.1323 4.20125C15.0929 4.1206 15.123 4.01469 15.2119 3.98492Z" fill="#000814"/>
<path d="M20.9278 4.03016C20.9808 3.95921 21.0766 3.97859 21.1528 3.97824C21.4158 4.06304 21.7007 4.23264 21.7606 4.52406C21.6066 4.66874 21.3864 4.55521 21.2348 4.46522C21.0905 4.36485 20.9005 4.22883 20.9278 4.03016Z" fill="#000814"/>
<path d="M22.1193 4.02563C22.2104 3.98825 22.3035 4.03982 22.3841 4.07997C22.4814 4.13465 22.5842 4.20422 22.625 4.31325C22.6489 4.36759 22.6035 4.44235 22.5385 4.42124C22.4042 4.4067 22.2858 4.32848 22.1868 4.24091C22.1335 4.18657 22.0691 4.10247 22.1193 4.02563Z" fill="#000814"/>
<path d="M19.8444 4.1419C19.8541 4.04603 19.9645 4.0443 20.0375 4.06022C20.196 4.10037 20.3435 4.19174 20.4497 4.31634C20.5044 4.37103 20.4975 4.45167 20.5044 4.52263C20.3417 4.59427 20.1718 4.50705 20.0378 4.41637C19.9485 4.34888 19.8471 4.26304 19.8444 4.1419Z" fill="#000814"/>
<path d="M11.6107 4.22592C11.8118 4.183 12.0247 4.25637 12.1863 4.37682C12.2777 4.45054 12.3746 4.55992 12.3452 4.68694C12.312 4.77624 12.2109 4.81154 12.1233 4.81708C11.9136 4.82539 11.7028 4.74093 11.5526 4.59522C11.4865 4.53084 11.4415 4.43739 11.4605 4.34394C11.4872 4.28233 11.5457 4.23976 11.6107 4.22592Z" fill="#000814"/>
<path d="M9.26652 4.53462C9.33193 4.41106 9.46519 4.34979 9.59982 4.33872C9.83484 4.33145 10.0743 4.39202 10.2675 4.52873C10.3962 4.61457 10.4983 4.74713 10.5073 4.90634C10.471 5.04756 10.3343 5.11471 10.2021 5.1372C9.89991 5.15866 9.58183 5.05725 9.37 4.83608C9.28832 4.75786 9.25925 4.64468 9.26652 4.53462Z" fill="#000814"/>
<path d="M20.8538 4.571C21.0096 4.52462 21.1709 4.5935 21.3055 4.66964C21.4599 4.76379 21.6198 4.88562 21.6734 5.06664C21.7032 5.14417 21.6399 5.22481 21.562 5.23173C21.3862 5.24558 21.2204 5.16113 21.0788 5.0656C20.9566 4.97838 20.8341 4.86935 20.7929 4.71948C20.7711 4.66411 20.8009 4.59592 20.8538 4.571Z" fill="#000814"/>
<path d="M22.049 4.65688C22.0767 4.6105 22.1335 4.59181 22.1847 4.60947C22.3373 4.64338 22.4799 4.73164 22.5761 4.85521C22.6149 4.90816 22.6547 5.01788 22.5675 5.04661C22.4709 5.06253 22.3796 5.01096 22.293 4.97635C22.2286 4.92512 22.1636 4.87459 22.1002 4.82267C22.076 4.76972 22.0518 4.71538 22.049 4.65688Z" fill="#000814"/>
<path d="M16.4581 4.79056C16.4487 4.69469 16.5505 4.66631 16.6245 4.6535C16.8945 4.68154 17.2164 4.8591 17.233 5.15987C17.1126 5.30281 16.9039 5.23498 16.7633 5.16056C16.6245 5.08095 16.4691 4.96362 16.4581 4.79056Z" fill="#000814"/>
<path d="M19.6394 4.72518C19.6809 4.62688 19.8073 4.64661 19.89 4.67257C20.062 4.73037 20.2357 4.83247 20.3237 4.99723C20.3569 5.05364 20.3365 5.11802 20.3209 5.17651C20.1368 5.23881 19.9495 5.13706 19.8052 5.02872C19.7159 4.955 19.6089 4.8529 19.6394 4.72518Z" fill="#000814"/>
<path d="M14.8237 4.73593C15.0237 4.67017 15.2425 4.74355 15.4149 4.8505C15.5443 4.93391 15.6789 5.04674 15.708 5.20596C15.7333 5.29871 15.663 5.39043 15.5751 5.41328C15.4249 5.4562 15.266 5.41086 15.1269 5.35167C14.9711 5.27691 14.8182 5.16858 14.7417 5.00936C14.6932 4.91418 14.7133 4.77608 14.8237 4.73593Z" fill="#000814"/>
<path d="M10.8286 5.09024C10.9134 4.99644 11.0339 4.95041 11.1574 4.93726C11.4921 4.9338 11.8441 5.0712 12.0463 5.34602C12.1238 5.44501 12.1328 5.57895 12.092 5.6949C12.0061 5.78247 11.8898 5.82677 11.7701 5.84166C11.4433 5.84339 11.1048 5.71463 10.8941 5.45885C10.8079 5.35744 10.7791 5.21519 10.8286 5.09024Z" fill="#000814"/>
<path d="M13.0587 5.07436C13.0608 4.9951 13.1425 4.96395 13.2031 4.93523C13.4017 4.92346 13.6032 4.99406 13.7447 5.13528C13.825 5.20312 13.8427 5.30868 13.8444 5.40802C13.6731 5.54369 13.4318 5.48347 13.2626 5.37514C13.1601 5.30868 13.0504 5.20727 13.0587 5.07436Z" fill="#000814"/>
<path d="M20.6713 5.25288C20.7519 5.17189 20.8783 5.19543 20.9769 5.22173C21.2064 5.2913 21.4175 5.43667 21.5508 5.63742C21.5992 5.70387 21.5992 5.78763 21.6047 5.8662C21.4933 5.98007 21.3227 5.94719 21.1901 5.89389C20.9921 5.81186 20.8038 5.6831 20.69 5.49828C20.6484 5.42629 20.6104 5.32522 20.6713 5.25288Z" fill="#000814"/>
<path d="M8.90184 5.38215C9.00498 5.28247 9.16004 5.29112 9.2926 5.29146C9.51377 5.33334 9.73389 5.44133 9.84154 5.649C9.86853 5.78952 9.76089 5.91101 9.62556 5.9297C9.37463 5.97504 9.09878 5.8847 8.92468 5.6978C8.84715 5.61508 8.8115 5.46937 8.90184 5.38215Z" fill="#000814"/>
<path d="M22.024 5.28829C22.2116 5.2426 22.3922 5.37274 22.5248 5.49388C22.5978 5.56033 22.6813 5.7102 22.5681 5.777C22.3729 5.79396 22.1932 5.67351 22.061 5.54095C22.0046 5.47692 21.9354 5.35336 22.024 5.28829Z" fill="#000814"/>
<path d="M19.4051 5.35799C19.5497 5.29362 19.7124 5.32373 19.846 5.39987C19.9886 5.48156 20.1392 5.59474 20.1786 5.76295C20.207 5.84463 20.1298 5.89551 20.0675 5.92458C19.9322 5.91939 19.7979 5.88374 19.6847 5.80863C19.5286 5.71276 19.367 5.55943 19.4051 5.35799Z" fill="#000814"/>
<path d="M16.1707 5.35631C16.3994 5.29089 16.6403 5.38538 16.8317 5.51033C16.975 5.61347 17.1225 5.74811 17.1495 5.93189C17.1664 6.04473 17.0678 6.13991 16.9605 6.15029C16.7473 6.18213 16.5337 6.09457 16.3586 5.97897C16.2163 5.87478 16.0644 5.74153 16.0433 5.55567C16.0308 5.46845 16.0904 5.38573 16.1707 5.35631Z" fill="#000814"/>
<path d="M12.5426 5.64013C12.7527 5.56606 12.9843 5.61555 13.185 5.69689C13.382 5.78307 13.5696 5.91563 13.6769 6.106C13.7371 6.21745 13.7578 6.37735 13.6596 6.47392C13.5426 6.59402 13.3605 6.59333 13.2051 6.58537C12.9081 6.5293 12.6094 6.3905 12.4312 6.13784C12.3665 6.05235 12.3471 5.94367 12.3457 5.8388C12.3838 5.75088 12.4485 5.67059 12.5426 5.64013Z" fill="#000814"/>
<path d="M14.5496 5.73121C14.5911 5.61976 14.7379 5.62253 14.8345 5.64537C14.9992 5.68967 15.182 5.79074 15.2297 5.96656C15.2567 6.05067 15.1896 6.10466 15.1248 6.14066C14.9563 6.15866 14.8009 6.08667 14.6638 5.99668C14.6043 5.92157 14.5233 5.83608 14.5496 5.73121Z" fill="#000814"/>
<path d="M10.4041 6.06855C10.4567 5.97337 10.5519 5.91765 10.654 5.88961C11.0257 5.84427 11.4913 6.0284 11.5865 6.42297C11.5785 6.56038 11.4681 6.6521 11.3428 6.68671C11.0254 6.7324 10.6807 6.61195 10.4778 6.36033C10.409 6.27968 10.3958 6.17031 10.4041 6.06855Z" fill="#000814"/>
<path d="M20.5756 5.91741C20.7539 5.85995 20.9428 5.93644 21.0993 6.02228C21.273 6.12715 21.4437 6.26871 21.5143 6.46565C21.5454 6.54249 21.5288 6.64425 21.4492 6.68439C21.2941 6.75016 21.1232 6.6837 20.9795 6.61794C20.7892 6.51895 20.6088 6.37635 20.5133 6.1808C20.4666 6.09219 20.4732 5.9624 20.5756 5.91741Z" fill="#000814"/>
<path d="M21.9107 5.99934C21.9896 5.91558 22.1135 5.93704 22.2084 5.97995C22.3527 6.04329 22.4932 6.13674 22.5756 6.27484C22.6081 6.33715 22.6279 6.43302 22.5576 6.47767C22.4448 6.52059 22.3254 6.46278 22.2257 6.41191C22.0723 6.32503 21.9069 6.19282 21.9107 5.99934Z" fill="#000814"/>
<path d="M19.1912 6.02783C19.2795 5.98457 19.3833 6.00118 19.4747 6.0261C19.6713 6.08875 19.8523 6.21335 19.9686 6.38571C20.0167 6.46601 20.0603 6.59234 19.9703 6.66087C19.8755 6.73286 19.7454 6.70275 19.6408 6.67264C19.4408 6.59892 19.2466 6.47086 19.1456 6.27772C19.103 6.19777 19.0954 6.07213 19.1912 6.02783Z" fill="#000814"/>
<path d="M17.6331 6.08844C17.8196 6.03652 18.0159 6.11267 18.1733 6.21269C18.3197 6.30926 18.4665 6.44528 18.4907 6.62838C18.5028 6.71767 18.4308 6.79659 18.3457 6.81112C18.1263 6.84608 17.9089 6.74709 17.7403 6.61315C17.6286 6.52177 17.5209 6.39821 17.5143 6.24696C17.5074 6.17289 17.5676 6.11163 17.6331 6.08844Z" fill="#000814"/>
<path d="M15.7004 6.31471C15.7188 6.17973 15.8662 6.1157 15.9884 6.11466C16.3408 6.11155 16.6907 6.30572 16.8855 6.59749C16.9562 6.70686 16.996 6.87334 16.8963 6.97787C16.8115 7.06613 16.6806 7.06959 16.5664 7.07028C16.2882 7.03498 16.0372 6.89065 15.8403 6.69509C15.761 6.58503 15.6755 6.45766 15.7004 6.31471Z" fill="#000814"/>
<path d="M14.1025 6.3365C14.2995 6.27213 14.513 6.32404 14.6978 6.40296C14.8924 6.49191 15.0744 6.62966 15.1782 6.82003C15.2381 6.93044 15.2579 7.08515 15.1616 7.18206C15.0533 7.28693 14.8896 7.29489 14.748 7.27897C14.5068 7.24436 14.2777 7.13049 14.1011 6.96263C13.9945 6.85533 13.8983 6.71342 13.9122 6.5549C13.9205 6.45003 14.0046 6.36592 14.1025 6.3365Z" fill="#000814"/>
<path d="M12.1224 6.5501C12.2775 6.50406 12.4426 6.50752 12.599 6.54698C12.8794 6.62832 13.1573 6.80622 13.2639 7.09038C13.2784 7.19145 13.2584 7.2939 13.1964 7.37627C13.1299 7.41711 13.0586 7.44965 12.9842 7.47318C12.663 7.50987 12.3318 7.38596 12.1016 7.16203C11.9784 7.04262 11.895 6.86333 11.9538 6.692C12.0027 6.63662 12.0594 6.58886 12.1224 6.5501Z" fill="#000814"/>
<path d="M20.3681 6.67532C20.4557 6.59052 20.5896 6.60887 20.6997 6.62306C21.0289 6.72793 21.3812 6.95256 21.4535 7.3146C21.4373 7.3897 21.3978 7.46931 21.3165 7.48869C21.1507 7.52953 20.9801 7.47208 20.833 7.39801C20.6499 7.30179 20.4803 7.16577 20.3764 6.98475C20.3259 6.89303 20.2944 6.76323 20.3681 6.67532Z" fill="#000814"/>
<path d="M21.915 6.6697C22.1088 6.62816 22.2957 6.73927 22.4373 6.86179C22.5228 6.94417 22.6201 7.05008 22.6024 7.17883C22.5893 7.25602 22.4958 7.27367 22.4307 7.26709C22.2137 7.23802 22.0178 7.102 21.8939 6.92409C21.8413 6.85037 21.8081 6.71192 21.915 6.6697Z" fill="#000814"/>
<path d="M18.8489 6.90327C18.8475 6.80739 18.9413 6.76309 19.0174 6.73436C19.3238 6.7309 19.618 6.90708 19.7841 7.16009C19.8481 7.25388 19.8582 7.37571 19.7948 7.47263C19.5868 7.57715 19.348 7.48232 19.1687 7.36325C19.0133 7.25769 18.8527 7.10367 18.8489 6.90327Z" fill="#000814"/>
<path d="M17.0726 7.04103C17.0626 6.8787 17.2266 6.7714 17.3734 6.76621C17.6354 6.75133 17.8901 6.85862 18.1027 7.00399C18.3006 7.14832 18.5003 7.33834 18.5263 7.59619C18.6329 7.43629 18.8482 7.44252 19.0136 7.48509C19.3926 7.58304 19.7505 7.84297 19.8941 8.21643C20.0759 8.08214 20.315 8.11017 20.5151 8.18355C20.3531 8.08006 20.2243 7.93435 20.1229 7.77237C20.0883 7.66888 20.0468 7.54774 20.1008 7.4439C20.1735 7.32069 20.3344 7.30511 20.4625 7.32449C20.7352 7.36568 20.9823 7.51589 21.1782 7.70591C21.2952 7.82705 21.4067 7.97415 21.4188 8.14859C21.4305 8.2462 21.3707 8.34588 21.2776 8.37876C21.137 8.43552 20.9851 8.39399 20.846 8.3573C21.0647 8.50267 21.2547 8.70549 21.3399 8.95815C21.5198 8.84117 21.7476 8.87751 21.9338 8.95919C22.2422 9.09383 22.5187 9.33473 22.6361 9.6573C22.796 9.51747 23.023 9.55174 23.2033 9.62892C23.4847 9.74729 23.7367 9.95531 23.8814 10.227C23.9482 10.3568 23.9883 10.5458 23.8648 10.6555C23.7395 10.7541 23.5702 10.7157 23.4269 10.6891C23.6495 10.8542 23.8426 11.0733 23.9226 11.3436C23.989 11.2851 24.0645 11.2262 24.1586 11.2297C24.441 11.2242 24.6972 11.381 24.9024 11.5623C25.0658 11.7146 25.2098 11.906 25.2465 12.1317C25.2676 12.2521 25.2132 12.3947 25.0914 12.438C24.9332 12.4899 24.7616 12.447 24.6169 12.3757C24.5971 12.3812 24.5781 12.3868 24.5594 12.3926C24.6792 12.4117 24.7654 12.502 24.8529 12.5782C25.0177 12.737 25.1641 12.9343 25.1997 13.1655C25.2191 13.259 25.1869 13.3524 25.1461 13.4355C24.9772 13.5895 24.7259 13.5369 24.538 13.4507C24.2112 13.2936 23.924 13.0167 23.8191 12.6626C23.6827 12.8443 23.4352 12.8343 23.2376 12.7824C23.4529 12.9468 23.6405 13.1628 23.7274 13.423C23.7758 13.5743 23.7841 13.7633 23.6706 13.8886C23.5754 13.9948 23.4238 14.001 23.292 14.0125C23.4612 14.1838 23.6038 14.3908 23.6533 14.6299C23.7128 14.5202 23.8215 14.441 23.9499 14.4406C24.2701 14.4281 24.5608 14.6164 24.7744 14.8404C24.9395 15.0158 25.0762 15.2367 25.0945 15.4821C25.108 15.6247 25.0426 15.7849 24.9059 15.8451C24.7633 15.9064 24.6065 15.868 24.4611 15.8396C24.0797 15.6731 23.7447 15.3568 23.6346 14.9463C23.5436 15.1443 23.3099 15.1944 23.112 15.1702C23.321 15.363 23.4899 15.6094 23.5467 15.8919C23.6014 15.8174 23.663 15.7375 23.7582 15.7153C23.9748 15.6517 24.1957 15.742 24.386 15.8417C24.4995 15.9206 24.6072 16.0085 24.7017 16.1096C24.873 16.3003 25.0139 16.5387 25.0256 16.8011C25.0353 16.9627 24.9526 17.1431 24.791 17.1974C24.6608 17.2483 24.5213 17.2144 24.3898 17.1915C23.9752 17.0254 23.6135 16.6685 23.5193 16.2224C23.4245 16.4519 23.1528 16.5093 22.9313 16.4616C23.1369 16.6367 23.2833 16.8755 23.3501 17.1368C23.3771 17.3199 23.3515 17.5238 23.2068 17.6539C23.1289 17.7003 23.0427 17.7301 22.9541 17.7463C22.805 17.7463 22.6582 17.7114 22.5229 17.6508C22.101 17.4369 21.7324 16.9991 21.7722 16.5021C21.7974 16.3955 21.8542 16.2989 21.9362 16.2266C22.0619 16.1476 22.2128 16.1418 22.3561 16.1615C22.1522 16.013 22.0096 15.796 21.9099 15.5672C21.787 15.6565 21.6365 15.697 21.4852 15.6877C21.3779 15.6721 21.2727 15.6444 21.1696 15.6115C20.819 15.453 20.5175 15.1733 20.369 14.8144C20.2922 14.8508 20.2136 14.884 20.1323 14.9086C19.9917 14.9269 19.8502 14.9058 19.7142 14.8705C19.945 15.0449 20.1326 15.2962 20.1797 15.5866C20.2088 15.7486 20.1693 15.932 20.044 16.0455C19.9616 16.1286 19.844 16.1594 19.7318 16.1739C19.3964 16.1861 19.0787 16.0189 18.851 15.7815C18.6647 15.5942 18.5266 15.3405 18.535 15.0709C18.5363 14.9079 18.6294 14.7469 18.7772 14.6746C18.9382 14.5919 19.1275 14.6081 19.2974 14.6524C19.0853 14.5001 18.9181 14.2894 18.8177 14.0488C18.5571 14.2011 18.23 14.1613 17.968 14.0346C17.6098 13.8661 17.2997 13.5542 17.208 13.1607C17.0352 13.3109 16.7992 13.3517 16.5773 13.3185C16.7788 13.4988 16.9387 13.7567 16.9193 14.036C16.9151 14.2495 16.7424 14.4337 16.5375 14.4773C16.2066 14.5538 15.8616 14.4216 15.603 14.2163C15.3794 14.0377 15.1974 13.7736 15.196 13.4784C15.1918 13.3178 15.2759 13.1593 15.4127 13.0745C15.5532 12.9835 15.7276 12.9669 15.8903 12.9887C15.6127 12.7661 15.3895 12.3819 15.5293 12.023C15.6643 11.78 15.9682 11.7191 16.2233 11.7575C16.0166 11.5689 15.8238 11.3166 15.8384 11.022C15.8432 10.8535 15.9606 10.7105 16.1111 10.6444C16.2312 10.6067 16.3575 10.6046 16.4825 10.6029C16.4534 10.578 16.425 10.553 16.3967 10.5285C16.2402 10.3506 16.1198 10.1214 16.1592 9.87709C16.2108 9.71995 16.3503 9.61266 16.5098 9.58151C16.6528 9.56731 16.7968 9.57943 16.9369 9.60954C16.6919 9.4261 16.4472 9.15959 16.477 8.83009C16.3842 9.01388 16.1703 9.0696 15.9799 9.05126C15.6584 9.02115 15.3552 8.85951 15.1361 8.62485C14.9952 8.47429 14.8949 8.26004 14.9592 8.05272C15.0319 7.93435 15.1576 7.85509 15.2971 7.84643C15.6868 7.81425 16.072 8.01257 16.3222 8.30365C16.4475 8.44487 16.5123 8.63384 16.4853 8.82213C16.5091 8.74702 16.5341 8.66465 16.604 8.61965C16.7445 8.50924 16.9335 8.52516 17.101 8.53728C16.9179 8.37945 16.7608 8.16763 16.748 7.91773C16.6088 8.09148 16.3645 8.09494 16.1655 8.04822C15.8616 7.97173 15.5708 7.8004 15.3898 7.54012C15.3019 7.41241 15.2399 7.23693 15.3171 7.08983C15.3877 6.96107 15.5449 6.91919 15.6823 6.9185C15.9713 6.91746 16.2499 7.04241 16.4714 7.22308C16.6396 7.35841 16.7774 7.54704 16.7957 7.76821C16.8497 7.70833 16.9099 7.65123 16.9882 7.62527C17.1529 7.58442 17.3242 7.60381 17.4862 7.64742C17.29 7.50032 17.082 7.30269 17.0726 7.04103ZM18.1525 7.85993C18.0853 7.89247 18.068 7.97865 18.1054 8.0406C18.1892 8.20778 18.3695 8.32165 18.5547 8.33619C18.636 8.34449 18.7305 8.27562 18.7084 8.18666C18.6772 8.05479 18.5633 7.96204 18.4498 7.90043C18.3598 7.85716 18.2494 7.81598 18.1525 7.85993ZM19.6726 8.6155C19.5892 8.63938 19.5844 8.7446 19.6256 8.80725C19.7059 8.94292 19.8533 9.03914 20.0104 9.0568C20.0997 9.06926 20.1759 8.96958 20.1316 8.88824C20.0534 8.72141 19.8595 8.5885 19.6726 8.6155ZM17.9414 8.85224C17.851 8.88858 17.8541 9.00696 17.9047 9.07514C17.9954 9.20736 18.149 9.30496 18.3117 9.30911C18.4065 9.31292 18.483 9.20563 18.4349 9.11944C18.3508 8.94327 18.1393 8.8024 17.9414 8.85224ZM21.0211 9.30288C20.9654 9.32676 20.9311 9.39391 20.9598 9.45102C21.0166 9.60435 21.1678 9.71026 21.3236 9.74556C21.3876 9.76495 21.4627 9.73518 21.487 9.67046C21.4963 9.56316 21.4177 9.47525 21.3409 9.41156C21.2516 9.34061 21.1381 9.28281 21.0211 9.30288ZM17.6641 9.85701C17.6088 9.89993 17.6025 9.98023 17.6337 10.0398C17.7105 10.2135 17.9109 10.3315 18.1002 10.3097C18.2228 10.2893 18.2356 10.1356 18.1674 10.0536C18.0615 9.90097 17.8476 9.76564 17.6641 9.85701ZM22.3426 9.96535C22.2595 9.97919 22.2363 10.0761 22.2688 10.1439C22.3329 10.299 22.4786 10.4108 22.6371 10.4579C22.707 10.4793 22.8084 10.4769 22.8413 10.398C22.8635 10.2793 22.7762 10.1747 22.6946 10.0993C22.5976 10.02 22.4723 9.94285 22.3426 9.96535ZM17.452 10.8867C17.3561 10.9082 17.3139 11.0234 17.3585 11.1072C17.434 11.2719 17.6094 11.3934 17.7922 11.3955C17.9016 11.3996 17.9926 11.2809 17.9438 11.1781C17.8697 10.9912 17.6537 10.8476 17.452 10.8867ZM22.2723 11.0397C22.1917 11.074 22.2034 11.1806 22.2373 11.2446C22.3156 11.3917 22.4713 11.4972 22.6368 11.5163C22.7472 11.5197 22.7911 11.3882 22.7364 11.3048C22.6496 11.1449 22.4616 10.9988 22.2723 11.0397ZM23.4484 11.761C23.6339 11.9195 23.7862 12.1275 23.8454 12.367C24.0112 12.1597 24.3185 12.2404 24.521 12.3449C24.5137 12.3342 24.4999 12.3127 24.493 12.302C24.2161 12.1673 23.9869 11.9088 23.9015 11.6111C23.8139 11.7738 23.61 11.7811 23.4484 11.761ZM17.1398 11.9271C17.0377 11.968 17.0027 12.0908 17.0467 12.1874C17.1277 12.3729 17.3184 12.5055 17.5205 12.5183C17.6351 12.5221 17.7579 12.4276 17.7306 12.3033C17.6776 12.0524 17.3907 11.861 17.1398 11.9271ZM22.156 12.0683C22.0584 12.104 22.0702 12.2289 22.1152 12.3027C22.1993 12.4484 22.3581 12.5705 22.5329 12.5622C22.6219 12.5598 22.6752 12.4498 22.6323 12.3746C22.5596 12.1922 22.3592 12.0299 22.156 12.0683ZM18.8257 12.7626L18.8281 12.7862L18.8008 12.7813C18.716 12.8028 18.7149 12.9146 18.743 12.981C18.8219 13.1787 19.0417 13.3206 19.2563 13.2811C19.3085 13.2233 19.3708 13.1517 19.3314 13.0683C19.2653 12.8706 19.0313 12.6983 18.8257 12.7626ZM21.9933 13.1849C21.9463 13.2181 21.9241 13.2842 21.9442 13.3389C21.985 13.4909 22.1096 13.6099 22.2526 13.6691C22.3214 13.6954 22.4076 13.7117 22.4699 13.6601C22.5284 13.6207 22.525 13.5397 22.5056 13.4801C22.4561 13.3441 22.3398 13.2392 22.2086 13.1828C22.1415 13.1565 22.056 13.1409 21.9933 13.1849ZM20.2506 13.6882C20.3057 13.9034 20.5341 14.0647 20.7567 14.0405C20.8017 13.9903 20.8657 13.9353 20.8442 13.8591C20.7961 13.6338 20.5587 13.4614 20.3289 13.4954C20.2801 13.5476 20.2223 13.6099 20.2506 13.6882ZM21.8127 14.2163C21.7168 14.2489 21.678 14.3589 21.7137 14.4503C21.7791 14.6528 21.9733 14.8186 22.1882 14.8345C22.3173 14.8487 22.4097 14.7005 22.3543 14.587C22.2806 14.3707 22.0501 14.1717 21.8127 14.2163Z" fill="#000814"/>
<path d="M13.5271 7.28153C13.6337 7.20262 13.7655 7.16974 13.8967 7.1687C14.2276 7.19362 14.5526 7.34972 14.7585 7.61311C14.8506 7.72456 14.8904 7.86958 14.8762 8.01287C14.8115 8.16966 14.6485 8.24615 14.4868 8.25481C14.1577 8.25031 13.8337 8.10529 13.6108 7.8637C13.5253 7.77232 13.4696 7.65741 13.4433 7.53593C13.443 7.44386 13.4693 7.35387 13.5271 7.28153Z" fill="#000814"/>
<path d="M3.75483 7.23639C3.92443 7.21562 4.11825 7.24712 4.23835 7.37864C4.29823 7.43886 4.30654 7.54858 4.23801 7.60569C4.11514 7.71818 3.92962 7.71402 3.77664 7.68045C3.66519 7.64757 3.53366 7.58389 3.50701 7.45894C3.49317 7.32326 3.64027 7.24919 3.75483 7.23639Z" fill="#000814"/>
<path d="M8.04388 7.40602C8.26331 7.3181 8.55162 7.40082 8.67726 7.60503C8.73437 7.70021 8.67969 7.8262 8.57828 7.86185C8.36299 7.93834 8.08749 7.86496 7.96012 7.66941C7.89712 7.57734 7.94073 7.44513 8.04388 7.40602Z" fill="#000814"/>
<path d="M21.73 7.55343C21.7483 7.49183 21.7691 7.41222 21.8449 7.40218C22.0809 7.36446 22.3031 7.50705 22.4658 7.66419C22.5544 7.76006 22.6596 7.89851 22.6001 8.03419C22.5094 8.1529 22.3423 8.09787 22.2218 8.06603C22.0079 7.95666 21.7937 7.79814 21.73 7.55343Z" fill="#000814"/>
<path d="M1.19451 7.65241C1.35891 7.5998 1.55239 7.60534 1.70156 7.69879C1.77356 7.73998 1.82374 7.83724 1.77633 7.91477C1.68253 8.04941 1.49805 8.0636 1.34818 8.05287C1.22704 8.0411 1.08479 7.99403 1.03322 7.87289C1.00449 7.76386 1.10452 7.68564 1.19451 7.65241Z" fill="#000814"/>
<path d="M11.8448 7.67571C12.0548 7.6096 12.2864 7.68332 12.4577 7.81173C12.5719 7.89618 12.6706 8.03255 12.6415 8.18207C12.61 8.30252 12.4736 8.35859 12.3591 8.3579C12.1126 8.36032 11.8527 8.23849 11.7267 8.02182C11.6482 7.8993 11.6994 7.71655 11.8448 7.67571Z" fill="#000814"/>
<path d="M5.34402 7.84615C5.48454 7.72121 5.68529 7.71775 5.86285 7.72778C6.07571 7.76966 6.29756 7.869 6.39655 8.07494C6.40971 8.16943 6.40105 8.27776 6.32179 8.34283C6.16639 8.47954 5.93726 8.48612 5.74413 8.44666C5.56692 8.40859 5.38382 8.32206 5.28933 8.16008C5.23084 8.05867 5.25334 7.92092 5.34402 7.84615Z" fill="#000814"/>
<path d="M9.55955 8.12464C9.59417 8.04815 9.67585 8.01354 9.74646 7.97823C10.0258 7.92701 10.3459 8.02427 10.5079 8.26724C10.5629 8.34408 10.5636 8.44168 10.5467 8.53133C10.4875 8.60609 10.4086 8.66977 10.3117 8.68431C10.058 8.72619 9.78107 8.62754 9.61632 8.42922C9.54709 8.34719 9.50833 8.22536 9.55955 8.12464Z" fill="#000814"/>
<path d="M2.86764 8.24416C2.97666 8.10329 3.17395 8.10779 3.33455 8.11609C3.44427 8.15001 3.54498 8.20643 3.62874 8.28534C3.63428 8.36149 3.65366 8.45667 3.58271 8.50997C3.40654 8.65049 3.14107 8.63077 2.9559 8.5169C2.86418 8.46567 2.80119 8.33899 2.86764 8.24416Z" fill="#000814"/>
<path d="M21.7438 8.19171C21.8978 8.1436 22.0608 8.20694 22.1965 8.28032C22.3602 8.38069 22.5184 8.51775 22.5859 8.70292C22.6215 8.79014 22.6014 8.91059 22.5066 8.95005C22.39 8.99504 22.2616 8.95732 22.1505 8.91371C21.9549 8.82718 21.7753 8.68389 21.6763 8.49145C21.6254 8.3928 21.6181 8.23567 21.7438 8.19171Z" fill="#000814"/>
<path d="M13.3399 8.26267C13.5559 8.18826 13.7891 8.24156 13.9885 8.33916C14.1823 8.46099 14.3762 8.63786 14.3838 8.88429C14.3592 9.01581 14.2484 9.11446 14.1186 9.13488C13.8601 9.17745 13.595 9.07431 13.3977 8.90921C13.2696 8.79915 13.1551 8.6382 13.1834 8.45996C13.1949 8.36997 13.2714 8.31147 13.3399 8.26267Z" fill="#000814"/>
<path d="M7.10427 8.52059C7.29775 8.31084 7.62171 8.31534 7.87126 8.40914C8.05886 8.48148 8.25718 8.62269 8.28072 8.83867C8.29906 8.98577 8.1755 9.09514 8.0547 9.1519C7.74459 9.24224 7.37978 9.15675 7.16 8.9155C7.05962 8.81063 7.03505 8.64865 7.10427 8.52059Z" fill="#000814"/>
<path d="M27.9708 8.54868C28.047 8.54349 28.1276 8.53899 28.1965 8.57914C28.3512 8.65598 28.5166 8.79165 28.4952 8.98375C28.4357 8.97925 28.3765 8.9751 28.318 8.96644C28.1532 8.8813 27.9712 8.75601 27.9708 8.54868Z" fill="#000814"/>
<path d="M26.9081 8.57605C27.0971 8.56705 27.267 8.701 27.3816 8.84048C27.4453 8.90936 27.4841 9.08311 27.346 9.08484C27.1528 9.05438 26.9722 8.92944 26.8756 8.75984C26.8427 8.7055 26.8299 8.5944 26.9081 8.57605Z" fill="#000814"/>
<path d="M28.9304 8.56689C29.136 8.57036 29.389 8.72853 29.3676 8.95835C29.1616 8.95939 28.8989 8.79671 28.9304 8.56689Z" fill="#000814"/>
<path d="M11.2274 8.75145C11.3022 8.64588 11.4393 8.61196 11.5621 8.61404C11.8241 8.61231 12.0903 8.74522 12.2333 8.96708C12.308 9.07991 12.3129 9.24951 12.2049 9.34365C12.0633 9.46375 11.8612 9.44783 11.6926 9.40734C11.4891 9.34227 11.3025 9.21178 11.2029 9.019C11.1883 8.93074 11.1707 8.82898 11.2274 8.75145Z" fill="#000814"/>
<path d="M25.6335 8.92629C25.5605 8.83388 25.5255 8.6622 25.6688 8.61652C25.9198 8.64109 26.1475 8.79477 26.2842 9.00313C26.3417 9.08585 26.358 9.20595 26.278 9.28036C26.0167 9.2994 25.781 9.12877 25.6335 8.92629Z" fill="#000814"/>
<path d="M4.93076 8.69115C5.14362 8.63404 5.39282 8.67073 5.5593 8.82267C5.62368 8.88844 5.67733 8.98777 5.64133 9.08088C5.60292 9.20479 5.46689 9.25186 5.35337 9.28024C5.09413 9.30931 4.72032 9.20063 4.71063 8.88878C4.75528 8.79741 4.83004 8.71815 4.93076 8.69115Z" fill="#000814"/>
<path d="M24.4171 8.75769C24.5604 8.73624 24.6999 8.80234 24.8155 8.88126C24.9464 8.97367 25.0692 9.09654 25.1094 9.25645C25.1329 9.33259 25.0796 9.42431 24.9965 9.42673C24.8034 9.4385 24.6279 9.32463 24.4905 9.20003C24.3971 9.10554 24.2984 8.98302 24.3182 8.84145C24.3362 8.80096 24.3708 8.76392 24.4171 8.75769Z" fill="#000814"/>
<path d="M22.9412 8.86226C23.1263 8.81173 23.3191 8.86849 23.4721 8.97787C23.6247 9.08828 23.7836 9.23191 23.8144 9.42747C23.8369 9.5178 23.7611 9.58253 23.6915 9.62164C23.3894 9.62614 23.1087 9.43612 22.9529 9.18588C22.8854 9.08759 22.8858 8.96541 22.9412 8.86226Z" fill="#000814"/>
<path d="M14.6542 9.09034C14.7449 8.89998 14.972 8.84737 15.1651 8.86813C15.4814 8.91313 15.7839 9.08307 15.9695 9.34577C16.0677 9.48214 16.1138 9.66316 16.0515 9.82445C15.9895 9.91236 15.8988 9.97466 15.7957 10.0034C15.6794 10.0172 15.5614 10.0148 15.4465 9.99266C15.1557 9.91928 14.8837 9.74553 14.7224 9.48941C14.6459 9.37173 14.6276 9.22636 14.6542 9.09034Z" fill="#000814"/>
<path d="M9.10784 8.98705C9.43942 8.90572 9.81703 9.03274 10.0306 9.29994C10.1282 9.42177 10.1656 9.60868 10.0662 9.74089C9.96413 9.87484 9.7838 9.91637 9.62355 9.91395C9.38162 9.90633 9.14037 9.81184 8.96697 9.64156C8.86002 9.5353 8.78595 9.37747 8.82991 9.22622C8.8666 9.09989 8.98774 9.02132 9.10784 8.98705Z" fill="#000814"/>
<path d="M12.9636 9.2482C13.3402 9.1551 13.7486 9.3465 13.9719 9.65247C14.0553 9.7743 14.1051 9.93697 14.0456 10.0792C13.9888 10.208 13.8493 10.2772 13.7154 10.2914C13.4084 10.3232 13.1003 10.1896 12.884 9.97608C12.7722 9.85875 12.6809 9.70231 12.6982 9.53513C12.712 9.39392 12.8304 9.28247 12.9636 9.2482Z" fill="#000814"/>
<path d="M28.0832 9.30209C28.1257 9.25364 28.2071 9.29206 28.2597 9.31075C28.3874 9.37789 28.5328 9.48138 28.5501 9.63644C28.5539 9.73197 28.4293 9.71189 28.3729 9.68351C28.2303 9.61637 28.0669 9.49973 28.0638 9.32667L28.0832 9.30209Z" fill="#000814"/>
<path d="M25.6294 9.38163C25.7803 9.36398 25.9233 9.44117 26.0458 9.52077C26.2029 9.63257 26.3569 9.78624 26.3853 9.9856C26.395 10.0842 26.2988 10.1479 26.2088 10.1372C26.0018 10.1171 25.8194 9.99495 25.6761 9.85097C25.5896 9.75302 25.5 9.63464 25.5103 9.49689C25.51 9.43355 25.572 9.38959 25.6294 9.38163Z" fill="#000814"/>
<path d="M26.9053 9.37012C26.9808 9.31889 27.0735 9.35593 27.15 9.38466C27.3085 9.45422 27.4484 9.57433 27.5325 9.72662C27.5685 9.79099 27.5847 9.89725 27.5048 9.93636C27.2822 9.9689 27.086 9.80864 26.9527 9.64805C26.8998 9.57225 26.8229 9.45076 26.9053 9.37012Z" fill="#000814"/>
<path d="M6.87327 9.52244C7.08371 9.46429 7.3433 9.53144 7.46894 9.71869C7.53435 9.81214 7.51082 9.95543 7.41113 10.0153C7.25711 10.1115 7.05602 10.0887 6.89854 10.0129C6.79574 9.96028 6.68914 9.86717 6.68983 9.74257C6.67703 9.63181 6.77705 9.55013 6.87327 9.52244Z" fill="#000814"/>
<path d="M24.2752 9.51288C24.4524 9.46511 24.6348 9.54818 24.7819 9.64267C24.9425 9.7555 25.0951 9.90087 25.1598 10.0909C25.1917 10.1802 25.1813 10.31 25.0802 10.3491C24.9124 10.4014 24.7386 10.3249 24.5957 10.2401C24.4112 10.121 24.2354 9.9566 24.1772 9.73785C24.1509 9.6534 24.1855 9.54264 24.2752 9.51288Z" fill="#000814"/>
<path d="M10.8784 9.78535C11.0906 9.72132 11.3242 9.78223 11.508 9.89749C11.6637 9.99613 11.8056 10.165 11.7856 10.3606C11.7655 10.5323 11.5879 10.6257 11.4304 10.6316C11.1245 10.6451 10.7849 10.4845 10.6673 10.1893C10.5942 10.0221 10.7081 9.82931 10.8784 9.78535Z" fill="#000814"/>
<path d="M14.4507 9.90225C14.6812 9.81676 14.9381 9.86487 15.1596 9.95555C15.3856 10.0542 15.5905 10.212 15.7262 10.42C15.8203 10.563 15.8691 10.7447 15.82 10.9126C15.7635 11.0853 15.5804 11.1843 15.407 11.1939C15.0723 11.223 14.7418 11.0801 14.4947 10.8606C14.3244 10.7077 14.1801 10.4969 14.1863 10.2591C14.187 10.0981 14.305 9.95866 14.4507 9.90225Z" fill="#000814"/>
<path d="M26.9377 10.3888C26.8948 10.3182 26.9024 10.2247 26.9689 10.1714C27.1748 10.1984 27.3759 10.3244 27.4614 10.5179C27.4912 10.5812 27.4739 10.6532 27.4233 10.7007C27.2236 10.6834 27.035 10.5636 26.9377 10.3888Z" fill="#000814"/>
<path d="M8.73794 10.2768C8.93176 10.1954 9.18269 10.2726 9.2983 10.4481C9.36786 10.5495 9.33256 10.7067 9.21142 10.7496C9.01552 10.8278 8.76528 10.7499 8.65037 10.5727C8.58322 10.4713 8.6213 10.3218 8.73794 10.2768Z" fill="#000814"/>
<path d="M25.5935 10.2767C25.6966 10.2272 25.815 10.2674 25.9123 10.313C26.0787 10.3992 26.2303 10.5297 26.311 10.7021C26.3425 10.7741 26.3636 10.8751 26.2961 10.934C26.2141 10.9977 26.103 10.9672 26.0154 10.9343C25.8247 10.8544 25.6551 10.7114 25.5627 10.5249C25.5239 10.4473 25.5059 10.3276 25.5935 10.2767Z" fill="#000814"/>
<path d="M24.0495 10.5679C24.0426 10.4616 24.1229 10.3796 24.2187 10.3488C24.5666 10.3367 24.8774 10.5596 25.0774 10.8282C25.183 10.9715 25.2661 11.1999 25.1086 11.339C24.8445 11.4159 24.5818 11.276 24.3828 11.1127C24.2208 10.9728 24.0664 10.7901 24.0495 10.5679Z" fill="#000814"/>
<path d="M12.3946 10.5742C12.5185 10.4413 12.7169 10.4281 12.8861 10.4537C13.1675 10.5167 13.4537 10.6998 13.5382 10.9892C13.5877 11.1391 13.5098 11.3007 13.3769 11.3772C13.0426 11.5108 12.6497 11.3533 12.4324 11.083C12.3202 10.9456 12.2666 10.7185 12.3946 10.5742Z" fill="#000814"/>
<path d="M10.5493 11.0042C10.6697 10.9799 10.8002 10.9886 10.9075 11.0533C11.0529 11.1236 11.1629 11.3043 11.0674 11.4576C10.8525 11.6279 10.4766 11.4981 10.4132 11.2319C10.3866 11.1284 10.4617 11.0443 10.5493 11.0042Z" fill="#000814"/>
<path d="M13.8024 11.3213C13.8605 11.1573 14.0242 11.0517 14.1911 11.0243C14.4911 10.9742 14.7995 11.0752 15.0439 11.2486C15.2498 11.3902 15.4184 11.5972 15.4783 11.8433C15.4925 11.9831 15.4876 12.1399 15.3848 12.2482C15.2163 12.4465 14.9272 12.4503 14.6905 12.4078C14.3409 12.3157 14.0149 12.0966 13.8429 11.7723C13.7854 11.6314 13.7473 11.4691 13.8024 11.3213Z" fill="#000814"/>
<path d="M25.7005 11.2791C25.8393 11.2576 25.9708 11.3438 26.0702 11.4331C26.1529 11.5137 26.2377 11.6217 26.219 11.7446C26.2062 11.8111 26.1228 11.837 26.0636 11.8228C25.8788 11.7868 25.7154 11.6536 25.6379 11.4829C25.6095 11.412 25.6046 11.2981 25.7005 11.2791Z" fill="#000814"/>
<path d="M11.9458 11.715C12.0887 11.5596 12.3241 11.552 12.5169 11.597C12.7744 11.6638 13.0233 11.8396 13.1126 12.0989C13.1569 12.2145 13.1333 12.3415 13.0762 12.4474C12.9028 12.6457 12.6124 12.6371 12.3816 12.5627C12.1767 12.474 11.996 12.3304 11.8922 12.13C11.8534 11.9936 11.8399 11.8254 11.9458 11.715Z" fill="#000814"/>
<path d="M26.9674 11.9673C27.0609 11.9361 27.1599 11.9815 27.2422 12.0251C27.3935 12.1168 27.5357 12.258 27.5631 12.4401C27.5755 12.5422 27.4651 12.5958 27.379 12.5692C27.1834 12.5249 27.0148 12.3785 26.9252 12.2013C26.8868 12.1275 26.8709 12.0015 26.9674 11.9673Z" fill="#000814"/>
<path d="M25.3754 12.0961C25.4439 12.0154 25.5592 12.0248 25.6544 12.0265C25.9866 12.1134 26.2832 12.3498 26.4262 12.6637C26.4816 12.7758 26.4868 12.9091 26.4293 13.0212C26.2784 13.1396 26.0721 13.087 25.916 13.0081C25.689 12.8893 25.4882 12.7049 25.3761 12.4719C25.3238 12.356 25.2854 12.2033 25.3754 12.0961Z" fill="#000814"/>
<path d="M9.70747 12.4213C9.77358 12.3188 9.87914 12.2396 10.0037 12.2299C10.2637 12.2004 10.5565 12.3358 10.6607 12.5846C10.7112 12.6982 10.6818 12.8297 10.6025 12.9224C10.3263 13.1256 9.9006 12.9944 9.73758 12.7072C9.68566 12.621 9.68912 12.5165 9.70747 12.4213Z" fill="#000814"/>
<path d="M13.5196 12.5257C13.5923 12.3761 13.7526 12.2862 13.9135 12.2657C14.1506 12.2329 14.3905 12.3055 14.5947 12.4239C14.8487 12.5852 15.0827 12.85 15.0685 13.1694C15.0706 13.3674 14.9148 13.5266 14.7348 13.5844C14.215 13.7014 13.6245 13.3574 13.485 12.8403C13.474 12.7347 13.4708 12.6229 13.5196 12.5257Z" fill="#000814"/>
<path d="M28.2513 12.6537C28.3548 12.6122 28.4687 12.66 28.56 12.7119C28.7182 12.8081 28.8608 12.9528 28.9124 13.1348C28.9387 13.2072 28.911 13.3079 28.8304 13.3304C28.7189 13.3487 28.6116 13.2989 28.5202 13.2414C28.3818 13.1466 28.2582 13.0172 28.2046 12.8555C28.1824 12.7877 28.1804 12.6932 28.2513 12.6537Z" fill="#000814"/>
<path d="M26.7718 12.7421C26.9477 12.6888 27.1304 12.7646 27.2813 12.8532C27.5035 12.9938 27.6977 13.1928 27.7977 13.4392C27.8396 13.5538 27.8635 13.7033 27.7714 13.8005C27.6804 13.884 27.5423 13.8673 27.4322 13.8386C27.1623 13.7504 26.9297 13.56 26.7736 13.3243C26.6909 13.1969 26.6206 13.045 26.65 12.8899C26.6611 12.8231 26.7113 12.7695 26.7718 12.7421Z" fill="#000814"/>
<path d="M11.7167 12.8489C12.0362 12.7976 12.3743 12.9423 12.5716 13.196C12.6841 13.3421 12.7485 13.5473 12.6703 13.7238C12.601 13.8855 12.4231 13.9741 12.2539 13.9817C12.0587 13.9983 11.8638 13.9398 11.698 13.8388C11.5893 13.7692 11.4976 13.6761 11.4197 13.5736C11.3578 13.4501 11.3062 13.3082 11.3415 13.169C11.3789 12.9935 11.5471 12.8769 11.7167 12.8489Z" fill="#000814"/>
<path d="M25.4474 13.0739C25.6298 13.0168 25.8237 13.0878 25.9815 13.1809C26.2269 13.3325 26.4394 13.5599 26.5249 13.8402C26.563 13.9686 26.5463 14.1465 26.4079 14.2078C26.249 14.2708 26.0715 14.214 25.9261 14.1414C25.6561 13.9953 25.4222 13.7592 25.3242 13.4644C25.2765 13.3273 25.2955 13.1349 25.4474 13.0739Z" fill="#000814"/>
<path d="M29.4121 13.3601C29.4751 13.3299 29.5454 13.3005 29.6163 13.3258C29.8181 13.3819 29.9853 13.5286 30.1012 13.6996C30.1635 13.7955 30.2186 13.9163 30.1808 14.0319C30.1383 14.127 30.0189 14.1001 29.9372 14.0914C29.7112 13.9931 29.5114 13.8159 29.4201 13.5836C29.3893 13.5123 29.3986 13.4338 29.4121 13.3601Z" fill="#000814"/>
<path d="M23.9336 13.3915C24.0707 13.331 24.2261 13.3649 24.3604 13.4172C24.6151 13.522 24.8321 13.7152 24.9713 13.9529C25.046 14.0803 25.0934 14.2333 25.0616 14.3814C25.037 14.4905 24.937 14.5766 24.8259 14.5853C24.5729 14.6123 24.3351 14.4811 24.1513 14.3191C23.9734 14.1627 23.8201 13.9595 23.783 13.7204C23.7588 13.5944 23.8114 13.4462 23.9336 13.3915Z" fill="#000814"/>
<path d="M8.96172 13.6599C9.28707 13.3315 9.86681 13.4568 10.1382 13.7942C10.2963 13.9732 10.3292 14.2642 10.1683 14.4525C9.82562 14.7765 9.23377 14.6249 8.97556 14.2663C8.84231 14.0933 8.82639 13.8364 8.96172 13.6599Z" fill="#000814"/>
<path d="M28.1877 13.5258C28.3548 13.4794 28.5234 13.5628 28.6611 13.6521C28.8557 13.7892 29.027 13.9757 29.1052 14.2038C29.1447 14.3135 29.1454 14.472 29.028 14.5343C28.8795 14.588 28.7193 14.5233 28.5909 14.4478C28.3714 14.3101 28.1807 14.109 28.0921 13.8622C28.0544 13.7476 28.0509 13.5735 28.1877 13.5258Z" fill="#000814"/>
<path d="M13.4718 13.6043C13.9099 13.5025 14.3924 13.7642 14.5689 14.1723C14.6589 14.3706 14.6226 14.6212 14.4495 14.7627C14.1387 14.97 13.7182 14.8579 13.4475 14.6343C13.2523 14.4755 13.098 14.2262 13.1378 13.966C13.1606 13.7888 13.3098 13.6583 13.4718 13.6043Z" fill="#000814"/>
<path d="M26.7911 13.9271C26.8482 13.8492 26.9544 13.8509 27.0417 13.8502C27.3255 13.9125 27.5643 14.1084 27.7252 14.3448C27.8311 14.5037 27.9049 14.7193 27.7927 14.8951C27.6162 14.9921 27.4085 14.9204 27.2504 14.8207C27.0496 14.6892 26.8766 14.5051 26.7838 14.2818C26.7402 14.17 26.7142 14.0305 26.7911 13.9271Z" fill="#000814"/>
<path d="M17.3236 13.9185C17.5465 13.8662 17.7808 13.941 17.9667 14.0649C18.1688 14.2033 18.344 14.4086 18.3813 14.6574C18.4108 14.8139 18.346 14.9949 18.201 15.0724C18.0072 15.1777 17.7687 15.1313 17.5794 15.0396C17.2918 14.8952 17.0249 14.6111 17.0381 14.2705C17.036 14.1044 17.1637 13.9548 17.3236 13.9185Z" fill="#000814"/>
<path d="M30.6421 13.9714C30.7732 13.9212 30.9138 13.9846 31.028 14.0503C31.2381 14.1843 31.4163 14.3791 31.5091 14.6124C31.5409 14.7065 31.5596 14.836 31.4755 14.909C31.3699 14.9769 31.2398 14.9243 31.138 14.8765C30.9055 14.7512 30.7134 14.5484 30.6057 14.3071C30.5604 14.2012 30.5303 14.0462 30.6421 13.9714Z" fill="#000814"/>
<path d="M10.9541 14.3291C11.277 14.1322 11.7107 14.2374 11.9827 14.4766C12.152 14.6247 12.2773 14.8449 12.2524 15.0757C12.2375 15.265 12.0931 15.4281 11.9177 15.491C11.7387 15.5544 11.5425 15.5371 11.3621 15.4886C11.0994 15.3938 10.8651 15.2014 10.7616 14.9373C10.6883 14.7189 10.7499 14.4537 10.9541 14.3291Z" fill="#000814"/>
<path d="M25.3941 14.2627C25.4913 14.1908 25.6184 14.2202 25.7263 14.2465C26.0531 14.3839 26.3622 14.6937 26.3438 15.0709C26.3023 15.137 26.2542 15.2156 26.1683 15.2246C26.0022 15.2488 25.8388 15.1768 25.7073 15.0813C25.5346 14.9536 25.3858 14.7805 25.3255 14.5715C25.2986 14.4676 25.2975 14.3316 25.3941 14.2627Z" fill="#000814"/>
<path d="M29.4703 14.3204C29.5648 14.2657 29.6794 14.3038 29.7732 14.3425C30.0023 14.4529 30.1923 14.6468 30.2982 14.8783C30.3401 14.9832 30.3751 15.1237 30.2927 15.2182C30.191 15.2982 30.0508 15.2514 29.9462 15.2026C29.7126 15.0798 29.5157 14.8759 29.4205 14.6281C29.3862 14.5284 29.3686 14.3868 29.4703 14.3204Z" fill="#000814"/>
<path d="M15.0565 14.5874C15.1721 14.4375 15.378 14.3994 15.5566 14.4209C15.9771 14.4866 16.3859 14.8518 16.3599 15.3021C16.3288 15.471 16.2007 15.6188 16.0294 15.653C15.639 15.734 15.2302 15.4969 15.0468 15.1546C14.9558 14.9816 14.9305 14.7497 15.0565 14.5874Z" fill="#000814"/>
<path d="M28.2864 14.6661C28.4439 14.6253 28.6014 14.7094 28.726 14.799C28.9098 14.9437 29.0776 15.141 29.1084 15.3805C29.1243 15.485 29.053 15.6079 28.9381 15.6079C28.7595 15.6124 28.5996 15.51 28.4712 15.3957C28.3279 15.2628 28.203 15.0943 28.1715 14.8973C28.1556 14.807 28.1885 14.6931 28.2864 14.6661Z" fill="#000814"/>
<path d="M31.9605 14.7406C32.102 14.7184 32.2349 14.8029 32.344 14.8849C32.5032 15.0144 32.6416 15.1822 32.7043 15.3802C32.7299 15.4681 32.7379 15.6111 32.6254 15.6398C32.4835 15.663 32.3502 15.5848 32.2426 15.5013C32.0795 15.3709 31.9408 15.2006 31.8746 15.0005C31.8463 14.9109 31.8435 14.7641 31.9605 14.7406Z" fill="#000814"/>
<path d="M8.30448 15.1935C8.68763 14.7664 9.483 14.9914 9.65225 15.5188C9.70797 15.6915 9.67094 15.8961 9.54011 16.0259C9.3847 16.1879 9.14485 16.2336 8.92922 16.2055C8.64506 16.1626 8.36886 15.9899 8.25118 15.721C8.17434 15.5503 8.19857 15.3465 8.30448 15.1935Z" fill="#000814"/>
<path d="M30.702 15.2527C30.7117 15.1821 30.7301 15.0973 30.809 15.0741C30.9768 15.044 31.1343 15.1433 31.2582 15.2464C31.4116 15.3825 31.5462 15.5552 31.5919 15.7587C31.6151 15.8459 31.5957 15.9677 31.4984 16.0003C31.3693 16.0294 31.2461 15.9632 31.1402 15.8978C30.9284 15.741 30.7432 15.5199 30.702 15.2527Z" fill="#000814"/>
<path d="M12.932 15.185C13.3543 14.9711 13.9119 15.2587 14.0417 15.6993C14.0863 15.8429 14.0607 16.0018 13.9769 16.1261C13.905 16.1987 13.8191 16.2624 13.7177 16.2853C13.3089 16.377 12.8538 16.0987 12.7455 15.6955C12.6891 15.5051 12.7669 15.2943 12.932 15.185Z" fill="#000814"/>
<path d="M26.9372 15.1102C27.0605 15.0673 27.1899 15.1268 27.2937 15.1926C27.4447 15.296 27.5731 15.4463 27.6226 15.6252C27.6475 15.7159 27.6402 15.8443 27.5388 15.8841C27.3931 15.926 27.2467 15.8516 27.1338 15.7647C27.0006 15.6581 26.8864 15.5148 26.849 15.3452C26.8303 15.26 26.8441 15.1444 26.9372 15.1102Z" fill="#000814"/>
<path d="M25.4248 15.3377C25.6117 15.3103 25.7955 15.3972 25.9433 15.5052C26.152 15.663 26.3275 15.8852 26.3787 16.1462C26.4092 16.2815 26.3618 16.4518 26.2202 16.5027C26.0025 16.5612 25.7834 16.4532 25.6162 16.3203C25.4134 16.1569 25.2421 15.9281 25.2095 15.6634C25.1864 15.5208 25.2729 15.3584 25.4248 15.3377Z" fill="#000814"/>
<path d="M16.9375 15.4658C17.0517 15.3242 17.259 15.3266 17.4179 15.3771C17.6612 15.4626 17.8748 15.6738 17.9156 15.9344C17.9433 16.0791 17.8685 16.24 17.7291 16.2964C17.5802 16.3584 17.4165 16.313 17.2732 16.2587C17.0984 16.1514 16.9444 16.0008 16.8811 15.8015C16.8613 15.688 16.8579 15.5582 16.9375 15.4658Z" fill="#000814"/>
<path d="M29.679 15.5045C29.8434 15.4931 29.9857 15.6011 30.0985 15.7087C30.2224 15.8402 30.3411 16.014 30.3093 16.204C30.2736 16.3137 30.1372 16.3161 30.0486 16.2746C29.8275 16.1839 29.651 15.988 29.5752 15.762C29.5395 15.6686 29.5592 15.5204 29.679 15.5045Z" fill="#000814"/>
<path d="M20.3466 15.8308C20.3556 15.6854 20.4664 15.5712 20.5993 15.5248C20.8104 15.4826 21.0188 15.5618 21.1981 15.6681C21.4154 15.8384 21.6068 16.0658 21.6442 16.3493C21.6511 16.4735 21.6113 16.5964 21.5279 16.6895C21.3078 16.8456 21.0119 16.7629 20.8045 16.6248C20.5429 16.4524 20.3189 16.1585 20.3466 15.8308Z" fill="#000814"/>
<path d="M33.2682 15.6321C33.4142 15.5885 33.5489 15.6996 33.6503 15.7921C33.7642 15.9163 33.885 16.0679 33.8777 16.2458C33.8735 16.3455 33.75 16.3524 33.6801 16.3199C33.4932 16.2427 33.3554 16.0773 33.2668 15.9004C33.2294 15.8191 33.1972 15.7038 33.2682 15.6321Z" fill="#000814"/>
<path d="M10.6788 15.8182C11.1093 15.7539 11.6001 16.0706 11.632 16.5233C11.6624 16.8023 11.4177 17.0445 11.1491 17.0663C10.7923 17.1096 10.4143 16.9085 10.2645 16.5794C10.1852 16.4063 10.1883 16.1858 10.3056 16.0304C10.3929 15.9103 10.5344 15.8401 10.6788 15.8182Z" fill="#000814"/>
<path d="M32.1005 15.9173C32.2418 15.8858 32.3698 15.9854 32.4698 16.0734C32.5896 16.1959 32.7062 16.3489 32.7107 16.5275C32.7166 16.5932 32.6664 16.6562 32.5983 16.6545C32.4865 16.6503 32.3871 16.5877 32.3065 16.5153C32.1843 16.4053 32.0753 16.2689 32.0382 16.1059C32.0279 16.0394 32.0234 15.945 32.1005 15.9173Z" fill="#000814"/>
<path d="M18.7325 16.0468C18.9453 15.9974 19.1696 16.0621 19.3482 16.1808C19.5763 16.3317 19.7639 16.5657 19.8086 16.8408C19.8383 16.9994 19.7933 17.1818 19.6594 17.2811C19.5016 17.4029 19.2807 17.387 19.1028 17.3216C18.7567 17.1925 18.4608 16.8706 18.431 16.493C18.4085 16.2971 18.5366 16.0918 18.7325 16.0468Z" fill="#000814"/>
<path d="M15.0295 16.1562C15.3057 16.071 15.6237 16.3078 15.6303 16.5951C15.6282 16.6944 15.5649 16.7889 15.4735 16.8273C15.1949 16.9204 14.8578 16.6812 14.8664 16.385C14.8626 16.2836 14.9346 16.188 15.0295 16.1562Z" fill="#000814"/>
<path d="M6.31679 16.2669C6.61687 16.2154 6.98479 16.4068 7.00867 16.7342C7.0246 16.9979 6.75774 17.1897 6.51131 17.1758C6.23753 17.188 5.9243 16.9938 5.91011 16.7006C5.88969 16.4694 6.10359 16.2929 6.31679 16.2669Z" fill="#000814"/>
<path d="M26.8949 16.3488C26.962 16.2626 27.0838 16.2803 27.179 16.2945C27.4992 16.4222 27.7982 16.7496 27.7401 17.1151C27.6816 17.1937 27.5857 17.2487 27.486 17.2214C27.2327 17.1691 27.0302 16.9697 26.9139 16.7462C26.8551 16.6264 26.8121 16.4672 26.8949 16.3488Z" fill="#000814"/>
<path d="M34.5294 16.5019C34.5668 16.4483 34.6561 16.4725 34.7073 16.4971C34.869 16.586 34.9949 16.7411 35.0545 16.9155C35.0711 16.9754 35.0901 17.0702 35.0199 17.1028C34.8762 17.1246 34.7644 17.0072 34.6769 16.911C34.5855 16.7992 34.482 16.6528 34.5294 16.5019Z" fill="#000814"/>
<path d="M12.585 16.7389C12.873 16.5084 13.3541 16.7901 13.3178 17.1487C13.3063 17.3045 13.1547 17.3997 13.0111 17.4145C12.8958 17.4028 12.7775 17.3744 12.6868 17.2986C12.5148 17.1757 12.4338 16.9099 12.585 16.7389Z" fill="#000814"/>
<path d="M7.89955 16.739C8.24843 16.5905 8.69146 16.7279 8.88528 17.0557C8.98635 17.2187 8.99223 17.4295 8.90847 17.6012C8.69977 17.9338 8.21486 17.9629 7.9082 17.7556C7.695 17.6251 7.54963 17.3686 7.59912 17.1163C7.62681 16.9481 7.75522 16.8183 7.89955 16.739Z" fill="#000814"/>
<path d="M25.2387 16.8747C25.2574 16.7829 25.3412 16.7328 25.4208 16.6992C25.5686 16.6947 25.7164 16.7359 25.8372 16.8221C26.0853 16.9917 26.2888 17.2717 26.274 17.5842C26.2407 17.6725 26.1854 17.7676 26.0833 17.7832C25.8437 17.822 25.6236 17.6693 25.4661 17.5046C25.3166 17.336 25.1823 17.1076 25.2387 16.8747Z" fill="#000814"/>
<path d="M16.5817 17.1263C16.6229 17.0152 16.7042 16.9089 16.8261 16.883C17.114 16.8203 17.4093 17.0114 17.5328 17.2671C17.6055 17.4163 17.6176 17.6233 17.4875 17.7451C17.4103 17.8247 17.2951 17.8393 17.1902 17.8431C16.8506 17.796 16.5419 17.4828 16.5817 17.1263Z" fill="#000814"/>
<path d="M20.3919 17.0712C20.5155 16.9948 20.6716 16.9906 20.8048 17.0446C21.0527 17.1415 21.2538 17.3686 21.2991 17.6337C21.3261 17.7714 21.2638 17.9334 21.1274 17.9878C20.9782 18.048 20.8142 17.9923 20.6789 17.923C20.4847 17.795 20.3196 17.596 20.2957 17.3578C20.2801 17.2519 20.3275 17.1515 20.3919 17.0712Z" fill="#000814"/>
<path d="M23.7232 17.0651C23.9302 17.0132 24.1358 17.0994 24.313 17.1998C24.5601 17.3749 24.7674 17.622 24.8477 17.9183C24.8875 18.0803 24.891 18.2807 24.7616 18.4053C24.6667 18.5053 24.5193 18.5143 24.3905 18.5036C24.2625 18.4738 24.1399 18.423 24.0295 18.352C23.691 18.1222 23.3979 17.7186 23.4847 17.2901C23.5322 17.1887 23.609 17.0921 23.7232 17.0651Z" fill="#000814"/>
<path d="M28.3598 17.12C28.5595 17.0542 28.7512 17.2027 28.8775 17.3446C28.9966 17.4834 29.1081 17.6707 29.0568 17.8596C29.0219 17.9714 28.8848 17.988 28.79 17.9503C28.5543 17.8659 28.3726 17.6568 28.2923 17.4232C28.257 17.3232 28.2549 17.1788 28.3598 17.12Z" fill="#000814"/>
<path d="M9.95528 17.8132C9.96532 17.6367 10.1266 17.518 10.292 17.499C10.5821 17.4837 10.8721 17.7326 10.8261 18.0368C10.7863 18.1372 10.7209 18.2369 10.6136 18.2739C10.3159 18.3989 9.92551 18.1434 9.95528 17.8132Z" fill="#000814"/>
<path d="M18.3794 17.6103C18.82 17.4424 19.2987 17.782 19.4572 18.1897C19.5302 18.3707 19.5285 18.5863 19.4215 18.7542C19.3385 18.8376 19.2326 18.9058 19.1121 18.9117C18.8269 18.938 18.5552 18.7819 18.3742 18.5715C18.2101 18.3852 18.1112 18.1257 18.1697 17.8782C18.1956 17.7622 18.2811 17.6716 18.3794 17.6103Z" fill="#000814"/>
<path d="M26.9115 17.584C27.0742 17.5373 27.2379 17.6249 27.3629 17.7228C27.5321 17.8623 27.6692 18.0572 27.6993 18.278C27.7111 18.3798 27.6827 18.5113 27.5771 18.5532C27.4366 18.5999 27.2867 18.5417 27.1722 18.4594C26.9773 18.3202 26.8198 18.1126 26.779 17.8734C26.7579 17.7633 26.7945 17.6232 26.9115 17.584Z" fill="#000814"/>
<path d="M21.9228 17.779C22.0097 17.6904 22.1415 17.6779 22.2592 17.6838C22.3437 17.7008 22.425 17.7284 22.5043 17.7617C22.7947 17.9143 23.0176 18.1926 23.0833 18.5162C23.0857 18.6252 23.0771 18.7367 23.0317 18.8377C22.9307 18.9838 22.7379 19.0298 22.5721 18.9848C22.2308 18.9007 21.9522 18.6193 21.8422 18.2891C21.7871 18.1213 21.7861 17.9091 21.9228 17.779Z" fill="#000814"/>
<path d="M5.48523 17.7219C5.81439 17.6367 6.21 17.771 6.36713 18.0849C6.4682 18.285 6.43324 18.5477 6.27195 18.7065C5.95768 19.0395 5.34575 18.9672 5.09862 18.5885C5.00448 18.4456 4.98475 18.2587 5.04082 18.0977C5.11385 17.9084 5.28968 17.7689 5.48523 17.7219Z" fill="#000814"/>
<path d="M25.3165 18.0336C25.4896 17.9737 25.6761 18.0537 25.8167 18.1551C26.0319 18.3205 26.213 18.5624 26.2296 18.8418C26.2403 18.965 26.1835 19.1093 26.0589 19.1522C25.8966 19.1962 25.726 19.1335 25.5934 19.0408C25.3781 18.8888 25.203 18.6597 25.1604 18.3956C25.1376 18.2606 25.1739 18.0865 25.3165 18.0336Z" fill="#000814"/>
<path d="M29.8357 18.0406C30.0956 18.0178 30.3043 18.2621 30.3542 18.4975C30.3819 18.5861 30.3272 18.6647 30.2462 18.6958C30.0164 18.6453 29.8336 18.4452 29.7893 18.2171C29.7734 18.1534 29.8122 18.096 29.8357 18.0406Z" fill="#000814"/>
<path d="M7.34625 18.4098C7.66571 18.2142 8.16308 18.4202 8.18869 18.8092C8.22365 19.1058 7.91734 19.3221 7.64287 19.2851C7.41063 19.2526 7.18115 19.0826 7.15139 18.8383C7.1237 18.6701 7.21196 18.5064 7.34625 18.4098Z" fill="#000814"/>
<path d="M28.288 18.4755C28.3323 18.389 28.4372 18.3755 28.5241 18.3717C28.8148 18.4344 29.0363 18.6669 29.1709 18.922C29.2433 19.0691 29.2983 19.2522 29.2229 19.4087C29.1772 19.5049 29.0602 19.5125 28.9674 19.5132C28.6718 19.4291 28.4396 19.1906 28.314 18.9158C28.2558 18.7798 28.2143 18.6136 28.288 18.4755Z" fill="#000814"/>
<path d="M16.2992 18.7383C16.3384 18.6071 16.438 18.4856 16.5799 18.4655C16.8738 18.4157 17.1631 18.6282 17.2621 18.8982C17.3175 19.0525 17.3075 19.2512 17.1735 19.363C17.078 19.4495 16.9409 19.4478 16.8205 19.4405C16.5135 19.3616 16.2577 19.066 16.2992 18.7383Z" fill="#000814"/>
<path d="M23.5363 18.5575C23.5993 18.5253 23.6661 18.5015 23.7353 18.4835C23.8547 18.4852 23.9745 18.506 24.0835 18.5561C24.4473 18.7482 24.7384 19.1366 24.7138 19.5616C24.6885 19.6758 24.6269 19.7814 24.5265 19.8447C24.3023 19.9243 24.0627 19.8382 23.8786 19.7059C23.6433 19.5194 23.4609 19.2598 23.4089 18.9601C23.3968 18.815 23.4325 18.6641 23.5363 18.5575Z" fill="#000814"/>
<path d="M20.2687 18.5923C20.5802 18.5041 20.8865 18.7478 21.0011 19.025C21.0634 19.1693 21.0734 19.3597 20.9581 19.4812C20.8432 19.5888 20.665 19.5802 20.5293 19.5203C20.2908 19.4171 20.1015 19.1832 20.0814 18.9201C20.0672 18.7862 20.1358 18.638 20.2687 18.5923Z" fill="#000814"/>
<path d="M3.40945 18.8304C3.67319 18.7345 4.0553 18.8768 4.07849 19.1862C4.11102 19.4953 3.77183 19.7126 3.49078 19.6701C3.27827 19.6535 3.06091 19.4856 3.06333 19.2585C3.05433 19.0533 3.22324 18.8861 3.40945 18.8304Z" fill="#000814"/>
<path d="M26.9701 19.0614C27.0044 18.9832 27.1009 18.9905 27.1715 18.9957C27.3809 19.096 27.5588 19.3203 27.501 19.5643C27.3872 19.6609 27.229 19.6003 27.1355 19.5065C27.0172 19.3972 26.9126 19.2262 26.9701 19.0614Z" fill="#000814"/>
<path d="M18.2197 19.1729C18.6226 19.1193 18.9995 19.42 19.1345 19.7852C19.2138 19.9946 19.2041 20.2666 19.0231 20.4217C18.9033 20.5324 18.7292 20.5338 18.5769 20.5169C18.1619 20.4151 17.8158 20.0036 17.8639 19.5654C17.8812 19.3737 18.0332 19.2134 18.2197 19.1729Z" fill="#000814"/>
<path d="M29.7834 19.277C29.8817 19.2181 30.0004 19.2638 30.0938 19.3119C30.305 19.4338 30.4618 19.6401 30.5466 19.8671C30.585 19.9838 30.6082 20.126 30.5348 20.2347C30.4586 20.3309 30.3167 20.3036 30.2205 20.2561C29.9758 20.1329 29.7944 19.8979 29.7138 19.6387C29.6792 19.5207 29.6647 19.3528 29.7834 19.277Z" fill="#000814"/>
<path d="M25.214 19.4147C25.3559 19.3458 25.5221 19.3932 25.6543 19.4624C25.9094 19.6071 26.1056 19.8567 26.1814 20.1405C26.2174 20.2869 26.2191 20.4665 26.1053 20.5807C26.0208 20.6652 25.8914 20.6631 25.7813 20.6496C25.4875 20.5645 25.2559 20.3281 25.1292 20.0553C25.0576 19.9069 25.0313 19.7355 25.0714 19.5746C25.1078 19.513 25.1462 19.4455 25.214 19.4147Z" fill="#000814"/>
<path d="M4.80131 19.502C5.01175 19.3733 5.30145 19.3957 5.48627 19.5602C5.66037 19.7024 5.71194 19.9655 5.59564 20.1603C5.50635 20.2714 5.37794 20.3559 5.23257 20.3645C4.96571 20.396 4.67394 20.2181 4.62306 19.9457C4.58464 19.7768 4.66771 19.6045 4.80131 19.502Z" fill="#000814"/>
<path d="M21.8974 19.6593C21.9403 19.5953 21.9977 19.5306 22.0818 19.5302C22.2808 19.5199 22.4529 19.6697 22.5401 19.8383C22.5955 19.9546 22.6221 20.1172 22.5242 20.2193C22.4629 20.2875 22.3636 20.2709 22.2822 20.2702C22.0396 20.1809 21.8423 19.9258 21.8974 19.6593Z" fill="#000814"/>
<path d="M28.5357 19.8656C28.6219 19.8351 28.715 19.8801 28.7828 19.9334C28.9185 20.0449 29.032 20.2158 29.0037 20.3993C28.9888 20.4841 28.8877 20.5177 28.8147 20.4865C28.6485 20.4284 28.5246 20.2754 28.4734 20.1106C28.4533 20.0283 28.4429 19.9071 28.5357 19.8656Z" fill="#000814"/>
<path d="M19.9456 20.1633C20.2949 20.0924 20.6192 20.4153 20.6676 20.7455C20.7061 20.9272 20.5918 21.1487 20.3918 21.1588C20.0412 21.1761 19.7304 20.8466 19.7203 20.5043C19.7096 20.3585 19.7954 20.1973 19.9456 20.1633Z" fill="#000814"/>
<path d="M23.356 20.4709C23.3625 20.3387 23.4425 20.204 23.5723 20.1611C23.6834 20.1206 23.8028 20.1494 23.9122 20.1819C24.0956 20.2639 24.2469 20.4031 24.3628 20.5657C24.3891 20.6159 24.4178 20.6654 24.4445 20.7159C24.4995 20.8433 24.5175 20.9818 24.5196 21.1199C24.4881 21.2403 24.4227 21.3698 24.2936 21.4068C24.0939 21.4646 23.8862 21.3711 23.7336 21.2452C23.5072 21.0572 23.3359 20.7727 23.356 20.4709Z" fill="#000814"/>
<path d="M31.1376 20.3374C31.166 20.2789 31.1881 20.2007 31.2598 20.182C31.3584 20.1585 31.4574 20.2055 31.5377 20.2602C31.7689 20.4253 31.9243 20.6918 31.9485 20.976C31.9226 21.0383 31.9053 21.1248 31.8291 21.1445C31.7242 21.1753 31.619 21.1165 31.5356 21.058C31.3106 20.8881 31.1514 20.6223 31.1376 20.3374Z" fill="#000814"/>
<path d="M16.2836 20.2487C16.6051 20.1476 16.9481 20.4224 16.9889 20.7416C17.0242 20.9226 16.9197 21.1354 16.7297 21.1745C16.3839 21.2486 16.035 20.9167 16.0603 20.5706C16.0579 20.4304 16.1524 20.2968 16.2836 20.2487Z" fill="#000814"/>
<path d="M26.9348 20.4475C27.0207 20.4167 27.1145 20.4475 27.1923 20.4873C27.3834 20.5901 27.5243 20.7784 27.5807 20.9864C27.6094 21.0996 27.6118 21.2491 27.5063 21.3246C27.3958 21.3872 27.2633 21.3381 27.165 21.2754C26.9854 21.1543 26.8466 20.9619 26.8102 20.7462C26.7901 20.6355 26.8168 20.4908 26.9348 20.4475Z" fill="#000814"/>
<path d="M2.78443 20.4925C3.00871 20.4001 3.32229 20.4842 3.40432 20.7299C3.48081 20.9681 3.2946 21.2162 3.06651 21.2771C2.84361 21.354 2.54665 21.2515 2.4795 21.0103C2.41755 20.7888 2.57849 20.5638 2.78443 20.4925Z" fill="#000814"/>
<path d="M29.9837 20.7223C30.0827 20.6887 30.1852 20.7465 30.2585 20.8102C30.3966 20.9331 30.5088 21.1099 30.4953 21.3017C30.4939 21.3608 30.4537 21.4308 30.3883 21.4321C30.2803 21.4439 30.1852 21.375 30.1118 21.3044C30.0031 21.1909 29.9155 21.0462 29.9058 20.8863C29.901 20.8226 29.9273 20.7555 29.9837 20.7223Z" fill="#000814"/>
<path d="M17.5445 21.2914C17.584 21.091 17.7625 20.9418 17.964 20.9245C18.4074 20.9145 18.7936 21.3156 18.8179 21.7483C18.8296 21.9255 18.7621 22.1186 18.6088 22.219C18.5126 22.2875 18.3911 22.2996 18.2762 22.2965C17.8186 22.2321 17.4476 21.7517 17.5445 21.2914Z" fill="#000814"/>
<path d="M24.9578 21.453C24.9374 21.2602 25.007 21.0373 25.205 20.9664C25.3285 20.948 25.4548 20.967 25.5701 21.0152C25.9145 21.1872 26.1543 21.5319 26.2246 21.9078C26.245 22.0988 26.1845 22.321 25.991 22.4003C25.8646 22.4193 25.7349 22.4065 25.6179 22.3553C25.2728 22.1798 25.0236 21.8337 24.9578 21.453Z" fill="#000814"/>
<path d="M32.7103 21.251C32.8796 21.2437 33.0028 21.3777 33.0848 21.5099C33.1419 21.6117 33.1928 21.7342 33.1582 21.8522C33.1295 21.9325 33.0212 21.9166 32.964 21.8789C32.8097 21.7854 32.7027 21.6176 32.6692 21.4417C32.6519 21.3735 32.6795 21.3092 32.7103 21.251Z" fill="#000814"/>
<path d="M0.983515 21.4539C1.17492 21.3833 1.44177 21.4414 1.51895 21.6491C1.59821 21.9031 1.34659 22.1354 1.10673 22.1485C0.93056 22.1696 0.722199 22.0744 0.683088 21.8886C0.645015 21.6909 0.802843 21.5096 0.983515 21.4539Z" fill="#000814"/>
<path d="M31.3721 21.6239C31.4659 21.5533 31.5895 21.6212 31.6681 21.6855C31.8422 21.8371 31.9827 22.0666 31.9519 22.3051C31.9387 22.4165 31.8024 22.4331 31.72 22.3885C31.5272 22.2892 31.3957 22.0946 31.3372 21.8897C31.3209 21.8029 31.3029 21.6928 31.3721 21.6239Z" fill="#000814"/>
<path d="M26.805 21.9101C26.9597 21.8579 27.1248 21.9298 27.2522 22.0178C27.4896 22.1926 27.6648 22.458 27.7156 22.7501C27.7385 22.8844 27.7309 23.0402 27.6353 23.1464C27.5523 23.2389 27.4131 23.2454 27.302 23.2094C27.0739 23.1402 26.9023 22.9578 26.7718 22.7661C26.7521 22.7315 26.7327 22.6972 26.7133 22.6633C26.6344 22.4829 26.5783 22.2808 26.632 22.0853C26.6707 22.0119 26.7202 21.935 26.805 21.9101Z" fill="#000814"/>
<path d="M19.5473 21.9593C19.6553 21.9118 19.7792 21.9004 19.89 21.9475C20.179 22.0659 20.3808 22.4148 20.2707 22.7207C20.2091 22.8263 20.097 22.9055 19.9706 22.8945C19.6373 22.8713 19.3757 22.5265 19.413 22.2002C19.42 22.1036 19.4823 22.0254 19.5473 21.9593Z" fill="#000814"/>
<path d="M23.4545 22.1099C23.5867 22.0054 23.7743 22.0535 23.8872 22.1628C24.0432 22.302 24.1647 22.5353 24.0782 22.7429C24.0467 22.8253 23.9571 22.8513 23.8792 22.8668C23.5556 22.8125 23.2856 22.4179 23.4545 22.1099Z" fill="#000814"/>
<path d="M16.0078 22.1515C16.3314 22.0854 16.6374 22.4056 16.6163 22.7226C16.6146 22.9022 16.4633 23.0701 16.2806 23.0749C16.0054 23.0884 15.7662 22.8455 15.7382 22.58C15.7084 22.3976 15.8175 22.1889 16.0078 22.1515Z" fill="#000814"/>
<path d="M32.7622 22.5952C32.8404 22.5942 32.9273 22.5883 32.9889 22.6479C33.146 22.7811 33.2706 22.9898 33.2398 23.2016C33.2318 23.274 33.1508 23.2806 33.0944 23.2854C32.8615 23.1539 32.677 22.8666 32.7622 22.5952Z" fill="#000814"/>
<path d="M25.0377 22.6973C25.1433 22.6299 25.2755 22.6489 25.3901 22.6783C25.685 22.8012 25.9058 23.0667 26.0048 23.3671C26.0601 23.5308 26.0646 23.7132 26.002 23.8759C25.949 23.9499 25.8805 24.0233 25.7864 24.0385C25.6144 24.0693 25.4427 23.996 25.3101 23.8908C25.0689 23.6987 24.8965 23.4103 24.873 23.0999C24.8643 22.9524 24.9062 22.7818 25.0377 22.6973Z" fill="#000814"/>
<path d="M17.4057 22.9142C17.5185 22.8359 17.6608 22.8027 17.7958 22.8359C18.1716 22.919 18.4364 23.3343 18.3589 23.7102C18.3319 23.8473 18.236 23.9605 18.1159 24.028C17.6895 24.1761 17.2607 23.7635 17.2472 23.3468C17.2302 23.1862 17.2918 23.0266 17.4057 22.9142Z" fill="#000814"/>
<path d="M26.657 23.6364C26.784 23.5132 26.975 23.5173 27.1294 23.5834C27.4869 23.7638 27.724 24.1258 27.8144 24.5093C27.8455 24.7031 27.8296 24.9253 27.6797 25.0693C27.5735 25.1226 27.4527 25.1361 27.3378 25.1056C27.1827 25.053 27.0508 24.953 26.9328 24.8426C26.748 24.6384 26.6144 24.3902 26.5587 24.1199C26.5379 23.9534 26.5545 23.7752 26.657 23.6364Z" fill="#000814"/>
<path d="M34.2179 23.674C34.249 23.6353 34.3117 23.6599 34.349 23.6799C34.4788 23.7592 34.5581 23.8994 34.6083 24.0392C34.6318 24.1209 34.655 24.2223 34.6 24.297C34.5539 24.3358 34.4847 24.3043 34.4418 24.2752C34.3186 24.1828 34.2379 24.042 34.1957 23.8962C34.1801 23.8243 34.1594 23.7322 34.2179 23.674Z" fill="#000814"/>
<path d="M19.2041 23.7026C19.6699 23.551 20.0894 24.2549 19.726 24.5869C19.4837 24.7042 19.2089 24.5415 19.0995 24.3186C18.9909 24.1234 18.9888 23.8261 19.2041 23.7026Z" fill="#000814"/>
<path d="M15.4908 24.4287C15.605 24.2926 15.8071 24.2996 15.957 24.3664C16.0923 24.4564 16.1844 24.5955 16.2225 24.753C16.2211 24.8668 16.2194 24.9928 16.1439 25.0863C16.0595 25.2078 15.8947 25.2593 15.7552 25.2119C15.4385 25.1271 15.2741 24.6855 15.4908 24.4287Z" fill="#000814"/>
<path d="M28.4268 24.7402C28.5562 24.6737 28.7058 24.7381 28.812 24.8201C29.0176 24.9824 29.1581 25.2254 29.2004 25.484C29.2152 25.6144 29.2166 25.7778 29.1 25.8654C28.9813 25.9453 28.8286 25.883 28.7234 25.81C28.5002 25.6425 28.3448 25.3822 28.3067 25.106C28.2918 24.9769 28.306 24.8153 28.4268 24.7402Z" fill="#000814"/>
<path d="M25.0237 24.9732C25.0517 24.8749 25.1126 24.7645 25.2293 24.7631C25.4463 24.7613 25.6096 24.9493 25.6913 25.1334C25.7526 25.2788 25.782 25.4781 25.6574 25.5993C25.5712 25.6761 25.4501 25.6367 25.3559 25.601C25.1496 25.4633 25.0164 25.2231 25.0237 24.9732Z" fill="#000814"/>
<path d="M16.971 25.0835C17.1008 24.9437 17.3195 24.9298 17.4877 25.0018C17.7979 25.1413 17.9813 25.5137 17.9034 25.8442C17.8775 25.9616 17.8044 26.0626 17.7124 26.1384C17.5303 26.245 17.2922 26.2142 17.1298 26.0851C16.9873 25.9844 16.9038 25.8266 16.8436 25.6674C16.8038 25.4677 16.817 25.234 16.971 25.0835Z" fill="#000814"/>
<path d="M26.5584 25.7641C26.5791 25.6225 26.6882 25.5028 26.8328 25.4844C27 25.4955 27.1506 25.5807 27.27 25.6945C27.4683 25.897 27.5884 26.1656 27.6195 26.4463C27.6161 26.6027 27.5683 26.7716 27.4243 26.8551C27.199 26.9101 26.9879 26.7737 26.8463 26.6114C26.6463 26.3823 26.5102 26.0721 26.5584 25.7641Z" fill="#000814"/>
<path d="M18.5808 26.044C18.6012 25.9156 18.6978 25.7914 18.8321 25.7734C18.9594 25.7495 19.0764 25.8208 19.1775 25.8886C19.362 26.0856 19.4464 26.4255 19.2384 26.6369C19.1571 26.6785 19.0636 26.7096 18.9729 26.683C18.7026 26.6144 18.5344 26.3116 18.5808 26.044Z" fill="#000814"/>
<path d="M28.3281 26.5541C28.5043 26.4912 28.6853 26.576 28.8206 26.6877C29.0992 26.9539 29.2865 27.3367 29.2543 27.7278C29.2328 27.8597 29.1584 27.9853 29.0259 28.0293C28.8802 28.0327 28.7434 27.9743 28.631 27.8853C28.3409 27.6309 28.1495 27.2512 28.1637 26.8611C28.1769 26.741 28.2312 26.6282 28.3281 26.5541Z" fill="#000814"/>
<path d="M16.6114 27.4044C16.7696 27.3296 16.9696 27.3414 17.107 27.4545C17.4178 27.6806 17.4843 28.2143 17.1638 28.4614C17.0496 28.5189 16.9142 28.5403 16.7924 28.4946C16.3684 28.3413 16.2345 27.6781 16.6114 27.4044Z" fill="#000814"/>
<path d="M26.7607 27.5754C26.8628 27.5297 26.9812 27.5723 27.0684 27.6325C27.274 27.7862 27.3996 28.0378 27.4142 28.2929C27.4131 28.3999 27.3917 28.5252 27.2986 28.5923C27.1902 28.6598 27.0511 28.6145 26.9566 28.5438C26.7603 28.3967 26.6378 28.1583 26.6181 27.9153C26.6094 27.791 26.6354 27.6343 26.7607 27.5754Z" fill="#000814"/>
<path d="M28.2312 28.8144C28.2596 28.6735 28.3596 28.5486 28.5109 28.5389C28.6708 28.5641 28.8075 28.6586 28.9151 28.7767C29.0723 28.9625 29.1727 29.1885 29.2256 29.4256C29.2446 29.6163 29.2446 29.8482 29.073 29.9746C28.9809 29.996 28.8857 29.9891 28.7985 29.9548C28.4109 29.7288 28.19 29.2571 28.2312 28.8144Z" fill="#000814"/>
<path d="M16.2839 29.7978C16.5314 29.7383 16.7505 29.9602 16.7962 30.1889C16.8626 30.4271 16.7685 30.7441 16.5124 30.8223C16.2635 30.8947 16.033 30.669 15.988 30.4374C15.9271 30.1952 16.016 29.867 16.2839 29.7978Z" fill="#000814"/>
<path d="M29.7677 30.0406C29.8193 29.9184 29.9487 29.8668 30.074 29.899C30.3564 30.0299 30.5208 30.322 30.6129 30.6065C30.6783 30.8259 30.716 31.1014 30.5433 31.2828C30.4146 31.3305 30.2817 31.2779 30.1796 31.1983C29.8681 30.9142 29.6683 30.4621 29.7677 30.0406Z" fill="#000814"/>
<path d="M28.3616 30.6572C28.4773 30.5828 28.6192 30.6555 28.7067 30.741C28.8964 30.9307 29.003 31.2079 28.9774 31.4762C28.9677 31.5748 28.9095 31.6959 28.7967 31.7015C28.6839 31.708 28.5842 31.6378 28.5115 31.5582C28.3482 31.3786 28.2495 31.1345 28.2616 30.8902C28.2658 30.8047 28.2921 30.7123 28.3616 30.6572Z" fill="#000814"/>
<path d="M29.5531 32.2156C29.578 32.1225 29.6237 32.0322 29.7112 31.9841C29.9379 31.9647 30.0875 32.1616 30.1954 32.3319C30.301 32.5368 30.3699 32.7611 30.3716 32.9937C30.3571 33.1096 30.3152 33.2276 30.2138 33.2958C30.0207 33.3114 29.8815 33.1595 29.7749 33.02C29.623 32.7815 29.5313 32.5008 29.5531 32.2156Z" fill="#000814"/>
<path d="M30.5157 34.4667C30.5313 34.3473 30.5812 34.1898 30.7328 34.2051C30.9529 34.3217 31.0591 34.5626 31.1325 34.7883C31.1415 34.8253 31.1512 34.863 31.1619 34.9011C31.1775 35.0607 31.2111 35.2444 31.1142 35.3857C31.0702 35.4459 30.9913 35.4227 30.9304 35.4158C30.6431 35.1946 30.5292 34.816 30.5157 34.4667Z" fill="#000814"/>
</svg>
