<svg width="37" height="18" viewBox="0 0 37 18" fill="none" xmlns="http://www.w3.org/2000/svg">
<path d="M11.7878 0.530655C12.7045 0.0320857 13.8031 0.0233388 14.8003 0.236762C16.3974 0.604129 17.7129 1.68524 19.3049 2.06135C20.3003 2.2153 21.3096 2.08234 22.3103 2.0631C24.6579 1.97738 27.1018 1.95989 29.3113 2.87481C31.1411 3.57455 32.5966 5.06327 33.3331 6.86861C33.522 7.26747 33.3331 7.71356 33.424 8.12816C34.3477 9.37895 35.1017 10.7435 35.8067 12.1255C36.2685 13.0841 36.7548 14.0568 36.9402 15.1116C37.0207 15.6329 36.5431 15.9461 36.2388 16.282C35.8609 16.6563 35.5075 17.2091 34.8987 17.1601C33.5535 17.1496 32.2065 17.1951 30.8612 17.1322C30.9329 16.2487 31.8496 15.9671 32.5826 15.8324C32.4934 15.458 32.161 15.2306 31.8986 14.9804C29.6839 12.9179 26.675 11.9348 23.715 11.6146C22.4065 11.4939 21.077 11.4869 19.7772 11.7021C20.1201 13.0491 20.232 14.4416 20.3895 15.8184C20.4822 16.2277 20.2425 16.5951 20.0693 16.945C19.2629 17.2179 18.4074 17.1426 17.5712 17.1601C16.7123 17.1584 15.8516 17.1776 14.9927 17.1461C15.0154 16.3064 15.9426 15.9513 16.6458 15.8324C16.1438 12.9354 14.0515 10.4671 11.466 9.14454C10.0507 8.33983 8.43605 7.94622 6.81439 7.91998C6.74791 8.19638 6.67969 8.47278 6.60971 8.74918C6.0814 8.56725 5.76652 8.05993 5.2627 7.83426C4.6994 7.51588 4.03464 7.49314 3.41012 7.60335C3.02526 7.62434 2.62815 7.64708 2.26778 7.48439C2.26778 7.37593 2.27128 7.15901 2.27128 7.05055C2.66839 6.78289 3.13197 6.60446 3.4591 6.24584C2.82233 6.23009 2.27128 6.67793 1.63451 6.61146C1.31088 6.4855 1.11845 6.16362 0.878784 5.92745C0.878784 5.85573 0.880534 5.71578 0.880534 5.6458C1.64151 5.08251 2.43047 4.55595 3.21069 4.02064C3.66903 3.79322 3.50109 3.11797 3.96817 2.89055C4.61893 2.46196 5.18048 1.85143 5.94845 1.63451C5.62482 1.26889 5.85573 0.553397 6.39454 0.630369C6.97183 0.577888 7.30946 1.13244 7.78879 1.30388C9.14804 1.25839 10.5633 1.18842 11.7878 0.530655Z" fill="#000814"/>
<path d="M10.3358 9.53638C12.1149 10.2414 13.6316 11.5849 14.6952 13.1628C14.0585 14.5518 13.6981 16.2312 12.3651 17.1479C10.8484 17.1864 9.32816 17.2179 7.81146 17.1584C7.95316 16.2452 8.92231 15.9933 9.69028 15.8446C10.2938 14.9752 10.3008 13.8696 10.453 12.8584C10.537 11.7528 10.537 10.6297 10.3358 9.53638Z" fill="#000814"/>
<path d="M24.4815 12.5208C26.0857 12.8112 27.7423 13.1401 29.1366 14.0323C28.2427 15.0889 27.4537 16.2592 26.3586 17.1234C24.8594 17.1496 23.3514 17.2214 21.8557 17.0989C21.9677 16.8243 22.0656 16.5251 22.307 16.3327C22.7619 15.8429 23.6646 16.065 23.9689 15.3933C24.3835 14.4959 24.3048 13.476 24.4815 12.5208Z" fill="#000814"/>
</svg>
