<svg width="32" height="47" viewBox="0 0 32 47" fill="none" xmlns="http://www.w3.org/2000/svg">
<path d="M26.1831 -1.52588e-05C28.9235 -1.52588e-05 31.1458 2.22188 31.1458 4.96316V26.1831C31.1458 28.9235 28.9235 31.1458 26.1831 31.1458H4.96318C2.22235 31.1458 0 28.9235 0 26.1831V4.96316C0 2.22188 2.22235 -1.52588e-05 4.96318 -1.52588e-05H26.1831Z" fill="#000814"/>
<path d="M26.0739 20.9121C25.9821 20.6083 25.5428 20.3941 25.5428 20.3941C25.5013 20.3723 25.4641 20.3526 25.4335 20.3373C24.7014 19.9833 24.0523 19.5571 23.5059 19.0741C23.0667 18.6851 22.6908 18.2567 22.3892 17.8022C22.0198 17.2471 21.8472 16.7837 21.7729 16.5324C21.7313 16.3685 21.7379 16.3029 21.7729 16.2177C21.8013 16.1456 21.8865 16.0778 21.9258 16.045C22.1728 15.8702 22.5706 15.6123 22.8153 15.455C23.0273 15.3173 23.2087 15.1993 23.3158 15.125C23.6589 14.8846 23.8949 14.6398 24.0326 14.3753C24.2118 14.0344 24.2337 13.6585 24.0938 13.2892C23.9059 12.7909 23.4404 12.4937 22.8481 12.4937C22.717 12.4937 22.5815 12.509 22.446 12.5374C22.1072 12.6117 21.786 12.7319 21.5172 12.8368C21.4975 12.8455 21.4756 12.8302 21.4778 12.8084C21.5062 12.1418 21.539 11.2458 21.4647 10.3956C21.3991 9.62632 21.2396 8.97723 20.9817 8.4112C20.7216 7.84298 20.3829 7.42337 20.1185 7.11959C19.8671 6.8311 19.4235 6.40494 18.7547 6.02248C17.815 5.48485 16.7441 5.21167 15.5727 5.21167C14.4034 5.21167 13.3348 5.48485 12.3928 6.02248C11.6847 6.42679 11.2323 6.88355 11.0269 7.11959C10.7625 7.42337 10.4237 7.84298 10.1636 8.4112C9.90357 8.97723 9.74621 9.62413 9.68065 10.3956C9.60634 11.2501 9.63694 12.074 9.66754 12.8084C9.66754 12.8302 9.64787 12.8455 9.62601 12.8368C9.3572 12.7319 9.03593 12.6117 8.69719 12.5374C8.56387 12.509 8.42837 12.4937 8.29506 12.4937C7.70498 12.4937 7.23948 12.7909 7.04934 13.2892C6.90947 13.6585 6.93133 14.0344 7.11054 14.3753C7.25041 14.6398 7.48425 14.8846 7.82737 15.125C7.93227 15.1993 8.11585 15.3173 8.32784 15.455C8.56606 15.6101 8.95289 15.8615 9.20203 16.0341C9.23263 16.056 9.33753 16.1346 9.37031 16.2177C9.40528 16.3051 9.41184 16.3707 9.36594 16.5455C9.28945 16.799 9.1168 17.258 8.75401 17.8022C8.45241 18.2589 8.07651 18.6851 7.63723 19.0741C7.09087 19.5571 6.44178 19.9833 5.70965 20.3373C5.67468 20.3548 5.63316 20.3745 5.58945 20.4007C5.58945 20.4007 5.15235 20.6236 5.06931 20.9121C4.94692 21.3383 5.27256 21.7382 5.60256 21.9524C6.14456 22.302 6.80457 22.49 7.18703 22.5927C7.29412 22.6211 7.39028 22.6473 7.47769 22.6736C7.53233 22.6911 7.67002 22.7435 7.72902 22.82C7.80333 22.9162 7.81207 23.0342 7.8383 23.1675C7.87982 23.3926 7.9738 23.6701 8.25135 23.8625C8.55732 24.0723 8.94414 24.0876 9.43588 24.1072C9.94946 24.1269 10.5876 24.151 11.3198 24.3935C11.6585 24.505 11.9667 24.6951 12.3207 24.9137C13.0638 25.3704 13.9882 25.9387 15.5661 25.9387C17.1462 25.9387 18.0772 25.3683 18.8247 24.9093C19.1787 24.6929 19.4825 24.505 19.8147 24.3957C20.5468 24.1531 21.185 24.1291 21.6985 24.1094C22.1903 24.0898 22.5771 24.0766 22.8831 23.8647C23.1803 23.6592 23.2655 23.3533 23.3049 23.1238C23.3267 23.0101 23.3398 22.9074 23.4054 22.8244C23.4622 22.7523 23.589 22.702 23.648 22.6823C23.7376 22.6539 23.8381 22.6277 23.9496 22.5971C24.332 22.4944 24.8128 22.3742 25.3964 22.0442C26.1001 21.6442 26.1482 21.1547 26.0739 20.9121Z" fill="white"/>
<path d="M26.6814 20.676C26.5263 20.252 26.2291 20.0269 25.8925 19.839C25.8291 19.8018 25.7701 19.7712 25.722 19.7494C25.6215 19.6969 25.5188 19.6466 25.4161 19.5942C24.3648 19.0369 23.5431 18.3332 22.9749 17.5005C22.7826 17.2186 22.6493 16.9651 22.5553 16.7574C22.5072 16.6176 22.5094 16.5389 22.5443 16.4668C22.5706 16.4121 22.6405 16.3553 22.6798 16.3269C22.8612 16.2067 23.047 16.0865 23.1738 16.0056C23.3989 15.8592 23.5781 15.7434 23.6917 15.6647C24.1244 15.3631 24.426 15.0419 24.614 14.6834C24.8806 14.1786 24.9134 13.6016 24.708 13.0596C24.4239 12.3078 23.7114 11.8401 22.8503 11.8401C22.6711 11.8401 22.4897 11.8598 22.3105 11.8991C22.2624 11.9101 22.2165 11.921 22.1706 11.9319C22.1794 11.4205 22.1663 10.8742 22.1204 10.3409C21.9586 8.4614 21.3008 7.47576 20.6146 6.69117C20.3283 6.36335 19.83 5.88473 19.0826 5.45638C18.0401 4.85756 16.8599 4.55597 15.5727 4.55597C14.2898 4.55597 13.1097 4.85756 12.0672 5.4542C11.3154 5.88255 10.8171 6.36335 10.533 6.68899C9.84677 7.47357 9.18895 8.45922 9.02722 10.3387C8.98133 10.872 8.9704 11.4183 8.97695 11.9297C8.93106 11.9188 8.88298 11.9079 8.83709 11.897C8.65788 11.8576 8.4743 11.838 8.29727 11.838C7.4362 11.838 6.72374 12.3056 6.43962 13.0574C6.23419 13.5994 6.26697 14.1764 6.5336 14.6813C6.72155 15.0397 7.02533 15.3609 7.45587 15.6625C7.5717 15.7434 7.74872 15.8592 7.97382 16.0035C8.09621 16.0821 8.27323 16.198 8.44807 16.3138C8.4743 16.3313 8.56827 16.4012 8.60105 16.4668C8.63821 16.5411 8.63821 16.6219 8.58357 16.7706C8.49178 16.9738 8.35847 17.2229 8.17052 17.4983C7.61322 18.3135 6.81553 19.0041 5.79928 19.5548C5.25947 19.8411 4.69999 20.0313 4.46396 20.6738C4.28475 21.159 4.40277 21.7119 4.85516 22.1774C5.00377 22.337 5.19172 22.479 5.42775 22.6101C5.98286 22.9161 6.45492 23.0669 6.82645 23.1696C6.89202 23.1893 7.04281 23.2374 7.10838 23.2964C7.27447 23.4406 7.25043 23.6592 7.47117 23.9782C7.60448 24.1771 7.75746 24.3126 7.88422 24.4C8.34535 24.7191 8.8655 24.7388 9.41623 24.7606C9.91234 24.7803 10.4762 24.8022 11.1187 25.0142C11.3853 25.1016 11.6629 25.272 11.982 25.4687C12.7513 25.943 13.8068 26.5899 15.5705 26.5899C17.3364 26.5899 18.3963 25.9386 19.1722 25.4644C19.4913 25.2698 19.7666 25.0994 20.0245 25.0142C20.667 24.8022 21.2309 24.7803 21.727 24.7606C22.2777 24.7388 22.7957 24.7191 23.259 24.4C23.4032 24.2995 23.5868 24.1356 23.7311 23.8864C23.8884 23.6176 23.8862 23.4275 24.0348 23.2986C24.096 23.2461 24.2293 23.2002 24.3015 23.1784C24.6752 23.0756 25.1538 22.9248 25.7198 22.6123C25.9712 22.4746 26.1657 22.3238 26.3208 22.1512C26.323 22.149 26.3252 22.1468 26.3274 22.1446C26.7492 21.6857 26.8563 21.1502 26.6814 20.676ZM25.1145 21.5174C24.1572 22.0463 23.5213 21.9895 23.0273 22.3064C22.6077 22.5774 22.8547 23.1609 22.5509 23.3707C22.175 23.6307 21.067 23.3532 19.6355 23.8253C18.4553 24.2165 17.7013 25.3376 15.5749 25.3376C13.4441 25.3376 12.7119 24.2208 11.5143 23.8253C10.0828 23.3532 8.97258 23.6307 8.59887 23.3707C8.29509 23.1609 8.54205 22.5774 8.12244 22.3064C7.62852 21.9873 6.99255 22.0441 6.03531 21.5174C5.42557 21.1808 5.77087 20.9732 5.97412 20.8749C9.44027 19.1986 9.99101 16.6066 10.0172 16.4121C10.0478 16.1805 10.0806 15.9969 9.82492 15.7587C9.57796 15.5292 8.47867 14.8495 8.17489 14.6375C7.67004 14.2857 7.44931 13.9338 7.61322 13.5011C7.72687 13.2017 8.00661 13.0902 8.30165 13.0902C8.39343 13.0902 8.48741 13.1012 8.57701 13.1208C9.12994 13.241 9.66756 13.5186 9.9779 13.5929C10.0216 13.6038 10.0588 13.6082 10.0915 13.6082C10.2576 13.6082 10.3145 13.5251 10.3035 13.335C10.2686 12.7296 10.1811 11.5495 10.2773 10.4458C10.4084 8.92909 10.898 8.17729 11.4793 7.51072C11.7591 7.19165 13.0703 5.80606 15.5771 5.80606C18.0904 5.80606 19.3951 7.19165 19.6748 7.51072C20.2562 8.17511 20.7457 8.92691 20.8768 10.4458C20.973 11.5495 20.8899 12.7296 20.8506 13.335C20.8375 13.5339 20.8987 13.6082 21.0626 13.6082C21.0954 13.6082 21.1347 13.6038 21.1762 13.5929C21.4866 13.5186 22.0242 13.241 22.5771 13.1208C22.6667 13.1012 22.7607 13.0902 22.8525 13.0902C23.1475 13.0902 23.4273 13.2039 23.5409 13.5011C23.7048 13.9338 23.4819 14.2857 22.9793 14.6375C22.6755 14.8495 21.5762 15.5292 21.3292 15.7587C21.0735 15.9947 21.1063 16.1783 21.1369 16.4121C21.1609 16.6066 21.7139 19.1986 25.18 20.8749C25.3767 20.9732 25.7242 21.1808 25.1145 21.5174Z" fill="#000814"/>
<path d="M12.9747 43L11.5636 40.8785L10.3204 43H8.40611L10.6262 39.4774L8.35677 36.0732H10.3204L11.7116 38.165L12.9352 36.0732H14.8494L12.649 39.5662L14.9382 43H12.9747ZM15.5583 41.6482C15.782 41.4706 15.884 41.3883 15.8642 41.4015C16.5089 40.8687 17.0154 40.4312 17.3838 40.0892C17.7587 39.7471 18.0745 39.3886 18.331 39.0136C18.5876 38.6387 18.7159 38.2736 18.7159 37.9184C18.7159 37.6486 18.6534 37.4381 18.5284 37.2868C18.4034 37.1355 18.2159 37.0599 17.966 37.0599C17.716 37.0599 17.5186 37.1553 17.3739 37.3461C17.2358 37.5302 17.1667 37.7934 17.1667 38.1354H15.5386C15.5518 37.5763 15.6702 37.1092 15.8938 36.7343C16.1241 36.3593 16.4234 36.083 16.7918 35.9054C17.1667 35.7278 17.5811 35.639 18.035 35.639C18.8178 35.639 19.4066 35.8396 19.8013 36.2409C20.2025 36.6422 20.4032 37.1652 20.4032 37.8098C20.4032 38.5137 20.1631 39.1682 19.6829 39.7734C19.2027 40.372 18.5909 40.9575 17.8475 41.5298H20.5117V42.9013H15.5583V41.6482Z" fill="black"/>
</svg>
