<svg width="39" height="20" viewBox="0 0 39 20" fill="none" xmlns="http://www.w3.org/2000/svg">
<path d="M14.6711 0.129698C15.9727 0.129394 17.2746 0.129698 18.5766 0.129395C18.5775 1.46169 18.5763 2.79429 18.5772 4.12658C19.8788 4.12658 21.1807 4.12628 22.4823 4.12689C22.4826 5.3902 22.4826 6.65381 22.4823 7.91743C21.1804 7.91773 19.8788 7.91773 18.5769 7.91743C18.5766 6.65442 18.5772 5.39111 18.5766 4.1278C17.2746 4.12567 15.9727 4.12841 14.6708 4.12658C14.6708 2.79429 14.6708 1.46199 14.6711 0.129698Z" fill="#000814"/>
<path d="M3.54783 4.18534C4.70964 3.71217 5.99696 3.59365 7.23687 3.74378C8.39989 3.88843 9.54651 4.30386 10.471 5.03565C11.1642 5.58419 11.7328 6.31841 11.9877 7.17237C12.0573 7.40577 12.1047 7.64585 12.1272 7.88836C11.032 8.133 9.93793 8.3822 8.84298 8.62744C8.78402 8.16977 8.58011 7.73094 8.26192 7.39604C7.79058 6.93442 7.12838 6.7144 6.47925 6.67975C5.97933 6.65635 5.46514 6.70741 5.00139 6.90585C4.67348 7.04777 4.37049 7.28451 4.21884 7.61515C4.05626 7.96433 4.06841 8.40225 4.28996 8.72347C4.47473 8.99547 4.76829 9.17142 5.07067 9.28508C5.29495 9.37078 5.53139 9.41728 5.76691 9.46134C6.48138 9.60114 7.19645 9.74002 7.91122 9.87981C8.73631 10.0418 9.54468 10.3278 10.2567 10.7803C10.9812 11.2385 11.6057 11.8825 11.9528 12.6739C12.4402 13.7749 12.4135 15.0801 11.9312 16.1781C11.6905 16.7185 11.3371 17.2087 10.8986 17.6059C10.099 18.3279 9.0779 18.7698 8.02823 18.9789C6.80807 19.2162 5.53351 19.1943 4.32673 18.8904C3.22266 18.6069 2.16327 18.066 1.37404 17.2314C0.680846 16.541 0.195822 15.6211 0.11377 14.638C1.2382 14.3909 2.36263 14.1441 3.48705 13.8977C3.51319 14.3955 3.71164 14.8878 4.06416 15.2439C4.50177 15.715 5.12295 15.9806 5.75111 16.0736C6.2726 16.1468 6.8108 16.1341 7.32348 16.0076C7.71278 15.9083 8.10268 15.7165 8.33638 15.3774C8.55306 15.0631 8.59773 14.6489 8.49319 14.2864C8.41327 14.0128 8.20905 13.7931 7.9714 13.6448C7.64653 13.4433 7.27577 13.3327 6.90653 13.2443C6.16654 13.068 5.42593 12.8936 4.68594 12.7173C3.87058 12.5231 3.06919 12.2338 2.36019 11.7807C1.88824 11.4762 1.45609 11.0981 1.13791 10.6323C0.721569 10.0315 0.520083 9.29997 0.501545 8.57365C0.467205 7.65071 0.728558 6.71652 1.25613 5.95677C1.80923 5.14263 2.64586 4.5561 3.54783 4.18534Z" fill="#000814"/>
<path d="M28.484 4.16381C29.5559 3.76418 30.7158 3.62104 31.8549 3.70553C33.1458 3.79366 34.4258 4.19511 35.4947 4.93298C35.9134 5.22442 36.3106 5.55324 36.6407 5.94405C37.3004 6.70745 37.7909 7.61975 38.0453 8.5974C36.8716 8.99368 35.6971 9.38753 34.5231 9.78321C34.3569 9.25534 34.115 8.74084 33.7424 8.32632C33.3045 7.83127 32.6918 7.50275 32.0421 7.39C31.0067 7.20371 29.8783 7.41006 29.0374 8.06162C28.2324 8.67368 27.7762 9.65436 27.6507 10.642C27.5085 11.7659 27.6562 12.972 28.2822 13.9381C28.7511 14.6784 29.53 15.1935 30.3733 15.4066C31.1173 15.5926 31.9202 15.5658 32.6429 15.3048C33.6284 14.9449 34.4006 14.0804 34.6708 13.0693C35.825 13.4537 36.9798 13.8381 38.1337 14.2238C37.8481 15.2634 37.305 16.2314 36.5595 17.0109C35.8669 17.7466 35.0014 18.3164 34.0545 18.6674C32.8304 19.1236 31.4911 19.2339 30.2004 19.0628C28.8478 18.8795 27.538 18.3416 26.4746 17.4813C25.755 16.8996 25.1496 16.1788 24.6898 15.3762C24.1398 14.4162 23.8085 13.3349 23.7043 12.2342C23.5845 10.9557 23.7374 9.64524 24.1954 8.44301C24.557 7.48968 25.1128 6.61111 25.8212 5.8778C26.5676 5.11896 27.4857 4.53183 28.484 4.16381Z" fill="#000814"/>
<path d="M14.6707 7.91725C15.9727 7.91634 17.2746 7.91695 18.5768 7.91695C18.5768 9.60328 18.5768 11.2899 18.5768 12.9766C18.5838 13.382 18.5564 13.7895 18.6075 14.1928C18.6555 14.5398 18.7597 14.8996 19.0083 15.1583C19.3459 15.4856 19.8243 15.6159 20.2835 15.6384C21.0511 15.6773 21.8501 15.502 22.4828 15.0522C22.4819 16.1186 22.4828 17.1847 22.4822 18.251C22.1449 18.5361 21.7334 18.7169 21.3173 18.8537C20.5916 19.0849 19.8231 19.1631 19.0639 19.1324C18.0325 19.0925 16.9783 18.8114 16.158 18.1629C15.3989 17.5721 14.94 16.6632 14.768 15.729C14.6373 15.0726 14.6768 14.4006 14.6707 13.7354C14.6707 11.7959 14.6707 9.85674 14.6707 7.91725Z" fill="#000814"/>
</svg>
