<svg width="35" height="46" viewBox="0 0 35 46" fill="none" xmlns="http://www.w3.org/2000/svg">
<path d="M12.1068 0.451531C12.0718 0.340775 12.2047 0.330045 12.2809 0.330391C12.4058 0.370886 12.5238 0.433879 12.6104 0.535291C12.5979 0.600014 12.5564 0.668891 12.4795 0.656085C12.3383 0.64051 12.1781 0.583055 12.1068 0.451531Z" fill="#000814"/>
<path d="M2.66686 1.24303C2.8991 1.17588 3.18949 1.19353 3.3667 1.37455C3.43731 1.44758 3.38297 1.54484 3.3089 1.5881C3.12165 1.64729 2.91329 1.63448 2.73505 1.5528C2.66063 1.51507 2.57722 1.46039 2.56683 1.37005C2.57203 1.31052 2.6236 1.27591 2.66686 1.24303Z" fill="#000814"/>
<path d="M13.0122 1.24132C13.1191 1.16795 13.2579 1.22783 13.3635 1.27697C13.4573 1.3237 13.5805 1.41888 13.5192 1.5376C13.3839 1.60578 13.2267 1.53379 13.1084 1.46111C13.0378 1.41819 12.9523 1.32439 13.0122 1.24132Z" fill="#000814"/>
<path d="M20.8813 1.28741C21.044 1.29745 21.1935 1.38606 21.2998 1.5065C21.3313 1.54042 21.3233 1.59165 21.3333 1.63388C21.1797 1.6446 21.0422 1.55635 20.9318 1.45874C20.8803 1.41755 20.8647 1.34972 20.8813 1.28741Z" fill="#000814"/>
<path d="M4.46987 1.77097C4.7298 1.74398 5.02504 1.80662 5.1936 2.02156C5.24205 2.16624 5.11018 2.26107 4.98489 2.28426C4.71007 2.31784 4.39822 2.25173 4.22171 2.02225C4.20786 1.87273 4.33973 1.79105 4.46987 1.77097Z" fill="#000814"/>
<path d="M12.6655 1.76372C12.8032 1.73049 12.9476 1.77653 13.067 1.8454C13.1449 1.8904 13.2248 1.9572 13.2324 2.05342C13.2148 2.12576 13.1362 2.15656 13.0684 2.15137C12.9109 2.14029 12.752 2.07626 12.6413 1.9617C12.5817 1.91013 12.5748 1.78449 12.6655 1.76372Z" fill="#000814"/>
<path d="M20.739 1.80265C20.81 1.794 20.8865 1.78154 20.9526 1.81753C21.0969 1.8871 21.2693 1.97813 21.2859 2.15707C21.2644 2.16434 21.2222 2.17888 21.2011 2.18614C21.0121 2.11761 20.784 2.02278 20.739 1.80265Z" fill="#000814"/>
<path d="M13.8736 2.24149C13.9968 2.19061 14.1363 2.23976 14.2505 2.29445C14.3339 2.34048 14.4332 2.40382 14.444 2.508C14.4416 2.59522 14.3433 2.6198 14.2723 2.61114C14.1259 2.5928 13.9781 2.53327 13.8767 2.42355C13.8307 2.37682 13.8095 2.28199 13.8736 2.24149Z" fill="#000814"/>
<path d="M5.90955 2.40509C6.0075 2.33172 6.12622 2.29607 6.24701 2.28638C6.4481 2.29538 6.65404 2.33518 6.82468 2.44767C6.93751 2.51274 7.0275 2.62176 7.03754 2.75571C6.99773 2.87927 6.87452 2.93603 6.75545 2.95749C6.46368 2.97618 6.14041 2.90315 5.93897 2.67783C5.86698 2.60376 5.86559 2.4937 5.90955 2.40509Z" fill="#000814"/>
<path d="M20.6315 2.32629C20.8163 2.2716 20.9894 2.40139 21.1271 2.50938C21.1925 2.5651 21.287 2.68348 21.1984 2.75754C21.0382 2.77381 20.8952 2.67655 20.771 2.5876C20.6844 2.52842 20.6249 2.43427 20.6315 2.32629Z" fill="#000814"/>
<path d="M19.7688 2.66129C19.7324 2.62011 19.7158 2.53704 19.784 2.51904C19.8646 2.50554 19.9425 2.55088 20.0131 2.58584C20.1149 2.64606 20.2412 2.7364 20.2069 2.87346C20.037 2.88038 19.8747 2.7897 19.7688 2.66129Z" fill="#000814"/>
<path d="M13.3932 2.91176C13.4209 2.84461 13.4707 2.78404 13.5489 2.78093C13.7542 2.75947 13.9629 2.8453 14.1148 2.98098C14.192 3.04328 14.2256 3.14296 14.1951 3.23918C14.1079 3.28349 14.0082 3.30841 13.911 3.28591C13.6981 3.24472 13.4662 3.13154 13.3932 2.91176Z" fill="#000814"/>
<path d="M20.5926 2.84016C20.7283 2.83739 20.8519 2.91354 20.9623 2.98518C21.0568 3.05683 21.1717 3.14024 21.1765 3.27107C21.1468 3.37318 21.0232 3.33926 20.9488 3.31434C20.7951 3.25273 20.6408 3.16516 20.5456 3.02637C20.4992 2.96822 20.4943 2.84224 20.5926 2.84016Z" fill="#000814"/>
<path d="M7.43609 3.01704C7.50012 2.93016 7.5953 2.86682 7.70398 2.85402C7.99956 2.81179 8.31107 2.89936 8.54539 3.08349C8.64922 3.16829 8.75409 3.29566 8.71983 3.43895C8.68833 3.55732 8.56304 3.60474 8.45678 3.63451C8.1342 3.66842 7.79155 3.57082 7.551 3.34931C7.45686 3.26659 7.4129 3.1406 7.43609 3.01704Z" fill="#000814"/>
<path d="M19.5654 3.01019C19.7316 2.98492 19.888 3.0756 20.0074 3.18255C20.0659 3.23793 20.1317 3.3383 20.0514 3.40476C19.9929 3.40857 19.9351 3.39991 19.8783 3.38988C19.7478 3.32065 19.6104 3.24451 19.5457 3.10433C19.5506 3.0808 19.5606 3.03372 19.5654 3.01019Z" fill="#000814"/>
<path d="M5.45279 3.38307C5.54139 3.25846 5.7006 3.23078 5.84355 3.2287C6.04222 3.25189 6.26373 3.3045 6.38833 3.47513C6.43506 3.53328 6.42294 3.61046 6.41152 3.6783C6.23847 3.83475 5.97923 3.81502 5.77294 3.74476C5.6165 3.68868 5.43029 3.5762 5.45279 3.38307Z" fill="#000814"/>
<path d="M14.8797 3.39215C15.0144 3.35407 15.1532 3.42364 15.2663 3.49217C15.3615 3.55897 15.4778 3.65519 15.4526 3.78603C15.4093 3.88744 15.2764 3.86217 15.1912 3.84071C15.0434 3.78949 14.8867 3.70365 14.8199 3.55517C14.7856 3.4946 14.8154 3.41707 14.8797 3.39215Z" fill="#000814"/>
<path d="M20.414 3.42162C20.4791 3.38666 20.5594 3.41435 20.6269 3.43269C20.7889 3.49326 20.9439 3.58602 21.0582 3.71789C21.1104 3.78331 21.1654 3.88818 21.0955 3.96121C21.0222 4.00966 20.9308 3.97782 20.8557 3.95256C20.6857 3.88576 20.5227 3.78434 20.4127 3.63655C20.3683 3.57598 20.3362 3.46938 20.414 3.42162Z" fill="#000814"/>
<path d="M21.4968 3.42788C21.5248 3.38531 21.594 3.413 21.6359 3.42235C21.7622 3.47599 21.9076 3.5511 21.9533 3.69024C21.9574 3.80826 21.8058 3.75808 21.7428 3.72416C21.6345 3.66497 21.4597 3.57394 21.4968 3.42788Z" fill="#000814"/>
<path d="M13.1816 3.49585C13.3488 3.44151 13.5291 3.50865 13.6717 3.59795C13.7479 3.65125 13.8316 3.72359 13.8375 3.82293C13.8496 3.90599 13.7617 3.95618 13.6901 3.95964C13.4897 3.97625 13.281 3.89042 13.1487 3.73951C13.0816 3.67029 13.0709 3.527 13.1816 3.49585Z" fill="#000814"/>
<path d="M19.4154 3.50025C19.5289 3.45595 19.6487 3.52586 19.747 3.57985C19.8428 3.64527 19.965 3.72799 19.9619 3.85778C19.9436 3.94051 19.8432 3.93393 19.7805 3.91386C19.6383 3.87163 19.5023 3.79064 19.4136 3.6695C19.379 3.62312 19.3562 3.53382 19.4154 3.50025Z" fill="#000814"/>
<path d="M9.3761 3.60469C9.59865 3.55277 9.83574 3.62373 10.0219 3.74868C10.1258 3.82205 10.2327 3.92969 10.2262 4.06675C10.2199 4.17163 10.1116 4.22908 10.0188 4.24223C9.80528 4.27096 9.58723 4.20416 9.41036 4.08614C9.31034 4.01657 9.21585 3.91827 9.20477 3.7909C9.20616 3.69503 9.28888 3.62615 9.3761 3.60469Z" fill="#000814"/>
<path d="M6.94745 4.00087C6.97237 3.75097 7.26933 3.71186 7.46939 3.72467C7.6909 3.75962 7.92072 3.83127 8.07647 4.0019C8.1495 4.06974 8.17096 4.17012 8.17615 4.26599C8.12804 4.37155 8.02525 4.42936 7.91865 4.45981C7.68294 4.49858 7.44308 4.44251 7.23057 4.34006C7.10597 4.25665 6.98344 4.1535 6.94745 4.00087Z" fill="#000814"/>
<path d="M14.5345 3.98492C14.6754 3.94235 14.8259 3.98735 14.954 4.0493C15.0907 4.12129 15.224 4.22097 15.2918 4.36392C15.3264 4.43487 15.3233 4.53871 15.2461 4.57955C15.134 4.64047 14.998 4.60516 14.8844 4.5664C14.7096 4.49544 14.5328 4.38053 14.4549 4.20125C14.4154 4.1206 14.4456 4.01469 14.5345 3.98492Z" fill="#000814"/>
<path d="M20.2504 4.03016C20.3033 3.95921 20.3992 3.97859 20.4754 3.97824C20.7384 4.06304 21.0233 4.23264 21.0831 4.52406C20.9291 4.66874 20.709 4.55521 20.5574 4.46522C20.4131 4.36485 20.223 4.22883 20.2504 4.03016Z" fill="#000814"/>
<path d="M21.4419 4.02563C21.5329 3.98825 21.626 4.03982 21.7067 4.07997C21.8039 4.13465 21.9067 4.20422 21.9476 4.31325C21.9714 4.36759 21.9261 4.44235 21.861 4.42124C21.7267 4.4067 21.6084 4.32848 21.5094 4.24091C21.4561 4.18657 21.3917 4.10247 21.4419 4.02563Z" fill="#000814"/>
<path d="M19.1669 4.1419C19.1766 4.04603 19.287 4.0443 19.3601 4.06022C19.5186 4.10037 19.666 4.19174 19.7723 4.31634C19.827 4.37103 19.82 4.45167 19.827 4.52263C19.6643 4.59427 19.4944 4.50705 19.3604 4.41637C19.2711 4.34888 19.1697 4.26304 19.1669 4.1419Z" fill="#000814"/>
<path d="M10.9333 4.22592C11.1344 4.183 11.3473 4.25637 11.5089 4.37682C11.6003 4.45054 11.6972 4.55992 11.6678 4.68694C11.6345 4.77624 11.5335 4.81154 11.4459 4.81708C11.2361 4.82539 11.0254 4.74093 10.8752 4.59522C10.809 4.53084 10.764 4.43739 10.7831 4.34394C10.8097 4.28233 10.8682 4.23976 10.9333 4.22592Z" fill="#000814"/>
<path d="M8.58909 4.53462C8.6545 4.41106 8.78776 4.34979 8.9224 4.33872C9.15741 4.33145 9.39692 4.39202 9.59005 4.52873C9.7188 4.61457 9.82091 4.74713 9.82991 4.90634C9.79357 5.04756 9.65685 5.11471 9.52463 5.1372C9.22248 5.15866 8.9044 5.05725 8.69258 4.83608C8.61089 4.75786 8.58182 4.64468 8.58909 4.53462Z" fill="#000814"/>
<path d="M20.1764 4.571C20.3322 4.52462 20.4934 4.5935 20.6281 4.66964C20.7824 4.76379 20.9424 4.88562 20.996 5.06664C21.0258 5.14417 20.9624 5.22481 20.8846 5.23173C20.7087 5.24558 20.5429 5.16113 20.4014 5.0656C20.2792 4.97838 20.1567 4.86935 20.1155 4.71948C20.0937 4.66411 20.1234 4.59592 20.1764 4.571Z" fill="#000814"/>
<path d="M21.3716 4.65688C21.3993 4.6105 21.456 4.59181 21.5073 4.60947C21.6599 4.64338 21.8025 4.73164 21.8987 4.85521C21.9375 4.90816 21.9773 5.01788 21.8901 5.04661C21.7935 5.06253 21.7021 5.01096 21.6156 4.97635C21.5512 4.92512 21.4861 4.87459 21.4228 4.82267C21.3986 4.76972 21.3744 4.71538 21.3716 4.65688Z" fill="#000814"/>
<path d="M15.7806 4.79056C15.7713 4.69469 15.873 4.66631 15.9471 4.6535C16.2171 4.68154 16.539 4.8591 16.5556 5.15987C16.4351 5.30281 16.2264 5.23498 16.0859 5.16056C15.9471 5.08095 15.7917 4.96362 15.7806 4.79056Z" fill="#000814"/>
<path d="M18.962 4.72518C19.0035 4.62688 19.1298 4.64661 19.2125 4.67257C19.3846 4.73037 19.5583 4.83247 19.6462 4.99723C19.6795 5.05364 19.659 5.11802 19.6435 5.17651C19.4593 5.23881 19.2721 5.13706 19.1278 5.02872C19.0385 4.955 18.9315 4.8529 18.962 4.72518Z" fill="#000814"/>
<path d="M14.1463 4.73593C14.3463 4.67017 14.5651 4.74355 14.7374 4.8505C14.8669 4.93391 15.0015 5.04674 15.0306 5.20596C15.0559 5.29871 14.9856 5.39043 14.8977 5.41328C14.7475 5.4562 14.5886 5.41086 14.4495 5.35167C14.2937 5.27691 14.1407 5.16858 14.0642 5.00936C14.0158 4.91418 14.0359 4.77608 14.1463 4.73593Z" fill="#000814"/>
<path d="M10.1512 5.09024C10.236 4.99644 10.3565 4.95041 10.48 4.93726C10.8147 4.9338 11.1667 5.0712 11.3688 5.34602C11.4464 5.44501 11.4554 5.57895 11.4145 5.6949C11.3287 5.78247 11.2124 5.82677 11.0926 5.84166C10.7659 5.84339 10.4274 5.71463 10.2166 5.45885C10.1304 5.35744 10.1017 5.21519 10.1512 5.09024Z" fill="#000814"/>
<path d="M12.3813 5.07436C12.3834 4.9951 12.4651 4.96395 12.5256 4.93523C12.7243 4.92346 12.9257 4.99406 13.0673 5.13528C13.1476 5.20312 13.1653 5.30868 13.167 5.40802C12.9957 5.54369 12.7544 5.48347 12.5852 5.37514C12.4827 5.30868 12.373 5.20727 12.3813 5.07436Z" fill="#000814"/>
<path d="M19.9938 5.25288C20.0745 5.17189 20.2008 5.19543 20.2995 5.22173C20.5289 5.2913 20.7401 5.43667 20.8733 5.63742C20.9218 5.70387 20.9218 5.78763 20.9273 5.8662C20.8159 5.98007 20.6452 5.94719 20.5127 5.89389C20.3147 5.81186 20.1264 5.6831 20.0125 5.49828C19.971 5.42629 19.9329 5.32522 19.9938 5.25288Z" fill="#000814"/>
<path d="M8.22441 5.38215C8.32755 5.28247 8.48261 5.29112 8.61517 5.29146C8.83634 5.33334 9.05647 5.44133 9.16411 5.649C9.1911 5.78952 9.08346 5.91101 8.94813 5.9297C8.6972 5.97504 8.42135 5.8847 8.24725 5.6978C8.16972 5.61508 8.13407 5.46937 8.22441 5.38215Z" fill="#000814"/>
<path d="M21.3466 5.28829C21.5341 5.2426 21.7148 5.37274 21.8474 5.49388C21.9204 5.56033 22.0038 5.7102 21.8906 5.777C21.6954 5.79396 21.5158 5.67351 21.3836 5.54095C21.3272 5.47692 21.258 5.35336 21.3466 5.28829Z" fill="#000814"/>
<path d="M18.7276 5.35799C18.8723 5.29362 19.035 5.32373 19.1686 5.39987C19.3112 5.48156 19.4617 5.59474 19.5012 5.76295C19.5296 5.84463 19.4524 5.89551 19.3901 5.92458C19.2548 5.91939 19.1205 5.88374 19.0073 5.80863C18.8512 5.71276 18.6895 5.55943 18.7276 5.35799Z" fill="#000814"/>
<path d="M15.4932 5.35631C15.722 5.29089 15.9629 5.38538 16.1543 5.51033C16.2976 5.61347 16.445 5.74811 16.472 5.93189C16.489 6.04473 16.3903 6.13991 16.2831 6.15029C16.0698 6.18213 15.8563 6.09457 15.6812 5.97897C15.5389 5.87478 15.387 5.74153 15.3658 5.55567C15.3534 5.46845 15.4129 5.38573 15.4932 5.35631Z" fill="#000814"/>
<path d="M11.8652 5.64013C12.0753 5.56606 12.3069 5.61555 12.5076 5.69689C12.7045 5.78307 12.8921 5.91563 12.9994 6.106C13.0597 6.21745 13.0804 6.37735 12.9821 6.47392C12.8651 6.59402 12.6831 6.59333 12.5277 6.58537C12.2307 6.5293 11.932 6.3905 11.7538 6.13784C11.689 6.05235 11.6697 5.94367 11.6683 5.8388C11.7063 5.75088 11.7711 5.67059 11.8652 5.64013Z" fill="#000814"/>
<path d="M13.8722 5.73121C13.9137 5.61976 14.0605 5.62253 14.157 5.64537C14.3218 5.68967 14.5045 5.79074 14.5523 5.96656C14.5793 6.05067 14.5121 6.10466 14.4474 6.14066C14.2789 6.15866 14.1234 6.08667 13.9864 5.99668C13.9269 5.92157 13.8459 5.83608 13.8722 5.73121Z" fill="#000814"/>
<path d="M9.72669 6.06855C9.7793 5.97337 9.87449 5.91765 9.97659 5.88961C10.3483 5.84427 10.8138 6.0284 10.909 6.42297C10.9011 6.56038 10.7907 6.6521 10.6654 6.68671C10.348 6.7324 10.0032 6.61195 9.80042 6.36033C9.73154 6.27968 9.71839 6.17031 9.72669 6.06855Z" fill="#000814"/>
<path d="M19.8982 5.91741C20.0764 5.85995 20.2654 5.93644 20.4219 6.02228C20.5956 6.12715 20.7662 6.26871 20.8368 6.46565C20.868 6.54249 20.8514 6.64425 20.7718 6.68439C20.6167 6.75016 20.4457 6.6837 20.3021 6.61794C20.1117 6.51895 19.9314 6.37635 19.8359 6.1808C19.7892 6.09219 19.7957 5.9624 19.8982 5.91741Z" fill="#000814"/>
<path d="M21.2333 5.99934C21.3122 5.91558 21.4361 5.93704 21.5309 5.97995C21.6753 6.04329 21.8158 6.13674 21.8982 6.27484C21.9307 6.33715 21.9504 6.43302 21.8802 6.47767C21.7673 6.52059 21.6479 6.46278 21.5482 6.41191C21.3949 6.32503 21.2295 6.19282 21.2333 5.99934Z" fill="#000814"/>
<path d="M18.5138 6.02783C18.6021 5.98457 18.7059 6.00118 18.7973 6.0261C18.9939 6.08875 19.1749 6.21335 19.2912 6.38571C19.3393 6.46601 19.3829 6.59234 19.2929 6.66087C19.1981 6.73286 19.0679 6.70275 18.9634 6.67264C18.7634 6.59892 18.5692 6.47086 18.4681 6.27772C18.4256 6.19777 18.4179 6.07213 18.5138 6.02783Z" fill="#000814"/>
<path d="M16.9556 6.08844C17.1422 6.03652 17.3384 6.11267 17.4959 6.21269C17.6423 6.30926 17.7891 6.44528 17.8133 6.62838C17.8254 6.71767 17.7534 6.79659 17.6683 6.81112C17.4488 6.84608 17.2315 6.74709 17.0629 6.61315C16.9511 6.52177 16.8435 6.39821 16.8369 6.24696C16.83 6.17289 16.8902 6.11163 16.9556 6.08844Z" fill="#000814"/>
<path d="M15.023 6.31471C15.0414 6.17973 15.1888 6.1157 15.311 6.11466C15.6633 6.11155 16.0133 6.30572 16.2081 6.59749C16.2787 6.70686 16.3185 6.87334 16.2188 6.97787C16.134 7.06613 16.0032 7.06959 15.889 7.07028C15.6107 7.03498 15.3598 6.89065 15.1629 6.69509C15.0836 6.58503 14.9981 6.45766 15.023 6.31471Z" fill="#000814"/>
<path d="M13.4251 6.3365C13.622 6.27213 13.8356 6.32404 14.0204 6.40296C14.2149 6.49191 14.397 6.62966 14.5008 6.82003C14.5607 6.93044 14.5804 7.08515 14.4842 7.18206C14.3759 7.28693 14.2122 7.29489 14.0706 7.27897C13.8294 7.24436 13.6002 7.13049 13.4237 6.96263C13.3171 6.85533 13.2209 6.71342 13.2347 6.5549C13.243 6.45003 13.3271 6.36592 13.4251 6.3365Z" fill="#000814"/>
<path d="M11.445 6.5501C11.6 6.50406 11.7651 6.50752 11.9216 6.54698C12.2019 6.62832 12.4799 6.80622 12.5865 7.09038C12.601 7.19145 12.5809 7.2939 12.519 7.37627C12.4525 7.41711 12.3812 7.44965 12.3068 7.47318C11.9856 7.50987 11.6544 7.38596 11.4242 7.16203C11.301 7.04262 11.2176 6.86333 11.2764 6.692C11.3252 6.63662 11.382 6.58886 11.445 6.5501Z" fill="#000814"/>
<path d="M19.6907 6.67532C19.7783 6.59052 19.9122 6.60887 20.0223 6.62306C20.3514 6.72793 20.7038 6.95256 20.7761 7.3146C20.7598 7.3897 20.7204 7.46931 20.639 7.48869C20.4733 7.52953 20.3026 7.47208 20.1555 7.39801C19.9724 7.30179 19.8028 7.16577 19.699 6.98475C19.6485 6.89303 19.617 6.76323 19.6907 6.67532Z" fill="#000814"/>
<path d="M21.2376 6.6697C21.4314 6.62816 21.6183 6.73927 21.7599 6.86179C21.8454 6.94417 21.9426 7.05008 21.925 7.17883C21.9118 7.25602 21.8184 7.27367 21.7533 7.26709C21.5363 7.23802 21.3404 7.102 21.2165 6.92409C21.1639 6.85037 21.1306 6.71192 21.2376 6.6697Z" fill="#000814"/>
<path d="M18.1715 6.90327C18.1701 6.80739 18.2639 6.76309 18.34 6.73436C18.6463 6.7309 18.9405 6.90708 19.1067 7.16009C19.1707 7.25388 19.1807 7.37571 19.1174 7.47263C18.9094 7.57715 18.6706 7.48232 18.4913 7.36325C18.3359 7.25769 18.1753 7.10367 18.1715 6.90327Z" fill="#000814"/>
<path d="M16.3952 7.04103C16.3852 6.8787 16.5492 6.7714 16.696 6.76621C16.958 6.75133 17.2127 6.85862 17.4252 7.00399C17.6232 7.14832 17.8229 7.33834 17.8489 7.59619C17.9555 7.43629 18.1708 7.44252 18.3362 7.48509C18.7152 7.58304 19.0731 7.84297 19.2167 8.21643C19.3984 8.08214 19.6376 8.11017 19.8376 8.18355C19.6757 8.08006 19.5469 7.93435 19.4455 7.77237C19.4109 7.66888 19.3694 7.54774 19.4233 7.4439C19.496 7.32069 19.657 7.30511 19.785 7.32449C20.0578 7.36568 20.3049 7.51589 20.5008 7.70591C20.6178 7.82705 20.7292 7.97415 20.7413 8.14859C20.7531 8.2462 20.6932 8.34588 20.6001 8.37876C20.4596 8.43552 20.3077 8.39399 20.1685 8.3573C20.3873 8.50267 20.5773 8.70549 20.6624 8.95815C20.8424 8.84117 21.0702 8.87751 21.2564 8.95919C21.5648 9.09383 21.8413 9.33473 21.9586 9.6573C22.1185 9.51747 22.3456 9.55174 22.5259 9.62892C22.8073 9.74729 23.0593 9.95531 23.204 10.227C23.2708 10.3568 23.3109 10.5458 23.1873 10.6555C23.062 10.7541 22.8928 10.7157 22.7495 10.6891C22.9721 10.8542 23.1652 11.0733 23.2451 11.3436C23.3116 11.2851 23.387 11.2262 23.4812 11.2297C23.7636 11.2242 24.0197 11.381 24.225 11.5623C24.3884 11.7146 24.5323 11.906 24.569 12.1317C24.5901 12.2521 24.5358 12.3947 24.414 12.438C24.2558 12.4899 24.0841 12.447 23.9394 12.3757C23.9197 12.3812 23.9007 12.3868 23.882 12.3926C24.0017 12.4117 24.0879 12.502 24.1755 12.5782C24.3402 12.737 24.4867 12.9343 24.5223 13.1655C24.5417 13.259 24.5095 13.3524 24.4687 13.4355C24.2998 13.5895 24.0485 13.5369 23.8605 13.4507C23.5338 13.2936 23.2465 13.0167 23.1417 12.6626C23.0053 12.8443 22.7578 12.8343 22.5602 12.7824C22.7755 12.9468 22.9631 13.1628 23.0499 13.423C23.0984 13.5743 23.1067 13.7633 22.9932 13.8886C22.898 13.9948 22.7464 14.001 22.6145 14.0125C22.7838 14.1838 22.9264 14.3908 22.9759 14.6299C23.0354 14.5202 23.1441 14.441 23.2725 14.4406C23.5926 14.4281 23.8834 14.6164 24.0969 14.8404C24.262 15.0158 24.3987 15.2367 24.4171 15.4821C24.4306 15.6247 24.3652 15.7849 24.2285 15.8451C24.0859 15.9064 23.9291 15.868 23.7837 15.8396C23.4023 15.6731 23.0672 15.3568 22.9572 14.9463C22.8661 15.1443 22.6325 15.1944 22.4345 15.1702C22.6436 15.363 22.8125 15.6094 22.8693 15.8919C22.9239 15.8174 22.9856 15.7375 23.0807 15.7153C23.2974 15.6517 23.5182 15.742 23.7086 15.8417C23.8221 15.9206 23.9298 16.0085 24.0242 16.1096C24.1956 16.3003 24.3364 16.5387 24.3482 16.8011C24.3579 16.9627 24.2752 17.1431 24.1135 17.1974C23.9834 17.2483 23.8439 17.2144 23.7124 17.1915C23.2977 17.0254 22.9361 16.6685 22.8419 16.2224C22.7471 16.4519 22.4754 16.5093 22.2539 16.4616C22.4595 16.6367 22.6059 16.8755 22.6727 17.1368C22.6997 17.3199 22.6741 17.5238 22.5294 17.6539C22.4515 17.7003 22.3653 17.7301 22.2767 17.7463C22.1275 17.7463 21.9808 17.7114 21.8455 17.6508C21.4235 17.4369 21.0549 16.9991 21.0947 16.5021C21.12 16.3955 21.1768 16.2989 21.2588 16.2266C21.3844 16.1476 21.5353 16.1418 21.6786 16.1615C21.4748 16.013 21.3322 15.796 21.2325 15.5672C21.1096 15.6565 20.9591 15.697 20.8078 15.6877C20.7005 15.6721 20.5953 15.6444 20.4921 15.6115C20.1415 15.453 19.8401 15.1733 19.6916 14.8144C19.6147 14.8508 19.5362 14.884 19.4548 14.9086C19.3143 14.9269 19.1728 14.9058 19.0367 14.8705C19.2676 15.0449 19.4552 15.2962 19.5023 15.5866C19.5313 15.7486 19.4919 15.932 19.3666 16.0455C19.2842 16.1286 19.1665 16.1594 19.0544 16.1739C18.719 16.1861 18.4013 16.0189 18.1735 15.7815C17.9873 15.5942 17.8492 15.3405 17.8575 15.0709C17.8589 14.9079 17.952 14.7469 18.0998 14.6746C18.2607 14.5919 18.4501 14.6081 18.62 14.6524C18.4078 14.5001 18.2407 14.2894 18.1403 14.0488C17.8797 14.2011 17.5526 14.1613 17.2906 14.0346C16.9324 13.8661 16.6222 13.5542 16.5305 13.1607C16.3578 13.3109 16.1218 13.3517 15.8999 13.3185C16.1013 13.4988 16.2612 13.7567 16.2419 14.036C16.2377 14.2495 16.065 14.4337 15.8601 14.4773C15.5292 14.5538 15.1841 14.4216 14.9256 14.2163C14.702 14.0377 14.5199 13.7736 14.5186 13.4784C14.5144 13.3178 14.5985 13.1593 14.7352 13.0745C14.8757 12.9835 15.0502 12.9669 15.2129 12.9887C14.9353 12.7661 14.712 12.3819 14.8519 12.023C14.9869 11.78 15.2907 11.7191 15.5458 11.7575C15.3392 11.5689 15.1464 11.3166 15.1609 11.022C15.1658 10.8535 15.2831 10.7105 15.4337 10.6444C15.5538 10.6067 15.6801 10.6046 15.8051 10.6029C15.776 10.578 15.7476 10.553 15.7192 10.5285C15.5628 10.3506 15.4423 10.1214 15.4818 9.87709C15.5334 9.71995 15.6729 9.61266 15.8324 9.58151C15.9754 9.56731 16.1193 9.57943 16.2595 9.60954C16.0145 9.4261 15.7698 9.15959 15.7995 8.83009C15.7068 9.01388 15.4929 9.0696 15.3025 9.05126C14.981 9.02115 14.6778 8.85951 14.4587 8.62485C14.3178 8.47429 14.2174 8.26004 14.2818 8.05272C14.3545 7.93435 14.4801 7.85509 14.6196 7.84643C15.0093 7.81425 15.3946 8.01257 15.6448 8.30365C15.7701 8.44487 15.8348 8.63384 15.8078 8.82213C15.8317 8.74702 15.8566 8.66465 15.9266 8.61965C16.0671 8.50924 16.2561 8.52516 16.4236 8.53728C16.2405 8.37945 16.0833 8.16763 16.0705 7.91773C15.9314 8.09148 15.687 8.09494 15.488 8.04822C15.1841 7.97173 14.8934 7.8004 14.7124 7.54012C14.6245 7.41241 14.5625 7.23693 14.6397 7.08983C14.7103 6.96107 14.8674 6.91919 15.0048 6.9185C15.2939 6.91746 15.5725 7.04241 15.794 7.22308C15.9622 7.35841 16.1 7.54704 16.1183 7.76821C16.1723 7.70833 16.2325 7.65123 16.3107 7.62527C16.4755 7.58442 16.6468 7.60381 16.8088 7.64742C16.6125 7.50032 16.4045 7.30269 16.3952 7.04103ZM17.4751 7.85993C17.4079 7.89247 17.3906 7.97865 17.428 8.0406C17.5118 8.20778 17.6921 8.32165 17.8773 8.33619C17.9586 8.34449 18.0531 8.27562 18.0309 8.18666C17.9998 8.05479 17.8859 7.96204 17.7724 7.90043C17.6824 7.85716 17.572 7.81598 17.4751 7.85993ZM18.9952 8.6155C18.9118 8.63938 18.9069 8.7446 18.9481 8.80725C19.0284 8.94292 19.1759 9.03914 19.333 9.0568C19.4223 9.06926 19.4985 8.96958 19.4542 8.88824C19.3759 8.72141 19.1821 8.5885 18.9952 8.6155ZM17.2639 8.85224C17.1736 8.88858 17.1767 9.00696 17.2272 9.07514C17.3179 9.20736 17.4716 9.30496 17.6343 9.30911C17.7291 9.31292 17.8056 9.20563 17.7575 9.11944C17.6734 8.94327 17.4619 8.8024 17.2639 8.85224ZM20.3437 9.30288C20.2879 9.32676 20.2537 9.39391 20.2824 9.45102C20.3392 9.60435 20.4904 9.71026 20.6462 9.74556C20.7102 9.76495 20.7853 9.73518 20.8095 9.67046C20.8189 9.56316 20.7403 9.47525 20.6635 9.41156C20.5742 9.34061 20.4606 9.28281 20.3437 9.30288ZM16.9867 9.85701C16.9313 9.89993 16.9251 9.98023 16.9562 10.0398C17.0331 10.2135 17.2335 10.3315 17.4228 10.3097C17.5453 10.2893 17.5581 10.1356 17.49 10.0536C17.384 9.90097 17.1701 9.76564 16.9867 9.85701ZM21.6651 9.96535C21.5821 9.97919 21.5589 10.0761 21.5914 10.1439C21.6554 10.299 21.8012 10.4108 21.9597 10.4579C22.0296 10.4793 22.131 10.4769 22.1639 10.398C22.186 10.2793 22.0988 10.1747 22.0171 10.0993C21.9202 10.02 21.7949 9.94285 21.6651 9.96535ZM16.7745 10.8867C16.6787 10.9082 16.6364 11.0234 16.6811 11.1072C16.7565 11.2719 16.932 11.3934 17.1148 11.3955C17.2241 11.3996 17.3152 11.2809 17.2664 11.1781C17.1923 10.9912 16.9763 10.8476 16.7745 10.8867ZM21.5949 11.0397C21.5142 11.074 21.526 11.1806 21.5599 11.2446C21.6381 11.3917 21.7939 11.4972 21.9593 11.5163C22.0697 11.5197 22.1137 11.3882 22.059 11.3048C21.9721 11.1449 21.7842 10.9988 21.5949 11.0397ZM22.771 11.761C22.9565 11.9195 23.1088 12.1275 23.168 12.367C23.3337 12.1597 23.6411 12.2404 23.8436 12.3449C23.8363 12.3342 23.8225 12.3127 23.8155 12.302C23.5386 12.1673 23.3095 11.9088 23.224 11.6111C23.1365 11.7738 22.9326 11.7811 22.771 11.761ZM16.4623 11.9271C16.3602 11.968 16.3253 12.0908 16.3692 12.1874C16.4502 12.3729 16.6409 12.5055 16.8431 12.5183C16.9576 12.5221 17.0805 12.4276 17.0532 12.3033C17.0002 12.0524 16.7133 11.861 16.4623 11.9271ZM21.4786 12.0683C21.381 12.104 21.3927 12.2289 21.4377 12.3027C21.5218 12.4484 21.6807 12.5705 21.8555 12.5622C21.9444 12.5598 21.9977 12.4498 21.9548 12.3746C21.8821 12.1922 21.6817 12.0299 21.4786 12.0683ZM18.1483 12.7626L18.1507 12.7862L18.1233 12.7813C18.0385 12.8028 18.0375 12.9146 18.0655 12.981C18.1445 13.1787 18.3642 13.3206 18.5788 13.2811C18.6311 13.2233 18.6934 13.1517 18.6539 13.0683C18.5878 12.8706 18.3539 12.6983 18.1483 12.7626ZM21.3159 13.1849C21.2688 13.2181 21.2467 13.2842 21.2668 13.3389C21.3076 13.4909 21.4322 13.6099 21.5751 13.6691C21.644 13.6954 21.7302 13.7117 21.7925 13.6601C21.851 13.6207 21.8475 13.5397 21.8281 13.4801C21.7787 13.3441 21.6624 13.2392 21.5312 13.1828C21.464 13.1565 21.3785 13.1409 21.3159 13.1849ZM19.5732 13.6882C19.6282 13.9034 19.8567 14.0647 20.0792 14.0405C20.1242 13.9903 20.1883 13.9353 20.1668 13.8591C20.1187 13.6338 19.8813 13.4614 19.6514 13.4954C19.6026 13.5476 19.5448 13.6099 19.5732 13.6882ZM21.1352 14.2163C21.0394 14.2489 21.0006 14.3589 21.0362 14.4503C21.1017 14.6528 21.2958 14.8186 21.5108 14.8345C21.6399 14.8487 21.7323 14.7005 21.6769 14.587C21.6032 14.3707 21.3727 14.1717 21.1352 14.2163Z" fill="#000814"/>
<path d="M12.8496 7.28153C12.9562 7.20262 13.0881 7.16974 13.2193 7.1687C13.5502 7.19362 13.8752 7.34972 14.0811 7.61311C14.1732 7.72456 14.213 7.86958 14.1988 8.01287C14.1341 8.16966 13.971 8.24615 13.8094 8.25481C13.4803 8.25031 13.1563 8.10529 12.9334 7.8637C12.8479 7.77232 12.7922 7.65741 12.7659 7.53593C12.7655 7.44386 12.7918 7.35387 12.8496 7.28153Z" fill="#000814"/>
<path d="M3.0774 7.23639C3.247 7.21562 3.44082 7.24712 3.56092 7.37864C3.6208 7.43886 3.62911 7.54858 3.56058 7.60569C3.43771 7.71818 3.25219 7.71402 3.09921 7.68045C2.98776 7.64757 2.85623 7.58389 2.82958 7.45894C2.81574 7.32326 2.96284 7.24919 3.0774 7.23639Z" fill="#000814"/>
<path d="M7.36645 7.40602C7.58588 7.3181 7.8742 7.40082 7.99984 7.60503C8.05694 7.70021 8.00226 7.8262 7.90085 7.86185C7.68556 7.93834 7.41006 7.86496 7.28269 7.66941C7.21969 7.57734 7.2633 7.44513 7.36645 7.40602Z" fill="#000814"/>
<path d="M21.0526 7.55343C21.0709 7.49183 21.0917 7.41222 21.1675 7.40218C21.4035 7.36446 21.6257 7.50705 21.7884 7.66419C21.877 7.76006 21.9822 7.89851 21.9227 8.03419C21.832 8.1529 21.6648 8.09787 21.5444 8.06603C21.3305 7.95666 21.1162 7.79814 21.0526 7.55343Z" fill="#000814"/>
<path d="M0.517078 7.65241C0.681482 7.5998 0.87496 7.60534 1.02414 7.69879C1.09613 7.73998 1.14631 7.83724 1.0989 7.91477C1.0051 8.04941 0.82062 8.0636 0.670753 8.05287C0.549613 8.0411 0.40736 7.99403 0.355789 7.87289C0.327061 7.76386 0.427088 7.68564 0.517078 7.65241Z" fill="#000814"/>
<path d="M11.1673 7.67571C11.3774 7.6096 11.609 7.68332 11.7803 7.81173C11.8945 7.89618 11.9932 8.03255 11.9641 8.18207C11.9326 8.30252 11.7962 8.35859 11.6816 8.3579C11.4352 8.36032 11.1753 8.23849 11.0493 8.02182C10.9707 7.8993 11.022 7.71655 11.1673 7.67571Z" fill="#000814"/>
<path d="M4.66659 7.84615C4.80711 7.72121 5.00786 7.71775 5.18542 7.72778C5.39828 7.76966 5.62014 7.869 5.71912 8.07494C5.73228 8.16943 5.72362 8.27776 5.64436 8.34283C5.48896 8.47954 5.25983 8.48612 5.0667 8.44666C4.88949 8.40859 4.70639 8.32206 4.6119 8.16008C4.55341 8.05867 4.57591 7.92092 4.66659 7.84615Z" fill="#000814"/>
<path d="M8.88213 8.12464C8.91674 8.04815 8.99842 8.01354 9.06903 7.97823C9.34834 7.92701 9.6685 8.02427 9.83048 8.26724C9.88551 8.34408 9.8862 8.44168 9.86924 8.53133C9.81006 8.60609 9.73114 8.66977 9.63423 8.68431C9.38053 8.72619 9.10364 8.62754 8.93889 8.42922C8.86966 8.34719 8.8309 8.22536 8.88213 8.12464Z" fill="#000814"/>
<path d="M2.19021 8.24416C2.29924 8.10329 2.49652 8.10779 2.65712 8.11609C2.76684 8.15001 2.86756 8.20643 2.95132 8.28534C2.95685 8.36149 2.97624 8.45667 2.90528 8.50997C2.72911 8.65049 2.46364 8.63077 2.27847 8.5169C2.18675 8.46567 2.12376 8.33899 2.19021 8.24416Z" fill="#000814"/>
<path d="M21.0663 8.19171C21.2204 8.1436 21.3834 8.20694 21.5191 8.28032C21.6828 8.38069 21.8409 8.51775 21.9084 8.70292C21.9441 8.79014 21.924 8.91059 21.8292 8.95005C21.7125 8.99504 21.5841 8.95732 21.473 8.91371C21.2775 8.82718 21.0978 8.68389 20.9989 8.49145C20.948 8.3928 20.9407 8.23567 21.0663 8.19171Z" fill="#000814"/>
<path d="M12.6625 8.26267C12.8784 8.18826 13.1117 8.24156 13.3111 8.33916C13.5049 8.46099 13.6987 8.63786 13.7063 8.88429C13.6818 9.01581 13.571 9.11446 13.4412 9.13488C13.1827 9.17745 12.9175 9.07431 12.7203 8.90921C12.5922 8.79915 12.4776 8.6382 12.506 8.45996C12.5174 8.36997 12.5939 8.31147 12.6625 8.26267Z" fill="#000814"/>
<path d="M6.42684 8.52059C6.62032 8.31084 6.94429 8.31534 7.19383 8.40914C7.38143 8.48148 7.57975 8.62269 7.60329 8.83867C7.62163 8.98577 7.49807 9.09514 7.37727 9.1519C7.06716 9.24224 6.70235 9.15675 6.48257 8.9155C6.3822 8.81063 6.35762 8.64865 6.42684 8.52059Z" fill="#000814"/>
<path d="M27.2934 8.54868C27.3695 8.54349 27.4502 8.53899 27.5191 8.57914C27.6738 8.65598 27.8392 8.79165 27.8178 8.98375C27.7582 8.97925 27.699 8.9751 27.6405 8.96644C27.4758 8.8813 27.2937 8.75601 27.2934 8.54868Z" fill="#000814"/>
<path d="M26.2307 8.57605C26.4197 8.56705 26.5896 8.701 26.7042 8.84048C26.7679 8.90936 26.8066 9.08311 26.6685 9.08484C26.4754 9.05438 26.2947 8.92944 26.1982 8.75984C26.1653 8.7055 26.1525 8.5944 26.2307 8.57605Z" fill="#000814"/>
<path d="M28.253 8.56689C28.4586 8.57036 28.7116 8.72853 28.6902 8.95835C28.4842 8.95939 28.2215 8.79671 28.253 8.56689Z" fill="#000814"/>
<path d="M10.55 8.75145C10.6248 8.64588 10.7618 8.61196 10.8847 8.61404C11.1467 8.61231 11.4129 8.74522 11.5558 8.96708C11.6306 9.07991 11.6354 9.24951 11.5274 9.34365C11.3859 9.46375 11.1837 9.44783 11.0152 9.40734C10.8117 9.34227 10.6251 9.21178 10.5254 9.019C10.5109 8.93074 10.4933 8.82898 10.55 8.75145Z" fill="#000814"/>
<path d="M24.9561 8.92629C24.8831 8.83388 24.8481 8.6622 24.9914 8.61652C25.2423 8.64109 25.4701 8.79477 25.6068 9.00313C25.6643 9.08585 25.6805 9.20595 25.6006 9.28036C25.3393 9.2994 25.1036 9.12877 24.9561 8.92629Z" fill="#000814"/>
<path d="M4.25333 8.69115C4.46619 8.63404 4.71539 8.67073 4.88188 8.82267C4.94625 8.88844 4.9999 8.98777 4.9639 9.08088C4.92549 9.20479 4.78946 9.25186 4.67594 9.28024C4.4167 9.30931 4.04289 9.20063 4.0332 8.88878C4.07785 8.79741 4.15261 8.71815 4.25333 8.69115Z" fill="#000814"/>
<path d="M23.7397 8.75769C23.883 8.73624 24.0225 8.80234 24.1381 8.88126C24.2689 8.97367 24.3918 9.09654 24.4319 9.25645C24.4555 9.33259 24.4022 9.42431 24.3191 9.42673C24.126 9.4385 23.9505 9.32463 23.8131 9.20003C23.7196 9.10554 23.621 8.98302 23.6407 8.84145C23.6587 8.80096 23.6933 8.76392 23.7397 8.75769Z" fill="#000814"/>
<path d="M22.2637 8.86226C22.4489 8.81173 22.6417 8.86849 22.7947 8.97787C22.9473 9.08828 23.1062 9.23191 23.137 9.42747C23.1595 9.5178 23.0837 9.58253 23.0141 9.62164C22.712 9.62614 22.4313 9.43612 22.2755 9.18588C22.208 9.08759 22.2084 8.96541 22.2637 8.86226Z" fill="#000814"/>
<path d="M13.9768 9.09034C14.0675 8.89998 14.2945 8.84737 14.4877 8.86813C14.804 8.91313 15.1065 9.08307 15.292 9.34577C15.3903 9.48214 15.4364 9.66316 15.3741 9.82445C15.3121 9.91236 15.2214 9.97466 15.1183 10.0034C15.002 10.0172 14.884 10.0148 14.769 9.99266C14.4783 9.91928 14.2063 9.74553 14.045 9.48941C13.9685 9.37173 13.9501 9.22636 13.9768 9.09034Z" fill="#000814"/>
<path d="M8.43041 8.98705C8.76199 8.90572 9.1396 9.03274 9.35315 9.29994C9.45075 9.42177 9.48813 9.60868 9.3888 9.74089C9.2867 9.87484 9.10637 9.91637 8.94612 9.91395C8.70419 9.90633 8.46294 9.81184 8.28954 9.64156C8.18259 9.5353 8.10852 9.37747 8.15248 9.22622C8.18917 9.09989 8.31031 9.02132 8.43041 8.98705Z" fill="#000814"/>
<path d="M12.2862 9.2482C12.6628 9.1551 13.0712 9.3465 13.2944 9.65247C13.3778 9.7743 13.4277 9.93697 13.3682 10.0792C13.3114 10.208 13.1719 10.2772 13.038 10.2914C12.731 10.3232 12.4229 10.1896 12.2066 9.97608C12.0948 9.85875 12.0034 9.70231 12.0207 9.53513C12.0346 9.39392 12.1529 9.28247 12.2862 9.2482Z" fill="#000814"/>
<path d="M27.4057 9.30209C27.4483 9.25364 27.5296 9.29206 27.5823 9.31075C27.71 9.37789 27.8553 9.48138 27.8726 9.63644C27.8765 9.73197 27.7518 9.71189 27.6954 9.68351C27.5528 9.61637 27.3895 9.49973 27.3864 9.32667L27.4057 9.30209Z" fill="#000814"/>
<path d="M24.952 9.38163C25.1029 9.36398 25.2459 9.44117 25.3684 9.52077C25.5256 9.63257 25.6796 9.78624 25.708 9.9856C25.7176 10.0842 25.6214 10.1479 25.5314 10.1372C25.3245 10.1171 25.1421 9.99495 24.9988 9.85097C24.9122 9.75302 24.8226 9.63464 24.833 9.49689C24.8326 9.43355 24.8946 9.38959 24.952 9.38163Z" fill="#000814"/>
<path d="M26.2279 9.37012C26.3033 9.31889 26.3961 9.35593 26.4726 9.38466C26.6311 9.45422 26.7709 9.57433 26.855 9.72662C26.891 9.79099 26.9073 9.89725 26.8274 9.93636C26.6048 9.9689 26.4086 9.80864 26.2753 9.64805C26.2223 9.57225 26.1455 9.45076 26.2279 9.37012Z" fill="#000814"/>
<path d="M6.19584 9.52244C6.40628 9.46429 6.66587 9.53144 6.79151 9.71869C6.85692 9.81214 6.83339 9.95543 6.73371 10.0153C6.57968 10.1115 6.37859 10.0887 6.22111 10.0129C6.11831 9.96028 6.01171 9.86717 6.0124 9.74257C5.9996 9.63181 6.09962 9.55013 6.19584 9.52244Z" fill="#000814"/>
<path d="M23.5977 9.51288C23.7749 9.46511 23.9574 9.54818 24.1045 9.64267C24.265 9.7555 24.4177 9.90087 24.4824 10.0909C24.5142 10.1802 24.5039 10.31 24.4028 10.3491C24.2349 10.4014 24.0612 10.3249 23.9182 10.2401C23.7338 10.121 23.5579 9.9566 23.4998 9.73785C23.4735 9.6534 23.5081 9.54264 23.5977 9.51288Z" fill="#000814"/>
<path d="M10.201 9.78535C10.4131 9.72132 10.6468 9.78223 10.8305 9.89749C10.9863 9.99613 11.1282 10.165 11.1081 10.3606C11.0881 10.5323 10.9105 10.6257 10.753 10.6316C10.4471 10.6451 10.1075 10.4845 9.98984 10.1893C9.91681 10.0221 10.0307 9.82931 10.201 9.78535Z" fill="#000814"/>
<path d="M13.7733 9.90225C14.0038 9.81676 14.2606 9.86487 14.4821 9.95555C14.7081 10.0542 14.913 10.212 15.0487 10.42C15.1429 10.563 15.1917 10.7447 15.1425 10.9126C15.0861 11.0853 14.903 11.1843 14.7296 11.1939C14.3949 11.223 14.0644 11.0801 13.8172 10.8606C13.647 10.7077 13.5026 10.4969 13.5089 10.2591C13.5096 10.0981 13.6276 9.95866 13.7733 9.90225Z" fill="#000814"/>
<path d="M26.2603 10.3888C26.2174 10.3182 26.225 10.2247 26.2915 10.1714C26.4974 10.1984 26.6985 10.3244 26.784 10.5179C26.8138 10.5812 26.7964 10.6532 26.7459 10.7007C26.5462 10.6834 26.3576 10.5636 26.2603 10.3888Z" fill="#000814"/>
<path d="M8.06051 10.2768C8.25433 10.1954 8.50526 10.2726 8.62087 10.4481C8.69044 10.5495 8.65513 10.7067 8.53399 10.7496C8.33809 10.8278 8.08785 10.7499 7.97294 10.5727C7.90579 10.4713 7.94387 10.3218 8.06051 10.2768Z" fill="#000814"/>
<path d="M24.916 10.2767C25.0192 10.2272 25.1376 10.2674 25.2348 10.313C25.4013 10.3992 25.5529 10.5297 25.6335 10.7021C25.665 10.7741 25.6862 10.8751 25.6187 10.934C25.5366 10.9977 25.4255 10.9672 25.338 10.9343C25.1473 10.8544 24.9777 10.7114 24.8852 10.5249C24.8465 10.4473 24.8285 10.3276 24.916 10.2767Z" fill="#000814"/>
<path d="M23.3721 10.5679C23.3651 10.4616 23.4454 10.3796 23.5413 10.3488C23.8892 10.3367 24.2 10.5596 24.4 10.8282C24.5056 10.9715 24.5887 11.1999 24.4312 11.339C24.1671 11.4159 23.9044 11.276 23.7054 11.1127C23.5434 10.9728 23.389 10.7901 23.3721 10.5679Z" fill="#000814"/>
<path d="M11.7172 10.5742C11.8411 10.4413 12.0394 10.4281 12.2087 10.4537C12.4901 10.5167 12.7763 10.6998 12.8608 10.9892C12.9103 11.1391 12.8324 11.3007 12.6995 11.3772C12.3651 11.5108 11.9723 11.3533 11.7549 11.083C11.6428 10.9456 11.5891 10.7185 11.7172 10.5742Z" fill="#000814"/>
<path d="M9.87183 11.0042C9.99227 10.9799 10.1228 10.9886 10.2301 11.0533C10.3754 11.1236 10.4855 11.3043 10.39 11.4576C10.175 11.6279 9.79914 11.4981 9.7358 11.2319C9.70915 11.1284 9.78426 11.0443 9.87183 11.0042Z" fill="#000814"/>
<path d="M13.1249 11.3213C13.1831 11.1573 13.3468 11.0517 13.5136 11.0243C13.8137 10.9742 14.1221 11.0752 14.3665 11.2486C14.5724 11.3902 14.741 11.5972 14.8008 11.8433C14.815 11.9831 14.8102 12.1399 14.7074 12.2482C14.5388 12.4465 14.2498 12.4503 14.0131 12.4078C13.6635 12.3157 13.3375 12.0966 13.1654 11.7723C13.108 11.6314 13.0699 11.4691 13.1249 11.3213Z" fill="#000814"/>
<path d="M25.0231 11.2791C25.1619 11.2576 25.2934 11.3438 25.3927 11.4331C25.4755 11.5137 25.5603 11.6217 25.5416 11.7446C25.5288 11.8111 25.4453 11.837 25.3862 11.8228C25.2013 11.7868 25.038 11.6536 24.9604 11.4829C24.9321 11.412 24.9272 11.2981 25.0231 11.2791Z" fill="#000814"/>
<path d="M11.2684 11.715C11.4113 11.5596 11.6467 11.552 11.8395 11.597C12.097 11.6638 12.3458 11.8396 12.4351 12.0989C12.4794 12.2145 12.4559 12.3415 12.3988 12.4474C12.2254 12.6457 11.935 12.6371 11.7041 12.5627C11.4992 12.474 11.3186 12.3304 11.2147 12.13C11.176 11.9936 11.1625 11.8254 11.2684 11.715Z" fill="#000814"/>
<path d="M26.29 11.9673C26.3834 11.9361 26.4824 11.9815 26.5648 12.0251C26.7161 12.1168 26.8583 12.258 26.8857 12.4401C26.8981 12.5422 26.7877 12.5958 26.7015 12.5692C26.506 12.5249 26.3374 12.3785 26.2478 12.2013C26.2094 12.1275 26.1934 12.0015 26.29 11.9673Z" fill="#000814"/>
<path d="M24.698 12.0961C24.7665 12.0154 24.8817 12.0248 24.9769 12.0265C25.3092 12.1134 25.6058 12.3498 25.7488 12.6637C25.8041 12.7758 25.8093 12.9091 25.7519 13.0212C25.601 13.1396 25.3947 13.087 25.2386 13.0081C25.0115 12.8893 24.8108 12.7049 24.6986 12.4719C24.6464 12.356 24.608 12.2033 24.698 12.0961Z" fill="#000814"/>
<path d="M9.03004 12.4213C9.09615 12.3188 9.20171 12.2396 9.32631 12.2299C9.58624 12.2004 9.87906 12.3358 9.98324 12.5846C10.0338 12.6982 10.0044 12.8297 9.92509 12.9224C9.64889 13.1256 9.22317 12.9944 9.06015 12.7072C9.00823 12.621 9.01169 12.5165 9.03004 12.4213Z" fill="#000814"/>
<path d="M12.8422 12.5257C12.9149 12.3761 13.0751 12.2862 13.2361 12.2657C13.4732 12.2329 13.713 12.3055 13.9172 12.4239C14.1713 12.5852 14.4053 12.85 14.3911 13.1694C14.3932 13.3674 14.2374 13.5266 14.0574 13.5844C13.5376 13.7014 12.9471 13.3574 12.8076 12.8403C12.7965 12.7347 12.7934 12.6229 12.8422 12.5257Z" fill="#000814"/>
<path d="M27.5739 12.6537C27.6774 12.6122 27.7912 12.66 27.8826 12.7119C28.0408 12.8081 28.1834 12.9528 28.235 13.1348C28.2613 13.2072 28.2336 13.3079 28.1529 13.3304C28.0415 13.3487 27.9342 13.2989 27.8428 13.2414C27.7044 13.1466 27.5808 13.0172 27.5272 12.8555C27.505 12.7877 27.5029 12.6932 27.5739 12.6537Z" fill="#000814"/>
<path d="M26.0944 12.7421C26.2702 12.6888 26.453 12.7646 26.6039 12.8532C26.8261 12.9938 27.0203 13.1928 27.1203 13.4392C27.1622 13.5538 27.1861 13.7033 27.094 13.8005C27.003 13.884 26.8649 13.8673 26.7548 13.8386C26.4848 13.7504 26.2522 13.56 26.0961 13.3243C26.0134 13.1969 25.9432 13.045 25.9726 12.8899C25.9837 12.8231 26.0338 12.7695 26.0944 12.7421Z" fill="#000814"/>
<path d="M11.0393 12.8489C11.3587 12.7976 11.6969 12.9423 11.8942 13.196C12.0067 13.3421 12.0711 13.5473 11.9928 13.7238C11.9236 13.8855 11.7457 13.9741 11.5765 13.9817C11.3812 13.9983 11.1864 13.9398 11.0206 13.8388C10.9119 13.7692 10.8202 13.6761 10.7423 13.5736C10.6804 13.4501 10.6288 13.3082 10.6641 13.169C10.7015 12.9935 10.8697 12.8769 11.0393 12.8489Z" fill="#000814"/>
<path d="M24.77 13.0739C24.9524 13.0168 25.1462 13.0878 25.3041 13.1809C25.5495 13.3325 25.762 13.5599 25.8475 13.8402C25.8855 13.9686 25.8689 14.1465 25.7305 14.2078C25.5716 14.2708 25.3941 14.214 25.2487 14.1414C24.9787 13.9953 24.7447 13.7592 24.6468 13.4644C24.599 13.3273 24.6181 13.1349 24.77 13.0739Z" fill="#000814"/>
<path d="M28.7347 13.3601C28.7977 13.3299 28.8679 13.3005 28.9389 13.3258C29.1407 13.3819 29.3078 13.5286 29.4238 13.6996C29.4861 13.7955 29.5411 13.9163 29.5034 14.0319C29.4608 14.127 29.3414 14.1001 29.2597 14.0914C29.0337 13.9931 28.834 13.8159 28.7426 13.5836C28.7118 13.5123 28.7212 13.4338 28.7347 13.3601Z" fill="#000814"/>
<path d="M23.2562 13.3915C23.3932 13.331 23.5486 13.3649 23.6829 13.4172C23.9377 13.522 24.1547 13.7152 24.2938 13.9529C24.3686 14.0803 24.416 14.2333 24.3842 14.3814C24.3596 14.4905 24.2596 14.5766 24.1485 14.5853C23.8954 14.6123 23.6577 14.4811 23.4739 14.3191C23.296 14.1627 23.1426 13.9595 23.1056 13.7204C23.0814 13.5944 23.134 13.4462 23.2562 13.3915Z" fill="#000814"/>
<path d="M8.28429 13.6599C8.60964 13.3315 9.18938 13.4568 9.46073 13.7942C9.61891 13.9732 9.65179 14.2642 9.49085 14.4525C9.14819 14.7765 8.55634 14.6249 8.29814 14.2663C8.16488 14.0933 8.14896 13.8364 8.28429 13.6599Z" fill="#000814"/>
<path d="M27.5102 13.5258C27.6774 13.4794 27.846 13.5628 27.9837 13.6521C28.1782 13.7892 28.3496 13.9757 28.4278 14.2038C28.4672 14.3135 28.4679 14.472 28.3506 14.5343C28.2021 14.588 28.0419 14.5233 27.9134 14.4478C27.694 14.3101 27.5033 14.109 27.4147 13.8622C27.377 13.7476 27.3735 13.5735 27.5102 13.5258Z" fill="#000814"/>
<path d="M12.7943 13.6043C13.2325 13.5025 13.715 13.7642 13.8915 14.1723C13.9815 14.3706 13.9452 14.6212 13.7721 14.7627C13.4613 14.97 13.0408 14.8579 12.7701 14.6343C12.5749 14.4755 12.4205 14.2262 12.4603 13.966C12.4832 13.7888 12.6324 13.6583 12.7943 13.6043Z" fill="#000814"/>
<path d="M26.1136 13.9271C26.1708 13.8492 26.277 13.8509 26.3642 13.8502C26.648 13.9125 26.8869 14.1084 27.0478 14.3448C27.1537 14.5037 27.2274 14.7193 27.1153 14.8951C26.9388 14.9921 26.7311 14.9204 26.5729 14.8207C26.3722 14.6892 26.1991 14.5051 26.1064 14.2818C26.0628 14.17 26.0368 14.0305 26.1136 13.9271Z" fill="#000814"/>
<path d="M16.6462 13.9185C16.8691 13.8662 17.1034 13.941 17.2893 14.0649C17.4914 14.2033 17.6665 14.4086 17.7039 14.6574C17.7333 14.8139 17.6686 14.9949 17.5236 15.0724C17.3298 15.1777 17.0913 15.1313 16.902 15.0396C16.6143 14.8952 16.3475 14.6111 16.3606 14.2705C16.3586 14.1044 16.4863 13.9548 16.6462 13.9185Z" fill="#000814"/>
<path d="M29.9646 13.9714C30.0958 13.9212 30.2363 13.9846 30.3506 14.0503C30.5606 14.1843 30.7389 14.3791 30.8316 14.6124C30.8635 14.7065 30.8822 14.836 30.7981 14.909C30.6925 14.9769 30.5624 14.9243 30.4606 14.8765C30.228 14.7512 30.0359 14.5484 29.9283 14.3071C29.8829 14.2012 29.8528 14.0462 29.9646 13.9714Z" fill="#000814"/>
<path d="M10.2766 14.3291C10.5996 14.1322 11.0333 14.2374 11.3053 14.4766C11.4745 14.6247 11.5998 14.8449 11.5749 15.0757C11.56 15.265 11.4157 15.4281 11.2402 15.491C11.0613 15.5544 10.865 15.5371 10.6847 15.4886C10.422 15.3938 10.1877 15.2014 10.0842 14.9373C10.0108 14.7189 10.0724 14.4537 10.2766 14.3291Z" fill="#000814"/>
<path d="M24.7167 14.2627C24.8139 14.1908 24.9409 14.2202 25.0489 14.2465C25.3757 14.3839 25.6847 14.6937 25.6664 15.0709C25.6249 15.137 25.5767 15.2156 25.4909 15.2246C25.3248 15.2488 25.1614 15.1768 25.0299 15.0813C24.8572 14.9536 24.7083 14.7805 24.6481 14.5715C24.6211 14.4676 24.6201 14.3316 24.7167 14.2627Z" fill="#000814"/>
<path d="M28.7929 14.3204C28.8874 14.2657 29.002 14.3038 29.0958 14.3425C29.3249 14.4529 29.5149 14.6468 29.6208 14.8783C29.6627 14.9832 29.6977 15.1237 29.6153 15.2182C29.5135 15.2982 29.3733 15.2514 29.2688 15.2026C29.0352 15.0798 28.8383 14.8759 28.7431 14.6281C28.7088 14.5284 28.6912 14.3868 28.7929 14.3204Z" fill="#000814"/>
<path d="M14.3791 14.5874C14.4947 14.4375 14.7006 14.3994 14.8792 14.4209C15.2997 14.4866 15.7085 14.8518 15.6825 15.3021C15.6514 15.471 15.5233 15.6188 15.352 15.653C14.9616 15.734 14.5528 15.4969 14.3694 15.1546C14.2783 14.9816 14.2531 14.7497 14.3791 14.5874Z" fill="#000814"/>
<path d="M27.609 14.6661C27.7665 14.6253 27.9239 14.7094 28.0485 14.799C28.2323 14.9437 28.4002 15.141 28.431 15.3805C28.4469 15.485 28.3756 15.6079 28.2607 15.6079C28.0821 15.6124 27.9222 15.51 27.7938 15.3957C27.6505 15.2628 27.5256 15.0943 27.4941 14.8973C27.4781 14.807 27.511 14.6931 27.609 14.6661Z" fill="#000814"/>
<path d="M31.283 14.7406C31.4246 14.7184 31.5575 14.8029 31.6665 14.8849C31.8258 15.0144 31.9642 15.1822 32.0269 15.3802C32.0525 15.4681 32.0604 15.6111 31.9479 15.6398C31.806 15.663 31.6728 15.5848 31.5651 15.5013C31.4021 15.3709 31.2633 15.2006 31.1972 15.0005C31.1688 14.9109 31.1661 14.7641 31.283 14.7406Z" fill="#000814"/>
<path d="M7.62705 15.1935C8.0102 14.7664 8.80557 14.9914 8.97482 15.5188C9.03054 15.6915 8.99351 15.8961 8.86268 16.0259C8.70727 16.1879 8.46742 16.2336 8.25179 16.2055C7.96763 16.1626 7.69143 15.9899 7.57375 15.721C7.49691 15.5503 7.52114 15.3465 7.62705 15.1935Z" fill="#000814"/>
<path d="M30.0246 15.2527C30.0343 15.1821 30.0526 15.0973 30.1315 15.0741C30.2994 15.044 30.4569 15.1433 30.5808 15.2464C30.7341 15.3825 30.8688 15.5552 30.9145 15.7587C30.9376 15.8459 30.9183 15.9677 30.821 16.0003C30.6919 16.0294 30.5687 15.9632 30.4628 15.8978C30.251 15.741 30.0658 15.5199 30.0246 15.2527Z" fill="#000814"/>
<path d="M12.2546 15.185C12.6769 14.9711 13.2344 15.2587 13.3642 15.6993C13.4089 15.8429 13.3833 16.0018 13.2995 16.1261C13.2275 16.1987 13.1417 16.2624 13.0403 16.2853C12.6315 16.377 12.1764 16.0987 12.068 15.6955C12.0116 15.5051 12.0895 15.2943 12.2546 15.185Z" fill="#000814"/>
<path d="M26.2598 15.1102C26.383 15.0673 26.5125 15.1268 26.6163 15.1926C26.7672 15.296 26.8956 15.4463 26.9451 15.6252C26.97 15.7159 26.9628 15.8443 26.8614 15.8841C26.7157 15.926 26.5692 15.8516 26.4564 15.7647C26.3232 15.6581 26.2089 15.5148 26.1716 15.3452C26.1529 15.26 26.1667 15.1444 26.2598 15.1102Z" fill="#000814"/>
<path d="M24.7474 15.3377C24.9343 15.3103 25.1181 15.3972 25.2659 15.5052C25.4746 15.663 25.6501 15.8852 25.7013 16.1462C25.7317 16.2815 25.6843 16.4518 25.5428 16.5027C25.3251 16.5612 25.106 16.4532 24.9388 16.3203C24.736 16.1569 24.5646 15.9281 24.5321 15.6634C24.5089 15.5208 24.5955 15.3584 24.7474 15.3377Z" fill="#000814"/>
<path d="M16.2601 15.4658C16.3743 15.3242 16.5816 15.3266 16.7405 15.3771C16.9838 15.4626 17.1973 15.6738 17.2382 15.9344C17.2659 16.0791 17.1911 16.24 17.0516 16.2964C16.9028 16.3584 16.7391 16.313 16.5958 16.2587C16.421 16.1514 16.267 16.0008 16.2036 15.8015C16.1839 15.688 16.1805 15.5582 16.2601 15.4658Z" fill="#000814"/>
<path d="M29.0016 15.5045C29.166 15.4931 29.3082 15.6011 29.4211 15.7087C29.545 15.8402 29.6637 16.014 29.6318 16.204C29.5962 16.3137 29.4598 16.3161 29.3712 16.2746C29.15 16.1839 28.9735 15.988 28.8977 15.762C28.8621 15.6686 28.8818 15.5204 29.0016 15.5045Z" fill="#000814"/>
<path d="M19.6692 15.8308C19.6782 15.6854 19.7889 15.5712 19.9219 15.5248C20.133 15.4826 20.3413 15.5618 20.5206 15.6681C20.738 15.8384 20.9294 16.0658 20.9668 16.3493C20.9737 16.4735 20.9339 16.5964 20.8505 16.6895C20.6304 16.8456 20.3344 16.7629 20.1271 16.6248C19.8654 16.4524 19.6415 16.1585 19.6692 15.8308Z" fill="#000814"/>
<path d="M32.5908 15.6321C32.7368 15.5885 32.8715 15.6996 32.9729 15.7921C33.0867 15.9163 33.2075 16.0679 33.2003 16.2458C33.1961 16.3455 33.0725 16.3524 33.0026 16.3199C32.8157 16.2427 32.678 16.0773 32.5894 15.9004C32.552 15.8191 32.5198 15.7038 32.5908 15.6321Z" fill="#000814"/>
<path d="M10.0013 15.8182C10.4319 15.7539 10.9227 16.0706 10.9545 16.5233C10.985 16.8023 10.7403 17.0445 10.4717 17.0663C10.1149 17.1096 9.7369 16.9085 9.58703 16.5794C9.50777 16.4063 9.51088 16.1858 9.62822 16.0304C9.71544 15.9103 9.857 15.8401 10.0013 15.8182Z" fill="#000814"/>
<path d="M31.4231 15.9173C31.5643 15.8858 31.6924 15.9854 31.7924 16.0734C31.9122 16.1959 32.0288 16.3489 32.0333 16.5275C32.0392 16.5932 31.989 16.6562 31.9208 16.6545C31.809 16.6503 31.7097 16.5877 31.6291 16.5153C31.5069 16.4053 31.3978 16.2689 31.3608 16.1059C31.3504 16.0394 31.3459 15.945 31.4231 15.9173Z" fill="#000814"/>
<path d="M18.0551 16.0468C18.2679 15.9974 18.4922 16.0621 18.6708 16.1808C18.8989 16.3317 19.0865 16.5657 19.1311 16.8408C19.1609 16.9994 19.1159 17.1818 18.982 17.2811C18.8241 17.4029 18.6033 17.387 18.4254 17.3216C18.0793 17.1925 17.7834 16.8706 17.7536 16.493C17.7311 16.2971 17.8592 16.0918 18.0551 16.0468Z" fill="#000814"/>
<path d="M14.352 16.1562C14.6282 16.071 14.9463 16.3078 14.9529 16.5951C14.9508 16.6944 14.8875 16.7889 14.7961 16.8273C14.5175 16.9204 14.1804 16.6812 14.189 16.385C14.1852 16.2836 14.2572 16.188 14.352 16.1562Z" fill="#000814"/>
<path d="M5.63936 16.2669C5.93944 16.2154 6.30736 16.4068 6.33124 16.7342C6.34717 16.9979 6.08031 17.1897 5.83388 17.1758C5.5601 17.188 5.24687 16.9938 5.23268 16.7006C5.21226 16.4694 5.42616 16.2929 5.63936 16.2669Z" fill="#000814"/>
<path d="M26.2174 16.3488C26.2846 16.2626 26.4064 16.2803 26.5016 16.2945C26.8217 16.4222 27.1208 16.7496 27.0626 17.1151C27.0041 17.1937 26.9083 17.2487 26.8086 17.2214C26.5552 17.1691 26.3528 16.9697 26.2365 16.7462C26.1776 16.6264 26.1347 16.4672 26.2174 16.3488Z" fill="#000814"/>
<path d="M33.852 16.5019C33.8894 16.4483 33.9787 16.4725 34.0299 16.4971C34.1915 16.586 34.3175 16.7411 34.377 16.9155C34.3937 16.9754 34.4127 17.0702 34.3424 17.1028C34.1988 17.1246 34.087 17.0072 33.9994 16.911C33.9081 16.7992 33.8046 16.6528 33.852 16.5019Z" fill="#000814"/>
<path d="M11.9076 16.7389C12.1956 16.5084 12.6767 16.7901 12.6403 17.1487C12.6289 17.3045 12.4773 17.3997 12.3337 17.4145C12.2184 17.4028 12.1 17.3744 12.0094 17.2986C11.8373 17.1757 11.7564 16.9099 11.9076 16.7389Z" fill="#000814"/>
<path d="M7.22212 16.739C7.571 16.5905 8.01403 16.7279 8.20785 17.0557C8.30892 17.2187 8.3148 17.4295 8.23104 17.6012C8.02234 17.9338 7.53743 17.9629 7.23077 17.7556C7.01757 17.6251 6.8722 17.3686 6.92169 17.1163C6.94938 16.9481 7.07779 16.8183 7.22212 16.739Z" fill="#000814"/>
<path d="M24.5613 16.8747C24.58 16.7829 24.6638 16.7328 24.7434 16.6992C24.8912 16.6947 25.0389 16.7359 25.1597 16.8221C25.4079 16.9917 25.6114 17.2717 25.5965 17.5842C25.5633 17.6725 25.5079 17.7676 25.4058 17.7832C25.1663 17.822 24.9462 17.6693 24.7887 17.5046C24.6392 17.336 24.5049 17.1076 24.5613 16.8747Z" fill="#000814"/>
<path d="M15.9043 17.1263C15.9455 17.0152 16.0268 16.9089 16.1486 16.883C16.4366 16.8203 16.7318 17.0114 16.8554 17.2671C16.9281 17.4163 16.9402 17.6233 16.8101 17.7451C16.7329 17.8247 16.6176 17.8393 16.5128 17.8431C16.1732 17.796 15.8645 17.4828 15.9043 17.1263Z" fill="#000814"/>
<path d="M19.7145 17.0712C19.8381 16.9948 19.9942 16.9906 20.1274 17.0446C20.3752 17.1415 20.5763 17.3686 20.6217 17.6337C20.6487 17.7714 20.5864 17.9334 20.45 17.9878C20.3008 18.048 20.1368 17.9923 20.0014 17.923C19.8073 17.795 19.6422 17.596 19.6183 17.3578C19.6027 17.2519 19.6501 17.1515 19.7145 17.0712Z" fill="#000814"/>
<path d="M23.0458 17.0651C23.2528 17.0132 23.4583 17.0994 23.6356 17.1998C23.8827 17.3749 24.09 17.622 24.1703 17.9183C24.2101 18.0803 24.2136 18.2807 24.0841 18.4053C23.9893 18.5053 23.8418 18.5143 23.7131 18.5036C23.585 18.4738 23.4625 18.423 23.3521 18.352C23.0136 18.1222 22.7204 17.7186 22.8073 17.2901C22.8547 17.1887 22.9316 17.0921 23.0458 17.0651Z" fill="#000814"/>
<path d="M27.6823 17.12C27.882 17.0542 28.0738 17.2027 28.2001 17.3446C28.3192 17.4834 28.4306 17.6707 28.3794 17.8596C28.3444 17.9714 28.2074 17.988 28.1125 17.9503C27.8768 17.8659 27.6951 17.6568 27.6148 17.4232C27.5795 17.3232 27.5774 17.1788 27.6823 17.12Z" fill="#000814"/>
<path d="M9.27785 17.8132C9.28789 17.6367 9.44918 17.518 9.61462 17.499C9.90466 17.4837 10.1947 17.7326 10.1487 18.0368C10.1089 18.1372 10.0435 18.2369 9.93616 18.2739C9.6385 18.3989 9.24808 18.1434 9.27785 17.8132Z" fill="#000814"/>
<path d="M17.702 17.6103C18.1426 17.4424 18.6212 17.782 18.7798 18.1897C18.8528 18.3707 18.8511 18.5863 18.7441 18.7542C18.661 18.8376 18.5551 18.9058 18.4347 18.9117C18.1495 18.938 17.8778 18.7819 17.6968 18.5715C17.5327 18.3852 17.4337 18.1257 17.4922 17.8782C17.5182 17.7622 17.6037 17.6716 17.702 17.6103Z" fill="#000814"/>
<path d="M26.2341 17.584C26.3968 17.5373 26.5605 17.6249 26.6854 17.7228C26.8547 17.8623 26.9917 18.0572 27.0219 18.278C27.0336 18.3798 27.0052 18.5113 26.8997 18.5532C26.7592 18.5999 26.6093 18.5417 26.4947 18.4594C26.2999 18.3202 26.1424 18.1126 26.1015 17.8734C26.0804 17.7633 26.1171 17.6232 26.2341 17.584Z" fill="#000814"/>
<path d="M21.2454 17.779C21.3322 17.6904 21.4641 17.6779 21.5818 17.6838C21.6662 17.7008 21.7476 17.7284 21.8268 17.7617C22.1172 17.9143 22.3401 18.1926 22.4059 18.5162C22.4083 18.6252 22.3997 18.7367 22.3543 18.8377C22.2533 18.9838 22.0605 19.0298 21.8947 18.9848C21.5534 18.9007 21.2748 18.6193 21.1647 18.2891C21.1097 18.1213 21.1087 17.9091 21.2454 17.779Z" fill="#000814"/>
<path d="M4.80774 17.7219C5.1369 17.6367 5.53251 17.771 5.68964 18.0849C5.79071 18.285 5.75575 18.5477 5.59446 18.7065C5.28019 19.0395 4.66826 18.9672 4.42113 18.5885C4.32699 18.4456 4.30726 18.2587 4.36333 18.0977C4.43636 17.9084 4.61219 17.7689 4.80774 17.7219Z" fill="#000814"/>
<path d="M24.6391 18.0336C24.8121 17.9737 24.9987 18.0537 25.1392 18.1551C25.3545 18.3205 25.5355 18.5624 25.5521 18.8418C25.5629 18.965 25.5061 19.1093 25.3815 19.1522C25.2192 19.1962 25.0485 19.1335 24.916 19.0408C24.7007 18.8888 24.5256 18.6597 24.483 18.3956C24.4601 18.2606 24.4965 18.0865 24.6391 18.0336Z" fill="#000814"/>
<path d="M29.1583 18.0406C29.4182 18.0178 29.6269 18.2621 29.6767 18.4975C29.7044 18.5861 29.6497 18.6647 29.5688 18.6958C29.3389 18.6453 29.1562 18.4452 29.1119 18.2171C29.096 18.1534 29.1347 18.096 29.1583 18.0406Z" fill="#000814"/>
<path d="M6.66882 18.4098C6.98828 18.2142 7.48565 18.4202 7.51126 18.8092C7.54622 19.1058 7.23991 19.3221 6.96544 19.2851C6.7332 19.2526 6.50372 19.0826 6.47396 18.8383C6.44627 18.6701 6.53453 18.5064 6.66882 18.4098Z" fill="#000814"/>
<path d="M27.6106 18.4755C27.6549 18.389 27.7597 18.3755 27.8466 18.3717C28.1374 18.4344 28.3589 18.6669 28.4935 18.922C28.5658 19.0691 28.6209 19.2522 28.5454 19.4087C28.4997 19.5049 28.3828 19.5125 28.29 19.5132C27.9944 19.4291 27.7622 19.1906 27.6365 18.9158C27.5784 18.7798 27.5369 18.6136 27.6106 18.4755Z" fill="#000814"/>
<path d="M15.6218 18.7383C15.6609 18.6071 15.7606 18.4856 15.9025 18.4655C16.1964 18.4157 16.4857 18.6282 16.5847 18.8982C16.6401 19.0525 16.63 19.2512 16.4961 19.363C16.4006 19.4495 16.2635 19.4478 16.1431 19.4405C15.8361 19.3616 15.5803 19.066 15.6218 18.7383Z" fill="#000814"/>
<path d="M22.8589 18.5575C22.9219 18.5253 22.9887 18.5015 23.0579 18.4835C23.1773 18.4852 23.2971 18.506 23.4061 18.5561C23.7699 18.7482 24.0609 19.1366 24.0364 19.5616C24.0111 19.6758 23.9495 19.7814 23.8491 19.8447C23.6248 19.9243 23.3853 19.8382 23.2012 19.7059C22.9658 19.5194 22.7834 19.2598 22.7315 18.9601C22.7194 18.815 22.755 18.6641 22.8589 18.5575Z" fill="#000814"/>
<path d="M19.5912 18.5923C19.9027 18.5041 20.2091 18.7478 20.3236 19.025C20.3859 19.1693 20.396 19.3597 20.2807 19.4812C20.1658 19.5888 19.9875 19.5802 19.8519 19.5203C19.6134 19.4171 19.4241 19.1832 19.404 18.9201C19.3898 18.7862 19.4583 18.638 19.5912 18.5923Z" fill="#000814"/>
<path d="M2.73202 18.8304C2.99576 18.7345 3.37787 18.8768 3.40106 19.1862C3.43359 19.4953 3.0944 19.7126 2.81335 19.6701C2.60084 19.6535 2.38348 19.4856 2.3859 19.2585C2.3769 19.0533 2.54581 18.8861 2.73202 18.8304Z" fill="#000814"/>
<path d="M26.2927 19.0614C26.3269 18.9832 26.4235 18.9905 26.4941 18.9957C26.7035 19.096 26.8814 19.3203 26.8236 19.5643C26.7097 19.6609 26.5516 19.6003 26.4581 19.5065C26.3397 19.3972 26.2352 19.2262 26.2927 19.0614Z" fill="#000814"/>
<path d="M17.5423 19.1729C17.9452 19.1193 18.3221 19.42 18.4571 19.7852C18.5363 19.9946 18.5266 20.2666 18.3456 20.4217C18.2259 20.5324 18.0518 20.5338 17.8995 20.5169C17.4845 20.4151 17.1384 20.0036 17.1865 19.5654C17.2038 19.3737 17.3557 19.2134 17.5423 19.1729Z" fill="#000814"/>
<path d="M29.1059 19.277C29.2042 19.2181 29.323 19.2638 29.4164 19.3119C29.6275 19.4338 29.7843 19.6401 29.8691 19.8671C29.9075 19.9838 29.9307 20.126 29.8574 20.2347C29.7812 20.3309 29.6393 20.3036 29.5431 20.2561C29.2984 20.1329 29.117 19.8979 29.0364 19.6387C29.0018 19.5207 28.9872 19.3528 29.1059 19.277Z" fill="#000814"/>
<path d="M24.5366 19.4147C24.6785 19.3458 24.8446 19.3932 24.9769 19.4624C25.2319 19.6071 25.4282 19.8567 25.504 20.1405C25.54 20.2869 25.5417 20.4665 25.4278 20.5807C25.3434 20.6652 25.2139 20.6631 25.1039 20.6496C24.81 20.5645 24.5785 20.3281 24.4518 20.0553C24.3802 19.9069 24.3539 19.7355 24.394 19.5746C24.4303 19.513 24.4688 19.4455 24.5366 19.4147Z" fill="#000814"/>
<path d="M4.12388 19.502C4.33432 19.3733 4.62402 19.3957 4.80884 19.5602C4.98294 19.7024 5.03451 19.9655 4.91821 20.1603C4.82892 20.2714 4.70051 20.3559 4.55514 20.3645C4.28829 20.396 3.99651 20.2181 3.94563 19.9457C3.90721 19.7768 3.99028 19.6045 4.12388 19.502Z" fill="#000814"/>
<path d="M21.2199 19.6593C21.2628 19.5953 21.3203 19.5306 21.4044 19.5302C21.6034 19.5199 21.7754 19.6697 21.8627 19.8383C21.918 19.9546 21.9447 20.1172 21.8467 20.2193C21.7855 20.2875 21.6861 20.2709 21.6048 20.2702C21.3622 20.1809 21.1649 19.9258 21.2199 19.6593Z" fill="#000814"/>
<path d="M27.8583 19.8656C27.9445 19.8351 28.0376 19.8801 28.1054 19.9334C28.2411 20.0449 28.3546 20.2158 28.3262 20.3993C28.3113 20.4841 28.2103 20.5177 28.1372 20.4865C27.9711 20.4284 27.8472 20.2754 27.796 20.1106C27.7759 20.0283 27.7655 19.9071 27.8583 19.8656Z" fill="#000814"/>
<path d="M19.2682 20.1633C19.6174 20.0924 19.9418 20.4153 19.9902 20.7455C20.0286 20.9272 19.9144 21.1487 19.7144 21.1588C19.3637 21.1761 19.0529 20.8466 19.0429 20.5043C19.0322 20.3585 19.118 20.1973 19.2682 20.1633Z" fill="#000814"/>
<path d="M22.6785 20.4709C22.6851 20.3387 22.7651 20.204 22.8949 20.1611C23.006 20.1206 23.1254 20.1494 23.2347 20.1819C23.4182 20.2639 23.5694 20.4031 23.6854 20.5657C23.7117 20.6159 23.7404 20.6654 23.7671 20.7159C23.8221 20.8433 23.8401 20.9818 23.8422 21.1199C23.8107 21.2403 23.7453 21.3698 23.6162 21.4068C23.4165 21.4646 23.2088 21.3711 23.0562 21.2452C22.8298 21.0572 22.6585 20.7727 22.6785 20.4709Z" fill="#000814"/>
<path d="M30.4602 20.3374C30.4886 20.2789 30.5107 20.2007 30.5824 20.182C30.681 20.1585 30.78 20.2055 30.8603 20.2602C31.0915 20.4253 31.2469 20.6918 31.2712 20.976C31.2452 21.0383 31.2279 21.1248 31.1517 21.1445C31.0469 21.1753 30.9417 21.1165 30.8582 21.058C30.6333 20.8881 30.474 20.6223 30.4602 20.3374Z" fill="#000814"/>
<path d="M15.6061 20.2487C15.9277 20.1476 16.2707 20.4224 16.3115 20.7416C16.3468 20.9226 16.2423 21.1354 16.0523 21.1745C15.7065 21.2486 15.3576 20.9167 15.3829 20.5706C15.3805 20.4304 15.475 20.2968 15.6061 20.2487Z" fill="#000814"/>
<path d="M26.2574 20.4475C26.3432 20.4167 26.437 20.4475 26.5149 20.4873C26.706 20.5901 26.8468 20.7784 26.9032 20.9864C26.932 21.0996 26.9344 21.2491 26.8288 21.3246C26.7184 21.3872 26.5859 21.3381 26.4876 21.2754C26.3079 21.1543 26.1691 20.9619 26.1328 20.7462C26.1127 20.6355 26.1394 20.4908 26.2574 20.4475Z" fill="#000814"/>
<path d="M2.107 20.4925C2.33128 20.4001 2.64486 20.4842 2.72689 20.7299C2.80338 20.9681 2.61717 21.2162 2.38908 21.2771C2.16618 21.354 1.86922 21.2515 1.80207 21.0103C1.74012 20.7888 1.90106 20.5638 2.107 20.4925Z" fill="#000814"/>
<path d="M29.3063 20.7223C29.4053 20.6887 29.5077 20.7465 29.5811 20.8102C29.7192 20.9331 29.8313 21.1099 29.8178 21.3017C29.8165 21.3608 29.7763 21.4308 29.7109 21.4321C29.6029 21.4439 29.5077 21.375 29.4343 21.3044C29.3257 21.1909 29.2381 21.0462 29.2284 20.8863C29.2236 20.8226 29.2499 20.7555 29.3063 20.7223Z" fill="#000814"/>
<path d="M16.8671 21.2914C16.9065 21.091 17.0851 20.9418 17.2866 20.9245C17.7299 20.9145 18.1162 21.3156 18.1404 21.7483C18.1522 21.9255 18.0847 22.1186 17.9314 22.219C17.8352 22.2875 17.7137 22.2996 17.5988 22.2965C17.1412 22.2321 16.7702 21.7517 16.8671 21.2914Z" fill="#000814"/>
<path d="M24.2804 21.453C24.26 21.2602 24.3295 21.0373 24.5275 20.9664C24.6511 20.948 24.7774 20.967 24.8927 21.0152C25.2371 21.1872 25.4769 21.5319 25.5472 21.9078C25.5676 22.0988 25.507 22.321 25.3135 22.4003C25.1872 22.4193 25.0574 22.4065 24.9404 22.3553C24.5954 22.1798 24.3462 21.8337 24.2804 21.453Z" fill="#000814"/>
<path d="M32.0329 21.251C32.2022 21.2437 32.3254 21.3777 32.4074 21.5099C32.4645 21.6117 32.5154 21.7342 32.4808 21.8522C32.4521 21.9325 32.3437 21.9166 32.2866 21.8789C32.1323 21.7854 32.0253 21.6176 31.9917 21.4417C31.9744 21.3735 32.0021 21.3092 32.0329 21.251Z" fill="#000814"/>
<path d="M0.306086 21.4539C0.497487 21.3833 0.764341 21.4414 0.841525 21.6491C0.920785 21.9031 0.66916 22.1354 0.429303 22.1485C0.25313 22.1696 0.0447693 22.0744 0.0056584 21.8886C-0.0324142 21.6909 0.125414 21.5096 0.306086 21.4539Z" fill="#000814"/>
<path d="M30.6947 21.6239C30.7885 21.5533 30.9121 21.6212 30.9906 21.6855C31.1647 21.8371 31.3052 22.0666 31.2744 22.3051C31.2613 22.4165 31.1249 22.4331 31.0425 22.3885C30.8498 22.2892 30.7182 22.0946 30.6597 21.8897C30.6435 21.8029 30.6255 21.6928 30.6947 21.6239Z" fill="#000814"/>
<path d="M26.1276 21.9101C26.2823 21.8579 26.4474 21.9298 26.5748 22.0178C26.8122 22.1926 26.9873 22.458 27.0382 22.7501C27.0611 22.8844 27.0534 23.0402 26.9579 23.1464C26.8748 23.2389 26.7357 23.2454 26.6246 23.2094C26.3965 23.1402 26.2248 22.9578 26.0944 22.7661C26.0746 22.7315 26.0552 22.6972 26.0359 22.6633C25.9569 22.4829 25.9009 22.2808 25.9545 22.0853C25.9933 22.0119 26.0428 21.935 26.1276 21.9101Z" fill="#000814"/>
<path d="M18.8699 21.9593C18.9779 21.9118 19.1018 21.9004 19.2126 21.9475C19.5016 22.0659 19.7034 22.4148 19.5933 22.7207C19.5317 22.8263 19.4195 22.9055 19.2932 22.8945C18.9599 22.8713 18.6982 22.5265 18.7356 22.2002C18.7425 22.1036 18.8048 22.0254 18.8699 21.9593Z" fill="#000814"/>
<path d="M22.7771 22.1099C22.9093 22.0054 23.0969 22.0535 23.2097 22.1628C23.3658 22.302 23.4873 22.5353 23.4008 22.7429C23.3693 22.8253 23.2796 22.8513 23.2018 22.8668C22.8781 22.8125 22.6082 22.4179 22.7771 22.1099Z" fill="#000814"/>
<path d="M15.3304 22.1515C15.654 22.0854 15.96 22.4056 15.9389 22.7226C15.9371 22.9022 15.7859 23.0701 15.6031 23.0749C15.328 23.0884 15.0888 22.8455 15.0608 22.58C15.031 22.3976 15.14 22.1889 15.3304 22.1515Z" fill="#000814"/>
<path d="M32.0847 22.5952C32.163 22.5942 32.2498 22.5883 32.3114 22.6479C32.4686 22.7811 32.5932 22.9898 32.5624 23.2016C32.5544 23.274 32.4734 23.2806 32.417 23.2854C32.1841 23.1539 31.9996 22.8666 32.0847 22.5952Z" fill="#000814"/>
<path d="M24.3603 22.6973C24.4659 22.6299 24.5981 22.6489 24.7126 22.6783C25.0075 22.8012 25.2284 23.0667 25.3273 23.3671C25.3827 23.5308 25.3872 23.7132 25.3246 23.8759C25.2716 23.9499 25.2031 24.0233 25.1089 24.0385C24.9369 24.0693 24.7653 23.996 24.6327 23.8908C24.3914 23.6987 24.2191 23.4103 24.1955 23.0999C24.1869 22.9524 24.2288 22.7818 24.3603 22.6973Z" fill="#000814"/>
<path d="M16.7283 22.9142C16.8411 22.8359 16.9833 22.8027 17.1183 22.8359C17.4942 22.919 17.759 23.3343 17.6815 23.7102C17.6545 23.8473 17.5586 23.9605 17.4385 24.028C17.0121 24.1761 16.5832 23.7635 16.5697 23.3468C16.5528 23.1862 16.6144 23.0266 16.7283 22.9142Z" fill="#000814"/>
<path d="M25.9795 23.6364C26.1066 23.5132 26.2976 23.5173 26.452 23.5834C26.8095 23.7638 27.0466 24.1258 27.1369 24.5093C27.1681 24.7031 27.1522 24.9253 27.0023 25.0693C26.896 25.1226 26.7752 25.1361 26.6603 25.1056C26.5053 25.053 26.3734 24.953 26.2554 24.8426C26.0706 24.6384 25.937 24.3902 25.8812 24.1199C25.8605 23.9534 25.8771 23.7752 25.9795 23.6364Z" fill="#000814"/>
<path d="M33.5404 23.674C33.5716 23.6353 33.6342 23.6599 33.6716 23.6799C33.8014 23.7592 33.8807 23.8994 33.9309 24.0392C33.9544 24.1209 33.9776 24.2223 33.9225 24.297C33.8765 24.3358 33.8073 24.3043 33.7644 24.2752C33.6412 24.1828 33.5605 24.042 33.5183 23.8962C33.5027 23.8243 33.4819 23.7322 33.5404 23.674Z" fill="#000814"/>
<path d="M18.5266 23.7026C18.9925 23.551 19.412 24.2549 19.0486 24.5869C18.8063 24.7042 18.5315 24.5415 18.4221 24.3186C18.3134 24.1234 18.3114 23.8261 18.5266 23.7026Z" fill="#000814"/>
<path d="M14.8134 24.4287C14.9276 24.2926 15.1297 24.2996 15.2796 24.3664C15.4149 24.4564 15.507 24.5955 15.5451 24.753C15.5437 24.8668 15.5419 24.9928 15.4665 25.0863C15.382 25.2078 15.2173 25.2593 15.0778 25.2119C14.7611 25.1271 14.5967 24.6855 14.8134 24.4287Z" fill="#000814"/>
<path d="M27.7494 24.7402C27.8788 24.6737 28.0283 24.7381 28.1346 24.8201C28.3402 24.9824 28.4807 25.2254 28.5229 25.484C28.5378 25.6144 28.5392 25.7778 28.4226 25.8654C28.3038 25.9453 28.1512 25.883 28.046 25.81C27.8227 25.6425 27.6673 25.3822 27.6293 25.106C27.6144 24.9769 27.6286 24.8153 27.7494 24.7402Z" fill="#000814"/>
<path d="M24.3462 24.9732C24.3743 24.8749 24.4352 24.7645 24.5518 24.7631C24.7688 24.7613 24.9322 24.9493 25.0139 25.1334C25.0751 25.2788 25.1046 25.4781 24.98 25.5993C24.8938 25.6761 24.7726 25.6367 24.6785 25.601C24.4722 25.4633 24.339 25.2231 24.3462 24.9732Z" fill="#000814"/>
<path d="M16.2936 25.0835C16.4233 24.9437 16.6421 24.9298 16.8103 25.0018C17.1204 25.1413 17.3039 25.5137 17.226 25.8442C17.2 25.9616 17.127 26.0626 17.0349 26.1384C16.8529 26.245 16.6147 26.2142 16.4524 26.0851C16.3098 25.9844 16.2264 25.8266 16.1662 25.6674C16.1264 25.4677 16.1395 25.234 16.2936 25.0835Z" fill="#000814"/>
<path d="M25.8809 25.7641C25.9017 25.6225 26.0107 25.5028 26.1554 25.4844C26.3226 25.4955 26.4731 25.5807 26.5925 25.6945C26.7909 25.897 26.911 26.1656 26.9421 26.4463C26.9387 26.6027 26.8909 26.7716 26.7469 26.8551C26.5216 26.9101 26.3105 26.7737 26.1689 26.6114C25.9688 26.3823 25.8328 26.0721 25.8809 25.7641Z" fill="#000814"/>
<path d="M17.9034 26.044C17.9238 25.9156 18.0203 25.7914 18.1546 25.7734C18.282 25.7495 18.399 25.8208 18.5001 25.8886C18.6845 26.0856 18.769 26.4255 18.561 26.6369C18.4796 26.6785 18.3862 26.7096 18.2955 26.683C18.0252 26.6144 17.857 26.3116 17.9034 26.044Z" fill="#000814"/>
<path d="M27.6507 26.5541C27.8269 26.4912 28.0079 26.576 28.1432 26.6877C28.4218 26.9539 28.6091 27.3367 28.5769 27.7278C28.5554 27.8597 28.481 27.9853 28.3484 28.0293C28.2027 28.0327 28.066 27.9743 27.9535 27.8853C27.6635 27.6309 27.4721 27.2512 27.4863 26.8611C27.4994 26.741 27.5538 26.6282 27.6507 26.5541Z" fill="#000814"/>
<path d="M15.9339 27.4044C16.0921 27.3296 16.2922 27.3414 16.4296 27.4545C16.7404 27.6806 16.8069 28.2143 16.4863 28.4614C16.3721 28.5189 16.2368 28.5403 16.115 28.4946C15.691 28.3413 15.557 27.6781 15.9339 27.4044Z" fill="#000814"/>
<path d="M26.0833 27.5754C26.1854 27.5297 26.3037 27.5723 26.391 27.6325C26.5965 27.7862 26.7222 28.0378 26.7367 28.2929C26.7357 28.3999 26.7142 28.5252 26.6211 28.5923C26.5128 28.6598 26.3737 28.6145 26.2792 28.5438C26.0829 28.3967 25.9604 28.1583 25.9407 27.9153C25.932 27.791 25.958 27.6343 26.0833 27.5754Z" fill="#000814"/>
<path d="M27.5538 28.8144C27.5822 28.6735 27.6822 28.5486 27.8335 28.5389C27.9934 28.5641 28.1301 28.6586 28.2377 28.7767C28.3949 28.9625 28.4952 29.1885 28.5482 29.4256C28.5672 29.6163 28.5672 29.8482 28.3955 29.9746C28.3035 29.996 28.2083 29.9891 28.1211 29.9548C27.7334 29.7288 27.5126 29.2571 27.5538 28.8144Z" fill="#000814"/>
<path d="M15.6065 29.7978C15.854 29.7383 16.0731 29.9602 16.1187 30.1889C16.1852 30.4271 16.0911 30.7441 15.8349 30.8223C15.5861 30.8947 15.3556 30.669 15.3106 30.4374C15.2497 30.1952 15.3386 29.867 15.6065 29.7978Z" fill="#000814"/>
<path d="M29.0903 30.0406C29.1418 29.9184 29.2713 29.8668 29.3966 29.899C29.679 30.0299 29.8434 30.322 29.9355 30.6065C30.0009 30.8259 30.0386 31.1014 29.8659 31.2828C29.7371 31.3305 29.6042 31.2779 29.5021 31.1983C29.1906 30.9142 28.9909 30.4621 29.0903 30.0406Z" fill="#000814"/>
<path d="M27.6842 30.6572C27.7998 30.5828 27.9417 30.6555 28.0293 30.741C28.219 30.9307 28.3256 31.2079 28.3 31.4762C28.2903 31.5748 28.2321 31.6959 28.1193 31.7015C28.0065 31.708 27.9068 31.6378 27.8341 31.5582C27.6707 31.3786 27.5721 31.1345 27.5842 30.8902C27.5883 30.8047 27.6147 30.7123 27.6842 30.6572Z" fill="#000814"/>
<path d="M28.8756 32.2156C28.9005 32.1225 28.9462 32.0322 29.0338 31.9841C29.2605 31.9647 29.41 32.1616 29.518 32.3319C29.6236 32.5368 29.6925 32.7611 29.6942 32.9937C29.6797 33.1096 29.6378 33.2276 29.5364 33.2958C29.3432 33.3114 29.2041 33.1595 29.0975 33.02C28.9455 32.7815 28.8538 32.5008 28.8756 32.2156Z" fill="#000814"/>
<path d="M29.8383 34.4667C29.8539 34.3473 29.9037 34.1898 30.0553 34.2051C30.2755 34.3217 30.3817 34.5626 30.4551 34.7883C30.4641 34.8253 30.4738 34.863 30.4845 34.9011C30.5001 35.0607 30.5337 35.2444 30.4368 35.3857C30.3928 35.4459 30.3139 35.4227 30.253 35.4158C29.9657 35.1946 29.8518 34.816 29.8383 34.4667Z" fill="#000814"/>
<path d="M15.0094 42L13.5984 39.8785L12.3551 42H10.4408L12.661 38.4774L10.3915 35.0732H12.3551L13.7464 37.165L14.9699 35.0732H16.8842L14.6838 38.5662L16.973 42H15.0094ZM17.5931 40.6482C17.8167 40.4706 17.9187 40.3883 17.899 40.4015C18.5436 39.8687 19.0501 39.4312 19.4185 39.0892C19.7935 38.7471 20.1092 38.3886 20.3658 38.0136C20.6223 37.6387 20.7506 37.2736 20.7506 36.9184C20.7506 36.6486 20.6881 36.4381 20.5631 36.2868C20.4381 36.1355 20.2507 36.0599 20.0007 36.0599C19.7507 36.0599 19.5534 36.1553 19.4086 36.3461C19.2705 36.5302 19.2014 36.7934 19.2014 37.1354H17.5733C17.5865 36.5763 17.7049 36.1092 17.9286 35.7343C18.1588 35.3593 18.4581 35.083 18.8265 34.9054C19.2014 34.7278 19.6159 34.639 20.0698 34.639C20.8526 34.639 21.4413 34.8396 21.836 35.2409C22.2373 35.6422 22.4379 36.1652 22.4379 36.8098C22.4379 37.5137 22.1978 38.1682 21.7176 38.7734C21.2374 39.372 20.6256 39.9575 19.8823 40.5298H22.5464V41.9013H17.5931V40.6482Z" fill="black"/>
</svg>
