<svg width="33" height="33" viewBox="0 0 33 33" fill="none" xmlns="http://www.w3.org/2000/svg">
<path d="M32.8986 16.6894C32.8986 15.347 32.7896 14.3674 32.5539 13.3516H17.2251V19.4104H26.2228C26.0414 20.9162 25.0618 23.1837 22.8849 24.7075L22.8544 24.9103L27.7011 28.665L28.0369 28.6985C31.1207 25.8504 32.8986 21.6599 32.8986 16.6894Z" fill="#000814"/>
<path d="M17.225 32.6532C21.6331 32.6532 25.3337 31.2018 28.0367 28.6985L22.8848 24.7075C21.5061 25.669 19.6558 26.3401 17.225 26.3401C12.9075 26.3401 9.24316 23.4922 7.93692 19.5557L7.74545 19.5719L2.7058 23.4722L2.63989 23.6554C5.32467 28.9887 10.8394 32.6532 17.225 32.6532Z" fill="#000814"/>
<path d="M7.93692 19.5555C7.59225 18.5397 7.39278 17.4512 7.39278 16.3265C7.39278 15.2017 7.59225 14.1133 7.91878 13.0975L7.90965 12.8811L2.80685 8.91821L2.63989 8.99763C1.53337 11.2108 0.898438 13.6961 0.898438 16.3265C0.898438 18.9569 1.53337 21.4421 2.63989 23.6552L7.93692 19.5555Z" fill="#000814"/>
<path d="M17.225 6.31288C20.2907 6.31288 22.3587 7.63714 23.5379 8.74379L28.1455 4.2449C25.3157 1.61452 21.6331 0 17.225 0C10.8394 0 5.32467 3.66437 2.63989 8.99766L7.91878 13.0975C9.24317 9.16099 12.9075 6.31288 17.225 6.31288Z" fill="#000814"/>
</svg>
