<svg width="25" height="54" viewBox="0 0 25 54" fill="none" xmlns="http://www.w3.org/2000/svg">
<path d="M8.0254 0.274833C8.61631 -0.0465569 9.32449 -0.0521954 9.96727 0.085382C10.9968 0.322196 11.8449 1.0191 12.8711 1.26156C13.5127 1.36079 14.1634 1.27509 14.8084 1.26268C16.3218 1.20743 17.8971 1.19615 19.3214 1.78593C20.501 2.237 21.4392 3.19666 21.914 4.36043C22.0357 4.61754 21.914 4.9051 21.9726 5.17236C22.568 5.97866 23.054 6.85825 23.5085 7.74912C23.8062 8.36709 24.1197 8.99408 24.2392 9.67408C24.2911 10.0101 23.9833 10.212 23.787 10.4285C23.5435 10.6698 23.3157 11.0262 22.9232 10.9946C22.056 10.9878 21.1877 11.0171 20.3205 10.9765C20.3668 10.4071 20.9577 10.2255 21.4302 10.1387C21.3727 9.89736 21.1584 9.75076 20.9893 9.5895C19.5616 8.25996 17.622 7.6262 15.7139 7.41984C14.8704 7.34203 14.0134 7.33752 13.1755 7.47622C13.3966 8.34454 13.4687 9.24217 13.5702 10.1297C13.63 10.3935 13.4755 10.6304 13.3639 10.8559C12.844 11.0318 12.2926 10.9833 11.7535 10.9946C11.1998 10.9935 10.645 11.0059 10.0913 10.9856C10.106 10.4443 10.7036 10.2154 11.157 10.1387C10.8333 8.27124 9.48462 6.68008 7.81791 5.82755C6.90561 5.30881 5.86476 5.05508 4.81939 5.03817C4.77654 5.21634 4.73256 5.39452 4.68746 5.57269C4.3469 5.45541 4.14391 5.12838 3.81914 4.98291C3.45603 4.77767 3.02751 4.76301 2.62492 4.83406C2.37683 4.84759 2.12085 4.86225 1.88854 4.75737C1.88854 4.68746 1.8908 4.54763 1.8908 4.47771C2.14678 4.30517 2.44562 4.19015 2.6565 3.95897C2.24602 3.94883 1.8908 4.23751 1.48032 4.19466C1.2717 4.11347 1.14766 3.90597 0.993164 3.75374C0.993164 3.7075 0.994292 3.61729 0.994292 3.57218C1.48483 3.20907 1.99342 2.86963 2.49637 2.52456C2.79182 2.37796 2.68356 1.94268 2.98465 1.79608C3.40415 1.5198 3.76614 1.12623 4.26119 0.986401C4.05257 0.750715 4.20142 0.289493 4.54875 0.339111C4.92089 0.30528 5.13853 0.662756 5.44751 0.773269C6.32372 0.743949 7.23602 0.698842 8.0254 0.274833Z" fill="#000814"/>
<path d="M7.08941 6.0802C8.23626 6.53466 9.21396 7.40072 9.89959 8.41789C9.48912 9.31327 9.25681 10.3958 8.39752 10.9868C7.41982 11.0116 6.43986 11.0319 5.46216 10.9935C5.5535 10.4049 6.17824 10.2425 6.67329 10.1466C7.06234 9.58617 7.06685 8.87347 7.16496 8.22167C7.21909 7.50898 7.21909 6.785 7.08941 6.0802Z" fill="#000814"/>
<path d="M16.208 8.00403C17.2421 8.19122 18.31 8.40323 19.2088 8.97835C18.6326 9.65947 18.124 10.4139 17.418 10.971C16.4516 10.9879 15.4796 11.0341 14.5154 10.9552C14.5876 10.7781 14.6507 10.5853 14.8063 10.4613C15.0995 10.1455 15.6814 10.2887 15.8776 9.85569C16.1449 9.27718 16.0941 8.61974 16.208 8.00403Z" fill="#000814"/>
<path d="M6.53179 16.8501C6.6366 16.7787 6.74037 16.6729 6.87653 16.6784C7.00014 16.7178 7.06944 16.8369 7.14814 16.9312C7.2143 17.0232 7.30901 17.1384 7.25225 17.2572C7.16938 17.3937 7.02661 17.4759 6.90508 17.5737C6.25078 18.0671 5.59683 18.5616 4.94252 19.055C4.87358 19.109 4.77642 19.1539 4.77677 19.2559C4.90666 19.2901 5.04142 19.2754 5.17409 19.2775C6.15955 19.2786 7.145 19.2761 8.13046 19.2786C8.34636 19.2887 8.59951 19.2946 8.75447 19.4694C8.89445 19.6543 8.89201 19.9015 8.89654 20.1234C8.89793 20.4615 8.89097 20.7999 8.90002 21.1381C8.90072 21.2805 9.03896 21.3755 9.17268 21.3693C9.81235 21.3735 10.4524 21.3689 11.0921 21.3714C11.1836 21.3696 11.2874 21.3648 11.3581 21.2979C11.4291 21.2289 11.4302 21.1217 11.4337 21.0298C11.434 20.5659 11.4333 20.1018 11.4333 19.6379C11.4347 19.5335 11.4441 19.4123 11.5298 19.3399C11.6346 19.2671 11.77 19.2807 11.8912 19.2765C12.0044 19.281 12.1304 19.2727 12.2276 19.3413C12.3157 19.4252 12.3174 19.5568 12.3199 19.6703C12.3178 20.193 12.3223 20.7153 12.3178 21.238C12.3049 21.4696 12.2795 21.7311 12.1022 21.9007C11.9044 22.0779 11.622 22.0814 11.3717 22.0946C7.70981 22.0953 4.04795 22.0946 0.385742 22.095C0.408376 21.9195 0.479413 21.744 0.617307 21.628C0.842952 21.4309 1.15565 21.3804 1.44502 21.3707C3.48871 21.371 5.53206 21.3703 7.5754 21.3714C7.68892 21.3679 7.80906 21.3843 7.91631 21.3383C8.01624 21.2864 8.00336 21.1586 8.0058 21.0639C8.00023 20.762 8.01311 20.4601 7.99953 20.1585C7.995 20.0304 7.84945 19.9994 7.74603 20.0022C6.58611 20.0008 5.4262 20.0022 4.26663 20.0015C4.07685 19.9959 3.8721 19.9611 3.72794 19.8274C3.55174 19.6738 3.50787 19.3994 3.61129 19.1933C3.68685 19.0345 3.81743 18.9109 3.95637 18.8071C4.81438 18.1542 5.67413 17.5034 6.53179 16.8501Z" fill="#000814"/>
<path d="M13.3638 16.792C13.5501 16.7505 13.75 16.7478 13.9356 16.7962C14.0825 16.8508 14.0839 17.0326 14.0902 17.1635C14.0912 18.4293 14.0912 19.6954 14.0902 20.9612C14.0926 21.0608 14.0763 21.1698 14.1323 21.2586C14.1832 21.3515 14.3026 21.3676 14.3987 21.3707C15.3156 21.3717 16.2328 21.3693 17.1496 21.3717C17.2572 21.3714 17.3756 21.3756 17.4669 21.3077C17.5355 21.2474 17.5403 21.1482 17.5424 21.0632C17.5435 20.591 17.5396 20.1189 17.5438 19.6467C17.5494 19.5171 17.5671 19.3388 17.719 19.3012C17.8973 19.2661 18.0856 19.2654 18.2639 19.3023C18.4074 19.3402 18.4304 19.5098 18.4356 19.6355C18.445 20.1352 18.4342 20.6356 18.4408 21.1353C18.4346 21.2826 18.5808 21.3756 18.7159 21.3693C19.3549 21.3731 19.9939 21.3693 20.6332 21.3714C20.7255 21.3697 20.8303 21.3644 20.9013 21.2972C20.9689 21.2269 20.9692 21.1221 20.9731 21.0312C20.9734 20.5667 20.9727 20.1025 20.9731 19.6383C20.9748 19.5352 20.9804 19.4165 21.0639 19.3434C21.1587 19.2716 21.2858 19.2817 21.3986 19.2765C21.5215 19.2817 21.6604 19.2664 21.7667 19.342C21.8485 19.4151 21.8534 19.5349 21.8572 19.6373C21.8568 20.1011 21.8568 20.5653 21.8565 21.0291C21.8568 21.1228 21.868 21.2244 21.9307 21.2993C22.0052 21.3616 22.1069 21.3717 22.2005 21.3714C22.6525 21.3707 23.1045 21.3704 23.5561 21.3714C23.6526 21.3707 23.7592 21.3697 23.8386 21.3066C23.8981 21.254 23.9131 21.1712 23.9134 21.096C23.9166 20.6119 23.9096 20.1279 23.9166 19.6439C23.919 19.514 23.942 19.3385 24.0921 19.3012C24.2676 19.2654 24.4525 19.2675 24.6283 19.2998C24.7634 19.3274 24.7986 19.4823 24.8042 19.6C24.8104 19.9834 24.8049 20.3671 24.8066 20.7509C24.8035 21.0437 24.8257 21.3428 24.7464 21.6287C24.7053 21.7729 24.6147 21.9087 24.4786 21.9787C24.2825 22.0811 24.0548 22.0852 23.8389 22.0946C20.7394 22.095 17.6396 22.095 14.5401 22.095C14.2601 22.0936 13.9763 22.1082 13.7016 22.0452C13.5417 22.0076 13.3889 21.9129 13.3133 21.7631C13.1994 21.5375 13.2029 21.2777 13.1974 21.0312C13.1974 19.8117 13.1977 18.5923 13.1974 17.3728C13.1981 17.2332 13.1907 17.0918 13.22 16.9542C13.2391 16.8825 13.2882 16.8111 13.3638 16.792Z" fill="#000814"/>
<path d="M10.1617 22.8499C10.3891 22.7555 10.6377 22.939 10.7039 23.1549C10.753 23.345 10.6339 23.5195 10.5054 23.6466C10.3522 23.7956 10.2164 23.9837 10.0047 24.0523C9.71669 24.1407 9.40434 23.8256 9.49104 23.5386C9.53631 23.3819 9.66237 23.2698 9.7731 23.1577C9.89115 23.0424 10.0036 22.9101 10.1617 22.8499Z" fill="#000814"/>
<path d="M15.9044 23.9308C16.0277 23.9228 16.1576 23.9144 16.2753 23.9593C16.3944 24.0283 16.3773 24.185 16.3857 24.3023C16.3884 25.6503 16.3853 26.9979 16.3874 28.3455C16.3766 28.42 16.4452 28.4886 16.5194 28.482C17.1486 28.4837 17.7782 28.4834 18.4074 28.482C18.4673 28.4893 18.5429 28.4514 18.5255 28.3796C18.5101 28.1501 18.3851 27.9454 18.2507 27.7654C17.898 27.3123 17.3756 27.0195 16.8324 26.8555C16.7454 26.8283 16.6486 26.7743 16.6409 26.672C16.6371 26.5379 16.6806 26.3896 16.784 26.2983C16.8808 26.2242 17.0086 26.2621 17.1145 26.2931C17.6859 26.4644 18.2396 26.7503 18.6425 27.1988C19.0244 27.6184 19.2477 28.1919 19.2017 28.7623C19.1916 28.8724 19.1279 28.9824 19.0238 29.0273C18.9085 29.0882 18.7744 29.074 18.6491 29.0754C17.8826 29.0747 17.1162 29.0747 16.3501 29.0754C16.2018 29.074 16.0482 29.0552 15.9166 28.9834C15.8024 28.9204 15.7341 28.7978 15.7084 28.6735C15.6694 28.4841 15.6781 28.2898 15.6774 28.0979C15.6788 26.7987 15.6746 25.4995 15.6795 24.2007C15.6655 24.0628 15.7547 23.9231 15.9044 23.9308Z" fill="#000814"/>
<path d="M19.8473 24.8783C20.0357 24.7951 20.2415 24.9542 20.2899 25.1349C20.3202 25.2892 20.2161 25.4229 20.1154 25.527C20.0103 25.6304 19.9107 25.7513 19.7696 25.8063C19.5346 25.9024 19.255 25.6204 19.349 25.386C19.3887 25.2746 19.4782 25.1931 19.5569 25.1085C19.6415 25.0186 19.7296 24.9246 19.8473 24.8783Z" fill="#000814"/>
<path d="M14.6106 25.5179C14.7499 25.4744 14.9031 25.4782 15.0452 25.5082C15.1719 25.5395 15.1987 25.6872 15.1987 25.7986C15.1987 26.6584 15.1991 27.5181 15.1984 28.3779C15.1914 28.5642 15.1768 28.7717 15.0441 28.9159C14.9104 29.044 14.7147 29.0715 14.5374 29.075C13.7139 29.075 12.8907 29.0743 12.0675 29.0753C11.9457 29.0788 11.8137 29.0485 11.7284 28.9563C11.6333 28.8462 11.6333 28.6923 11.6399 28.5555C11.665 28.0195 11.9206 27.5157 12.281 27.126C12.6181 26.7639 13.0345 26.4654 13.5043 26.3025C13.6544 26.2544 13.8198 26.2112 13.9754 26.259C14.091 26.3112 14.1325 26.448 14.1269 26.5661C14.1248 26.915 14.1314 27.2639 14.1238 27.6128C14.1335 27.7309 14.0287 27.8225 13.9148 27.8172C13.7787 27.8169 13.5764 27.8576 13.5053 27.7061C13.4496 27.468 13.5067 27.2197 13.4656 26.9801C13.1916 27.0741 12.9705 27.274 12.7744 27.4809C12.5442 27.7389 12.3242 28.0495 12.321 28.4092C12.3343 28.4879 12.4234 28.482 12.485 28.4834C13.0882 28.4827 13.6913 28.4823 14.2947 28.4834C14.3536 28.483 14.4201 28.4844 14.4636 28.4367C14.4866 28.3848 14.4852 28.3267 14.487 28.2713C14.4856 27.461 14.4856 26.6507 14.4866 25.8404C14.4911 25.7262 14.4883 25.573 14.6106 25.5179Z" fill="#000814"/>
<path d="M8.74391 26.7587C9.42224 26.377 10.2123 26.2322 10.9847 26.2391C11.0885 26.2391 11.2065 26.2712 11.2549 26.3732C11.2922 26.4808 11.3026 26.603 11.2709 26.7134C11.2389 26.8154 11.1181 26.8443 11.0233 26.845C10.3952 26.8604 9.75932 26.9523 9.17709 27.1981C9.04721 27.2587 8.9034 27.3141 8.81739 27.4353C9.42503 27.445 10.0334 27.4377 10.6414 27.4391C10.8172 27.4408 11.0122 27.4405 11.1626 27.5453C11.3284 27.6912 11.3106 27.9332 11.3145 28.1338C11.3037 28.3713 11.3468 28.623 11.2525 28.8487C11.1734 29.0308 10.953 29.0715 10.7754 29.0747C9.53924 29.0754 8.30307 29.0747 7.06689 29.075C7.08953 28.9385 7.13131 28.7971 7.23613 28.7003C7.41616 28.5259 7.68045 28.4911 7.92038 28.483C8.76933 28.4827 9.61829 28.4824 10.4672 28.4834C10.5146 28.4813 10.571 28.4855 10.603 28.4423C10.6239 28.3166 10.6107 28.1888 10.6083 28.0621C10.5623 28.0457 10.5156 28.0279 10.4665 28.03C9.81573 28.0307 9.16526 28.0304 8.51478 28.0307C8.35217 28.0272 8.17423 28.0123 8.04295 27.9064C7.91098 27.7835 7.93988 27.5711 8.02066 27.4273C8.18084 27.1327 8.46081 26.9262 8.74391 26.7587Z" fill="#000814"/>
<path d="M19.346 26.277C19.5424 26.2561 19.7409 26.2739 19.938 26.2673C20.0491 26.2694 20.1797 26.2554 20.2667 26.3404C20.3315 26.3954 20.3423 26.4853 20.3416 26.565C20.3405 27.3081 20.3409 28.0512 20.3412 28.794C20.3409 28.8981 20.3256 29.0328 20.2145 29.0764C20.0797 29.1122 19.93 29.1168 19.7973 29.0715C19.6908 29.0262 19.6873 28.8932 19.6848 28.795C19.6852 28.2612 19.6852 27.7277 19.6852 27.1939C19.6841 27.0887 19.6953 26.9818 19.6692 26.8791C19.5198 26.8735 19.3523 26.9136 19.2189 26.8293C19.1173 26.7402 19.1246 26.5856 19.142 26.4633C19.1521 26.3596 19.244 26.2816 19.346 26.277Z" fill="#000814"/>
<path d="M21.3424 27.172C21.8923 26.5309 22.7552 26.2112 23.5891 26.2412C23.7389 26.2412 23.8298 26.3934 23.8249 26.5299C23.828 26.868 23.8259 27.2061 23.8259 27.5442C23.8245 27.6396 23.8113 27.7671 23.702 27.7984C23.5756 27.8336 23.4356 27.8301 23.3081 27.8009C23.2099 27.7751 23.1803 27.6682 23.1793 27.579C23.1709 27.3558 23.1807 27.1323 23.1748 26.9091C22.6549 26.8885 22.1701 27.1789 21.8355 27.5588C21.6381 27.7925 21.4542 28.0658 21.4257 28.3782C21.4096 28.4451 21.4761 28.4865 21.5353 28.4816C22.3606 28.4851 23.1862 28.4809 24.0119 28.4837C24.2344 28.4942 24.476 28.5265 24.6512 28.6784C24.7696 28.7766 24.8281 28.9263 24.8525 29.075C23.6194 29.075 22.3867 29.0746 21.154 29.075C21.0276 29.076 20.8866 29.0346 20.8149 28.9228C20.7431 28.8152 20.7498 28.6791 20.7536 28.5558C20.7825 28.0443 21.0095 27.5564 21.3424 27.172Z" fill="#000814"/>
<path d="M9.92565 34.8319C9.90715 34.7733 9.97748 34.7676 10.0178 34.7678C10.0839 34.7893 10.1464 34.8226 10.1921 34.8763C10.1855 34.9105 10.1636 34.947 10.1229 34.9402C10.0482 34.9319 9.96338 34.9015 9.92565 34.8319Z" fill="#000814"/>
<path d="M4.93037 35.2509C5.05327 35.2153 5.20694 35.2247 5.30072 35.3205C5.33808 35.3591 5.30933 35.4106 5.27013 35.4335C5.17104 35.4648 5.06078 35.458 4.96646 35.4148C4.92708 35.3948 4.88294 35.3659 4.87744 35.3181C4.88019 35.2866 4.90748 35.2683 4.93037 35.2509Z" fill="#000814"/>
<path d="M10.4047 35.25C10.4613 35.2111 10.5348 35.2428 10.5906 35.2688C10.6403 35.2936 10.7055 35.3439 10.6731 35.4067C10.6014 35.4428 10.5183 35.4047 10.4557 35.3663C10.4183 35.3436 10.3731 35.2939 10.4047 35.25Z" fill="#000814"/>
<path d="M14.569 35.2743C14.6551 35.2796 14.7343 35.3265 14.7905 35.3902C14.8071 35.4082 14.8029 35.4353 14.8082 35.4576C14.7269 35.4633 14.6542 35.4166 14.5958 35.365C14.5685 35.3432 14.5603 35.3073 14.569 35.2743Z" fill="#000814"/>
<path d="M5.88454 35.5302C6.02209 35.5159 6.17832 35.5491 6.26752 35.6628C6.29316 35.7394 6.22338 35.7896 6.15708 35.8018C6.01165 35.8196 5.84663 35.7846 5.75322 35.6632C5.74589 35.5841 5.81567 35.5408 5.88454 35.5302Z" fill="#000814"/>
<path d="M10.2214 35.5263C10.2943 35.5088 10.3707 35.5331 10.4338 35.5696C10.475 35.5934 10.5174 35.6287 10.5214 35.6796C10.512 35.7179 10.4705 35.7342 10.4346 35.7315C10.3512 35.7256 10.2672 35.6917 10.2086 35.6311C10.1771 35.6038 10.1734 35.5373 10.2214 35.5263Z" fill="#000814"/>
<path d="M14.4939 35.5469C14.5314 35.5423 14.5719 35.5357 14.6069 35.5548C14.6833 35.5916 14.7745 35.6398 14.7833 35.7345C14.7719 35.7383 14.7496 35.746 14.7384 35.7499C14.6384 35.7136 14.5177 35.6634 14.4939 35.5469Z" fill="#000814"/>
<path d="M10.8606 35.7792C10.9258 35.7523 10.9996 35.7783 11.0601 35.8073C11.1042 35.8316 11.1568 35.8651 11.1625 35.9203C11.1612 35.9664 11.1092 35.9794 11.0716 35.9748C10.9942 35.9651 10.9159 35.9336 10.8623 35.8756C10.8379 35.8509 10.8267 35.8007 10.8606 35.7792Z" fill="#000814"/>
<path d="M6.64625 35.8658C6.69808 35.827 6.76091 35.8081 6.82483 35.803C6.93124 35.8077 7.04022 35.8288 7.13052 35.8883C7.19023 35.9228 7.23785 35.9805 7.24316 36.0513C7.2221 36.1167 7.15689 36.1468 7.09389 36.1581C6.93948 36.168 6.76842 36.1294 6.66182 36.0101C6.62372 35.9709 6.62299 35.9127 6.64625 35.8658Z" fill="#000814"/>
<path d="M14.4368 35.8241C14.5346 35.7952 14.6262 35.8638 14.6991 35.921C14.7337 35.9505 14.7837 36.0131 14.7368 36.0523C14.652 36.0609 14.5764 36.0095 14.5106 35.9624C14.4648 35.9311 14.4333 35.8812 14.4368 35.8241Z" fill="#000814"/>
<path d="M13.9803 36.0014C13.9611 35.9796 13.9523 35.9356 13.9884 35.9261C14.0311 35.919 14.0723 35.9429 14.1096 35.9614C14.1635 35.9933 14.2303 36.0411 14.2122 36.1136C14.1223 36.1173 14.0364 36.0693 13.9803 36.0014Z" fill="#000814"/>
<path d="M10.6064 36.134C10.6211 36.0984 10.6475 36.0664 10.6889 36.0647C10.7975 36.0534 10.9079 36.0988 10.9883 36.1706C11.0292 36.2036 11.0469 36.2563 11.0308 36.3072C10.9847 36.3307 10.9319 36.3439 10.8804 36.3319C10.7678 36.3102 10.6451 36.2503 10.6064 36.134Z" fill="#000814"/>
<path d="M14.4163 36.096C14.4881 36.0945 14.5535 36.1348 14.6119 36.1727C14.6619 36.2106 14.7227 36.2548 14.7253 36.324C14.7095 36.378 14.6441 36.3601 14.6048 36.3469C14.5234 36.3143 14.4418 36.268 14.3914 36.1945C14.3668 36.1638 14.3643 36.0971 14.4163 36.096Z" fill="#000814"/>
<path d="M7.45415 36.1896C7.48804 36.1436 7.53841 36.1101 7.59592 36.1033C7.75233 36.081 7.91718 36.1273 8.04117 36.2247C8.09612 36.2696 8.15162 36.337 8.13348 36.4128C8.11682 36.4755 8.05051 36.5006 7.99428 36.5163C7.82358 36.5343 7.64226 36.4826 7.51496 36.3654C7.46514 36.3216 7.44188 36.255 7.45415 36.1896Z" fill="#000814"/>
<path d="M13.8727 36.186C13.9607 36.1726 14.0434 36.2206 14.1066 36.2772C14.1376 36.3065 14.1724 36.3596 14.1299 36.3948C14.0989 36.3968 14.0684 36.3922 14.0383 36.3869C13.9693 36.3503 13.8966 36.31 13.8623 36.2358C13.8649 36.2233 13.8702 36.1984 13.8727 36.186Z" fill="#000814"/>
<path d="M6.40455 36.3832C6.45144 36.3173 6.53569 36.3026 6.61133 36.3015C6.71646 36.3138 6.83368 36.3416 6.89962 36.4319C6.92435 36.4627 6.91794 36.5035 6.91189 36.5394C6.82031 36.6222 6.68313 36.6118 6.57397 36.5746C6.49118 36.5449 6.39264 36.4854 6.40455 36.3832Z" fill="#000814"/>
<path d="M11.3933 36.3882C11.4645 36.368 11.538 36.4048 11.5979 36.4411C11.6483 36.4764 11.7098 36.5274 11.6964 36.5966C11.6735 36.6503 11.6032 36.6369 11.5581 36.6255C11.4799 36.5984 11.397 36.553 11.3616 36.4744C11.3435 36.4424 11.3592 36.4013 11.3933 36.3882Z" fill="#000814"/>
<path d="M14.3219 36.4036C14.3563 36.3852 14.3988 36.3998 14.4345 36.4095C14.5202 36.4416 14.6023 36.4906 14.6627 36.5604C14.6904 36.595 14.7195 36.6505 14.6825 36.6892C14.6437 36.7148 14.5953 36.698 14.5556 36.6846C14.4656 36.6493 14.3794 36.5956 14.3211 36.5174C14.2977 36.4853 14.2806 36.4289 14.3219 36.4036Z" fill="#000814"/>
<path d="M14.8948 36.407C14.9096 36.3844 14.9462 36.3991 14.9684 36.404C15.0352 36.4324 15.1122 36.4722 15.1364 36.5458C15.1385 36.6083 15.0583 36.5817 15.025 36.5637C14.9677 36.5324 14.8752 36.4843 14.8948 36.407Z" fill="#000814"/>
<path d="M10.4946 36.443C10.583 36.4142 10.6785 36.4497 10.7539 36.497C10.7942 36.5252 10.8385 36.5635 10.8417 36.616C10.8481 36.66 10.8016 36.6866 10.7636 36.6884C10.6576 36.6972 10.5471 36.6518 10.4772 36.5719C10.4416 36.5353 10.436 36.4594 10.4946 36.443Z" fill="#000814"/>
<path d="M13.7932 36.4453C13.8533 36.4219 13.9167 36.4589 13.9687 36.4874C14.0194 36.522 14.0841 36.5658 14.0824 36.6345C14.0727 36.6783 14.0196 36.6748 13.9865 36.6642C13.9112 36.6418 13.8392 36.599 13.7923 36.5349C13.774 36.5103 13.7619 36.4631 13.7932 36.4453Z" fill="#000814"/>
<path d="M8.4808 36.5005C8.59857 36.4731 8.72403 36.5106 8.82257 36.5767C8.87752 36.6156 8.93411 36.6725 8.93063 36.7451C8.92734 36.8006 8.87001 36.831 8.82092 36.8379C8.70791 36.8531 8.59253 36.8178 8.49893 36.7553C8.446 36.7185 8.396 36.6665 8.39014 36.5991C8.39087 36.5483 8.43464 36.5119 8.4808 36.5005Z" fill="#000814"/>
<path d="M7.19556 36.7102C7.20874 36.5779 7.36589 36.5572 7.47176 36.564C7.58898 36.5825 7.71059 36.6204 7.79302 36.7107C7.83166 36.7466 7.84302 36.7997 7.84576 36.8505C7.82031 36.9063 7.76591 36.9369 7.7095 36.953C7.58477 36.9735 7.45784 36.9439 7.34538 36.8896C7.27944 36.8455 7.2146 36.7909 7.19556 36.7102Z" fill="#000814"/>
<path d="M11.2106 36.7018C11.2851 36.6793 11.3648 36.7031 11.4326 36.7359C11.5049 36.774 11.5754 36.8268 11.6113 36.9024C11.6296 36.9399 11.628 36.9949 11.5871 37.0165C11.5278 37.0487 11.4558 37.0301 11.3957 37.0095C11.3032 36.972 11.2096 36.9112 11.1684 36.8163C11.1476 36.7736 11.1635 36.7176 11.2106 36.7018Z" fill="#000814"/>
<path d="M14.2353 36.7258C14.2633 36.6882 14.314 36.6985 14.3543 36.6983C14.4935 36.7432 14.6443 36.8329 14.676 36.9871C14.5945 37.0637 14.478 37.0036 14.3977 36.956C14.3214 36.9029 14.2208 36.8309 14.2353 36.7258Z" fill="#000814"/>
<path d="M14.8658 36.7233C14.914 36.7035 14.9632 36.7308 15.0059 36.752C15.0574 36.781 15.1118 36.8178 15.1334 36.8755C15.146 36.9042 15.122 36.9438 15.0876 36.9326C15.0165 36.9249 14.9539 36.8835 14.9015 36.8372C14.8733 36.8084 14.8392 36.7639 14.8658 36.7233Z" fill="#000814"/>
<path d="M13.6619 36.7849C13.667 36.7342 13.7254 36.7332 13.7641 36.7417C13.848 36.7629 13.926 36.8113 13.9822 36.8772C14.0111 36.9061 14.0075 36.9488 14.0111 36.9864C13.9251 37.0243 13.8351 36.9781 13.7643 36.9301C13.717 36.8944 13.6633 36.849 13.6619 36.7849Z" fill="#000814"/>
<path d="M9.30472 36.8293C9.41113 36.8066 9.52377 36.8454 9.60931 36.9091C9.65766 36.9482 9.70895 37.006 9.69338 37.0733C9.67579 37.1205 9.62231 37.1392 9.57597 37.1421C9.46498 37.1465 9.35344 37.1018 9.27395 37.0247C9.23896 36.9907 9.21515 36.9412 9.22523 36.8917C9.23933 36.8591 9.27028 36.8366 9.30472 36.8293Z" fill="#000814"/>
<path d="M8.06429 36.9926C8.09891 36.9273 8.16942 36.8948 8.24067 36.889C8.36503 36.8851 8.49178 36.9172 8.59398 36.9895C8.66211 37.035 8.71615 37.1051 8.72091 37.1894C8.70168 37.2641 8.62933 37.2996 8.55936 37.3115C8.39947 37.3229 8.23115 37.2692 8.11905 37.1522C8.07583 37.1108 8.06044 37.0509 8.06429 36.9926Z" fill="#000814"/>
<path d="M14.196 37.0119C14.2784 36.9873 14.3637 37.0238 14.435 37.0641C14.5167 37.1139 14.6013 37.1784 14.6297 37.2741C14.6454 37.3152 14.6119 37.3578 14.5707 37.3615C14.4777 37.3688 14.3899 37.3241 14.315 37.2736C14.2504 37.2274 14.1855 37.1697 14.1637 37.0904C14.1522 37.0611 14.1679 37.025 14.196 37.0119Z" fill="#000814"/>
<path d="M14.8284 37.0574C14.843 37.0328 14.8731 37.0229 14.9002 37.0323C14.9809 37.0502 15.0564 37.0969 15.1073 37.1623C15.1278 37.1903 15.1489 37.2484 15.1027 37.2636C15.0516 37.272 15.0033 37.2447 14.9575 37.2264C14.9234 37.1993 14.889 37.1726 14.8555 37.1451C14.8427 37.1171 14.8298 37.0883 14.8284 37.0574Z" fill="#000814"/>
<path d="M11.8699 37.1282C11.865 37.0775 11.9188 37.0624 11.958 37.0557C12.1009 37.0705 12.2712 37.1645 12.28 37.3236C12.2163 37.3993 12.1059 37.3634 12.0315 37.324C11.958 37.2819 11.8758 37.2198 11.8699 37.1282Z" fill="#000814"/>
<path d="M13.5533 37.0935C13.5753 37.0415 13.6422 37.0519 13.6859 37.0656C13.777 37.0962 13.8689 37.1502 13.9154 37.2374C13.933 37.2673 13.9222 37.3014 13.914 37.3323C13.8165 37.3653 13.7174 37.3114 13.6411 37.2541C13.5938 37.2151 13.5372 37.1611 13.5533 37.0935Z" fill="#000814"/>
<path d="M11.005 37.0993C11.1109 37.0645 11.2266 37.1033 11.3179 37.1599C11.3864 37.204 11.4576 37.2637 11.473 37.348C11.4864 37.3971 11.4492 37.4456 11.4027 37.4577C11.3232 37.4804 11.2391 37.4564 11.1655 37.4251C11.083 37.3855 11.0021 37.3282 10.9616 37.2439C10.936 37.1936 10.9466 37.1205 11.005 37.0993Z" fill="#000814"/>
<path d="M8.89098 37.2867C8.93585 37.237 8.99959 37.2127 9.06497 37.2057C9.24209 37.2039 9.42836 37.2766 9.53532 37.422C9.57635 37.4744 9.58111 37.5453 9.5595 37.6067C9.51408 37.653 9.45254 37.6764 9.38916 37.6843C9.21626 37.6852 9.03713 37.6171 8.92559 37.4817C8.87999 37.4281 8.86478 37.3528 8.89098 37.2867Z" fill="#000814"/>
<path d="M10.071 37.2784C10.0721 37.2365 10.1154 37.22 10.1474 37.2048C10.2525 37.1985 10.3591 37.2359 10.4341 37.3106C10.4765 37.3465 10.4859 37.4024 10.4868 37.455C10.3961 37.5268 10.2685 37.4949 10.1789 37.4376C10.1247 37.4024 10.0666 37.3487 10.071 37.2784Z" fill="#000814"/>
<path d="M14.0994 37.3728C14.142 37.33 14.2089 37.3424 14.2611 37.3563C14.3825 37.3932 14.4942 37.4701 14.5648 37.5763C14.5904 37.6115 14.5904 37.6558 14.5933 37.6974C14.5344 37.7576 14.4441 37.7402 14.3739 37.712C14.2691 37.6686 14.1695 37.6005 14.1092 37.5027C14.0873 37.4646 14.0671 37.4111 14.0994 37.3728Z" fill="#000814"/>
<path d="M7.87127 37.4412C7.92585 37.3885 8.0079 37.3931 8.07805 37.3932C8.19509 37.4154 8.31158 37.4725 8.36854 37.5824C8.38283 37.6568 8.32586 37.7211 8.25425 37.731C8.12146 37.755 7.97549 37.7072 7.88336 37.6083C7.84233 37.5645 7.82346 37.4874 7.87127 37.4412Z" fill="#000814"/>
<path d="M14.8151 37.3915C14.9144 37.3674 15.01 37.4362 15.0802 37.5003C15.1188 37.5355 15.163 37.6148 15.1031 37.6502C14.9998 37.6591 14.9047 37.5954 14.8347 37.5253C14.8049 37.4914 14.7683 37.426 14.8151 37.3915Z" fill="#000814"/>
<path d="M13.4295 37.4284C13.5061 37.3943 13.5921 37.4102 13.6628 37.4505C13.7383 37.4938 13.818 37.5537 13.8389 37.6427C13.8539 37.6859 13.813 37.7128 13.7801 37.7282C13.7084 37.7255 13.6374 37.7066 13.5775 37.6668C13.4949 37.6161 13.4093 37.535 13.4295 37.4284Z" fill="#000814"/>
<path d="M11.7177 37.4276C11.8388 37.3929 11.9662 37.4429 12.0675 37.5091C12.1433 37.5636 12.2214 37.6349 12.2357 37.7321C12.2446 37.7919 12.1924 37.8422 12.1357 37.8477C12.0228 37.8646 11.9098 37.8182 11.8171 37.7571C11.7419 37.7019 11.6615 37.6314 11.6503 37.5331C11.6437 37.4869 11.6752 37.4431 11.7177 37.4276Z" fill="#000814"/>
<path d="M9.79782 37.5777C9.909 37.5385 10.0315 37.5647 10.1378 37.6077C10.242 37.6533 10.3412 37.7235 10.398 37.8242C10.4299 37.8832 10.4409 37.9678 10.3889 38.0189C10.327 38.0825 10.2306 38.0821 10.1484 38.0779C9.99123 38.0482 9.83317 37.9748 9.73884 37.8411C9.70459 37.7958 9.69434 37.7383 9.6936 37.6828C9.71375 37.6363 9.748 37.5938 9.79782 37.5777Z" fill="#000814"/>
<path d="M10.8599 37.6259C10.8819 37.5669 10.9595 37.5684 11.0106 37.5804C11.0978 37.6039 11.1945 37.6574 11.2198 37.7504C11.2341 37.7949 11.1985 37.8235 11.1643 37.8425C11.0751 37.8521 10.9929 37.814 10.9203 37.7663C10.8888 37.7266 10.846 37.6814 10.8599 37.6259Z" fill="#000814"/>
<path d="M8.66621 37.8044C8.69405 37.7541 8.74442 37.7246 8.79845 37.7097C8.99516 37.6857 9.2415 37.7832 9.29187 37.992C9.28766 38.0647 9.22923 38.1132 9.16293 38.1316C8.99497 38.1557 8.81255 38.092 8.70522 37.9588C8.66877 37.9162 8.66181 37.8583 8.66621 37.8044Z" fill="#000814"/>
<path d="M14.0489 37.7244C14.1432 37.694 14.2433 37.7345 14.326 37.7799C14.418 37.8354 14.5083 37.9103 14.5456 38.0145C14.5621 38.0552 14.5533 38.1091 14.5112 38.1303C14.4292 38.1651 14.3387 38.1299 14.2627 38.0951C14.1619 38.0427 14.0665 37.9673 14.016 37.8638C13.9912 37.8169 13.9947 37.7482 14.0489 37.7244Z" fill="#000814"/>
<path d="M14.7554 37.7678C14.7972 37.7235 14.8627 37.7348 14.9129 37.7576C14.9893 37.7911 15.0637 37.8405 15.1073 37.9136C15.1245 37.9466 15.1349 37.9973 15.0977 38.0209C15.038 38.0437 14.9748 38.0131 14.9221 37.9861C14.8409 37.9402 14.7534 37.8702 14.7554 37.7678Z" fill="#000814"/>
<path d="M13.3162 37.7828C13.3629 37.7599 13.4179 37.7687 13.4662 37.7819C13.5703 37.8151 13.666 37.881 13.7276 37.9722C13.753 38.0147 13.7761 38.0816 13.7285 38.1178C13.6783 38.1559 13.6095 38.14 13.5541 38.124C13.4483 38.085 13.3455 38.0173 13.292 37.9151C13.2695 37.8728 13.2655 37.8063 13.3162 37.7828Z" fill="#000814"/>
<path d="M12.4916 37.8149C12.5903 37.7874 12.6941 37.8277 12.7775 37.8807C12.855 37.9318 12.9326 38.0037 12.9454 38.1006C12.9519 38.1479 12.9138 38.1897 12.8687 38.1973C12.7526 38.2158 12.6376 38.1635 12.5484 38.0926C12.4892 38.0442 12.4322 37.9788 12.4288 37.8988C12.4251 37.8596 12.457 37.8272 12.4916 37.8149Z" fill="#000814"/>
<path d="M11.4689 37.9347C11.4786 37.8633 11.5566 37.8294 11.6213 37.8289C11.8077 37.8272 11.9929 37.93 12.096 38.0844C12.1334 38.1423 12.1544 38.2304 12.1017 38.2857C12.0568 38.3324 11.9876 38.3342 11.9271 38.3346C11.7799 38.3159 11.6471 38.2395 11.5429 38.136C11.5009 38.0778 11.4557 38.0104 11.4689 37.9347Z" fill="#000814"/>
<path d="M10.6234 37.9461C10.7276 37.9121 10.8406 37.9395 10.9384 37.9813C11.0414 38.0284 11.1377 38.1013 11.1927 38.202C11.2244 38.2604 11.2348 38.3423 11.1839 38.3936C11.1265 38.4491 11.0399 38.4533 10.965 38.4449C10.8373 38.4266 10.7161 38.3663 10.6227 38.2775C10.5663 38.2207 10.5154 38.1456 10.5227 38.0617C10.5271 38.0062 10.5716 37.9617 10.6234 37.9461Z" fill="#000814"/>
<path d="M9.57547 38.0593C9.65753 38.0349 9.74489 38.0368 9.82768 38.0576C9.97604 38.1007 10.1231 38.1948 10.1795 38.3452C10.1872 38.3987 10.1766 38.4529 10.1438 38.4965C10.1086 38.5181 10.0709 38.5353 10.0315 38.5478C9.86157 38.5672 9.68628 38.5016 9.56448 38.3831C9.49928 38.3199 9.45514 38.2251 9.48628 38.1344C9.5121 38.1051 9.54214 38.0798 9.57547 38.0593Z" fill="#000814"/>
<path d="M13.9391 38.1255C13.9854 38.0806 14.0563 38.0904 14.1146 38.0979C14.2887 38.1534 14.4752 38.2722 14.5135 38.4638C14.5049 38.5036 14.484 38.5457 14.4409 38.5559C14.3532 38.5776 14.2629 38.5471 14.1851 38.508C14.0882 38.457 13.9984 38.3851 13.9435 38.2893C13.9167 38.2407 13.9001 38.172 13.9391 38.1255Z" fill="#000814"/>
<path d="M14.7575 38.1226C14.8601 38.1006 14.959 38.1594 15.0339 38.2243C15.0791 38.2679 15.1306 38.3239 15.1213 38.392C15.1143 38.4329 15.0648 38.4422 15.0304 38.4387C14.9156 38.4234 14.8119 38.3514 14.7463 38.2572C14.7185 38.2182 14.7009 38.145 14.7575 38.1226Z" fill="#000814"/>
<path d="M13.135 38.2461C13.1343 38.1954 13.1839 38.172 13.2242 38.1568C13.3863 38.1549 13.542 38.2482 13.6299 38.382C13.6638 38.4317 13.6691 38.4962 13.6356 38.5474C13.5255 38.6028 13.3991 38.5526 13.3043 38.4896C13.222 38.4337 13.137 38.3522 13.135 38.2461Z" fill="#000814"/>
<path d="M12.1951 38.319C12.1897 38.2331 12.2766 38.1763 12.3542 38.1736C12.4929 38.1657 12.6277 38.2225 12.7401 38.2994C12.8449 38.3758 12.9506 38.4763 12.9643 38.6128C13.0207 38.5282 13.1347 38.5315 13.2222 38.554C13.4228 38.6058 13.6121 38.7434 13.6882 38.941C13.7843 38.8699 13.9109 38.8848 14.0167 38.9236C13.931 38.8688 13.8629 38.7917 13.8092 38.706C13.7909 38.6513 13.7689 38.5872 13.7975 38.5322C13.836 38.467 13.9211 38.4588 13.9889 38.469C14.1332 38.4908 14.264 38.5703 14.3677 38.6709C14.4296 38.735 14.4886 38.8128 14.495 38.9051C14.5012 38.9568 14.4695 39.0095 14.4202 39.0269C14.3459 39.0569 14.2655 39.035 14.1918 39.0156C14.3076 39.0925 14.4081 39.1998 14.4532 39.3335C14.5484 39.2716 14.669 39.2908 14.7675 39.3341C14.9307 39.4053 15.077 39.5328 15.1391 39.7035C15.2237 39.6295 15.3439 39.6476 15.4393 39.6885C15.5882 39.7511 15.7216 39.8612 15.7981 40.005C15.8335 40.0737 15.8547 40.1737 15.7893 40.2317C15.723 40.2839 15.6335 40.2636 15.5576 40.2495C15.6754 40.3369 15.7776 40.4528 15.8199 40.5958C15.8551 40.5649 15.895 40.5337 15.9448 40.5356C16.0943 40.5326 16.2298 40.6156 16.3384 40.7116C16.4249 40.7922 16.5011 40.8935 16.5205 41.0129C16.5317 41.0766 16.5029 41.1521 16.4384 41.175C16.3547 41.2025 16.2639 41.1797 16.1873 41.142C16.1769 41.1449 16.1668 41.1479 16.1569 41.151C16.2203 41.1611 16.2659 41.2089 16.3122 41.2492C16.3994 41.3332 16.4769 41.4376 16.4958 41.56C16.506 41.6094 16.489 41.6589 16.4674 41.7028C16.378 41.7843 16.245 41.7565 16.1456 41.7109C15.9727 41.6277 15.8207 41.4812 15.7652 41.2938C15.693 41.39 15.562 41.3847 15.4575 41.3572C15.5714 41.4442 15.6706 41.5585 15.7166 41.6962C15.7423 41.7763 15.7467 41.8763 15.6866 41.9426C15.6362 41.9988 15.556 42.0021 15.4862 42.0082C15.5758 42.0988 15.6512 42.2084 15.6774 42.3349C15.7089 42.2769 15.7664 42.2349 15.8344 42.2347C16.0038 42.2281 16.1577 42.3278 16.2707 42.4463C16.358 42.5391 16.4304 42.656 16.4401 42.7858C16.4472 42.8613 16.4126 42.9461 16.3403 42.978C16.2648 43.0104 16.1818 42.9901 16.1049 42.975C15.9031 42.8869 15.7258 42.7195 15.6675 42.5023C15.6194 42.6071 15.4957 42.6336 15.391 42.6208C15.5016 42.7228 15.591 42.8532 15.621 43.0027C15.65 42.9633 15.6826 42.921 15.7329 42.9093C15.8476 42.8756 15.9644 42.9234 16.0652 42.9761C16.1252 43.0179 16.1822 43.0644 16.2322 43.1179C16.3229 43.2188 16.3974 43.345 16.4036 43.4839C16.4088 43.5694 16.365 43.6648 16.2795 43.6936C16.2106 43.7205 16.1368 43.7025 16.0672 43.6905C15.8478 43.6025 15.6564 43.4137 15.6065 43.1776C15.5564 43.2991 15.4126 43.3295 15.2954 43.3042C15.4042 43.3969 15.4816 43.5232 15.517 43.6615C15.5313 43.7584 15.5177 43.8663 15.4412 43.9352C15.3999 43.9597 15.3543 43.9755 15.3074 43.9841C15.2285 43.9841 15.1508 43.9656 15.0792 43.9335C14.856 43.8203 14.6609 43.5886 14.682 43.3256C14.6953 43.2692 14.7254 43.2181 14.7688 43.1798C14.8353 43.1381 14.9151 43.1349 14.991 43.1454C14.8831 43.0668 14.8076 42.952 14.7549 42.8309C14.6898 42.8782 14.6102 42.8996 14.5301 42.8946C14.4734 42.8864 14.4177 42.8717 14.3631 42.8543C14.1776 42.7705 14.018 42.6225 13.9394 42.4325C13.8988 42.4518 13.8572 42.4693 13.8142 42.4824C13.7398 42.4921 13.6649 42.4809 13.5929 42.4622C13.7151 42.5545 13.8144 42.6875 13.8393 42.8412C13.8546 42.9269 13.8338 43.0239 13.7675 43.084C13.7239 43.128 13.6616 43.1443 13.6023 43.152C13.4248 43.1584 13.2566 43.0699 13.1361 42.9443C13.0376 42.8452 12.9645 42.7109 12.9689 42.5683C12.9696 42.482 13.0189 42.3968 13.0971 42.3585C13.1823 42.3148 13.2825 42.3234 13.3724 42.3468C13.2601 42.2662 13.1717 42.1547 13.1185 42.0274C12.9806 42.108 12.8075 42.0869 12.6689 42.0199C12.4793 41.9307 12.3152 41.7657 12.2667 41.5574C12.1753 41.6369 12.0504 41.6585 11.933 41.6409C12.0396 41.7364 12.1242 41.8728 12.1139 42.0206C12.1117 42.1336 12.0203 42.2311 11.9119 42.2541C11.7368 42.2946 11.5542 42.2247 11.4174 42.116C11.2991 42.0215 11.2027 41.8818 11.202 41.7255C11.1998 41.6406 11.2443 41.5567 11.3166 41.5118C11.391 41.4636 11.4833 41.4548 11.5694 41.4664C11.4225 41.3486 11.3044 41.1453 11.3784 40.9554C11.4498 40.8268 11.6106 40.7946 11.7456 40.8149C11.6362 40.7151 11.5342 40.5815 11.5419 40.4257C11.5445 40.3365 11.6066 40.2608 11.6862 40.2259C11.7498 40.2059 11.8167 40.2048 11.8828 40.2039C11.8674 40.1907 11.8524 40.1775 11.8374 40.1645C11.7546 40.0704 11.6908 39.9491 11.7117 39.8198C11.739 39.7366 11.8128 39.6799 11.8972 39.6634C11.9729 39.6559 12.0491 39.6623 12.1233 39.6782C11.9936 39.5811 11.8641 39.4401 11.8798 39.2657C11.8308 39.363 11.7176 39.3925 11.6168 39.3828C11.4467 39.3669 11.2862 39.2813 11.1703 39.1571C11.0957 39.0775 11.0426 38.9641 11.0767 38.8544C11.1152 38.7917 11.1816 38.7498 11.2555 38.7452C11.4617 38.7282 11.6656 38.8331 11.798 38.9872C11.8643 39.0619 11.8985 39.1619 11.8842 39.2615C11.8969 39.2218 11.9101 39.1782 11.9471 39.1544C12.0214 39.096 12.1214 39.1044 12.2101 39.1108C12.1132 39.0273 12.03 38.9152 12.0233 38.7829C11.9496 38.8749 11.8203 38.8767 11.715 38.852C11.5542 38.8115 11.4003 38.7209 11.3045 38.5831C11.258 38.5155 11.2252 38.4227 11.2661 38.3448C11.3034 38.2767 11.3866 38.2545 11.4593 38.2542C11.6123 38.2536 11.7597 38.3197 11.8769 38.4153C11.9659 38.487 12.0388 38.5868 12.0485 38.7038C12.0771 38.6721 12.109 38.6419 12.1504 38.6282C12.2376 38.6066 12.3282 38.6168 12.4139 38.6399C12.3101 38.5621 12.2 38.4575 12.1951 38.319ZM12.7665 38.7524C12.731 38.7696 12.7218 38.8152 12.7416 38.848C12.7859 38.9364 12.8813 38.9967 12.9793 39.0044C13.0224 39.0088 13.0724 38.9723 13.0607 38.9253C13.0442 38.8555 12.9839 38.8064 12.9238 38.7738C12.8762 38.7509 12.8178 38.7291 12.7665 38.7524ZM13.5709 39.1522C13.5268 39.1648 13.5242 39.2205 13.546 39.2537C13.5885 39.3255 13.6665 39.3764 13.7497 39.3857C13.797 39.3923 13.8372 39.3396 13.8138 39.2965C13.7724 39.2082 13.6698 39.1379 13.5709 39.1522ZM12.6548 39.2775C12.607 39.2967 12.6086 39.3593 12.6354 39.3954C12.6834 39.4654 12.7647 39.517 12.8508 39.5192C12.9009 39.5213 12.9414 39.4645 12.916 39.4189C12.8715 39.3256 12.7595 39.2511 12.6548 39.2775ZM14.2845 39.5159C14.255 39.5286 14.2369 39.5641 14.2521 39.5943C14.2821 39.6755 14.3622 39.7315 14.4446 39.7502C14.4785 39.7605 14.5182 39.7447 14.531 39.7105C14.536 39.6537 14.4944 39.6072 14.4538 39.5735C14.4065 39.5359 14.3464 39.5053 14.2845 39.5159ZM12.5081 39.8092C12.4788 39.8319 12.4755 39.8744 12.492 39.9059C12.5326 39.9978 12.6387 40.0603 12.7389 40.0487C12.8037 40.0379 12.8105 39.9566 12.7744 39.9132C12.7183 39.8324 12.6051 39.7608 12.5081 39.8092ZM14.9838 39.8665C14.9399 39.8738 14.9276 39.9251 14.9448 39.961C14.9787 40.0431 15.0558 40.1022 15.1397 40.1271C15.1767 40.1385 15.2303 40.1372 15.2477 40.0954C15.2595 40.0326 15.2133 39.9773 15.1701 39.9374C15.1188 39.8954 15.0525 39.8546 14.9838 39.8665ZM12.3958 40.3541C12.3451 40.3654 12.3227 40.4264 12.3463 40.4707C12.3863 40.5579 12.4791 40.6222 12.5758 40.6233C12.6337 40.6255 12.6819 40.5627 12.6561 40.5083C12.6169 40.4094 12.5026 40.3334 12.3958 40.3541ZM14.9466 40.435C14.904 40.4532 14.9102 40.5096 14.9281 40.5435C14.9695 40.6213 15.0519 40.6772 15.1395 40.6872C15.1979 40.6891 15.2212 40.6195 15.1922 40.5753C15.1463 40.4907 15.0468 40.4134 14.9466 40.435ZM15.569 40.8167C15.6672 40.9006 15.7478 41.0107 15.7791 41.1374C15.8668 41.0277 16.0295 41.0704 16.1366 41.1257C16.1328 41.12 16.1254 41.1087 16.1218 41.103C15.9752 41.0317 15.854 40.8949 15.8087 40.7374C15.7624 40.8235 15.6545 40.8273 15.569 40.8167ZM12.2306 40.9046C12.1766 40.9263 12.1581 40.9913 12.1813 41.0424C12.2242 41.1405 12.3251 41.2107 12.4321 41.2175C12.4927 41.2195 12.5577 41.1695 12.5432 41.1037C12.5152 40.9709 12.3634 40.8697 12.2306 40.9046ZM14.8851 40.9794C14.8334 40.9982 14.8397 41.0644 14.8635 41.1034C14.908 41.1805 14.9921 41.2451 15.0845 41.2407C15.1316 41.2394 15.1598 41.1812 15.1371 41.1415C15.0986 41.0449 14.9926 40.959 14.8851 40.9794ZM13.1227 41.3468L13.124 41.3592L13.1096 41.3567C13.0647 41.368 13.0641 41.4272 13.079 41.4624C13.1207 41.5669 13.237 41.642 13.3506 41.6211C13.3783 41.5906 13.4112 41.5526 13.3903 41.5085C13.3554 41.4039 13.2315 41.3127 13.1227 41.3468ZM14.799 41.5702C14.7741 41.5878 14.7624 41.6228 14.773 41.6517C14.7946 41.7321 14.8605 41.7951 14.9362 41.8265C14.9726 41.8404 15.0182 41.849 15.0512 41.8217C15.0822 41.8008 15.0803 41.758 15.0701 41.7265C15.0439 41.6545 14.9823 41.599 14.9129 41.5691C14.8774 41.5552 14.8322 41.547 14.799 41.5702ZM13.8768 41.8365C13.9059 41.9505 14.0268 42.0358 14.1446 42.023C14.1684 41.9964 14.2023 41.9673 14.1909 41.927C14.1655 41.8078 14.0398 41.7166 13.9182 41.7345C13.8924 41.7622 13.8618 41.7951 13.8768 41.8365ZM14.7034 42.116C14.6527 42.1333 14.6321 42.1915 14.651 42.2399C14.6856 42.347 14.7884 42.4347 14.9021 42.4432C14.9704 42.4507 15.0193 42.3723 14.99 42.3122C14.951 42.1977 14.829 42.0924 14.7034 42.116Z" fill="#000814"/>
<path d="M10.319 38.4463C10.3754 38.4045 10.4452 38.3871 10.5146 38.3866C10.6897 38.3998 10.8617 38.4824 10.9707 38.6218C11.0194 38.6807 11.0404 38.7575 11.0329 38.8333C10.9987 38.9163 10.9124 38.9568 10.8269 38.9613C10.6527 38.959 10.4813 38.8822 10.3633 38.7544C10.3181 38.706 10.2886 38.6452 10.2747 38.5809C10.2745 38.5322 10.2884 38.4846 10.319 38.4463Z" fill="#000814"/>
<path d="M5.14773 38.4224C5.23748 38.4114 5.34005 38.4281 5.40361 38.4977C5.43529 38.5296 5.43969 38.5876 5.40342 38.6178C5.3384 38.6774 5.24023 38.6752 5.15927 38.6574C5.1003 38.64 5.0307 38.6063 5.01659 38.5402C5.00927 38.4684 5.08711 38.4292 5.14773 38.4224Z" fill="#000814"/>
<path d="M7.41723 38.5121C7.53336 38.4656 7.68593 38.5094 7.75241 38.6174C7.78263 38.6678 7.75369 38.7345 7.70003 38.7533C7.58611 38.7938 7.44031 38.755 7.37291 38.6515C7.33958 38.6028 7.36265 38.5328 7.41723 38.5121Z" fill="#000814"/>
<path d="M14.6597 38.5902C14.6694 38.5576 14.6804 38.5155 14.7205 38.5102C14.8454 38.4902 14.963 38.5657 15.0491 38.6488C15.0959 38.6996 15.1516 38.7728 15.1201 38.8446C15.0721 38.9075 14.9837 38.8783 14.9199 38.8615C14.8067 38.8036 14.6934 38.7197 14.6597 38.5902Z" fill="#000814"/>
<path d="M3.7926 38.6425C3.8796 38.6147 3.98198 38.6176 4.06092 38.6671C4.09902 38.6889 4.12558 38.7403 4.10048 38.7814C4.05085 38.8526 3.95323 38.8601 3.87392 38.8544C3.80981 38.8482 3.73454 38.8233 3.70725 38.7592C3.69204 38.7015 3.74498 38.6601 3.7926 38.6425Z" fill="#000814"/>
<path d="M9.42857 38.6549C9.53975 38.6199 9.66228 38.6589 9.75294 38.7269C9.81338 38.7716 9.86558 38.8438 9.8502 38.9229C9.83353 38.9866 9.76137 39.0163 9.70074 39.0159C9.57033 39.0172 9.43278 38.9527 9.36611 38.8381C9.32454 38.7732 9.35164 38.6765 9.42857 38.6549Z" fill="#000814"/>
<path d="M5.98867 38.7451C6.06303 38.6789 6.16926 38.6771 6.26322 38.6824C6.37586 38.7046 6.49326 38.7571 6.54565 38.8661C6.55261 38.9161 6.54803 38.9735 6.50608 39.0079C6.42385 39.0802 6.3026 39.0837 6.2004 39.0628C6.10662 39.0427 6.00973 38.9969 5.95973 38.9112C5.92877 38.8575 5.94068 38.7846 5.98867 38.7451Z" fill="#000814"/>
<path d="M8.21921 38.8925C8.23753 38.852 8.28075 38.8337 8.31812 38.815C8.46593 38.7879 8.63535 38.8394 8.72106 38.9679C8.75019 39.0086 8.75055 39.0603 8.74158 39.1077C8.71026 39.1473 8.6685 39.181 8.61721 39.1886C8.48296 39.2108 8.33643 39.1586 8.24925 39.0537C8.21262 39.0103 8.19211 38.9458 8.21921 38.8925Z" fill="#000814"/>
<path d="M4.67819 38.9557C4.73588 38.8811 4.84028 38.8835 4.92527 38.8879C4.98333 38.9059 5.03662 38.9357 5.08095 38.9775C5.08388 39.0178 5.09414 39.0681 5.05659 39.0964C4.96336 39.1707 4.82288 39.1603 4.72489 39.1C4.67635 39.0729 4.64302 39.0059 4.67819 38.9557Z" fill="#000814"/>
<path d="M14.667 38.9279C14.7485 38.9025 14.8347 38.936 14.9065 38.9748C14.9932 39.028 15.0769 39.1005 15.1126 39.1985C15.1315 39.2446 15.1208 39.3084 15.0707 39.3292C15.0089 39.3531 14.941 39.3331 14.8822 39.31C14.7787 39.2642 14.6836 39.1884 14.6313 39.0866C14.6043 39.0344 14.6005 38.9512 14.667 38.9279Z" fill="#000814"/>
<path d="M10.2199 38.9655C10.3342 38.9261 10.4576 38.9543 10.5631 39.006C10.6657 39.0705 10.7682 39.1641 10.7723 39.2945C10.7593 39.3641 10.7006 39.4163 10.632 39.4271C10.4951 39.4496 10.3548 39.395 10.2504 39.3077C10.1827 39.2494 10.1221 39.1642 10.1371 39.0699C10.1431 39.0223 10.1836 38.9913 10.2199 38.9655Z" fill="#000814"/>
<path d="M6.91995 39.1019C7.02234 38.9909 7.19377 38.9933 7.32583 39.0429C7.4251 39.0812 7.53005 39.1559 7.5425 39.2702C7.55221 39.3481 7.48682 39.4059 7.4229 39.436C7.25879 39.4838 7.06574 39.4385 6.94944 39.3109C6.89632 39.2554 6.88332 39.1697 6.91995 39.1019Z" fill="#000814"/>
<path d="M17.9622 39.1169C18.0025 39.1141 18.0451 39.1117 18.0816 39.133C18.1634 39.1737 18.251 39.2455 18.2396 39.3471C18.2081 39.3447 18.1768 39.3425 18.1459 39.3379C18.0587 39.2929 17.9623 39.2266 17.9622 39.1169Z" fill="#000814"/>
<path d="M17.4 39.1313C17.5 39.1266 17.5899 39.1975 17.6505 39.2713C17.6842 39.3077 17.7047 39.3997 17.6317 39.4006C17.5295 39.3845 17.4339 39.3183 17.3828 39.2286C17.3654 39.1998 17.3586 39.141 17.4 39.1313Z" fill="#000814"/>
<path d="M18.4701 39.1265C18.5789 39.1283 18.7128 39.212 18.7014 39.3336C18.5925 39.3342 18.4535 39.2481 18.4701 39.1265Z" fill="#000814"/>
<path d="M9.10198 39.2241C9.14155 39.1683 9.21408 39.1503 9.2791 39.1514C9.41775 39.1505 9.55859 39.2208 9.63424 39.3382C9.6738 39.3979 9.67636 39.4877 9.61922 39.5375C9.54431 39.6011 9.43734 39.5926 9.34815 39.5712C9.24045 39.5368 9.14173 39.4677 9.08898 39.3657C9.08129 39.319 9.07195 39.2652 9.10198 39.2241Z" fill="#000814"/>
<path d="M16.7252 39.3166C16.6866 39.2677 16.6681 39.1769 16.7439 39.1527C16.8767 39.1657 16.9972 39.247 17.0696 39.3573C17.1 39.4011 17.1086 39.4646 17.0663 39.504C16.928 39.5141 16.8033 39.4238 16.7252 39.3166Z" fill="#000814"/>
<path d="M5.76981 39.1922C5.88245 39.162 6.01432 39.1814 6.10242 39.2618C6.13649 39.2966 6.16488 39.3492 6.14583 39.3984C6.1255 39.464 6.05352 39.4889 5.99344 39.5039C5.85626 39.5193 5.65845 39.4618 5.65332 39.2968C5.67695 39.2484 5.71651 39.2065 5.76981 39.1922Z" fill="#000814"/>
<path d="M16.0816 39.2274C16.1574 39.216 16.2312 39.251 16.2924 39.2928C16.3616 39.3417 16.4266 39.4067 16.4479 39.4913C16.4603 39.5316 16.4321 39.5801 16.3882 39.5814C16.286 39.5877 16.1931 39.5274 16.1204 39.4615C16.0709 39.4115 16.0187 39.3466 16.0292 39.2717C16.0387 39.2503 16.057 39.2307 16.0816 39.2274Z" fill="#000814"/>
<path d="M15.3006 39.2828C15.3986 39.2561 15.5006 39.2861 15.5816 39.344C15.6624 39.4024 15.7464 39.4784 15.7627 39.5819C15.7746 39.6297 15.7345 39.664 15.6977 39.6847C15.5378 39.687 15.3893 39.5865 15.3068 39.4541C15.2711 39.402 15.2713 39.3374 15.3006 39.2828Z" fill="#000814"/>
<path d="M10.9153 39.4035C10.9633 39.3028 11.0834 39.2749 11.1856 39.2859C11.353 39.3097 11.5131 39.3997 11.6113 39.5387C11.6633 39.6109 11.6876 39.7066 11.6547 39.792C11.6219 39.8385 11.5739 39.8715 11.5193 39.8867C11.4578 39.894 11.3953 39.8927 11.3345 39.881C11.1807 39.8422 11.0367 39.7502 10.9514 39.6147C10.9109 39.5524 10.9012 39.4755 10.9153 39.4035Z" fill="#000814"/>
<path d="M7.98031 39.3488C8.15578 39.3058 8.3556 39.373 8.46861 39.5144C8.52026 39.5789 8.54004 39.6778 8.48748 39.7477C8.43344 39.8186 8.33802 39.8406 8.25322 39.8393C8.12519 39.8353 7.99753 39.7853 7.90577 39.6952C7.84917 39.6389 7.80998 39.5554 7.83324 39.4754C7.85265 39.4085 7.91676 39.367 7.98031 39.3488Z" fill="#000814"/>
<path d="M10.0208 39.487C10.22 39.4377 10.4362 39.539 10.5543 39.7009C10.5984 39.7654 10.6248 39.8515 10.5933 39.9268C10.5633 39.9949 10.4894 40.0315 10.4186 40.039C10.2561 40.0559 10.0931 39.9852 9.97862 39.8722C9.91946 39.8101 9.87111 39.7273 9.88027 39.6388C9.8876 39.5641 9.95024 39.5051 10.0208 39.487Z" fill="#000814"/>
<path d="M18.0217 39.5155C18.0443 39.4899 18.0873 39.5102 18.1151 39.5201C18.1827 39.5556 18.2597 39.6104 18.2688 39.6924C18.2708 39.743 18.2049 39.7324 18.175 39.7173C18.0996 39.6818 18.0131 39.6201 18.0115 39.5285L18.0217 39.5155Z" fill="#000814"/>
<path d="M16.7231 39.5576C16.803 39.5483 16.8786 39.5891 16.9434 39.6313C17.0266 39.6904 17.1081 39.7717 17.1231 39.8772C17.1283 39.9294 17.0773 39.9631 17.0297 39.9575C16.9202 39.9468 16.8237 39.8822 16.7478 39.806C16.702 39.7541 16.6546 39.6915 16.6601 39.6186C16.6599 39.5851 16.6927 39.5618 16.7231 39.5576Z" fill="#000814"/>
<path d="M17.3983 39.5515C17.4382 39.5244 17.4873 39.544 17.5278 39.5592C17.6117 39.596 17.6857 39.6595 17.7302 39.7401C17.7492 39.7742 17.7578 39.8304 17.7155 39.8511C17.5978 39.8683 17.4939 39.7835 17.4234 39.6985C17.3954 39.6584 17.3547 39.5941 17.3983 39.5515Z" fill="#000814"/>
<path d="M6.79786 39.6321C6.90922 39.6013 7.04658 39.6368 7.11307 39.7359C7.14769 39.7854 7.13523 39.8612 7.08248 39.8929C7.00098 39.9438 6.89456 39.9317 6.81123 39.8916C6.75683 39.8638 6.70042 39.8145 6.70078 39.7486C6.69401 39.69 6.74694 39.6467 6.79786 39.6321Z" fill="#000814"/>
<path d="M16.0066 39.627C16.1003 39.6017 16.1969 39.6457 16.2747 39.6957C16.3597 39.7554 16.4405 39.8323 16.4747 39.9329C16.4916 39.9801 16.4861 40.0488 16.4326 40.0695C16.3438 40.0972 16.2518 40.0567 16.1762 40.0118C16.0785 39.9488 15.9855 39.8618 15.9547 39.746C15.9408 39.7014 15.9591 39.6427 16.0066 39.627Z" fill="#000814"/>
<path d="M8.91733 39.7713C9.0296 39.7374 9.15323 39.7697 9.25049 39.8306C9.33291 39.8828 9.40801 39.9722 9.39738 40.0757C9.38676 40.1666 9.2928 40.216 9.20946 40.2191C9.04755 40.2263 8.86788 40.1413 8.8056 39.985C8.76696 39.8966 8.82721 39.7946 8.91733 39.7713Z" fill="#000814"/>
<path d="M10.8078 39.8331C10.9297 39.7878 11.0656 39.8133 11.1829 39.8613C11.3025 39.9135 11.4109 39.997 11.4827 40.1071C11.5325 40.1827 11.5583 40.2789 11.5323 40.3677C11.5025 40.4591 11.4056 40.5115 11.3138 40.5166C11.1367 40.532 10.9618 40.4564 10.831 40.3402C10.7409 40.2593 10.6645 40.1477 10.6678 40.0219C10.6682 39.9367 10.7307 39.8629 10.8078 39.8331Z" fill="#000814"/>
<path d="M17.4155 40.0906C17.3928 40.0532 17.3968 40.0038 17.432 39.9756C17.541 39.9899 17.6474 40.0565 17.6926 40.1589C17.7084 40.1924 17.6992 40.2305 17.6725 40.2556C17.5668 40.2465 17.467 40.1831 17.4155 40.0906Z" fill="#000814"/>
<path d="M7.78454 40.0313C7.8871 39.9883 8.01989 40.0291 8.08107 40.122C8.11788 40.1756 8.0992 40.2588 8.0351 40.2815C7.93143 40.3229 7.79901 40.2817 7.7382 40.1879C7.70267 40.1342 7.72281 40.0551 7.78454 40.0313Z" fill="#000814"/>
<path d="M16.7042 40.0313C16.7588 40.0051 16.8214 40.0264 16.8729 40.0506C16.961 40.0962 17.0412 40.1652 17.0839 40.2564C17.1005 40.2945 17.1117 40.348 17.076 40.3791C17.0326 40.4128 16.9738 40.3967 16.9275 40.3793C16.8265 40.337 16.7368 40.2614 16.6879 40.1626C16.6674 40.1216 16.6578 40.0582 16.7042 40.0313Z" fill="#000814"/>
<path d="M15.8872 40.1854C15.8835 40.1292 15.926 40.0858 15.9767 40.0695C16.1608 40.0631 16.3253 40.181 16.4312 40.3231C16.487 40.399 16.531 40.5198 16.4476 40.5935C16.3079 40.6341 16.1689 40.5601 16.0636 40.4737C15.9778 40.3997 15.8962 40.303 15.8872 40.1854Z" fill="#000814"/>
<path d="M9.71953 40.1887C9.7851 40.1183 9.89005 40.1114 9.97962 40.1249C10.1285 40.1583 10.28 40.2551 10.3247 40.4083C10.3509 40.4876 10.3097 40.5731 10.2393 40.6136C10.0624 40.6843 9.85452 40.6009 9.7395 40.4579C9.68015 40.3852 9.65176 40.265 9.71953 40.1887Z" fill="#000814"/>
<path d="M8.74308 40.4162C8.80682 40.4034 8.87587 40.408 8.93265 40.4422C9.00957 40.4794 9.06782 40.575 9.01727 40.6562C8.90353 40.7463 8.70462 40.6776 8.6711 40.5368C8.657 40.482 8.69674 40.4375 8.74308 40.4162Z" fill="#000814"/>
<path d="M10.4646 40.5841C10.4954 40.4973 10.582 40.4414 10.6703 40.427C10.8291 40.4004 10.9923 40.4539 11.1216 40.5457C11.2306 40.6206 11.3198 40.7301 11.3514 40.8603C11.3589 40.9343 11.3564 41.0173 11.302 41.0746C11.2128 41.1796 11.0599 41.1816 10.9346 41.1591C10.7496 41.1103 10.577 40.9944 10.486 40.8228C10.4556 40.7482 10.4355 40.6623 10.4646 40.5841Z" fill="#000814"/>
<path d="M16.7609 40.5617C16.8343 40.5503 16.9039 40.5959 16.9565 40.6432C17.0003 40.6859 17.0452 40.743 17.0353 40.808C17.0285 40.8432 16.9844 40.8569 16.953 40.8494C16.8552 40.8304 16.7688 40.7599 16.7277 40.6696C16.7127 40.632 16.7102 40.5718 16.7609 40.5617Z" fill="#000814"/>
<path d="M9.4822 40.7924C9.55784 40.7102 9.68239 40.7061 9.78441 40.73C9.92067 40.7653 10.0524 40.8583 10.0996 40.9955C10.1231 41.0567 10.1106 41.1239 10.0804 41.18C9.98863 41.2849 9.83496 41.2803 9.71279 41.241C9.60436 41.1941 9.50875 41.1181 9.45381 41.012C9.43329 40.9399 9.42615 40.8508 9.4822 40.7924Z" fill="#000814"/>
<path d="M17.4313 40.926C17.4807 40.9095 17.5331 40.9335 17.5767 40.9566C17.6568 41.0051 17.732 41.0798 17.7465 41.1762C17.7531 41.2302 17.6947 41.2586 17.6491 41.2445C17.5456 41.2211 17.4564 41.1436 17.4089 41.0498C17.3886 41.0108 17.3802 40.9441 17.4313 40.926Z" fill="#000814"/>
<path d="M16.5889 40.994C16.6251 40.9513 16.6861 40.9563 16.7365 40.9572C16.9123 41.0032 17.0693 41.1283 17.1449 41.2944C17.1742 41.3537 17.177 41.4242 17.1466 41.4836C17.0667 41.5462 16.9576 41.5184 16.875 41.4766C16.7548 41.4138 16.6486 41.3162 16.5892 41.1929C16.5616 41.1316 16.5412 41.0508 16.5889 40.994Z" fill="#000814"/>
<path d="M8.29751 41.1661C8.3325 41.1119 8.38836 41.07 8.4543 41.0648C8.59185 41.0493 8.7468 41.1209 8.80193 41.2526C8.82867 41.3127 8.8131 41.3823 8.77116 41.4313C8.625 41.5389 8.39971 41.4694 8.31345 41.3174C8.28597 41.2718 8.28781 41.2165 8.29751 41.1661Z" fill="#000814"/>
<path d="M10.3149 41.2213C10.3534 41.1422 10.4382 41.0946 10.5233 41.0838C10.6488 41.0664 10.7757 41.1048 10.8838 41.1675C11.0182 41.2528 11.142 41.393 11.1345 41.562C11.1356 41.6668 11.0532 41.751 10.958 41.7816C10.6829 41.8435 10.3704 41.6615 10.2966 41.3878C10.2907 41.332 10.2891 41.2728 10.3149 41.2213Z" fill="#000814"/>
<path d="M18.1106 41.2891C18.1653 41.2671 18.2256 41.2924 18.2739 41.3199C18.3576 41.3708 18.4331 41.4474 18.4604 41.5437C18.4743 41.582 18.4597 41.6353 18.417 41.6472C18.358 41.6569 18.3012 41.6305 18.2529 41.6001C18.1796 41.5499 18.1142 41.4814 18.0858 41.3959C18.0741 41.36 18.073 41.31 18.1106 41.2891Z" fill="#000814"/>
<path d="M17.3278 41.3359C17.4209 41.3077 17.5176 41.3478 17.5975 41.3947C17.715 41.4691 17.8178 41.5744 17.8707 41.7048C17.8929 41.7654 17.9055 41.8445 17.8568 41.896C17.8086 41.9401 17.7356 41.9314 17.6773 41.9161C17.5344 41.8694 17.4114 41.7687 17.3288 41.644C17.285 41.5766 17.2478 41.4962 17.2634 41.4141C17.2692 41.3788 17.2958 41.3504 17.3278 41.3359Z" fill="#000814"/>
<path d="M9.36088 41.3924C9.52994 41.3653 9.70888 41.4418 9.81328 41.5761C9.87281 41.6534 9.90687 41.762 9.86548 41.8554C9.82885 41.9409 9.73471 41.9878 9.64514 41.9919C9.54184 42.0007 9.43872 41.9697 9.35099 41.9162C9.29348 41.8794 9.24494 41.8301 9.20373 41.7759C9.17095 41.7105 9.14366 41.6354 9.16234 41.5618C9.18212 41.4689 9.27113 41.4072 9.36088 41.3924Z" fill="#000814"/>
<path d="M16.627 41.5114C16.7236 41.4812 16.8261 41.5188 16.9096 41.568C17.0395 41.6483 17.152 41.7686 17.1972 41.917C17.2174 41.9849 17.2086 42.079 17.1353 42.1115C17.0512 42.1448 16.9573 42.1148 16.8803 42.0763C16.7375 41.999 16.6137 41.8741 16.5618 41.718C16.5366 41.6455 16.5466 41.5437 16.627 41.5114Z" fill="#000814"/>
<path d="M18.7249 41.6628C18.7583 41.6469 18.7955 41.6313 18.833 41.6447C18.9398 41.6744 19.0283 41.752 19.0896 41.8425C19.1226 41.8933 19.1517 41.9572 19.1317 42.0184C19.1092 42.0687 19.046 42.0544 19.0028 42.0499C18.8832 41.9978 18.7775 41.9041 18.7292 41.7812C18.7129 41.7434 18.7178 41.7019 18.7249 41.6628Z" fill="#000814"/>
<path d="M15.8259 41.6796C15.8984 41.6475 15.9807 41.6655 16.0517 41.6931C16.1865 41.7486 16.3014 41.8508 16.375 41.9766C16.4146 42.044 16.4396 42.125 16.4228 42.2034C16.4098 42.2611 16.3569 42.3067 16.2981 42.3113C16.1642 42.3256 16.0383 42.2561 15.9411 42.1704C15.8469 42.0876 15.7658 41.9801 15.7462 41.8536C15.7334 41.7869 15.7612 41.7085 15.8259 41.6796Z" fill="#000814"/>
<path d="M7.90307 41.8216C8.07524 41.6478 8.38203 41.7141 8.52562 41.8927C8.60932 41.9874 8.62672 42.1414 8.54156 42.241C8.36023 42.4125 8.04703 42.3323 7.9104 42.1425C7.83988 42.0509 7.83146 41.915 7.90307 41.8216Z" fill="#000814"/>
<path d="M18.0769 41.7507C18.1653 41.7261 18.2545 41.7703 18.3274 41.8175C18.4303 41.89 18.521 41.9888 18.5624 42.1095C18.5833 42.1675 18.5836 42.2514 18.5216 42.2844C18.443 42.3128 18.3582 42.2785 18.2902 42.2386C18.1741 42.1657 18.0732 42.0593 18.0263 41.9287C18.0063 41.8681 18.0045 41.7759 18.0769 41.7507Z" fill="#000814"/>
<path d="M10.2897 41.7922C10.5216 41.7383 10.7769 41.8768 10.8703 42.0927C10.9179 42.1977 10.8987 42.3303 10.8071 42.4052C10.6426 42.5149 10.4201 42.4556 10.2769 42.3372C10.1736 42.2532 10.0919 42.1213 10.113 41.9836C10.125 41.8898 10.204 41.8207 10.2897 41.7922Z" fill="#000814"/>
<path d="M17.338 41.9629C17.3682 41.9217 17.4244 41.9226 17.4706 41.9222C17.6208 41.9552 17.7472 42.0589 17.8323 42.184C17.8884 42.268 17.9274 42.3821 17.868 42.4752C17.7746 42.5265 17.6647 42.4886 17.581 42.4358C17.4748 42.3662 17.3832 42.2688 17.3341 42.1506C17.3111 42.0915 17.2973 42.0177 17.338 41.9629Z" fill="#000814"/>
<path d="M12.3279 41.9585C12.4458 41.9309 12.5698 41.9704 12.6682 42.036C12.7751 42.1093 12.8678 42.2179 12.8876 42.3496C12.9032 42.4323 12.8689 42.5281 12.7922 42.5692C12.6896 42.6248 12.5634 42.6003 12.4632 42.5518C12.311 42.4754 12.1698 42.325 12.1768 42.1448C12.1757 42.0569 12.2432 41.9777 12.3279 41.9585Z" fill="#000814"/>
<path d="M19.3758 41.9865C19.4452 41.9599 19.5196 41.9935 19.58 42.0283C19.6912 42.0991 19.7855 42.2023 19.8346 42.3257C19.8514 42.3755 19.8613 42.444 19.8168 42.4827C19.761 42.5186 19.6921 42.4907 19.6382 42.4655C19.5152 42.3992 19.4135 42.2918 19.3565 42.1642C19.3325 42.1081 19.3166 42.0261 19.3758 41.9865Z" fill="#000814"/>
<path d="M8.95719 42.1756C9.12807 42.0714 9.35757 42.1271 9.50153 42.2537C9.59109 42.3321 9.6574 42.4485 9.64421 42.5707C9.63633 42.6709 9.55996 42.7572 9.46709 42.7905C9.3724 42.824 9.26855 42.8149 9.17313 42.7892C9.03411 42.739 8.91011 42.6372 8.85535 42.4974C8.81652 42.3819 8.84912 42.2416 8.95719 42.1756Z" fill="#000814"/>
<path d="M16.5985 42.1406C16.65 42.1025 16.7172 42.1181 16.7744 42.132C16.9473 42.2047 17.1108 42.3686 17.1011 42.5683C17.0792 42.6033 17.0537 42.6448 17.0083 42.6496C16.9204 42.6624 16.8339 42.6243 16.7643 42.5738C16.6729 42.5062 16.5942 42.4146 16.5623 42.304C16.548 42.249 16.5474 42.177 16.5985 42.1406Z" fill="#000814"/>
<path d="M18.7557 42.1711C18.8057 42.1421 18.8663 42.1623 18.9159 42.1828C19.0372 42.2412 19.1377 42.3438 19.1938 42.4663C19.2159 42.5218 19.2344 42.5962 19.1908 42.6462C19.137 42.6885 19.0628 42.6638 19.0075 42.6379C18.8839 42.5729 18.7797 42.465 18.7293 42.3339C18.7112 42.2811 18.7018 42.2062 18.7557 42.1711Z" fill="#000814"/>
<path d="M11.1282 42.3123C11.1894 42.233 11.2984 42.2129 11.3929 42.2242C11.6154 42.259 11.8317 42.4523 11.818 42.6906C11.8015 42.7799 11.7337 42.8581 11.6431 42.8763C11.4365 42.9191 11.2201 42.7937 11.1231 42.6125C11.0749 42.521 11.0615 42.3982 11.1282 42.3123Z" fill="#000814"/>
<path d="M18.1292 42.354C18.2126 42.3324 18.2959 42.3769 18.3618 42.4243C18.4591 42.5009 18.5479 42.6053 18.5642 42.732C18.5727 42.7874 18.5349 42.8524 18.4741 42.8524C18.3796 42.8548 18.295 42.8005 18.227 42.7401C18.1512 42.6698 18.0851 42.5806 18.0684 42.4764C18.06 42.4285 18.0774 42.3683 18.1292 42.354Z" fill="#000814"/>
<path d="M20.0736 42.3935C20.1485 42.3818 20.2189 42.4265 20.2766 42.4699C20.3608 42.5384 20.4341 42.6272 20.4672 42.732C20.4808 42.7785 20.485 42.8541 20.4255 42.8693C20.3504 42.8816 20.2799 42.8402 20.2229 42.7961C20.1366 42.727 20.0632 42.6369 20.0282 42.5311C20.0132 42.4836 20.0117 42.406 20.0736 42.3935Z" fill="#000814"/>
<path d="M7.55516 42.6331C7.75792 42.4071 8.17881 42.5261 8.26838 42.8053C8.29786 42.8967 8.27827 43.0049 8.20903 43.0736C8.1268 43.1593 7.99987 43.1835 7.88576 43.1687C7.73539 43.1459 7.58923 43.0545 7.52696 42.9122C7.48629 42.8219 7.49912 42.7141 7.55516 42.6331Z" fill="#000814"/>
<path d="M19.4075 42.6644C19.4126 42.6271 19.4223 42.5822 19.4641 42.5699C19.5529 42.554 19.6362 42.6065 19.7018 42.6611C19.7829 42.7331 19.8542 42.8245 19.8784 42.9322C19.8906 42.9784 19.8804 43.0428 19.8289 43.06C19.7606 43.0754 19.6954 43.0404 19.6393 43.0058C19.5273 42.9229 19.4293 42.8058 19.4075 42.6644Z" fill="#000814"/>
<path d="M10.0041 42.6287C10.2276 42.5155 10.5226 42.6677 10.5913 42.9009C10.615 42.9769 10.6014 43.0609 10.5571 43.1267C10.519 43.1652 10.4736 43.1989 10.4199 43.2109C10.2036 43.2595 9.96273 43.1122 9.9054 42.8988C9.87555 42.7981 9.91676 42.6866 10.0041 42.6287Z" fill="#000814"/>
<path d="M17.4153 42.5891C17.4805 42.5664 17.549 42.5979 17.6039 42.6327C17.6838 42.6875 17.7517 42.767 17.7779 42.8616C17.7911 42.9096 17.7872 42.9776 17.7336 42.9987C17.6565 43.0208 17.579 42.9814 17.5193 42.9355C17.4488 42.879 17.3883 42.8032 17.3686 42.7135C17.3587 42.6684 17.366 42.6072 17.4153 42.5891Z" fill="#000814"/>
<path d="M16.6149 42.7095C16.7138 42.695 16.8111 42.741 16.8893 42.7981C16.9997 42.8816 17.0926 42.9992 17.1197 43.1373C17.1358 43.2089 17.1107 43.2991 17.0358 43.326C16.9206 43.3569 16.8047 43.2998 16.7162 43.2295C16.6089 43.143 16.5182 43.0219 16.501 42.8818C16.4887 42.8064 16.5345 42.7205 16.6149 42.7095Z" fill="#000814"/>
<path d="M12.1235 42.7772C12.184 42.7023 12.2937 42.7036 12.3778 42.7303C12.5065 42.7755 12.6195 42.8873 12.6411 43.0252C12.6558 43.1017 12.6162 43.1869 12.5424 43.2168C12.4637 43.2495 12.377 43.2256 12.3012 43.1968C12.2087 43.14 12.1272 43.0603 12.0937 42.9548C12.0832 42.8948 12.0814 42.8261 12.1235 42.7772Z" fill="#000814"/>
<path d="M18.8661 42.7978C18.9531 42.7918 19.0284 42.8489 19.0881 42.9059C19.1537 42.9755 19.2165 43.0674 19.1997 43.168C19.1808 43.226 19.1086 43.2273 19.0617 43.2053C18.9447 43.1573 18.8513 43.0537 18.8112 42.9341C18.7923 42.8846 18.8028 42.8062 18.8661 42.7978Z" fill="#000814"/>
<path d="M13.9277 42.9704C13.9325 42.8935 13.9911 42.833 14.0614 42.8085C14.1732 42.7861 14.2834 42.8281 14.3783 42.8843C14.4933 42.9744 14.5946 43.0948 14.6144 43.2448C14.6181 43.3105 14.597 43.3755 14.5529 43.4248C14.4364 43.5074 14.2798 43.4636 14.1701 43.3906C14.0316 43.2993 13.9131 43.1438 13.9277 42.9704Z" fill="#000814"/>
<path d="M20.7654 42.8653C20.8427 42.8422 20.914 42.901 20.9677 42.9499C21.0279 43.0157 21.0918 43.0959 21.088 43.19C21.0858 43.2428 21.0204 43.2464 20.9834 43.2292C20.8845 43.1884 20.8116 43.1008 20.7647 43.0072C20.7449 42.9642 20.7279 42.9032 20.7654 42.8653Z" fill="#000814"/>
<path d="M8.81157 42.9637C9.03942 42.9297 9.29914 43.0973 9.31599 43.3368C9.33211 43.4845 9.20261 43.6127 9.06048 43.6242C8.87165 43.6471 8.67164 43.5407 8.59233 43.3665C8.55039 43.2749 8.55204 43.1583 8.61413 43.076C8.66029 43.0125 8.7352 42.9753 8.81157 42.9637Z" fill="#000814"/>
<path d="M20.1476 43.0161C20.2223 42.9994 20.2901 43.0522 20.343 43.0987C20.4064 43.1635 20.4681 43.2445 20.4705 43.339C20.4736 43.3738 20.447 43.4071 20.4109 43.4062C20.3518 43.404 20.2992 43.3709 20.2565 43.3326C20.1919 43.2743 20.1342 43.2022 20.1146 43.1159C20.1091 43.0807 20.1067 43.0307 20.1476 43.0161Z" fill="#000814"/>
<path d="M13.0735 43.0847C13.1861 43.0585 13.3048 43.0927 13.3993 43.1556C13.52 43.2354 13.6193 43.3592 13.6429 43.5048C13.6587 43.5887 13.6349 43.6852 13.564 43.7378C13.4805 43.8023 13.3636 43.7939 13.2695 43.7592C13.0863 43.6909 12.9297 43.5206 12.914 43.3208C12.902 43.2171 12.9698 43.1085 13.0735 43.0847Z" fill="#000814"/>
<path d="M11.1139 43.1426C11.2601 43.0975 11.4284 43.2228 11.4319 43.3748C11.4308 43.4274 11.3973 43.4774 11.3489 43.4977C11.2015 43.547 11.0231 43.4205 11.0277 43.2637C11.0257 43.21 11.0638 43.1595 11.1139 43.1426Z" fill="#000814"/>
<path d="M6.50328 43.2012C6.66208 43.1739 6.85677 43.2752 6.86941 43.4485C6.87784 43.588 6.73662 43.6895 6.60621 43.6822C6.46134 43.6886 6.29558 43.5858 6.28807 43.4307C6.27726 43.3083 6.39046 43.2149 6.50328 43.2012Z" fill="#000814"/>
<path d="M17.3927 43.2446C17.4283 43.199 17.4927 43.2083 17.5431 43.2159C17.7125 43.2834 17.8708 43.4567 17.84 43.6501C17.8091 43.6917 17.7583 43.7208 17.7056 43.7063C17.5715 43.6787 17.4644 43.5732 17.4028 43.4549C17.3717 43.3915 17.349 43.3072 17.3927 43.2446Z" fill="#000814"/>
<path d="M21.4331 43.3255C21.4528 43.2971 21.5001 43.3099 21.5272 43.3229C21.6127 43.37 21.6794 43.4521 21.7109 43.5444C21.7197 43.5761 21.7298 43.6262 21.6926 43.6435C21.6166 43.655 21.5574 43.5929 21.5111 43.542C21.4627 43.4828 21.408 43.4054 21.4331 43.3255Z" fill="#000814"/>
<path d="M9.82048 43.451C9.97287 43.329 10.2275 43.4781 10.2082 43.6679C10.2022 43.7503 10.122 43.8006 10.0459 43.8085C9.98495 43.8023 9.92231 43.7873 9.87433 43.7472C9.7833 43.6821 9.74044 43.5415 9.82048 43.451Z" fill="#000814"/>
<path d="M7.34087 43.451C7.5255 43.3724 7.75994 43.4451 7.86251 43.6186C7.91599 43.7048 7.9191 43.8164 7.87478 43.9072C7.76433 44.0832 7.50773 44.0986 7.34545 43.9889C7.23263 43.9199 7.1557 43.7842 7.18189 43.6506C7.19655 43.5616 7.2645 43.4929 7.34087 43.451Z" fill="#000814"/>
<path d="M16.5165 43.5228C16.5264 43.4743 16.5707 43.4478 16.6128 43.43C16.691 43.4276 16.7692 43.4494 16.8332 43.495C16.9645 43.5848 17.0722 43.7329 17.0643 43.8983C17.0467 43.945 17.0174 43.9954 16.9634 44.0036C16.8366 44.0241 16.7202 43.9434 16.6368 43.8562C16.5577 43.767 16.4866 43.6461 16.5165 43.5228Z" fill="#000814"/>
<path d="M11.9354 43.656C11.9572 43.5972 12.0003 43.541 12.0647 43.5272C12.2171 43.4941 12.3734 43.5952 12.4387 43.7305C12.4772 43.8095 12.4836 43.919 12.4148 43.9835C12.3739 44.0256 12.3129 44.0333 12.2574 44.0353C12.0777 44.0104 11.9144 43.8446 11.9354 43.656Z" fill="#000814"/>
<path d="M13.9517 43.6268C14.0171 43.5863 14.0997 43.5841 14.1702 43.6127C14.3013 43.664 14.4077 43.7841 14.4317 43.9244C14.446 43.9973 14.413 44.0831 14.3409 44.1118C14.2619 44.1437 14.1751 44.1142 14.1035 44.0776C14.0008 44.0098 13.9134 43.9045 13.9007 43.7785C13.8925 43.7224 13.9176 43.6693 13.9517 43.6268Z" fill="#000814"/>
<path d="M15.7144 43.6236C15.824 43.5961 15.9328 43.6417 16.0265 43.6949C16.1573 43.7875 16.267 43.9183 16.3095 44.0751C16.3306 44.1608 16.3324 44.2669 16.2639 44.3328C16.2137 44.3857 16.1357 44.3905 16.0676 44.3848C15.9998 44.3691 15.935 44.3421 15.8765 44.3046C15.6974 44.183 15.5423 43.9694 15.5882 43.7427C15.6133 43.689 15.654 43.6379 15.7144 43.6236Z" fill="#000814"/>
<path d="M18.1681 43.6527C18.2738 43.6179 18.3753 43.6964 18.4421 43.7715C18.5051 43.845 18.5641 43.9441 18.537 44.0441C18.5185 44.1032 18.446 44.112 18.3958 44.0921C18.271 44.0474 18.1749 43.9367 18.1324 43.8131C18.1137 43.7602 18.1126 43.6838 18.1681 43.6527Z" fill="#000814"/>
<path d="M8.42883 44.0194C8.43414 43.926 8.51949 43.8632 8.60704 43.8531C8.76053 43.8451 8.91401 43.9768 8.88965 44.1378C8.86859 44.1909 8.83397 44.2436 8.77719 44.2632C8.61968 44.3293 8.41308 44.1942 8.42883 44.0194Z" fill="#000814"/>
<path d="M12.8866 43.912C13.1197 43.8232 13.373 44.0029 13.4569 44.2186C13.4956 44.3144 13.4946 44.4285 13.438 44.5174C13.3941 44.5615 13.338 44.5976 13.2743 44.6007C13.1234 44.6146 12.9796 44.532 12.8838 44.4206C12.797 44.3221 12.7446 44.1847 12.7756 44.0538C12.7893 43.9924 12.8345 43.9444 12.8866 43.912Z" fill="#000814"/>
<path d="M17.4018 43.8982C17.4878 43.8735 17.5745 43.9198 17.6406 43.9717C17.7302 44.0455 17.8027 44.1486 17.8186 44.2654C17.8248 44.3193 17.8098 44.3889 17.754 44.411C17.6796 44.4358 17.6003 44.405 17.5397 44.3614C17.4366 44.2878 17.3532 44.1779 17.3316 44.0513C17.3204 43.9931 17.3398 43.9189 17.4018 43.8982Z" fill="#000814"/>
<path d="M14.7618 44.0013C14.8077 43.9545 14.8775 43.9479 14.9398 43.951C14.9845 43.9599 15.0275 43.9746 15.0695 43.9922C15.2231 44.073 15.3411 44.2202 15.3759 44.3915C15.3772 44.4492 15.3726 44.5081 15.3486 44.5616C15.2951 44.6389 15.1931 44.6633 15.1054 44.6395C14.9248 44.595 14.7773 44.446 14.7191 44.2713C14.69 44.1825 14.6894 44.0702 14.7618 44.0013Z" fill="#000814"/>
<path d="M6.0632 43.9712C6.23738 43.9261 6.44673 43.9972 6.52988 44.1633C6.58336 44.2692 6.56486 44.4082 6.47951 44.4922C6.31321 44.6684 5.98938 44.6302 5.85861 44.4298C5.80879 44.3541 5.79835 44.2552 5.82802 44.1701C5.86667 44.0699 5.95971 43.9961 6.0632 43.9712Z" fill="#000814"/>
<path d="M16.5576 44.1361C16.6492 44.1045 16.7479 44.1468 16.8223 44.2004C16.9362 44.288 17.032 44.416 17.0408 44.5638C17.0465 44.629 17.0164 44.7054 16.9505 44.7281C16.8646 44.7514 16.7743 44.7182 16.7041 44.6691C16.5902 44.5887 16.4975 44.4675 16.475 44.3277C16.4629 44.2563 16.4822 44.1642 16.5576 44.1361Z" fill="#000814"/>
<path d="M18.9491 44.1398C19.0867 44.1277 19.1971 44.257 19.2235 44.3816C19.2381 44.4285 19.2092 44.4701 19.1663 44.4865C19.0447 44.4598 18.948 44.3539 18.9246 44.2332C18.9162 44.1995 18.9367 44.1691 18.9491 44.1398Z" fill="#000814"/>
<path d="M7.04819 44.3351C7.21725 44.2316 7.48044 44.3406 7.494 44.5464C7.51249 44.7034 7.3504 44.8179 7.20516 44.7983C7.08226 44.7811 6.96083 44.6911 6.94507 44.5618C6.93042 44.4728 6.97713 44.3862 7.04819 44.3351Z" fill="#000814"/>
<path d="M18.13 44.3699C18.1535 44.3241 18.209 44.317 18.255 44.3149C18.4088 44.3481 18.526 44.4712 18.5973 44.6062C18.6356 44.684 18.6647 44.7809 18.6248 44.8637C18.6006 44.9146 18.5387 44.9186 18.4896 44.919C18.3332 44.8745 18.2103 44.7483 18.1438 44.6029C18.113 44.5309 18.091 44.443 18.13 44.3699Z" fill="#000814"/>
<path d="M11.7858 44.5089C11.8065 44.4395 11.8592 44.3752 11.9343 44.3646C12.0898 44.3382 12.243 44.4507 12.2953 44.5935C12.3246 44.6752 12.3193 44.7803 12.2485 44.8395C12.1979 44.8853 12.1254 44.8844 12.0616 44.8805C11.8992 44.8388 11.7638 44.6824 11.7858 44.5089Z" fill="#000814"/>
<path d="M15.6155 44.4133C15.6488 44.3963 15.6842 44.3837 15.7208 44.3741C15.784 44.3751 15.8474 44.3861 15.905 44.4126C16.0975 44.5143 16.2516 44.7198 16.2386 44.9447C16.2252 45.0051 16.1926 45.061 16.1395 45.0945C16.0208 45.1366 15.8941 45.091 15.7966 45.0211C15.6721 44.9223 15.5755 44.785 15.5481 44.6264C15.5417 44.5496 15.5605 44.4698 15.6155 44.4133Z" fill="#000814"/>
<path d="M13.8864 44.4317C14.0513 44.385 14.2134 44.514 14.274 44.6607C14.307 44.737 14.3123 44.8378 14.2513 44.9021C14.1905 44.959 14.0962 44.9545 14.0244 44.9228C13.8982 44.8682 13.798 44.7444 13.7873 44.6052C13.7798 44.5343 13.8161 44.4559 13.8864 44.4317Z" fill="#000814"/>
<path d="M4.96483 44.5578C5.1044 44.507 5.3066 44.5823 5.31888 44.746C5.33609 44.9096 5.1566 45.0246 5.00788 45.0021C4.89542 44.9933 4.78039 44.9045 4.78168 44.7843C4.77691 44.6757 4.86629 44.5872 4.96483 44.5578Z" fill="#000814"/>
<path d="M17.4327 44.68C17.4508 44.6386 17.5019 44.6425 17.5393 44.6452C17.6501 44.6983 17.7442 44.817 17.7136 44.9462C17.6534 44.9973 17.5697 44.9652 17.5202 44.9156C17.4576 44.8577 17.4023 44.7672 17.4327 44.68Z" fill="#000814"/>
<path d="M12.8022 44.739C13.0154 44.7106 13.2149 44.8698 13.2863 45.063C13.3283 45.1738 13.3231 45.3178 13.2273 45.3998C13.164 45.4585 13.0718 45.4592 12.9912 45.4502C12.7716 45.3964 12.5885 45.1786 12.6139 44.9467C12.6231 44.8452 12.7035 44.7604 12.8022 44.739Z" fill="#000814"/>
<path d="M18.9214 44.794C18.9735 44.7629 19.0363 44.787 19.0857 44.8125C19.1975 44.877 19.2804 44.9861 19.3253 45.1063C19.3456 45.168 19.3579 45.2433 19.3191 45.3008C19.2788 45.3517 19.2037 45.3372 19.1528 45.3121C19.0233 45.2469 18.9273 45.1226 18.8846 44.9854C18.8663 44.9229 18.8586 44.8341 18.9214 44.794Z" fill="#000814"/>
<path d="M16.5034 44.8669C16.5785 44.8305 16.6664 44.8556 16.7364 44.8922C16.8714 44.9688 16.9752 45.1008 17.0153 45.251C17.0344 45.3285 17.0353 45.4235 16.975 45.484C16.9303 45.5287 16.8618 45.5276 16.8036 45.5204C16.6481 45.4754 16.5256 45.3503 16.4585 45.2059C16.4206 45.1274 16.4067 45.0367 16.4279 44.9515C16.4472 44.9189 16.4675 44.8832 16.5034 44.8669Z" fill="#000814"/>
<path d="M5.70136 44.9132C5.81272 44.845 5.96602 44.8569 6.06383 44.9439C6.15595 45.0192 6.18324 45.1584 6.1217 45.2615C6.07445 45.3203 6.0065 45.365 5.92957 45.3696C5.78836 45.3862 5.63396 45.2921 5.60703 45.148C5.5867 45.0586 5.63066 44.9674 5.70136 44.9132Z" fill="#000814"/>
<path d="M14.7483 44.9963C14.771 44.9624 14.8014 44.9282 14.8459 44.928C14.9513 44.9225 15.0423 45.0018 15.0884 45.091C15.1178 45.1526 15.1319 45.2386 15.08 45.2927C15.0476 45.3288 14.995 45.32 14.952 45.3196C14.8236 45.2723 14.7192 45.1374 14.7483 44.9963Z" fill="#000814"/>
<path d="M18.2611 45.1056C18.3067 45.0894 18.356 45.1133 18.3919 45.1415C18.4637 45.2004 18.5237 45.2909 18.5087 45.388C18.5008 45.4329 18.4474 45.4506 18.4087 45.4341C18.3208 45.4034 18.2552 45.3224 18.2281 45.2352C18.2175 45.1916 18.212 45.1275 18.2611 45.1056Z" fill="#000814"/>
<path d="M13.7154 45.263C13.9002 45.2255 14.0718 45.3964 14.0975 45.5711C14.1178 45.6673 14.0574 45.7845 13.9515 45.7898C13.766 45.799 13.6015 45.6246 13.5962 45.4435C13.5905 45.3663 13.6359 45.281 13.7154 45.263Z" fill="#000814"/>
<path d="M15.5201 45.4259C15.5236 45.3559 15.5659 45.2847 15.6346 45.262C15.6934 45.2406 15.7566 45.2558 15.8145 45.273C15.9115 45.3164 15.9916 45.39 16.0529 45.4761C16.0669 45.5027 16.0821 45.5288 16.0962 45.5556C16.1253 45.623 16.1348 45.6963 16.1359 45.7693C16.1192 45.8331 16.0846 45.9016 16.0163 45.9212C15.9106 45.9518 15.8007 45.9023 15.72 45.8356C15.6002 45.7362 15.5095 45.5856 15.5201 45.4259Z" fill="#000814"/>
<path d="M19.6379 45.3552C19.653 45.3242 19.6647 45.2828 19.7026 45.2729C19.7548 45.2605 19.8072 45.2854 19.8497 45.3143C19.972 45.4017 20.0543 45.5427 20.0671 45.6931C20.0533 45.7261 20.0442 45.7719 20.0039 45.7823C19.9484 45.7986 19.8927 45.7675 19.8486 45.7365C19.7295 45.6466 19.6453 45.5059 19.6379 45.3552Z" fill="#000814"/>
<path d="M11.7775 45.3083C11.9477 45.2548 12.1292 45.4002 12.1508 45.5691C12.1695 45.6649 12.1142 45.7775 12.0136 45.7982C11.8306 45.8374 11.646 45.6617 11.6594 45.4786C11.6581 45.4044 11.7081 45.3337 11.7775 45.3083Z" fill="#000814"/>
<path d="M17.4139 45.4135C17.4593 45.3972 17.5089 45.4135 17.5502 45.4346C17.6513 45.489 17.7258 45.5886 17.7557 45.6987C17.7709 45.7586 17.7721 45.8377 17.7163 45.8776C17.6578 45.9108 17.5877 45.8848 17.5357 45.8516C17.4406 45.7875 17.3672 45.6857 17.3479 45.5716C17.3373 45.513 17.3514 45.4364 17.4139 45.4135Z" fill="#000814"/>
<path d="M4.63405 45.4373C4.75273 45.3884 4.91867 45.4329 4.96208 45.563C5.00256 45.689 4.90402 45.8203 4.78332 45.8525C4.66537 45.8932 4.50822 45.839 4.47269 45.7113C4.4399 45.5941 4.52507 45.475 4.63405 45.4373Z" fill="#000814"/>
<path d="M19.0273 45.5588C19.0797 45.541 19.1339 45.5716 19.1728 45.6053C19.2459 45.6704 19.3052 45.7639 19.2981 45.8654C19.2973 45.8967 19.2761 45.9337 19.2415 45.9345C19.1843 45.9407 19.1339 45.9042 19.0951 45.8669C19.0376 45.8068 18.9913 45.7302 18.9861 45.6456C18.9836 45.6119 18.9975 45.5764 19.0273 45.5588Z" fill="#000814"/>
<path d="M12.4447 45.86C12.4656 45.754 12.5601 45.675 12.6667 45.6659C12.9013 45.6606 13.1057 45.8728 13.1186 46.1018C13.1248 46.1956 13.0891 46.2978 13.0079 46.3509C12.957 46.3871 12.8927 46.3936 12.8319 46.3919C12.5898 46.3578 12.3934 46.1036 12.4447 45.86Z" fill="#000814"/>
<path d="M16.3678 45.9455C16.357 45.8435 16.3938 45.7255 16.4986 45.688C16.5639 45.6783 16.6308 45.6883 16.6918 45.7138C16.874 45.8048 17.001 45.9872 17.0381 46.1862C17.0489 46.2873 17.0169 46.4048 16.9145 46.4468C16.8476 46.4569 16.779 46.4501 16.7171 46.423C16.5344 46.3301 16.4026 46.147 16.3678 45.9455Z" fill="#000814"/>
<path d="M20.4702 45.8387C20.5597 45.8348 20.6249 45.9057 20.6684 45.9757C20.6986 46.0295 20.7255 46.0943 20.7072 46.1568C20.692 46.1993 20.6347 46.1909 20.6044 46.1709C20.5227 46.1214 20.4661 46.0326 20.4484 45.9396C20.4392 45.9035 20.4539 45.8694 20.4702 45.8387Z" fill="#000814"/>
<path d="M3.68105 45.9461C3.78234 45.9087 3.92355 45.9395 3.96439 46.0494C4.00634 46.1838 3.87318 46.3067 3.74625 46.3137C3.65303 46.3248 3.54277 46.2745 3.52207 46.1761C3.50192 46.0715 3.58544 45.9755 3.68105 45.9461Z" fill="#000814"/>
<path d="M19.7622 46.036C19.8119 45.9987 19.8773 46.0346 19.9188 46.0686C20.011 46.1488 20.0853 46.2703 20.069 46.3965C20.0621 46.4554 19.9899 46.4642 19.9463 46.4406C19.8443 46.388 19.7747 46.2851 19.7437 46.1767C19.7351 46.1307 19.7256 46.0725 19.7622 46.036Z" fill="#000814"/>
<path d="M17.3452 46.1874C17.4271 46.1598 17.5145 46.1979 17.5819 46.2444C17.7075 46.3369 17.8002 46.4774 17.8271 46.632C17.8392 46.703 17.8352 46.7855 17.7846 46.8417C17.7407 46.8906 17.667 46.8941 17.6082 46.875C17.4875 46.8384 17.3967 46.7419 17.3276 46.6404C17.3172 46.6221 17.3069 46.6039 17.2967 46.586C17.2549 46.4906 17.2252 46.3836 17.2536 46.2801C17.2742 46.2413 17.3003 46.2006 17.3452 46.1874Z" fill="#000814"/>
<path d="M13.5046 46.2134C13.5617 46.1883 13.6273 46.1823 13.6859 46.2072C13.8389 46.2698 13.9456 46.4545 13.8874 46.6164C13.8548 46.6722 13.7954 46.7142 13.7286 46.7083C13.5522 46.696 13.4137 46.5136 13.4335 46.3409C13.4372 46.2898 13.4702 46.2484 13.5046 46.2134Z" fill="#000814"/>
<path d="M15.5724 46.2932C15.6424 46.2379 15.7416 46.2633 15.8013 46.3212C15.8839 46.3948 15.9482 46.5183 15.9024 46.6282C15.8858 46.6718 15.8383 46.6855 15.7971 46.6937C15.6259 46.665 15.483 46.4562 15.5724 46.2932Z" fill="#000814"/>
<path d="M11.6316 46.3152C11.8028 46.2802 11.9647 46.4496 11.9536 46.6174C11.9527 46.7124 11.8726 46.8013 11.7759 46.8038C11.6303 46.811 11.5037 46.6824 11.4889 46.5419C11.4731 46.4454 11.5308 46.335 11.6316 46.3152Z" fill="#000814"/>
<path d="M20.4978 46.55C20.5391 46.5495 20.5851 46.5464 20.6177 46.5779C20.7009 46.6484 20.7668 46.7588 20.7505 46.8709C20.7463 46.9092 20.7034 46.9127 20.6736 46.9152C20.5503 46.8456 20.4527 46.6936 20.4978 46.55Z" fill="#000814"/>
<path d="M16.41 46.604C16.4659 46.5683 16.5359 46.5783 16.5965 46.5939C16.7525 46.6589 16.8694 46.7994 16.9218 46.9584C16.9511 47.045 16.9535 47.1415 16.9203 47.2276C16.8923 47.2668 16.856 47.3057 16.8062 47.3137C16.7152 47.33 16.6243 47.2912 16.5542 47.2355C16.4265 47.1339 16.3353 46.9813 16.3228 46.817C16.3183 46.739 16.3404 46.6487 16.41 46.604Z" fill="#000814"/>
<path d="M12.3712 46.7188C12.431 46.6774 12.5062 46.6599 12.5777 46.6774C12.7766 46.7214 12.9167 46.9412 12.8757 47.1401C12.8614 47.2126 12.8106 47.2725 12.7471 47.3082C12.5214 47.3866 12.2945 47.1683 12.2874 46.9478C12.2784 46.8628 12.311 46.7784 12.3712 46.7188Z" fill="#000814"/>
<path d="M17.2668 47.101C17.3341 47.0358 17.4352 47.038 17.5169 47.073C17.7061 47.1684 17.8315 47.36 17.8793 47.563C17.8958 47.6655 17.8874 47.7831 17.8081 47.8593C17.7518 47.8875 17.6879 47.8947 17.6271 47.8785C17.5451 47.8507 17.4753 47.7978 17.4128 47.7393C17.315 47.6313 17.2443 47.5 17.2148 47.3569C17.2038 47.2688 17.2126 47.1745 17.2668 47.101Z" fill="#000814"/>
<path d="M21.2681 47.1208C21.2846 47.1003 21.3178 47.1133 21.3375 47.1239C21.4062 47.1659 21.4482 47.2401 21.4747 47.3141C21.4872 47.3573 21.4994 47.4109 21.4703 47.4505C21.446 47.471 21.4093 47.4544 21.3866 47.439C21.3214 47.3901 21.2787 47.3155 21.2564 47.2384C21.2482 47.2003 21.2372 47.1516 21.2681 47.1208Z" fill="#000814"/>
<path d="M13.3231 47.136C13.5696 47.0558 13.7916 47.4284 13.5993 47.604C13.4711 47.6661 13.3256 47.58 13.2678 47.4621C13.2102 47.3588 13.2092 47.2014 13.3231 47.136Z" fill="#000814"/>
<path d="M11.358 47.5201C11.4185 47.4482 11.5254 47.4518 11.6047 47.4872C11.6763 47.5348 11.7251 47.6084 11.7452 47.6918C11.7445 47.752 11.7436 47.8187 11.7036 47.8681C11.6589 47.9324 11.5718 47.9597 11.4979 47.9346C11.3304 47.8898 11.2434 47.656 11.358 47.5201Z" fill="#000814"/>
<path d="M18.2036 47.685C18.2721 47.6498 18.3512 47.6839 18.4074 47.7273C18.5162 47.8132 18.5906 47.9418 18.6129 48.0786C18.6208 48.1477 18.6215 48.2341 18.5598 48.2804C18.497 48.3228 18.4162 48.2898 18.3605 48.2511C18.2424 48.1625 18.1601 48.0248 18.14 47.8786C18.1321 47.8103 18.1396 47.7247 18.2036 47.685Z" fill="#000814"/>
<path d="M16.4027 47.8084C16.4176 47.7564 16.4498 47.698 16.5115 47.6973C16.6264 47.6964 16.7128 47.7958 16.756 47.8933C16.7885 47.9702 16.804 48.0757 16.7381 48.1398C16.6925 48.1804 16.6284 48.1596 16.5786 48.1407C16.4694 48.0678 16.3989 47.9407 16.4027 47.8084Z" fill="#000814"/>
<path d="M12.1413 47.8667C12.2099 47.7927 12.3257 47.7854 12.4147 47.8235C12.5788 47.8973 12.6759 48.0944 12.6347 48.2693C12.6209 48.3314 12.5823 48.3849 12.5336 48.425C12.4372 48.4814 12.3112 48.4651 12.2253 48.3968C12.1499 48.3435 12.1057 48.26 12.0739 48.1757C12.0528 48.07 12.0598 47.9464 12.1413 47.8667Z" fill="#000814"/>
<path d="M17.2146 48.2268C17.2256 48.1519 17.2833 48.0886 17.3599 48.0789C17.4483 48.0847 17.528 48.1298 17.5912 48.19C17.6961 48.2972 17.7597 48.4393 17.7762 48.5879C17.7743 48.6706 17.7491 48.76 17.6729 48.8042C17.5536 48.8333 17.4419 48.7611 17.367 48.6752C17.2611 48.554 17.1892 48.3899 17.2146 48.2268Z" fill="#000814"/>
<path d="M12.9933 48.3751C13.0041 48.3071 13.0552 48.2414 13.1263 48.2319C13.1937 48.2192 13.2556 48.257 13.3091 48.2929C13.4067 48.3971 13.4514 48.5769 13.3413 48.6888C13.2983 48.7108 13.2488 48.7273 13.2008 48.7132C13.0578 48.6769 12.9688 48.5167 12.9933 48.3751Z" fill="#000814"/>
<path d="M18.1514 48.6449C18.2446 48.6116 18.3404 48.6565 18.412 48.7156C18.5594 48.8565 18.6585 49.059 18.6415 49.266C18.6301 49.3358 18.5907 49.4023 18.5206 49.4255C18.4435 49.4274 18.3711 49.3964 18.3116 49.3493C18.1581 49.2147 18.0568 49.0138 18.0644 48.8074C18.0713 48.7438 18.1001 48.6841 18.1514 48.6449Z" fill="#000814"/>
<path d="M11.9511 49.0949C12.0348 49.0553 12.1406 49.0615 12.2133 49.1214C12.3778 49.241 12.413 49.5234 12.2434 49.6542C12.1829 49.6846 12.1113 49.696 12.0469 49.6718C11.8225 49.5907 11.7516 49.2397 11.9511 49.0949Z" fill="#000814"/>
<path d="M17.3219 49.1855C17.3759 49.1613 17.4385 49.1838 17.4847 49.2157C17.5935 49.297 17.66 49.4302 17.6677 49.5651C17.6671 49.6217 17.6558 49.688 17.6065 49.7236C17.5492 49.7593 17.4755 49.7353 17.4255 49.6979C17.3217 49.6201 17.2568 49.4939 17.2464 49.3653C17.2418 49.2996 17.2556 49.2166 17.3219 49.1855Z" fill="#000814"/>
<path d="M18.1 49.8411C18.115 49.7666 18.168 49.7004 18.248 49.6953C18.3326 49.7087 18.405 49.7587 18.4619 49.8211C18.5451 49.9195 18.5982 50.0391 18.6262 50.1646C18.6363 50.2655 18.6363 50.3882 18.5454 50.455C18.4967 50.4664 18.4464 50.4627 18.4002 50.4446C18.1951 50.325 18.0782 50.0754 18.1 49.8411Z" fill="#000814"/>
<path d="M11.7776 50.3615C11.9086 50.33 12.0245 50.4474 12.0487 50.5685C12.0839 50.6945 12.034 50.8623 11.8985 50.9037C11.7668 50.9419 11.6448 50.8225 11.621 50.7C11.5888 50.5718 11.6359 50.3981 11.7776 50.3615Z" fill="#000814"/>
<path d="M18.9132 50.4899C18.9405 50.4253 19.009 50.398 19.0753 50.415C19.2248 50.4842 19.3118 50.6388 19.3605 50.7894C19.3951 50.9055 19.4151 51.0513 19.3237 51.1473C19.2556 51.1725 19.1852 51.1447 19.1312 51.1026C18.9664 50.9522 18.8607 50.713 18.9132 50.4899Z" fill="#000814"/>
<path d="M18.1689 50.8163C18.2301 50.7769 18.3052 50.8154 18.3515 50.8606C18.4519 50.961 18.5083 51.1077 18.4948 51.2496C18.4896 51.3018 18.4589 51.3659 18.3992 51.3689C18.3395 51.3723 18.2867 51.3352 18.2482 51.293C18.1618 51.198 18.1096 51.0689 18.116 50.9395C18.1182 50.8943 18.1321 50.8454 18.1689 50.8163Z" fill="#000814"/>
<path d="M18.7995 51.6409C18.8127 51.5917 18.8369 51.5439 18.8832 51.5184C19.0032 51.5081 19.0823 51.6124 19.1395 51.7025C19.1953 51.8109 19.2318 51.9296 19.2327 52.0527C19.225 52.114 19.2029 52.1765 19.1492 52.2126C19.047 52.2208 18.9734 52.1404 18.9169 52.0666C18.8365 51.9404 18.788 51.7919 18.7995 51.6409Z" fill="#000814"/>
<path d="M19.3088 52.8321C19.3171 52.7689 19.3435 52.6856 19.4237 52.6937C19.5402 52.7554 19.5964 52.8829 19.6352 53.0023C19.64 53.0219 19.6451 53.0418 19.6508 53.062C19.659 53.1464 19.6768 53.2437 19.6255 53.3184C19.6023 53.3503 19.5605 53.338 19.5283 53.3343C19.3762 53.2173 19.316 53.0169 19.3088 52.8321Z" fill="#000814"/>
</svg>
