<svg width="39" height="20" viewBox="0 0 39 20" fill="none" xmlns="http://www.w3.org/2000/svg">
<path d="M9.85375 0.273512C10.0205 0.15992 10.1857 -0.00852956 10.4023 0.000336185C10.599 0.0629505 10.7093 0.252455 10.8345 0.402619C10.9398 0.548904 11.0905 0.732314 11.0002 0.921265C10.8683 1.13848 10.6411 1.26925 10.4478 1.42495C9.40659 2.21012 8.36597 2.99696 7.3248 3.78213C7.21509 3.86802 7.06049 3.9395 7.06104 4.10185C7.26773 4.15615 7.48217 4.13288 7.69328 4.1362C9.26141 4.13787 10.8295 4.13399 12.3977 4.13787C12.7412 4.15394 13.1441 4.16336 13.3906 4.44152C13.6134 4.73575 13.6095 5.12917 13.6167 5.48213C13.6189 6.02017 13.6078 6.55877 13.6222 7.09681C13.6234 7.32344 13.8433 7.47471 14.0561 7.46474C15.074 7.47139 16.0925 7.46418 17.1104 7.46806C17.2561 7.46529 17.4212 7.45753 17.5337 7.35115C17.6467 7.24143 17.6484 7.07077 17.6539 6.92448C17.6545 6.18641 17.6534 5.44778 17.6534 4.70971C17.6556 4.54347 17.6706 4.35064 17.8069 4.23539C17.9737 4.11958 18.1892 4.14119 18.382 4.13454C18.5621 4.14175 18.7627 4.12845 18.9173 4.23761C19.0575 4.37115 19.0603 4.5806 19.0641 4.76124C19.0608 5.59296 19.068 6.42412 19.0608 7.25584C19.0403 7.62432 18.9999 8.04046 18.7178 8.31031C18.4031 8.59235 17.9537 8.59789 17.5553 8.61895C11.7283 8.62005 5.90129 8.61895 0.0737305 8.6195C0.109748 8.34023 0.222785 8.06096 0.442213 7.87644C0.801275 7.56281 1.29887 7.48247 1.75933 7.46695C5.01139 7.46751 8.26291 7.4664 11.5144 7.46806C11.6951 7.46252 11.8862 7.48856 12.0569 7.41542C12.2159 7.33286 12.1954 7.1295 12.1993 6.97878C12.1904 6.49837 12.2109 6.01796 12.1893 5.5381C12.1821 5.33419 11.9505 5.28487 11.7859 5.28931C9.94019 5.28709 8.09446 5.2893 6.24927 5.2882C5.94728 5.27933 5.62147 5.22392 5.39207 5.01114C5.11169 4.76678 5.04187 4.33014 5.20644 4.00211C5.32668 3.74944 5.53447 3.55273 5.75556 3.3876C7.12089 2.34865 8.48898 1.31302 9.85375 0.273512Z" fill="#000814"/>
<path d="M20.7254 0.181026C21.0218 0.115087 21.3399 0.110654 21.6352 0.187675C21.869 0.27467 21.8713 0.563915 21.8812 0.77226C21.8829 2.78645 21.8829 4.80119 21.8812 6.81537C21.8851 6.97385 21.8591 7.14728 21.9483 7.28858C22.0292 7.43653 22.2192 7.46202 22.3722 7.467C23.8311 7.46867 25.2907 7.46479 26.7496 7.46867C26.9208 7.46811 27.1092 7.47476 27.2544 7.36671C27.3636 7.27085 27.3713 7.11293 27.3747 6.97773C27.3763 6.22635 27.3702 5.47498 27.3769 4.72361C27.3857 4.51748 27.414 4.23378 27.6556 4.17393C27.9393 4.11797 28.2391 4.11686 28.5228 4.1756C28.7511 4.23599 28.7876 4.50585 28.796 4.70588C28.8109 5.50102 28.7937 6.29728 28.8043 7.09242C28.7943 7.32681 29.027 7.47476 29.242 7.46479C30.2588 7.47088 31.2756 7.46479 32.2929 7.46811C32.4398 7.46534 32.6066 7.45703 32.7196 7.35009C32.8271 7.23816 32.8276 7.07137 32.8337 6.92675C32.8343 6.18757 32.8332 5.44894 32.8337 4.71031C32.8365 4.5463 32.8454 4.35734 32.9784 4.24098C33.1291 4.12684 33.3313 4.1429 33.5109 4.13459C33.7065 4.1429 33.9276 4.11852 34.0966 4.23876C34.2268 4.35513 34.2345 4.54574 34.2406 4.70865C34.2401 5.44672 34.2401 6.18535 34.2395 6.92342C34.2401 7.07248 34.2578 7.23428 34.3575 7.35341C34.4761 7.4526 34.6379 7.46867 34.787 7.46811C35.5062 7.467 36.2254 7.46645 36.9441 7.46811C37.0976 7.467 37.2672 7.46534 37.3935 7.36505C37.4883 7.28138 37.5121 7.1495 37.5126 7.02981C37.5176 6.2596 37.5065 5.48939 37.5176 4.71918C37.5215 4.5125 37.5581 4.23322 37.7969 4.17393C38.0762 4.11686 38.3704 4.12019 38.6502 4.17172C38.8652 4.21549 38.9212 4.46207 38.93 4.64936C38.94 5.25943 38.9312 5.87006 38.9339 6.48069C38.9289 6.94669 38.9644 7.42267 38.8381 7.8776C38.7727 8.107 38.6286 8.3231 38.412 8.43448C38.1 8.59739 37.7376 8.60403 37.3941 8.619C32.4619 8.61955 27.5293 8.61955 22.5971 8.61955C22.1516 8.61733 21.7 8.64061 21.2628 8.54031C21.0085 8.48047 20.7653 8.32975 20.645 8.09148C20.4638 7.73242 20.4694 7.31906 20.4605 6.92675C20.4605 4.98626 20.461 3.04577 20.4605 1.10528C20.4616 0.883082 20.45 0.658114 20.4965 0.439241C20.527 0.325094 20.6051 0.211502 20.7254 0.181026Z" fill="#000814"/>
<path d="M15.6297 9.82081C15.9915 9.67065 16.3872 9.96266 16.4925 10.3062C16.5706 10.6088 16.3811 10.8864 16.1766 11.0886C15.9328 11.3258 15.7167 11.625 15.3798 11.7341C14.9216 11.8749 14.4245 11.3734 14.5625 10.9168C14.6345 10.6675 14.8351 10.4891 15.0113 10.3106C15.1992 10.1272 15.3781 9.91667 15.6297 9.82081Z" fill="#000814"/>
<path d="M24.7681 11.5407C24.9643 11.528 25.171 11.5147 25.3582 11.5862C25.5478 11.6959 25.5206 11.9452 25.5339 12.132C25.5383 14.2769 25.5333 16.4213 25.5367 18.5657C25.5195 18.6843 25.6287 18.7935 25.7467 18.7829C26.748 18.7857 27.7498 18.7852 28.7511 18.7829C28.8464 18.7946 28.9666 18.7342 28.9389 18.62C28.9145 18.2549 28.7156 17.9291 28.5017 17.6426C27.9404 16.9217 27.1092 16.4557 26.2448 16.1947C26.1063 16.1515 25.9523 16.0656 25.9401 15.9027C25.934 15.6894 26.0032 15.4533 26.1678 15.3081C26.3218 15.1901 26.5252 15.2505 26.6937 15.2998C27.6029 15.5724 28.484 16.0274 29.1251 16.7411C29.7329 17.4088 30.0881 18.3214 30.015 19.229C29.9989 19.4041 29.8975 19.5792 29.7318 19.6507C29.5484 19.7476 29.3351 19.7249 29.1356 19.7271C27.916 19.726 26.6964 19.726 25.4774 19.7271C25.2413 19.7249 24.997 19.695 24.7875 19.5809C24.6058 19.4806 24.4972 19.2855 24.4562 19.0877C24.3941 18.7863 24.408 18.4771 24.4068 18.1718C24.4091 16.1044 24.4024 14.037 24.4102 11.9702C24.388 11.7507 24.5299 11.5286 24.7681 11.5407Z" fill="#000814"/>
<path d="M31.0421 13.0485C31.3419 12.916 31.6694 13.1693 31.7464 13.4568C31.7946 13.7023 31.6289 13.9151 31.4688 14.0808C31.3015 14.2453 31.143 14.4376 30.9186 14.5252C30.5445 14.6781 30.0996 14.2293 30.2492 13.8564C30.3124 13.679 30.4548 13.5494 30.58 13.4147C30.7147 13.2718 30.8548 13.1222 31.0421 13.0485Z" fill="#000814"/>
<path d="M22.7096 14.0664C22.9312 13.9972 23.175 14.0033 23.4011 14.0509C23.6028 14.1008 23.6454 14.3357 23.6454 14.5131C23.6454 15.8811 23.646 17.2492 23.6449 18.6173C23.6338 18.9138 23.6105 19.244 23.3994 19.4734C23.1866 19.6774 22.8752 19.7211 22.5932 19.7267C21.2827 19.7267 19.9728 19.7256 18.6629 19.7272C18.469 19.7328 18.259 19.6846 18.1232 19.5377C17.9719 19.3626 17.9719 19.1177 17.9825 18.8999C18.0223 18.0472 18.4291 17.2454 19.0026 16.6253C19.5389 16.049 20.2017 15.5742 20.9492 15.3149C21.188 15.2384 21.4512 15.1697 21.6989 15.2456C21.8828 15.3287 21.9488 15.5465 21.9399 15.7343C21.9366 16.2895 21.9471 16.8447 21.9349 17.4C21.9504 17.5878 21.7836 17.7335 21.6024 17.7252C21.3858 17.7247 21.0639 17.7895 20.9508 17.5485C20.8622 17.1695 20.953 16.7744 20.8876 16.3931C20.4516 16.5428 20.0997 16.8608 19.7877 17.19C19.4215 17.6005 19.0713 18.0948 19.0663 18.6672C19.0873 18.7924 19.2292 18.783 19.3273 18.7852C20.287 18.7841 21.2467 18.7836 22.207 18.7852C22.3006 18.7847 22.4065 18.7869 22.4757 18.711C22.5123 18.6284 22.5101 18.5359 22.5128 18.4478C22.5106 17.1584 22.5106 15.869 22.5123 14.5795C22.5195 14.3978 22.5151 14.154 22.7096 14.0664Z" fill="#000814"/>
<path d="M13.3739 16.0407C14.4533 15.4334 15.7106 15.2029 16.9396 15.214C17.1047 15.214 17.2926 15.265 17.3696 15.4273C17.4289 15.5986 17.4455 15.793 17.3951 15.9687C17.3441 16.1311 17.1518 16.177 17.0011 16.1782C16.0015 16.2025 14.9897 16.3488 14.0632 16.74C13.8565 16.8364 13.6277 16.9245 13.4908 17.1174C14.4577 17.1329 15.4258 17.1212 16.3932 17.1235C16.6731 17.1262 16.9834 17.1257 17.2228 17.2925C17.4865 17.5246 17.4582 17.9097 17.4643 18.2289C17.4472 18.6068 17.5159 19.0074 17.3657 19.3665C17.2399 19.6563 16.8892 19.7211 16.6066 19.7261C14.6395 19.7272 12.6724 19.7261 10.7053 19.7267C10.7413 19.5095 10.8078 19.2845 10.9746 19.1304C11.2611 18.8528 11.6817 18.7974 12.0634 18.7847C13.4144 18.7841 14.7653 18.7836 16.1162 18.7852C16.1916 18.7819 16.2813 18.7886 16.3323 18.7199C16.3655 18.5198 16.3445 18.3165 16.3406 18.1148C16.2675 18.0887 16.1932 18.0605 16.1151 18.0638C15.0795 18.0649 14.0444 18.0643 13.0093 18.0649C12.7505 18.0594 12.4674 18.0355 12.2585 17.8671C12.0485 17.6715 12.0945 17.3335 12.223 17.1046C12.4779 16.6358 12.9234 16.3073 13.3739 16.0407Z" fill="#000814"/>
<path d="M30.2448 15.2744C30.5573 15.2411 30.8732 15.2694 31.1868 15.2588C31.3635 15.2622 31.5713 15.24 31.7099 15.3752C31.8129 15.4628 31.8301 15.6057 31.829 15.7326C31.8273 16.9151 31.8279 18.0975 31.8284 19.2795C31.8279 19.4451 31.8035 19.6596 31.6267 19.7288C31.4123 19.7859 31.174 19.7931 30.9629 19.7211C30.7934 19.649 30.7878 19.4374 30.7839 19.2811C30.7845 18.4317 30.7845 17.5828 30.7845 16.7333C30.7828 16.566 30.8006 16.3959 30.759 16.2324C30.5213 16.2235 30.2548 16.2873 30.0425 16.1532C29.8807 16.0113 29.8924 15.7653 29.9201 15.5708C29.9362 15.4057 30.0824 15.2816 30.2448 15.2744Z" fill="#000814"/>
<path d="M33.4216 16.6984C34.2965 15.6783 35.6696 15.1696 36.9967 15.2173C37.235 15.2173 37.3796 15.4594 37.3718 15.6767C37.3768 16.2147 37.3735 16.7527 37.3735 17.2908C37.3713 17.4426 37.3502 17.6454 37.1762 17.6953C36.9751 17.7512 36.7523 17.7457 36.5495 17.6992C36.3933 17.6581 36.3462 17.488 36.3445 17.3462C36.3312 16.991 36.3467 16.6353 36.3373 16.2801C35.51 16.2474 34.7387 16.7095 34.2062 17.314C33.892 17.6859 33.5995 18.1208 33.554 18.6179C33.5285 18.7243 33.6344 18.7902 33.7286 18.7824C35.0418 18.788 36.3556 18.7813 37.6694 18.7858C38.0235 18.8024 38.408 18.8539 38.6867 19.0955C38.8751 19.2518 38.9682 19.49 39.007 19.7266C37.0449 19.7266 35.0834 19.7261 33.1218 19.7266C32.9207 19.7283 32.6963 19.6624 32.5821 19.4845C32.468 19.3133 32.4785 19.0966 32.4846 18.9005C32.5306 18.0865 32.8919 17.3102 33.4216 16.6984Z" fill="#000814"/>
</svg>
