<svg width="38" height="37" viewBox="0 0 38 37" fill="none" xmlns="http://www.w3.org/2000/svg">
<path d="M9.53432 0.396035C9.69692 0.285296 9.85789 0.121079 10.0691 0.129722C10.2609 0.190764 10.3684 0.375508 10.4905 0.521899C10.5931 0.664508 10.74 0.843311 10.652 1.02751C10.5234 1.23927 10.3019 1.36675 10.1134 1.51855C9.09839 2.28399 8.08392 3.05106 7.0689 3.81651C6.96195 3.90024 6.81123 3.96992 6.81177 4.1282C7.01326 4.18113 7.22232 4.15845 7.42813 4.16169C8.95686 4.16331 10.4856 4.15953 12.0143 4.16331C12.3492 4.17897 12.742 4.18816 12.9823 4.45933C13.1995 4.74617 13.1957 5.1297 13.2027 5.4738C13.2049 5.99833 13.1941 6.52339 13.2081 7.04791C13.2092 7.26885 13.4237 7.41632 13.6311 7.4066C14.6234 7.41308 15.6163 7.40606 16.6086 7.40984C16.7507 7.40714 16.9117 7.39958 17.0213 7.29586C17.1315 7.1889 17.1332 7.02252 17.1386 6.87991C17.1391 6.16038 17.138 5.44031 17.138 4.72078C17.1402 4.55872 17.1548 4.37074 17.2876 4.25838C17.4502 4.14548 17.6604 4.16655 17.8484 4.16007C18.0239 4.16709 18.2195 4.15412 18.3702 4.26054C18.5068 4.39073 18.5095 4.59492 18.5133 4.77102C18.5101 5.58184 18.5171 6.39212 18.5101 7.20295C18.4901 7.56217 18.4507 7.96785 18.1757 8.23092C17.8689 8.50588 17.4308 8.51128 17.0424 8.53181C11.3618 8.53289 5.68116 8.53181 0 8.53235C0.0351122 8.26009 0.14531 7.98784 0.359225 7.80796C0.709267 7.50221 1.19436 7.42388 1.64325 7.40876C4.81362 7.4093 7.98344 7.40822 11.1533 7.40984C11.3294 7.40444 11.5157 7.42983 11.6821 7.35852C11.8371 7.27803 11.8172 7.07978 11.8209 6.93285C11.8123 6.46451 11.8323 5.99617 11.8112 5.52836C11.8042 5.32957 11.5784 5.2815 11.418 5.28582C9.61859 5.28366 7.81922 5.28582 6.0204 5.28474C5.72599 5.27609 5.40836 5.22208 5.18473 5.01464C4.91139 4.77642 4.84333 4.35075 5.00376 4.03096C5.12098 3.78464 5.32355 3.59287 5.53909 3.43189C6.87011 2.41904 8.20384 1.40943 9.53432 0.396035Z" fill="#000814"/>
<path d="M20.1328 0.3058C20.4218 0.241518 20.7319 0.237196 21.0198 0.312282C21.2477 0.397092 21.2499 0.67907 21.2596 0.882181C21.2612 2.84576 21.2612 4.80989 21.2596 6.77347C21.2634 6.92797 21.238 7.09705 21.325 7.23479C21.4038 7.37902 21.5891 7.40387 21.7382 7.40873C23.1605 7.41036 24.5834 7.40657 26.0057 7.41036C26.1726 7.40981 26.3563 7.4163 26.4978 7.31096C26.6042 7.21751 26.6118 7.06355 26.615 6.93175C26.6167 6.19925 26.6107 5.46676 26.6172 4.73426C26.6258 4.53331 26.6534 4.25674 26.8889 4.1984C27.1655 4.14384 27.4577 4.14276 27.7343 4.20002C27.9569 4.2589 27.9925 4.52197 28.0006 4.71698C28.0152 5.49215 27.9985 6.2684 28.0087 7.04357C27.999 7.27207 28.2259 7.4163 28.4355 7.40657C29.4267 7.41252 30.418 7.40657 31.4097 7.40982C31.5529 7.40711 31.7155 7.39901 31.8257 7.29475C31.9305 7.18564 31.931 7.02304 31.937 6.88205C31.9375 6.16144 31.9364 5.44137 31.937 4.7213C31.9397 4.5614 31.9483 4.3772 32.078 4.26376C32.2249 4.15248 32.4221 4.16815 32.5971 4.16004C32.7878 4.16815 33.0033 4.14438 33.1681 4.2616C33.295 4.37504 33.3026 4.56086 33.3085 4.71968C33.308 5.43921 33.308 6.15928 33.3074 6.87881C33.308 7.02412 33.3253 7.18186 33.4225 7.298C33.5381 7.39469 33.6958 7.41036 33.8411 7.40982C34.5423 7.40873 35.2435 7.40819 35.9441 7.40982C36.0937 7.40873 36.259 7.40711 36.3822 7.30934C36.4746 7.22777 36.4978 7.09921 36.4983 6.98253C36.5032 6.23166 36.4924 5.4808 36.5032 4.72994C36.507 4.52845 36.5426 4.2562 36.7754 4.1984C37.0477 4.14276 37.3345 4.146 37.6073 4.19624C37.8169 4.23891 37.8715 4.47929 37.8801 4.66188C37.8898 5.25662 37.8812 5.85191 37.8839 6.4472C37.879 6.9015 37.9136 7.36552 37.7905 7.80901C37.7267 8.03265 37.5863 8.24333 37.375 8.3519C37.0709 8.51072 36.7176 8.5172 36.3827 8.53179C31.5745 8.53233 26.7658 8.53233 21.9575 8.53233C21.5232 8.53017 21.083 8.55285 20.6568 8.45508C20.4088 8.39674 20.1717 8.24981 20.0545 8.01753C19.8778 7.66748 19.8832 7.2645 19.8746 6.88205C19.8746 4.99031 19.8751 3.09857 19.8746 1.20683C19.8757 0.990219 19.8643 0.770902 19.9097 0.557528C19.9394 0.446249 20.0156 0.33551 20.1328 0.3058Z" fill="#000814"/>
<path d="M15.1652 9.70352C15.5179 9.55713 15.9036 9.84181 16.0063 10.1767C16.0824 10.4717 15.8977 10.7423 15.6984 10.9395C15.4607 11.1707 15.25 11.4624 14.9216 11.5688C14.4748 11.706 13.9903 11.2171 14.1248 10.772C14.195 10.5289 14.3906 10.355 14.5624 10.181C14.7455 10.0022 14.92 9.79697 15.1652 9.70352Z" fill="#000814"/>
<path d="M24.0739 11.3802C24.2651 11.3678 24.4666 11.3548 24.6492 11.4245C24.834 11.5315 24.8075 11.7745 24.8205 11.9566C24.8248 14.0477 24.8199 16.1382 24.8232 18.2287C24.8064 18.3443 24.9128 18.4507 25.0279 18.4405C26.004 18.4432 26.9807 18.4426 27.9568 18.4405C28.0497 18.4518 28.1669 18.3929 28.1399 18.2817C28.1161 17.9257 27.9222 17.608 27.7137 17.3288C27.1665 16.626 26.3562 16.1717 25.5135 15.9172C25.3785 15.8751 25.2283 15.7914 25.2164 15.6326C25.2105 15.4246 25.278 15.1945 25.4384 15.0529C25.5886 14.9379 25.7869 14.9968 25.9511 15.0448C26.8375 15.3106 27.6964 15.7541 28.3214 16.4499C28.914 17.1008 29.2603 17.9905 29.189 18.8753C29.1733 19.046 29.0744 19.2167 28.9129 19.2864C28.7341 19.3809 28.5261 19.3588 28.3317 19.3609C27.1427 19.3599 25.9538 19.3599 24.7654 19.3609C24.5352 19.3588 24.297 19.3296 24.0928 19.2183C23.9156 19.1206 23.8098 18.9304 23.7698 18.7376C23.7093 18.4437 23.7228 18.1423 23.7217 17.8446C23.7239 15.8292 23.7174 13.8138 23.725 11.7989C23.7033 11.5849 23.8416 11.3683 24.0739 11.3802Z" fill="#000814"/>
<path d="M30.1905 12.8501C30.4828 12.721 30.802 12.9679 30.8771 13.2482C30.9241 13.4875 30.7626 13.695 30.6065 13.8565C30.4433 14.0169 30.2889 14.2044 30.0701 14.2897C29.7054 14.4388 29.2717 14.0012 29.4175 13.6377C29.4791 13.4648 29.6179 13.3384 29.74 13.2072C29.8713 13.0678 30.008 12.922 30.1905 12.8501Z" fill="#000814"/>
<path d="M22.0672 13.8424C22.2833 13.7749 22.521 13.7808 22.7414 13.8273C22.938 13.8759 22.9796 14.105 22.9796 14.2778C22.9796 15.6115 22.9801 16.9453 22.9791 18.279C22.9683 18.568 22.9456 18.8899 22.7398 19.1136C22.5323 19.3124 22.2287 19.355 21.9538 19.3604C20.6762 19.3604 19.3992 19.3594 18.1222 19.361C17.9332 19.3664 17.7284 19.3194 17.5961 19.1762C17.4486 19.0055 17.4486 18.7668 17.4589 18.5545C17.4978 17.7231 17.8943 16.9415 18.4534 16.337C18.9763 15.7752 19.6223 15.3123 20.3511 15.0595C20.5839 14.9849 20.8405 14.9179 21.0819 14.9919C21.2613 15.073 21.3256 15.2853 21.3169 15.4684C21.3137 16.0097 21.3239 16.5509 21.312 17.0922C21.3272 17.2753 21.1646 17.4174 20.9879 17.4093C20.7767 17.4088 20.4629 17.472 20.3527 17.237C20.2662 16.8675 20.3548 16.4823 20.2911 16.1107C19.866 16.2565 19.5229 16.5666 19.2188 16.8875C18.8618 17.2877 18.5204 17.7696 18.5155 18.3276C18.536 18.4497 18.6743 18.4405 18.7699 18.4427C19.7055 18.4416 20.6411 18.4411 21.5773 18.4427C21.6686 18.4421 21.7717 18.4443 21.8393 18.3703C21.8749 18.2898 21.8728 18.1996 21.8755 18.1137C21.8733 16.8567 21.8733 15.5997 21.8749 14.3426C21.8819 14.1655 21.8776 13.9278 22.0672 13.8424Z" fill="#000814"/>
<path d="M12.966 15.7671C14.0183 15.1751 15.244 14.9504 16.4422 14.9612C16.6031 14.9612 16.7863 15.0109 16.8613 15.1692C16.9191 15.3361 16.9353 15.5257 16.8862 15.6969C16.8365 15.8552 16.6491 15.9 16.5021 15.9011C15.5276 15.9249 14.5412 16.0675 13.638 16.4489C13.4366 16.5429 13.2135 16.6287 13.08 16.8167C14.0227 16.8319 14.9664 16.8205 15.9095 16.8227C16.1823 16.8254 16.4848 16.8248 16.7182 16.9874C16.9753 17.2138 16.9478 17.5892 16.9537 17.9003C16.937 18.2688 17.004 18.6593 16.8576 19.0094C16.7349 19.2919 16.393 19.3551 16.1175 19.3599C14.1998 19.361 12.2822 19.3599 10.3645 19.3605C10.3996 19.1487 10.4644 18.9294 10.627 18.7792C10.9063 18.5086 11.3163 18.4546 11.6885 18.4422C13.0055 18.4416 14.3225 18.4411 15.6394 18.4427C15.7129 18.4395 15.8004 18.4459 15.8501 18.379C15.8825 18.1839 15.862 17.9857 15.8582 17.7891C15.7869 17.7637 15.7145 17.7361 15.6384 17.7394C14.6287 17.7405 13.6197 17.7399 12.6106 17.7405C12.3583 17.7351 12.0823 17.7118 11.8786 17.5476C11.6739 17.3569 11.7188 17.0274 11.8441 16.8043C12.0926 16.3473 12.5269 16.027 12.966 15.7671Z" fill="#000814"/>
<path d="M29.4133 15.02C29.7179 14.9876 30.0258 15.0152 30.3316 15.0049C30.5039 15.0081 30.7065 14.9865 30.8415 15.1183C30.942 15.2037 30.9587 15.3431 30.9577 15.4668C30.956 16.6195 30.9566 17.7723 30.9571 18.9245C30.9566 19.086 30.9328 19.2951 30.7605 19.3626C30.5514 19.4182 30.3192 19.4253 30.1133 19.355C29.948 19.2848 29.9426 19.0785 29.9389 18.9261C29.9394 18.098 29.9394 17.2705 29.9394 16.4423C29.9378 16.2792 29.9551 16.1134 29.9146 15.954C29.6828 15.9454 29.423 16.0075 29.2161 15.8768C29.0584 15.7385 29.0697 15.4986 29.0967 15.309C29.1124 15.1481 29.255 15.0271 29.4133 15.02Z" fill="#000814"/>
<path d="M32.5101 16.4083C33.363 15.4138 34.7016 14.918 35.9954 14.9644C36.2277 14.9644 36.3686 15.2005 36.3611 15.4122C36.3659 15.9368 36.3627 16.4613 36.3627 16.9858C36.3605 17.1338 36.34 17.3315 36.1704 17.3801C35.9743 17.4347 35.7572 17.4293 35.5594 17.3839C35.4071 17.3439 35.3612 17.1781 35.3596 17.0398C35.3466 16.6936 35.3617 16.3468 35.3526 16.0005C34.5461 15.9686 33.7941 16.4191 33.275 17.0085C32.9687 17.371 32.6835 17.795 32.6392 18.2795C32.6143 18.3833 32.7175 18.4475 32.8093 18.44C34.0896 18.4454 35.3704 18.4389 36.6512 18.4432C36.9963 18.4594 37.3712 18.5097 37.643 18.7452C37.8266 18.8975 37.9174 19.1298 37.9552 19.3605C36.0424 19.3605 34.1301 19.3599 32.2178 19.3605C32.0218 19.3621 31.803 19.2978 31.6917 19.1244C31.5804 18.9575 31.5907 18.7463 31.5966 18.555C31.6415 17.7615 31.9937 17.0047 32.5101 16.4083Z" fill="#000814"/>
<path d="M18.973 33L17.562 30.8785L16.3187 33H14.4044L16.6246 29.4774L14.3551 26.0732H16.3187L17.71 28.165L18.9335 26.0732H20.8478L18.6474 29.5662L20.9366 33H18.973ZM21.4383 27.3658V25.7969H24.1715V33H22.4151V27.3658H21.4383Z" fill="black"/>
</svg>
