<svg width="37" height="37" viewBox="0 0 37 37" fill="none" xmlns="http://www.w3.org/2000/svg">
<path d="M10.9091 0.530655C11.8257 0.0320857 12.9243 0.0233388 13.9215 0.236762C15.5186 0.604129 16.8342 1.68524 18.4261 2.06135C19.4215 2.2153 20.4309 2.08234 21.4315 2.0631C23.7792 1.97738 26.223 1.95989 28.4325 2.87481C30.2623 3.57455 31.7178 5.06327 32.4543 6.86861C32.6432 7.26747 32.4543 7.71356 32.5452 8.12816C33.4689 9.37895 34.2229 10.7435 34.9279 12.1255C35.3897 13.0841 35.876 14.0568 36.0615 15.1116C36.1419 15.6329 35.6644 15.9461 35.36 16.282C34.9821 16.6563 34.6287 17.2091 34.02 17.1601C32.6747 17.1496 31.3277 17.1951 29.9824 17.1322C30.0541 16.2487 30.9708 15.9671 31.7038 15.8324C31.6146 15.458 31.2822 15.2306 31.0198 14.9804C28.8051 12.9179 25.7962 11.9348 22.8362 11.6146C21.5277 11.4939 20.1982 11.4869 18.8984 11.7021C19.2413 13.0491 19.3533 14.4416 19.5107 15.8184C19.6034 16.2277 19.3637 16.5951 19.1906 16.945C18.3841 17.2179 17.5287 17.1426 16.6925 17.1601C15.8335 17.1584 14.9728 17.1776 14.1139 17.1461C14.1366 16.3064 15.0638 15.9513 15.767 15.8324C15.265 12.9354 13.1727 10.4671 10.5872 9.14454C9.17193 8.33983 7.55727 7.94622 5.9356 7.91998C5.86913 8.19638 5.8009 8.47278 5.73093 8.74918C5.20262 8.56725 4.88773 8.05993 4.38391 7.83426C3.82062 7.51588 3.15586 7.49314 2.53133 7.60335C2.14647 7.62434 1.74937 7.64708 1.389 7.48439C1.389 7.37593 1.3925 7.15901 1.3925 7.05055C1.7896 6.78289 2.25319 6.60446 2.58032 6.24584C1.94355 6.23009 1.3925 6.67793 0.755727 6.61146C0.432094 6.4855 0.239663 6.16362 0 5.92745C0 5.85573 0.00174932 5.71578 0.00174932 5.6458C0.762724 5.08251 1.55169 4.55595 2.33191 4.02064C2.79024 3.79322 2.6223 3.11797 3.08938 2.89055C3.74015 2.46196 4.3017 1.85143 5.06967 1.63451C4.74603 1.26889 4.97695 0.553397 5.51576 0.630369C6.09305 0.577888 6.43068 1.13244 6.91 1.30388C8.26926 1.25839 9.6845 1.18842 10.9091 0.530655Z" fill="#000814"/>
<path d="M9.45702 9.53638C11.2361 10.2414 12.7528 11.5849 13.8164 13.1628C13.1797 14.5518 12.8193 16.2312 11.4863 17.1479C9.96958 17.1864 8.44938 17.2179 6.93268 17.1584C7.07438 16.2452 8.04353 15.9933 8.8115 15.8446C9.41503 14.9752 9.42203 13.8696 9.57422 12.8584C9.65819 11.7528 9.65819 10.6297 9.45702 9.53638Z" fill="#000814"/>
<path d="M23.6027 12.5208C25.2069 12.8112 26.8635 13.1401 28.2578 14.0323C27.3639 15.0889 26.5749 16.2592 25.4798 17.1234C23.9806 17.1496 22.4726 17.2214 20.9769 17.0989C21.0889 16.8243 21.1869 16.5251 21.4283 16.3327C21.8831 15.8429 22.7858 16.065 23.0902 15.3933C23.5048 14.4959 23.426 13.476 23.6027 12.5208Z" fill="#000814"/>
<path d="M16.0094 33L14.5984 30.8785L13.3551 33H11.4408L13.661 29.4774L11.3915 26.0732H13.3551L14.7464 28.165L15.9699 26.0732H17.8842L15.6838 29.5662L17.973 33H16.0094ZM18.5931 31.6482C18.8167 31.4706 18.9187 31.3883 18.899 31.4015C19.5436 30.8687 20.0501 30.4312 20.4185 30.0892C20.7935 29.7471 21.1092 29.3886 21.3658 29.0136C21.6223 28.6387 21.7506 28.2736 21.7506 27.9184C21.7506 27.6486 21.6881 27.4381 21.5631 27.2868C21.4381 27.1355 21.2507 27.0599 21.0007 27.0599C20.7507 27.0599 20.5534 27.1553 20.4086 27.3461C20.2705 27.5302 20.2014 27.7934 20.2014 28.1354H18.5733C18.5865 27.5763 18.7049 27.1092 18.9286 26.7343C19.1588 26.3593 19.4581 26.083 19.8265 25.9054C20.2014 25.7278 20.6159 25.639 21.0698 25.639C21.8526 25.639 22.4413 25.8396 22.836 26.2409C23.2373 26.6422 23.4379 27.1652 23.4379 27.8098C23.4379 28.5137 23.1978 29.1682 22.7176 29.7734C22.2374 30.372 21.6256 30.9575 20.8823 31.5298H23.5464V32.9013H18.5931V31.6482Z" fill="black"/>
</svg>
