<svg width="23" height="59" viewBox="0 0 23 59" fill="none" xmlns="http://www.w3.org/2000/svg">
<path d="M8.5609 0.0641091C8.5424 0.00549884 8.61273 -0.000179029 8.65303 4.12823e-06C8.71915 0.0214335 8.78161 0.0547681 8.8274 0.108433C8.8208 0.142684 8.79882 0.179132 8.75816 0.172355C8.68343 0.164113 8.59863 0.133709 8.5609 0.0641091Z" fill="#000814"/>
<path d="M3.56563 0.483037C3.68853 0.447504 3.8422 0.456845 3.93597 0.552636C3.97334 0.591283 3.94458 0.64275 3.90538 0.665644C3.8063 0.696964 3.69604 0.690187 3.60171 0.646962C3.56233 0.626998 3.51819 0.598059 3.5127 0.550255C3.51544 0.518752 3.54273 0.500437 3.56563 0.483037Z" fill="#000814"/>
<path d="M9.03999 0.482137C9.09659 0.443307 9.17003 0.474994 9.2259 0.501002C9.27553 0.525728 9.34074 0.576096 9.30832 0.638919C9.2367 0.675001 9.15355 0.636904 9.09091 0.598441C9.05355 0.57573 9.00831 0.526094 9.03999 0.482137Z" fill="#000814"/>
<path d="M13.2043 0.50647C13.2904 0.511781 13.3695 0.55867 13.4257 0.622408C13.4424 0.640358 13.4382 0.667465 13.4435 0.68981C13.3622 0.695488 13.2895 0.648783 13.231 0.597132C13.2037 0.575337 13.1955 0.539438 13.2043 0.50647Z" fill="#000814"/>
<path d="M4.51979 0.762399C4.65734 0.748113 4.81358 0.781264 4.90278 0.895005C4.92842 0.971564 4.85863 1.02175 4.79233 1.03402C4.6469 1.05179 4.48188 1.0168 4.38847 0.895371C4.38114 0.816247 4.45093 0.773022 4.51979 0.762399Z" fill="#000814"/>
<path d="M8.85663 0.758525C8.92953 0.740942 9.0059 0.765302 9.06909 0.80175C9.1103 0.825561 9.15261 0.86091 9.15664 0.911828C9.1473 0.950107 9.10572 0.966408 9.06983 0.963661C8.98649 0.9578 8.90242 0.923916 8.84381 0.863291C8.81231 0.836001 8.80864 0.769515 8.85663 0.758525Z" fill="#000814"/>
<path d="M13.1292 0.779099C13.1667 0.77452 13.2072 0.767926 13.2422 0.786975C13.3185 0.823789 13.4097 0.87196 13.4185 0.966652C13.4072 0.970498 13.3848 0.978191 13.3737 0.982037C13.2737 0.945772 13.153 0.895587 13.1292 0.779099Z" fill="#000814"/>
<path d="M9.49589 1.01141C9.56109 0.98449 9.6349 1.0105 9.69534 1.03944C9.73949 1.0638 9.79205 1.09732 9.79773 1.15245C9.79645 1.1986 9.74443 1.21161 9.70688 1.20703C9.62941 1.19732 9.5512 1.16582 9.49753 1.10775C9.47317 1.08303 9.462 1.03284 9.49589 1.01141Z" fill="#000814"/>
<path d="M5.2815 1.09798C5.33334 1.05915 5.39616 1.04028 5.46008 1.03516C5.5665 1.03992 5.67547 1.06098 5.76577 1.12051C5.82548 1.15494 5.8731 1.21264 5.87841 1.28352C5.85735 1.3489 5.79215 1.37894 5.72914 1.3903C5.57474 1.40019 5.40367 1.36154 5.29707 1.24231C5.25898 1.20311 5.25824 1.14487 5.2815 1.09798Z" fill="#000814"/>
<path d="M13.072 1.05628C13.1698 1.02734 13.2614 1.09603 13.3343 1.15317C13.3689 1.18266 13.4189 1.2453 13.3721 1.28449C13.2872 1.2931 13.2116 1.24164 13.1459 1.19456C13.1001 1.16324 13.0686 1.11343 13.072 1.05628Z" fill="#000814"/>
<path d="M12.6156 1.23355C12.5964 1.21176 12.5876 1.1678 12.6236 1.15827C12.6663 1.15113 12.7075 1.17512 12.7449 1.19362C12.7987 1.22549 12.8656 1.2733 12.8475 1.34583C12.7575 1.34949 12.6716 1.3015 12.6156 1.23355Z" fill="#000814"/>
<path d="M9.2417 1.36613C9.25635 1.3306 9.28273 1.29855 9.32412 1.2969C9.43273 1.28555 9.54318 1.33097 9.62358 1.40277C9.66443 1.43573 9.68219 1.48848 9.66607 1.5394C9.61992 1.56285 9.56717 1.57603 9.5157 1.56413C9.40306 1.54233 9.28035 1.48244 9.2417 1.36613Z" fill="#000814"/>
<path d="M13.0516 1.32816C13.1234 1.3267 13.1887 1.36699 13.2472 1.40491C13.2972 1.44282 13.358 1.48696 13.3605 1.55619C13.3448 1.61023 13.2794 1.59228 13.24 1.57909C13.1587 1.54649 13.077 1.50015 13.0266 1.4267C13.0021 1.39593 12.9995 1.32926 13.0516 1.32816Z" fill="#000814"/>
<path d="M6.08941 1.42175C6.12329 1.37578 6.17366 1.34226 6.23117 1.33549C6.38759 1.31314 6.55243 1.35948 6.67643 1.45692C6.73137 1.50179 6.78687 1.5692 6.76874 1.64502C6.75207 1.70766 6.68577 1.73275 6.62954 1.74851C6.45884 1.76646 6.27751 1.71481 6.15022 1.59758C6.1004 1.55381 6.07714 1.48714 6.08941 1.42175Z" fill="#000814"/>
<path d="M12.508 1.41815C12.5959 1.40478 12.6787 1.45277 12.7419 1.50936C12.7728 1.53867 12.8076 1.59179 12.7652 1.62695C12.7342 1.62897 12.7036 1.62439 12.6736 1.61908C12.6045 1.58244 12.5318 1.54215 12.4976 1.46797C12.5001 1.45552 12.5054 1.43061 12.508 1.41815Z" fill="#000814"/>
<path d="M5.0398 1.61538C5.08669 1.54944 5.17094 1.53479 5.24659 1.53369C5.35172 1.54596 5.46894 1.5738 5.53488 1.6641C5.5596 1.69487 5.55319 1.73571 5.54715 1.77161C5.45557 1.8544 5.31838 1.84396 5.20922 1.80678C5.12643 1.77711 5.0279 1.71758 5.0398 1.61538Z" fill="#000814"/>
<path d="M10.0286 1.62034C10.0998 1.60019 10.1732 1.63701 10.2331 1.67327C10.2835 1.70862 10.345 1.75954 10.3317 1.82877C10.3088 1.88244 10.2384 1.86907 10.1934 1.85771C10.1152 1.8306 10.0322 1.78518 9.99686 1.70661C9.97873 1.67455 9.99448 1.63353 10.0286 1.62034Z" fill="#000814"/>
<path d="M12.9571 1.63583C12.9915 1.61733 13.034 1.63198 13.0698 1.64169C13.1555 1.67374 13.2375 1.72283 13.298 1.79261C13.3256 1.82723 13.3547 1.88272 13.3178 1.92137C13.2789 1.94701 13.2306 1.93016 13.1908 1.91679C13.1009 1.88144 13.0146 1.82778 12.9564 1.74957C12.9329 1.71752 12.9159 1.6611 12.9571 1.63583Z" fill="#000814"/>
<path d="M13.53 1.63914C13.5449 1.61662 13.5815 1.63127 13.6037 1.63621C13.6705 1.6646 13.7474 1.70435 13.7716 1.77798C13.7738 1.84043 13.6936 1.81388 13.6602 1.79593C13.6029 1.76461 13.5104 1.71644 13.53 1.63914Z" fill="#000814"/>
<path d="M9.12983 1.67513C9.2183 1.64637 9.31372 1.68191 9.38919 1.72916C9.42948 1.75737 9.4738 1.79565 9.47692 1.84821C9.48333 1.89217 9.43681 1.91873 9.39889 1.92056C9.29284 1.92935 9.1824 1.88393 9.11243 1.80407C9.0769 1.76744 9.07122 1.69161 9.12983 1.67513Z" fill="#000814"/>
<path d="M12.4285 1.67747C12.4886 1.65403 12.5519 1.69103 12.6039 1.7196C12.6547 1.75422 12.7193 1.79799 12.7177 1.86668C12.708 1.91045 12.6549 1.90697 12.6217 1.89635C12.5464 1.874 12.4745 1.83114 12.4276 1.76704C12.4092 1.7425 12.3972 1.69524 12.4285 1.67747Z" fill="#000814"/>
<path d="M7.11605 1.73272C7.23382 1.70524 7.35929 1.74279 7.45782 1.80891C7.51277 1.84774 7.56937 1.9047 7.56589 1.97723C7.56259 2.03273 7.50526 2.06313 7.45618 2.07009C7.34317 2.0853 7.22778 2.04995 7.13419 1.98749C7.08125 1.95067 7.03125 1.89866 7.02539 1.83126C7.02612 1.78052 7.0699 1.74407 7.11605 1.73272Z" fill="#000814"/>
<path d="M5.83081 1.94233C5.844 1.81009 6.00115 1.7894 6.10701 1.79617C6.22423 1.81467 6.34585 1.85259 6.42827 1.94288C6.46692 1.97878 6.47827 2.0319 6.48102 2.08263C6.45556 2.13849 6.40116 2.16908 6.34475 2.1852C6.22002 2.20571 6.09309 2.17604 5.98063 2.12183C5.9147 2.07769 5.84986 2.0231 5.83081 1.94233Z" fill="#000814"/>
<path d="M9.84582 1.93402C9.92036 1.91149 10 1.9353 10.0678 1.96809C10.1402 2.00618 10.2107 2.05893 10.2466 2.13458C10.2649 2.17213 10.2632 2.22707 10.2224 2.24868C10.163 2.28092 10.0911 2.26224 10.031 2.24173C9.9385 2.20418 9.8449 2.14337 9.80369 2.04849C9.78281 2.00582 9.79875 1.94977 9.84582 1.93402Z" fill="#000814"/>
<path d="M12.8705 1.95794C12.8986 1.92039 12.9493 1.93065 12.9896 1.93047C13.1288 1.97534 13.2795 2.06509 13.3112 2.21931C13.2297 2.29587 13.1132 2.23579 13.033 2.18817C12.9566 2.13505 12.8561 2.06307 12.8705 1.95794Z" fill="#000814"/>
<path d="M13.501 1.95545C13.5492 1.93567 13.5985 1.96296 13.6412 1.98421C13.6926 2.01315 13.747 2.04996 13.7686 2.10766C13.7813 2.13641 13.7573 2.17597 13.7229 2.1648C13.6518 2.15711 13.5891 2.11571 13.5368 2.06938C13.5086 2.04062 13.4745 1.99611 13.501 1.95545Z" fill="#000814"/>
<path d="M12.2971 2.01707C12.3022 1.96633 12.3607 1.96542 12.3993 1.97384C12.4832 1.99509 12.5612 2.04344 12.6175 2.10938C12.6464 2.13832 12.6427 2.18099 12.6464 2.21854C12.5603 2.25645 12.4704 2.2103 12.3995 2.16231C12.3522 2.12659 12.2986 2.08117 12.2971 2.01707Z" fill="#000814"/>
<path d="M7.93997 2.06147C8.04639 2.03876 8.15903 2.07759 8.24456 2.14133C8.29292 2.18034 8.3442 2.23822 8.32863 2.30543C8.31105 2.35269 8.25757 2.37137 8.21123 2.3743C8.10023 2.3787 7.98869 2.33401 7.9092 2.2569C7.87422 2.22283 7.85041 2.17338 7.86048 2.12393C7.87458 2.09132 7.90554 2.0688 7.93997 2.06147Z" fill="#000814"/>
<path d="M6.69954 2.22483C6.73416 2.15944 6.80468 2.12702 6.87592 2.12116C7.00029 2.11731 7.12703 2.14936 7.22923 2.22171C7.29737 2.26713 7.3514 2.33728 7.35616 2.42154C7.33693 2.49626 7.26458 2.5318 7.19462 2.5437C7.03472 2.55506 6.8664 2.50139 6.75431 2.38435C6.71108 2.34296 6.6957 2.28307 6.69954 2.22483Z" fill="#000814"/>
<path d="M12.8312 2.24404C12.9136 2.2195 12.999 2.25594 13.0702 2.29624C13.1519 2.34606 13.2365 2.41053 13.2649 2.50632C13.2807 2.54735 13.2472 2.59002 13.206 2.59369C13.1129 2.60101 13.0252 2.55632 12.9503 2.50577C12.8856 2.45961 12.8208 2.40192 12.799 2.32261C12.7874 2.29331 12.8032 2.25723 12.8312 2.24404Z" fill="#000814"/>
<path d="M13.4636 2.28955C13.4783 2.26501 13.5083 2.25512 13.5354 2.26446C13.6162 2.28241 13.6917 2.32911 13.7426 2.3945C13.7631 2.42252 13.7841 2.48058 13.738 2.49579C13.6869 2.50421 13.6385 2.47692 13.5927 2.4586C13.5587 2.4315 13.5242 2.40476 13.4907 2.37728C13.4779 2.34926 13.4651 2.3205 13.4636 2.28955Z" fill="#000814"/>
<path d="M10.5052 2.36037C10.5003 2.30964 10.5541 2.29462 10.5933 2.28784C10.7362 2.30268 10.9065 2.39664 10.9153 2.5558C10.8516 2.63144 10.7411 2.59555 10.6667 2.55617C10.5933 2.51404 10.5111 2.45195 10.5052 2.36037Z" fill="#000814"/>
<path d="M12.1886 2.32565C12.2106 2.27363 12.2774 2.28407 12.3212 2.29781C12.4122 2.3284 12.5042 2.38243 12.5507 2.46961C12.5683 2.49947 12.5575 2.53353 12.5492 2.56449C12.4518 2.59745 12.3527 2.54361 12.2763 2.48628C12.2291 2.44727 12.1725 2.39323 12.1886 2.32565Z" fill="#000814"/>
<path d="M9.64028 2.33143C9.74614 2.29663 9.8619 2.33546 9.95311 2.39206C10.0216 2.4362 10.0929 2.49591 10.1082 2.58016C10.1216 2.62925 10.0844 2.67778 10.0379 2.68987C9.95842 2.71258 9.87435 2.68859 9.80072 2.65727C9.7183 2.61771 9.63734 2.56038 9.59687 2.47613C9.57123 2.42576 9.58185 2.35268 9.64028 2.33143Z" fill="#000814"/>
<path d="M7.52623 2.51886C7.5711 2.46922 7.63484 2.44486 7.70023 2.4379C7.87734 2.43607 8.06361 2.50878 8.17058 2.65421C8.2116 2.70659 8.21636 2.77747 8.19475 2.83883C8.14933 2.88517 8.08779 2.90861 8.02442 2.91649C7.85152 2.91741 7.67239 2.84927 7.56085 2.71392C7.51524 2.66025 7.50004 2.58498 7.52623 2.51886Z" fill="#000814"/>
<path d="M8.70629 2.51058C8.70739 2.46864 8.75061 2.45215 8.78267 2.43695C8.8878 2.43072 8.9944 2.46809 9.06931 2.54281C9.1118 2.57871 9.12114 2.63458 9.12206 2.68714C9.03139 2.75894 8.90373 2.72707 8.81417 2.66974C8.75995 2.63458 8.70189 2.58091 8.70629 2.51058Z" fill="#000814"/>
<path d="M12.7346 2.605C12.7773 2.56214 12.8441 2.5746 12.8963 2.58852C13.0178 2.62533 13.1295 2.70226 13.2 2.80849C13.2257 2.84365 13.2257 2.88798 13.2286 2.92955C13.1696 2.98981 13.0793 2.97241 13.0092 2.94421C12.9044 2.9008 12.8048 2.83266 12.7445 2.73486C12.7225 2.69676 12.7024 2.64328 12.7346 2.605Z" fill="#000814"/>
<path d="M6.50652 2.6734C6.5611 2.62065 6.64316 2.62523 6.71331 2.62542C6.83034 2.64758 6.94683 2.70472 7.00379 2.81462C7.01808 2.88898 6.96112 2.95327 6.8895 2.96316C6.75672 2.98715 6.61074 2.93935 6.51861 2.84044C6.47758 2.79667 6.45872 2.71956 6.50652 2.6734Z" fill="#000814"/>
<path d="M13.4504 2.62373C13.5497 2.59955 13.6453 2.66842 13.7154 2.73252C13.7541 2.76769 13.7982 2.84699 13.7383 2.88234C13.635 2.89132 13.54 2.82758 13.47 2.75743C13.4401 2.72355 13.4035 2.65816 13.4504 2.62373Z" fill="#000814"/>
<path d="M12.0648 2.66055C12.1413 2.62648 12.2274 2.64242 12.2981 2.68271C12.3736 2.72594 12.4532 2.78583 12.4741 2.87485C12.4891 2.91807 12.4483 2.94499 12.4153 2.96038C12.3437 2.95763 12.2726 2.93877 12.2127 2.89902C12.1301 2.84829 12.0446 2.76715 12.0648 2.66055Z" fill="#000814"/>
<path d="M10.3529 2.65973C10.474 2.62512 10.6015 2.67512 10.7028 2.74124C10.7786 2.79582 10.8566 2.86707 10.8709 2.96432C10.8799 3.02403 10.8277 3.0744 10.7709 3.0799C10.6581 3.09675 10.5451 3.05041 10.4524 2.98923C10.3771 2.9341 10.2967 2.86359 10.2855 2.76523C10.2789 2.71908 10.3105 2.6753 10.3529 2.65973Z" fill="#000814"/>
<path d="M8.43307 2.80986C8.54425 2.77067 8.66678 2.79686 8.77301 2.8399C8.87723 2.88551 8.9765 2.95566 9.03328 3.05639C9.06515 3.11537 9.07614 3.19999 9.02412 3.25109C8.96221 3.31464 8.86587 3.31428 8.78364 3.31006C8.62649 3.28039 8.46842 3.20695 8.3741 3.07324C8.33985 3.028 8.32959 2.97049 8.32886 2.91499C8.349 2.86847 8.38325 2.82598 8.43307 2.80986Z" fill="#000814"/>
<path d="M9.49513 2.85804C9.51711 2.79906 9.59477 2.80053 9.64587 2.81262C9.73305 2.83606 9.82976 2.88954 9.85504 2.98259C9.86932 3.0271 9.83379 3.05567 9.79954 3.07472C9.71034 3.08424 9.6281 3.04614 9.55557 2.99852C9.52407 2.95878 9.48121 2.91354 9.49513 2.85804Z" fill="#000814"/>
<path d="M7.30146 3.03661C7.3293 2.98624 7.37967 2.95676 7.4337 2.94192C7.63041 2.91793 7.87676 3.01537 7.92713 3.22417C7.92291 3.29688 7.86449 3.34541 7.79818 3.36373C7.63023 3.38791 7.4478 3.32417 7.34047 3.19101C7.30403 3.14834 7.29707 3.09046 7.30146 3.03661Z" fill="#000814"/>
<path d="M12.6842 2.9566C12.7785 2.9262 12.8785 2.96667 12.9613 3.0121C13.0532 3.06759 13.1435 3.1425 13.1809 3.24672C13.1974 3.28738 13.1886 3.34123 13.1465 3.36248C13.0644 3.39728 12.9739 3.36211 12.8979 3.32731C12.7972 3.27493 12.7018 3.19947 12.6512 3.09598C12.6265 3.04909 12.63 2.98041 12.6842 2.9566Z" fill="#000814"/>
<path d="M13.3907 2.99999C13.4324 2.95567 13.498 2.96703 13.5482 2.98974C13.6246 3.02326 13.6989 3.07271 13.7425 3.14579C13.7597 3.17876 13.7702 3.22949 13.733 3.25312C13.6733 3.27583 13.6101 3.24524 13.5573 3.21832C13.4762 3.17235 13.3886 3.10238 13.3907 2.99999Z" fill="#000814"/>
<path d="M11.9515 3.015C11.9982 2.99211 12.0531 3.0009 12.1015 3.01408C12.2055 3.04724 12.3013 3.11317 12.3628 3.20438C12.3883 3.24688 12.4114 3.31373 12.3638 3.34999C12.3136 3.38809 12.2447 3.37216 12.1894 3.35622C12.0835 3.31721 11.9808 3.24944 11.9273 3.14724C11.9048 3.10493 11.9007 3.03844 11.9515 3.015Z" fill="#000814"/>
<path d="M11.1268 3.04709C11.2256 3.01962 11.3294 3.05991 11.4127 3.11284C11.4902 3.16394 11.5679 3.23592 11.5807 3.33281C11.5871 3.38007 11.549 3.42183 11.504 3.42952C11.3878 3.44802 11.2728 3.39564 11.1836 3.32476C11.1244 3.2764 11.0675 3.21101 11.064 3.13097C11.0603 3.09178 11.0922 3.05936 11.1268 3.04709Z" fill="#000814"/>
<path d="M10.1041 3.16692C10.1138 3.09549 10.1919 3.0616 10.2565 3.06105C10.443 3.05941 10.6281 3.16216 10.7313 3.31656C10.7686 3.37444 10.7897 3.46254 10.7369 3.51785C10.6921 3.56455 10.6228 3.56638 10.5624 3.56675C10.4151 3.54807 10.2823 3.47169 10.1781 3.36821C10.1362 3.30997 10.0909 3.24256 10.1041 3.16692Z" fill="#000814"/>
<path d="M9.25867 3.17832C9.36288 3.14425 9.47589 3.17172 9.5737 3.21348C9.67663 3.26055 9.77297 3.33345 9.82792 3.43419C9.85961 3.49261 9.87005 3.57448 9.81913 3.62577C9.7618 3.68126 9.67517 3.68548 9.60026 3.67705C9.4726 3.65874 9.35135 3.59848 9.25794 3.50965C9.20152 3.45287 9.15061 3.37777 9.15793 3.29389C9.16233 3.23839 9.20683 3.19388 9.25867 3.17832Z" fill="#000814"/>
<path d="M8.21073 3.29147C8.29278 3.26711 8.38015 3.26894 8.46294 3.28982C8.61129 3.33286 8.75837 3.42701 8.81478 3.57738C8.82247 3.63086 8.81185 3.68508 8.77906 3.72867C8.7439 3.75028 8.70617 3.7675 8.66679 3.77995C8.49682 3.79937 8.32154 3.7338 8.19974 3.61529C8.13453 3.5521 8.09039 3.45723 8.12153 3.36657C8.14736 3.33726 8.17739 3.31198 8.21073 3.29147Z" fill="#000814"/>
<path d="M12.5743 3.3577C12.6207 3.31283 12.6916 3.32253 12.7498 3.33004C12.924 3.38554 13.1104 3.50441 13.1487 3.69599C13.1401 3.73574 13.1192 3.77786 13.0762 3.78812C12.9885 3.80973 12.8982 3.77933 12.8203 3.74013C12.7234 3.68921 12.6337 3.61723 12.5787 3.52144C12.552 3.4729 12.5353 3.40422 12.5743 3.3577Z" fill="#000814"/>
<path d="M13.3928 3.35479C13.4953 3.33281 13.5942 3.39161 13.6691 3.45644C13.7144 3.50004 13.7659 3.55608 13.7565 3.62422C13.7496 3.66506 13.7001 3.6744 13.6657 3.67092C13.5508 3.65554 13.4472 3.58356 13.3816 3.48941C13.3538 3.4504 13.3362 3.37714 13.3928 3.35479Z" fill="#000814"/>
<path d="M11.7703 3.47832C11.7695 3.42759 11.8192 3.40414 11.8595 3.38894C12.0216 3.38711 12.1772 3.48034 12.2652 3.61423C12.299 3.66386 12.3044 3.72833 12.2708 3.77962C12.1608 3.83493 12.0344 3.78475 11.9395 3.72174C11.8573 3.66588 11.7723 3.58437 11.7703 3.47832Z" fill="#000814"/>
<path d="M10.8303 3.55119C10.825 3.46529 10.9118 3.40851 10.9895 3.40576C11.1281 3.39788 11.2629 3.45466 11.3754 3.53159C11.4802 3.60796 11.5858 3.70852 11.5996 3.84497C11.656 3.76035 11.7699 3.76365 11.8575 3.78618C12.058 3.83801 12.2474 3.97556 12.3234 4.17319C12.4196 4.10212 12.5461 4.11696 12.652 4.15579C12.5663 4.10102 12.4981 4.02391 12.4445 3.9382C12.4262 3.88343 12.4042 3.81933 12.4328 3.76438C12.4712 3.69918 12.5564 3.69094 12.6242 3.70119C12.7685 3.72299 12.8993 3.80248 13.0029 3.90303C13.0648 3.96714 13.1238 4.04498 13.1302 4.13729C13.1364 4.18894 13.1048 4.24169 13.0555 4.25909C12.9811 4.28913 12.9007 4.26715 12.8271 4.24773C12.9428 4.32466 13.0434 4.43199 13.0885 4.56569C13.1837 4.50379 13.3042 4.52302 13.4028 4.56624C13.5659 4.63749 13.7123 4.76497 13.7744 4.93567C13.859 4.86168 13.9792 4.87981 14.0746 4.92065C14.2235 4.98329 14.3568 5.09337 14.4334 5.23715C14.4687 5.30583 14.49 5.40584 14.4246 5.4639C14.3583 5.5161 14.2687 5.49577 14.1929 5.48166C14.3107 5.56903 14.4129 5.68497 14.4552 5.82801C14.4903 5.79706 14.5303 5.76592 14.5801 5.76775C14.7295 5.76482 14.8651 5.84779 14.9737 5.94377C15.0601 6.02436 15.1363 6.12564 15.1558 6.24506C15.1669 6.3088 15.1382 6.38426 15.0737 6.40716C14.99 6.43463 14.8991 6.41192 14.8226 6.37419C14.8121 6.37712 14.8021 6.38005 14.7922 6.38316C14.8556 6.39324 14.9012 6.44104 14.9475 6.48133C15.0347 6.5654 15.1122 6.6698 15.131 6.79215C15.1413 6.8416 15.1242 6.89106 15.1026 6.93501C15.0133 7.01652 14.8803 6.98868 14.7808 6.94307C14.6079 6.85992 14.4559 6.71339 14.4004 6.52602C14.3282 6.62218 14.1973 6.61687 14.0927 6.5894C14.2066 6.6764 14.3059 6.79069 14.3519 6.92842C14.3775 7.00846 14.3819 7.10846 14.3218 7.17477C14.2715 7.231 14.1912 7.23429 14.1215 7.24034C14.211 7.331 14.2865 7.44053 14.3127 7.56709C14.3442 7.50903 14.4017 7.46709 14.4696 7.4669C14.6391 7.46031 14.7929 7.55995 14.9059 7.67845C14.9933 7.77131 15.0656 7.88816 15.0753 8.01802C15.0825 8.09348 15.0479 8.17828 14.9755 8.21015C14.9001 8.24257 14.8171 8.22224 14.7402 8.20722C14.5383 8.11913 14.361 7.95172 14.3028 7.7345C14.2546 7.83926 14.131 7.86582 14.0262 7.853C14.1368 7.95502 14.2262 8.08542 14.2563 8.23488C14.2852 8.1955 14.3178 8.15319 14.3682 8.14147C14.4828 8.10777 14.5997 8.15557 14.7004 8.20832C14.7605 8.25008 14.8175 8.2966 14.8675 8.35009C14.9581 8.45101 15.0327 8.5772 15.0389 8.71603C15.044 8.80157 15.0003 8.89699 14.9147 8.92575C14.8458 8.95267 14.772 8.93472 14.7024 8.92264C14.483 8.83472 14.2916 8.64589 14.2418 8.4098C14.1916 8.53123 14.0478 8.56163 13.9306 8.53636C14.0394 8.62903 14.1169 8.75541 14.1522 8.8937C14.1665 8.99059 14.153 9.09847 14.0764 9.16733C14.0352 9.19188 13.9896 9.20763 13.9427 9.21624C13.8638 9.21624 13.7861 9.19774 13.7145 9.16569C13.4912 9.05249 13.2962 8.8208 13.3172 8.55779C13.3306 8.50137 13.3606 8.45027 13.404 8.41199C13.4705 8.37023 13.5504 8.36712 13.6262 8.37756C13.5183 8.29899 13.4429 8.18415 13.3901 8.06308C13.3251 8.11033 13.2454 8.13176 13.1654 8.12682C13.1086 8.11858 13.0529 8.10392 12.9983 8.08652C12.8128 8.00264 12.6533 7.85465 12.5747 7.66471C12.534 7.68394 12.4925 7.70153 12.4494 7.71453C12.3751 7.72424 12.3001 7.71307 12.2282 7.69438C12.3503 7.7867 12.4496 7.91967 12.4745 8.07334C12.4899 8.15905 12.469 8.25613 12.4027 8.3162C12.3591 8.36016 12.2969 8.37646 12.2375 8.38415C12.06 8.39056 11.8919 8.3021 11.7714 8.17645C11.6728 8.07737 11.5998 7.94311 11.6042 7.80043C11.6049 7.71417 11.6542 7.629 11.7324 7.59072C11.8175 7.54694 11.9177 7.55555 12.0076 7.579C11.8954 7.49841 11.8069 7.38686 11.7538 7.25957C11.6159 7.34016 11.4428 7.3191 11.3041 7.25206C11.1146 7.16286 10.9505 6.99784 10.9019 6.78959C10.8105 6.86908 10.6856 6.89069 10.5682 6.87311C10.6748 6.96853 10.7594 7.10498 10.7492 7.25279C10.747 7.3658 10.6556 7.46324 10.5472 7.48632C10.3721 7.5268 10.1894 7.45683 10.0526 7.34822C9.93431 7.25371 9.83797 7.11396 9.83723 6.95773C9.83504 6.87274 9.87954 6.78886 9.95189 6.74398C10.0263 6.69581 10.1186 6.68702 10.2046 6.69856C10.0578 6.58079 9.93962 6.37748 10.0136 6.18755C10.085 6.05897 10.2459 6.02674 10.3808 6.04707C10.2715 5.94725 10.1695 5.81373 10.1772 5.65786C10.1797 5.56866 10.2418 5.49302 10.3215 5.45804C10.3851 5.43807 10.4519 5.43697 10.518 5.43606C10.5026 5.42287 10.4876 5.40968 10.4726 5.39668C10.3898 5.30253 10.3261 5.18129 10.347 5.05198C10.3743 4.96882 10.4481 4.91204 10.5325 4.89556C10.6081 4.88805 10.6843 4.89446 10.7585 4.9104C10.6288 4.81332 10.4993 4.67229 10.5151 4.49793C10.466 4.59518 10.3528 4.62467 10.2521 4.61496C10.0819 4.59903 9.92149 4.51349 9.80555 4.38931C9.731 4.30964 9.67789 4.19627 9.71195 4.08655C9.75042 4.02391 9.8169 3.98197 9.89072 3.97739C10.097 3.96036 10.3008 4.06531 10.4332 4.21934C10.4995 4.29407 10.5338 4.39408 10.5195 4.49371C10.5321 4.45397 10.5453 4.41038 10.5823 4.38657C10.6567 4.32814 10.7567 4.33656 10.8453 4.34297C10.7484 4.25945 10.6653 4.14736 10.6585 4.01512C10.5849 4.10707 10.4556 4.1089 10.3503 4.08417C10.1894 4.0437 10.0356 3.95303 9.9398 3.8153C9.89328 3.74771 9.86049 3.65485 9.90134 3.57701C9.9387 3.50888 10.0219 3.48671 10.0946 3.48635C10.2475 3.4858 10.3949 3.55192 10.5122 3.64753C10.6012 3.71914 10.6741 3.81896 10.6838 3.936C10.7124 3.90431 10.7442 3.87409 10.7856 3.86036C10.8728 3.83874 10.9635 3.849 11.0492 3.87208C10.9453 3.79424 10.8353 3.68965 10.8303 3.55119ZM11.4018 3.98454C11.3662 4.00175 11.3571 4.04736 11.3769 4.08014C11.4212 4.16861 11.5166 4.22887 11.6146 4.23656C11.6576 4.24096 11.7076 4.20451 11.6959 4.15744C11.6794 4.08765 11.6192 4.03857 11.5591 4.00597C11.5115 3.98307 11.453 3.96128 11.4018 3.98454ZM12.2062 4.38437C12.162 4.39701 12.1595 4.45269 12.1813 4.48584C12.2238 4.55763 12.3018 4.60855 12.385 4.61789C12.4322 4.62449 12.4725 4.57174 12.4491 4.5287C12.4077 4.44041 12.3051 4.37008 12.2062 4.38437ZM11.29 4.50965C11.2422 4.52888 11.2439 4.59152 11.2706 4.6276C11.3186 4.69757 11.3999 4.74922 11.486 4.75142C11.5362 4.75343 11.5767 4.69665 11.5512 4.65104C11.5067 4.55782 11.3948 4.48327 11.29 4.50965ZM12.9198 4.74812C12.8903 4.76076 12.8721 4.79629 12.8874 4.82651C12.9174 4.90765 12.9974 4.96369 13.0798 4.98238C13.1137 4.99263 13.1535 4.97688 13.1663 4.94263C13.1712 4.88585 13.1297 4.83933 13.089 4.80563C13.0418 4.76808 12.9817 4.73749 12.9198 4.74812ZM11.1433 5.04135C11.114 5.06406 11.1107 5.10656 11.1272 5.13806C11.1679 5.23 11.2739 5.29246 11.3741 5.28092C11.4389 5.27012 11.4457 5.18879 11.4096 5.14539C11.3536 5.06461 11.2404 4.993 11.1433 5.04135ZM13.6191 5.09868C13.5751 5.10601 13.5628 5.15729 13.5801 5.19319C13.6139 5.27524 13.691 5.3344 13.7749 5.35931C13.8119 5.37067 13.8656 5.36939 13.883 5.32763C13.8947 5.2648 13.8486 5.20949 13.8053 5.16956C13.754 5.12762 13.6877 5.08678 13.6191 5.09868ZM11.0311 5.58625C10.9803 5.5976 10.958 5.65859 10.9816 5.70292C11.0215 5.7901 11.1144 5.85439 11.2111 5.85549C11.269 5.85768 11.3171 5.79486 11.2913 5.74046C11.2521 5.64156 11.1378 5.56555 11.0311 5.58625ZM13.5819 5.6672C13.5392 5.68533 13.5454 5.74175 13.5634 5.77563C13.6048 5.85347 13.6872 5.90933 13.7747 5.91941C13.8332 5.92124 13.8564 5.85164 13.8275 5.8075C13.7815 5.72288 13.6821 5.64559 13.5819 5.6672ZM14.2042 6.0489C14.3024 6.13279 14.383 6.24286 14.4143 6.36961C14.5021 6.2599 14.6647 6.30257 14.7719 6.35789C14.768 6.35221 14.7607 6.34085 14.757 6.33518C14.6105 6.26393 14.4892 6.12711 14.444 5.96959C14.3977 6.05568 14.2898 6.05952 14.2042 6.0489ZM10.8658 6.13682C10.8118 6.15843 10.7933 6.22345 10.8166 6.27455C10.8594 6.37272 10.9604 6.44287 11.0673 6.44965C11.1279 6.45166 11.193 6.40166 11.1785 6.33591C11.1505 6.20312 10.9986 6.10183 10.8658 6.13682ZM13.5203 6.21154C13.4687 6.23041 13.4749 6.29653 13.4987 6.33554C13.5432 6.41265 13.6273 6.4773 13.7198 6.47291C13.7669 6.47163 13.7951 6.41338 13.7724 6.37364C13.7339 6.27711 13.6279 6.19121 13.5203 6.21154ZM11.758 6.57896L11.7593 6.59141L11.7448 6.58885C11.6999 6.6002 11.6994 6.65936 11.7142 6.69453C11.756 6.79911 11.8723 6.87421 11.9859 6.85333C12.0135 6.82274 12.0465 6.78483 12.0256 6.74068C11.9906 6.6361 11.8668 6.54489 11.758 6.57896ZM13.4343 6.80241C13.4093 6.81999 13.3976 6.85497 13.4082 6.88391C13.4299 6.96432 13.4958 7.02733 13.5714 7.05865C13.6079 7.07257 13.6535 7.08117 13.6865 7.05388C13.7174 7.033 13.7156 6.99014 13.7053 6.95864C13.6791 6.88666 13.6176 6.83116 13.5482 6.80131C13.5126 6.78739 13.4674 6.77915 13.4343 6.80241ZM12.5121 7.06872C12.5412 7.18264 12.6621 7.26799 12.7798 7.25517C12.8036 7.22862 12.8375 7.19949 12.8262 7.1592C12.8007 7.03996 12.6751 6.94875 12.5535 6.9667C12.5276 6.99436 12.497 7.02733 12.5121 7.06872ZM13.3386 7.34822C13.2879 7.36543 13.2674 7.42368 13.2863 7.47203C13.3209 7.57918 13.4236 7.66691 13.5374 7.67534C13.6057 7.68285 13.6546 7.60445 13.6253 7.54438C13.5863 7.42991 13.4643 7.32459 13.3386 7.34822Z" fill="#000814"/>
<path d="M8.95424 3.67848C9.01065 3.63672 9.08043 3.61932 9.14985 3.61877C9.32495 3.63196 9.49693 3.71457 9.60591 3.85395C9.65463 3.91292 9.67569 3.98967 9.66818 4.06549C9.63393 4.14846 9.54767 4.18894 9.46213 4.19352C9.28795 4.19114 9.11652 4.1144 8.99856 3.98655C8.95332 3.9382 8.92383 3.87739 8.90991 3.8131C8.90973 3.76438 8.92365 3.71676 8.95424 3.67848Z" fill="#000814"/>
<path d="M3.78299 3.65459C3.87274 3.6436 3.9753 3.66027 4.03886 3.72987C4.07055 3.76174 4.07494 3.8198 4.03868 3.85002C3.97366 3.90954 3.87548 3.90735 3.79453 3.88958C3.73555 3.87218 3.66595 3.83848 3.65185 3.77236C3.64452 3.70056 3.72236 3.66137 3.78299 3.65459Z" fill="#000814"/>
<path d="M6.05249 3.74428C6.16861 3.69776 6.32118 3.74153 6.38767 3.84959C6.41789 3.89996 6.38895 3.96663 6.33528 3.9855C6.22136 4.02597 6.07557 3.98714 6.00816 3.88366C5.97483 3.83494 5.99791 3.76497 6.05249 3.74428Z" fill="#000814"/>
<path d="M13.2949 3.82242C13.3046 3.78981 13.3156 3.74769 13.3557 3.74238C13.4806 3.72241 13.5982 3.79787 13.6843 3.88103C13.7312 3.93176 13.7869 4.00502 13.7554 4.07682C13.7074 4.13964 13.6189 4.11052 13.5552 4.09367C13.442 4.03579 13.3286 3.95191 13.2949 3.82242Z" fill="#000814"/>
<path d="M2.42785 3.8747C2.51485 3.84686 2.61724 3.84979 2.69618 3.89924C2.73427 3.92103 2.76083 3.9725 2.73574 4.01353C2.6861 4.08478 2.58848 4.09229 2.50917 4.08661C2.44507 4.08038 2.36979 4.05547 2.3425 3.99137C2.3273 3.93367 2.38023 3.89228 2.42785 3.8747Z" fill="#000814"/>
<path d="M8.06382 3.8871C8.175 3.85212 8.29753 3.89113 8.3882 3.95908C8.44864 4.00377 8.50084 4.07593 8.48545 4.15506C8.46878 4.2188 8.39662 4.24847 8.336 4.2481C8.20559 4.24938 8.06804 4.18491 8.00137 4.07026C7.95979 4.00542 7.9869 3.90871 8.06382 3.8871Z" fill="#000814"/>
<path d="M4.62392 3.97723C4.69828 3.91111 4.80451 3.90928 4.89847 3.91459C5.01111 3.93676 5.12852 3.98932 5.1809 4.0983C5.18786 4.1483 5.18328 4.20563 5.14134 4.24006C5.0591 4.31241 4.93785 4.31589 4.83565 4.29501C4.74187 4.27486 4.64498 4.22907 4.59498 4.14336C4.56403 4.08969 4.57593 4.01679 4.62392 3.97723Z" fill="#000814"/>
<path d="M6.85447 4.12466C6.87278 4.08418 6.91601 4.06586 6.95337 4.04718C7.10118 4.02008 7.2706 4.07154 7.35632 4.20012C7.38544 4.24078 7.38581 4.29243 7.37683 4.33987C7.34551 4.37943 7.30375 4.41313 7.25247 4.42082C7.11821 4.44298 6.97169 4.39079 6.88451 4.28584C6.84787 4.24243 6.82736 4.17796 6.85447 4.12466Z" fill="#000814"/>
<path d="M3.31344 4.18787C3.37113 4.11332 3.47553 4.1157 3.56052 4.1201C3.61858 4.13805 3.67188 4.1679 3.7162 4.20966C3.71913 4.24996 3.72939 4.30032 3.69184 4.32853C3.59862 4.40289 3.45813 4.39245 3.36015 4.33219C3.31161 4.30509 3.27827 4.23805 3.31344 4.18787Z" fill="#000814"/>
<path d="M13.3022 4.16013C13.3837 4.13467 13.47 4.16819 13.5418 4.20702C13.6284 4.26013 13.7121 4.33266 13.7478 4.43065C13.7667 4.47681 13.7561 4.54054 13.7059 4.56142C13.6442 4.58523 13.5762 4.56527 13.5174 4.54219C13.414 4.4964 13.3189 4.42058 13.2665 4.31874C13.2396 4.26654 13.2357 4.18339 13.3022 4.16013Z" fill="#000814"/>
<path d="M8.85512 4.19769C8.96941 4.15831 9.09285 4.18652 9.19835 4.23817C9.30092 4.30264 9.40349 4.39624 9.40752 4.52664C9.39451 4.59624 9.3359 4.64844 9.26722 4.65925C9.1304 4.68178 8.9901 4.6272 8.8857 4.53983C8.81793 4.48159 8.75731 4.39642 8.77233 4.30209C8.77837 4.25447 8.81885 4.22352 8.85512 4.19769Z" fill="#000814"/>
<path d="M5.55521 4.33407C5.65759 4.22308 5.82903 4.22546 5.96108 4.2751C6.06035 4.31338 6.1653 4.3881 6.17776 4.50239C6.18746 4.58024 6.12208 4.63811 6.05815 4.66815C5.89405 4.71596 5.701 4.67072 5.58469 4.54306C5.53158 4.48756 5.51857 4.40184 5.55521 4.33407Z" fill="#000814"/>
<path d="M16.5974 4.34905C16.6377 4.34631 16.6804 4.34393 16.7168 4.36517C16.7987 4.40583 16.8863 4.47763 16.8749 4.57928C16.8434 4.5769 16.8121 4.5747 16.7811 4.57012C16.6939 4.52507 16.5976 4.45877 16.5974 4.34905Z" fill="#000814"/>
<path d="M16.0352 4.36351C16.1352 4.35875 16.2252 4.42963 16.2858 4.50344C16.3195 4.53989 16.34 4.63183 16.2669 4.63275C16.1647 4.61663 16.0691 4.55051 16.018 4.46077C16.0006 4.43201 15.9938 4.37322 16.0352 4.36351Z" fill="#000814"/>
<path d="M17.1054 4.35864C17.2142 4.36047 17.3481 4.44418 17.3367 4.56579C17.2277 4.56634 17.0887 4.48026 17.1054 4.35864Z" fill="#000814"/>
<path d="M7.73724 4.45631C7.7768 4.40044 7.84933 4.38249 7.91435 4.38359C8.053 4.38268 8.19385 4.45301 8.26949 4.57041C8.30905 4.63012 8.31162 4.71987 8.25447 4.76969C8.17956 4.83324 8.0726 4.82482 7.9834 4.80339C7.8757 4.76895 7.77698 4.6999 7.72423 4.59789C7.71654 4.55118 7.7072 4.49733 7.73724 4.45631Z" fill="#000814"/>
<path d="M15.3605 4.54881C15.3218 4.49991 15.3033 4.40906 15.3792 4.38489C15.512 4.39789 15.6325 4.47921 15.7048 4.58947C15.7352 4.63325 15.7438 4.6968 15.7015 4.73618C15.5632 4.74626 15.4385 4.65596 15.3605 4.54881Z" fill="#000814"/>
<path d="M4.40506 4.42438C4.5177 4.39416 4.64958 4.41358 4.73768 4.49398C4.77174 4.52878 4.80013 4.58135 4.78108 4.63062C4.76075 4.69619 4.68877 4.7211 4.6287 4.73612C4.49151 4.7515 4.2937 4.69399 4.28857 4.52897C4.3122 4.48061 4.35176 4.43867 4.40506 4.42438Z" fill="#000814"/>
<path d="M14.7168 4.45956C14.7926 4.44821 14.8665 4.48319 14.9276 4.52495C14.9969 4.57385 15.0619 4.63887 15.0831 4.72349C15.0956 4.76379 15.0674 4.81232 15.0234 4.81361C14.9212 4.81983 14.8284 4.75958 14.7556 4.69364C14.7062 4.64364 14.654 4.5788 14.6644 4.50389C14.674 4.48246 14.6923 4.46286 14.7168 4.45956Z" fill="#000814"/>
<path d="M13.9359 4.51499C14.0339 4.48825 14.1359 4.51829 14.2168 4.57616C14.2976 4.63459 14.3817 4.7106 14.398 4.81408C14.4099 4.86189 14.3698 4.89614 14.333 4.91684C14.1731 4.91922 14.0245 4.81866 13.9421 4.68624C13.9064 4.63422 13.9066 4.56957 13.9359 4.51499Z" fill="#000814"/>
<path d="M9.55053 4.6357C9.59852 4.53496 9.71867 4.50712 9.82087 4.51811C9.98827 4.54192 10.1484 4.63185 10.2465 4.77087C10.2985 4.84303 10.3229 4.93883 10.2899 5.02418C10.2571 5.0707 10.2092 5.10367 10.1546 5.11887C10.093 5.1262 10.0306 5.12491 9.96977 5.11319C9.81592 5.07436 9.67196 4.98242 9.58661 4.84688C9.54613 4.78461 9.53643 4.70768 9.55053 4.6357Z" fill="#000814"/>
<path d="M6.61557 4.581C6.79103 4.53796 6.99086 4.60518 7.10386 4.74657C7.15551 4.81104 7.1753 4.90995 7.12273 4.97992C7.0687 5.0508 6.97327 5.07278 6.88847 5.07149C6.76045 5.06746 6.63278 5.01746 6.54102 4.92735C6.48443 4.87112 6.44523 4.7876 6.46849 4.70756C6.48791 4.64071 6.55201 4.59913 6.61557 4.581Z" fill="#000814"/>
<path d="M8.656 4.71918C8.85528 4.66991 9.0714 4.7712 9.18954 4.93311C9.23368 4.99758 9.26006 5.08367 9.22855 5.15894C9.19852 5.22708 9.1247 5.26371 9.05382 5.27122C8.89136 5.28807 8.72835 5.21737 8.61388 5.10436C8.55472 5.04227 8.50636 4.95949 8.51552 4.87102C8.52285 4.79629 8.58549 4.73732 8.656 4.71918Z" fill="#000814"/>
<path d="M16.657 4.74768C16.6795 4.72204 16.7226 4.74237 16.7504 4.75226C16.818 4.78779 16.8949 4.84256 16.9041 4.92461C16.9061 4.97516 16.8401 4.96454 16.8103 4.94952C16.7348 4.91399 16.6484 4.85226 16.6467 4.76069L16.657 4.74768Z" fill="#000814"/>
<path d="M15.3584 4.7898C15.4382 4.78046 15.5139 4.8213 15.5787 4.86343C15.6619 4.92259 15.7434 5.00391 15.7584 5.10941C15.7635 5.16161 15.7126 5.19531 15.665 5.18963C15.5554 5.17901 15.4589 5.11435 15.3831 5.03816C15.3373 4.98633 15.2899 4.92369 15.2954 4.85079C15.2952 4.81727 15.328 4.79401 15.3584 4.7898Z" fill="#000814"/>
<path d="M16.0335 4.78364C16.0735 4.75654 16.1226 4.77613 16.163 4.79134C16.2469 4.82815 16.3209 4.89171 16.3654 4.9723C16.3845 5.00636 16.3931 5.06259 16.3508 5.08329C16.233 5.1005 16.1292 5.0157 16.0586 4.93072C16.0306 4.89061 15.99 4.82632 16.0335 4.78364Z" fill="#000814"/>
<path d="M5.43311 4.86426C5.54447 4.83349 5.68184 4.86902 5.74832 4.96811C5.78294 5.01756 5.77049 5.09339 5.71774 5.12508C5.63623 5.17599 5.52982 5.16391 5.44648 5.12379C5.39208 5.09595 5.33567 5.04669 5.33604 4.98075C5.32926 4.92214 5.38219 4.87891 5.43311 4.86426Z" fill="#000814"/>
<path d="M14.6418 4.85917C14.7356 4.83389 14.8321 4.87785 14.91 4.92785C14.9949 4.98756 15.0757 5.06449 15.11 5.16504C15.1268 5.2123 15.1213 5.28098 15.0678 5.30168C14.979 5.32933 14.8871 5.28886 14.8114 5.24398C14.7138 5.18098 14.6208 5.09398 14.59 4.97822C14.5761 4.93353 14.5944 4.87492 14.6418 4.85917Z" fill="#000814"/>
<path d="M7.55258 5.00348C7.66486 4.96959 7.78849 5.00183 7.88575 5.06282C7.96817 5.11502 8.04326 5.2044 8.03264 5.30789C8.02201 5.39873 7.92805 5.44818 7.84472 5.4513C7.68281 5.45844 7.50313 5.37346 7.44086 5.21722C7.40221 5.12876 7.46247 5.02674 7.55258 5.00348Z" fill="#000814"/>
<path d="M9.44301 5.06525C9.565 5.02001 9.7009 5.04547 9.81812 5.09346C9.93772 5.14566 10.0461 5.22917 10.1179 5.33925C10.1678 5.4149 10.1936 5.51105 10.1676 5.59989C10.1377 5.69128 10.0408 5.74366 9.94908 5.74879C9.77196 5.76418 9.59705 5.68853 9.46627 5.57241C9.37616 5.49146 9.29978 5.37991 9.30308 5.25408C9.30345 5.16892 9.3659 5.0951 9.44301 5.06525Z" fill="#000814"/>
<path d="M16.0508 5.32279C16.0281 5.28542 16.0321 5.23597 16.0673 5.20776C16.1762 5.22205 16.2826 5.28872 16.3279 5.3911C16.3436 5.42462 16.3345 5.46272 16.3077 5.48781C16.2021 5.47865 16.1022 5.41528 16.0508 5.32279Z" fill="#000814"/>
<path d="M6.41979 5.26348C6.52236 5.22044 6.65515 5.26129 6.71632 5.35415C6.75314 5.40781 6.73445 5.49096 6.67035 5.51368C6.56668 5.55507 6.43426 5.51386 6.37345 5.42008C6.33792 5.36642 6.35807 5.28729 6.41979 5.26348Z" fill="#000814"/>
<path d="M15.3394 5.2635C15.394 5.23731 15.4567 5.25855 15.5081 5.28273C15.5962 5.32834 15.6764 5.39739 15.7191 5.4886C15.7358 5.52669 15.747 5.58018 15.7112 5.61131C15.6678 5.64501 15.609 5.6289 15.5627 5.6115C15.4618 5.56919 15.372 5.49354 15.3231 5.39482C15.3026 5.35379 15.2931 5.29042 15.3394 5.2635Z" fill="#000814"/>
<path d="M14.5224 5.41758C14.5188 5.36135 14.5613 5.31794 14.612 5.30164C14.7961 5.29523 14.9605 5.41318 15.0664 5.55531C15.1223 5.63114 15.1662 5.75202 15.0829 5.82565C14.9431 5.86632 14.8041 5.79232 14.6988 5.70587C14.6131 5.63187 14.5314 5.53517 14.5224 5.41758Z" fill="#000814"/>
<path d="M8.35479 5.42084C8.42036 5.35051 8.52531 5.34355 8.61487 5.3571C8.76378 5.39043 8.91525 5.48732 8.95994 5.64044C8.98613 5.71975 8.94492 5.80528 8.87459 5.84576C8.69766 5.91646 8.48977 5.83312 8.37475 5.69008C8.31541 5.61737 8.28702 5.49721 8.35479 5.42084Z" fill="#000814"/>
<path d="M7.37833 5.64841C7.44207 5.63559 7.51112 5.64017 7.5679 5.67442C7.64483 5.7116 7.70307 5.80721 7.65252 5.88835C7.53878 5.97846 7.33987 5.90978 7.30635 5.76893C7.29225 5.71417 7.332 5.66966 7.37833 5.64841Z" fill="#000814"/>
<path d="M9.09984 5.81631C9.13062 5.72949 9.21725 5.67363 9.30553 5.65916C9.46433 5.6326 9.62752 5.68608 9.75683 5.77784C9.86581 5.85275 9.95501 5.96228 9.98669 6.09251C9.9942 6.1665 9.99164 6.24947 9.93724 6.3068C9.84804 6.41175 9.69511 6.41376 9.56983 6.39124C9.38484 6.34252 9.2123 6.22658 9.12127 6.05496C9.09087 5.98041 9.07072 5.89451 9.09984 5.81631Z" fill="#000814"/>
<path d="M15.3962 5.79387C15.4696 5.78252 15.5392 5.82812 15.5918 5.87538C15.6355 5.91805 15.6804 5.9752 15.6705 6.04022C15.6637 6.07538 15.6196 6.08912 15.5883 6.08161C15.4905 6.06256 15.404 5.99205 15.363 5.90175C15.348 5.8642 15.3454 5.80394 15.3962 5.79387Z" fill="#000814"/>
<path d="M8.11745 6.02459C8.19309 5.94235 8.31764 5.93832 8.41966 5.96213C8.55593 5.99748 8.68762 6.09052 8.73487 6.22771C8.75832 6.28888 8.74586 6.3561 8.71564 6.41215C8.62388 6.5171 8.47021 6.51252 8.34804 6.47314C8.23962 6.42625 8.14401 6.35024 8.08906 6.24419C8.06855 6.17203 8.0614 6.08301 8.11745 6.02459Z" fill="#000814"/>
<path d="M16.0665 6.15816C16.116 6.14168 16.1684 6.16567 16.212 6.18875C16.292 6.23729 16.3673 6.31202 16.3818 6.40836C16.3883 6.46239 16.3299 6.49078 16.2843 6.47667C16.1808 6.45323 16.0916 6.37575 16.0442 6.28198C16.0239 6.24297 16.0154 6.1763 16.0665 6.15816Z" fill="#000814"/>
<path d="M15.2241 6.22618C15.2604 6.1835 15.3214 6.18845 15.3717 6.18936C15.5476 6.23534 15.7045 6.36043 15.7802 6.52656C15.8095 6.5859 15.8122 6.65641 15.7818 6.71576C15.702 6.7784 15.5928 6.75056 15.5102 6.7088C15.3901 6.64597 15.2838 6.54835 15.2245 6.42509C15.1968 6.36373 15.1765 6.28296 15.2241 6.22618Z" fill="#000814"/>
<path d="M6.93277 6.39831C6.96775 6.3441 7.02361 6.30216 7.08955 6.29703C7.2271 6.28146 7.38205 6.35307 7.43718 6.48476C7.46392 6.54484 7.44835 6.61444 7.40641 6.66352C7.26025 6.77104 7.03497 6.70162 6.9487 6.5496C6.92123 6.50399 6.92306 6.44868 6.93277 6.39831Z" fill="#000814"/>
<path d="M8.95015 6.45351C8.98861 6.37439 9.07341 6.32677 9.15858 6.31596C9.28404 6.29856 9.41097 6.33702 9.51903 6.39966C9.65347 6.48501 9.77728 6.62513 9.76978 6.79418C9.77087 6.89895 9.68845 6.9832 9.59321 7.01379C9.31811 7.0757 9.00564 6.89364 8.93183 6.62C8.92597 6.56414 8.92432 6.50498 8.95015 6.45351Z" fill="#000814"/>
<path d="M16.7458 6.5213C16.8006 6.49932 16.8608 6.52459 16.9092 6.55207C16.9929 6.60298 17.0684 6.67954 17.0957 6.77588C17.1096 6.81416 17.0949 6.86746 17.0522 6.87937C16.9933 6.88908 16.9365 6.8627 16.8881 6.8323C16.8149 6.78211 16.7495 6.71361 16.7211 6.62808C16.7094 6.59218 16.7083 6.54218 16.7458 6.5213Z" fill="#000814"/>
<path d="M15.9631 6.56808C16.0561 6.53988 16.1529 6.57999 16.2327 6.62688C16.3503 6.70124 16.453 6.80656 16.506 6.93696C16.5281 6.99759 16.5408 7.07671 16.4921 7.12818C16.4439 7.17232 16.3708 7.16353 16.3126 7.14833C16.1697 7.10162 16.0466 7.00088 15.964 6.87615C15.9202 6.80875 15.8831 6.72835 15.8986 6.64629C15.9045 6.61094 15.931 6.58255 15.9631 6.56808Z" fill="#000814"/>
<path d="M7.99614 6.62456C8.16519 6.59746 8.34413 6.67402 8.44853 6.80827C8.50806 6.88556 8.54213 6.99418 8.50073 7.08759C8.4641 7.17312 8.36996 7.22001 8.2804 7.22404C8.1771 7.23283 8.07398 7.20188 7.98625 7.14839C7.92873 7.11158 7.8802 7.06231 7.83899 7.0081C7.8062 6.94271 7.77891 6.86761 7.79759 6.79398C7.81737 6.70112 7.90639 6.6394 7.99614 6.62456Z" fill="#000814"/>
<path d="M15.2623 6.74362C15.3588 6.7134 15.4614 6.75095 15.5449 6.80022C15.6748 6.88044 15.7872 7.00078 15.8325 7.14913C15.8526 7.21708 15.8438 7.31123 15.7706 7.34365C15.6865 7.37698 15.5925 7.34694 15.5156 7.30848C15.3727 7.23119 15.2489 7.10627 15.1971 6.95022C15.1718 6.87769 15.1819 6.77586 15.2623 6.74362Z" fill="#000814"/>
<path d="M17.3602 6.89502C17.3935 6.87909 17.4307 6.86352 17.4683 6.87689C17.575 6.90656 17.6635 6.98422 17.7249 7.0747C17.7578 7.12543 17.787 7.18936 17.767 7.25053C17.7445 7.3009 17.6813 7.28661 17.6381 7.28203C17.5185 7.23002 17.4128 7.13624 17.3644 7.01334C17.3481 6.97561 17.3531 6.93404 17.3602 6.89502Z" fill="#000814"/>
<path d="M14.4611 6.91174C14.5337 6.87969 14.6159 6.89764 14.687 6.9253C14.8218 6.98079 14.9366 7.083 15.0102 7.20882C15.0498 7.27623 15.0749 7.35718 15.058 7.43557C15.045 7.49327 14.9921 7.53887 14.9333 7.54345C14.7994 7.55774 14.6736 7.48832 14.5763 7.40261C14.4822 7.31982 14.4011 7.2123 14.3815 7.08574C14.3686 7.01907 14.3965 6.94068 14.4611 6.91174Z" fill="#000814"/>
<path d="M6.53832 7.05379C6.71049 6.87998 7.01728 6.94628 7.16088 7.12486C7.24458 7.21955 7.26198 7.37359 7.17681 7.47322C6.99548 7.64466 6.68229 7.56444 6.54565 7.37468C6.47513 7.28311 6.46671 7.1472 6.53832 7.05379Z" fill="#000814"/>
<path d="M16.7121 6.98284C16.8006 6.9583 16.8898 7.00244 16.9627 7.04969C17.0656 7.12222 17.1563 7.22094 17.1977 7.34164C17.2185 7.39971 17.2189 7.48359 17.1568 7.51656C17.0782 7.54495 16.9934 7.5107 16.9255 7.47077C16.8094 7.39787 16.7084 7.29146 16.6616 7.16087C16.6416 7.10024 16.6398 7.00812 16.7121 6.98284Z" fill="#000814"/>
<path d="M8.92495 7.02434C9.15683 6.97049 9.41215 7.10896 9.50556 7.3249C9.55318 7.42985 9.53395 7.56246 9.44237 7.63737C9.2779 7.74708 9.05536 7.68774 8.91213 7.56942C8.80883 7.48535 8.72714 7.35347 8.7482 7.21574C8.76029 7.12196 8.83923 7.05291 8.92495 7.02434Z" fill="#000814"/>
<path d="M15.9732 7.19508C16.0035 7.15387 16.0597 7.15479 16.1058 7.15442C16.256 7.18739 16.3824 7.29105 16.4676 7.41615C16.5236 7.50022 16.5626 7.61433 16.5033 7.70737C16.4099 7.75865 16.3 7.72074 16.2163 7.66799C16.1101 7.59839 16.0185 7.50095 15.9694 7.38282C15.9463 7.32366 15.9326 7.24984 15.9732 7.19508Z" fill="#000814"/>
<path d="M10.9631 7.19069C11.0811 7.16304 11.2051 7.2026 11.3034 7.26817C11.4104 7.34143 11.5031 7.45005 11.5228 7.58174C11.5384 7.66452 11.5042 7.76031 11.4274 7.80134C11.3249 7.85702 11.1987 7.83248 11.0985 7.78394C10.9463 7.70756 10.8051 7.55719 10.812 7.37697C10.8109 7.28905 10.8785 7.20993 10.9631 7.19069Z" fill="#000814"/>
<path d="M18.011 7.21868C18.0804 7.19212 18.1548 7.22564 18.2152 7.26044C18.3264 7.33132 18.4207 7.43444 18.4698 7.55789C18.4867 7.60771 18.4966 7.67621 18.4521 7.71485C18.3962 7.75075 18.3273 7.72291 18.2735 7.69764C18.1504 7.63133 18.0488 7.524 17.9918 7.39634C17.9678 7.3403 17.9519 7.25824 18.011 7.21868Z" fill="#000814"/>
<path d="M7.59244 7.40781C7.76332 7.3036 7.99282 7.35928 8.13678 7.48584C8.22635 7.56423 8.29265 7.68072 8.27946 7.80288C8.27159 7.90307 8.19521 7.98934 8.10235 8.02267C8.00766 8.05619 7.90381 8.04703 7.80838 8.02139C7.66937 7.9712 7.54537 7.86937 7.4906 7.72962C7.45177 7.61405 7.48438 7.47375 7.59244 7.40781Z" fill="#000814"/>
<path d="M15.2338 7.37277C15.2853 7.33468 15.3525 7.35024 15.4096 7.36416C15.5825 7.43688 15.7461 7.6008 15.7364 7.80044C15.7144 7.83543 15.6889 7.877 15.6435 7.88177C15.5556 7.89459 15.4692 7.85649 15.3996 7.80594C15.3082 7.73835 15.2294 7.64678 15.1975 7.53615C15.1832 7.4812 15.1827 7.40922 15.2338 7.37277Z" fill="#000814"/>
<path d="M17.3909 7.40324C17.4409 7.3743 17.5015 7.39445 17.5512 7.41496C17.6724 7.47339 17.773 7.57595 17.829 7.69849C17.8512 7.75398 17.8697 7.82834 17.8261 7.87835C17.7722 7.92066 17.6981 7.89593 17.6428 7.8701C17.5191 7.80508 17.4149 7.6972 17.3645 7.56606C17.3464 7.51331 17.3371 7.4384 17.3909 7.40324Z" fill="#000814"/>
<path d="M9.76346 7.54451C9.82463 7.46521 9.93361 7.44506 10.0281 7.45642C10.2507 7.49122 10.467 7.68445 10.4532 7.92273C10.4367 8.01211 10.369 8.09032 10.2783 8.10845C10.0717 8.15131 9.8554 8.02585 9.75833 7.84471C9.71016 7.75313 9.69679 7.63042 9.76346 7.54451Z" fill="#000814"/>
<path d="M16.7645 7.58618C16.8478 7.56457 16.9312 7.60907 16.9971 7.65651C17.0944 7.73307 17.1832 7.83747 17.1995 7.96422C17.2079 8.01953 17.1702 8.08455 17.1094 8.08455C17.0149 8.08693 16.9303 8.03272 16.8623 7.97227C16.7865 7.90194 16.7204 7.81274 16.7037 7.70853C16.6953 7.66072 16.7127 7.60047 16.7645 7.58618Z" fill="#000814"/>
<path d="M18.7089 7.62568C18.7838 7.61395 18.8541 7.65864 18.9118 7.70205C18.9961 7.77055 19.0693 7.85939 19.1025 7.96415C19.116 8.01067 19.1202 8.08632 19.0607 8.10152C18.9856 8.11379 18.9151 8.0724 18.8581 8.02826C18.7719 7.95921 18.6984 7.86909 18.6634 7.76323C18.6484 7.71579 18.647 7.63813 18.7089 7.62568Z" fill="#000814"/>
<path d="M6.19042 7.86528C6.39317 7.63926 6.81407 7.75831 6.90363 8.03744C6.93312 8.12884 6.91352 8.23709 6.84429 8.30577C6.76205 8.39149 6.63512 8.41566 6.52101 8.40083C6.37064 8.37812 6.22448 8.28672 6.16221 8.14441C6.12155 8.05411 6.13437 7.94623 6.19042 7.86528Z" fill="#000814"/>
<path d="M18.0427 7.8966C18.0479 7.85923 18.0576 7.81436 18.0993 7.80209C18.1882 7.78615 18.2715 7.83872 18.3371 7.8933C18.4182 7.96528 18.4894 8.05668 18.5136 8.16437C18.5259 8.21053 18.5156 8.275 18.4642 8.29222C18.3959 8.3076 18.3306 8.27262 18.2746 8.238C18.1625 8.15503 18.0645 8.038 18.0427 7.8966Z" fill="#000814"/>
<path d="M8.63938 7.86086C8.86283 7.74767 9.1579 7.89987 9.22658 8.13303C9.25021 8.20904 9.23665 8.29311 9.19233 8.35887C9.15423 8.39733 9.10881 8.43103 9.05515 8.44312C8.83884 8.49166 8.59799 8.3444 8.54066 8.13102C8.5108 8.03028 8.55201 7.91874 8.63938 7.86086Z" fill="#000814"/>
<path d="M16.0505 7.82129C16.1157 7.79858 16.1842 7.83008 16.2392 7.86488C16.319 7.91964 16.387 7.99913 16.4132 8.09383C16.4263 8.14181 16.4225 8.20977 16.3688 8.23083C16.2917 8.25299 16.2143 8.21361 16.1545 8.16764C16.084 8.11123 16.0236 8.0354 16.0038 7.94565C15.9939 7.9006 16.0012 7.83942 16.0505 7.82129Z" fill="#000814"/>
<path d="M15.2502 7.94165C15.3491 7.92718 15.4463 7.97316 15.5245 8.0303C15.635 8.11382 15.7278 8.23141 15.755 8.36951C15.7711 8.44112 15.746 8.53124 15.6711 8.55816C15.5559 8.58911 15.4399 8.53197 15.3515 8.46164C15.2441 8.37519 15.1535 8.25412 15.1363 8.11401C15.124 8.03854 15.1698 7.95264 15.2502 7.94165Z" fill="#000814"/>
<path d="M10.7588 8.00936C10.8192 7.93445 10.9289 7.93573 11.013 7.96247C11.1418 8.00771 11.2548 8.11944 11.2764 8.25736C11.291 8.33392 11.2515 8.41908 11.1777 8.44894C11.0989 8.48172 11.0123 8.45773 10.9365 8.42897C10.844 8.3722 10.7625 8.29252 10.7289 8.18702C10.7185 8.12695 10.7167 8.05826 10.7588 8.00936Z" fill="#000814"/>
<path d="M17.5014 8.02998C17.5884 8.02394 17.6637 8.08108 17.7234 8.13804C17.7889 8.20764 17.8518 8.29959 17.8349 8.40014C17.816 8.4582 17.7439 8.45949 17.697 8.43751C17.58 8.38952 17.4865 8.28585 17.4464 8.16625C17.4276 8.1168 17.438 8.03841 17.5014 8.02998Z" fill="#000814"/>
<path d="M12.563 8.20258C12.5678 8.12565 12.6264 8.06521 12.6967 8.04066C12.8084 8.01832 12.9187 8.06026 13.0136 8.11649C13.1286 8.2066 13.2299 8.32694 13.2497 8.47694C13.2533 8.5427 13.2323 8.60772 13.1881 8.65699C13.0716 8.73959 12.915 8.69582 12.8053 8.62274C12.6668 8.53153 12.5483 8.37602 12.563 8.20258Z" fill="#000814"/>
<path d="M19.4007 8.09746C19.478 8.07438 19.5492 8.13317 19.6029 8.18208C19.6632 8.24783 19.7271 8.32805 19.7232 8.42219C19.721 8.47494 19.6557 8.47861 19.6187 8.46139C19.5198 8.42055 19.4469 8.333 19.4 8.2394C19.3802 8.19636 19.3632 8.13537 19.4007 8.09746Z" fill="#000814"/>
<path d="M7.44683 8.19593C7.67467 8.16186 7.93439 8.32945 7.95124 8.56902C7.96736 8.71664 7.83787 8.84485 7.69574 8.85639C7.5069 8.87929 7.30689 8.77287 7.22759 8.59869C7.18564 8.50711 7.18729 8.39044 7.24938 8.3082C7.29554 8.24465 7.37045 8.20747 7.44683 8.19593Z" fill="#000814"/>
<path d="M18.7828 8.24826C18.8575 8.2316 18.9253 8.28435 18.9782 8.33087C19.0416 8.39571 19.1033 8.47666 19.1057 8.57117C19.1088 8.60597 19.0823 8.6393 19.0462 8.63839C18.987 8.63619 18.9345 8.60304 18.8918 8.56476C18.8271 8.50652 18.7694 8.43435 18.7498 8.34809C18.7444 8.31292 18.742 8.26292 18.7828 8.24826Z" fill="#000814"/>
<path d="M11.7087 8.31685C11.8214 8.29066 11.9401 8.32491 12.0346 8.38773C12.1553 8.46759 12.2545 8.5914 12.2782 8.73701C12.2939 8.8209 12.2701 8.91742 12.1992 8.96999C12.1157 9.03446 11.9989 9.02604 11.9047 8.99142C11.7216 8.9231 11.565 8.75277 11.5492 8.55294C11.5373 8.44927 11.6051 8.34066 11.7087 8.31685Z" fill="#000814"/>
<path d="M9.7492 8.37478C9.89535 8.32972 10.0637 8.455 10.0672 8.60702C10.0661 8.65959 10.0325 8.70959 9.98419 8.72992C9.83674 8.77919 9.65835 8.65263 9.66293 8.49585C9.66091 8.44218 9.69901 8.39163 9.7492 8.37478Z" fill="#000814"/>
<path d="M5.13853 8.43337C5.29733 8.40608 5.49203 8.50736 5.50466 8.68063C5.51309 8.8202 5.37188 8.92167 5.24147 8.91434C5.09659 8.92075 4.93083 8.818 4.92332 8.66287C4.91252 8.54052 5.02571 8.44711 5.13853 8.43337Z" fill="#000814"/>
<path d="M16.028 8.47678C16.0635 8.43118 16.128 8.44052 16.1784 8.44803C16.3478 8.51561 16.506 8.68888 16.4753 8.88229C16.4443 8.92387 16.3936 8.95299 16.3408 8.93852C16.2068 8.91087 16.0996 8.80537 16.0381 8.68705C16.0069 8.62368 15.9842 8.53942 16.028 8.47678Z" fill="#000814"/>
<path d="M20.0683 8.55768C20.0881 8.52929 20.1353 8.54211 20.1625 8.55512C20.248 8.60219 20.3147 8.68425 20.3462 8.77656C20.355 8.80824 20.365 8.85843 20.3278 8.87564C20.2518 8.88718 20.1927 8.82509 20.1463 8.77418C20.098 8.71502 20.0432 8.63754 20.0683 8.55768Z" fill="#000814"/>
<path d="M8.45573 8.68318C8.60812 8.5612 8.86271 8.71029 8.84348 8.90004C8.83743 8.98246 8.75721 9.03283 8.6812 9.0407C8.62021 9.03448 8.55757 9.01946 8.50958 8.97934C8.41855 8.91432 8.37569 8.77366 8.45573 8.68318Z" fill="#000814"/>
<path d="M5.97613 8.68317C6.16075 8.60459 6.39519 8.67731 6.49776 8.85076C6.55124 8.93702 6.55436 9.04857 6.51003 9.13941C6.39959 9.31543 6.14298 9.33081 5.98071 9.2211C5.86788 9.15205 5.79096 9.01633 5.81715 8.88281C5.8318 8.79379 5.89975 8.72511 5.97613 8.68317Z" fill="#000814"/>
<path d="M15.1517 8.75502C15.1616 8.70649 15.206 8.67993 15.2481 8.66216C15.3263 8.65978 15.4045 8.68158 15.4684 8.72718C15.5997 8.81693 15.7074 8.9651 15.6996 9.1305C15.682 9.1772 15.6527 9.22757 15.5986 9.23581C15.4719 9.25632 15.3554 9.17555 15.2721 9.08837C15.1929 8.99917 15.1219 8.87829 15.1517 8.75502Z" fill="#000814"/>
<path d="M10.5707 8.88815C10.5925 8.82936 10.6355 8.77313 10.7 8.75939C10.8524 8.72624 11.0086 8.82734 11.074 8.9627C11.1125 9.04164 11.1189 9.15117 11.05 9.21564C11.0092 9.25776 10.9482 9.26546 10.8927 9.26747C10.713 9.24256 10.5496 9.0768 10.5707 8.88815Z" fill="#000814"/>
<path d="M12.5869 8.85899C12.6523 8.81851 12.7349 8.81632 12.8054 8.84489C12.9366 8.89617 13.043 9.01632 13.067 9.15662C13.0813 9.22952 13.0483 9.31524 12.9761 9.34399C12.8972 9.37586 12.8104 9.34637 12.7388 9.30974C12.636 9.24197 12.5486 9.13666 12.536 9.01065C12.5278 8.9546 12.5529 8.90148 12.5869 8.85899Z" fill="#000814"/>
<path d="M14.3497 8.85578C14.4592 8.82831 14.568 8.87392 14.6618 8.92703C14.7926 9.01971 14.9023 9.15048 14.9448 9.30727C14.9658 9.39298 14.9677 9.49903 14.8992 9.56497C14.849 9.6179 14.771 9.62266 14.7028 9.61698C14.6351 9.60123 14.5702 9.57431 14.5118 9.53676C14.3327 9.41515 14.1775 9.20158 14.2235 8.97483C14.2486 8.92117 14.2893 8.87007 14.3497 8.85578Z" fill="#000814"/>
<path d="M16.8034 8.88484C16.909 8.85004 17.0105 8.92861 17.0774 9.00371C17.1404 9.07715 17.1993 9.17624 17.1722 9.27624C17.1537 9.3354 17.0812 9.34419 17.031 9.32423C16.9063 9.27954 16.8101 9.16891 16.7676 9.04528C16.749 8.99235 16.7479 8.91597 16.8034 8.88484Z" fill="#000814"/>
<path d="M7.06408 9.25162C7.06939 9.15821 7.15474 9.09539 7.24229 9.08531C7.39578 9.07725 7.54927 9.20894 7.52491 9.36994C7.50384 9.42305 7.46923 9.4758 7.41245 9.4954C7.25493 9.56152 7.04833 9.42635 7.06408 9.25162Z" fill="#000814"/>
<path d="M11.5218 9.1442C11.755 9.05537 12.0083 9.23504 12.0922 9.4508C12.1308 9.54659 12.1299 9.6607 12.0733 9.74953C12.0293 9.79367 11.9733 9.82976 11.9096 9.83287C11.7586 9.84679 11.6149 9.76418 11.5191 9.65282C11.4322 9.55429 11.3799 9.41692 11.4108 9.28596C11.4246 9.2246 11.4698 9.17662 11.5218 9.1442Z" fill="#000814"/>
<path d="M16.037 9.13038C16.1231 9.10566 16.2097 9.15199 16.2758 9.20383C16.3654 9.27764 16.4379 9.38076 16.4539 9.49761C16.4601 9.55146 16.4451 9.62106 16.3892 9.64322C16.3149 9.66795 16.2356 9.63718 16.1749 9.59359C16.0718 9.51996 15.9885 9.41006 15.9669 9.2835C15.9557 9.22526 15.9751 9.15108 16.037 9.13038Z" fill="#000814"/>
<path d="M13.397 9.23352C13.443 9.18663 13.5128 9.18004 13.575 9.18315C13.6197 9.19213 13.6628 9.20678 13.7047 9.22436C13.8584 9.30513 13.9763 9.45239 14.0111 9.62364C14.0124 9.68134 14.0078 9.74031 13.9839 9.7938C13.9304 9.87109 13.8284 9.89545 13.7406 9.87164C13.56 9.82713 13.4126 9.67822 13.3543 9.50349C13.3252 9.41466 13.3247 9.30239 13.397 9.23352Z" fill="#000814"/>
<path d="M4.69845 9.20333C4.87263 9.15828 5.08198 9.22934 5.16513 9.39547C5.21862 9.50133 5.20012 9.64035 5.11477 9.72442C4.94846 9.90061 4.62464 9.86233 4.49386 9.66196C4.44404 9.58631 4.4336 9.48741 4.46328 9.40224C4.50192 9.30205 4.59497 9.22824 4.69845 9.20333Z" fill="#000814"/>
<path d="M15.1929 9.36832C15.2845 9.33663 15.3832 9.37894 15.4575 9.4326C15.5715 9.52015 15.6673 9.64818 15.676 9.79599C15.6817 9.86119 15.6517 9.93757 15.5857 9.96028C15.4998 9.98354 15.4096 9.95039 15.3394 9.9013C15.2255 9.8209 15.1328 9.69965 15.1103 9.5599C15.0982 9.48847 15.1174 9.39634 15.1929 9.36832Z" fill="#000814"/>
<path d="M17.5844 9.372C17.7219 9.35991 17.8324 9.48922 17.8587 9.61377C17.8734 9.66066 17.8445 9.70223 17.8016 9.71872C17.68 9.69198 17.5833 9.58611 17.5598 9.46541C17.5514 9.43171 17.5719 9.40131 17.5844 9.372Z" fill="#000814"/>
<path d="M5.68345 9.56725C5.8525 9.46377 6.1157 9.57275 6.12925 9.77861C6.14775 9.93558 5.98565 10.0501 5.84041 10.0305C5.71751 10.0132 5.59608 9.92331 5.58033 9.794C5.56568 9.70499 5.61238 9.61835 5.68345 9.56725Z" fill="#000814"/>
<path d="M16.7653 9.60207C16.7887 9.55628 16.8442 9.54913 16.8902 9.54712C17.0441 9.58027 17.1613 9.70335 17.2325 9.83834C17.2708 9.91618 17.2999 10.0131 17.26 10.0959C17.2358 10.1468 17.1739 10.1508 17.1248 10.1512C16.9684 10.1067 16.8455 9.98047 16.779 9.83504C16.7483 9.76306 16.7263 9.67515 16.7653 9.60207Z" fill="#000814"/>
<path d="M10.4211 9.74108C10.4417 9.67166 10.4945 9.60738 10.5696 9.59675C10.7251 9.57038 10.8782 9.68284 10.9306 9.8257C10.9599 9.90739 10.9546 10.0125 10.8837 10.0717C10.8332 10.1175 10.7606 10.1166 10.6969 10.1127C10.5344 10.0709 10.3991 9.91453 10.4211 9.74108Z" fill="#000814"/>
<path d="M14.2507 9.64552C14.2841 9.62848 14.3194 9.61585 14.356 9.60632C14.4192 9.60724 14.4826 9.61823 14.5403 9.64479C14.7328 9.74644 14.8868 9.95194 14.8738 10.1769C14.8605 10.2373 14.8279 10.2932 14.7747 10.3267C14.6561 10.3688 14.5293 10.3232 14.4319 10.2532C14.3073 10.1545 14.2108 10.0171 14.1833 9.85853C14.1769 9.78179 14.1958 9.70193 14.2507 9.64552Z" fill="#000814"/>
<path d="M12.5217 9.6639C12.6865 9.61719 12.8486 9.74614 12.9093 9.89284C12.9422 9.96922 12.9475 10.07 12.8865 10.1342C12.8257 10.1912 12.7314 10.1866 12.6596 10.1549C12.5334 10.1004 12.4332 9.97655 12.4226 9.83735C12.4151 9.76647 12.4514 9.68807 12.5217 9.6639Z" fill="#000814"/>
<path d="M3.60009 9.78993C3.73965 9.7392 3.94186 9.81448 3.95413 9.97822C3.97135 10.1418 3.79185 10.2568 3.64313 10.2343C3.53067 10.2255 3.41565 10.1366 3.41693 10.0165C3.41217 9.90789 3.50155 9.81942 3.60009 9.78993Z" fill="#000814"/>
<path d="M16.0679 9.91221C16.086 9.87081 16.1371 9.87466 16.1745 9.87741C16.2853 9.93052 16.3795 10.0492 16.3489 10.1783C16.2886 10.2294 16.2049 10.1974 16.1555 10.1477C16.0928 10.0899 16.0375 9.99939 16.0679 9.91221Z" fill="#000814"/>
<path d="M11.4375 9.97119C11.6507 9.9428 11.8501 10.102 11.9216 10.2952C11.9635 10.406 11.9584 10.55 11.8626 10.632C11.7992 10.6906 11.7071 10.6914 11.6265 10.6824C11.4069 10.6285 11.2237 10.4108 11.2492 10.1789C11.2584 10.0774 11.3388 9.99262 11.4375 9.97119Z" fill="#000814"/>
<path d="M17.5567 10.0262C17.6087 9.99504 17.6715 10.0192 17.721 10.0447C17.8327 10.1091 17.9157 10.2183 17.9606 10.3385C17.9809 10.4002 17.9932 10.4755 17.9543 10.533C17.914 10.5839 17.8389 10.5694 17.788 10.5443C17.6585 10.4791 17.5626 10.3548 17.5199 10.2176C17.5016 10.1551 17.4939 10.0663 17.5567 10.0262Z" fill="#000814"/>
<path d="M15.1386 10.0991C15.2137 10.0627 15.3017 10.0877 15.3716 10.1244C15.5066 10.2009 15.6105 10.333 15.6506 10.4832C15.6696 10.5607 15.6705 10.6557 15.6103 10.7162C15.5656 10.7608 15.4971 10.7597 15.4388 10.7526C15.2833 10.7075 15.1608 10.5825 15.0938 10.4381C15.0559 10.3596 15.0419 10.2689 15.0632 10.1837C15.0824 10.1511 15.1027 10.1154 15.1386 10.0991Z" fill="#000814"/>
<path d="M4.33661 10.1453C4.44797 10.0772 4.60127 10.0891 4.69908 10.1761C4.79121 10.2514 4.8185 10.3906 4.75696 10.4937C4.7097 10.5525 4.64175 10.5972 4.56483 10.6018C4.42361 10.6184 4.26921 10.5243 4.24229 10.3801C4.22196 10.2908 4.26591 10.1995 4.33661 10.1453Z" fill="#000814"/>
<path d="M13.3836 10.2285C13.4063 10.1946 13.4367 10.1604 13.4812 10.1602C13.5865 10.1547 13.6775 10.234 13.7237 10.3232C13.753 10.3847 13.7671 10.4708 13.7153 10.5248C13.6829 10.5609 13.6303 10.5521 13.5872 10.5518C13.4589 10.5045 13.3545 10.3695 13.3836 10.2285Z" fill="#000814"/>
<path d="M16.8963 10.3377C16.942 10.3216 16.9912 10.3454 17.0271 10.3736C17.0989 10.4326 17.159 10.5231 17.144 10.6202C17.1361 10.665 17.0826 10.6828 17.044 10.6663C16.9561 10.6356 16.8905 10.5546 16.8634 10.4674C16.8528 10.4238 16.8473 10.3597 16.8963 10.3377Z" fill="#000814"/>
<path d="M12.3507 10.4952C12.5355 10.4577 12.7071 10.6286 12.7327 10.8033C12.7531 10.8995 12.6926 11.0167 12.5868 11.022C12.4012 11.0311 12.2367 10.8568 12.2314 10.6756C12.2258 10.5985 12.2712 10.5132 12.3507 10.4952Z" fill="#000814"/>
<path d="M14.1554 10.6581C14.1589 10.5881 14.2012 10.5169 14.2699 10.4942C14.3287 10.4727 14.3918 10.4879 14.4497 10.5052C14.5468 10.5486 14.6268 10.6222 14.6882 10.7083C14.7021 10.7348 14.7173 10.761 14.7314 10.7878C14.7605 10.8552 14.7701 10.9284 14.7712 11.0015C14.7545 11.0652 14.7199 11.1338 14.6516 11.1533C14.5459 11.1839 14.436 11.1345 14.3552 11.0678C14.2354 10.9684 14.1448 10.8178 14.1554 10.6581Z" fill="#000814"/>
<path d="M18.2732 10.5874C18.2882 10.5564 18.2999 10.515 18.3378 10.5051C18.39 10.4927 18.4424 10.5176 18.4849 10.5465C18.6073 10.6339 18.6895 10.7749 18.7023 10.9253C18.6886 10.9583 18.6794 11.004 18.6391 11.0145C18.5836 11.0308 18.528 10.9996 18.4838 10.9687C18.3648 10.8788 18.2805 10.7381 18.2732 10.5874Z" fill="#000814"/>
<path d="M10.4128 10.5404C10.5829 10.4869 10.7644 10.6324 10.786 10.8012C10.8047 10.897 10.7494 11.0097 10.6489 11.0304C10.4659 11.0696 10.2813 10.8939 10.2946 10.7108C10.2933 10.6366 10.3434 10.5659 10.4128 10.5404Z" fill="#000814"/>
<path d="M16.0491 10.6457C16.0946 10.6294 16.1442 10.6457 16.1854 10.6667C16.2865 10.7211 16.3611 10.8208 16.3909 10.9309C16.4061 10.9907 16.4074 11.0699 16.3515 11.1098C16.2931 11.1429 16.223 11.1169 16.1709 11.0838C16.0759 11.0197 16.0024 10.9178 15.9832 10.8037C15.9726 10.7451 15.9867 10.6686 16.0491 10.6457Z" fill="#000814"/>
<path d="M3.2693 10.6695C3.38799 10.6206 3.55393 10.6651 3.59734 10.7951C3.63781 10.9211 3.53928 11.0525 3.41858 11.0847C3.30062 11.1254 3.14347 11.0712 3.10794 10.9435C3.07516 10.8263 3.16032 10.7072 3.2693 10.6695Z" fill="#000814"/>
<path d="M17.6626 10.791C17.715 10.7732 17.7692 10.8038 17.808 10.8375C17.8811 10.9025 17.9405 10.9961 17.9333 11.0976C17.9326 11.1289 17.9113 11.1659 17.8767 11.1666C17.8196 11.1729 17.7692 11.1364 17.7304 11.0991C17.6729 11.039 17.6265 10.9624 17.6214 10.8778C17.6188 10.8441 17.6327 10.8086 17.6626 10.791Z" fill="#000814"/>
<path d="M11.08 11.0922C11.1009 10.9861 11.1954 10.9072 11.302 10.898C11.5366 10.8927 11.741 11.105 11.7538 11.334C11.76 11.4277 11.7243 11.5299 11.6432 11.5831C11.5923 11.6193 11.528 11.6257 11.4672 11.6241C11.225 11.59 11.0287 11.3358 11.08 11.0922Z" fill="#000814"/>
<path d="M15.003 11.1777C14.9922 11.0756 15.029 10.9577 15.1338 10.9201C15.1992 10.9104 15.266 10.9205 15.327 10.946C15.5093 11.037 15.6362 11.2194 15.6734 11.4183C15.6842 11.5194 15.6521 11.637 15.5498 11.679C15.4829 11.689 15.4142 11.6823 15.3523 11.6552C15.1697 11.5623 15.0378 11.3791 15.003 11.1777Z" fill="#000814"/>
<path d="M19.1054 11.0708C19.195 11.067 19.2602 11.1379 19.3036 11.2078C19.3338 11.2617 19.3608 11.3265 19.3424 11.389C19.3272 11.4315 19.2699 11.423 19.2397 11.4031C19.158 11.3536 19.1014 11.2648 19.0836 11.1717C19.0745 11.1357 19.0891 11.1016 19.1054 11.0708Z" fill="#000814"/>
<path d="M2.3163 11.1782C2.41759 11.1409 2.5588 11.1716 2.59965 11.2815C2.64159 11.416 2.50844 11.5389 2.38151 11.5458C2.28828 11.557 2.17802 11.5066 2.15732 11.4083C2.13718 11.3037 2.2207 11.2077 2.3163 11.1782Z" fill="#000814"/>
<path d="M18.3975 11.2682C18.4471 11.2308 18.5125 11.2667 18.5541 11.3008C18.6462 11.381 18.7206 11.5025 18.7043 11.6286C18.6973 11.6876 18.6251 11.6964 18.5816 11.6728C18.4795 11.6202 18.4099 11.5173 18.379 11.4089C18.3704 11.3629 18.3608 11.3046 18.3975 11.2682Z" fill="#000814"/>
<path d="M15.9805 11.4196C16.0623 11.392 16.1497 11.4301 16.2171 11.4766C16.3428 11.5691 16.4354 11.7096 16.4624 11.8641C16.4744 11.9352 16.4704 12.0176 16.4199 12.0739C16.3759 12.1228 16.3023 12.1262 16.2435 12.1072C16.1228 12.0706 16.0319 11.974 15.9629 11.8726C15.9524 11.8543 15.9422 11.8361 15.9319 11.8182C15.8902 11.7228 15.8605 11.6158 15.8889 11.5123C15.9094 11.4735 15.9356 11.4328 15.9805 11.4196Z" fill="#000814"/>
<path d="M12.1398 11.4456C12.197 11.4205 12.2626 11.4145 12.3212 11.4394C12.4741 11.502 12.5809 11.6866 12.5226 11.8486C12.49 11.9044 12.4307 11.9464 12.3638 11.9405C12.1875 11.9282 12.049 11.7458 12.0688 11.5731C12.0724 11.522 12.1054 11.4806 12.1398 11.4456Z" fill="#000814"/>
<path d="M14.2077 11.5254C14.2776 11.47 14.3769 11.4955 14.4366 11.5534C14.5192 11.627 14.5835 11.7505 14.5377 11.8604C14.521 11.9039 14.4736 11.9177 14.4324 11.9259C14.2611 11.8972 14.1183 11.6884 14.2077 11.5254Z" fill="#000814"/>
<path d="M10.2668 11.5474C10.4381 11.5124 10.6 11.6818 10.5888 11.8496C10.5879 11.9446 10.5079 12.0335 10.4112 12.036C10.2656 12.0432 10.139 11.9146 10.1242 11.7741C10.1084 11.6776 10.1661 11.5671 10.2668 11.5474Z" fill="#000814"/>
<path d="M19.133 11.7822C19.1744 11.7817 19.2204 11.7785 19.253 11.81C19.3361 11.8806 19.4021 11.991 19.3858 12.1031C19.3816 12.1414 19.3387 12.1449 19.3088 12.1474C19.1856 12.0778 19.088 11.9258 19.133 11.7822Z" fill="#000814"/>
<path d="M15.0453 11.8362C15.1011 11.8004 15.1711 11.8105 15.2317 11.8261C15.3878 11.8911 15.5046 12.0316 15.557 12.1906C15.5863 12.2772 15.5887 12.3737 15.5556 12.4598C15.5275 12.499 15.4913 12.5378 15.4414 12.5459C15.3504 12.5622 15.2596 12.5234 15.1894 12.4677C15.0618 12.366 14.9705 12.2135 14.9581 12.0492C14.9535 11.9711 14.9757 11.8808 15.0453 11.8362Z" fill="#000814"/>
<path d="M11.0065 11.951C11.0662 11.9096 11.1415 11.892 11.2129 11.9096C11.4118 11.9536 11.5519 12.1734 11.5109 12.3723C11.4966 12.4448 11.4459 12.5047 11.3823 12.5404C11.1567 12.6188 10.9298 12.4005 10.9226 12.18C10.9136 12.095 10.9462 12.0105 11.0065 11.951Z" fill="#000814"/>
<path d="M15.9021 12.3332C15.9693 12.268 16.0704 12.2702 16.1521 12.3052C16.3413 12.4006 16.4668 12.5922 16.5146 12.7951C16.5311 12.8977 16.5226 13.0153 16.4433 13.0915C16.3871 13.1197 16.3232 13.1268 16.2624 13.1107C16.1803 13.0829 16.1105 13.03 16.0481 12.9715C15.9503 12.8635 15.8796 12.7321 15.8501 12.5891C15.8391 12.501 15.8479 12.4067 15.9021 12.3332Z" fill="#000814"/>
<path d="M19.9034 12.353C19.9199 12.3325 19.953 12.3455 19.9728 12.3561C20.0415 12.3981 20.0834 12.4722 20.11 12.5462C20.1224 12.5895 20.1347 12.6431 20.1056 12.6827C20.0812 12.7032 20.0446 12.6865 20.0219 12.6711C19.9567 12.6222 19.914 12.5477 19.8917 12.4706C19.8834 12.4325 19.8724 12.3838 19.9034 12.353Z" fill="#000814"/>
<path d="M11.9583 12.3682C12.2049 12.288 12.4268 12.6605 12.2345 12.8362C12.1063 12.8983 11.9609 12.8122 11.903 12.6942C11.8455 12.5909 11.8444 12.4336 11.9583 12.3682Z" fill="#000814"/>
<path d="M9.99327 12.7523C10.0537 12.6803 10.1607 12.684 10.24 12.7194C10.3116 12.767 10.3603 12.8406 10.3805 12.9239C10.3797 12.9842 10.3788 13.0509 10.3389 13.1003C10.2942 13.1646 10.207 13.1919 10.1332 13.1668C9.96561 13.1219 9.87861 12.8882 9.99327 12.7523Z" fill="#000814"/>
<path d="M16.8388 12.9172C16.9073 12.882 16.9864 12.9161 17.0427 12.9595C17.1515 13.0454 17.2258 13.174 17.2482 13.3108C17.256 13.3798 17.2568 13.4663 17.1951 13.5126C17.1322 13.5549 17.0515 13.522 16.9958 13.4833C16.8776 13.3947 16.7954 13.2569 16.7753 13.1108C16.7674 13.0425 16.7749 12.9569 16.8388 12.9172Z" fill="#000814"/>
<path d="M15.038 13.0406C15.0528 12.9886 15.0851 12.9302 15.1468 12.9294C15.2616 12.9285 15.3481 13.028 15.3913 13.1254C15.4237 13.2024 15.4393 13.3079 15.3734 13.372C15.3277 13.4126 15.2636 13.3917 15.2138 13.3729C15.1047 13.3 15.0341 13.1729 15.038 13.0406Z" fill="#000814"/>
<path d="M10.7765 13.0989C10.8452 13.0249 10.9609 13.0176 11.05 13.0557C11.2141 13.1295 11.3111 13.3266 11.2699 13.5015C11.2562 13.5636 11.2176 13.617 11.1688 13.6572C11.0725 13.7136 10.9465 13.6973 10.8606 13.629C10.7851 13.5757 10.741 13.4921 10.7091 13.4079C10.688 13.3022 10.695 13.1786 10.7765 13.0989Z" fill="#000814"/>
<path d="M15.8499 13.459C15.8609 13.3841 15.9186 13.3207 15.9951 13.311C16.0836 13.3169 16.1632 13.362 16.2264 13.4222C16.3314 13.5294 16.3949 13.6715 16.4114 13.82C16.4096 13.9028 16.3843 13.9922 16.3081 14.0363C16.1889 14.0655 16.0772 13.9933 16.0023 13.9074C15.8964 13.7861 15.8244 13.622 15.8499 13.459Z" fill="#000814"/>
<path d="M11.6286 13.6073C11.6394 13.5393 11.6905 13.4736 11.7615 13.464C11.8289 13.4514 11.8908 13.4891 11.9443 13.525C12.042 13.6292 12.0866 13.8091 11.9766 13.921C11.9335 13.943 11.8841 13.9595 11.8361 13.9454C11.693 13.9091 11.604 13.7489 11.6286 13.6073Z" fill="#000814"/>
<path d="M16.7866 13.8771C16.8798 13.8438 16.9756 13.8886 17.0472 13.9478C17.1947 14.0886 17.2938 14.2912 17.2767 14.4982C17.2654 14.568 17.226 14.6345 17.1559 14.6577C17.0787 14.6595 17.0064 14.6286 16.9469 14.5815C16.7934 14.4469 16.6921 14.246 16.6996 14.0396C16.7066 13.976 16.7353 13.9163 16.7866 13.8771Z" fill="#000814"/>
<path d="M10.5863 14.327C10.67 14.2875 10.7759 14.2937 10.8486 14.3536C11.0131 14.4732 11.0482 14.7556 10.8786 14.8864C10.8182 14.9168 10.7466 14.9282 10.6821 14.904C10.4577 14.8228 10.3869 14.4719 10.5863 14.327Z" fill="#000814"/>
<path d="M15.9571 14.4176C16.0112 14.3935 16.0738 14.416 16.1199 14.4479C16.2287 14.5292 16.2952 14.6623 16.3029 14.7973C16.3024 14.8539 16.291 14.9202 16.2417 14.9557C16.1844 14.9915 16.1108 14.9675 16.0608 14.9301C15.9569 14.8523 15.8921 14.7261 15.8817 14.5975C15.8771 14.5317 15.8908 14.4488 15.9571 14.4176Z" fill="#000814"/>
<path d="M16.7353 15.0733C16.7503 14.9987 16.8032 14.9326 16.8833 14.9275C16.9679 14.9409 17.0402 14.9909 17.0972 15.0533C17.1803 15.1517 17.2334 15.2713 17.2615 15.3967C17.2715 15.4977 17.2715 15.6204 17.1807 15.6872C17.132 15.6986 17.0816 15.6949 17.0355 15.6768C16.8303 15.5572 16.7135 15.3075 16.7353 15.0733Z" fill="#000814"/>
<path d="M10.4129 15.5937C10.5438 15.5622 10.6598 15.6796 10.684 15.8007C10.7191 15.9267 10.6693 16.0944 10.5338 16.1358C10.4021 16.1741 10.2801 16.0547 10.2563 15.9322C10.224 15.804 10.2711 15.6303 10.4129 15.5937Z" fill="#000814"/>
<path d="M17.5485 15.7221C17.5758 15.6574 17.6443 15.6301 17.7106 15.6472C17.8601 15.7164 17.9471 15.871 17.9958 16.0215C18.0304 16.1377 18.0504 16.2835 17.959 16.3794C17.8908 16.4047 17.8205 16.3769 17.7665 16.3347C17.6016 16.1844 17.4959 15.9452 17.5485 15.7221Z" fill="#000814"/>
<path d="M16.8042 16.0485C16.8654 16.0091 16.9405 16.0475 16.9868 16.0928C17.0872 16.1932 17.1436 16.3399 17.13 16.4818C17.1249 16.534 17.0941 16.5981 17.0344 16.601C16.9747 16.6045 16.922 16.5673 16.8835 16.5252C16.7971 16.4302 16.7449 16.301 16.7513 16.1717C16.7535 16.1265 16.7674 16.0776 16.8042 16.0485Z" fill="#000814"/>
<path d="M17.4348 16.8731C17.448 16.8238 17.4722 16.776 17.5185 16.7506C17.6385 16.7403 17.7176 16.8445 17.7747 16.9347C17.8306 17.0431 17.867 17.1618 17.868 17.2848C17.8603 17.3462 17.8381 17.4087 17.7844 17.4447C17.6822 17.453 17.6086 17.3726 17.5522 17.2988C17.4718 17.1726 17.4233 17.024 17.4348 16.8731Z" fill="#000814"/>
<path d="M17.9441 18.0643C17.9523 18.0011 17.9787 17.9178 18.0589 17.9258C18.1754 17.9876 18.2316 18.115 18.2705 18.2345C18.2752 18.2541 18.2804 18.274 18.286 18.2942C18.2943 18.3786 18.3121 18.4759 18.2608 18.5506C18.2375 18.5825 18.1958 18.5702 18.1635 18.5665C18.0115 18.4495 17.9512 18.2491 17.9441 18.0643Z" fill="#000814"/>
<path d="M8.66766 24.2355C9.4238 24.2354 10.1801 24.2355 10.9365 24.2354C10.937 25.0093 10.9363 25.7835 10.9368 26.5575C11.693 26.5575 12.4493 26.5573 13.2054 26.5576C13.2056 27.2915 13.2056 28.0256 13.2054 28.7597C12.4491 28.7599 11.693 28.7599 10.9366 28.7597C10.9365 28.026 10.9368 27.2921 10.9365 26.5582C10.1801 26.5569 9.4238 26.5585 8.66748 26.5575C8.66748 25.7835 8.66748 25.0095 8.66766 24.2355Z" fill="#000814"/>
<path d="M2.20567 26.5916C2.8806 26.3167 3.62845 26.2479 4.34876 26.3351C5.0244 26.4191 5.69051 26.6605 6.22757 27.0856C6.63027 27.4043 6.96059 27.8308 7.10871 28.3269C7.14914 28.4625 7.17668 28.6019 7.18974 28.7428C6.55347 28.8849 5.91791 29.0297 5.28181 29.1722C5.24756 28.9063 5.1291 28.6514 4.94425 28.4568C4.67043 28.1887 4.28573 28.0608 3.90863 28.0407C3.61821 28.0271 3.3195 28.0568 3.05009 28.1721C2.85959 28.2545 2.68358 28.392 2.59548 28.5841C2.50103 28.787 2.50809 29.0414 2.63679 29.228C2.74413 29.386 2.91468 29.4882 3.09034 29.5542C3.22063 29.604 3.35798 29.631 3.49481 29.6566C3.90987 29.7378 4.32528 29.8185 4.74052 29.8997C5.21984 29.9938 5.68945 30.16 6.1031 30.4228C6.52399 30.6891 6.88679 31.0632 7.08841 31.5229C7.37159 32.1625 7.35605 32.9208 7.07587 33.5587C6.93605 33.8726 6.73072 34.1573 6.47597 34.3881C6.01147 34.8075 5.41828 35.0642 4.80849 35.1857C4.09966 35.3236 3.35922 35.3109 2.65815 35.1343C2.01676 34.9696 1.40132 34.6554 0.942831 34.1706C0.540129 33.7695 0.258361 33.2351 0.210693 32.6639C0.863915 32.5204 1.51714 32.377 2.17036 32.2339C2.18554 32.523 2.30082 32.809 2.50562 33.016C2.75984 33.2896 3.12071 33.4439 3.48563 33.4979C3.78858 33.5405 4.10124 33.5331 4.39908 33.4596C4.62523 33.4019 4.85174 33.2905 4.98751 33.0935C5.11338 32.9109 5.13934 32.6703 5.0786 32.4597C5.03217 32.3008 4.91353 32.1731 4.77547 32.087C4.58675 31.9699 4.37136 31.9057 4.15686 31.8543C3.72697 31.7519 3.29672 31.6505 2.86683 31.5482C2.39316 31.4353 1.92761 31.2673 1.51572 31.004C1.24155 30.8271 0.990498 30.6075 0.805654 30.3369C0.563786 29.9878 0.446736 29.5629 0.435966 29.1409C0.416017 28.6048 0.567846 28.0621 0.874331 27.6207C1.19565 27.1477 1.68168 26.807 2.20567 26.5916Z" fill="#000814"/>
<path d="M16.692 26.5791C17.3147 26.3469 17.9886 26.2638 18.6503 26.3129C19.4002 26.3641 20.1438 26.5973 20.7648 27.0259C21.008 27.1953 21.2388 27.3863 21.4305 27.6133C21.8138 28.0568 22.0987 28.5868 22.2465 29.1547C21.5647 29.385 20.8823 29.6138 20.2003 29.8436C20.1038 29.537 19.9632 29.2381 19.7468 28.9973C19.4924 28.7097 19.1365 28.5188 18.759 28.4533C18.1575 28.3451 17.502 28.465 17.0135 28.8435C16.5458 29.1991 16.2808 29.7688 16.2079 30.3425C16.1253 30.9954 16.2111 31.6961 16.5748 32.2574C16.8472 32.6874 17.2997 32.9867 17.7896 33.1104C18.2218 33.2185 18.6882 33.2029 19.1081 33.0513C19.6806 32.8423 20.1292 32.34 20.2861 31.7526C20.9567 31.9759 21.6275 32.1993 22.2979 32.4233C22.1319 33.0273 21.8164 33.5896 21.3834 34.0424C20.981 34.4698 20.4782 34.8009 19.9281 35.0048C19.217 35.2698 18.4389 35.3339 17.6892 35.2345C16.9033 35.128 16.1424 34.8155 15.5247 34.3157C15.1066 33.9778 14.755 33.559 14.4878 33.0928C14.1683 32.5351 13.9759 31.9069 13.9153 31.2675C13.8457 30.5247 13.9345 29.7635 14.2006 29.0651C14.4107 28.5112 14.7336 28.0008 15.1451 27.5748C15.5787 27.134 16.1121 26.7929 16.692 26.5791Z" fill="#000814"/>
<path d="M8.6674 28.7597C9.42373 28.7592 10.1801 28.7595 10.9366 28.7595C10.9366 29.7392 10.9366 30.719 10.9366 31.6988C10.9406 31.9343 10.9247 32.1711 10.9544 32.4054C10.9823 32.607 11.0428 32.816 11.1872 32.9663C11.3834 33.1564 11.6613 33.2321 11.928 33.2452C12.374 33.2678 12.8381 33.1659 13.2057 32.9046C13.2052 33.5241 13.2057 34.1435 13.2053 34.763C13.0094 34.9286 12.7703 35.0336 12.5286 35.1131C12.1071 35.2474 11.6606 35.2928 11.2196 35.275C10.6204 35.2518 10.0079 35.0885 9.53142 34.7118C9.09041 34.3686 8.82382 33.8405 8.7239 33.2978C8.64798 32.9165 8.67093 32.5261 8.6674 32.1397C8.6674 31.013 8.6674 29.8864 8.6674 28.7597Z" fill="#000814"/>
<path d="M17.2127 40.9426C18.7516 40.9426 19.9996 42.1904 19.9996 43.7298V55.6463C19.9996 57.1852 18.7516 58.4332 17.2127 58.4332H5.29621C3.75704 58.4332 2.50903 57.1852 2.50903 55.6463V43.7298C2.50903 42.1904 3.75704 40.9426 5.29621 40.9426H17.2127Z" fill="#000814"/>
<path d="M17.1514 52.6862C17.0999 52.5156 16.8532 52.3953 16.8532 52.3953C16.8299 52.383 16.809 52.372 16.7918 52.3634C16.3807 52.1646 16.0162 51.9252 15.7093 51.654C15.4626 51.4355 15.2516 51.195 15.0822 50.9397C14.8748 50.628 14.7778 50.3678 14.7361 50.2267C14.7128 50.1346 14.7164 50.0978 14.7361 50.0499C14.752 50.0094 14.7999 49.9714 14.822 49.953C14.9607 49.8548 15.184 49.71 15.3215 49.6216C15.4406 49.5443 15.5424 49.478 15.6026 49.4363C15.7952 49.3013 15.9278 49.1638 16.0051 49.0153C16.1057 48.8239 16.118 48.6128 16.0395 48.4054C15.9339 48.1255 15.6725 47.9586 15.3399 47.9586C15.2663 47.9586 15.1902 47.9672 15.1141 47.9832C14.9239 48.0249 14.7434 48.0924 14.5925 48.1513C14.5814 48.1562 14.5692 48.1476 14.5704 48.1353C14.5864 47.761 14.6048 47.2578 14.563 46.7804C14.5262 46.3484 14.4366 45.9839 14.2918 45.666C14.1458 45.3469 13.9555 45.1113 13.807 44.9407C13.6659 44.7787 13.4167 44.5394 13.0412 44.3246C12.5135 44.0227 11.9121 43.8693 11.2542 43.8693C10.5976 43.8693 9.99749 44.0227 9.46853 44.3246C9.07088 44.5516 8.81683 44.8081 8.70147 44.9407C8.55296 45.1113 8.36273 45.3469 8.21668 45.666C8.07064 45.9839 7.98227 46.3472 7.94545 46.7804C7.90372 47.2603 7.92091 47.723 7.93809 48.1353C7.93809 48.1476 7.92704 48.1562 7.91477 48.1513C7.76381 48.0924 7.5834 48.0249 7.39317 47.9832C7.3183 47.9672 7.24221 47.9586 7.16735 47.9586C6.83598 47.9586 6.57456 48.1255 6.46779 48.4054C6.38924 48.6128 6.40151 48.8239 6.50215 49.0153C6.5807 49.1638 6.71202 49.3013 6.9047 49.4363C6.96361 49.478 7.06671 49.5443 7.18575 49.6216C7.31953 49.7087 7.53676 49.8499 7.67667 49.9468C7.69386 49.9591 7.75277 50.0033 7.77118 50.0499C7.79081 50.099 7.79449 50.1358 7.76872 50.234C7.72577 50.3764 7.62881 50.6341 7.42508 50.9397C7.25571 51.1962 7.04462 51.4355 6.79793 51.654C6.4911 51.9252 6.1266 52.1646 5.71545 52.3634C5.69582 52.3732 5.6725 52.3842 5.64795 52.399C5.64795 52.399 5.40249 52.5242 5.35586 52.6862C5.28713 52.9255 5.46999 53.1501 5.65532 53.2704C5.95969 53.4667 6.33033 53.5723 6.54511 53.63C6.60524 53.6459 6.65924 53.6606 6.70834 53.6754C6.73902 53.6852 6.81634 53.7146 6.84948 53.7576C6.8912 53.8116 6.89611 53.8779 6.91084 53.9527C6.93416 54.0791 6.98693 54.235 7.1428 54.343C7.31462 54.4608 7.53185 54.4694 7.80799 54.4805C8.09641 54.4915 8.45478 54.505 8.86592 54.6412C9.05616 54.7038 9.2292 54.8106 9.42803 54.9333C9.84531 55.1898 10.3645 55.5089 11.2506 55.5089C12.1379 55.5089 12.6607 55.1886 13.0805 54.9309C13.2793 54.8094 13.4499 54.7038 13.6364 54.6425C14.0476 54.5062 14.4059 54.4927 14.6944 54.4817C14.9705 54.4707 15.1877 54.4633 15.3596 54.3442C15.5265 54.2289 15.5743 54.0571 15.5964 53.9282C15.6087 53.8644 15.6161 53.8067 15.6529 53.76C15.6848 53.7195 15.756 53.6913 15.7891 53.6803C15.8394 53.6643 15.8959 53.6496 15.9585 53.6324C16.1733 53.5747 16.4433 53.5072 16.7709 53.3219C17.1661 53.0973 17.1931 52.8224 17.1514 52.6862Z" fill="white"/>
<path d="M17.4926 52.5536C17.4055 52.3155 17.2386 52.1891 17.0495 52.0836C17.014 52.0627 16.9808 52.0455 16.9538 52.0333C16.8974 52.0038 16.8397 51.9756 16.782 51.9461C16.1917 51.6332 15.7302 51.238 15.4111 50.7704C15.3031 50.6121 15.2282 50.4697 15.1755 50.3531C15.1485 50.2745 15.1497 50.2304 15.1693 50.1899C15.1841 50.1592 15.2233 50.1273 15.2454 50.1113C15.3473 50.0438 15.4516 49.9763 15.5228 49.9309C15.6492 49.8487 15.7498 49.7836 15.8137 49.7394C16.0567 49.5701 16.226 49.3897 16.3316 49.1884C16.4813 48.9049 16.4997 48.5809 16.3844 48.2765C16.2248 47.8543 15.8247 47.5917 15.3411 47.5917C15.2405 47.5917 15.1386 47.6027 15.038 47.6248C15.011 47.631 14.9852 47.6371 14.9595 47.6432C14.9644 47.356 14.957 47.0492 14.9312 46.7498C14.8404 45.6943 14.471 45.1408 14.0856 44.7002C13.9248 44.5161 13.645 44.2473 13.2253 44.0067C12.6399 43.6705 11.9771 43.5011 11.2543 43.5011C10.5338 43.5011 9.87109 43.6705 9.28567 44.0055C8.86348 44.2461 8.58365 44.5161 8.4241 44.6989C8.03873 45.1395 7.66932 45.6931 7.5785 46.7485C7.55272 47.048 7.54659 47.3548 7.55027 47.642C7.5245 47.6359 7.49749 47.6297 7.47172 47.6236C7.37108 47.6015 7.26799 47.5905 7.16858 47.5905C6.68502 47.5905 6.28493 47.8531 6.12538 48.2753C6.01001 48.5797 6.02842 48.9037 6.17815 49.1872C6.2837 49.3884 6.45429 49.5689 6.69607 49.7382C6.76112 49.7836 6.86053 49.8487 6.98694 49.9297C7.05567 49.9739 7.15508 50.0389 7.25326 50.104C7.26799 50.1138 7.32076 50.153 7.33917 50.1899C7.36004 50.2316 7.36004 50.277 7.32936 50.3605C7.27781 50.4746 7.20294 50.6145 7.0974 50.7692C6.78444 51.2269 6.33647 51.6148 5.76578 51.924C5.46264 52.0848 5.14845 52.1916 5.0159 52.5524C4.91526 52.8249 4.98154 53.1354 5.23559 53.3968C5.31904 53.4864 5.42459 53.5662 5.55714 53.6398C5.86887 53.8116 6.13397 53.8963 6.34261 53.954C6.37943 53.965 6.46411 53.992 6.50093 54.0252C6.5942 54.1062 6.5807 54.2289 6.70466 54.4081C6.77953 54.5198 6.86544 54.5959 6.93662 54.645C7.19558 54.8241 7.48768 54.8352 7.79696 54.8475C8.07555 54.8585 8.39219 54.8708 8.75302 54.9898C8.90275 55.0389 9.05862 55.1346 9.2378 55.2451C9.66981 55.5114 10.2626 55.8747 11.253 55.8747C12.2447 55.8747 12.8399 55.509 13.2756 55.2426C13.4548 55.1334 13.6094 55.0377 13.7543 54.9898C14.1151 54.8708 14.4317 54.8585 14.7103 54.8475C15.0196 54.8352 15.3105 54.8241 15.5707 54.645C15.6517 54.5885 15.7547 54.4965 15.8357 54.3565C15.9241 54.2056 15.9229 54.0988 16.0063 54.0264C16.0407 53.9969 16.1156 53.9712 16.1561 53.9589C16.3659 53.9012 16.6347 53.8165 16.9526 53.641C17.0937 53.5637 17.203 53.479 17.2901 53.3821C17.2913 53.3808 17.2926 53.3796 17.2938 53.3784C17.5306 53.1207 17.5908 52.82 17.4926 52.5536ZM16.6126 53.0261C16.0751 53.3232 15.7179 53.2912 15.4406 53.4692C15.2049 53.6214 15.3436 53.9491 15.173 54.0669C14.9619 54.2129 14.3397 54.0571 13.5358 54.3222C12.8731 54.5419 12.4496 55.1715 11.2555 55.1715C10.0589 55.1715 9.64772 54.5443 8.97516 54.3222C8.17128 54.0571 7.54781 54.2129 7.33795 54.0669C7.16735 53.9491 7.30604 53.6214 7.0704 53.4692C6.79303 53.29 6.43588 53.3219 5.89833 53.0261C5.55591 52.8371 5.74982 52.7206 5.86396 52.6653C7.81046 51.724 8.11973 50.2684 8.13446 50.1592C8.15164 50.0291 8.17005 49.926 8.02646 49.7922C7.88778 49.6634 7.27044 49.2817 7.09985 49.1626C6.81634 48.965 6.69239 48.7674 6.78444 48.5244C6.84825 48.3563 7.00535 48.2937 7.17103 48.2937C7.22258 48.2937 7.27535 48.2998 7.32567 48.3109C7.63618 48.3784 7.93809 48.5342 8.11237 48.576C8.13692 48.5821 8.15778 48.5846 8.17619 48.5846C8.26946 48.5846 8.30137 48.5379 8.29524 48.4312C8.2756 48.0912 8.22651 47.4284 8.28051 46.8087C8.35415 45.9569 8.62906 45.5347 8.95552 45.1604C9.11262 44.9812 9.849 44.2031 11.2567 44.2031C12.6681 44.2031 13.4008 44.9812 13.5579 45.1604C13.8843 45.5335 14.1593 45.9557 14.2329 46.8087C14.2869 47.4284 14.2403 48.0912 14.2182 48.4312C14.2108 48.5428 14.2452 48.5846 14.3372 48.5846C14.3556 48.5846 14.3777 48.5821 14.401 48.576C14.5753 48.5342 14.8772 48.3784 15.1877 48.3109C15.2381 48.2998 15.2908 48.2937 15.3424 48.2937C15.5081 48.2937 15.6652 48.3575 15.729 48.5244C15.821 48.7674 15.6958 48.965 15.4136 49.1626C15.243 49.2817 14.6256 49.6634 14.487 49.7922C14.3434 49.9248 14.3618 50.0279 14.3789 50.1592C14.3924 50.2684 14.703 51.724 16.6494 52.6653C16.7599 52.7206 16.955 52.8371 16.6126 53.0261Z" fill="#000814"/>
</svg>
