<svg width="34" height="23" viewBox="0 0 34 23" fill="none" xmlns="http://www.w3.org/2000/svg">
<path d="M12.8356 6.74619V4.76154C13.0316 4.74929 13.2276 4.73704 13.4236 4.73704C18.863 4.56553 22.4281 9.4169 22.4281 9.4169C22.4281 9.4169 18.5813 14.7583 14.4527 14.7583C13.9014 14.7583 13.3624 14.6726 12.8478 14.501V8.47358C14.9672 8.73085 15.396 9.66192 16.6579 11.7813L19.4878 9.40465C19.4878 9.40465 17.4174 6.69719 13.9381 6.69719C13.5706 6.68494 13.2031 6.70944 12.8356 6.74619ZM12.8356 0.179688V3.14442L13.4236 3.10766C20.9824 2.85039 25.9196 9.30664 25.9196 9.30664C25.9196 9.30664 20.2596 16.1917 14.3669 16.1917C13.8524 16.1917 13.3501 16.1427 12.8478 16.0569V17.8946C13.2643 17.9436 13.6931 17.9803 14.1097 17.9803C19.5981 17.9803 23.5674 15.1748 27.4142 11.8671C28.0512 12.3816 30.6607 13.619 31.1997 14.158C27.5489 17.2208 19.0345 19.6832 14.2077 19.6832C13.7421 19.6832 13.3011 19.6587 12.8601 19.6097V22.1946H33.7112V0.179688L12.8356 0.179688ZM12.8356 14.501V16.0692C7.76367 15.1626 6.35481 9.88243 6.35481 9.88243C6.35481 9.88243 8.79275 7.18723 12.8356 6.74619V8.46133H12.8233C10.7039 8.20406 9.03777 10.1887 9.03777 10.1887C9.03777 10.1887 9.98109 13.5332 12.8356 14.501ZM3.83112 9.66192C3.83112 9.66192 6.8326 5.22708 12.8478 4.76154V3.14442C6.1833 3.68346 0.425354 9.31889 0.425354 9.31889C0.425354 9.31889 3.68411 18.7521 12.8356 19.6097V17.8946C6.12204 17.0615 3.83112 9.66192 3.83112 9.66192Z" fill="#000814"/>
</svg>
