<svg width="31" height="37" viewBox="0 0 31 37" fill="none" xmlns="http://www.w3.org/2000/svg">
<path d="M16.4612 4.18973C17.7897 2.0873 20.1163 0.525281 22.6237 0.35553C22.8713 2.65729 21.9197 5.01357 20.3032 6.64255C18.9966 7.91958 17.2041 8.88202 15.3322 8.70137C15.0472 7.12066 15.6826 5.53839 16.4612 4.18973Z" fill="#000814"/>
<path d="M20.6989 9.2993C23.8821 8.73242 27.4064 10.0468 29.216 12.7784C27.492 13.9246 26.064 15.6175 25.5578 17.6576C25.0392 19.5872 25.3102 21.7052 26.2399 23.4681C27.0902 25.0519 28.537 26.2791 30.18 26.9815C29.3422 29.6118 27.9079 32.0179 26.1605 34.1421C25.3211 35.1311 24.3353 36.1044 23.038 36.433C21.6956 36.8364 20.2955 36.3925 19.0792 35.8116C17.3661 35.0034 15.3369 34.9224 13.5724 35.6138C12.216 36.134 10.8206 36.9002 9.31776 36.5669C7.71525 36.1885 6.57994 34.8819 5.60348 33.6422C3.87638 31.5274 2.5355 29.0994 1.71322 26.494C0.71652 23.4104 0.258659 20.059 0.97504 16.8649C1.55749 14.3186 3.02607 11.8845 5.30447 10.5265C7.35395 9.25258 9.99521 8.83209 12.2658 9.75716C13.6316 10.1745 14.9927 11.1401 16.4769 10.6916C17.8816 10.2259 19.2272 9.54536 20.6989 9.2993Z" fill="#000814"/>
</svg>
